<svg id="svg15682" xmlns="http://www.w3.org/2000/svg" viewBox="-253 182.1 451.2 196.9"><style>.st0{fill:#fff}.st1{fill:url(#rect4486_1_)}.st2{fill:url(#rect4523_1_)}.st3{fill:url(#rect4556_1_)}.st4{fill:url(#polygon4585_1_)}.st5{fill:url(#rect4628_1_)}.st6{fill:url(#polygon4657_1_)}.st7{opacity:.55;fill:url(#polygon4700_1_);enable-background:new}.st8{fill:url(#polygon4725_1_)}.st9{fill:url(#polygon4750_1_)}.st10{fill:url(#rect4781_1_)}.st11{fill:url(#polygon4832_1_)}.st12{fill:url(#rect4859_1_)}.st13{fill:url(#rect4900_1_)}.st14{fill:url(#polygon4929_1_)}.st15{fill:url(#polygon4954_1_)}.st16{fill:url(#polygon4983_1_)}.st17{fill:url(#polygon5012_1_)}</style><g id="layer1" transform="translate(-120.12 -522.492)"><path id="path4453" class="st0" d="M219.5 794.8s10.1-10.5 12.9-10.8c.9-.1 1.3 1.4.2 3.1-.2.5 0 1 1.7-.7 1.7-1.8 5.1-7.1.5-9.8-3.8-2.2-7.5-1-7.5-1s-3.7-6.2-13.7-1.4c-7.2 3.4-10.2 4.2-16.6 4.5-7.7.3-22.6-2.7-41.1-22.2l-33.2-10.8s-35.3-17.9-50.3-36.9c-.6-1.2 2.4 18.3 29 36.4.1.2-24.9-8.6-42.2-26.6-.4-.5 4 16.4 25.9 28.2-.4.1-17.6-4.1-30.7-14.2-.1-.1 3.8 15 29.8 21.8.2.1-15.6-2.8-29.3-8.5-1.2-.9 7.5 11.6 27 15.3 0 0-4.9-.5-9.8-1.3-3.8-.7-11.4-2.4-11.4-2.4s1.6 4.9 20.5 8.7l-14.8-1.9s.8 4.5 21.4 7.9c-.6.5-8.7-.5-14.9-2.6 0 0 1.5 4.7 15.9 8.9 2.6.8 5.9 1.3 9.6 1.4.2 0 9.4 9.6 13.8 11.2 1.3.5 1.7 0 2.3.4.5.3.2.7 1 1.2s1.3-.1 2 .3c.8.4.4.9 1.3 1.5.9.5 1.6-.3 2.2.2.7.4.3 1.2 1.2 1.7.9.5 1.7-.3 2.6.2.8.5.2 1.3 1.4 1.9 1.2.6 1.7 0 2.6.4.9.4.2 1.3 1.5 2s2.1-.3 2.8.3c.7.6.6 1.5 2 2.7 1.5 1.2 4.4 3 6.8 4 0 0-27.4 3.9-39.4 7.6-.1 2 2.2 4.6 6.5 6.4.9.4 5.5 2.3 9.7 2.5 0 .1-11.8 5.1-13.9 7.7.4.5 4.1 3.3 20.5.3 0 .1-9.7 6.2-11.6 9.1.1.3 9.5 3.9 20.1-2.1 0 .1-2.9 2.9-3.8 5.5 0 .1 7 .1 12-4.2-.1.1-1.1 5 5.9-.6 0 .1 2.9 3 13.4-11.3 1.4-2 2.8-4 4-6.8 4.3-.7 9.6-1.6 14.4-3.1.1.1 3.4 1.1 6.6.9 3.3-.2 2 .7 5.2 1.3 2.3.4 2.9-.4 4.2-.3 1.2.1 1.3.8 3.4 1.1 1.9.2 2.6-.4 4.1-.1 1.8.4 3.3 1.8 11.4 2.7 7.3.8 12.1-.4 14.4-2.1-.1.1 12.7 1.9 14.6-2.1 0 0 13.1 1.5 12.6-1.9.7-.1 17.6 3 20.5-2.3.1-.1-9.8-1.5-9-1.8 1.7 0 23 3.7 27.6-2.8-1.9-.1-15.7-2.4-15.5-2.5.3-.2 25.7 3.2 30-5.5-.9-.1-20.4-.8-20.7-1.2-.2-.2 22.9 1.1 24.4-7.7-1.4.2-12 1.3-23.5.7.3-.5 22.2-2.1 24.4-12.5-1 0-10.9 7.8-43.1 5.7-3.8-.2-12.7-2.1-23.4 1.3-10.9 3.3-17.8 2.1-17.9 2.1-.3-.3-6.6-1.6-10.5 2.9"/><radialGradient id="rect4486_1_" cx="-159.557" cy="412.414" r="2" gradientTransform="matrix(60.9297 0 0 60.7713 9948.809 -24254.266)" gradientUnits="userSpaceOnUse"><stop offset="0" stop-color="#fff"/><stop offset=".038" stop-color="#fff"/><stop offset=".145" stop-color="#fff"/><stop offset=".268" stop-color="#fff"/><stop offset=".397" stop-color="#fff"/><stop offset=".494" stop-color="#fff"/><stop offset=".539" stop-color="#fff"/><stop offset=".637" stop-color="#fff"/><stop offset=".681" stop-color="#fff"/><stop offset=".857" stop-color="#fff"/><stop offset="1" stop-color="#fff"/></radialGradient><path id="rect4486" class="st1" d="M156.9 805.9s-43 6.4-52.8 9.6c-.2.1-.5.2-.7.2 0 .3.3 1.6 1.6 2.7 3.3 2.9 11.4 5.6 16.2 5.1-.2.1-9 4.4-11.8 6-2.9 1.6-3.7 2.3-3.7 2.3s2.7 2.8 22.1-.7c-.7.3-12.4 8.5-13 9.8.1.3 10.2 3.9 22-4.3.1 0-2.4 2.4-4.4 4.9-.5.6-.9 1.3-1.3 1.8-.4.6-.4.8-.4.8h.5c1.7-.1 6.6-.7 11.6-5-.3.4-2.2 5.9 5.1 0 .1.2 1.8 2.7 9.9-7.2 7.9-9.9 7.4-12.5 7.4-12.5l-8.3-13.5z"/><radialGradient id="rect4523_1_" cx="-160.803" cy="413.459" r="2.002" gradientTransform="matrix(75.1821 0 0 74.9867 12148.83 -30180.266)" gradientUnits="userSpaceOnUse"><stop offset="0" stop-color="#fff"/><stop offset=".005" stop-color="#fff"/><stop offset=".103" stop-color="#fff"/><stop offset=".197" stop-color="#fff"/><stop offset=".29" stop-color="#fff"/><stop offset=".382" stop-color="#fff"/><stop offset=".387" stop-color="#fff"/><stop offset=".437" stop-color="#fff"/><stop offset=".511" stop-color="#fff"/><stop offset=".6" stop-color="#fff"/><stop offset=".7" stop-color="#fff"/><stop offset=".735" stop-color="#fff"/><stop offset="1" stop-color="#fff"/></radialGradient><path id="rect4523" class="st2" d="M158.2 806.8s-38.9 7.7-46 10.2c-.1.1 6.5 4.6 16.4 4.2-3.1 1.9-14.3 7.5-15.6 8.9.6.4 13.5-.7 21.5-2.3-3.2 2.9-9.2 7.8-11.7 10.7.1-.1 7.3.3 18.3-6.6-1.6 4.3-6.3 9.6-6.3 9.6s6.7-2.3 11.3-7.5c-.2.4-4.2 9.1 4.5.4 0 .4.2 4.6 8.3-6.3 6.3-9.1 3.8-11.8 3.8-11.8l-4.5-9.5z"/><path id="path4527" class="st0" d="M270.2 795.3s34.9-2.2 43.2-11.8c0 .1-2.7 12-43.2 11.8"/><linearGradient id="rect4556_1_" gradientUnits="userSpaceOnUse" x1="-160.028" y1="413.055" x2="-158.029" y2="413.055" gradientTransform="translate(11358.715 -28063.844) scale(69.8997)"><stop offset="0" stop-color="#fff"/><stop offset=".005" stop-color="#fff"/><stop offset=".177" stop-color="#fff"/><stop offset=".453" stop-color="#fff"/><stop offset=".491" stop-color="#fff"/><stop offset=".658" stop-color="#fff"/><stop offset=".804" stop-color="#fff"/><stop offset=".923" stop-color="#fff"/><stop offset="1" stop-color="#fff"/></linearGradient><path id="rect4556" class="st3" d="M216.5 793.5c-6.2 6.4-41.1 21-43.7 23l5.4.7c1.5 1.1 4.5 1.5 5.8 1.6 1.2.1 1.5.1 2 .1s.9-.1 1.6-.1c.7-.1 1.1 0 1.6.3 1.2.8 1.7 1.1 3.2 1.2.9.1 1.6-.1 2.2-.2.8-.2 1.4-.4 2-.1 1.8 1 3.6 1.1 5.6.8.6-.1 1.2-.1 1.8.2 2.2 1 4.7 1.6 7.1 2.1 1.3.2 2.8.5 4.8.7 2 .1 3 .1 6.2-.1s6.1-1.3 5.6-1.6c-7.9-.8-10.5-3-9.4-2.7 19.3 4.8 24.9 1.6 24 1.1-9.9-2.1-12-3.7-11.7-3.8 16.2 4.5 25.5 2.9 24.4 2.2-8.5-2.3-17.4-6.6-17.4-6.6 23 7.4 32.8 6.2 36.3 5 1.4-.5 1.8-.9 1.8-.9-22.1-3.1-25.8-6.9-25.8-7 26 6.6 37.3 5.1 41.8 3.7 1.9-.6 2.6-1.2 2.6-1.2-28.2-4-28.6-5.7-29-5.9 37.9 7.4 43.9-2.1 43.7-2.1-20.9-.3-33.2-2.8-35.3-3.2 36.4 3.5 39.1-5.5 39.1-5.5-10.1 1.4-26.6.5-37.2-.2-11.1-.8-15.1-.6-30.6 1.4-29.4 3.9-28.5-2.9-28.5-2.9z"/><linearGradient id="polygon4585_1_" gradientUnits="userSpaceOnUse" x1="-158.546" y1="412.156" x2="-156.546" y2="412.156" gradientTransform="rotate(-14.282 -89777.618 -23354.49) scale(54.0251)"><stop offset="0" stop-color="#fff"/><stop offset=".005" stop-color="#fff"/><stop offset=".177" stop-color="#fff"/><stop offset=".453" stop-color="#fff"/><stop offset=".491" stop-color="#fff"/><stop offset=".658" stop-color="#fff"/><stop offset=".804" stop-color="#fff"/><stop offset=".923" stop-color="#fff"/><stop offset="1" stop-color="#fff"/></linearGradient><path id="polygon4585" class="st4" d="M216.6 794.2c-2.3 2.4-34 15.3-40.1 20l21.8 3.8c13.4 5.9 26.8 4.8 25.8 4.3-10-1.6-13.1-6.3-11.6-5.6 17.6 5.4 28.1 4.4 27.3 4-13-2.6-12.2-6-12.6-6.2 8.3 3.5 24.2 4.6 23.2 3.9-15.3-4.3-15.9-7.9-15.9-7.9 23.9 6.4 32.7 6.1 35.1 5.8.4 0 .7-.1.7-.1-23.5-3.4-25.7-9.3-25.7-9.4 25.6 6 38.9 5.6 43.3 5.2 1.1-.1 1.7-.2 1.7-.2-28.6-2.6-29.8-7.9-30.2-8 25.3 4.7 43.6.8 43.4.8-29.9-.4-37-5.5-37.4-5.6 28.9 2.9 40.9-2.3 40.9-2.3-5.3 1.2-31.4-1.2-41.2-1.8-10.2-.8-9-.4-23.2 1.5-21.1 1.9-25.3-2.2-25.3-2.2z"/><path id="path4589" class="st0" d="M265.1 805.8s33 3.4 43.7-2.1c0 0-5.2 9.4-43.7 2.1"/><path id="path4591" class="st0" d="M249.7 809.2s32.2 6.1 44.4 2.5c-.2 0-6.2 7.4-44.4-2.5"/><path id="path4593" class="st0" d="M237.4 812.1s26.7 7.4 38.1 4.1c0 0-5.8 6.4-38.1-4.1"/><path id="path4595" class="st0" d="M273.5 800.6s34.7 4 39.1-5.5c0 0-8.1 6.4-39.1 5.5"/><radialGradient id="rect4628_1_" cx="-159.703" cy="414.333" r="1.998" gradientTransform="matrix(112.7162 0 0 112.4231 18266.055 -45852.938)" gradientUnits="userSpaceOnUse"><stop offset="0" stop-color="#fff"/><stop offset=".038" stop-color="#fff"/><stop offset=".145" stop-color="#fff"/><stop offset=".268" stop-color="#fff"/><stop offset=".397" stop-color="#fff"/><stop offset=".494" stop-color="#fff"/><stop offset=".539" stop-color="#fff"/><stop offset=".637" stop-color="#fff"/><stop offset=".681" stop-color="#fff"/><stop offset=".857" stop-color="#fff"/><stop offset="1" stop-color="#fff"/></radialGradient><path id="rect4628" class="st5" d="M73.9 711.5s8.2 23.9 38.2 38.1c-1.7-.5-32.2-8.2-51.7-29 .1.2 10.7 22.8 34.8 28.8-1.4-.2-21.6-2-39.4-15 .5.5 7.7 16.7 39.1 21.2 0 0-14.6 1.7-38.1-8.2.4.3 13.6 14.2 36.7 14.2 0 0-13.4 1.8-31-3.2-.5.4 13 8.2 31.5 8.1.2 0-6.1 1.9-25.9-1.4-.8.1 10.7 6.7 28.3 6.9.2 0-8 3.2-21.9-1.4-.6.2 11.1 8.4 24.5 8.4l2.3 2.1s9.2 9.6 12.9 9.2c.6-.1 1.3.2 1.5.8.1.4.2.6.6.8.3.2.6.1.8.1.3 0 .6-.1 1 .1.8.4.6.9 1 1.3.5.4 1.2.4 1.8.3 1-.2 1.3.7 1.7 1.3.3.6 1.1.8 2 .5.5-.2 1.2.1 1.4.7.2.5.2 1.1.6 1.4.4.4 1.1.4 1.7.3.4-.1 1-.1 1.3.2.4.3.5.9.7 1.3.2.4.8 1.1 2.7.8 1.1-.2 1.5.9 1.9 1.8.5 1.2 3 2.7 3.8 3.2 1.4.9 4.7 2.6 5.8 2.9l2.8-.4h.1s6.6 2.5-6 12.8c2.2 3.7 43.8 3.5 67.7-17.1 1.9-1.7 4.2-4.1 6.2-6 0-.3.5-15.1-2.3-21.8 0 0-26.1 16.6-56.2-18.1-.6-.4-2.6-.1-5 .1-4 .3-9.3.6-11.5-1.5-.3-.3-50.7-24.2-66.4-44.6z"/><linearGradient id="polygon4657_1_" gradientUnits="userSpaceOnUse" x1="-157.545" y1="410.706" x2="-155.545" y2="410.706" gradientTransform="scale(40.7355) rotate(-21.911 -1085.505 -200.547)"><stop offset="0" stop-color="#fff"/><stop offset=".005" stop-color="#fff"/><stop offset=".177" stop-color="#fff"/><stop offset=".453" stop-color="#fff"/><stop offset=".491" stop-color="#fff"/><stop offset=".658" stop-color="#fff"/><stop offset=".804" stop-color="#fff"/><stop offset=".923" stop-color="#fff"/><stop offset="1" stop-color="#fff"/></linearGradient><path id="polygon4657" class="st6" d="M201.9 796.2l-9.6 1.7c-10.5 12.7-42.3 19.5-44.6 20 2.2.1 1.8.9 1.8.9.6 2-.2 2.7-.2 2.7 4.3 0 6.9-1.8 7.9-2.4.2 1.4.1 3 .1 3 37.1-2.8 52.9-20.3 52.9-20.3l-4.8 2.1c-1 .5-.1-.3-.1-.3l3-3.1-4.3 1.2 2.7-2.5-8.7 1.9 3.9-4.9z"/><path id="path4661" class="st0" d="M227.2 777.3s-3.5-8.1-17.1-.4c.1 0 2.3-1 3-.5.1-.1-2.4.4-6.8 3.5 0 0 1.1-.3 1.3 0 .1-.1-4.8 3.1-13.7 2.8 0-.1.8.7 4.6.9 0 0-3.5 1.5-9.3.5 0 0 .2 1.3 3.5 2 0-.1-3.5 1-6.3.9 0 .1.7 1 4.6 1.2.1 0-1.5 1.3-4.9 2.3 0 0 2.1.6 7.9-1 0 0-2.7 1.9-7.2 4 0 0 2.4.3 7.3-.6 0 0-.7 1.1-3.8 2.6 0 0 2.6.1 5.8-.8 0 0-1.1 1.6-4.3 3.5.1 0 2.5 0 9.6-1.7 0 0-3 4-4.1 5 .1-.1 3.6-.6 6.6-1.5 1.2-.3 2.8-.9 1.2.5-1.6 1.4-1.6 1.6-1.6 1.6s2.8-.6 3.8-1.1c0 0-2.2 2.8-3.4 3.5.1 0 3.6-.7 5.4-1.8 0 0 .3 1.8 1.2 2.5 0 0 4.9-7 8.9-10.3 2.6-3 8.6-8.7 9-9.7 1.4-2.8-1-7.4-1.2-7.9"/><path id="path4663" class="st0" d="M217.5 778s-.3 1.9 3.7 1.2c0 0-3 1.3-4.3-.7 0 0-1.1-.1-2.3.3 0 0 1.5-.7 2.9-.8"/><path id="path4665" class="st0" d="M217.6 777.7s1.3-1 3.7-.1c.2.1.1.1.3.2.1 0 .2 0 .3.1.3.1.5.1.8.1h.7c.2 0 .4-.2.4-.4 0-.3-.3-.6-.6-.7-.4-.2-.8-.2-.8-.2s.3.2.4.3c.2.3.1.6-1.2.2.2-.1-3.6-1.6-4 .5"/><path id="path4667" class="st0" d="M221.9 778.1c0 .6-.8 1-1.8 1s-1.8-.5-1.8-1c0-.6.8-1 1.8-1s1.8.4 1.8 1"/><path id="path4669" class="st0" d="M221.4 778c0 .4-.5.8-1.2.8s-1.2-.3-1.2-.8c0-.4.5-.8 1.2-.8.7.1 1.2.4 1.2.8"/><path id="path4671" class="st0" d="M220.8 778c0 .2-.3.4-.7.4s-.7-.2-.7-.4.3-.4.7-.4.7.2.7.4"/><path id="path4673" class="st0" d="M220.3 777.1s.5.6 1 .8c.6.2 0-.7 0-.7l-1-.1z"/><path id="path4675" class="st0" d="M214.4 774.6c-1.5.6-3 1.3-4.5 2.1-1.9.9-4.9 1.7-5.1 1.8.1 0 3.3-.5 5.8-1.7.7-.3 1.3-.6 2-.9 1.2-.5 2.4-1 3.7-1.4 2.2-.7 5.1-.8 7.3.5 1.4.8 1.8 1.9 1.8 2.1v.1c.5-.4 1.4-.6 1.8-.7-.1-.1-.1-.2-.3-.3-1.2-1.5-2.8-2.7-4.8-2.9-1.7-.2-3.5 0-5.2.5-.8.2-1.7.5-2.5.8"/><linearGradient id="polygon4700_1_" gradientUnits="userSpaceOnUse" x1="-151.598" y1="407.306" x2="-149.599" y2="407.306" gradientTransform="scale(23.181) rotate(-34.992 -662.62 -33.453)"><stop offset="0" stop-color="#fff"/><stop offset="1" stop-color="#fff"/></linearGradient><path id="polygon4700" class="st7" d="M220.7 783.6s-3 2-7.4 3.8c2.2-.6 4.7.2 3.7 1.3-.6.7-4.6 2.2-5.8 2.7 3.8-.8 3.3.6.3 1.8-1.4.8-6.8 2.5-7.6 2.8 0 0 .8-.1 1.8-.3 1.5-.2 3.3-.4 2.7-.1-2 1.2-5.1 2.8-9.1 4.5 0 0 3.9-.5 8.3-2.1.7-.3.2.5-.5 1.2s-1.4 1.5-1 1.2c3.1-.5 3.5-1.1 3.5-1-.9 1.1-2.4 2.8-3.3 3.5.7-.2 2.3-.8 4.4-1.8-.2.4-.7 1.9-.2 2.6.1.1 2-3.4 4.8-5.9 2-1.9 3.8-3.9 7.1-7.1 2.6-2.3 5.2-5.1 8.4-7.1-.1-.2-1.8 0-3.7.1-2.9.4-6.2.7-6.4-.1z"/><linearGradient id="polygon4725_1_" gradientUnits="userSpaceOnUse" x1="-154.99" y1="398.019" x2="-152.99" y2="398.019" gradientTransform="rotate(-8.831 -36701.954 -13685.76) scale(15.7763)"><stop offset="0" stop-color="#fff"/><stop offset=".116" stop-color="#fff"/><stop offset=".24" stop-color="#fff"/><stop offset=".438" stop-color="#fff"/><stop offset=".686" stop-color="#fff"/><stop offset=".97" stop-color="#fff"/><stop offset="1" stop-color="#fff"/></linearGradient><path id="polygon4725" class="st8" d="M229.9 776c-2.3 0-4.4.6-4.8.9-.9.8-.9 3.7-2 4.9-1.1 1.1-4.3.5-5.1 1.8-1.6 3 4.7 2.1 9.4.8 2.2-.5.5 1.5.5 1.5.3-.2.8-.6.8-.6.3-.2.6-.4.8-.6.5-.4 1.1-.7 1.7-1 .3-.2.7-.3 1-.3.2 0 .6-.1.8 0 1.9.9.1 3.3.2 3.5 1.5-1.1 5-5.7 2.2-8.8-1.3-1.7-3.5-2.1-5.5-2.1z"/><linearGradient id="polygon4750_1_" gradientUnits="userSpaceOnUse" x1="-147.765" y1="373.465" x2="-145.764" y2="373.465" gradientTransform="scale(6.9399) rotate(-9.215 -1673.228 -870.156)"><stop offset="0" stop-color="#fff"/><stop offset=".197" stop-color="#fff"/><stop offset=".475" stop-color="#fff"/><stop offset=".801" stop-color="#fff"/><stop offset=".878" stop-color="#fff"/><stop offset=".982" stop-color="#fff"/><stop offset="1" stop-color="#fff"/></linearGradient><path id="polygon4750" class="st9" d="M231 782.2c-.7 0-1.5.2-2.2.3-1.1.2-2.2.5-3.4.6-.8.1-1.6.2-2.4.2-.8 0-1.6 0-2.4.2-.2 0-1.2.3-.7.6.4.2 1 .2 1.5.1.6-.1 1.1-.2 1.7-.3.4-.1.9-.1 1.3-.2.5-.1.9-.2 1.4-.3.8-.2 1.6-.3 2.4-.5 1.4-.3 2.9-.5 4.3.1.5.2 1.1.3 1.3 1.3 0-.3 0-1-.5-1.5-.6-.5-1.6-.6-2.3-.6z"/><path id="path4754" class="st0" d="M227.7 777.6c.2.2 0 .8-.4 1.2-.4.4-1 .6-1.3.4-.2-.2-.1-.8.3-1.2.5-.3 1.1-.5 1.4-.4"/><path id="path4756" class="st0" d="M227.6 777.5c.2.2.1.7-.4 1.1-.4.4-1 .6-1.3.4-.2-.2-.1-.7.4-1.1.5-.4 1.1-.6 1.3-.4"/><path id="path4758" class="st0" d="M228 776.7s5.3-1.4 6.8 2.6c0 0-1-2.4-6.8-2.6"/><linearGradient id="rect4781_1_" gradientUnits="userSpaceOnUse" x1="-159.401" y1="410.678" x2="-157.401" y2="410.678" gradientTransform="translate(7652.628 -18358.815) scale(46.6275)"><stop offset="0" stop-color="#fff"/><stop offset=".005" stop-color="#fff"/><stop offset=".034" stop-color="#fff"/><stop offset=".455" stop-color="#fff"/><stop offset=".791" stop-color="#fff"/><stop offset="1" stop-color="#fff"/></linearGradient><path id="rect4781" class="st10" d="M313.4 783.5s-9.2 4.8-22.5 5.4c-.7 0-1.4.1-2.1.1-3.3.2-6.6.2-9.9.3-3.7 0-7.3-.2-11.2-.5-1.8-.1-3.6-.4-5.3-.4-2.5-.1-5.1.1-7.6.5-2.6.4-5.1 1.2-7.6 1.8-5.2 1.3-10.8 2.5-16.2 1.8-8.4-1-10.8 2.6-10.8 2.6 2.2.8 4.6 1.3 7.7 1.5 1.6.1 6.6.2 12.5-.3 4.2-.4 7.2-1.1 10.4-1.7 2-.4 3.7-.5 5.7-.8 1.7-.2 3.7-.3 5.4-.2 2 0 5.6.5 9.6.6 3.1.1 6.8-.1 10-.3 2.3-.1 9-1.2 11-1.5.5-.2 18.7-3.7 20.9-8.9z"/><path id="path4785" class="st0" d="M220.1 795s2.4-3.6 10.8-2.6c5.4.6 11-.5 16.2-1.8 2.5-.6 5-1.4 7.6-1.8 2.5-.4 5.1-.5 7.6-.5 1.8 0 3.6.3 5.4.4 3.8.3 7.4.6 11.2.5 3.3 0 6.6-.1 9.9-.3.7 0 1.4-.1 2.1-.1 0 1.3-3.1 1.7-4.1 1.8-2 .3-4.4.4-6.7.4-3.1.1-6.1.1-9.2 0-3-.1-6-.5-8.9-.6-1.7 0-3.4 0-5.1.2-2 .2-4 .6-6.1 1-3.1.6-6 1.6-10.2 1.9-4.2.4-7 .4-10.1-.1-3-.2-6.8-.2-10.4 1.6"/><linearGradient id="polygon4832_1_" gradientUnits="userSpaceOnUse" x1="-161.99" y1="412.173" x2="-159.991" y2="412.173" gradientTransform="rotate(15.508 80843.611 47541.729) scale(58.3683)"><stop offset="0" stop-color="#fff"/><stop offset=".005" stop-color="#fff"/><stop offset=".057" stop-color="#fff"/><stop offset=".118" stop-color="#fff"/><stop offset=".174" stop-color="#fff"/><stop offset=".223" stop-color="#fff"/><stop offset=".26" stop-color="#fff"/><stop offset=".368" stop-color="#fff"/><stop offset=".482" stop-color="#fff"/><stop offset=".6" stop-color="#fff"/><stop offset=".722" stop-color="#fff"/><stop offset=".852" stop-color="#fff"/><stop offset="1" stop-color="#fff"/></linearGradient><path id="polygon4832" class="st11" d="M117.4 752.7c-1.7 0-3.4.2-4.8.7-1.8.6-3.6 1.6-4.9 3.2-1.4 1.8-2.5 4.6-2.6 8v.5c0 2.4.6 5.1 1.9 7.9 1.6 3.5 4.9 7.5 9.4 11.8 2.4 2.2 5.2 4.5 8.5 6.8 2 1.4 5.2 2.9 7.6 4.3 0 0 35.5-6.1 48.9-3.6 4.6.9 4.8 2.7 4.8 2.7s.3-2.3-3.5-5.9c-2.5-2.4-6.7-5.9-11.8-9.1-3.9-2.5-7.2-5-11.9-8-.5-.4-25.5-19.3-41.6-19.3z"/><linearGradient id="rect4859_1_" gradientUnits="userSpaceOnUse" x1="-161.195" y1="409.281" x2="-159.195" y2="409.281" gradientTransform="translate(6567.302 -15743.038) scale(40.3184)"><stop offset="0" stop-color="#fff"/><stop offset=".039" stop-color="#fff"/><stop offset=".155" stop-color="#fff"/><stop offset=".276" stop-color="#fff"/><stop offset=".541" stop-color="#fff"/><stop offset=".95" stop-color="#fff"/><stop offset=".994" stop-color="#fff"/><stop offset="1" stop-color="#fff"/></linearGradient><path id="rect4859" class="st12" d="M80.8 720.9c0 .2 11.6 18.2 38.1 30.5 0 .1-18.7 0-48.1-19.3.1.2 12.7 14 33.6 18.8-.1 0-.5.1-1.3.1-3.8.3-16 .5-35-7.6.2.1 7.5 8 35.8 12.2.1 0-1 .4-3.1.8-4.8.9-15 1.8-29.9-2.2.2.1 8.3 5.2 31.3 6.5 0 .1-9.1 3.9-26.1 1.9.3.1 8.4 2.9 26.2 3.1.2 0-7.4 3.2-21 2.5.3.3 12.5 3 21.9 2.7.1.1-5.9 4.8-16.7 3.7 0 .1 7.1 3 15.1 2.3.2.2 9 11.1 14.2 10.6.8 0 1.2.4 1.5 1 .3.6.7.8 1.6.8h.4c.6 0 .9-.1 1.4.8.5.9.5 1 1.8 1.1 1.3.1 1.5.5 1.8 1 .5.8 1 1.3 2 1.2 1.1 0 1.7.3 2 1 .4.7 1.7 2.3 3.8 1.5 0 0-24.6-15.1-26.7-28.1-.7-4.8-.4-15.4 12.3-14.4 12.7.9 29.6 11.6 30.6 12.4.1.1-14.7-15.1-14.7-15.1.5 0-24.9-5.1-52.8-29.8z"/><linearGradient id="rect4900_1_" gradientUnits="userSpaceOnUse" x1="-160.733" y1="404.675" x2="-158.734" y2="404.675" gradientTransform="translate(4117.687 -9284.374) scale(24.8717)"><stop offset="0" stop-color="#fff"/><stop offset=".005" stop-color="#fff"/><stop offset=".177" stop-color="#fff"/><stop offset=".453" stop-color="#fff"/><stop offset=".53" stop-color="#fff"/><stop offset=".652" stop-color="#fff"/><stop offset=".804" stop-color="#fff"/><stop offset=".978" stop-color="#fff"/><stop offset="1" stop-color="#fff"/></linearGradient><path id="rect4900" class="st13" d="M120 753.6s31.2 23.9 25.9 54c0 0 23.5-2.6 23.8-16.8v-.6c-.1-4-1.9-8.9-6.6-14.9 0 0-25.4-19.5-43.1-21.7z"/><path id="path4902" class="st0" d="M91.9 706.4s-9.3 8.9 33.6 42.4c14.4 11.1 42 34.2 60.1 34 4.1-.2 5.8-1.4-.3-3.4-5.7-1.9-20.7-9.3-28.4-21.8-1.2-2.6-6.9-4.1-16-10.2-.1-.1-37.2-22.1-49-41"/><linearGradient id="polygon4929_1_" gradientUnits="userSpaceOnUse" x1="-117.58" y1="384.952" x2="-115.579" y2="384.952" gradientTransform="rotate(-53.675 -1880.215 716.313) scale(6.1292)"><stop offset="0" stop-color="#fff"/><stop offset=".005" stop-color="#fff"/><stop offset=".012" stop-color="#fff"/><stop offset=".05" stop-color="#fff"/><stop offset=".145" stop-color="#fff"/><stop offset=".511" stop-color="#fff"/><stop offset=".809" stop-color="#fff"/><stop offset="1" stop-color="#fff"/></linearGradient><path id="polygon4929" class="st14" d="M92 708s0 2.4.7 4.6c1.4 4 6 12 18.9 22.9 17.4 14.7 36.4 29.2 46.2 35.4 9.8 6.1 20.7 10 26.1 10.4 3.4 0-2.7-2.2-2.7-2.2s-8-2.4-20.1-12c-.8-.6-2.4-2.3-4.5-4.4-1.4-1.4-2.5-3.6-7.8-7-3.5-2.2-4.8-3.2-8.6-5.8-5.9-4.1-40.6-27.1-46.4-38.6-.4-.6-1.6-2.4-1.8-3.3z"/><linearGradient id="polygon4954_1_" gradientUnits="userSpaceOnUse" x1="-150.439" y1="381.932" x2="-148.437" y2="381.932" gradientTransform="rotate(-9.214 -15996.373 -7319.882) scale(8.5795)"><stop offset="0" stop-color="#fff"/><stop offset=".197" stop-color="#fff"/><stop offset=".475" stop-color="#fff"/><stop offset=".801" stop-color="#fff"/><stop offset=".878" stop-color="#fff"/><stop offset=".982" stop-color="#fff"/><stop offset="1" stop-color="#fff"/></linearGradient><path id="polygon4954" class="st15" d="M218.1 783.5c-.4.4-.5.8-.5 1.3 0 1 1.5 1.2 3.1 1.1 2.1-.1 4.4-.8 4.4-.8-8.1 1.1-7-1.6-7-1.6z"/><linearGradient id="polygon4983_1_" gradientUnits="userSpaceOnUse" x1="-157.282" y1="403.073" x2="-155.28" y2="403.073" gradientTransform="rotate(-12.714 -33989.492 -10268.56) scale(20.0049)"><stop offset="0" stop-color="#fff"/><stop offset=".005" stop-color="#fff"/><stop offset=".177" stop-color="#fff"/><stop offset=".453" stop-color="#fff"/><stop offset=".491" stop-color="#fff"/><stop offset=".658" stop-color="#fff"/><stop offset=".804" stop-color="#fff"/><stop offset=".923" stop-color="#fff"/><stop offset="1" stop-color="#fff"/></linearGradient><path id="polygon4983" class="st16" d="M157.1 819.4c-9.4 4.6-10.8.6-10.8.6s-.8 1.2-.6 2.7c0 .2-.1 3.1 5.7 1.7 1.7-.4 1.9-.4 3.9-1.2 2.4-1 1.8-3.8 1.8-3.8z"/><linearGradient id="polygon5012_1_" gradientUnits="userSpaceOnUse" x1="-157.408" y1="403.424" x2="-155.41" y2="403.424" gradientTransform="matrix(19.9822 -4.5083 4.5083 19.9822 1458.419 -7946.51)"><stop offset="0" stop-color="#fff"/><stop offset=".005" stop-color="#fff"/><stop offset=".177" stop-color="#fff"/><stop offset=".453" stop-color="#fff"/><stop offset=".491" stop-color="#fff"/><stop offset=".658" stop-color="#fff"/><stop offset=".804" stop-color="#fff"/><stop offset=".923" stop-color="#fff"/><stop offset="1" stop-color="#fff"/></linearGradient><path id="polygon5012" class="st17" d="M148.2 818.1c-.3 0-.5.1-.9.3-1.5 1.2-6.8 2.6-6.9 2.6 0-.6-1.4-.8-3 .3-1.9 1.4 1.3 2.4 1.3 2.4.4 2.4 4.7.8 5.3.5 1-.5 2.8-1.3 4.1-2.2 1.9-1.6 1.3-3 1.3-3s-.3-.9-1.2-.9z"/><path id="path5016" class="st0" d="M157.3 818c-3.7 2.7-7.3 2.4-7.3 2.5.1-.1.2-.6.2-.8v-.7c-.3-1.5-1.9-1.4-3-1-.5.2-.9.4-1.3.7-1.8 1.2-5.6 1.6-5.6 1.6 0-1.1-2.2.1-2.2.1-1.6-.6-.1-2.1-.1-2.1-4 .9-1.7 3.3-1.7 3.3-.5.6.4 1.3.4 1.3.2 1.3 1.9 1.5 1.9 1.5.7 1.3 2.8 1.3 3.9.9.9-.3 3-1.2 3.2-1.2 1 1.6 4.2 1.1 5.3.9 1.7-.3 3.5-.7 5.1-1.6 2.5-1.5 1.5-5.1 1.2-5.4m-3.9 5.5c-.4.1-1.4-.2-1.5-1 0 0-.7.7.3 1.3 0 .1-1.5.4-2.2.4-.1.1-1.4-.1-1.3-1.1 0 0-.8.4-.1 1.2 0 0-2.1.3-2.5-1.2 0-.1-1.5.6-1.5.6s-.9 0-.9-.5c0 0-.6.5 0 .9 0 0-3.1 1.2-3.2-.2 0 0 4.1-.8 7.8-3.5 0 0-2.4 1.3-3.6 1.6-.2.1-1.5-.2-1.4-1 0-.1-1.1.5.3 1.4l-.7.3-.8.2s-1.3 0-1.5-1c0 0-.9.8.4 1.4 0 0-2.4 1-3.6-.7-.4-.6.4-1.4 1.1-1.6.7-.3 1.7-.5 1.5.3.1 0 4.8-.9 7-2.2 1.4-.8 3.1.3 1.2 2.8-.1.1 3.6.7 8.5-2 .1-.1.9 2.6-3.3 3.6"/><path id="path4429" class="st0" d="M136.7 891c-6.9 0-15.9-3.2-16.1-13H155c.4-13.6-8.3-23.6-21-23.6-13.9 0-23.4 9.4-23.4 22.4 0 13 9.3 22.5 25.9 22.9 8.4.2 13.2-3 17.1-5.5v-7.9c-.1.1-9.9 4.7-16.9 4.7m-2.9-28.6c6.1 0 11.3 5.2 11.3 8.3h-24c0-3.5 4.8-8.3 12.7-8.3"/><path id="path4431" class="st0" d="M8.5 837.6v-.3H-7.3v.3c2 1.2 2.4 4.5 2.6 7.8v44.3c-.1 3.5-.6 7-2.6 8.1v.3H8.5v-.3c-2-1.2-2.5-4.8-2.5-8.2v-43.9c.1-3.3.5-6.9 2.5-8.1"/><path id="path4433" class="st0" d="M89.3 866.1c6.2-1.2 13.8-4.8 13.8-14.2 0-8.8-7.3-14.6-22-14.6H59.7v.3c1.9 1.2 2.4 4.5 2.5 7.8v44.4c-.1 3.5-.6 7-2.5 8.1v.3h24.6c13.5 0 23.4-4.9 23.4-17.3 0-12.3-12.6-14.8-18.4-14.8m-16.4-20.2v-1.1c1.5-.1 2.9-.2 4.4-.2 11.3 0 14.9 2.7 14.9 8.3 0 7.8-8.4 9.5-16.7 9.5-.8 0-1 0-2.6-.1v-16.4zm9.1 44.4c-3.5 0-5.8-.2-9.1-.7v-19.1c1.2-.1 2.5-.2 3.6-.2 10.7 0 19.7 1.1 19.7 10.5.1 5.7-3.4 9.5-14.2 9.5"/><path id="path4435" class="st0" d="M185 855.5v.3c1.5 1.2.6 4.4-.6 7.8l-8.7 21.5-12-29.5h-10.8v.3c2.4 1.2 2 4.5 3.4 7.8l10.6 26.2c2.8 6.6 10.9 8.4 10.9 8.4h.5l17.3-42.7H185z"/><path id="path4437" class="st0" d="M54.1 889.7v-20c-.1-3.2-.6-6.5-2.3-9-2.9-4.3-8.8-6.3-14-6.3-5.8 0-8.3.3-12.6 4v.1l-2.4-.1-10.8-2.9v.3c2 1.2 2.4 4.5 2.5 7.8v26.1c-.1 3.5-.6 7-2.5 8.1v.3h15.8v-.3c-2-1.2-2.4-4.7-2.5-8.2V870c.3-4.5 2.7-8.8 8.6-8.8 7.3 0 9.5 3.7 9.6 12.7v15.7c-.1 3.5-.6 7-2.6 8.1v.3h15.8v-.3c-2-1-2.5-4.5-2.6-8"/><path id="path4439" class="st0" d="M118.7 876.7H153c.4-13.6-8.3-23.6-21-23.6-13.9 0-23.4 9.4-23.4 22.4 0 13 9.5 22.9 25.9 22.9 8.1 0 13.2-2.7 17.1-5.2v-8s-8.5 4.7-16.8 4.5c-7.3-.3-15.9-3.2-16.1-13m13.2-15.6c6.1 0 11.3 5.2 11.3 8.4h-23.9c-.1-3.6 4.7-8.4 12.6-8.4"/><path id="path4441" class="st0" d="M6.6 836.3v-.3H-9.2v.3c2 1.2 2.4 4.5 2.6 7.8v44.3c-.1 3.5-.6 7-2.6 8.1v.3H6.6v-.3c-2-1.2-2.5-4.7-2.6-8.2v-43.9c.2-3.3.6-6.9 2.6-8.1"/><path id="path4443" class="st0" d="M87.4 864.8c6.2-1.2 13.8-4.8 13.8-14.2 0-8.8-7.3-14.6-22-14.6H57.7v.3c2 1.2 2.4 4.5 2.6 7.8v44.4c-.1 3.5-.6 7-2.6 8.1v.3H82.4c13.5 0 23.4-4.9 23.4-17.4 0-12.2-12.6-14.7-18.4-14.7M71 844.6c0-.4 0-.8.1-1.2 1.5-.1 2.9-.2 4.4-.2 11.3 0 14.9 2.7 14.9 8.3 0 7.8-8.4 9.5-16.7 9.5-.8 0-1 0-2.6-.1v-16.3H71zm9.1 44.4c-3.5 0-5.8-.2-9.1-.7v-19.1c1.2-.1 2.5-.2 3.6-.2 10.7 0 19.7 1.1 19.7 10.5.1 5.7-3.4 9.5-14.2 9.5"/><path id="path4445" class="st0" d="M183 854.2v.3c1.5 1.2.7 4.4-.6 7.8l-8.7 21.5-12-29.5h-13.1v.3c2.4 1.2 4.3 4.5 5.7 7.8l10.6 26.2c2.9 6.6 10.9 8.4 10.9 8.4h.5l17.3-42.7H183v-.1z"/><path id="path4447" class="st0" d="M52.2 888.4v-20c-.1-3.2-.6-6.5-2.3-8.9-2.9-4.3-8.8-6.4-14-6.4-5.8 0-8.3.3-12.6 4v.1-3H10.1v.3c1.9 1.2 2.4 4.5 2.5 7.8v26.1c-.1 3.5-.6 7-2.5 8.1v.3h15.8v-.3c-2-1.2-2.4-4.7-2.5-8.2v-19.6c.3-4.5 2.7-8.8 8.6-8.8 7.3 0 9.5 3.7 9.6 12.7v15.7c-.1 3.5-.6 7-2.5 8.1v.3h15.8v-.3c-2.1-1-2.6-4.6-2.7-8"/><path id="path4449" class="st0" d="M-33.4 866.1c6.2-1.2 13.8-4.8 13.8-14.2 0-8.8-7.3-14.6-22-14.6h-21.5v.3c2 1.2 2.4 4.5 2.6 7.8v17.4c-6.3.2-12.1 1-17.3 2.2l-11.3-27.8h-12.6l.1.1h-.9v.3c1.5 1.2.6 4.5-.6 7.8l-18 44.4c-1.5 3.5-3.4 7-5.8 8.1v.3h13.1c.2-.3 4-6.8 12.8-13.5 4.5-3.4 10.2-6.8 17.4-9.3l5.8 14.2c1.3 3.5 2.3 7 .8 8.1v.3h12.7l-10.2-25.2c4.3-.9 9-1.5 14.1-1.7v18.5c-.1 3.5-.6 7-2.6 8.1v.3H-38.3c13.5 0 23.4-4.9 23.4-17.3-.2-12.1-12.7-14.6-18.5-14.6m-72 11.3l11.3-27.9 7.3 18.1c-7.6 2.7-13.7 6.2-18.6 9.8m55.6-31.5c0-.4 0-.8.1-1.1 1.5-.1 2.9-.2 4.4-.2 11.3 0 14.9 2.7 14.9 8.3 0 7.8-8.4 9.5-16.7 9.5-.8 0-1 0-2.6-.1v-16.4h-.1zm9.1 44.4c-3.5 0-5.8-.2-9.1-.7v-19.1c1.2-.1 2.5-.2 3.6-.2 10.7 0 19.7 1.1 19.7 10.5 0 5.7-3.4 9.5-14.2 9.5"/><path id="path4451" class="st0" d="M-35.3 864.8c6.2-1.2 13.8-4.8 13.8-14.2 0-8.8-7.3-14.6-22-14.6H-65v.3c2 1.2 2.4 4.5 2.5 7.8v17.4c-6.2.2-11.8.9-17 2.1L-90.6 836h-13.8v.3c1.5 1.2.6 4.5-.6 7.8l-18 44.4c-1.5 3.5-3.4 7-5.9 8.1v.3h13.1c.2-.3 4-6.8 12.8-13.5 4.4-3.3 10.1-6.7 17.2-9.2l5.8 14.3c1.3 3.5 2.3 7 .7 8.1v.3H-66l-10.3-25.3c4.2-.9 8.8-1.4 13.7-1.6v18.5c-.1 3.5-.6 7-2.5 8.1v.3H-40.4c13.5 0 23.4-4.9 23.4-17.4 0-12.2-12.5-14.7-18.3-14.7m-72 11.3l11.2-27.5 7.2 17.8c-7.5 2.6-13.6 6.1-18.4 9.7m55.5-31.5c0-.4 0-.8.1-1.2 1.5-.1 2.9-.2 4.4-.2 11.3 0 14.9 2.7 14.9 8.3 0 7.8-8.4 9.5-16.7 9.5-.8 0-1 0-2.6-.1v-16.3zm9.2 44.4c-3.5 0-5.8-.2-9.1-.7v-19.1c1.2-.1 2.5-.2 3.7-.2 10.7 0 19.7 1.1 19.7 10.5-.1 5.7-3.5 9.5-14.3 9.5"/><path id="path5018" class="st0" d="M146.1 822.6s.2.3 1.4-.2c0 0-1 0-1.2-.6 0 0-.5.5-.2.8"/><path id="path5020" class="st0" d="M218 796s8.1 4.2 33.9-.5c0 0 5.3-1 11.4-.7 0 0 16.9 1.6 31-2.9 0 0-15.2 2.8-27.3 1.9 0 0-8.3-1.2-15.1.4 0 0-22.8 4.5-32.6.5L218 796z"/><path id="path5022" class="st0" d="M92 708.1s11.3 19.6 61.5 47.9c1.1.6 2.2 1.4 2.9 2.5.8 1.3 1.5 2.6 2.4 3.9 1.5 2.1 3.2 4 5 5.7 2 2 4.2 3.8 6.5 5.5 1.5 1.1 3.6 2.2 5.2 3.1-.1 0-11.1-4.4-22-16.7-2.2-2.4-10.2-7.1-10.6-7.3-.3-.4-47.8-31.3-50.9-44.6"/></g></svg>