<svg id="Layer_1" xmlns="http://www.w3.org/2000/svg" viewBox="0 0 311.3 118.7"><style>.st0{opacity:.5}.st1{fill:#c5cb79}</style><g id="XMLID_4744_" class="st0"><g id="XMLID_4688_"><g id="XMLID_186_"><path id="XMLID_190_" class="st1" d="M301.6 9.9c-16.2 40.5-49.9 72.7-91.4 86.3C164 111.4 116 101.5 75 77 51.1 62.7 29.9 44.4 9.7 25.3c.8.7-.5 4 0 5 10.6 21.9 17.5 45.3 20.7 69.5-.2-1.6.2-3.4 0-5-3.2-24.1-10.1-47.5-20.7-69.5v5c34.9 33 74.4 64.6 122.5 75 44.8 9.7 92.9-2.2 127.7-32.1 18.4-15.7 32.7-35.9 41.7-58.3.6-1.4-.5-3.5 0-5z"/></g></g><g id="XMLID_4695_"><g id="XMLID_191_"><path id="XMLID_195_" class="st1" d="M9.3 27.5C44.7 43.3 84 56.9 121.9 41.1c-.9.4-2 .4-2.9.8-35.3 14.7-74.2-.7-106.8-15.2-.7-.3-2.2 1.1-2.9.8z"/></g></g></g></svg>