<svg id="Layer_1" xmlns="http://www.w3.org/2000/svg" viewBox="-327 225 303.3 112"><style>.st0{opacity:.5}.st1{fill:#c5cb79}</style><g id="XMLID_1_" class="st0"><g id="XMLID_5_"><g id="XMLID_6_"><path id="XMLID_7_" class="st1" d="M-321.5 234.3c.6 1.4-.6 3.6.1 5 9.6 21.8 24.4 41 42.9 56 35.9 29 84.8 39.4 129.5 28 47.7-12.1 86.1-45.3 119.9-79.6v-5c-9.8 22.3-15.9 45.9-18.1 70.2-.2 1.7.2 3.4 0 5 2.3-24.2 8.4-47.9 18.1-70.2.5-1.1-.8-4.2 0-5-19.4 19.8-39.9 38.8-63.2 54-39.9 26-87.3 37.8-134 24.6-42.3-12-77.4-42.9-95.2-83z"/></g></g><g id="XMLID_2_"><g id="XMLID_3_"><path id="XMLID_4_" class="st1" d="M-28.8 240.9c-.7.3-2.2-1.2-2.9-.7-31.9 15.7-70.5 32.6-106.2 19.3-.9-.4-2-.5-2.9-.8 38.6 14.4 77.1-.6 112-17.8z"/></g></g></g></svg>