<?xml version="1.0" encoding="utf-8"?>
<!-- Generator: Adobe Illustrator 19.2.0, SVG Export Plug-In . SVG Version: 6.00 Build 0)  -->
<svg version="1.1" id="Слой_1" xmlns="http://www.w3.org/2000/svg" xmlns:xlink="http://www.w3.org/1999/xlink" x="0px" y="0px"
	 viewBox="0 0 80.1 176.6" style="enable-background:new 0 0 80.1 176.6;" xml:space="preserve">
<style type="text/css">
	.st0{fill:#FFFFFF;}
	.st1{fill:#2E0B01;}
	.st2{opacity:0.55;fill:#2E0B01;enable-background:new    ;}
	.st3{opacity:0.2;enable-background:new    ;}
	.st4{fill:#55721a;}
	.st5{fill:#CB242D;}
	.st6{fill:#DC5B2B;}
	.st7{opacity:0.5;}
	.st8{fill:#C5CB79;}
	.st9{fill:#E2001A;}
	.st10{fill:#B70718;}
	.st11{fill:#EFB886;}
	.st12{fill:#BBDBE8;}
	.st13{fill:#50542E;}
	.st14{opacity:0.1091;fill:#FFFFFF;enable-background:new    ;}
	.st15{opacity:0.5;fill:#CB242D;enable-background:new    ;}
	.st16{opacity:0.6;}
	.st17{fill:#EC9488;}
	.st18{fill:none;stroke:#50542E;stroke-linecap:round;stroke-miterlimit:10;}
	.st19{opacity:0.2;fill:#55721A;enable-background:new    ;}
	.st20{fill:#55721A;}
	.st21{fill:none;stroke:#FFFFFF;stroke-miterlimit:10;}
	.st22{fill:none;stroke:#C5CB79;stroke-width:2;stroke-miterlimit:10;}
	.st23{fill:#CDC09E;}
	.st24{opacity:0.1;fill:#55721a;}
	.st25{opacity:0.9;}
	.st26{opacity:0.9;fill:#44A3BC;enable-background:new    ;}
	.st27{opacity:0.1091;fill:#44A3BC;enable-background:new    ;}
	.st28{opacity:0.1091;fill:#55721A;enable-background:new    ;}
	.st29{opacity:0.4;}
	.st30{opacity:0.9;fill:#55721A;enable-background:new    ;}
	.st31{opacity:0.4;fill:#55721A;}
	.st32{fill:#D95929;}
	.st33{fill:#F68D1A;}
	.st34{fill:#FFC73B;}
	.st35{fill:#FABC14;}
	.st36{fill:#FCAD17;}
	.st37{fill:none;stroke:#FFFFFF;stroke-width:2;stroke-miterlimit:10;}
	.st38{fill:none;stroke:#44A3BC;stroke-width:20;stroke-miterlimit:10;}
	.st39{fill:none;stroke:#44A3BC;stroke-width:20;stroke-linejoin:round;stroke-miterlimit:10;}
	.st40{fill:none;}
	.st41{fill:#3B5998;}
</style>
<g>
	<path class="st24" d="M48.1,5.1c-0.3-0.6-1.3-0.6-1.6,0c-0.2,0.4-0.4,0.8-0.5,1.3c-0.9,0-1.8,0.2-2.6,0.6c-2.2,1.1-4.7,1-7.1,1.1
		c-3,0.2-5.8-1.1-8.8-0.8c-0.3,0-0.7,0.3-0.7,0.7c0.1,1.1,0.8,1.8,1.8,2.4c0.2,1.7,0.6,3.3,0.6,5.1c0,1.4-0.1,3.4,0.7,4.6
		c0.7,1,2,0.3,1.9-0.8c-0.2-1.5-0.2-3.1-0.4-4.7c-0.2-1.2-0.6-2.3-0.9-3.4c1.6,0.5,3.5,0.7,4.7,0.8H37c-0.1,0.7-0.1,1.4-0.1,2.2
		c0,0.9-0.1,1.8-0.1,2.7c0,0.3,0.1,1.5-0.1,1.7c-1.6,1.8,0.8,4.1,2.6,2.6c1.4-1.1,1-3.3,0.9-4.9c-0.1-1.4,0-2.9-0.2-4.4
		c0.7-0.1,1.3-0.2,2-0.3c-0.2,0.8-0.2,1.7-0.4,2.5s-0.3,1.6-0.3,2.4c0,0.8-0.4,1.4-0.7,2.1c-0.5,1.3,1.1,3,2.4,2.4
		c0.1,0,0.2-0.1,0.2-0.1c0.9,1.3,3.3,1.4,3.9-0.5c0.8-2.7,1.6-5.1,1.8-7.8C48.9,10,49.2,7.5,48.1,5.1L48.1,5.1z M78.4,131.1
		c0-13.2-1.3-26.5-3.1-39.6c1.9-5.8-0.7-12.4-4.1-17.4c-1.7-2.4-5.3-6.3-9-7.8c-1.6-1.7-3.5-3.3-5.5-4.6c-3-3-4.6-6.2-5.8-10.3
		c-1-3.2-1.1-6.6-1.4-10c-0.1-1.8,0.1-3.4-0.3-4.9c0,0,0-0.1,0.1-0.1c0-0.1,0.1-0.2,0.1-0.3c0.5-1.5-0.6-3.3-2.1-3.7
		c-1.1-0.3-2.4-0.3-3.6-0.3c-0.1-0.3-0.1-0.6-0.1-0.9c0-0.9-0.1-1.8-0.3-2.7c0.2,0,0.4-0.1,0.5-0.1c0.6,0,1.1-0.2,1.5-0.8
		c0-0.1,0.1-0.1,0.1-0.2c0.9-1.4-0.6-2.9-2-2.6c-0.7,0.1-1.4,0.3-2.1,0.5c-0.5-0.1-0.9,0.1-1.3,0.4c-1.3-1-3.5,0.1-5,0
		c-1.2-0.1-2.3-0.8-3.5-0.3c-1,0.4-1.7,1.1-1.8,2.2c-0.2,0.6-0.3,1.3-0.3,1.7c0,1.2,0.3,2.6,0.5,3.8c0.2,1.3,0.6,2.4,1.8,3
		c0.1,0,0.1,0,0.2,0.1c0.2,0.3,0.4,0.4,0.7,0.4l0.1,0.1c0.2,0.6,0.6,1.1,1.3,1.1h0.7c0.6,0.2,1.3,0.4,2,0.5c1.5,0.3,3.1,0.5,4.7,0.7
		c-0.7,3.2-0.6,6.8-0.2,9.6c1,6.4,1.6,13.3,4.3,19.2c2.7,6,7.5,10.1,10.9,15.6c0,0.1,0.1,0.1,0.1,0.2c1,2,1.8,4.1,2.4,6.2
		c-1.4,0.1-2.8,0.1-3.7,0.1c-2.2-0.1-4.3,0.1-6.5,0c-0.1,0-0.1,0.1,0,0.1c2.7,0.1,5.5,0.1,8.1,0c0.6,0,1.3,0,2-0.1
		c0.5,1.8,0.9,3.6,1.1,5.5c0.5,5.7,1.4,11.1,1.4,16.9V133c0,5.9-0.1,11.8-0.3,17.7c-0.1,2.4-0.1,4.9-0.3,7.3c-0.1,1-0.4,1.9-0.8,2.8
		l-0.9,0.6c-2.1,1.4-5.5,1.9-7.9,2.7c-2,0.7-4.6,1.1-6.6,2.2c-7.3,1.7-15.3,4.1-22.7,2.6c-2.1-0.4-4-1.2-6-1.9
		c-1.8-1.6-4.5-2.2-6.6-3.3c-1.3-0.7-1.8-2.1-1.9-3.4c-0.1-1.5-0.9-2.1-1.4-3.5c-0.3-0.9-1.5-0.9-1.8,0c-1.1,3.3-1.5,6.5,0.7,9.5
		c0.2,0.3,0.4,0.5,0.6,0.7c1.3,2,1,1.8,3,3.3c0.9,0.7,2.7,0.7,3.8,0.8c1.9,0.2,3.6,0.9,5.5,1.2c4,0.7,8.1,1.3,12.2,1.7
		c5,0.5,10.4,0.2,15.3,1.4c0.7,0.2,1.4,0.2,2.1,0.1c-2.8,0.9,0.9,0.1,1.5-0.1c0.9-0.3,1.8-0.5,2.7-0.7c3-0.7,5.8-2.2,8.9-2
		c5.4,0.4,13.8-5.9,16.4-10.4C82.5,152.7,78.4,141,78.4,131.1L78.4,131.1z M35.2,32.3C35.2,32.3,35.1,32.3,35.2,32.3
		c-1,0.2-1.8,0.4-2.5,0.8c-0.2-0.7-0.4-1.5-0.5-2.2c0-0.2-0.2-0.7-0.4-1.3c0.3-0.1,0.5-0.2,0.8-0.5c0.4-0.5,2-0.3,2.8-0.3
		c0.2,0,1.4-0.4,2.3-0.5C37,29.8,36.1,31.2,35.2,32.3L35.2,32.3z"/>
	<path class="st4" d="M46.4,22.5c0.1,0,0.1,0.2,0,0.2C46.2,22.7,46.2,22.5,46.4,22.5z M57.5,167.9c-1.7-0.4-3.5,0.7-5.2,0.9
		c-0.3,0-0.4,0.5,0,0.5c1.7,0.1,3.7,0,5.3-0.9C57.8,168.3,57.7,168,57.5,167.9z M60.3,166.9c-0.1,0-0.1,0-0.2,0.1
		c-0.6,0.1-1.3-0.2-1.6-0.7c-0.5,0.5-1.1,1-1.8,1.3c-1.9,0.8-3.9,0.3-5.3-1c-0.1,0.8-0.4,1.5-1,2.1c-0.6,0.6-1.7,0.9-2.5,0.7
		c-3.6,1.9-9.2,0.7-13.1,0.6c-5.8-0.2-10.8-1.3-16.5-2.6c-3.4-0.8-7.9-1.6-9.5-5.3c-1.6-3.7-2.3-7.4-1.7-11.4c0-0.2,0.4-0.2,0.5,0
		c0.3,2.2,0.4,5.1,1,7.7c0.1-0.3,0.4-0.5,0.7-0.7h0.1l0.1-0.1c1.3-1.1,2.6-0.6,3.4,0.4c0.2-0.5,0.5-1,1-1.4c0.2-0.2,0.4-0.3,0.7-0.4
		c-0.7-0.5-1-1.4-0.3-2.2c0.3-0.3,0.9-0.6,1.5-0.8c0.2-0.2,0.4-0.4,0.8-0.5c0.3-0.1,0.5,0,0.7,0.3c0,0.1,0.1,0.1,0.1,0.2
		c0.1,0,0.2,0,0.3,0.1c0.4,0.7,0.5,1.7,0.3,2.4c0.5,0.1,0.9,0.3,1.3,0.6c0.8,0.6,1.3,1.4,1.5,2.3c0.6-0.8,1.5-1.3,2.5-1.2
		c0.3,0,0.6,0.1,1,0.1c-0.6-2.8,5.2-6.4,6.9-2.7c0.1,0.3,0.2,0.6,0.2,0.9c0.8,2.6-2.1,4.3-4.6,3.9c0.2,0.7,0.1,1.4-0.6,1.8
		c-0.2,0.2-0.6,0-0.7-0.3c-0.1-0.6,0-1.2-0.5-1.7c-0.5-0.4-1.1-0.7-1.8-0.7c-2.3-0.1-2.1,2.3-1.7,3.9c1-0.1,1.9,0.4,2.5,1.4
		c0.1,0.2,0.2,0.4,0.2,0.6c0.2,0,0.3,0.1,0.4,0.2c0.2,1,0,1.9-0.8,2.4l3.9,0.6c-0.3-0.3-0.6-0.7-0.9-1.1c-1.1-1.6-1.3-3.6,0.3-5.1
		c2-1.8,5.4-2.6,7.3-0.3c0.3,0.4,0.6,0.8,0.8,1.3l0.5-0.5c1.2-1.1,3.6-1.4,5.1-1.4c0,0-0.1,0-0.1-0.1c-0.1-0.2-0.3-0.3-0.4-0.5
		c0,0-0.1,0-0.1-0.1c-0.5-0.3-0.8-0.8-0.9-1.3c-0.1-0.3-0.3-0.6-0.3-0.9c-0.1-0.9,0.3-1.8,1-2.4c1.2-1.1,3.3-2.1,4.9-1.2
		c3.4,2-0.3,6.9-3.5,6.2c0,0.1-0.1,0.2-0.1,0.2h0.2c1.7,0.2,2.9,1.1,3.4,2.3c0.9-0.7,2-1.1,3-0.9c0.6,0.1,1.3,0.3,1.8,0.7
		c0.1-1.9,1.3-3.7,3.3-4.1c-0.3-0.2-0.6-0.5-0.8-0.6c-0.9-1-1.6-2.4-1-3.7c0.5-1.1,1.7-1.4,2.8-1c1.4,0.5,2.1,2.3,1.6,3.7
		c0,0.6,0,1.2-0.3,1.7c1.5,0.3,2.8,1.1,3.5,2.4c0.5,0.4,0.9,1,1,1.8v0.7c0.5-0.3,1.2-0.5,1.7,0c0.3,0.3,0.4,0.7,0.4,1.1v0.1
		c0,0.7-0.1,1.5-0.7,2C61,166.8,60.6,166.9,60.3,166.9L60.3,166.9z M43.7,158.8c-0.2,0.1-0.3,0.1-0.5,0.1c-1.5-0.1-1.2-1.9,0-1.4
		c0.1,0,0.1,0.1,0.1,0.2c0,0,0.1,0,0.1-0.1c0.2-0.2,0.3-0.6,0.3-0.9c-0.1-1.2-1.2-1.2-2-0.6c-0.8,0.6-1.9,2.3-0.5,3
		C41.9,159.5,42.9,159.3,43.7,158.8L43.7,158.8z M44.7,155.3c-0.1-0.1-0.3-0.2-0.4-0.2c0.2,0.2,0.3,0.4,0.4,0.8
		c0.2,0.6,0.1,1.4-0.2,2.1C45.1,157.1,45.5,156,44.7,155.3z M27.2,158.4h0.1c-0.8-0.4-1.1-1.4-0.7-2.4c0.5-1.1,2.6-2.4,3.3-0.8
		c0.1,0.2,0.1,0.5,0.1,0.7c0-0.1,0.1-0.3,0-0.4c-0.1-1.4-1.3-1.5-2.4-1.1c-0.9,0.4-2,1.1-2.2,2.1C25.3,157.7,26.3,158.2,27.2,158.4
		L27.2,158.4z M59.9,165.6H60c0.2-0.2,0.5-0.5,0.5-0.8c0.1-0.2,0.1-0.3,0.1-0.5c-0.2,0.1-0.5,0.2-0.6,0.4
		C59.9,164.9,59.8,165.3,59.9,165.6z M47.5,166.6c0.1-0.1,0.3-0.2,0.3-0.4c-0.1,0.1-0.1,0-0.2-0.1c-0.1,0.1-0.2,0.2-0.2,0.3
		C47.5,166.5,47.5,166.6,47.5,166.6L47.5,166.6z M53.8,155.9c0-0.1-0.1-0.2-0.2-0.1c-0.4,0.1-0.2,0.4,0,0.6v-0.1
		C53.5,156.2,53.6,156,53.8,155.9C53.7,155.9,53.7,155.9,53.8,155.9z M51.2,161.8c0.1-0.2,0.3-0.3,0.5-0.5c1.2-0.8,2.7-1,3.9-0.2
		c0.8,0.5,1,1.8,0.6,2.6c0,0.1-0.1,0.1-0.1,0.2c-0.1,0.6-0.6,1.2-1.6,1.1c-0.3,0-0.5-0.2-0.5-0.5c-0.6-0.4-0.9-1.2,0.1-1.8
		c0.3-0.2,0.6-0.3,0.8-0.3c-0.3-0.5-0.6-0.7-1.2-0.6c-1.2,0.2-2.7,1.3-1.4,2.5c1.2,1.2,3.3,2,4.6,0.4c1.3-1.5,0.9-3.2-0.1-4.3
		c-0.5-0.1-1-0.1-1.5-0.1c-0.3,0-0.3-0.4,0-0.4h0.9c-0.9-0.5-2-0.7-3.1-0.2C52.1,160.2,51.5,160.9,51.2,161.8z M45.2,164.1
		c0,0.7-0.2,1.5-0.7,2.3c0.4,0.4,1,0.8,1.6,0.9c0.2,0.1,0.4,0.1,0.7,0.1c-0.4-0.3-0.6-0.9-0.4-1.5c0.3-1,1.3-1.3,2.1-0.9
		c0-0.1-0.1-0.2-0.1-0.3c-0.2-0.3,0.3-0.7,0.6-0.4c0.5,0.6,0.6,1.5,0.3,2.3c0,0.1-0.1,0.3-0.1,0.4h0.1c0.4-0.3,0.8-0.7,1.1-1.2
		c0-0.7-0.2-1.4-0.6-1.8C48.2,162.7,46.4,163,45.2,164.1L45.2,164.1z M39.9,161.2c1.8,0.5,2.8,2.1,2.1,4.2c0.2,0.2,0.4,0.4,0.5,0.6
		c0.1,0.1,0.1,0.1,0.1,0.3v0.1c0.1,0.2,0.1,0.3,0.1,0.5c0.2-0.1,0.3-0.3,0.4-0.4c-0.4-0.7-0.3-1.6,0.6-2.6c0.1-0.1,0.2-0.3,0.4-0.4
		c-0.2-1-0.9-1.8-2.3-2.2C41.3,161.2,40.6,161.2,39.9,161.2L39.9,161.2z M35.6,165.7c0.6,0.9,1.8,1.6,2.7,1.9
		c0.2,0.1,0.3,0.1,0.5,0.1v-0.1v-0.2c-1-0.1-1.7-0.7-1.5-2c0.2-1.5,2.8-2.5,4-1.8c-0.1-0.5-0.4-1-0.9-1.3c-1.4-0.7-3.7-0.4-4.7,1.1
		C35.8,164.1,35.8,164.9,35.6,165.7z M40.2,164.6c-0.3,0-0.6,0.1-0.9,0.1c-0.3,0-0.4,0.1-0.5,0.3c0.2,0.2,0.5,0.2,0.8,0.2
		C40.1,165.3,40.3,165.1,40.2,164.6L40.2,164.6z M32.5,161.3c1,0.8,1.8,2.3,1.4,3.5c0.1,0.4,0.2,0.8,0.2,1.1
		c0.1-0.2,0.2-0.5,0.3-0.8c-0.1-0.5-0.2-0.9,0-1.4C34.2,162.6,33.4,161.8,32.5,161.3z M32.4,164.1c0,0.5-0.6,0.6-0.9,0.2
		c-0.1-0.2-1.3,0.8,0.1,0.7c0.6,0,1-0.5,0.9-1.1c-0.1-2-2.4-2.5-3.7-1c-2.4,2.7,1.2,5.2,3.7,4.5c0.5-0.4,0.8-1,0.8-1.6
		c-1.3,1.1-4.3,0.9-3.8-1.2C29.7,163.1,32.5,161.8,32.4,164.1z M21.4,163.7c-0.4,0.1-1,0.4-1.1,0.8c-0.1,0.6,0.4,1.1,0.9,1.4
		c-0.1-0.5,0-1,0.5-1.3c0.3-0.2,0.8-0.3,1.3-0.3v-0.1C22.5,163.7,22,163.4,21.4,163.7L21.4,163.7z M18.5,157.4
		c-0.5-0.3-0.9-0.4-1.5-0.5c1,0.7,1.7,2,1,3.1c-0.7,1.2-3.3,2.1-3.5,0.1c-0.1-0.5,0.4-0.8,0.9-0.5c1.7,1.4,2.2-2.7,0-1.9
		c-0.6,0.2-1.1,0.6-1.3,1.1c0.3,0.1,0.4,0.6,0.1,0.7H14c0,0.3,0.1,0.7,0.3,1c1.1,1.5,3.3,1.9,4.5,0.4
		C19.6,160,19.7,158.2,18.5,157.4z M10.3,159.2C10.3,159.2,10.3,159.3,10.3,159.2c0.1,0.2,0,0.1,0.1,0.2c0.2,0.2,0.4,0.3,0.6,0.4
		l0.1-0.1c-0.2,0-0.5-0.1-0.5-0.4v-0.1h-0.2H10.3L10.3,159.2z M19.8,166.2c-0.1-0.1-0.2-0.2-0.2-0.3c-1-1.3-0.3-2.7,1.1-3.3
		c0.1,0,0.2-0.1,0.3-0.1c-0.2-0.4-0.4-0.9-0.5-1.4c-0.4,0.7-0.9,1.4-1.7,1.8c0.2,0.2,0.3,0.4,0.4,0.7c0.3,1.2-1,1.9-2,1.6
		c-0.2-0.1-0.4-0.1-0.5-0.3c-0.5-0.2-0.9-0.7-0.9-1.3v-0.4c-1.1-0.3-2.1-0.9-2.7-1.9c-0.2,0.1-0.3,0.2-0.6,0.3h-0.2
		c-0.6,0.4-1.4,0.4-2.1,0c0.3,0.4,0.6,0.7,0.9,1C13.4,164.6,16.7,165.5,19.8,166.2z M37.4,168.3c-0.7-0.3-1.3-0.7-1.8-1.2l-0.4-0.4
		c-0.3,0.5-0.6,1-1.2,1.4c-0.1,0-0.1,0.1-0.2,0.1C35.1,168.2,36.3,168.3,37.4,168.3L37.4,168.3z M47.1,168.7L47.1,168.7
		c-1.2-0.2-2.5-0.7-3.3-1.4c-0.4,0.4-0.8,0.7-1.3,0.9c-0.1,0.1-0.2,0.2-0.2,0.3C43.9,168.5,45.5,168.6,47.1,168.7z M28.4,156.1
		l-0.2,0.2C28.3,156.3,28.3,156.2,28.4,156.1z M52.8,166.3c0.2,0.1,0.5,0.3,0.8,0.3C53.3,166.6,53.1,166.4,52.8,166.3z M10.3,159.2
		 M67.8,154.5c0.1,0.2,0,0.4-0.2,0.7c-0.2,0.4-0.5,0.8-1,0.7c-0.8,0.4-1.8,0.3-2.3-0.6c-0.5-1-0.1-2.6,1.2-2.8
		C67,152.2,67.9,153.1,67.8,154.5z M65.8,154.3C65.8,154.2,65.8,154.2,65.8,154.3C65.8,154.2,65.8,154.2,65.8,154.3z M79.5,161.8
		c0.1,0.1,0.1,0.2,0.1,0.3c-0.4,1.2-1.1,2.2-2,3.1c-0.3,0.5-0.7,1-1.3,1.3l-0.1,0.1l-0.1,0.1c-0.2,0.2-0.4,0.4-0.7,0.6
		c-0.3,0.3-0.7,0.6-1,0.8c-0.6,0.5-1.2,0.9-1.8,1.4c-2.9,2.2-6.1,3.7-9.5,4.6c-2.1,0.6-4.2,1.2-6.3,1.9c-11.5,1.4-22.7,0.1-34.2-0.6
		c-1-0.3-2-0.6-2.9-0.9c-1.6-0.5-3.2-1.1-4.8-1.8c-0.1,0-0.3-0.1-0.4-0.1c-2.5-0.7-5-1.6-7.3-2.8c-0.9-0.5-2-0.8-2.9-1.4l-0.1-0.1
		c-0.7-1-1.2-2.4-2-3.3c0.4-10.4-0.4-20.9-0.8-31.3C1.2,128.5,1,123.2,0.8,118c-0.2-5.3-1.1-10.9-0.7-16.2c0.6-9.3,1-19.7,5-28.2
		c1.9-4.1,4.1-7.4,7-10.9c1.6-1.9,2.7-3.1,4.7-4.5c1.5-1,3.6-1.9,4.9-3.2c1-1.5,2.1-3.1,2.7-4.7c0.3-0.9,0.6-1.8,0.8-2.7
		c0.1-0.6,0.2-1.3,0.2-2c0.1-3.9,0-8-1.1-11.8H24c-1,0.1-1.9,0.2-2.9,0.1s-2.7-0.1-3.1-1.2c-0.6-1.6-0.1-4.1-0.1-5.8
		c0-1.7-0.3-3.4,0.3-5c0-0.1,0.1-0.2,0.3-0.2v-0.1c0-0.3,0.2-0.7,0.6-1c1.6-1.4,3.9-1.1,5.9-1.6c0.3-0.4,0.5-0.9,0.2-1.7
		c-1.1-3.5-1.4-7.3-1.1-11c0.1-1.8,0.1-4,2-4.8c3.5-1.4,7.3-1.7,11.1-1.4c1.6,0.1,12,0.3,11.8,3.7c0.5,1.5,0.3,3.1,0.4,4.7
		c0.1,2,0.5,4.2,0.2,6.2c-0.2,1.5-0.1,3.6-0.5,5.2c1.8,0,4,0.4,5.3,0.9c0.1,0,0.3,0.1,0.4,0.2c0.2,0.1,0.3,0.1,0.4,0.2
		c0.2,0.1,0.4,0.1,0.5,0.2c0.2,0,0.5,0.1,0.5,0.3c0.4,2.3,0.4,4.6,0.5,6.9c0,1.1,0.5,3.2-0.1,4.3c-1.1,1.9-3.4,1.3-5.5,1.1
		c-0.2,2.7-0.7,5.3-0.9,8c0,0.5,0.1,1.1,0.1,1.6c0.3,3.5,0.8,9.6,3.4,12.5c3.2,2.6,7.6,3.9,10.4,7.1c3.5,4,7.2,7.6,9.8,12.3v0.1
		c0.6,2.6,1.5,5.2,2.3,7.8c1.2,4,1.7,8,2,12.1c0.6,8.9,1.7,47,1.5,47.7c0.1,2.1,0.3,4.2,0.4,6.3c-0.1,2.8-0.3,5.7-0.4,8.6
		C80,159.2,80,160.7,79.5,161.8L79.5,161.8z M25.7,4.8C25.8,5,26,5.3,26.1,5.4c-0.2,0.7-0.3,1.5-0.3,2.5c0.1,3.5,0.5,6.6,1.3,10
		c0.2,0.8,0,1.6-0.5,2.2c0.1,0.2,0.1,0.4,0.2,0.6c0.8,0,1.6-0.1,2.4-0.1v-0.1c-0.6-3.9-1.1-7.8-2-11.7C27.5,8.9,27.8,9,28,9.1
		c0.9,3.6,2.1,7.5,2,11.3c0,0.1,0,0.2-0.1,0.2h1c-0.4-0.8-0.3-1.8-0.3-2.5c0-1.1-0.4-2.2-0.5-3.3c-0.1-1.1,0-2.4-0.3-3.5
		c-0.1-0.5,0.5-0.6,0.7-0.2c0.7,2,0.7,4.2,1.2,6.2c0.3,1.1,0,2.1,0.5,3.2c0.7,0,1.3,0,2-0.1c-0.4-0.7-0.4-1.7-0.2-2.4
		c0.1-0.4,0.7-0.4,0.8,0l0.3,1.2c0.1,0.4,0.2,0.7,0.3,1.1c2.9-0.1,5.7-0.1,8.6,0c0.2-0.8,0.3-1.6,0.4-2.5c0,0.1,0,0.1-0.1,0.2
		c-0.5,0.6-1.5,0.9-2.2,1.3c-0.8,0.4-1.5,0.4-2.4,0.3c-0.6,0-0.6-0.9,0-0.9c1.2-0.1,1.8-0.7,2.9-1.2c0.6-0.3,1.3-0.5,1.8,0
		c0.1,0.1,0.1,0.1,0.1,0.2c0.4-3.3,0.1-6.8,1.1-9.9c0.1-0.3,0.6-0.2,0.5,0.1c-0.6,2,0,4.4-0.2,6.4c-0.1,1.8-0.2,3.5-0.5,5.3
		c0.3-0.8,0.8-1.5,1.1-2.4c0.6-1.6,0.8-3.2,1-4.9c0.1-1.1,0.3-2.4,0.3-3.7c0-0.8-0.1-1.5-0.1-2.3c0-0.2-0.1-0.4-0.1-0.5
		c-4.1,4.4-12,1.8-17.4,2C30.1,7.9,30,8,29.9,8c-0.3-0.1-0.7-0.1-1-0.1c-0.7,0-1.2-0.3-1.8-0.6c-0.2-0.1-0.4-0.1-0.6,0
		C26.2,6.8,26,6,26.4,5.5c0.3,0.2,0.6,0.3,0.9,0.3c0.1,0.1,0.1,0.2,0.2,0.3c0.1,0.1,0.2,0.1,0.3,0.1h0.3c0.1-0.1,0.2-0.1,0.3-0.1
		c2.6-0.4,4.9,0.1,7.5,0.2c1.5,0.1,3,0.3,4.4,0.2c1-0.1,10.1-3.5,4.5-3.9C42.1,2.4,38,1.4,34.3,1.2h-0.1c-2.4-0.4-5.2-0.4-7.4,0.7
		C25.7,2.6,25.2,3.8,25.7,4.8L25.7,4.8z M69.9,165.2c-0.7,0.5-1.4,0.9-2.1,1.2c0.2,0.9,0.2,2.2-0.1,3.2c0.5-0.2,1-0.4,1.5-0.7
		l0.6-1.8C69.8,166.8,70,165.9,69.9,165.2z M65.2,158.9c0.2,0.1,0.3,0.3,0.4,0.4c-0.2-0.6-1.1-1.4-1.8-0.6c-0.3,0.4-0.5,0.8-0.5,1.3
		c0,1.5,1.5,3.5,3.1,2.1c1.1-1,2.6-4.6-0.1-4.5H66c0.5,0.2,0.9,0.7,1,1.3c0.2,1.3-0.2,2-1.4,2.2c-0.9,0.2-1.7-0.2-1.9-1.1
		C63.5,159.1,64.5,158.4,65.2,158.9z M65.5,163.9c0.8,0.2,1.6,0.3,2.2,0c0-0.1,0-0.1,0.1-0.2c0.4-0.4,0.4-0.9,0.3-1.4
		c-0.6,0.8-1.3,1.3-2.2,1.5C65.8,163.9,65.7,163.9,65.5,163.9L65.5,163.9z M68.9,161.5c0.2-0.7,0.5-1.4,0.7-2.1
		c-0.1,0-0.2-0.1-0.3-0.2c0,0.6-0.2,1.3-0.4,2C68.8,161.3,68.8,161.4,68.9,161.5z M77.1,139.8c-1.1-5-0.7-10.9-0.5-16.2
		c-0.5-6.7-1.2-13.5-1.2-20.2c0-9.1-0.6-18.1-4.2-26.5c-0.6-1-1.3-2-2-3c-3.4-4.3-7-7.5-11.2-11c-1.7-1.4-3.5-2.6-4.9-4.2
		c-0.9-0.7-1.7-1.4-2.1-2.3c-0.6-0.7-0.9-1.6-1.1-2.5c0-0.2-0.1-0.5-0.1-0.7c-0.7-2.2-1.3-4.4-1.3-6.6c0-3-0.4-6-0.3-9
		c0-1.2,0.1-2.5,0.3-3.7h-0.1c-0.4,0-0.6,0-1-0.2c-0.7-0.2-0.6-1.4,0.2-1.3c0.3,0,0.6,0.1,0.9,0.1l0.3-0.3v-0.1h0.1
		c0.1-0.3,0.2-0.7,0.2-0.7c0.2-0.4,0.1-0.9,0.2-1.3c0.3-0.9,0.5-2.1,0.2-3c0-0.1,0.2-0.3,0.3-0.2c0.9,1.1,0.5,2.6,0.6,3.9v0.4
		c0.9-1,1.6-1.7,1.7-3.2c0.1-0.8,0.3-1.7,0.3-2.5v-1.2v-0.1c0.1-0.2,0.4-0.3,0.5-0.1c0.4,0.9,0.5,1.8,0.4,2.8s0,1.9-0.4,2.8
		c-0.3,0.7-0.8,1.8-1.6,2.2c1.4,0.2,4.2,0.5,4.1-0.8c-0.1-1.8,0-3.7-0.1-5.5c0-0.5-0.2-1.6-0.1-2.5v-0.9c0-0.1,0-0.2-0.1-0.2h-0.2
		c-6.4,0-12.9,0.1-19.4,0.2c-2.7,0.1-11,2-14.5,0.6h-0.1c-0.5,0-1.1-0.1-1.6-0.5H19c0,1.7,0.3,7.7,0.3,8.5c0,2,3.5,1.2,4.8,1.1
		c1.1-0.1,1.9,0.1,2.8,0.7c0.3,0.2,0.3,0.7-0.1,0.9c-0.6,0.2-1.1,0.1-1.6,0c3.1,5.9,2.7,14.4-0.3,20.6c-0.9,0.6-1.8,1.3-2.7,2.1
		c0-0.1,0.1-0.2,0.1-0.4c-1.2,1.4-3,2.6-4.5,3.5C14.2,61.5,11,66,9,69.8C5.5,76.6,3.5,84,2.8,91.6c0.2-0.3,0.6-0.4,0.9-0.5
		C4.4,91,5.2,90.9,6,91c0.3,0,0.3,0.5,0,0.5l-1.8,0.3c-0.2,0-0.5,0.1-0.7,0.2s-0.3,0.2-0.4,0.3c-0.1,0-0.2,0-0.3-0.1
		c-0.1,1.3-0.2,2.5-0.3,3.8v1l0.2-0.2c0.3-0.2,0.5-0.3,0.8-0.4c0.1,0,0.7,0,0.8-0.1C4.4,95.9,5,96,5,96.4c0,0.6-0.6,0.9-1.2,1
		c-0.1,0-0.1,0.1-0.2,0.1c-0.1,0.1-0.3,0.2-0.4,0.3c-0.2,0.1-0.4,0.4-0.6,0.4c-0.1,0-0.1,0-0.2-0.1c0,1.3-0.1,2.6-0.1,3.9
		c0.3-0.5,0.8-0.7,1.3-1c0.4-0.3,0.9,0.2,0.6,0.6l-0.9,0.9c-0.2,0.2-0.3,0.6-0.5,0.8c-0.1,0.1-0.3,0.1-0.4,0c0,0,0-0.1-0.1-0.1
		c0,13.9,1.7,27.7,1.6,41.6c0,4.3,0.2,8.5,0.3,12.8c0,3.4-1,7,2.6,8.6c0.1,0,0.3,0.1,0.4,0.2c0.2,0.1,0.5,0.2,0.7,0.3
		c0-0.8,0.8-1.8,0.9-2.5c0.1-0.4,0.6-0.3,0.6,0.1c0,0.6-0.1,1.2-0.3,1.8c-0.1,0.3-0.1,0.7-0.2,1c0.8,0.4,1.7,0.7,2.5,1.1
		c0-0.7,0.4-1.5,0.6-2c0.1-0.3,0.7-0.4,0.8,0c0.1,0.5-0.1,1-0.2,1.4c-0.1,0.3-0.1,0.7-0.2,1c1.2,0.5,2.3,1,3.5,1.4
		c0-0.7,0.3-1.5,0.4-2.1c0-0.5,0.7-0.5,0.7,0s0,1-0.1,1.5c0,0.3-0.1,0.6-0.2,0.9c5.2,2,10.4,3.5,16.3,3.7c8.6,0.4,17-0.2,25.4-2
		c2.6-0.6,5.3-1.2,7.8-2.2c0.1-0.2,0.2-0.5,0.3-0.7c0.2-0.5,0.3-1,0.4-1.5c0-0.2,0.1-0.7,0.1-1.2c-0.8,0.3-1.6,0.5-2.5,0.7v0.3
		c0,0.5,0.3,2.1-0.3,2.4c-1,0.5-0.7-1.4-0.7-2.5c-0.7,0.1-1.4,0.2-2.1,0.2c-0.5,0-0.5-0.6-0.1-0.8c0.6-0.3,1.3-0.5,2-0.7
		c0.1-0.1,0.2-0.2,0.4-0.1c1.2-0.4,2.4-0.8,3.5-1.3c0-0.1,0.1-0.1,0.1-0.2c-1.3,0.3-3,0-4-0.7c-1.7-1.1-3-3-2-5.1
		c0.1-0.2,0.2-0.3,0.3-0.5c-0.3,0.1-0.5,0.2-0.8,0.2h-0.6c-0.6,0.2-1.3,0.1-1.8-0.4c-0.6-0.6-1.1-1.5-0.6-2.4s1.4-1.2,2.4-1.4
		c0.7-0.1,1.7-0.2,2.2,0.4c0.6,0.6,0.7,1.5,0.4,2.3c0.8-0.6,1.7-1,2.6-1.2c1-0.1,2,0,2.8,0.6c0.1-0.5,0.4-1,0.9-1.4
		c0.4-0.2,0.8-0.4,1.2-0.4c0-0.3,0.1-0.6,0.1-0.9c-0.4,0.6-1.2,1-1.8,0.5c-0.1-0.1-0.2-0.2-0.2-0.4c0-0.1,0.1-0.2,0.2-0.3
		c-0.7-0.5-1.1-1.8-0.2-2.2c0.9-0.5,1.8,0.3,2.1,1.1c0.1-1.6,0.1-3.1,0.1-4.7c0-3.3-0.5-6.6-0.7-9.9c-0.1-2.9-0.7-5.6-0.5-8.5
		c0-0.2,0.3-0.2,0.4,0c0.1,1.7,0.6,3.3,0.7,5c0.1,1.7,0.3,3.5,0.5,5.3c0.4,3.5,0.9,7.1,0.7,10.7c-0.1,1.4-0.2,2.9-0.3,4.4
		c0.2,0.1,0.4,0.3,0.6,0.5c0.4,0.6,0.4,1.5,0,2.2c-0.1,0.7-0.4,1.3-1,1.6c-0.1,0-0.1,0-0.2,0.1c-0.3,1.5-0.8,3-1.5,4.2
		c0.6-0.5,1.2-1.1,1.6-1.9c1.6-3,1.6-6,1.6-9.3c-0.1-5.6-0.5-11.3,0-16.9c0-0.3,0.4-0.3,0.4,0c0.9,7.8,2.6,17.7,0.1,25.4
		c-0.5,1.6-1.4,2.8-2.6,3.8c0.2,0.5,0.2,1.1,0.2,1.6c0,0.6-0.1,1.2-0.3,1.9c2.2-1.2,4.2-2.6,5.9-4.5c0.2-5.9,0.5-11.8,0.8-17.8
		c0-1.2,0-2.5,0.1-3.8L77.1,139.8L77.1,139.8z M61.7,156.2v0.6c0.2-0.5,0-1.2-0.7-1.2c-0.8,0-3,0.5-2.2,1.7c0.1,0.1,0.1,0.2,0.2,0.2
		c0-0.1,0.1-0.1,0.1-0.1c0.5-0.3,1,0,1.6,0c0.2-0.4,0.3-0.8,0.3-1.2S61.7,155.8,61.7,156.2L61.7,156.2z M73.2,107.7
		c0,0.3-0.6,0.5-0.7,0.1c-1-5.9-0.8-12-2-17.9c-0.7-3.8-0.8-8.4-1.9-12.2c-0.6,0.4-1.4,0.7-2.3,0.9c2.4,6.3,1.4,13.4,2,20
		c0,0.1-0.2,0.2-0.2,0c-0.5-1.9-0.5-3.8-0.6-5.8c-0.1-1.8-0.6-3.6-0.9-5.4c-0.3-1.6-0.8-3.2-0.9-4.8c0-1.2-0.2-2.2-0.6-3.3
		c0.1,0.2-0.1-0.1-0.1-0.4c-6.8,1.2-19.1,0.5-21.1,0.5c-1.5,0-3.1-0.1-4.6-0.2c-0.5,0.1-1.1,0.2-1.6,0.3c-0.6,0.1-1.3,0.3-1.8,0.1
		l-0.1-0.1c-2.2,0.2-4.4-0.1-6.6-0.2c-2.2-0.1-4.9,0-7.1-0.6c-3.9-1-10.3-0.2-13.1-3.6C9,75,8.9,75,8.9,74.9V75
		C7.5,77.8,7,80.9,6,83.8C5.9,84,5.5,84,5.6,83.7c0.6-6.5,3.3-11.6,7.9-16.1c0.1-0.1,0.4,0,0.3,0.2c-1.3,2-2.9,3.9-4.1,6
		c2.9-1.2,6.4-0.8,9.5-0.9c3.7,0,7.4-0.1,11.1-0.1c7.6,0,15.4,0,23,0.4c2.4,0.1,16.3-0.1,16.3,3.3c0,0.3-0.1,0.6-0.3,0.9
		c0.2,0.6,0.4,1.2,0.5,1.9c0.8,3.4,1.6,6.9,2.2,10.4C73.1,95.4,74,101.8,73.2,107.7L73.2,107.7z M65.8,75.9
		c-7.6-1.3-15.4-1.4-23-1.3c-5.4,0.1-10.8-0.4-16.2-0.3c-4.5,0.1-10.4-0.8-14.9,0.4v0.2c2.1,0.9,5.3,0.7,7.3,0.9l9,0.9
		c5.3,0.5,10.7,0.9,16,1c5.1,0.2,10.2,0,15.3-0.3c1.9-0.1,3.8-0.2,5.7-0.4C67.2,76.8,67.9,76.3,65.8,75.9L65.8,75.9z M47.3,24.8
		C47.2,24.9,47.2,24.9,47.3,24.8c0,0.1-0.1,0.1-0.1,0.1c-0.9,2-1.5,4.3-1.9,6.4c-0.2,1.2-0.5,2.5-0.4,3.7c0,0.4,0.2,1.1,0,1.5
		c-1,2.5-4.6,1.2-6.7,1.1c-1.6-0.1-5.4,0.7-7.2-0.4c1.4,10.1-0.5,20.6-10,26.2c-0.2,0.1-0.5-0.1-0.3-0.3c1.4-1.8,3.3-3,4.9-4.6
		c3.3-3.5,4.1-7.3,4.4-12c0.3-5.1-0.9-10.1-1.3-15.1c-0.4-1.9-0.6-3.8-0.6-5.5c0-0.3,0.2-0.6,0.5-0.7c3.2-0.7,5.8-1.2,9.1-0.7
		c2.5,0.4,4.9,0.4,7.3-0.2h0.2c0.5,0.1,1,0.2,1.4,0.3C46.7,24.7,47,24.8,47.3,24.8L47.3,24.8z M44,25.8c-0.7,0.2-1.5,0.4-2.3,0.4
		c-2.2,0.1-4.2-0.5-6.4-0.6c-1.4-0.1-2.8,0.2-4.2,0.5c-2,0.5-1.8,1.1-1.3,3.3c0.2,1,1.1,6.6,2.5,6.8c2.3,0.3,4.6-0.2,7,0
		c1.1,0.1,2.3,0.3,3.4,0.2c0.4-0.1,0.5-0.3,0.6-0.6c-1-1.1-0.9-2.8-0.8-4.2c-1.1,0.6-2.6,0.9-3.2,1c-2.5,0.5-6,0.5-8.3-0.5
		c-0.3-0.1-0.2-0.6,0.1-0.7c2-0.8,4.5-0.2,6.6-0.3c1.5-0.1,2.9-0.2,4.3-0.9c0.1,0,0.3-0.1,0.6-0.2c0.1-0.8,0.2-1.5,0.4-2.2
		c-3.6,1.7-8.7,1.6-12.2,0.4c-0.3-0.1-0.3-0.5,0-0.6c2-0.6,4.2-0.1,6.3-0.1c2.3,0,4.3-0.2,6.4-0.9c0-0.1,0.1-0.2,0.1-0.3
		c0.1-0.2,0.3-0.3,0.4-0.2C43.9,26,43.9,25.9,44,25.8L44,25.8z M63.7,71.8c-3-3.8-7.4-6-10.6-9.5c-0.9-0.9-1.5-2-2.2-3
		c-0.6-0.8-1.4-1.5-1.9-2.4c-0.8-1.8-2-3.4-2.5-5.4c0-0.2-0.3-0.1-0.3,0c0.5,4,2.9,7,5,10.2c1.3,1.9,3.1,3.4,4.9,4.8
		c2.4,1.9,4.7,4,7.3,5.7C63.7,72.4,63.9,72,63.7,71.8z"/>
</g>
<g>
	<g id="XMLID_557_" class="st7">
	</g>
</g>
<g>
	<g id="XMLID_1525_" class="st16">
	</g>
</g>
</svg>
