<?xml version="1.0" encoding="iso-8859-1"?>
<!-- Generator: Adobe Illustrator 17.1.0, SVG Export Plug-In . SVG Version: 6.00 Build 0)  -->
<!DOCTYPE svg PUBLIC "-//W3C//DTD SVG 1.1//EN" "http://www.w3.org/Graphics/SVG/1.1/DTD/svg11.dtd">
<svg version="1.1" id="Capa_1" xmlns="http://www.w3.org/2000/svg" xmlns:xlink="http://www.w3.org/1999/xlink" x="0px" y="0px"
	 viewBox="0 0 433 433" style="enable-background:new 0 0 433 433;" xml:space="preserve">
<path style="fill:#cb242d;" d="M142.039,158.599c10.719,6.368,22.736,9.552,34.754,9.552c12.017,0,24.034-3.063,34.753-9.431
	C234.62,145.01,248.137,119,249.468,87h19.169c5.522,0,10-4.478,10-10s-4.478-10-10-10h-29.093c-0.033,0-0.066,0-0.1,0H124.832
	c3.941-27,23.224-47,46.347-47h13.711c14.996,0,29.268,8.935,38.177,23.726c2.85,4.73,8.996,6.307,13.726,3.459
	c4.731-2.85,6.257-9.073,3.407-13.804C227.639,12.528,206.962,0,184.89,0h-13.711c-36.937,0-66.996,34.34-67.084,76.466
	C102.759,113.481,116.582,143.476,142.039,158.599z M229.447,87c-1.236,25-11.225,44.489-28.117,54.525
	c-15.135,8.994-33.94,9.052-49.075,0.06C135.362,131.549,125.374,112,124.137,87H229.447z M358.497,365h-51.997v-38.849
	c0-5.522-4.372-10.151-9.895-10.151h-89.116c-5.522,0-9.989,4.629-9.989,10.151V365h-17.238c-5.522,0-9.762,4.054-9.762,9.576V423
	c0,5.522,4.239,10,9.762,10h178.235c5.522,0,10.003-4.478,10.003-10v-48.424C368.499,369.054,364.019,365,358.497,365z M259.499,413
	h-69v-28h69V413z M217.499,365v-29h69v29h-17.117H217.499z M348.499,413h-69v-28h69V413z M137.812,250
	c-4.872,0-9.034,3.344-9.856,8.146l-13.198,76.991c-0.933,5.443,2.725,10.571,8.169,11.502c5.443,0.93,10.612-2.58,11.544-8.023
	L146.246,270h61.102l1.726,9.869c0.937,5.442,6.097,9.01,11.551,8.077c5.442-0.937,9.096-6.149,8.16-11.593l-3.154-18.195
	c-0.825-4.798-4.986-8.158-9.855-8.158h-4.274v-33.832c17,7.485,30.241,20.897,33.965,41l4.308,22.664
	c1.006,5.432,6.286,9.01,11.709,8.012c5.431-1.006,9.045-6.224,8.039-11.654l-4.183-22.664
	c-8.273-44.663-50.434-64.654-88.553-64.653c-38.118,0-80.279,19.992-88.551,64.653L64.668,380.759
	c-0.541,2.921,0.246,6.142,2.145,8.426c1.9,2.284,4.719,3.815,7.689,3.815h54.82c5.523,0,10-4.478,10-10c0-5.523-4.478-10-10-10
	H86.525l21.305-115.622c3.724-20.104,17.669-33.725,33.669-41.21V250H137.812z M161.499,210.151c10-1.717,20-1.717,30,0V250h-30
	V210.151z"/>
<g>
</g>
<g>
</g>
<g>
</g>
<g>
</g>
<g>
</g>
<g>
</g>
<g>
</g>
<g>
</g>
<g>
</g>
<g>
</g>
<g>
</g>
<g>
</g>
<g>
</g>
<g>
</g>
<g>
</g>
</svg>
