<svg id="svg2" xmlns="http://www.w3.org/2000/svg" viewBox="-291 193.4 376.3 174.6"><style>.st0{fill:#fff}</style><g id="layer1" transform="translate(-168.087 -840.902)"><g id="g8219" transform="matrix(20.3509 0 0 -20.3509 -9976.678 17563.833)"><path class="st0" d="M494.4 812c-.4 0-1.3 0-1.7-.1-.6-.1-1-1.3-1.7-1.5-.9-.2-2.3 1.2-3.8.5-1.4-.6-2.8-1.7-2.8-3.1 0-2.7 4.8-4 9-4 4 0 9 1.2 9 4-.1 2.7-4.7 4.2-8 4.2zm-1.1-7.9c-4.1 0-7.7 1.4-7.7 3.8 0 1.4 1.8 2.6 2.5 2.9 1.2.5 2.1-1.3 3.2-.9.7.2 1.7 1.6 2.5 1.8.6.2 2 0 2.7-.1 1.2-.3 4.6-1.5 4.6-3.7-.1-2.6-4.1-3.8-7.8-3.8z"/><g id="g8237" transform="translate(513.808 817.588)"><path id="path8239" class="st0" d="M-14.5-9.5c0 .1 0 .1.1.2 0 0 .1.1.2.1s.1 0 .2-.1c0 0 .1-.1.1-.2s-.1-.3-.3-.3c-.1 0-.1 0-.2.1 0 .1-.1.2-.1.2m.3-.3c.1 0 .2 0 .2.1.1.1.1.1.1.2s0 .2-.1.2c-.1.1-.1.1-.2.1-.2 0-.3-.1-.3-.3 0-.1 0-.2.1-.2 0 0 .1-.1.2-.1"/></g><g id="g8241" transform="translate(513.927 817.765)"><path id="path8243" class="st0" d="M-14.5-9.5v-.4h.1v.1h.2v.1H-14.5v.2zm.2 0c.1-.1.1-.1 0 0 .1-.1.1-.1 0 0 0-.1 0-.1 0 0l-.1-.1.1.1"/></g><g id="g8245" transform="translate(505.722 816.866)"><path id="path8247" class="st0" d="M-14.5-9.5c-.3 0-.7-.2-.7-.4 0-.4.7-.3.7.1v.3m.1-.8s-.5-.3-.9-.3c-.1 0-.7 0-.7.6s1.4.6 1.5.8c.1.1.1.5-.2.5-.4 0-.4-.4-.6-.5-.2-.2-.6 0-.4.3.4.5 1.1.5 1.1.5.6 0 1-.3 1-.7v-1c0-.1.1-.3.2-.3s.1-.2 0-.2h-.6c-.2.1-.4.2-.4.3"/></g><g id="g8249" transform="translate(509.736 815.762)"><path id="path8251" class="st0" d="M-14.5-9.5s-1 1.7-1 1.8c0 0-.1.1-.2.1-.2 0-.1.2 0 .2h1.4c.2 0 .1-.2 0-.2s-.2-.1-.2-.1c0-.2.4-.9.4-.9l.4.8c0 .1 0 .1-.2.2-.2 0-.1.2 0 .2h.8c.2 0 .2-.2 0-.2-.1 0-.3-.1-.3-.2s-.9-1.6-1-1.7c.1-.1 0 0-.1 0"/></g><g id="g8253" transform="translate(512.087 817.178)"><path id="path8255" class="st0" d="M-14.5-9.5s0-.1.1-.1h.5s.1 0 .1.1 0 .4-.4.4c-.1.1-.3-.2-.3-.4m.5-1.1c.4 0 .7.1.8.3.1.1.2 0 .1-.1-.3-.3-.5-.5-1.1-.5-1.8 0-1.7 2.1.1 2.1.9 0 1.1-.7 1.1-.8 0-.1-.1-.2-.2-.2h-1.4c0-.5.4-.7.6-.8"/></g><g id="g8257" transform="translate(503.983 818.089)"><path id="path8259" class="st0" d="M-14.5-9.5c.3-.7-.4-.7-.6-.2 0 .1 0 .3-.1.4-.1.2-.3.2-.4.2-.7 0-1.1-2.1 0-2.3.4-.1.7.2.9.3.1.1.2 0 .2-.2-.3-.5-1-.6-1.3-.6-1.7 0-2.1 2.7 0 3 .5.1 1.2-.2 1.3-.6"/></g><g id="g8261" transform="translate(508.474 815.992)"><path id="path8263" class="st0" d="M-14.5-9.5c-.1 0-.3.1-.3.2v2.4c0 .2-.1.1-.1.1l-.9-.4c-.1-.1-.1-.2.1-.2.2.1.2-.1.2-.1v-1.9c0-.2-.2-.2-.3-.2-.1 0-.1-.2 0-.2h1.4c.1.2.1.3-.1.3"/></g><g id="g8265" transform="translate(512.103 818.405)"><path id="path8267" class="st0" d="M-14.5-9.5s.6.7 1.1.7c.2 0 .4 0 .5-.2 0-.2-.1-.3-.3-.3-.3 0-.7 0-.9-.2-.1 0-.5-.2-.4 0"/></g></g></g></svg>