<svg id="Layer_1" xmlns="http://www.w3.org/2000/svg" viewBox="-397 198 164 165"><style>.st0{fill:#efb886}</style><path class="st0" d="M-315 358.5c43.1 0 78.1-34.9 78.1-78.1s-35-78-78.1-78-78.1 34.9-78.1 78.1c0 43.1 35 78 78.1 78zm-47.9-125.9c12.3-12.3 29.2-19.9 48-19.9 18.7 0 35.7 7.6 48 19.9 12.3 12.3 19.9 29.2 19.9 48 0 18.7-7.6 35.7-19.9 48-12.3 12.3-29.3 19.8-48.1 19.8-18.7 0-35.7-7.6-48-19.9-12.3-12.3-19.9-29.2-19.9-48 .1-18.7 7.7-35.6 20-47.9z"/><path class="st0" d="M-266.7 246.9s-10.1-4.4-14.7.8c-4.6 5.1-46.2 53.8-46.2 53.8s-15.8-17-20.9-21.7-14.7.8-14.7.8l35.8 38.1 60.7-71.8z"/></svg>