<svg id="Layer_1" xmlns="http://www.w3.org/2000/svg" viewBox="-84 -118 164 165"><style>.st0{fill:#bbdbe8}</style><path class="st0" d="M-2 42.6c43.1 0 78.1-34.9 78.1-78.1s-35-78-78.1-78-78.1 34.9-78.1 78.1c0 43.1 35 78 78.1 78zm-47.9-126c12.3-12.3 29.2-19.9 48-19.9 18.7 0 35.7 7.6 48 19.9S66-54.2 66-35.4c0 18.7-7.6 35.7-19.9 48S16.8 32.4-2 32.4c-18.7 0-35.7-7.6-48-19.9s-19.9-29.2-19.9-48c.1-18.7 7.7-35.6 20-47.9z"/><path class="st0" d="M46.3-69.1s-10.1-4.4-14.7.8C27-63.2-14.6-14.5-14.6-14.5s-15.8-17-20.9-21.7-14.7.8-14.7.8l35.8 38.1 60.7-71.8z"/></svg>