<svg id="Layer_1" xmlns="http://www.w3.org/2000/svg" viewBox="0 0 149.3 205.3"><style>.st0{opacity:.2}.st1{fill:#50542e}</style><g id="XMLID_141_"><path id="XMLID_674_" class="st0" d="M47.6 59c-.2-.8-1-1.4-1.8-1.4-.7 0-1.3.1-2 .2-.3 0-.5.2-.8.3.3-.8.7-1.5.6-2.4-.1-.7-.4-1.1-1-1.3-2.3-.8-2.8-6.8-3.3-8.9-.2-.8-1.5-.8-1.6 0-.7 3.2 0 8.6 2.9 10.8-.2.4-.4.8-.4.7-.4.9-.5 1.8-.7 2.8-.1.7.1 1.3.7 1.7 2.1 1.4 3.4-.2 5.5-.2.8 0 1.6-.6 1.8-1.4.1-.3.1-.5.1-.9z"/><path id="XMLID_671_" class="st0" d="M136 94c-1-10.9-2.2-24.4-9.2-33.3-.4-.5-1-.4-1.4-.1-.6-.6-1.2-1.1-1.8-1.5.3 0 .6-.1.8-.1.7 0 1.5-.4 2.2-.6.9-.3 1.4-1 1.5-2 .3-3.7-3.1-5.4-5.6-7.4-1.4-1.1-3.1-1.5-4.3-2.8-.8-.9-1.7-1.8-2.9-1.3-.1.1-.3.1-.4.2-1-.7-2.5.1-2.2 1.5.5 2.2 1.7 4.2 2.6 6.2.7 1.5 1 1.7.4 3.2-.4 1-.4 1.7.1 2.7.8 1.7 3.3 1 4.6.5.2-.1.4-.1.6-.1-.1.1-.2.1-.3.2-1.8 2.2-1.8 5.1-1.2 7.8.6 2.7-.2 5.7 1.1 8.2.3.5.7.8 1.1 1 0 .3.1.6.1.9 1.4 8.6 1.7 17.4 2.7 26.1.1.7 1 .7 1 0 .8-6.7.3-12.9-.3-19.6-.4-4-.8-7.8-.2-11.6.1-.1.2-.2.4-.3.6.5 1.2 1 1.7 1.6l.2.2c.5 1.2.9 2.4 1.4 3.6l.3.6c1.3 5.8 1.9 12 2.4 17.9.7 7.4.6 14.6-.1 22-.6 6.6-2.5 12.6-4.1 18.9-1.5 6-3.9 11.9-6 17.7-2.3 6.1-4.3 11.8-7.6 17.5-2.9 5-7.6 8-10.1 13.2-2 4.1-5.7 7.9-6.9 12.3-.4 1.3 1 2.2 2.2 1.7 3-1.5 5.4-5.1 7.4-7.8 3-4 6.6-7.6 9.5-11.7.7-1 .1-1.9-.8-2.3 1.7-2.5 3.2-5 4.6-7.6 2.7-5 4.4-10.4 6.5-15.7 2.5-6.3 4.6-12.6 6.5-19.1 4-13.4 4.8-26.8 3.5-40.8zm-17.2-37.4c-.8.3-.9.3-.3 0 .2-.5.4-1 .5-1.5.3-1.5-.6-2.7-1.3-3.9 1.3.8 4.7 2.4 5.9 4.2-.8.3-1.7.4-2.5.5-.9.1-1.5.4-2.3.7z"/><path id="XMLID_668_" class="st0" d="M83.2 153.4c-.1 0-.5-.5-1.1-1.1-.9-2.8-1.8-5.4-3.8-8-2.4-3.2-4.2-7.3-5.9-10.9-2.2-4.6-4.1-9.3-6-14.1-1.4-3.6-3.2-7.1-4.7-10.7.4.2 1 0 1-.5-.4-5.5-3.5-11.1-5.6-16.1-1-5.4-1.7-10.9-2.9-16.3-.5-2.4-1.8-8-4.1-11.4 0-.1-.1-.2-.1-.2l-.1-.1c-1.3-1.9-3-3-5-2.3-.4.1-.7.5-.8.9-.3.1-.7.3-1 .5-3.2 1.9-2.8 6.4-2.3 9.5 1 5.9 3.6 11.4 5.2 17.2 1.8 6.4 3.8 12.7 5.7 19.1 3 10.2 6.2 22.7 13.4 31 2.9 3.3 5.7 6.7 8.7 9.8 1.2 1.2 3.4 2.2 4.5 3.6.7 1 1.6 2.5 2.7 3.2.2.2.5.3.8.3 1.9.4 3.5-2.4 1.4-3.4zm-10.8-11.1c-2.3-3.4-6-5.5-7.6-9.6-.6-1.4-1.6-2.7-2.3-4-1.4-2.7-2.3-5.7-3.3-8.6-3.4-9.8-6.3-19.9-9-29.9-1.1-4.3-2.6-8.5-4.2-12.6-1-2.4-3.1-11.8.2-13.2 1.1 2.2 4.1 7.7 4.5 8.6 1.6 3.7 1.4 7.7 2.7 11.4 1.2 3.5 1.3 7.8 2 11.4.9 4.5 2.2 9 4 13.2 3.5 8 6.3 16.4 10.2 24.2 2.4 4.7 5.1 9.2 7.4 13.8-1.6-1.4-3.4-2.9-4.6-4.7z"/><path id="XMLID_142_" class="st1" d="M75.6 138.2c-7.4-12.6-10.7-26.7-14.8-40.6-2-6.8-4.2-13.7-6.1-20.5-1.3-4.5-1.7-10.2-3.6-14.7.4-1.1.8-1.5.3-2.7-.2-.5-.4-1-.7-1.5-.6-1.7-1.6-3.2-2.8-4.6-.7-.9-1.7-2.2-2.9-2.5-.2-2.6-1-4.9-2.5-7.2-.4-.6-1-1.3-1.7-1.6 0-.6-.3-1.2-.9-1.6-.2-.1-.4-.3-.7-.4-3.3-6.1-6.9-12.2-9.9-18.4C26.6 16.3 24.2 9.5 18.5 6c-7.5-4.6-9.8 1.5-8.3 7.3v.6c0 .2.1.3.3.4.1.4.3.7.4 1.1v.2c.2 1.5.7 2.1 1.5 3.2.3.4.7.5 1.2.3 0 0 .1 0 .1-.1.3-.1.4-.4.4-.7.1-.3-.1-.6-.3-.8-1.7-2-2.5-4.1-2.8-6.4 0-.5 0-1 .1-1.6 0-.3.1-.6.2-.8 2.2-3.1 4.7-3.2 7.2-.3C19.9 9.5 21 10.7 22 12c2.5 3.1 4 7.2 5.6 10.8 1.9 4.4 4.4 8.5 6.8 12.6.8 1.3 1.4 3.4 2.5 4.8-.1.1-.2.1-.3.2-1.2 1.4-.4 3.2 1 4.1-.2.4-.3.9-.3 1.3-.8 1.3-.8 3-.6 4.5.2 1.1.5 2.9 1.4 4-.1.2-.2.4-.2.7-.9.8-1.2 2.2-1.4 3.4-.1 1.6-.3 4.5 1.4 5.6 0 1 .1 1.9.2 2.9.1 1.5.4 3 .6 4.5.7 4.6 1.8 9.2 3 13.7 2.4 8.7 4.6 17.4 7.6 25.9 2.6 7.5 6.3 14.7 10.1 21.8 2.3 4.3 5.2 10.9 9.6 14.1 1.9 2.9 4.9 6 7.5 7.7 2 1.3 6.6 4.8 9.2 4.1 3.5-1.3-8.9-18.4-10.1-20.5zM39.4 47.4l.3-.3c.5-.3 1.6-.5 2-1.1 1.2.9 1.8 2.3 1.8 3.7.3.7.4 1.4.4 2.1-.5-.1-1-.1-1.5 0-.4 0-.6.6-.2.8.5.3 1.1.3 1.6.6.1.1.2.1.3.2.1 0 .2.1.2.1h.1c.5.2.9.4 1.4.6.5.4 1 .9 1.4 1.3.9.8 1.4 1.8 2 2.8 0 .1 0 .1-.1.2v.3c0 .4-.2.6-.4.7-1.2-.6-2.9-.7-4.1-.7H44c0-.1-.1-.2-.3-.3-.3-.2-.7-.3-1.1-.4-.4-.2-.7-.5-.9-.9-.5-.8-.2-1.8-.7-2.6-.1-.2-.4-.2-.5 0-.1.1-.1.2-.2.4-.9-2.5-1.5-5-.9-7.5zM40.8 60c-.1-.1-.2-.1-.2-.2-.3-.4-.5-.9-.7-1.4 0-.1 0-.3-.1-.4.2.7.6 1.3 1.1 1.8 0 .1-.1.1-.1.2zm6.3.4c.1 0 .1 0 .2.1l-.1.1c-.6-.1-1.2-.1-2 .1-1.1.2-2.4.6-3.5 1.3h-.2c-.4-.1-.6-.4-.6-.7 2-1.6 4-1.4 6.2-.9zm-5 7.7c-.2 1.2-.4 2.5-.5 3.8-.1 1.1 0 2.2.1 3.3-.2-1-.4-2.1-.6-3.1V72c-.1-2.6.1-4.8 1.1-7.1-.1 1.1-.1 2.2-.1 3.2zm24.5 72.7c-.2-.7-.4-1.4-.7-2.2.8 1.4 1.8 2.7 2.8 3.9.6 1.1 1.1 2.2 1.8 3.2-1.4-1.5-2.7-3.1-3.9-4.9zm2.5.5c-1-1-1.8-2.2-2.7-3.4 1.2 1.4 2.7 2.5 4.1 3.3.2.1.4-.2.3-.4-2.3-2.7-5.5-4.5-6.5-8.1-.1-.2-.4-.2-.4 0 .1 1 .4 1.9.8 2.8-2.7-2.7-4.9-6.1-6.2-9.6-1-1.6-1.9-3.4-1.7-5 1.1 1.3 2.4 2.4 3.9 3.4.2.1.5-.1.4-.4-1-1.3-2-2.6-3.2-3.7-.9-.9-1.8-2.6-2.4-3.7-.5-.9-1.1-1.8-1.6-2.7-.7-1.2-1.3-2.7-1.9-4.1.3.5.6.9.9 1.3.7 1 1.6 1.8 2.4 2.8.1.1.3 0 .2-.1-.9-2.1-2.2-4.1-3.3-6.1-.5-1-1.1-2-1.6-3-.9-4.9-2.8-9.7-4.2-14.5-.1-.6-.2-1.1-.3-1.7-.9-3-1.5-6.1-2-9 0-.3-.1-.5-.1-.8-.2-1.1-.5-2.3-.7-3.4.1.5.3 1.1.5 1.6-.3-1.8-.4-3.7-.5-5.5.1-1.3.1-2.7.3-4 .1-1 .3-1.9.4-2.8v-.1c.1-.5.1-1 .2-1.5.7-.2 1.4-.5 2-.7h.2c.2-.1.3-.1.5-.2.4 0 .8.1 1.2.3.4.6.8 1.1 1.1 1.7.3.5.5.9.7 1.4v.2c2 4.6 2.7 9.7 3.7 14.5.5 2.5 1.1 4.9 1.7 7.4.2.7.4 1.5.7 2.2 1.4 4.8 2.8 9.7 4.2 14.5-.1-.1-.2-.3-.2-.5-2.2-4-3.4-8.3-4.7-12.6-.1-.3-.5-.2-.4.1.6 2.1.8 4.3 1.2 6.4.4 2.1 1.6 3.8 2.2 5.8.9 2.5 2.3 5 3.9 7.3 1.1 3.5 2.1 7 3.3 10.5.2.5.4 1 .6 1.6-1-1.7-1.7-3.6-2.5-5.4-.1-.1-.2-.1-.3 0-.4 1.5.8 3.9 1.5 5.2 1.3 2.4 2.6 4.9 4.1 7.2.3.8.7 1.7 1 2.5 2.1 4.3 4.6 8.4 7.2 12.4-1.2 0-2.3.1-3.6-.2-1.7-.1-3.2-1.9-4.4-3.2zm9.2 8c-.4.1-.7.4-1.1.4-.2 0-.5.1-.7.1-1-1-1.9-2-2.5-2.5-.7-.6-1.3-1.3-1.9-2 1.7.9 3.7 1.3 5.9.8.7 1.1 1.4 2.2 2.1 3.2.6.9 1.3 2.1 2 3.1H82c-1.4.7-3.2-.4-4.7-1.7h.1c.5-.1 1.1-.5 1.2-1 0-.2-.1-.4-.3-.4zm3.2 5.9c-.5-.3-.9-.5-1.4-.7-.6-.3-1.2-.7-1.8-1 1.6 1 3.6 1.4 4.3-.4.3.4.6.8 1 1.2.2.5.3.9.4 1.2-.6.7-1.6.1-2.5-.3zM39.7 63.5h.1c0 .1-.1.1-.1.2v-.2zm.2 1.6c0-.1 0 0 0 0zM39 44.8v.2c-.1-.1-.1-.1 0-.2zm100.5-20.7c-1.8-3.9-4.4-8.6-8-11.3-5.5-4.1-9.5-3.1-15.1.1-4.3 2.4-4.8 9.3-5.1 13.4-.5 5.2-.7 12.7 2.4 17.3-.1 0-.2.1-.2.1-.4.3-.7 1.1-.5 1.7-.4 2.4-.1 6 1.2 8.7v.2l-.2.2c-.4.4-.6 1.1-.8 1.7-.6 1.8.7 4.4.9 6.2 0 .2.2.3.4.4.3.1.6.1.9.1.8 2.2 1.9 4.3 2.5 6.4 1.8 6.2 3.2 12.2 3.9 18.6 1.3 11.7-.8 24.1-1.9 35.8-2.2 23.9-10.5 48.7-21.9 69.8-1.2 2.2-2.2 5-1.2 6.6 1.8 2.8 7.4-3.7 8.3-4.5 5.3-4.7 8.7-12.1 12-18.2 4.1-7.8 7.7-15.4 10.5-23.8 1.2-3.5 2.4-7.1 3.4-10.7 4.3-11.1 6.6-22.5 6.8-34.1.1-2.3.2-4.5.1-6.8-.1-8.6-1.4-17-3-25.4-1-5.7-2.9-10.7-5.1-15.7 1.3-2.7 0-5.9-2.1-8.1-.1-.1-.1-.1-.2-.1v-.1c-1.2-1.5-3-2.1-4.3-3.5-1.4-1.5-2.5-3.3-4.1-4.6-1.1-1-2.6-1.7-3.9-1.5-2.5-7.3-2.1-16.1-.5-23.5.8-3.4 2.9-5.1 5.9-7 5.2-3.3 10.6.6 13.5 4.4 1.9 2.5 2.3 5.2 3.8 7.8.5 1.5 2.1.5 1.6-.6zm-21.7 35.4c-.5-.4-.8-.8-1-1.4 0-.1.1-.1.1-.2 0-.6.3-1 .7-1.4.1.6.3 1.2.8 1.8l.6.6c-.4.1-.9.3-1.2.6zM98.7 197.6c.2-.6.4-1.2.6-1.9 1.4 0 2.7-.8 3.9-1.5-1.2 1.4-2.8 2.7-4.5 3.4zm12.8-14.8c-2.3 2.4-3.9 5.1-6.5 7.2-.7.5-1.4 1-2.1 1.4 4.5-4.7 8.7-9.9 12.2-15.5-.1.3-.1.5-.2.8 0 .1 0 .2.1.2-.9 1.5-1.7 3.1-2.6 4.6-.4.5-.7.9-.9 1.3zm23.9-84.7c0 .2.1.5.1.7.5 11.5-1.3 22.4-4.1 33.6 1.4-8.7 1.8-17.6 1.9-25.9.1-8.7.1-18-1.5-26.5-.2-.9-.4-1.9-.6-2.8 1.8 6.8 3.1 13.9 4.2 20.9zm-3.4 12.4c0 8.5-1.2 16.9-2.7 25.3-.7 3.6-1.7 7.2-2.9 10.7.2-1.1.5-2.1.7-3.2.4-1.6.7-3.3 1-5 .6-3.4.9-6.7.8-10.1.2-2.7.3-5.5.3-8.1 0-.3-.5-.3-.5 0-.5 7.6-1.8 15.2-2.9 22.8 0 .2-.1.3-.1.5-.8 3.1-1.6 6.2-2.3 9.3l-.9 3.3c-.7 2.2-1.5 4.5-2.3 6.7-2 4.1-3.9 8.3-6.2 12.3-3.7 6.4-8.2 12.2-13.2 17.7 5-8.6 8.4-18.2 11.6-27.6 2.9-8.6 5.3-17.3 7.2-26.2 2.4-9 5-18.3 3.9-27.6.6-7.1.9-14.3.6-21.2-.2-4.8-1-9.6-2-14.3.5 1.5 1.1 3 2 4.3.2.2.5.1.4-.2-.5-2.8-1.1-5.5-1.8-8.3-.4-1.7-4.5-9.1-1.8-10.2.2-.1.3-.3.3-.4 1-.1 1.9 0 2.7.4 2.2 2.6 3.3 7.8 4.2 11 1.3 4.6 2.4 9.2 2.8 14 .7 7.9 1.1 16.1 1.1 24.1zm-1.4-35.8c-.8-2.8-1.7-5.6-2.9-8.3-.3-.6-.5-1.4-.8-2.1 0 0 0 .1.1.1 1.8 3.1 2.7 6.8 3.6 10.3zm-10.9-26c.2.3.4.5.6.8 0 .1 0 .1.1.2 1.2.9 2.2 2.1 2.7 3.1.8 1.5.9 3 .1 4.3.4 0 1.6 0 2.3-.1-.1-.5 0-1-.1-1.5s-.3-1-.6-1.5c-.3-.3-.6-.7-.8-1-.1-.2 0-.4.2-.4.9.3 2.2 1.4 2.8 2.5v-.2c.1.1.1.1.1.2v.5c.4.9.3 1.8-.7 2.4-1.7.9-3.7.5-5.7.6-.2-.2-.4-.3-.7-.4-.4-.1-.7-.4-1-.7-.5-.4-.7-.9-.8-1.4.6-.4 1-1 1.4-1.6.3-.3.6-.6.8-1 .3-.4.5-.7 0-1.2 0-.1-.1-.1-.2-.1 0 0 0-.1-.1-.1-.2-.2-.4-.2-.6-.3 0 0 0-.1-.1-.1v.1c-.5 0-.9 0-1.4-.2-.5-.1-1-.3-1.4-.5-.3-.7-.8-1.5-1.3-2.2 1.1-1.2 2.9-1.2 4.4-.2zm-2.3-1.9c-1.1.2-1.8.7-2.3 1.5-.1-.1-.1-.2-.1-.2 0-.4.5-1.1.8-1.6.6 0 1.1.1 1.6.3zm-3.2-.7c.1-.3.1-.6.2-.9.4-.1.8-.1 1.2-.1-.6.2-.8.5-1.1 1.1-.1.3-.3.7-.4 1-.1-.3-.1-.7-.2-.9.2 0 .3-.1.3-.2zm10.8 61.6c0-7.6-.4-15.4.3-22.9 0-.2.3-.2.4 0 1 7.5 1.1 15.5-.1 23-.1.2-.6.1-.6-.1z"/></g></svg>