<svg id="Layer_1" xmlns="http://www.w3.org/2000/svg" viewBox="0 0 377.3 184.5"><style>.st0{opacity:.5}.st1,.st2{fill:#fff}.st2{opacity:.1091}</style><g id="XMLID_1109_" class="st0"><g id="XMLID_197_"><g id="XMLID_555_"><path id="XMLID_559_" class="st1" d="M21.1 163.5c7.8 4.6 15.2 7.1 24 4.6 8.9-2.5 15.4-8.9 22.2-14.7 18.5-15.6 42.8-20.4 63.2-32.9 10.6-6.6 20.4-14.3 31.2-20.7 11.4-6.7 23.5-12.1 35.8-16.9 5.6-2.2 11.3-4.3 16.9-6.3 9-3.2 18.1-7.1 27.5-8.3 8.3-1.1 16.6-.6 24.8-3 10.4-3.1 19-10 25-19.1 3.8-5.8 6.5-12.3 8.3-19 1.7-6.3 4.4-15.4 1.7-21.7-1 .3-1.9.5-2.9.8 2.1 2.4 4.5 4.2 7.5 5.3.8.3 3.1.4 3.8.9.3 0 .5.1.8.1-.7.7-1.3 1.5-2 2.3-3.8 4.7-6.8 10-9.5 15.4-5 9.9-8.9 20.5-15.4 29.6-6 8.5-17.8 14.3-21 24.6-.7 2.4-.6 4.9-1.3 7.3-.9 3.1-2.8 5.2-5.3 7.1-5 3.8-10.6 7-15.9 10.3-49.1 30.3-103.6 52.4-160.2 64.2-13.1 2.7-28.1 6.9-41.5 4-6.4-1.4-11.4-4.8-15.5-9.9-3.8-4.7-6.9-10-12.7-12.6-1 .3-1.9.5-2.9.8 8.2 1.3 15.3 5.3 20.4 11.8.3.3 2.7-1.1 2.9-.8-5.2-6.5-12.2-10.6-20.4-11.8-.8-.1-2.2 1.1-2.9.8 5.3 2.4 8.4 7 11.8 11.4 4 5.1 8.6 8.9 15 10.7 12.2 3.3 25.8-.2 37.9-2.6 23.4-4.6 46.6-10.9 69.2-18.6 27.3-9.4 53.7-21 79-34.9 12.4-6.8 24.6-13.9 36.2-21.8 2.5-1.7 5.1-3.4 6.7-6.1 1.6-2.7 1.3-5.7 2-8.7 1.4-6 5.9-10.3 10.3-14.2 10.9-9.8 17-21.3 23.1-34.4 3-6.4 6.1-12.8 10.1-18.6l2.7-3.6c.6-.8 1.3-1.5 2-2.3-1-.1-2-.2-3.1-.5-3.6-.9-6.5-3-9-5.8-.2-.2-2.8 1-2.9.8 2.2 5.1.6 11.4-.5 16.6-1.3 6.2-3.2 12.3-6 18-4.6 9.3-11.7 17.4-21 22.2-10.5 5.4-23.3 3.1-34.6 5.9-7.4 1.9-14.5 4.5-21.7 7-22.7 8-45.1 16.7-65.1 30.2-10.3 6.9-20.1 14.4-31.2 20.1-9.8 5-20.1 8.6-30.1 13.2-11.5 5.2-20.8 12.1-30.4 20.2-4.2 3.5-9.3 7.9-15 8.8-6.8 1.1-13.4-2.4-19.1-5.7-.6-.6-2.3.9-2.9.5z"/></g></g><g id="XMLID_196_"><g id="XMLID_532_"><path id="XMLID_553_" class="st1" d="M238.9 67.9c14.2 1.8 17.8 16.9 15.6 28.9.1-.4 2.8-.3 2.9-.8 2.2-12-1.4-27.1-15.6-28.9-1-.1-2 .9-2.9.8z"/></g></g><g id="XMLID_143_"><g id="XMLID_493_"><path id="XMLID_498_" class="st1" d="M253.9 69.4c10.3 3.4 22.9.1 30.2-7.9-.6.6-2.3.1-2.9.8-6.4 7-15.4 9.3-24.4 6.4-.8-.4-2.1.9-2.9.7z"/></g></g><g id="XMLID_142_"><g id="XMLID_476_"><path id="XMLID_486_" class="st1" d="M84.8 91.1c-1-.3-1.9-.7-2.8-1.3-1 .3-1.9.5-2.9.8 5.3-.9 9.9 1.1 14.5 3.4 5.3 2.6 10.6 5.3 15.9 8 4.2 2.1 8.7 4 12.1 7.4 3.2 3.2 5 7.5 9.3 9.5.7.3 2.2-1.1 2.9-.8-4.1-1.9-5.8-5.8-8.7-8.9-3.4-3.7-8.2-5.7-12.6-8-5-2.5-10-5-15.1-7.5-4.9-2.5-9.7-4.8-15.4-3.8-.5.1-2.5 1-2.9.8.9.6 1.8 1 2.8 1.3.8.1 2.2-1.2 2.9-.9z"/></g></g><g id="XMLID_141_"><g id="XMLID_469_"><path id="XMLID_474_" class="st1" d="M75.9 91c13.8-.4 27.7-.4 41.5.6 6.1.5 12 1.5 17.4 4.6 6.1 3.5 10.9 5 18 5.2 1 0 1.9-.8 2.9-.8-7.1-.2-11.9-1.7-18-5.2-5.4-3.1-11.3-4.1-17.4-4.6-13.8-1-27.7-1.1-41.5-.6-1 0-1.9.7-2.9.8z"/></g></g><g id="XMLID_140_"><g id="XMLID_430_"><path id="XMLID_466_" class="st1" d="M170.4 145.4c19.3 3.8 38.4 8.5 57.2 14.4 9.1 2.8 17.9 6.1 26.9 9.2 8.4 2.9 16.7 4.8 25.6 3.1 3-.6 6.1-1.4 9-2.4 7.5-2.6 12.3-7.5 18.5-12.1 4.5-3.3 10.7-3.5 16.1-3.9 4.4-.3 8.8-.5 13.2-.4 10.1.2 20.1 1.7 29.9 4.2.8.2 2.2-1.1 2.9-.8-4.1-1.8-1.3-7.4-3.9-10.3-1.8-2-5.1-1.3-7.4-1.2-3.4.1-6.7.2-10.1.1-14.3-.2-28.7-2.1-42.3-7-6.3-2.3-12.3-5.2-18.6-7.4-6.6-2.3-13-2.9-19.9-3-14.9-.2-29.5-2.5-43.7-7.3-.8-.3-2.1 1-2.9.8 13.9 4.7 28.2 7.1 42.8 7.3 7.2.1 13.9.6 20.8 3 6.3 2.2 12.3 5.1 18.6 7.4 13.2 4.8 27.3 6.7 41.3 7 3.4.1 6.7 0 10.1-.1 2.5-.1 6.4-1 8.3 1.2 2.6 2.9-.2 8.5 3.9 10.3 1-.3 1.9-.5 2.9-.8-17.4-4.5-36.3-5.9-54-2.5-2.8.5-5.9 1.2-8.4 2.5-3.7 1.9-6.4 5.2-9.7 7.7-4 3-8.2 5-13 6.3-9.7 2.6-18.8.4-28.1-2.9-8.9-3.2-17.9-6.3-26.9-9.2-18.5-5.7-37.3-10.4-56.3-14.1-.8-.1-1.9 1.1-2.8.9z"/></g></g><g id="XMLID_900_"><g id="XMLID_424_"><path id="XMLID_428_" class="st1" d="M295.4 134.7c-1.2-3.4-4.9-2.6-7.6-1.7-9 3.2-4.3 12.8-6 19.7-.5 2.2-1.1 3.3-.5 5.5.5 1.7 1.6 3.2 1.7 5 .2 3.5-1.7 5.5 3.3 6 2.7.3 5.6-.4 8-1.7-.9.5-2 .3-2.9.8-.4.2-.8.4-1.1.6.9-.2 1.8-.5 2.7-.7-1.5.4-5 .7-6.5-.3-2-1.4-.8-2.3-.7-4.2.3-3.4-2.4-6.1-1.9-9.6.3-1.9 1.2-3.4 1.3-5.4.1-2.3-.7-4.5-.7-6.8 0-4.4 1.7-8.2 6-9.7-1 .3-1.9.5-2.9.8 2.2-.2 4 .2 4.7 2.4.2.2 3.1-.7 3.1-.7z"/></g></g><g id="XMLID_1107_"><g id="XMLID_448_"><g id="XMLID_449_"><path id="XMLID_464_" class="st2" d="M225.8 143.9c7.6 1.5 9 2 17 2.5 2.9.1 5.7.3 8.6.4 3-.1 6-.2 8.9-.4.7 0-1.3-.8-1-.7-1-.3-2.1-.7-3.1-.6-7 .5-14.1.4-21.1-.3-4.3-.2-8.5-.9-12.7-1.9-.6-.1-.5 0 0 .2.9.4 2.3.5 3.4.8z"/><path id="XMLID_463_" class="st2" d="M228.2 143c4.2 1.2 8.4 1.9 12.7 2.1 4.3.4 8.5.7 12.8.8 6.1 0 11.1-.6 17.1-1.3 1-.1 2.1-.7 3-1-.2.1 1.5-.5 1-.5-8.6.9-17.2 1.1-25.8.7-5.7-.2-11.4-1-16.9-2.4-.8-.2-2.3.7-3 1 .2-.1-1.5.5-.9.6z"/><path id="XMLID_461_" class="st2" d="M214.2 135.5c2.3.8 4.7 1.6 7.1 2.3 4.5 1.6 9 2.6 13.7 3 5.4.7 10.9.8 16.3.5 4.6-.6 9.2-1.2 13.7-2 .3 0-1-2.1-1-2-.2-.3-.9-1.8-1.5-1.7-4.9.9-9.8 1.3-14.8 1.3-4.1.2-8.1 0-12.2-.5-8.1-1-15.9-3-23.8-4.7.1 0 1.1 2 1.1 2 .3.3.9 1.6 1.4 1.8z"/><path id="XMLID_460_" class="st2" d="M220.4 123.4c8.6 1.6 16.9 3.1 25.7 3 2.9-.1 5.7-.2 8.6-.3 2.8-.3 5.5-.8 8.3-1.3.7-.1 1.5-.6 2.1-.8.5-.2 1.5-.9 2.1-.9-8.5 1.4-17.1 1.8-25.7 1.2-5.7-.6-11.3-1.5-16.9-2.6-.6-.1-1.6.5-2.1.7-.1 0-2 1-2.1 1z"/><path id="XMLID_459_" class="st2" d="M221.6 132.8c7.2 1.6 14.6 3.6 22 3.8 4.9.1 9.6-.4 14.5-.8h-1.5 10.8c1.3 0 1.5-.8 1.7-2 .1-.9.3-2.4-1-2.5-5.3-.5-10.6-.7-15.9-.6-2.1.7-4.3 1.1-6.4 1.2-2.8.4-5.5.3-8.3-.2-5.4-.3-10.5-1.4-15.5-3.4 0 0-.9 4.4-.4 4.5z"/><path id="XMLID_458_" class="st2" d="M231.6 122.2c4.2.9 8.4 1.7 12.7 2.2 4.2.7 8.5 1 12.8.9 7.3 0 10.5-.6 17.7-1.7-.4.1-1.8-.6-2.2-.7-.5-.2-1.6-.7-2.2-.6-8.3 1.5-16.7 1.9-25.2 1.2-5.7-.7-11.3-1.5-16.9-2.6-.7-.1-.5 0-.1.3.8.6 2.3.8 3.4 1z"/><path id="XMLID_457_" class="st2" d="M215.5 133.2c2.8.5 5.6 1.1 8.4 1.6 4.3.7 8.6 1.1 13 1.1 2.9.2 5.7.2 8.6 0 4.2-.1 8.4-.5 12.6-1.2.4-.1.3-4.4.6-4.5-2.8.3-5.5.7-8.3 1-4.3.4-8.6.5-12.9.2-2.9 0-5.8-.2-8.6-.6-4.3-.4-8.5-1.1-12.7-2.1-.3 0-1 4.5-.7 4.5z"/><path id="XMLID_455_" class="st2" d="M227.1 131.3c4.1 1.6 8.3 2.5 12.7 2.7 4.4.5 8.7.8 13.1.8 2.8.2 5.7.5 8.5.7 5.7.2 11.4 0 17.1-.5.5 0 .1-4.6-.4-4.5-8.1 1-16.1 1.8-24.2 1.8-4 .3-7.9-.2-11.8-1.6-5.3-1-10.5-2.3-15.6-3.9l.2 2.3c.1.1.2 2.2.4 2.2z"/><path id="XMLID_454_" class="st2" d="M217.7 128.4c5.7 1 11.4 2.1 17.2 2.6 2.8.1 5.7.2 8.5.3 5.6.1 11.2-.4 16.7-1.5.5-.1 1.3-1.4 1.5-1.7 0 0 1.3-1.9 1.2-1.9-5.7 1-11.4 1.5-17.2 1.4-8.5-.1-17-1-25.3-2.8-.5-.1-1.4 1.4-1.6 1.6.3 0-1.2 2-1 2z"/><path id="XMLID_453_" class="st2" d="M215.7 123.7c3.8 2.2 7.9 3.4 12.2 3.6 4.1.5 8.1.9 12.2 1.1 8.9.3 17.8-.4 26.7-.8 1 0 2.2-.3 3.2-.6.1 0 1.2-.4.6-.6-5.7-2.9-11.6-3.9-17.6-3-3.9.3-7.8.5-11.8.8h-7.6c-4.6.6-9.2.3-13.8-.9-1-.2-2.2.1-3.2.2.4-.1-1.4 0-.9.2z"/><path id="XMLID_452_" class="st2" d="M224.6 136.8c5.6 1.7 11.2 3 17 4 2.2.1 4.5 0 6.7-.4h9.4c6.2-.3 12.4-.2 18.6.3.5 0 1.1-1.7 1.2-1.9 0 .1 1-2.2.8-2.2-4.3 1-8.5 2.1-12.8 3.1.9-.1 1.9-.2 2.8-.3-8.3.8-16.4-.1-24.3-2.5-5.8-1-11.4-2.3-17-4-.5-.1-2.1 4-2.4 3.9z"/><path id="XMLID_451_" class="st2" d="M217.4 138.1c2.8.5 5.6 1.1 8.4 1.6 4.3.6 8.6 1 13 1 7.2.3 14-.3 21.2-1.1-.2 0-1.1-4.3-1.5-4.3-7.1.8-14 1.4-21.2 1.1-2.9 0-5.8-.2-8.6-.6-4.3-.3-8.5-1-12.7-2.1-.1 0 .6 2.3.6 2.2-.1.3.4 2.1.8 2.2z"/></g></g></g><g id="XMLID_1836_"><g id="XMLID_432_"><g id="XMLID_433_"><path id="XMLID_446_" class="st2" d="M296.3 161.2c0 1.9.1 3.4.6 5.2 0 .1 4.4-1.2 4.3-1.5-.5-1.9-.6-3.3-.6-5.2 0-.2-2.2.6-2.2.6-.2 0-2.1.5-2.1.9z"/><path id="XMLID_445_" class="st2" d="M288.6 141.6c-.1 1.7 0 3 .4 4.7 0-.1 4.3-1.4 4.2-1.8-.4-1.7-.5-3-.4-4.7 0-.1-2.2.8-2.1.8-.1.1-2 .7-2.1 1z"/><path id="XMLID_443_" class="st2" d="M295.9 139.1c0 1.7.1 3 .6 4.7.1.3 2 .7 2.1.7l2.2.5c-.5-1.7-.6-2.9-.6-4.7.1-.5-4.3-1-4.3-1.2z"/><path id="XMLID_442_" class="st2" d="M283.7 150.9c-.1 1.9-.1 3.5.3 5.4-.1-.5.3-1.8.4-2.2.1-.6.4-1.6.2-2.3-.4-1.5-.4-2.9-.2-4.4 0-.6 0-.5-.2 0-.4 1-.4 2.4-.5 3.5z"/><path id="XMLID_441_" class="st2" d="M290.1 161c-.1 1.9 0 3.4.4 5.2 0 .2 2.1.6 2.2.6 0 0 2.2.4 2.2.5-.4-1.8-.5-3.3-.4-5.2 0-.5-4.4-.9-4.4-1.1z"/><path id="XMLID_440_" class="st2" d="M284.1 152.2c-.1 1.8-.1 3.3.3 5 .2 1 .7 2.1 1 3-.1-.3.6 1.5.5 1-.3-1.8-.3-3.3-.2-5.1.1-.9-.7-2.2-1-3 0 .3-.6-1.5-.6-.9z"/><path id="XMLID_439_" class="st2" d="M288.7 143.7c-.4 4.5-.2 9 .4 13.4.1 1 .5 2.2.9 3.1 0 0 .6 1.1.6.6-.3-1.3-.7-2.5-1-3.8.3 1.1.7 2.3 1 3.4-.4-1.7-.7-3.5-1.1-5.2.2 1.2.3 2.4.5 3.5-.1-1.8-.1-3.6-.2-5.3-.1 1.2-.1 2.4-.2 3.6.4-3.2.9-6.3 1.5-9.5.1-.5-.9-1.7-1.1-2 0-.1-1.3-1.6-1.3-1.8z"/><path id="XMLID_438_" class="st2" d="M298.8 140.8c-.7 2.8-2.8 7.7-2 11.3.3 1.4.7 2 1.6 3.1.7.8 1.4 1.6 2.2 2.3 0 0 1 .7.7.3-.9-1.5-1.4-3.2-1.2-4.9.4-4.2 0-8.4-1.1-12.5 0-.4-.3.6-.2.4z"/><path id="XMLID_437_" class="st2" d="M303.4 139c-.3 4.7-.8 9.2-.1 13.9l.3 1.8c.5 1.8.8 2 2 3.3-.1-.1-.1-2.2-.2-2.3-.1-.6-.1-1.7-.4-2.2-2.2-3-2.5-6.4-1-10.3 0-1-.2-2.2-.4-3.2.1.4-.2-1.5-.2-1z"/><path id="XMLID_436_" class="st2" d="M286.5 138.4c-.2 3-.4 5.9-.6 8.9-.1.8-.1 1.6 0 2.4.1 1.2.4 1.8.9 2.9-.1-.1 1.4-1.8 1.4-1.8s1.4-1.7 1.4-1.8c-.8-1.2-1.1-2.6-.9-4.1.2-3.4.4-6.7.6-10.1 0 .4-1.2 1.6-1.4 1.8-.2.2-1.4 1.3-1.4 1.8z"/><path id="XMLID_435_" class="st2" d="M292.5 135.7c-.2 3.4-.6 6.9-.4 10.3.1 1.5.5 2.3 1.3 3.6.3.4 2 .1 2.3.1-.1 0 2.4-.2 2.2-.4-1-1.3-1.4-2.7-1.3-4.3.1-3.2.2-6.5.4-9.7 0 0-4.5 0-4.5.4z"/><path id="XMLID_434_" class="st2" d="M301.5 148.8c-.1 2.6-.9 8.3-.1 11.7.3 1.6.8 2.1 1.7 3.4l1.3-1.9c0-.1 1.3-1.8 1.1-2-1.2-1.3-1.8-2.9-1.8-4.8-.2-3.4-.1-6.9.2-10.3 0 .3-1.1 1.6-1.3 1.9-.2.5-1.1 1.5-1.1 2z"/></g></g></g><g id="XMLID_1843_"><g id="XMLID_404_"><g id="XMLID_405_"><path id="XMLID_423_" class="st2" d="M302.4 153c-.1 1.9-.2 3.8-.2 5.6 0-.4 1.1-1.6 1.3-1.9.2-.4 1.1-1.4 1.2-1.9.1-1.9.2-3.8.2-5.6 0 .4-1.1 1.6-1.3 1.9-.3.4-1.2 1.4-1.2 1.9z"/><path id="XMLID_422_" class="st2" d="M289.6 147.9c-.5 3.7-.7 7.4-.5 11.1 0 .5.9 1.6 1.1 2 .1.2 1.3 1.6 1.3 1.9-.2-3.7 0-7.4.5-11.1.1-.5-.9-1.6-1.1-2 0-.1-1.3-1.8-1.3-1.9z"/><path id="XMLID_408_" class="st2" d="M299.5 146.8c-.2 2.2-.5 4.4-.7 6.5-.2 2.2-.2 4.4 0 6.6 0 .5.2-1.3.2-1.1.1-1.1.3-2.1.3-3.2.1-2.6.3-5.2.4-7.8 0-.2.4-3.2.2-3.3-.3.1-.4 2.2-.4 2.3z"/><path id="XMLID_407_" class="st2" d="M304.3 143.2c-.3 6.6-.3 4.5.2 10.9.1 1.1.3 2.1.4 3.2 0-.2.2 1.5.2 1.1 0-3.7-.1-7.3-.1-11 0-1-.2-2.2-.4-3.2 0 .4-.3-1.5-.3-1z"/><path id="XMLID_406_" class="st2" d="M293.4 139.9c-.5 3.6-.6 7.1-.4 10.7 0 .1 4.5-.1 4.5-.4-.3-3.6-.1-7.2.4-10.7 0 0-4.5-.1-4.5.4z"/></g></g></g><g id="XMLID_1850_"><g id="XMLID_409_"><g id="XMLID_410_"><path id="XMLID_421_" class="st2" d="M258.3 86.3c.8 1.5 1.3 3 1.6 4.7 0 0 4.3-1.3 4.3-1.5-.3-1.7-.8-3.2-1.6-4.7-.1-.2-4.3 1.5-4.3 1.5z"/><path id="XMLID_420_" class="st2" d="M251.9 69.5c.2.7.3 1.5.5 2.2 0-.2 4.2-1.5 4.2-1.8-.2-.7-.3-1.5-.5-2.2 0 .2-4.3 1.5-4.2 1.8z"/><path id="XMLID_419_" class="st2" d="M258 64.9c.8 1.3 1.3 2.8 1.6 4.3.1.2 2.1.6 2.2.7 0 0 2.2.5 2.2.6-.3-1.5-.8-2.9-1.6-4.3-.1-.2-2-.6-2.2-.6-.2-.1-2.1-.4-2.2-.7z"/><path id="XMLID_418_" class="st2" d="M247.1 79.1c.1.8.3 1.5.4 2.3-.3-1.4.9-3.1.6-4.5-.1-.8-.3-1.5-.4-2.3.3 1.4-.9 3-.6 4.5z"/><path id="XMLID_417_" class="st2" d="M248.1 81.6c.2.6.5 1.2.7 1.8-.4-1.3-.9-2.6-1.3-3.8.1.8.3 1.6.4 2.4.3 1.5 1.2 2.8 1.5 4.3-.6-3.1-1.6-5.9-2.8-8.9.6 1.3 1 2.8 1.5 4.2z"/><path id="XMLID_416_" class="st2" d="M251.2 79c.5.7.9 1.3 1.4 2-.6-1-1.3-2-1.9-3 .5 2.2.9 4.4 1.4 6.6 0 .6.8 1.6 1 2 0 .1 1.3 1.8 1.3 1.8.1-1.4.2-2.5-.2-3.9-.4-1.5-.6-2.1-1.5-3.6-1-1.9-2.3-3.5-3.6-5.2-.2-.3.2.6.3.7.6.8 1.2 1.7 1.8 2.6z"/><path id="XMLID_415_" class="st2" d="M258.9 76.7c.7.5 1.4 1 2 1.5-.5-1.3-1-2.7-1.5-4-.2 2.5-.2 5-.2 7.5 0 .7 4.5.8 4.5.5.2-.8 0-1.6-.5-2.2-1.2-2-2.4-3.9-3.7-5.9.5 1.2 1 2.4 1.4 3.7-.5-1.8-1.1-3.6-1.6-5.5-.1-.3-.4 1.4-.4 1.6.1.4-.4 2.5 0 2.8z"/><path id="XMLID_414_" class="st2" d="M264.5 75.2c.9 1.2 1.5 2.5 1.8 4 .5 1.5.9 2.9 1.3 4.4.2.6.2.5.2 0 .1-1-.2-2.5-.5-3.5-.4-1.6-.7-3.3-1.2-4.8-.6-1.7-1.4-3-2.3-4.5.2.4.2 1.9.2 2.3.2.4.1 1.5.5 2.1z"/><path id="XMLID_413_" class="st2" d="M248.3 72.2c.6 1 1 2.2 1.2 3.3.4 1.1.4 2.1 0 3.2.1-.4 1.2-1.5 1.4-1.8.3-.4 1.3-1.3 1.3-1.8.4-1.1.4-2.2 0-3.2-.2-1.2-.6-2.3-1.2-3.3 0 0-1.5 1.8-1.5 1.7 0 .1-1.3 1.6-1.2 1.9z"/><path id="XMLID_412_" class="st2" d="M252.9 67.5c1.8 2.9 2.8 5.4 3 8.8 0 .3 4.5 0 4.5-.4-.2-3.4-1.2-5.9-3-8.8-.2-.3-2.1.1-2.3.1.1 0-2.2.3-2.2.3z"/><path id="XMLID_411_" class="st2" d="M261.9 80.7c1 1.2 1.7 2.6 2.2 4.1.4 1.7.8 3.3 1.1 5 0-.1 1.3-1.8 1.3-1.8.2-.3 1.2-1.5 1.1-2-.3-1.7-.7-3.3-1.1-5-.5-1.5-1.2-2.9-2.2-4.1 0 .1-1.2 1.9-1.2 1.9s-1.3 1.7-1.2 1.9z"/></g></g></g><g id="XMLID_1857_"><g id="XMLID_395_"><g id="XMLID_396_"><path id="XMLID_402_" class="st2" d="M92 90.3c1.3.2 2.6.3 4 .5.2 0 1.4-1.7 1.4-1.8 0 0 1.2-1.8 1.4-1.8-1.3-.2-2.6-.3-4-.5-.2 0-1.4 1.8-1.4 1.8s-1.2 1.8-1.4 1.8z"/><path id="XMLID_401_" class="st2" d="M96.6 99.5c2.8.2 5.5.7 8.1 1.6-.1 0-1.1-1.9-1.1-2-.2-.3-.9-1.8-1.3-1.9-2.6-.9-5.3-1.4-8.1-1.6l1.1 2c.2.3.9 1.8 1.3 1.9z"/><path id="XMLID_400_" class="st2" d="M104 96.8c2.6.2 5.2.8 7.7 1.6-.1 0 .8-4.4.5-4.5-2.5-.8-5.1-1.4-7.7-1.6-.3 0-.8 4.5-.5 4.5z"/><path id="XMLID_399_" class="st2" d="M109.5 95.3c2.8.2 5.5.8 8.2 1.6l-.2-2.3s-.2-2.2-.4-2.2c-2.7-.8-5.4-1.4-8.2-1.6.3.1.1 4.4.6 4.5z"/><path id="XMLID_398_" class="st2" d="M98.1 87.7c2.7.3 5.4.8 8.1 1.7.9.2 2.3-.1 3.2-.2-.2 0 1.5-.1 1.1-.2-2.6-.9-5.3-1.4-8.1-1.7-1-.2-2.2.1-3.2.2.3-.1-1.6.1-1.1.2z"/><path id="XMLID_397_" class="st2" d="M107 100.8c2.8.3 5.6.8 8.2 1.7.5.1 2-3.9 2.4-3.8-2.7-.9-5.4-1.5-8.2-1.7-.2 0-1.2 1.8-1.3 1.9 0-.1-1.1 1.9-1.1 1.9z"/></g></g></g><g id="XMLID_1864_"><g id="XMLID_385_"><path id="XMLID_389_" class="st1" d="M252.5 78.9c2.5-3.1 6.5-4.4 9.8-6.4 3.6-2.2 6.9-4.7 10-7.5-.7.6-2.2.2-2.9.8-3.1 2.8-6.4 5.3-10 7.5-3.3 2-7.3 3.3-9.8 6.4.5-.6 2.3-.1 2.9-.8z"/></g></g><g id="XMLID_1871_"><g id="XMLID_379_"><path id="XMLID_383_" class="st1" d="M255.1 92c3.5-6.6 8.2-12.4 13.8-17.3-.7.6-2.2.2-2.9.8-5.7 4.9-10.3 10.7-13.8 17.3.3-.6 2.5-.2 2.9-.8z"/></g></g><g id="XMLID_1878_"><g id="XMLID_373_"><path id="XMLID_377_" class="st1" d="M287.4 138.4c-1.5 2.6 12 5.4 14 5.6.9.1 2-.9 2.9-.8-1.9-.3-15.4-3.1-14-5.6-.3.6-2.5.2-2.9.8z"/></g></g><g id="XMLID_1880_"><g id="XMLID_367_"><path id="XMLID_371_" class="st1" d="M287.4 150.1c5.1-.4 10.2-1.6 15-3.3-.9.3-2 .4-2.9.8-3 1.1-6 1.6-9.2 1.8-1 0-1.9.6-2.9.7z"/></g></g><g id="XMLID_1882_"><g id="XMLID_361_"><path id="XMLID_365_" class="st1" d="M292.1 162c2.1-3.8 5.3-6.8 9.3-8.7-.9.4-2 .4-2.9.8-4 1.9-7.2 4.9-9.3 8.7.3-.6 2.6-.2 2.9-.8z"/></g></g><g id="XMLID_1884_"><g id="XMLID_355_"><path id="XMLID_359_" class="st1" d="M320.4 148.3l7.5.6c.9.1 2-.9 2.9-.8l-7.5-.6c-.9-.1-1.9.9-2.9.8z"/></g></g><g id="XMLID_1886_"><g id="XMLID_349_"><path id="XMLID_353_" class="st1" d="M25.9 166.9c5.3 4 11.4 6.4 18 7 .9.1 2-.9 2.9-.8-6.6-.6-12.7-3-18-7-.5-.4-2.4 1.1-2.9.8z"/></g></g><g id="XMLID_1888_"><g id="XMLID_343_"><path id="XMLID_347_" class="st1" d="M57.5 175.4c1.7-.3 3.3-.7 5-1 .9-.2 2.1-.6 2.8-.8-1.7.3-3.3.7-5 1-.9.2-2.1.6-2.8.8z"/></g></g><g id="XMLID_1939_"><g id="XMLID_337_"><path id="XMLID_341_" class="st1" d="M84.8 170.3c9.6-3 19.1-6.4 28.4-10.3-.9.4-2 .4-2.9.8-9.3 3.9-18.7 7.3-28.3 10.3.7-.2 2-.5 2.8-.8z"/></g></g><g id="XMLID_1967_"><g id="XMLID_331_"><path id="XMLID_335_" class="st1" d="M71.5 175c24-4.3 47.5-11.5 69.8-21.4-.9.4-2 .4-2.9.8-20.5 9.2-41.9 15.9-64 19.9-1 .1-1.9.5-2.9.7z"/></g></g><g id="XMLID_1974_"><g id="XMLID_324_"><path id="XMLID_329_" class="st1" d="M181.3 144.6c.1-.7.5-1 1.2-1-1 .3-1.9.5-2.9.8 8.1 0 16.9 2.3 24.9 3.4.9.1 2-.9 2.9-.8-4.3-.6-8.6-1.2-12.9-1.9-3.6-.5-8.4-2-12-1.6-1.2.1-3.6.7-4.1 1.8.2-.5 2.6-.1 2.9-.7z"/></g></g><g id="XMLID_1981_"><g id="XMLID_318_"><path id="XMLID_322_" class="st1" d="M182.9 140.9c6.7 2.2 13.3 4.3 20 6.5.8.3 2.1-1 2.9-.8-6.7-2.2-13.3-4.3-20-6.5-.8-.2-2.1 1.1-2.9.8z"/></g></g><g id="XMLID_1988_"><g id="XMLID_305_"><path id="XMLID_316_" class="st1" d="M205.3 141.6h-.2c-.3 0-2.9.6-2.9.8 0 .5 7.9 2.7 8.7 3 .7.3 2.2-1.1 2.9-.8-.9-.3-8.8-2.6-8.7-3-1 .3-1.9.5-2.9.8h.2c.9.1 2-.9 2.9-.8z"/></g></g><g id="XMLID_1995_"><g id="XMLID_299_"><path id="XMLID_303_" class="st1" d="M276.5 159.4c-3.1 5.9-8.2 10.3-14.6 12.4.7-.2 1.9-.5 2.8-.7 6.4-2.1 11.5-6.5 14.7-12.5-.3.6-2.5.2-2.9.8z"/></g></g><g id="XMLID_2002_"><g id="XMLID_293_"><path id="XMLID_297_" class="st1" d="M279.8 163.4c.1 2.9-2.4 4.1-4.8 5.2-4.7 2.1-9.7 3.5-14.8 4.5-.9.2-2.1.6-2.8.8 3.8-.7 7.5-1.7 11.2-2.8 4-1.2 14.2-3.1 14-8.5.1.2-2.8.6-2.8.8z"/></g></g><g id="XMLID_2009_"><g id="XMLID_287_"><path id="XMLID_291_" class="st1" d="M249.3 99.3c-3.1 6.3-8.1 11.3-14.5 14.3.9-.4 2-.4 2.9-.8 6.4-3 11.4-8 14.5-14.3-.2.6-2.6.2-2.9.8z"/></g></g><g id="XMLID_2016_"><g id="XMLID_281_"><path id="XMLID_285_" class="st1" d="M245.9 98.9c-10.8 8.9-22.3 16.7-34.6 23.4.8-.5 2-.3 2.9-.8 12.2-6.7 23.8-14.5 34.6-23.4-.7.6-2.2.2-2.9.8z"/></g></g><g id="XMLID_2023_"><g id="XMLID_261_"><path id="XMLID_279_" class="st1" d="M62.4 178.9c1 0 1.9-.8 2.9-.8-1 0-1.9.8-2.9.8z"/></g></g><g id="XMLID_2030_"><g id="XMLID_248_"><path id="XMLID_259_" class="st1" d="M58.4 178.4c1 0 1.9-.8 2.9-.8-1 0-1.9.8-2.9.8z"/></g></g><g id="XMLID_83_"><g id="XMLID_264_"><g id="XMLID_265_"><path id="XMLID_277_" class="st2" d="M63.5 181.1c12.5-1.7 25.1-3.2 37.4-6.3 8.4-2.1 16.5-4.6 24.8-7.3 8.6-2.8 17.5-5.2 25.5-9.4 3.9-2.2 7.7-4.4 11.6-6.7 7.5-4 14.8-8.3 21.8-13 .5-.3-1.4.2-1.1.1-1 .3-2.1.6-3 1.2-10.7 6.7-21.8 12.5-33.5 17.4-6.9 3.3-14 6.3-21.3 8.8-10.9 4.6-22.1 7.8-33.8 9.7-8.1 1.4-16.2 2.7-24.3 3.8-1 .2-2.1.6-3 1 .1 0-1.7.8-1.1.7z"/><path id="XMLID_276_" class="st2" d="M45.1 176.3c11.1-.4 22.1-1 33-2.8 10.9-1.8 21.6-4.1 32.2-7.6 8-2.6 14.9-5.4 22.6-8.7 14.5-6.2 27.9-14.3 41.4-22.4.6-.4-1.7-4.2-2.4-3.8-9 5.7-18.3 11-27.7 15.9-14 7.2-28.5 12.9-43.6 17.1-7.4 2-14.8 3.6-22.3 4.9-11.8 1.7-23.6 2.9-35.4 3.5-.1 0 1.1 2 1.1 2-.1.2.8 2 1.1 1.9z"/><path id="XMLID_275_" class="st2" d="M55.6 161c8.5-.3 17-1.3 25.4-3 8.2-1.5 16.4-3.4 24.4-5.7 8.5-2.7 16.1-5.2 24.4-8.5 4.5-1.8 9-3.8 13.4-5.8 4-1.8 8-3.8 11.9-5.9 7.5-4 14.7-8.5 21.7-13.4.5-.3-1.4.3-1.1.2-1 .4-2 .8-2.9 1.3-9.8 6.8-20.4 12.3-31.7 16.5-14.1 7.9-29 13.5-44.7 16.8-4.1.9-8.2 1.7-12.3 2.6-8.1 1.7-16.3 2.8-24.6 3.1-1 .1-2.1.8-3 1.2.3-.1-1.4.6-.9.6z"/><path id="XMLID_274_" class="st2" d="M52.5 173.7c6.3-.7 12.7-1.2 19-1.6 7.2-.7 14.5-.7 21.7.1-.3-.1-.7-.2-1-.2 2.2 1.3 4.4 1.8 6.8 1.6 7.7-1.4 15.2-3.5 22.6-6.1 8.1-2.7 16-5.8 23.7-9.3 11.6-5.5 22.3-12.3 32.1-20.5 1.1-.8 2.7-2.5 2-3.9-.7-1.4-2.1-1.8-3.4-1-5.5 4.2-11.4 7.8-17.6 10.9-5.5 3-11.2 5.8-17 8.2-9.5 4-19.1 7.6-29.1 10.5-3.4 1.2-7 2-10.6 2.4-5.1.9-10.2 1.5-15.4 1.8-3.8.4-7.6.8-11.4 1.3-7.3 1.2-14.7 1.7-22.1 1.5-.3-.2-.3 4.3-.3 4.3z"/><path id="XMLID_273_" class="st2" d="M67.1 159.8l12.3-.9c6.2-.8 12.4-1.9 18.5-3.3 10.2-2.1 20.3-4.8 30.1-8.3 7.9-2.8 15.6-5.9 23.2-9.4 5.7-2.6 11.3-5.5 16.7-8.7 5.6-3.1 11.1-6.4 16.3-10.1 0 0-2.2-.8-2.1-.8-.3-.1-1.8-.7-2.2-.5-3.5 2.2-7 4.5-10.5 6.7-5.4 3.3-10.9 6.2-16.5 8.9-9.3 4.6-18.9 8.9-28.8 12.2-7.9 2.7-15.9 5.1-24 7.1-6.1 1.5-12.2 2.7-18.4 3.6-6.1 1.2-12.3 1.9-18.5 2.1-.6 0 1.2.6 1 .5.7.3 2 1 2.9.9z"/><path id="XMLID_272_" class="st2" d="M50.4 171c6.4-.4 12.7-1.2 19-2.4 6.2-.9 12.4-2.1 18.5-3.6 10.2-2.5 20.1-5.6 29.9-9.3 7-2.6 9.9-3.6 17.6-7.3 3.7-1.9 7.5-3.7 11.2-5.6 7.3-3.8 14.3-8.1 21.1-12.8.4-.2.4-1.9.4-2.2l.2-2.3c-7.1 4.5-14.1 9-21.5 12.9-12.9 6.8-26.3 12.4-40.2 16.8-8 2.6-16 4.7-24.3 6.5-4.1 1-8.2 1.7-12.3 2.3-6.3 1.2-12.6 1.9-19 2.4-.5.2-.4 4.6-.6 4.6z"/><path id="XMLID_271_" class="st2" d="M61.3 182c10.3-1.4 20.7-2.8 30.9-5s20.3-4.9 30.2-8.4c7.9-2.8 15.6-6 23.2-9.4 11.5-5.2 22.2-11.7 32.9-18.3-.1 0-2.1-.6-2.2-.6-.3-.1-1.8-.7-2.2-.4-8.8 5.4-17.7 10.6-26.9 15.2-9.3 4.6-18.9 8.9-28.8 12.2-7.9 2.7-15.9 5.1-24 7.1-12.3 3.1-24.8 4.8-37.3 6.6.4-.1 1.8.5 2.2.6.4.1 1.4.5 2 .4z"/><path id="XMLID_270_" class="st2" d="M58.1 172.2c12.4-.8 24.7-1.8 36.9-4.1 10.4-2 20.7-4.5 30.9-7.7 10.1-3.1 20.2-6.6 29.7-11.1 3.7-1.8 7.4-3.6 11.2-5.4 7.1-4.5 14.2-9 21.2-13.6.5-.3-.1-1.9-.1-2.3 0 .1-.5-2.4-.9-2.1-4.5 4.2-9.5 7.7-15 10.6-5.3 3.3-10.9 6.1-16.6 8.5-9.7 4.2-19.6 7.9-29.7 11-10.2 3.1-20.7 5.8-31.2 7.6-4.3.7-8.5 1.3-12.8 2-8.1 1.1-16.2 1.8-24.3 2.1 0 0 .4 4.5.7 4.5z"/><path id="XMLID_269_" class="st2" d="M52.6 166.1l12.9-1.2c6.2-.9 12.3-1.9 18.4-3.1 10.1-1.9 20.2-4.7 29.9-8.2 7.9-2.8 15.6-5.9 23.2-9.4 6-2.5 11.7-5.5 17.1-9 5.4-3.1 10.7-6.5 15.8-10 .8-.5 1.5-1.7 2-2.5-.2.3.9-1.5.3-1.1-7.9 4.2-15.7 8.4-23.6 12.6-3.8 1.8-7.5 3.7-11.3 5.5-9.4 4.3-19 8.1-28.9 11.3-7.6 2.5-15.3 4.6-23.1 6.7-3.7 1.2-7.5 2-11.4 2.4-6.2 1.2-12.4 1.9-18.7 2.2-.6.1-1.3 1.2-1.6 1.6.2.1-1.2 2.2-1 2.2z"/><path id="XMLID_268_" class="st2" d="M47 164.6c6.1.6 12.2.3 18.2-.9 6.1-.7 12.1-1.9 18.1-3.5 12-3 23.9-7.3 35.5-11.7 8.1-3.1 16.2-6.2 24-10.1l10.2-5.1c7.7-4.3 15.7-7.7 24.2-10.2.6-.2 2.1-.8 2.5-1.3.1-.1.6-.7.1-.7-13.7 0-19.1-1.4-31.5 3.6-3.8 1.8-7.5 3.5-11.3 5.3-5.5 2.8-11 5.4-16.7 7.8-5.8 2.6-11.8 5-17.3 8.1-3 1.7-6 3.5-9 5.2-14.8 7.3-30.4 11.7-46.9 13.2-.7.2-.6.3-.1.3z"/><path id="XMLID_267_" class="st2" d="M55.5 177.6c8.5 0 16.9-.7 25.3-2.1 7.8-2.1 15.7-3.7 23.6-4.9 8.5-1.8 16.8-3.9 25-6.6 6.5-2.1 18.2-6.4 24.4-9.3 4.1-2 8.1-4 12.2-6 6.5-4.5 13.2-8.7 19.9-12.8.7-.4 1.1-2.2 1.4-2.9-.1.2.6-1.6 0-1.2-4.6 3.3-9.3 6.6-13.9 9.9-3.4 2-6.8 4-10.1 6-7.3 3.3-14.5 6.7-21.8 10-7.3 3-14.8 5.4-22.5 7.3-5.9 1.9-11.8 3.5-17.9 4.6-4 1.2-8.1 1.7-12.3 1.6-4.1.1-8.1.4-12.1 1.1-6.2 1-12.5 1.4-18.8 1.3-.3 0-1.2 1.8-1.2 1.9 0 .2-1.1 2.1-1.2 2.1z"/><path id="XMLID_266_" class="st2" d="M52.2 176.1c10.5-1.3 21-2.6 31.3-4.9 10.2-2.2 20.4-4.9 30.2-8.4 7.9-2.8 15.6-6 23.2-9.4 11.4-5.2 22-11.6 32.5-18.3.5-.3-1.5-4.2-1.5-4.3-3.5 2.2-7 4.4-10.4 6.6-5.3 3.2-10.8 6.2-16.5 8.9-9.3 4.6-19 8.9-28.8 12.2-7.9 2.7-15.9 5.1-24.1 7.1-12.3 3.1-24.9 4.7-37.5 6.2.2 0 1.1 4.3 1.6 4.3z"/></g></g></g><g id="XMLID_82_"><g id="XMLID_249_"><g id="XMLID_250_"><path id="XMLID_255_" class="st2" d="M226.6 88.6c-.1 0-.3-4.5-.6-4.5 0 0 .2 4.5.6 4.5z"/><path id="XMLID_254_" class="st2" d="M224 94.1c.2 0 1.2-1.8 1.2-1.9 0 0 1.1-1.9 1.2-1.9-.2 0-1.2 1.8-1.2 1.9 0 0-1.1 1.9-1.2 1.9z"/><path id="XMLID_253_" class="st2" d="M211.2 88.9c-3 1.4-6.1 2.7-9.1 4.1.1 0 2.1 4 2.4 3.8 3-1.4 6.1-2.7 9.1-4.1 0 .1-2-3.9-2.4-3.8z"/><path id="XMLID_252_" class="st2" d="M221.5 85.6c-3.1 1.3-6.2 2.6-9.3 4-.2.1-.3 2.2-.3 2.2s-.1 2.2-.2 2.3c3.1-1.3 6.2-2.6 9.3-4 .4-.2.4-2 .4-2.2 0 0 .2-2.4.1-2.3z"/><path id="XMLID_251_" class="st2" d="M215.1 80.9c-3 1.3-6.1 2.6-9.1 3.9.5-.2 1.8-.1 2.3-.1.7-.1 1.6 0 2.2-.3 3-1.3 5.9-2.5 8.9-3.8.5-.2-1.4-.1-1.1-.1-.9.1-2.3 0-3.2.4z"/></g></g></g><g id="XMLID_81_"><g id="XMLID_234_"><path id="XMLID_242_" class="st1" d="M236.8 75.4c-7.2-1.4-17.2 3-23.8 5.2-13.1 4.4-25.6 10-37.7 16.6.8-.5 2-.3 2.9-.8 7.5-4.1 15.2-7.9 23.1-11.2 4.5-1.9 9-3.6 13.7-5.1 6-2 12.8-5.2 19-4 .8.3 2-.9 2.8-.7z"/></g></g><g id="XMLID_79_"><g id="XMLID_228_"><path id="XMLID_232_" class="st1" d="M238.4 74.3c-3.3 1.9-6.6 3.7-10 5.6.8-.5 2-.3 2.9-.8 3.3-1.9 6.6-3.7 10-5.6-.8.5-2.1.4-2.9.8z"/></g></g><g id="XMLID_67_"><g id="XMLID_222_"><path id="XMLID_226_" class="st1" d="M240.9 77.2c-4.2 1.5-7.9 3.9-11 7.2.6-.6 2.3-.1 2.9-.8 3-3.3 6.7-5.7 10.9-7.1-.6.2-1.9.4-2.8.7z"/></g></g><g id="XMLID_66_"><g id="XMLID_216_"><path id="XMLID_220_" class="st1" d="M116.8 98l-2.7-.9c-1 .3-1.9.5-2.9.8 8.4.7 16.5 2.6 24.2 5.9.7.3 2.2-1.1 2.9-.8-7.8-3.2-15.8-5.2-24.2-5.9-.8-.1-2.1 1-2.9.8l2.7.9c.8.3 2.2-1.1 2.9-.8z"/></g></g></g></svg>