<svg id="Layer_1" xmlns="http://www.w3.org/2000/svg" viewBox="-363.8 243.2 154.8 74.8"><style>.st0{fill:#fff}</style><path class="st0" d="M-318.7 267.1c-.1-.5-.2-.9-.2-1.3 0-.2-.1-.3-.1-.5 0-.1 0-.3-.1-.4 0 .1 0 .3-.1.4 0 .2-.1.3-.1.5v.2c-.1.4-.1.8-.2 1.2-.1.4-.1.8-.2 1.2l-2 8.7h5.3l-2-8.7c-.1-.5-.2-.9-.3-1.3zM-268 272.8c-.1-1.2-.4-2.3-.8-3.4s-1-1.9-1.8-2.5c-.2-.1-.4-.3-.6-.4l-.6-.3c-.2-.1-.4-.1-.6-.1-.2 0-.4-.1-.6-.1-1.1 0-2 .4-2.9 1.3-.9.9-1.5 2-1.8 3.5 0 .1 0 .1-.1.2v.2c-.1.3-.1.5-.2.8 0 .3-.1.5-.1.8 0 .2 0 .4-.1.6v1.2c.1 1.5.4 2.8 1 4.1.6 1.3 1.4 2.2 2.5 2.6.1.1.3.1.4.1.1 0 .3.1.4.1.1 0 .3.1.4.1h.4c1.1 0 2.1-.4 2.9-1.3.9-.8 1.5-2 1.9-3.5.1-.3.1-.6.2-.8.1-.3.1-.6.1-.9 0-.2 0-.4.1-.6v-.5-.5c-.1-.3-.1-.5-.1-.7zM-337.6 270.1c-.3-1-.8-1.7-1.4-2.3-.4-.5-.9-.8-1.4-1-.5-.2-1.1-.3-1.6-.3h-.6l-1.3.1v14.3c.1 0 .1.1.2.1.2 0 .4.1.6.1h.6c.2 0 .5 0 .7-.1.5-.1 1-.2 1.6-.4.5-.2 1-.5 1.4-.9.7-.6 1.2-1.5 1.5-2.6.3-1.1.5-2.2.5-3.4v-.3-.3c-.3-1.1-.5-2.1-.8-3z"/><path class="st0" d="M-216.9 251.5l-70.3-5.3-68.6 5.3c-2.8.2-5.1 2.8-5.1 6.1v45.9c0 3.4 2.3 5.9 5.1 6.1l19.4 1.5c45.2-2.1 39.3-22.6 98.2-17.2-26 2.6-46.5 13.3-62.7 20l13.7 1.1 70.3-5.3c2.8-.2 5.1-2.8 5.1-6.1v-45.9c0-3.4-2.3-6-5.1-6.2zm-114.7 22.2v.6c-.1 1.9-.4 3.8-1 5.6-.6 1.8-1.5 3.3-2.8 4.4-1 .9-2 1.5-3.1 1.8-1.1.3-2.3.5-3.4.6h-1.9c-1.8-.1-3.6-.4-5.4-1.1v-24.1c1.9-.5 3.7-.9 5.7-.9h1.8c1.1.1 2.2.3 3.3.6 1.1.3 2.1.9 3 1.8 1.2 1.1 2 2.5 2.7 4.2.6 1.7 1 3.6 1.1 5.4v1.1zm17.3 13.1l-1-4.7h-7.6l-1 4.7h-5.3l6.7-26.1h6.7l6.8 26.1h-5.3zm27.9-.6l-5.1.6-7.5-13.5c-.2-.3-.4-.7-.6-1.2-.2-.4-.4-.9-.5-1.4-.1-.4-.2-.7-.3-1-.1-.3-.2-.7-.3-1 .1.8.2 1.7.2 2.6.1.9.1 1.8.1 2.6v12.9h-5.2V261l5.2-.4 7.4 13.4c.2.4.4.8.5 1.2.2.4.3.8.5 1.3.1.3.2.7.4 1.1.1.3.3.7.4 1 0-.3-.1-.6-.1-.8 0-.3-.1-.6-.1-.9 0-.5-.1-1.1-.1-1.7V260.6h5.1v25.6zm23.8-11.4c0 .3 0 .6-.1.8 0 .6-.1 1.2-.2 1.7-.1.6-.3 1.1-.4 1.6-.9 2.7-2.2 4.7-4 6.2-1.8 1.5-3.7 2.2-5.8 2.2h-.8c-.7-.1-1.4-.3-2.1-.5-.7-.3-1.4-.6-2-1-1.7-1.2-3.1-2.9-4.1-5.1-1-2.2-1.5-4.5-1.5-6.9v-1.1c0-.3.1-.7.1-1.1.1-.7.2-1.4.4-2.2.2-.7.4-1.4.7-2.1 1-2.3 2.3-4.1 4-5.3 1.7-1.2 3.4-1.9 5.3-1.9h.8c.3 0 .5.1.8.1.8.1 1.5.4 2.3.7.8.4 1.5.8 2.1 1.4 1.5 1.2 2.6 2.9 3.4 5 .8 2.1 1.2 4.3 1.2 6.5-.1.4-.1.7-.1 1zm23 11.4l-5.1.5-7.5-13.5c-.2-.3-.4-.7-.6-1.2-.2-.4-.4-.9-.5-1.4-.1-.4-.2-.7-.3-1-.1-.3-.2-.7-.3-1 .1.8.2 1.7.2 2.6.1.9.1 1.8.1 2.6v12.9h-5.2V261l5.2-.5 7.4 13.4c.2.4.4.8.5 1.2.2.4.3.8.5 1.3.1.3.3.7.4 1.1.1.3.3.7.4 1 0-.3 0-.6-.1-.8 0-.3-.1-.6-.1-.9-.1-.5-.1-1.1-.1-1.7V260.5h5.1v25.7zm15.7-15.3v5.6h-6.4v4.4h6.8l-.6 5.9h-11.5v-26.1h11.6l.5 5.7h-6.8v4.6h6.4z"/></svg>