<svg id="Layer_1" xmlns="http://www.w3.org/2000/svg" viewBox="0 0 258.7 184.5"><style>.st0{opacity:.5}.st1{opacity:.1091}.st1,.st2{fill:#fff}</style><g id="XMLID_893_" class="st0"><g id="XMLID_1147_"><g id="XMLID_635_"><g id="XMLID_636_"><path id="XMLID_648_" class="st1" d="M77.5 165.1c5.4-.8 3.8-.4 8.9-2l2.7-.9c1.7-.6 3.4-1.3 4.9-2.2 3.7-2.3 6.7-5.2 9.8-8.3.4-.4-1.3.2-1.1.2-.8.3-2.4.5-3 1.1-5.4 5.3-9.4 9.3-17.9 10.7-1.5.1-2.8 1.2-4.3 1.4z"/><path id="XMLID_647_" class="st1" d="M67.7 160.2c5.2-.4 9.9-1 14.5-3.5 4-2.2 7.1-5 10.4-8.1.9-.8-1.9-4.4-2.6-3.7-3.7 3.6-7.8 7.3-12.8 9.2-3.9 1.5-7.8 2-11.9 2.2-.1 0 1.1 2 1.1 2 .1.2 1 2 1.3 1.9z"/><path id="XMLID_646_" class="st1" d="M74.2 144.7c3.9-1.2 7.3-2.5 11-4.3 1.5-.7 3-1.6 4.3-2.6.7-.5 1.3-1 2-1.5 1.8-1.3 3.3-2.9 4.5-4.8-.2.3-1.8.7-2.1.8-.5.2-1.7.5-2.1 1-1.6 2.4-3.6 4.2-6.1 5.6-2.2 1.9-4.8 3.3-7.6 4.2l-3 1.2c.3-.2-1.3.5-.9.4z"/><path id="XMLID_645_" class="st1" d="M75.1 157.6c3-.6 6-1.1 9-1.4 1.9-.4 3.7-1 5.4-1.9 1.8-.8 3.6-1.7 5.2-2.7 2.1-1.4 3.9-3 5.6-4.8.9-.9-.4-1.9-1-2.4-.8-.6-1.6-1.4-2.5-.5-1.5 1.7-3.2 3.1-5.1 4.3-1.5.9-3.1 1.6-4.7 2.3-1.7.9-3.5 1.5-5.4 1.9-1.7 1.3-3.7 1.5-6 .6-.6 0-.5 4.5-.5 4.6z"/><path id="XMLID_644_" class="st1" d="M85.8 143.5c2.8-.9 5.4-1.8 8-3.2 1.2-.7 2.4-1.5 3.6-2.2 2.4-1.7 4.5-3.7 6.2-6 0 0-2.2-.7-2.1-.7-.1 0-2-.7-2.2-.5-1.7 2.4-3.8 4.4-6.2 6-3.5 2.5-7.4 4.3-11.5 5.5.2-.1 2 .7 2.2.7.2 0 1.5.6 2 .4z"/><path id="XMLID_643_" class="st1" d="M69.1 154.6c4.1-1.4 8.1-2.9 11.7-5.5 1.1-.9 2.2-1.8 3.4-2.8 1.1-.9 2-1.9 2.7-3.2.3-.4.3-1.8.4-2.2 0-.2 0-2 .2-2.3-2.7 3.5-5.9 6.2-9.8 8.3-2.5 1.4-5.2 2.5-7.9 3.2-.2.1-.3 2.2-.3 2.2-.1 0-.3 2.3-.4 2.3z"/><path id="XMLID_642_" class="st1" d="M79.9 165.4c3.5-1.2 6.7-2.4 9.8-4.5 3-2 5.5-4.4 8-7-.1.1-2.2-.6-2.2-.6-.1 0-2.1-.7-2.2-.5-2.5 2.6-5 5-8 7-3.1 2.1-6.2 3.3-9.8 4.5.4-.1 1.9.5 2.2.6.4 0 1.8.6 2.2.5z"/><path id="XMLID_641_" class="st1" d="M80.6 156.1c5-.3 9.5-1 14.1-3.2 4-2 6.6-5.5 9.7-8.7-.9.7-1.9 1.5-2.8 2.2 1.7-.9 3.3-1.7 5-2.6.6-.3.3-2.4.3-2.8 0-.1 0-2.1-.3-1.6-1.8 2.3-3.6 4.7-5.4 7 1.1-.9 2.2-1.8 3.4-2.7-4.5 2.2-9.1 4.7-13.9 6.2-3.6 1.1-6.9 1.5-10.6 1.7-.1 0 .3 4.5.5 4.5z"/><path id="XMLID_640_" class="st1" d="M67.3 150.7c1.4-.3 2.9-.6 4.3-1 3.5-1 6.7-2.5 9.7-4.4 1.9-1.2 2.1-1.3 3.8-2.7 2.4-1.9 2.5-2.4 4.8-5.3.4-.6 1.7-1.7 1.8-2.4 0-.3.1-.5-.3 0-6.2 7-12.7 10.3-21.4 12.2-.4.1-1.2 1.5-1.4 1.8-.1 0-1.1 1.7-1.3 1.8z"/><path id="XMLID_639_" class="st1" d="M69.2 148.5c4.6.4 8.4.6 12.8-1.3 2.5-1.2 4.9-2.6 7.3-4.2 2.5-1.9 4.7-4 6.7-6.4.4-.4 1.8-1.7 1.8-2.4 0-.4-.1-.6-.6-.2-1.3.9-2.6 1.7-3.9 2.6-1.4 1.5-3 2.9-4.7 4-2.8 2-5.6 4-8.5 5.8.3-.2.6-.3 1-.5-3.9.8-7.7 1.6-11.6 2.3.3 0-.8.2-.3.3z"/><path id="XMLID_638_" class="st1" d="M78.1 161.5c5.9-.3 11.8-1.2 17-4.1 3.9-2.2 6.9-5.4 9.9-8.6.7-.7 1.3-1.8 1.7-2.7 0 0 .5-1.2.1-.8-2 2.2-4.2 4.1-6.6 5.8-2 2-4.4 3.4-7.1 4.3-1.3.4-2.7.8-4 1.3-2.8.7-5.7 1.1-8.6 1-.3 0-1.2 1.8-1.3 1.9 0 0-1 1.9-1.1 1.9z"/><path id="XMLID_637_" class="st1" d="M71 159.5c3.5-1.2 6.7-2.4 9.8-4.4 1.3-.7 2.5-1.6 3.5-2.6 1.7-1.3 3.2-2.8 4.4-4.5.2-.2-.6-2-.7-2.2l-.8-2.1c-.9 1-1.8 2.1-2.7 3.1-1.6 1.5-3.3 2.9-5.2 4-3.1 2-6.3 3.2-9.8 4.4-.1.1 1.4 4.4 1.5 4.3z"/></g></g></g><g id="XMLID_1378_"><g id="XMLID_595_"><path id="XMLID_599_" class="st2" d="M86.9 113.6c3.6 3.1 7.4 5.8 11.6 8.1.2.1.7-.6.9-.5-4.2-2.3-8-5-11.6-8.1-.1-.1-.8.6-.9.5z"/></g></g><g id="XMLID_1392_"><g id="XMLID_589_"><path id="XMLID_593_" class="st2" d="M74.8 115.7c-.7 5.5-1.5 11.1-2.2 16.6 0-.2.8-.3.9-.5.7-5.5 1.5-11.1 2.2-16.6-.1.2-.9.3-.9.5z"/></g></g><g id="XMLID_1777_"><g id="XMLID_1012_"><g id="XMLID_583_"><path id="XMLID_587_" class="st2" d="M17.8 96.1c3.8-22.8 21.9-37.3 41.6-46.8 8.3-4 17.5-7 26.7-7.3 7.7-.3 15.1 2 22.1 4.9 5.2 2.1 11.6 4.2 15.7 8.2 3.5 3.5 5 8.5 5.6 13.3 2.3 18.6-5.3 36.7-15.9 51.7-5.6 7.9-13.1 15.8-20.9 21.4-8.6 6.2-20.2 5.8-30.4 5.7-14.8-.1-30.9-3.7-39.5-16.9-3.9-5.9-7.1-13.6-8.1-20.6-1-7 1.5-15.2 4.6-21.4-.3.6-2.6.2-2.9.8-3 5.9-5.5 13.9-4.7 20.6.8 7.4 4.2 15.3 8.2 21.5 8.8 13.4 25.5 16.9 40.5 16.8 9.4 0 19.2-.3 28.1-3.5 9.5-3.4 17.2-12.3 23.6-19.7 13-14.8 22-35.1 20.6-55-.4-5.6-1.7-11.5-5.8-15.6-4.9-4.9-13.4-7.5-19.8-9.8-7.6-2.8-15.3-4-23.4-2.7-4.3.7-8.5 1.8-12.6 3C46 51.5 19.5 69.6 15 96.8c-.1-.3 2.7-.3 2.8-.7z"/></g></g><g id="XMLID_1021_"><g id="XMLID_577_"><path id="XMLID_581_" class="st2" d="M25.1 87.4C29.9 75 39.9 64.8 51.6 58.6c7.5-4 15.8-6.7 24-9.1 10.8-3.1 20.9-1.6 31.3 2 7.8 2.7 12.4 10 14 18 .9 4.6-.5 9-1.5 13.5-1.2 5.1-2.4 10.2-3.6 15.4-2 8.4-2.6 18-9.3 24.2-3.6 3.3-7.6 6.3-11.4 9.5-4.1 3.4-8.2 7.9-13.3 9.6.9-.3 1.9-.5 2.8-.8-9.3 1.6-19.9-.1-29.1-2-8.1-1.6-19-3.6-25.6-9-5.5-4.6-6.3-12.4-7.2-19-1.1-8.1-.2-15.9 2.4-23.5-.2.5-2.7.2-2.9.8-3.6 10.5-3.1 20.6-.9 31.4 1 4.6 2.5 8.7 6.4 11.6 4.6 3.5 11.4 5 16.8 6.6 6.3 1.7 12.6 2.9 19.1 3.6 5.8.6 12.4 1.5 18.1.3 7.2-1.5 12.3-7.2 17.7-11.7 4.3-3.5 9.5-6.9 12.9-11.4 3.9-5.1 4.4-13 5.8-19.1 2.8-11.8 8.7-25.3 3.3-37-2.4-5.2-4.9-9.2-10.4-11.4-6-2.3-12.7-4.1-19.1-4.4-7.3-.4-14.2 1.8-21.1 4-20.5 6.5-40.5 16-48.8 37.4.4-.5 2.8-.2 3.1-.7z"/></g></g><g id="XMLID_1023_"><g id="XMLID_571_"><path id="XMLID_575_" class="st2" d="M77.3 91.6c-2.7-.8-9.6-1.2-10.6 2.7-1.4 5.3 6.4 6.7 10 5.8 1.3-.3 3.2-.6 4.1-1.7 2-2.5-1.3-5.1-3.1-6.3-2-1.3-3.7-1.9-6-1.3-1.6.4-3.3.7-4.1 2.4.2-.6 2.6-.2 2.9-.8.4-.9 1-1.4 1.9-1.8-.8.2-1.6.4-2.5.7.2 0 .4-.1.5-.1-.1 0-.3.1-.4.1 2.6-.3 5.6 1.7 7.3 3.5.8.9 1.4 2.1 1.1 3.4-.2.6-.6.9-.8 1.4-.7.4-.5.4.4.1h-.8c-2.4-.3-5.1-.5-6.7-2.6-1.7-2.3-.9-5 1.8-5.9-.9.3-1.9.5-2.8.8 1.8-.4 3.4 0 5.1.5.6.1 1.9-1.1 2.7-.9z"/></g></g><g id="XMLID_1033_"><g id="XMLID_565_"><path id="XMLID_569_" class="st2" d="M71.7 90.8c-7.3-11.4-22.1-19-22.6-33.9 0 .2-2.9.5-2.9.8.5 14.9 15.3 22.5 22.6 33.9.2.3 2.7-1 2.9-.8z"/></g></g><g id="XMLID_1035_"><g id="XMLID_558_"><path id="XMLID_563_" class="st2" d="M76 89.7c-.3-6.6 2.2-12.9 3.7-19.2 1.6-6.7 2.9-13.4 4.1-20.2-.1.4-2.8.3-2.9.8-1.1 6.8-2.5 13.5-4.1 20.2-1.5 6.3-4 12.6-3.7 19.2 0-.2 3-.6 2.9-.8z"/></g></g><g id="XMLID_1036_"><g id="XMLID_552_"><path id="XMLID_556_" class="st2" d="M78.5 91.5c12.4-7.9 24.8-15.8 37.2-23.8-.8.5-2.1.3-2.9.8-12.4 7.9-24.8 15.8-37.2 23.8.8-.6 2-.3 2.9-.8z"/></g></g><g id="XMLID_1037_"><g id="XMLID_497_"><path id="XMLID_550_" class="st2" d="M69 98c12.9 3.3 25.9 3.2 38.8 0 .4-.1 3.1-.8 2-.6-12.5 3.2-25.4 3.1-37.9-.2-.9-.2-2.1 1-2.9.8z"/></g></g><g id="XMLID_1039_"><g id="XMLID_480_"><path id="XMLID_494_" class="st2" d="M74.6 99.7c9.6 10.3 22.3 16.6 36.3 18.2.9.1 2-.9 2.9-.8-14-1.6-26.7-7.9-36.3-18.2-.3-.3-2.6 1.2-2.9.8z"/></g></g><g id="XMLID_1055_"><g id="XMLID_472_"><path id="XMLID_477_" class="st2" d="M71.3 100.8c-.3 5.4 4.5 11.5 6 16.7 1.8 6 2.2 12 .7 18 .1-.5 2.8-.3 2.9-.8 1.6-6 1.1-12-.7-18-1.6-5.2-6.3-11.3-6-16.7 0 .3-2.9.4-2.9.8z"/></g></g><g id="XMLID_1112_"><g id="XMLID_433_"><path id="XMLID_470_" class="st2" d="M65.9 102.4c-6.1 12.2-13.5 23.5-22.3 33.9.5-.6 2.4-.1 2.9-.8 8.7-10.4 16.2-21.7 22.3-33.9-.3.6-2.6.1-2.9.8z"/></g></g><g id="XMLID_1119_"><g id="XMLID_394_"><path id="XMLID_432_" class="st2" d="M63.2 98.8c-5.1 5.1-13.8 7.2-20.4 9.8-8.1 3.2-16.4 6.2-24.6 9 .7-.2 1.9-.4 2.8-.7 7.7-2.6 15.3-5.4 22.9-8.4 7.1-2.8 16.7-5 22.2-10.5-.6.7-2.3.2-2.9.8z"/></g></g><g id="XMLID_1126_"><g id="XMLID_389_"><path id="XMLID_393_" class="st2" d="M68.7 93.7c-14.9-2-29.4-5.9-43.3-11.8-.7-.3-2.2 1.1-2.9.8 13.9 5.9 28.4 9.8 43.3 11.8.9.1 2-.9 2.9-.8z"/></g></g><g id="XMLID_1133_"><g id="XMLID_384_"><path id="XMLID_388_" class="st2" d="M26.2 138.7c17.7 14.9 44.2 26.8 67.5 20.3 20.3-5.6 38.5-25.9 44.9-45.7 4.7-14.6 2.6-30.3-4.2-43.8-.1-.2-2.8.9-2.9.8 6.8 13.5 8.8 29.2 4.2 43.8-3.7 11.4-11.1 21.9-19.7 30.1-5.9 5.6-12.9 11.2-20.6 14.1-1.4.5-2.8 1-4.2 1.3-.7.2-.4.1 1-.3-1 .2-2 .4-3 .5-4.3.6-8.6.2-12.9-.4-17.4-2.6-33.7-10.2-47.2-21.5-.4-.3-2.4 1.2-2.9.8z"/></g></g><g id="XMLID_1040_"><g id="XMLID_379_"><path id="XMLID_383_" class="st2" d="M105.2 43.6c2.8-4.1 8.3-5.4 12.7-7.1 6-2.4 12.1-4.6 18.3-6.6 7.4-2.5 14.8-4.8 22.6-5.4 6.5-.4 13 0 19.5.6 19.1 1.6 39.2 9.7 47.1 28.6 1.9 4.5 2.3 9 6.9 11.7 4.2 2.5 7.2 4.2 9 8.9 3.5 9.1 6.2 22.9-5.2 26.9-4 1.5-6.4 2.8-8.3 6.8-2.2 4.6-4.2 8.3-8 11.9-3.4 3.2-6.9 6-9.8 9.7-2.9 3.9-5.3 8.2-8.9 11.5-5.8 5.3-14.3 5.9-21.9 6.8-6.3.8-12.7 1.3-19.1 1.2-13.3-.2-25.7-6.6-37.9-11.2-.8-.3-2.2 1.1-2.9.8 12.8 4.9 25.6 11.3 39.6 11.2 11 0 22.4-1.2 33.1-4 2.3-.6 4.7-1.2 6.8-2.2 5.7-2.6 8.8-7.6 12.3-12.6 3.3-4.7 7.4-8.2 11.5-12.1 4.2-3.9 5.9-8.2 8.5-13.1 3-5.4 8.9-4.4 12.8-8.4 4.6-4.8 3.2-12.1 1.9-17.9-1.1-4.9-2.4-10-6.7-13-2-1.4-4.4-2-6.3-3.7-2.4-2.2-2.9-5.4-3.9-8.3-3.7-10.5-12.1-18.7-21.9-23.8-11.3-5.9-24.2-7-36.7-7.4-9.9-.3-19.1 1.4-28.4 4.2-7.1 2.1-14.1 4.5-21 7.1-5.9 2.2-15 4-18.8 9.5.7-.4 2.7 0 3.1-.6z"/></g></g><g id="XMLID_1114_"><g id="XMLID_374_"><path id="XMLID_378_" class="st2" d="M233.7 79.4c-.5 2.3-.6 5.9 1.3 7.7 1.3 1.2 3 .4 4.4.1 1.9-.5 3.3-1.4 3.4-3.6.1-2.8-2.2-4.8-4.1-6.5-.1-.1-2.8.6-2.9.8-.4.8-.5 1.4-.3 2.3 0 0 2.9-.7 2.9-.8-.2-.9-.1-1.5.3-2.3-1 .3-1.9.5-2.9.8 1.6 1.4 3.3 2.9 3.9 5 .6 2-.1 3.9-2 4.8.1 0 .3-.1.4-.1-.2 0-.3.1-.5.1.8-.2 1.7-.4 2.5-.7-4.1.5-4.1-5.7-3.6-8.3 0 .3-2.7.2-2.8.7z"/></g></g><g id="XMLID_1115_"><g id="XMLID_452_"><g id="XMLID_453_"><path id="XMLID_468_" class="st1" d="M140.4 144.7c2.8 1.5 5.2 2.7 8.1 3.7 4.7 1.7 9.7 2 14.7 2 7.7-.1 15.2-2.1 22.3-4.9 2.9-1.1 5.6-2.4 8.3-3.8 4.4-2.3 8.9-4.3 12.8-7.4 4.2-3.3 7.9-7 11.2-11.1 4-5 6.4-10.5 8.7-16.4.1-.2-2.3.5-2.2.5-.4.2-1.8.4-2 1-.9 3.1-2.3 6-4.2 8.7-1.9 2.8-3.9 5.5-6.2 8-4.1 4.4-8.9 7.9-13.5 11.6-1.9 1.6-3.8 3-5.8 4.4-8.2 4.9-17 7.5-26.2 7.7-3.3.1-6.5-.1-9.8-.7-4.2-.9-8.2-2.5-11.9-4.7-.4-.2-1.9.5-2.2.6 0-.1-2.2.8-2.1.8z"/><path id="XMLID_466_" class="st1" d="M131.2 137.5c2.7 2.1 5.6 4 8.6 5.6 3.4 1.8 7.4 2.5 11.2 2.9 7.3.7 15.1-1.2 21.8-3.7 8.5-3.2 16.4-7.9 23.3-13.7 3-2.5 5.7-5.2 8.3-8.1 1.7-1.9 3.3-3.9 4.7-6.1 1.6-2.9 3.3-5.7 4.9-8.6.6-1.1-.6-2.4-1.5-3-1.1-.7-2.1.1-2.8 1-2.5 3-4.8 6.2-6.8 9.5-1.3 2.2-2.9 4.3-4.6 6.2.3-.4.7-.7 1-1.1-1.4 1.6-2.9 3.1-4.3 4.7.3-.4.7-.7 1-1.1-3.6 3.3-7.2 6.4-11.3 9.2-8.7 5.9-19.4 10.2-30 10.3-4.4 0-8.6-.6-12.8-2-1.7-.5-3.3-1.2-4.9-2.1-2.7-1.2-5.5-2.4-8.2-3.6.3.2 1 1.7 1.2 1.9.3.3.7 1.4 1.2 1.8z"/><path id="XMLID_465_" class="st1" d="M132.9 125.6c4.8 2.1 9.4 3.9 14.6 4.8 3.6.6 7.1.8 10.7.5 8.5-.6 16.3-3.3 24.1-6.8 6.9-3.1 13.2-7.3 19-12.1 2.7-2.2 5.2-4.8 7.6-7.4 2.2-2.5 4.2-5.2 6-8.1 1.8-3 3.2-6.2 4-9.6 0-.1-2.2.7-2.2.7-.4.2-1.8.5-2 1.1-.9 3.2-2.2 6.3-4 9.1-1.7 2.9-3.7 5.6-6 8.1-2.3 2.3-4.7 4.6-7 6.8-2.6 2.2-5.4 4.3-8.2 6.2-10.4 6.8-23 11.3-35.5 9.9-6-.6-11.4-2.6-16.8-5-.4-.2-1.9.7-2.1.8-.2.1-2.1 1.1-2.2 1z"/><path id="XMLID_464_" class="st1" d="M138.4 134.7l5.4.9c-1.3-.7-2.6-1.5-3.8-2.2 1.2 2.5 3 4 5.5 4.6 1.9.8 3.8 1.4 5.9 1.6 4 .5 8 .4 11.9-.7 2.2-.5 4.4-1.3 6.4-2.4 1.5-.5 2.9-1 4.4-1.6 2.2-1.1 4.4-2 6.6-2.9 2.3-.9 4.6-2 6.8-3.2 7.2-4 13.8-8.7 19.5-14.6 1.9-2 4.4-5 6-7.4l.6-.9c1.7-2.4 2.7-5.1 2.9-8.1.6-3.4-7.4-2.2-8.7-1.8-2.4.8-5.1 1.4-7.4 2.6-1 1.7-2.3 3.2-3.7 4.5-.9.9-1.8 1.9-2.8 2.8-4.2 4.3-9.5 8-14.6 11.1-2.4 1.5-5 2.9-7.5 4.2-1.6.8-3.4 1.3-4.9 2.4-.9.9-1.9 1.7-2.8 2.6-1.7.4-2.7 1.3-3.2 2.7-.3.8-.6 1.5-.9 2.3-.6 1.6-1.3 3.2-2.2 4.8.5-.5 1-1 1.4-1.5-2.7 1.5-5.6 2-8.7 1.4-3.5-.6-7-1.4-10.4-2.3 1.2.7 2.5 1.4 3.7 2.2-1.6-1.8-3.3-3.6-4.9-5.3.2 0-.9 4.2-.5 4.2z"/><path id="XMLID_463_" class="st1" d="M140.1 123.3c5.1 2.3 10 4.1 15.4 5.4 8.8 2.1 17.6 1.3 26.1-1.3 10-3 19.1-8.6 27.1-15.2 2.6-2.2 5.3-4.8 7.5-7.3s4.2-5.2 6-8.1c1.8-3 3.1-6.1 4.1-9.4.1-.3-4.2-1.7-4.4-1.3-1 3.3-2.4 6.4-4.1 9.4-2.6 4.3-5.7 8.2-9.3 11.6-4.9 4.8-10.5 9-16.5 12.4-6 3.4-12.6 6.2-19.4 7.6-4.9 1.2-9.9 1.5-14.9.9-4.8-.6-9.4-1.9-13.8-3.9-1-.4-2.1-.7-3.1-.9 0 .1-1.1-.1-.7.1z"/><path id="XMLID_461_" class="st1" d="M128.2 135.2c3.8 1.9 7.5 3.6 11.7 4.5 4.3.8 8.6 1.1 13 .8 7.8-.5 15.6-2.8 22.6-6.3 7.8-3.9 14.9-8.8 21.2-14.8 3.6-3.4 6.9-7.5 9.5-11.8 2.1-3.6 2.7-5.6 3.9-9.6.3-1 .4-2.2.4-3.2 0 0 0-1.2-.2-.8-.6 1.7-1.2 3.4-1.9 5.1-1.6 2.8-3.3 5.6-4.9 8.3-2.4 3.5-5.5 6.5-8.6 9.3-5.7 5.2-12.3 9.9-19.3 13.1-7.8 3.6-16.1 6.2-24.7 6.3-4.2.1-8.4-.5-12.5-1.6-3.5-.9-6.5-2.3-9.7-3.9-.1 0-.4 2.3-.4 2.2.1.2-.4 2.3-.1 2.4z"/><path id="XMLID_460_" class="st1" d="M134.4 144.5c3.1 1.8 5.3 3.1 8.8 4.1 2 .6 4.1 1.2 6.2 1.7 8 1.6 16.2 1.2 24-.9 10.9-2.9 21-8.6 29.6-15.9 2.6-2.2 5.2-4.7 7.5-7.3 2.2-2.5 4.2-5.2 6-8.1 1.7-2.8 3-5.8 4-9 0-.1-4.2-1.5-4.4-1.1-1 3.2-2.3 6.1-4 9-2.6 4.3-5.7 8.2-9.3 11.7-4.3 4.2-9.2 7.8-14.3 11-14.5 9-33.8 14.8-49.9 5.9-.9-.5-2.2-.6-3.1-.8.2-.1-1.5-.5-1.1-.3z"/><path id="XMLID_459_" class="st1" d="M148 135.3c8.9 2.9 18.3 5.3 27.8 4.8 9.2-.5 18.2-4.2 26.1-8.8 6.9-3.9 13.3-8.6 18.8-14.3 2.6-2.7 5-5.7 7-8.9 1-1.7 1.9-3.5 2.9-5.2.7-2.1.9-4.3.5-6.6 0-.7-.3-.8-.8-.4-.8.6-1.2 2.3-1.5 3.2-.5 1.4-.9 2.8-1.4 4.2-.6 1.2-1.2 2.3-1.9 3.5-1.4 2.5-3.3 4.7-5.4 6.7-1.5 1.9-3.3 3.6-5.2 5-6 5-12.8 9.2-20 12.1-6.8 2.7-14 4.8-21.2 5.6-1.8.1-3.5.3-5.3.4-3.5.3-7 0-10.4-.8-2.4 0-4.5-.6-6.6-1.6-1.8-.6-3.4-1.6-4.8-2.9-.4-.3.2 1.5.3 1.6.1.4.5 2.2 1.1 2.4z"/><path id="XMLID_458_" class="st1" d="M130.3 130.5c6.2 3 12.6 5 19.5 5.4 9.4.5 19-1.8 27.5-5.9 6.4-3.1 12.4-7 17.9-11.5 3.9-3.1 7.7-6.9 10.7-10.9 1-1.4 1.9-2.8 2.9-4.1 2.5-4.1 4.4-8.4 5.8-13 .6-1.5-1.5 1-1.5 1.1-.9 1.3-1.8 2.5-2.7 3.8-.8 1.5-1.6 2.9-2.4 4.4-2.2 3.5-5 6.8-7.9 9.8-1.1 1.2-2.4 2.4-3.7 3.5-2.4 2.3-5.1 4.3-7.9 5.9-2.6 2.2-5.4 4-8.4 5.5-2.3 1.3-4.6 2.4-7 3.3-6.2 2.4-12.8 4-19.5 4.1-3.6.1-7.2-.2-10.7-1.2-3.4-.9-6.5-2.2-9.7-3.8-.8-.3-3 3.5-2.9 3.6z"/><path id="XMLID_457_" class="st1" d="M132.6 125.5c3 2.3 5.5 4.4 9.3 5.4 2.8.7 5.5 1.1 8.4 1.3 9.3.7 18.6-1.6 27.2-5.2 8.2-3.5 15.9-8.2 22.7-14 3.9-3.2 7.3-7 10.3-11 3.2-4.2 5.4-8.7 7.7-13.5.6-1.2-.8-2.9-2.1-2.7-6.1.7-5.9-.6-8.4 3.3-2.1 3.4-4.7 6.6-7.4 9.6-5.4 6-11.9 11.7-18.7 16.1-2.8 1.8-5.6 3.4-8.6 4.9-3.3 1.4-6.5 2.9-9.8 4.5-1.3.7-2.7 1.3-4.1 1.7-4.1 1.4-8.3 2.4-12.7 2.4-.9 0-1.7-.1-2.6-.1-2.3-.8-4.6-1.9-6.7-3.1-.4-.2-1.9.2-2.3.2-.1 0-2 .4-2.2.2z"/><path id="XMLID_455_" class="st1" d="M145.2 141c1.8 1.1 3.7 1.9 5.6 2.6 1.7.7 3.4 1.1 5.2 1.3 5.1.9 10.5 1.3 15.7.8 8.7-.8 17.2-3.3 25.1-7 7.1-3.3 14.1-7.6 19.9-13.1 3.7-3.5 7.2-7.3 9.7-11.7l2.4-4.5c.8-2.4 1.3-4.9 1.5-7.4.2-.9-1.3.2-1.3.2-.8.6-1.9 1.3-2.3 2.3-2.7 6.3-5.8 11.9-10.4 17-2.3 2.5-4.8 4.8-7.4 6.9-3.2 2.7-6.7 5-10.4 6.9-7 4.9-14.9 7.7-23.7 8.5-3.3.3-6.7.2-10-.4-6.1-1-11.7-3.4-17.2-6.2-.5-.3-2.7 3.6-2.4 3.8z"/><path id="XMLID_454_" class="st1" d="M130 140c3.7 2.1 7.5 3.8 11.7 4.6 3.4.7 6.9.9 10.4.9 9.5 0 18.9-3.2 27.2-7.6 7.6-4 14.6-9.2 20.6-15.4 1.8-1.9 3.6-3.8 5.1-6 .9-1.4 1.9-2.8 2.8-4.2 1.7-2.8 3-5.9 3.8-9.1.2-.7-.7-2.4-1-3.1 0 .1-.5-1.5-.7-.9-.6 1.6-1.1 3.1-1.7 4.7-1 2.3-2.2 4.5-3.7 6.6-1.3 2.1-2.8 4.1-4.7 5.8-1.5 2-3.2 3.8-5.2 5.4-6.4 5.8-13.7 10.7-21.7 14.2-7.1 3.1-14.7 5.2-22.5 5.3-3.5.1-7-.3-10.4-.9-4.2-.8-8-2.5-11.7-4.6.1 0 .6 2.1.6 2.2.4.3.7 1.8 1.1 2.1z"/></g></g></g><g id="XMLID_1116_"><g id="XMLID_435_"><g id="XMLID_436_"><path id="XMLID_449_" class="st1" d="M162.8 120.2c3.5-2.1 6.8-4.2 9.8-6.9 2.9-2.6 1.6-1.4 5.1-5.4-.2.2-2 .6-2.2.6-.5.2-1.7.4-2.1.9-2.5 3.2-5.4 6-8.7 8.3-1.9 1.6-4 2.9-6.3 4 1.4-.8 3.1-.8 4.4-1.5z"/><path id="XMLID_448_" class="st1" d="M159.1 97.5c1.4-.9 2.7-1.8 4-2.8 2.5-2 4.8-4.3 6.9-6.9-.3.3-1.8.7-2.1.8-.5.2-1.6.5-2.1 1-3 3.8-6.7 7-10.8 9.6 1.2-.8 2.9-.9 4.1-1.7z"/><path id="XMLID_447_" class="st1" d="M166.7 98c2.1-1.2 4-2.7 5.7-4.4 1.9-1.6 3.6-3.3 5-5.2 0 0-2.2-.7-2.1-.7-.1 0-2-.7-2.2-.5-1.5 1.9-3.2 3.7-5 5.2-1.7 1.7-3.6 3.1-5.7 4.4.1-.1 2.1.6 2.2.7.1 0 1.9.7 2.1.5z"/><path id="XMLID_446_" class="st1" d="M149.9 109.2c2.1-1.3 4.1-2.8 5.8-4.5 1.9-1.6 3.6-3.3 5.1-5.3.3-.4.3-1.8.4-2.2 0-.2 0-2 .2-2.3-1.5 1.9-3.2 3.7-5.1 5.3-1.8 1.7-3.7 3.2-5.8 4.5-.2.2-.3 2.1-.3 2.2 0 .2-.1 2.2-.3 2.3z"/><path id="XMLID_445_" class="st1" d="M164.8 117.1c2.5-2.1 4.8-4.4 6.9-6.9-.1.1-2.2-.6-2.2-.6-.1 0-2.1-.7-2.2-.5-2 2.5-4.3 4.9-6.9 6.9.1-.1 2.1.5 2.2.5.1.1 2 .8 2.2.6z"/><path id="XMLID_443_" class="st1" d="M151.8 114.2c2.1-1.3 4.1-2.8 5.8-4.5 1.9-1.6 3.6-3.3 5.1-5.3.2-.2-.6-2.1-.7-2.2l-.8-2.1c-1.5 1.9-3.2 3.7-5.1 5.3-1.8 1.7-3.7 3.2-5.8 4.5-.4.3 1.8 4.1 1.5 4.3z"/><path id="XMLID_442_" class="st1" d="M143.7 119.6c3.2-.8 6.2-1.9 9.1-3.4 2.2-1 4.2-2.3 6.1-3.8 2-1.4 3.9-2.9 5.6-4.7 2.3-2.3 4.3-4.8 6-7.6.2-.3-.9-1.9-1-2 0 .1-1.3-2-1.4-1.8-1.7 2.8-3.7 5.3-6 7.6-1.7 1.7-3.5 3.3-5.5 4.6-1.9 1.5-3.9 2.7-6.1 3.8-2.9 1.5-5.9 2.6-9.1 3.4.2-.1 1.8 4 2.3 3.9z"/><path id="XMLID_441_" class="st1" d="M151.2 116.9c4.3-1.2 8.4-2.9 12.2-5.1 2.1-1.1 4.1-2.3 5.9-3.8 1.3-1.1 2.6-2.2 3.8-3.3 2.6-2.4 4.8-5.1 6.5-8.2.2-.3-2.3-.5-2.2-.5-.4 0-1.9-.4-2.3 0-2 2.3-4.1 4.6-6.1 6.8-1.7 1.5-3.5 2.8-5.4 4-1.2.9-2.5 1.7-3.9 2.3-2.7 1-4.6 2.9-5.7 5.7l3.1-3.1c-1.8.2-3.7.4-5.5.7-.3 0-.4 2.2-.4 2.2s-.1 2.3 0 2.3z"/><path id="XMLID_440_" class="st1" d="M156.7 115.4c3.2-.8 6.3-1.9 9.3-3.4 3-1.5 5.7-3.2 8.3-5.3 3.8-3.1 6.7-6.9 9.7-10.9.3-.4-.1-1.9-.1-2.3l-.5-2.2c-1.8 2.8-3.9 5.3-6.4 7.5-2.1 2.5-4.5 4.6-7.3 6.2-1.4.8-2.9 1.6-4.3 2.4-3 1.5-6.1 2.6-9.3 3.4-.4.2.7 4.5.6 4.6z"/><path id="XMLID_439_" class="st1" d="M143.6 108.8c4.4-2.1 8.8-4.2 12.6-7.4 2-1.6 3.8-3.4 5.6-5.3 2.6-2.9 4.5-5.7 6.6-9.1.2-.3-.5.5-.5.5-.7.8-1.3 1.7-1.9 2.6-.9 1.3-1.8 2.7-2.8 4 .7-.9 1.5-1.9 2.2-2.8-3.1 3.7-6.6 6.9-10.6 9.5-2.7 1.7-5.5 3.1-8.4 4.4-.5.2-1.1 1.4-1.4 1.8-.3.3-1 1.6-1.4 1.8z"/><path id="XMLID_438_" class="st1" d="M149.5 107.4c2.4-.6 4.7-1.4 6.9-2.4 2.3-.8 4.4-2.1 6.2-3.8 2.2-1.8 4.1-3.7 6-5.9-.7.7-1.4 1.3-2 2 3.6-2.9 6.8-6.1 9.8-9.6.3-.3-1.5 0-1.6 0-.4.1-2.5.1-2.7.7-.8 1.9-1.5 3.8-2.3 5.7.5-1.1 1.1-2.1 1.6-3.2-1.7 2.1-3.4 4.1-5.1 6.2l2.5-2.5c-4.3 4.1-9.1 7.3-14.5 9.8-2.9 1.5-5.9 2.6-9.1 3.5-.5.2 1.4.1 1.1.1 1.1-.3 2.2-.3 3.2-.6z"/><path id="XMLID_437_" class="st1" d="M154.1 120.9c3.2-.9 6.3-1.8 9.4-3.2 2.5-1.1 4.3-2.3 6.4-3.9 4.9-3.5 8.4-7.8 11.9-12.6.7-.9 1.5-2 1.9-3 .2-.5.2-.6-.2-.1-3.4 4.4-6.9 8.7-11.5 12-1.9 1.5-4 2.7-6.3 3.5-2.8 1.7-5.9 2.8-9.1 3.5-.3.1-1.1 1.7-1.2 1.9-.2.1-1 1.8-1.3 1.9z"/></g></g></g><g id="XMLID_1117_"><g id="XMLID_417_"><g id="XMLID_418_"><path id="XMLID_430_" class="st1" d="M85.8 90.4c1.2-2.4 2.6-4.7 4.4-6.7-.1.2-2 .6-2.2.7-.4.1-1.8.4-2.1.9-1.7 2.1-3.2 4.3-4.4 6.7.2-.3 1.9-.7 2.1-.8.2-.1 2-.5 2.2-.8z"/><path id="XMLID_429_" class="st1" d="M80.2 67.6c.6-1.5 1.3-2.9 1.9-4.4-.1.2-2 .8-2.1.9-.2.1-1.9.6-2.1.9-.6 1.5-1.3 2.9-1.9 4.4.1-.2 2-.8 2.1-.9.2-.1 2-.6 2.1-.9z"/><path id="XMLID_428_" class="st1" d="M87.5 68.2c.8-1.5 1.6-2.9 2.4-4.4-.1.2-4.2-1.6-4.4-1.3-.8 1.5-1.6 2.9-2.4 4.4.1-.2 4.2 1.6 4.4 1.3z"/><path id="XMLID_427_" class="st1" d="M71.3 78.9c.5-1.3 1.1-2.6 1.6-3.9.6-1.4 0-3.1.6-4.5-.5 1.3-1.1 2.6-1.6 3.9-.6 1.4-.1 3.2-.6 4.5z"/><path id="XMLID_426_" class="st1" d="M74.7 74.9c.8-2.8 1.9-5.6 3.2-8.2.2-.5-1.1 1-.9.7-.6.8-1.5 1.7-1.9 2.6-1.4 2.7-2.4 5.6-3.3 8.5.2-.5 1.1-1.4 1.4-1.8.5-.5 1.3-1.2 1.5-1.8z"/><path id="XMLID_425_" class="st1" d="M73.1 83.7c.5-1.2 1.1-2.4 1.6-3.6.2-.3-.6-1.9-.7-2.2 0-.1-.9-1.9-.8-2.1-.5 1.2-1.1 2.4-1.6 3.6-.1.3.6 1.9.7 2.2.1.1.9 1.9.8 2.1z"/><path id="XMLID_424_" class="st1" d="M74.6 83.6c-.2-.1-.3-.1-.5-.2.8 1.3 1.6 2.6 2.4 3.8 1.7-4 3.5-7.3 5.9-10.9.2-.3-.9-1.9-1-2 0 .1-1.2-2-1.3-1.8-2.4 3.6-4.2 6.9-5.9 10.9-.2.4.6 1.2.8 1.5.4.7.9 1.6 1.5 2.2l.3.3.1.1c.1 0 .2-.1.3-.1-.4.1-2.3-3.9-2.6-3.8z"/><path id="XMLID_423_" class="st1" d="M84.6 80.2c-.3.2-.7.2-1 0-.1 1.5-.1 2.9-.2 4.4 1.1-2.3 2.2-4.6 3.3-7-.6.8-1.2 1.5-1.7 2.3 2.4-2.7 4.7-5.4 7-8.2.3-.4-1.5.1-1.6.1-.6.2-2.3.4-2.6 1L84.2 80c.7-.9 1.5-1.9 2.2-2.8-.9.9-1.8 1.9-2.7 2.8-.4.4-.7 4.3-.3 4.5.3.3.6.3.8 0 .3-.1.3-2.1.3-2.2 0 .2.1-2.1.1-2.1z"/><path id="XMLID_422_" class="st1" d="M88.8 79c-.2 0-.5-.1-.7-.1l.6 4.5c2.5-3.8 5.1-7.6 7.6-11.5.3-.4-.1-1.9-.2-2.3l-.4-2.2c-1.6 1.8-3 3.6-4.3 5.6-1.9 2.9-1.1 1.7-3.3 5.9-.2.4.2 4.4.6 4.5.2 0 .5.1.7.1-.1 0-.3-2.3-.3-2.2 0-.1-.2-2.3-.3-2.3z"/><path id="XMLID_421_" class="st1" d="M78.4 75.5c-.1.1-.3.2-.4.4 1.5-.1 3-.3 4.5-.4.5-2.2 1.3-4.3 2.5-6.1 1.1-2.1 2.3-4.1 3.6-6 .1-.1-2.3 0-2.3 0-.4 0-2 0-2.2.4-1.4 1.9-2.6 3.9-3.6 6-1.2 2-2.1 4-2.9 6.2 0-.1 3.8-.2 4-.3.9-.2.7 0 1.2-.6-.2.2-2.1.1-2.3.1-.2.1-1.8 0-2.1.3z"/><path id="XMLID_420_" class="st1" d="M88.4 85.1c1.5-2.7 3.3-5.2 5.4-7.4.7-.8 1.2-1.8 1.7-2.7-.1.2.8-1.3.5-1-1.4 1.2-2.6 2.6-3.7 4.1-.8 1.2-1.7 2.4-2.5 3.6-1.4 2.1-2.5 4.3-3.7 6.6-.2.3.4-.5.5-.6.7-.8 1.3-1.7 1.8-2.6z"/></g></g></g><g id="XMLID_1118_"><g id="XMLID_397_"><g id="XMLID_398_"><path id="XMLID_416_" class="st1" d="M37.9 71.8c.6 0 1.6-.7 2.1-.9.4-.2 1.6-.9 2.1-.9-.6 0-1.6.7-2.1.9-.4.1-1.6.9-2.1.9z"/><path id="XMLID_415_" class="st1" d="M49.8 70.5c-.6 0-1.6-.5-2.2-.7-.6-.2-1.5-.6-2.2-.6.6 0 1.6.5 2.2.7.6.2 1.5.6 2.2.6z"/><path id="XMLID_414_" class="st1" d="M32.8 81.9c.2 0 .4-4.5.6-4.5-.2 0-.4 4.5-.6 4.5z"/><path id="XMLID_413_" class="st1" d="M34.7 86.9c-.4 0-.9-4.3-1.5-4.3.4.1.9 4.3 1.5 4.3z"/><path id="XMLID_412_" class="st1" d="M45.8 92c4.5 1.8 9 3.5 13.5 5.3.3.1 1.9-.7 2.1-.7.2-.1 1.9-.9 2.1-.8-4.5-1.8-9-3.5-13.5-5.3-.4-.2-1.8.6-2.2.7.1 0-1.8.9-2 .8z"/><path id="XMLID_411_" class="st1" d="M26.4 81.2c9 3.5 18.1 7.1 27.1 10.7.5.2-.4-1.2-.3-1.1-.3-.6-1.1-2.4-1.8-2.7-9.1-3.7-18.2-7.3-27.3-10.8.1.1 1 1.9 1.1 2 .2.4.7 1.7 1.2 1.9z"/><path id="XMLID_410_" class="st1" d="M33.8 78.6c8.4 3 16.7 6.2 24.9 9.7.7.3 2.7-3.6 2.8-3.5-9.1-3.6-18.2-7.2-27.3-10.7.2 0-1 4.2-.4 4.5z"/><path id="XMLID_409_" class="st1" d="M39.4 77.1c9.3 3.2 18.5 6.8 27.6 10.7.2.1-.1-2.3-.1-2.3 0-.3-.1-2-.5-2.2-9.1-3.9-18.3-7.4-27.6-10.7l.2 2.3s.1 2.1.4 2.2z"/><path id="XMLID_408_" class="st1" d="M35.1 76.9c4.6 1.9 9.2 3.7 13.7 5.6.5.2 2.5-3.7 2.8-3.6-4.6-1.9-9.2-3.7-13.7-5.6-.7-.3-2.7 3.6-2.8 3.6z"/><path id="XMLID_407_" class="st1" d="M27.9 69.5c9.2 3.3 18.3 6.8 27.3 10.6.8.3 2.4-.1 3.2-.2-.2 0 1.7-.2 1.1-.4-9-3.9-18.1-7.3-27.3-10.5-.8-.3-2.4.1-3.2.2.2 0-1.5.1-1.1.3z"/><path id="XMLID_406_" class="st1" d="M36.8 82.5C46 86 55.2 89.7 64.4 93.4c.5.2 2.4-3.8 2.4-3.8-9.1-3.7-18.3-7.4-27.6-10.9-.3-.1-2.2 3.9-2.4 3.8z"/></g></g></g><g id="XMLID_1161_"><g id="XMLID_399_"><g id="XMLID_400_"><path id="XMLID_661_" class="st1" d="M36.9 109.8c1.7.1 3.5.1 5.2.2.9 0 2.2-.7 3-1-.3.1 1.5-.6 1-.6-1.7 0-3.4-.1-5.1-.1-.8 0-1.8.6-2.5.8-.4.2-1.2.7-1.6.7z"/><path id="XMLID_660_" class="st1" d="M29.6 90.8c1.5-.4 3-.9 4.5-1.3 1-.3 2-.8 3-1.2l1-.5c-1.5.5-3 .9-4.5 1.4-1 .3-2 .8-3 1.2.2-.2-1.4.5-1 .4z"/><path id="XMLID_632_" class="st1" d="M40.9 89.6c1.7-.5 3.4-.9 5-1.4-.2.1-2-.7-2.1-.7-.5-.1-1.7-.7-2.2-.5-1.7.5-3.4.9-5 1.4.3-.1 1.9.6 2.2.7.3.1 1.6.7 2.1.5z"/><path id="XMLID_631_" class="st1" d="M24.8 100.4c1.3-.2 2.7-.5 4-.7.6-.1.3-4.4.6-4.5-1.3.2-2.7.5-4 .7-.5.1-.2 4.4-.6 4.5z"/><path id="XMLID_630_" class="st1" d="M35.3 110.7c1.5.1 3.1.1 4.6.2-1.5-.1-2.9-1-4.4-1.1-1.5-.1-3.1-.1-4.6-.2 1.5 0 2.9 1 4.4 1.1z"/><path id="XMLID_629_" class="st1" d="M26.7 105.1c1.3-.1 2.7-.2 4-.3-.2 0-1-4.3-1.5-4.3-1.3.1-2.7.2-4 .3.2 0 1 4.4 1.5 4.3z"/><path id="XMLID_628_" class="st1" d="M26.6 101.2c-.6-.1-1.3-.2-1.9-.3.8 1.3 1.6 2.6 2.4 3.8 2.3.1 4.5 0 6.7-.2 2.3-.1 4.6-.5 6.9-1.1.2 0-1-2.1-1-2-.1-.2-1-1.9-1.4-1.8-2.3.6-4.6 1-6.9 1.1-2.2.2-4.5.3-6.7.2l1.1 2c.1.2.9 1.8 1.3 1.9.6.1 1.3.2 1.9.3-.1 0-1.1-1.9-1.1-2-.1-.1-1-1.8-1.3-1.9z"/><path id="XMLID_405_" class="st1" d="M36.7 97.8H34c-.1 1.5-.1 3-.2 4.5 2.2.1 4.4-.1 6.5-.6 3.1-.5 6.2-1.2 9.3-2-.2 0-1.8-1.3-1.8-1.3-.2-.1-1.5-1.3-1.9-1.2-3.9.6-8 .5-11.8.6-.3 0-.3 4.5-.2 4.5h2.5c.1 0 .2-4.5.3-4.5z"/><path id="XMLID_404_" class="st1" d="M41.4 96.4c-1.1.1-2.1.1-3.2.2l.6 4.5c5.4-.3 10.3-.9 15.6-2 .4-.1-.4-4.5-.6-4.5-5.3 1-10.3 1.6-15.6 2 0 0 .4 4.5.6 4.5 1.1-.1 2.1-.1 3.2-.2-.1 0-.4-4.5-.6-4.5z"/><path id="XMLID_403_" class="st1" d="M22.6 96.3c4.5-.7 8.9-1.7 13.3-2.6.4-.1 1.3-1.6 1.4-1.8.1-.1 1.1-1.8 1.3-1.8-4.5.9-8.8 1.9-13.3 2.6-.3 0-1.3 1.6-1.4 1.8-.1.1-1.1 1.8-1.3 1.8z"/><path id="XMLID_402_" class="st1" d="M30.5 93.1c-.8.2-1.6.5-2.4.7-.2 0-.2.1 0 .1 3.2.4 6.3.2 9.5-.6 1.9-.4 3.8-1 5.7-1.8.6-.2 2.4-.5 2.8-1.1.2-.3.3-.3-.3-.3-9.6 1.2-2.5.5-17.7 3.7 1.4-.1 2.9-.2 4.3-.3.8-.2 1.6-.5 2.4-.7.4-.1-1.3 0-1.1 0-1 .1-2.2 0-3.2.3z"/><path id="XMLID_401_" class="st1" d="M36.4 106c3.6.2 7.1.1 10.7-.2 1.6-.2 3.2-.6 4.8-.9.4-.1 1.2-1.6 1.3-1.8l1.1-2c-5.1 1-10.3 1.4-15.5 1.1-.2 0-1.2 1.8-1.2 1.9 0 0-1.1 1.9-1.2 1.9z"/></g></g></g><g id="XMLID_1196_"><g id="XMLID_633_"><g id="XMLID_634_"><path id="XMLID_659_" class="st1" d="M129.8 50.8c3.2-.2 6.3-.9 9.3-1.8 1.1-.3 2.4-.7 3.4-1.2.4-.2.5-.3-.1-.1-2.8.6-5.6 1.1-8.3 1.7-1.5.1-2.9 1.2-4.3 1.4z"/><path id="XMLID_658_" class="st1" d="M126.3 29.6l4.5-.6c1.5-.2 2.7-1.6 4.2-1.8l-4.5.6c-1.5.2-2.8 1.6-4.2 1.8z"/><path id="XMLID_657_" class="st1" d="M133.8 30.4c2.7-1.8 5.6-2.6 8.8-2.7-.4.1-1.8-.6-2.2-.7-.5-.1-1.6-.7-2.2-.6-3.2 0-6.1.9-8.8 2.7.3-.1 2 .6 2.2.6.2.1 1.9.8 2.2.7z"/><path id="XMLID_656_" class="st1" d="M125.7 39c.2 0 .4-4.5.6-4.5-.2 0-.4 4.5-.6 4.5z"/><path id="XMLID_655_" class="st1" d="M119.3 46.1c2.7-.9 5.4-1.6 8.2-2-.1 0-1.2-4.3-1.5-4.3-2.8.4-5.6 1.1-8.2 2 .1 0 1.5 4.3 1.5 4.3z"/><path id="XMLID_654_" class="st1" d="M118.3 50.4c0-1.6 1-2.4 2.4-3.2 4.9-2.7 11.1-3.4 16.6-4 .1 0-1.1-2.1-1-2-.1-.2-.9-1.9-1.3-1.8-5.5.5-11.7 1.2-16.6 4-1.4.8-2.4 1.5-2.4 3.2 0 .6.9 1.6 1.1 2 0 .1 1.2 1.5 1.2 1.8z"/><path id="XMLID_653_" class="st1" d="M128.4 42.2c-.7.1-1.4.3-2.1.4-.5 1.4-.9 2.7-1.4 4.1.8-1.5 1.5-3 2.3-4.5-.9 1.1-1.7 2.3-2.6 3.4 1.3-1.1 2.5-2.2 3.8-3.3-1.3.7-2.5 1.4-3.8 2.1 4-1.3 8-2.3 12.2-2.8 1.8-.7 3.5-1.4 5.2-2.3l-3.9-.3c2.2.5 4.5 1 6.7 1.5.2 0 0-4.5 0-4.5-3.6 2.3-7.4 3.3-11.6 3.2-1.5.4-2.9.9-4.3 1.5-3.5 1.7-3.6 1.4-4.5 3.8 0-.1 2-.9 2-1 .1-.2 1.9-1.4 2-1.3z"/><path id="XMLID_652_" class="st1" d="M130.7 41.8c-.1-.3-.2-.5-.3-.8.2 1.5.4 2.9.6 4.4.6-1.9 2-2.1 3.8-2.8 2.3-1 4.8-1.8 7.3-2.3 2.8-.7 5.7-1.1 8.6-1.3.2 0-.3-4.5-.6-4.5-2.9.1-5.8.5-8.6 1.3-3.3.8-6.5 1.9-9.6 3.2-.8.5-1.3 1-1.5 2-.1.7.2 1.5.2 2.2.1 1 .3 2 .6 2.9.1.4-.1-1.3-.1-1.1-.1-1-.1-2.2-.4-3.2z"/><path id="XMLID_651_" class="st1" d="M114.2 39.7c1.2-.8 2.4-1.4 3.6-2.1 1.8-1.3 3.7-2.1 5.9-2.3 2.8-1.1 5.7-1.7 8.7-1.6.3 0 1.3-1.7 1.4-1.8.1-.1 1.1-1.8 1.4-1.8-3.1.1-6.1.5-9.1 1.1-.7.2-1.3.5-1.9.9-1.9.8-3.7 1.8-5.4 3-.7.2-1.3.6-1.9 1-1.2.8-1.5 2.8-2.7 3.6z"/><path id="XMLID_650_" class="st1" d="M124.2 38.1c-.1-1 .2-1.3 1.1-1.8.9-.5 1.9-1 2.8-1.5 4.2-2.5 8.9-3.8 14-3.9-.2 0 1.2-.1 1.2-.3 0-.2-1.4-.1-1.2-.1-2.1.1-4.4.2-6.6.5-1.7.3-3.4.5-5.1.9-.8.3-1.7.7-2.5 1.1-2.4 1.1-4.8 2.4-7.1 3.6-.9.5-1.3.9-1.1 1.9 0 .3 4.5-.3 4.5-.4z"/><path id="XMLID_649_" class="st1" d="M131.1 47.8c-.3-.6-.3-1.2 0-1.8-.8 1.2-1.6 2.5-2.3 3.7 1.9-2.5 5.4-2.6 8.3-3.2 1.5-.3 3-.6 4.5-1 2.1-.6 4.3-.9 6.5-1 .4 0 1.2-1.7 1.3-1.9 0 0 1.1-1.9 1.1-2-2.9.1-5.8.6-8.6 1.5-3.2.5-6.4 1.3-9.5 2.4-.7.5-1.1 1.1-1.6 1.8-.7 1-1.4 2-1.9 3-.4.8-.5 1.3-.2 2.2-.1-.2 1.2-1.8 1.2-1.9 0 0 1.2-1.5 1.2-1.8z"/></g></g></g><g id="XMLID_1203_"><g id="XMLID_363_"><path id="XMLID_367_" class="st2" d="M41.9 64.5c12.6-11.4 28.9-15.3 45.4-16.9.9-.1 2-.9 2.9-.8-6.4-.7-12.5 1-18.6 2.9-10.1 3.2-20.3 6.7-29.2 12.6.8-.5 2.1-.3 2.9-.8C58.2 54.4 72 49.7 86.7 47.9c1-.1 1.9-.7 2.9-.8-18 1.5-35.6 7.1-51.2 16.3 1-.3 1.9-.5 2.9-.8 15.6-10.1 33.3-15.3 51.9-15.1 1 0 1.9-.8 2.9-.8-20.2-.2-40.6 5.7-57.6 16.6.8-.5 2.1-.3 2.9-.8 14-8.3 29.2-13.3 45.4-14.7 1-.3 1.9-.5 2.9-.8-16.5 2-32.6 7-47.2 15.2 1-.3 1.9-.5 2.9-.8 5.5-3.7 11.4-6.4 17.6-8.6 7.8-2.9 16-6.3 24.5-5.3 1-.3 1.9-.5 2.9-.8-18.3 1.8-37.6 6-51.4 18.6.6-.6 2.2-.2 2.9-.8z"/></g></g><g id="XMLID_1210_"><g id="XMLID_357_"><path id="XMLID_361_" class="st2" d="M55.2 50.4H55c-.3 0-2.9.6-2.9.8-.1.9 4.9-.9 5.2-1 10.6-3.7 21-7.6 32.4-7.6 1-.3 1.9-.5 2.9-.8-11.1.7-22.9 2.5-32.3 8.9.8-.5 2.1-.2 2.9-.8 8-5.5 17.1-6.7 26.5-7.3 1-.1 1.9-.8 2.9-.8-13.8 0-26.9 5.3-39.8 9.8.9-.3 1.9-.5 2.8-.8-.6.2-.8.1-.6-.3-1 .3-1.9.5-2.9.8h.2c1-.1 2-.9 2.9-.9z"/></g></g><g id="XMLID_1212_"><g id="XMLID_351_"><path id="XMLID_355_" class="st2" d="M133.1 66.9c-.7-.2-1.1-.8-.8-1.5-1 .3-1.9.5-2.9.8.5 2.2 1.2 4.3 2.1 6.3 0 0 2.9-.7 2.9-.8v-6.1c-1 .3-1.9.5-2.9.8.2 1.6.6 3.1 1.4 4.6.1.2 2.8-.9 2.9-.8-.7-1.5-1.2-3-1.4-4.6 0 .2-2.9.6-2.9.8v6.1c1-.3 1.9-.5 2.9-.8-1-2-1.7-4.1-2.1-6.3 0 .1-2.8.5-2.9.8-.3.7.1 1.3.8 1.5.4.1 1.1-.3 1.5-.4.3-.1 1-.5 1.4-.4z"/></g></g><g id="XMLID_1214_"><g id="XMLID_345_"><path id="XMLID_349_" class="st2" d="M69.2 94.9c1.4.1 2.4 1.6 3.8 1.5 1-.1 2.2-.4 3.1-.8.4-.2.9-.6.8-1.1-.1-.5-.6-.3-1-.2-.9.2-3 .3-3.1 1.6 0-.1 1.3-.3 1.5-.4.1 0 1.4-.3 1.4-.4.1-.4.2-.7.6-.9-.9.3-1.9.5-2.8.8.5-.1.6.3.4.7-.1.3-.4.6-.7.7.9-.3 1.9-.5 2.8-.8-1.5.4-2.6-1.3-4-1.4-.4 0-1 .3-1.5.4-.3 0-.9.3-1.3.3z"/></g></g><g id="XMLID_1216_"><g id="XMLID_338_"><path id="XMLID_342_" class="st2" d="M70.8 97.6c.8.5 1.7.8 2.7.8.4 0 1-.3 1.5-.4.3-.1.7-.2 1-.3.1 0 .3-.1.4-.1-1 0-1.9-.3-2.7-.8 0 0-.5.1-.4.1-.3.1-.7.2-1 .3-.3.1-.7.2-1 .3-.2 0-.5.1-.5.1z"/></g></g><g id="XMLID_1218_"><g id="XMLID_332_"><path id="XMLID_336_" class="st2" d="M237.2 83.8v.3s1.3-.3 1.5-.4c.1 0 1.4-.3 1.4-.4V83s-1.3.3-1.5.4c-.1 0-1.4.3-1.4.4z"/></g></g><g id="XMLID_1220_"><g id="XMLID_325_"><path id="XMLID_330_" class="st2" d="M236.6 82.4c.4.8.4 1.6-.1 2.4 0 0 .5-.1.4-.1.3-.1.7-.2 1-.3.3-.1.7-.2 1-.3.1 0 .4-.1.4-.1.5-.7.5-1.6.1-2.4 0-.1-1.3.3-1.5.4 0 .1-1.3.5-1.3.4z"/></g></g><g id="XMLID_1266_"><g id="XMLID_320_"><path id="XMLID_324_" class="st2" d="M54.8 58.6c3.7-1.6 7.3 6.8 8.5 9.3 2 4.4 3.4 9.1 4.8 13.7 0-.1.9-.4.9-.5-1.4-4.6-2.7-9.3-4.8-13.7-1.2-2.5-4.8-10.9-8.5-9.3-.3.2-.6.4-.9.5z"/></g></g><g id="XMLID_1281_"><g id="XMLID_314_"><path id="XMLID_318_" class="st2" d="M69.8 64c.7 4.6 2.1 9.1 4 13.3l.9-.5c-2-4.3-3.3-8.7-4-13.3 0 .1-.9.4-.9.5z"/></g></g><g id="XMLID_1329_"><g id="XMLID_301_"><path id="XMLID_305_" class="st2" d="M76.7 83.8c4.3-5 9.2-9.3 14.7-13-.3.2-.6.3-.9.5-5.4 3.7-10.3 8.1-14.7 13 .2-.2.7-.2.9-.5z"/></g></g><g id="XMLID_1336_"><g id="XMLID_295_"><path id="XMLID_299_" class="st2" d="M87 79.1c3-3.7 6-7.3 9-11-.2.2-.7.3-.9.5-3 3.7-6 7.3-9 11 .2-.2.7-.2.9-.5z"/></g></g><g id="XMLID_1343_"><g id="XMLID_288_"><path id="XMLID_292_" class="st2" d="M87.7 88.1c7.1-2.8 14.4-5.3 21.7-7.5.3-.1.6-.4.9-.5-7.4 2.2-14.6 4.7-21.7 7.5-.3.1-.6.3-.9.5z"/></g></g><g id="XMLID_1350_"><g id="XMLID_282_"><path id="XMLID_286_" class="st2" d="M92.5 93.8c6.6-2.5 13.4-4.3 20.3-5.5.3-.1.6-.4.9-.5-6.9 1.2-13.7 3-20.3 5.5-.3.1-.5.4-.9.5z"/></g></g><g id="XMLID_1357_"><g id="XMLID_276_"><path id="XMLID_280_" class="st2" d="M82.9 101.7c7.5.4 14.9 2 22 4.6.2.1.7-.6.9-.5-7.1-2.6-14.4-4.2-22-4.6-.4 0-.7.5-.9.5z"/></g></g><g id="XMLID_1364_"><g id="XMLID_270_"><path id="XMLID_274_" class="st2" d="M93.7 99.5v-.3c-.3.2-.6.3-.9.5 1.2-.5 3.1 1 4.2 1.6 1.6.8 3.1 1.6 4.6 2.4 3.2 1.7 6.4 3.5 9.5 5.4.1.1.7-.6.9-.5-3.1-1.9-6.3-3.7-9.5-5.4-1.5-.8-3.1-1.6-4.6-2.4-1.1-.5-3-2.1-4.2-1.6-.1 0-.9.4-.9.5v.3c0-.2.9-.4.9-.5z"/></g></g><g id="XMLID_1371_"><g id="XMLID_264_"><path id="XMLID_268_" class="st2" d="M80 114.9c-.8-2.7-1.7-5.4-2.5-8.1-.3.2-.6.3-.9.5 2.6 4.5 5.5 8.9 8.4 13.2 2.8 4 5.6 8.5 9.4 11.5.1.1.8-.6.9-.5-3.9-3-6.7-7.6-9.4-11.5-3-4.3-5.8-8.7-8.4-13.2l-.9.5c.8 2.7 1.7 5.4 2.5 8.1 0-.1.9-.5.9-.5z"/></g></g><g id="XMLID_1385_"><g id="XMLID_258_"><path id="XMLID_262_" class="st2" d="M66.4 109.9c-3.3 3.4-6.1 7.2-8.4 11.4-1.1 2-5.4 10.3.5 9.1.3-.1.6-.4.9-.5-5.9 1.2-1.6-7.1-.5-9.1 2.3-4.2 5.1-8 8.4-11.4-.2.3-.6.3-.9.5z"/></g></g><g id="XMLID_1399_"><g id="XMLID_252_"><path id="XMLID_256_" class="st2" d="M55 111.8c-7.9 6.8-17.6 10.9-28 11.9-.3 0-.6.5-.9.5 11-1.1 21.4-5.7 29.7-12.9-.2.3-.5.3-.8.5z"/></g></g><g id="XMLID_1406_"><g id="XMLID_243_"><path id="XMLID_250_" class="st2" d="M30.2 96.1c11.2.4 22.4.9 33.7 1.7.3 0 .6-.5.9-.5-11.2-.8-22.4-1.4-33.7-1.7-.3 0-.6.5-.9.5z"/></g></g><g id="XMLID_1413_"><g id="XMLID_233_"><path id="XMLID_241_" class="st2" d="M39.9 73.6c3.5 3.3 7.5 6 11.9 8.1.2.1.7-.6.9-.5-4.4-2.1-8.4-4.8-11.9-8.1-.1-.1-.8.5-.9.5z"/></g></g><g id="XMLID_1420_"><g id="XMLID_227_"><path id="XMLID_231_" class="st2" d="M133.8 71.3c2.6 17-1.2 34.7-10.6 49-5.2 7.9-12.2 15.3-21.1 18.9-1.9.8-3.9 1.4-5.9 1.7-1 .2-2 .3-3.1.4-.3 0-.9.2-1.2.1-.7.1-.6-.1.3-.6.2-.2.5-.4.7-.6 3.8-3.5 7.5-6.9 11.3-10.5 8.3-8 16.5-16.2 24.4-24.6-.2.2-.6.3-.9.5-7.8 8.3-15.8 16.4-24 24.2-2 1.9-4 3.8-5.9 5.6-2 1.9-4.6 3.7-6.4 5.9-.9 1.1-.8.5.1.6.5.1 1.1-.1 1.6-.1 1.2-.1 2.3-.3 3.4-.6 2.3-.5 4.5-1.3 6.6-2.3 14.5-6.8 24.5-21.3 29.2-36.2 3.3-10.3 4.1-21.3 2.5-31.9-.1.1-1 .4-1 .5z"/></g></g><g id="XMLID_1427_"><g id="XMLID_221_"><path id="XMLID_225_" class="st2" d="M130 96c-.4 4.3.1 8.6-.1 13-.2 3.6-.8 7.1-1.8 10.5-2.2 7.1-6.1 13.5-11.4 18.7-3.1 3-6.7 5.6-10.6 7.5-1.7.8-3.4 1.5-5.2 2.1-.8.3-1.5.5-2.3.7-.5.1-2.6 1-3.1.7-1.4-.6-.3-3.2.2-4 1-1.7 2.7-2.8 4.2-4.1l9.9-8.1c7.7-6.3 15.4-12.6 23.2-19-.3.2-.6.3-.9.5l-22.8 18.6-11.4 9.3c-1.4 1.1-2.9 2.4-3.5 4.1-.3.7-.5 1.8 0 2.5.6.9 1.7.3 2.7 0 12.9-3.3 24.2-12.3 29.8-24.4 2-4.2 3.3-8.8 3.8-13.4.6-5.3-.1-10.6.3-15.8-.1.3-.9.4-1 .6z"/></g></g><g id="XMLID_1434_"><g id="XMLID_218_"><path id="XMLID_600_" class="st2" d="M188.8 44.1c11.8 3.7 20.6 12.8 28.9 21.6.3-.2.6-.3.9-.5-.7-.5-1.3-.8-2.2-1-.2-.1-.6.6-.9.5.9.2 1.5.5 2.2 1 .1.1.8-.6.9-.5-8.3-8.8-17.1-17.8-28.9-21.6-.2 0-.7.6-.9.5z"/></g></g><g id="XMLID_1441_"><g id="XMLID_613_"><path id="XMLID_623_" class="st2" d="M139 42.1c-7.1.4-14 2.2-20.5 5.3-.3.1-.6.4-.9.5 29.4-6.3 60.7-16.4 90.4-5.5 7.2 2.7 13.9 6.6 19.6 11.8.3-.2.6-.3.9-.5-9-.2-17.8-1.8-26.4-4.6-.2-.1-.7.6-.9.5 8.5 2.9 17.4 4.4 26.4 4.6.1 0 .8-.6.9-.5-22.3-20.5-54.8-18.3-82.3-12.5-9.2 1.9-18.4 4.2-27.6 6.2-.3.2-.6.3-.9.5 6.5-3.1 13.3-4.9 20.5-5.3.3-.1.5-.5.8-.5z"/></g></g><g id="XMLID_1448_"><g id="XMLID_614_"><path id="XMLID_619_" class="st2" d="M164 41.8c-.8 0-1.7 0-2.5.1-.2 0-.6.6-.9.5 8.9 2.2 17.9 4.4 26.8 6.6 4.3 1.1 8.6 2 12.8 3.2 3.1.9 6.1 2.1 7.8 5 .3-.2.6-.3.9-.5-9.4 3.9-19.4 5.2-29.5 5.5-4.9.2-9.8.1-14.8.1-5.2-.1-10.3-.3-15.2-2.2-.3.2-.6.3-.9.5 20.9-1 41.9 1.1 62.2 6.2.2.1.6-.6.9-.5-20.3-5.1-41.2-7.2-62.2-6.2-.2 0-.7.6-.9.5 4.7 1.9 9.7 2.2 14.7 2.2 5.1.1 10.1.1 15.2-.1 10.1-.4 20.1-1.7 29.5-5.5.1 0 .9-.5.9-.5-1.7-2.9-4.7-4.1-7.8-5-4.2-1.2-8.6-2.1-12.8-3.2-8.9-2.2-17.9-4.4-26.8-6.6-.3.2-.6.3-.9.5.8 0 1.7 0 2.5-.1.5 0 .8-.5 1-.5z"/></g></g></g></g></svg>