<svg id="Layer_1" xmlns="http://www.w3.org/2000/svg" viewBox="-449 251 60 60"><style>.st0{fill:none;stroke:#c5cb79;stroke-width:2;stroke-miterlimit:10}</style><path id="LinkedIn_3_" class="st0" d="M-390.5 287.1v21.1h-12.2v-19.7c0-4.9-1.8-8.3-6.2-8.3-3.4 0-5.4 2.3-6.3 4.5-.3.8-.4 1.9-.4 3v20.5h-12.2s.2-33.3 0-36.8h12.2v5.2l-.1.1h.1v-.1c1.6-2.5 4.5-6.1 11-6.1 8.1 0 14.1 5.3 14.1 16.6zm-50.1-33.3c-4.2 0-6.9 2.7-6.9 6.3 0 3.5 2.7 6.4 6.8 6.4h.1c4.3 0 6.9-2.8 6.9-6.4-.1-3.7-2.7-6.3-6.9-6.3zm-6.2 54.3h12.2v-36.7h-12.2v36.7z"/></svg>