<svg id="Layer_1" xmlns="http://www.w3.org/2000/svg" viewBox="0 0 112.7 71.6"><style>.st0{opacity:.2}.st1{opacity:.5;fill:#cb242d}</style><g id="XMLID_3_"><path id="XMLID_49_" class="st0" d="M105.4 17.8c-1.7-3.9-5.6-8.3-9.5-9.8-.5-.2-.9.3-.9.7-.7-.3-1.2.4-.9 1.1 3.6 8.6 5.2 17.4.1 25.8-2 3.4-4.9 6.5-8.5 8.4-.1 0-.2.1-.3.1-1.8.6-4.8 1.6-6.7 1.4.6-1 1.1-2 1.5-2.9.9-2 2-3.9 2.7-6 .5-1.5 1.1-3 1.6-4.6.4-1.2.3-3.2.9-4.3.3-.6-.3-1.2-.9-.9-2.8 1.2-4 7.1-5.2 9.5-.4.8-.8 1.7-1.3 2.6-1.9.3-3.2 2.5-4.3 3.8-.3.3-.8.8-1.3 1.4-.1 0-.2.1-.3.1-.9.5-1.3 1.4-1.2 2.4v.3c-.1.2-.2.4-.2.7 0 .3 0 .6.1.9 0 1.3.9 2.5 2.3 2.2 2.3.9 5.6.8 7.2.5 2.7-.4 5.3-1.3 7.8-2.6 1.8-.6 3.7-1.2 5.5-2.1 3-1.5 5.6-4 7.8-6.5 2.3-2.6 4-6.4 4.6-10.4.5-1.1.9-2.3 1-3.6 0-2.9-.4-5.4-1.6-8.2z"/><path id="XMLID_48_" class="st0" d="M68.9 42.9c-.5-1.8-.5-3.7-.6-5.5-.2-3.5-.2-7.1-.7-10.6-.1-.3-.5-.3-.6-.1-2.3 3.2-6.4 20.4.5 20.8 1.3.1 2.3-1.1 2.3-2.3 0-1-.7-1.5-.9-2.3z"/><path id="XMLID_47_" class="st0" d="M50.9 44.6c-1-3.9-4-5.8-7.2-7.7-.5-.3-1.1.3-.8.8 1.3 1.9 2.1 4 2.6 6.2-3.8-4.6-7.7-7.6-14.1-7-.7.1-1.2 1.1-.4 1.4 4 1.8 7.7 4.1 10.6 7.5 2.4 2.8 3 5.5 3.3 9.1.1 1.3-.1 2.1 0 3-.1 0-.2-.1-.3-.1-1.8-.7-2.9 0-4.7.6-2.5.8-5.7-.8-8-1.3-4-.8-7.6-4.8-10.1-7.7-.5-.6-1.7 0-1.4.8 1.6 4.6 5.5 9.8 10.3 11.5.7.2 1.5.6 2.5.9-1.9.2-3.8.3-5.8-.4s-4-1.3-6-2c-2.4-.9-3.9-2.1-5.5-4.2.1-.4 0-.8-.1-1.2-.3-.8-1.8-5.1-1.1-6.4.3-.2.6-.4 1-.6.1-.1.2-.1.3-.2.5.4 1.1.6 1.9.4 1.4-.3 3-1.7 3.9-2.7 1.3-1.4 2-3 2.5-4.8.7-2.9 2-7.3-.9-9.5-.8-.6-2 .1-2.2.9-.6 2.1-.8 4.3-1.4 6.4-.3 1.1-.5 2.7-1.6 3.4-.7.5-1.3 1.1-1.9 1.8-.6-.9-1.7-1.4-2.9-.9-.2.1-.4.2-.7.3-.1 0-.2.1-.3.1-.2 0-.5 0-.7.1h-.1c-.4 0-.9.1-1.4.4-.7.4-1.2.8-1.6 1.3-1.2.9-1.8 2.1-1.2 4.2.2.7.6 1.3 1.2 1.6-2.2 6.5 5.3 14.2 11 15.7C25.8 68 34.1 69 39.1 64c3.5.4 6.7-.3 6.8-4.2.4.4 1.3.6 1.8.2 1-.7 1.6-1.6 2-2.7 4.5-.4 1.8-10.5 1.2-12.7z"/><path id="XMLID_4_" class="st1" d="M24.3 30.4l-.9-.3c-.2 0-.3-.1-.5-.1-.3.1-.6.2-.9.2 0 .2-.2.3-.3.4h-.2c-.2 0-.4-.1-.5-.3-.2 0-.5.1-.8 0-.1 0-.2 0-.3-.1h-.1c-.1 0-.2 0-.3-.1-2.1-.2-4 3.5-5.1 5.2-.4.8-.8 1.5-1.1 2.3-.4.9-.8 1.7-1.2 2.6-.2.6-.4 1.3-.5 2-.3 1-.4 2.1.2 2.8.3.5.7.7 1.1.8.4.3.8.6 1.3.9 0 0 .1.1.2.1.6.3 1.2.4 1.7.3.9.4 1.7.5 2.5.2 2.3-1.2 4.5-2.7 5.8-5 .6-1.1.6-2.4.8-3.6.2-1.5.8-3 .9-4.5 0-1.4-.7-2.8-1.8-3.8zm-7 2.3c.5-.8 1.4-1.1 2.5-.9v.1c-.4.5-.7 1-1.2 1.4-.2-.4-.6-.6-1-.5-.2.1-.4.2-.5.3 0-.1.1-.3.2-.4zm-.5 3.2c0-.1.1-.1.1-.2.2-.1.3-.2.5-.3.5-.3.9-.7 1.2-.9.6-.5 1.6-1.2 2-2.1.1.4.1 1 .1 1.4l-.2.2c-.7 1.1-1.7 1.9-2.8 2.6-.4.3-.8.6-1.3.9.3-.4.6-.9.4-1.6zm-2.4 8.2c-1.1.8-1.3 0-1.1-1.1.7-.1 1.5-.4 2.1-.6.4-.1.8-.3 1.1-.6.1 0 .1 0 .2-.1-.7.9-1.5 1.8-2.3 2.4zm2.5-3.5h-.2-.1c-.1 0-.2.1-.2.1l-.1.1c-.5.3-1.2.4-1.7.5h-.2c.1-.3.3-.6.4-.9.5 0 1.1-.2 1.6-.5 1.1-.8 1.9-1.9 2.9-2.8.1-.1.4 0 .3.2-.2 1-.9 1.9-1.7 2.6-.3.3-.6.4-.9.6 0 0-.1 0-.1.1zm1.5 1.1c.1-.7.6-1.3 1.1-1.7.7-1 1.4-2.2 1.8-3.4v.3c0 .5.4.8.9.8-.2.6-.5 1.2-.7 1.7v.1c-.1.7-.4 1.3-.7 1.9 0 .1-.1.2-.1.2h-.1c-.3.4-.6.7-1.1.9-.7.2-1.2-.2-1.1-.8zm2.7 2.4c0-.1 0-.3-.1-.4 0-.2-.1-.3-.2-.5.1-.2.2-.3.3-.5.1.1.1.2.2.3l.3.6c-.1.2-.3.3-.5.5zm1.4-1.3s-.1-.1 0 0c-.3-.4-.5-.8-.7-1.1.1-.2.3-.4.4-.7.2.2.2.5.5.8.1.1.2.2.3.4-.2.2-.4.4-.5.6zm.8-1.5l-.1-.1c-.2-.1-.3-.4-.5-.6-.1-.1-.2-.2-.3-.2.1-.2.2-.5.3-.7.3.3.7.5 1.1.7-.1.3-.3.6-.5.9zm1.1-2.9c-.1.4-.2.7-.3 1.1-.2 0-.3-.1-.5-.1-.2-.1-.4-.2-.6-.2.2-.4.3-.8.5-1.3.3.1.7.2 1 .2 0 0 0 .2-.1.3zm.4-1.4c-.1 0-.1 0 0 0-.3.2-.7.1-1.1.2.4-1.7.4-3.5-.1-5.3v-.3c-.1-.1-.1-.3-.2-.4.1.1.2.2.2.3.2-.3.8-.3.9.1.6 1.8.6 3.7.3 5.4zm78.9-10.1c0 .6-.1 1.1-.3 1.6-.1.2-.3.1-.4 0-.4-1.2-.4-2.6-.6-3.9-.1-.8-.4-1.6-.8-2.3-.2-.3-.5-.5-.8-.7-.1-.2-.1-.4-.1-.6 0-.1 0-.1.1-.2v-.1c0-.1.1-.3.2-.2 1.5 1 2.5 3.4 2.7 5.5.1.3.1.6 0 .9zm.5-11.9c-.8-1.3-1.7-2.5-2.6-3.3-.4-2-3.3-4-4.6-4.7-.8-.5-2.1-1.2-3.1-1-.6-.6-1.3-.9-2-1.2-.3-.1-.6-.1-.9-.2-.6-.1-1.4 0-2.1-.2-1 .2-2.4-.3-3.1-.7-.8-.4-1.7-.7-2.5-.9-3.6-.4-7.3 0-10.5 1.2-5.3 2-7 6.3-10.2 10.5-1.6 2-2.5 4.7-3 7.5-.2.7-.4 1.5-.6 2.2-1.8 7.2.3 18.2 6.2 23.1.3.3.6.6.8.9.2.3.5.7.7 1 .9 1 2 1.7 3.2 2.1 2.3-.2 4.1-.1 6.4.6l1.5.3c3.9-.1 7.9-1.1 11.6-2.9 1.1-.4 2.2-.8 3.4-1.3 4.1-1.7 9.7-5.8 12-9.7 4.1-7 5.6-17.4-.6-23.3zm-4.4-5.3c.3.3.6.5.8.9.1.2-.2.3-.3.2-.3-.3-.5-.6-.7-.9-.3-.2 0-.4.2-.2zm-2.1-1.6c.4.2.9.4 1.1.7.1.1 0 .3-.2.3-.5 0-1-.4-1.1-.8-.1-.1 0-.3.2-.2zM95 6.8c.7-.1 1.7.1 2 .8 0 .1 0 .2-.1.3-.8.2-1.4-.5-1.9-.9-.1 0-.1-.2 0-.2zM60.6 34.7c.1-.1.3-.2.4-.3v2.4c-.1-.7-.3-1.4-.4-2.1zm12.1 13.2c-.4 0-.7-.1-1.1-.1.1-.1.1-.2.2-.2v-.2c.4-.7.9-1.4 1.4-2.1.1.1.2.3.3.4.3.3.4.7.6 1.1.1.2.2.4.2.7-.5.1-1.1.3-1.6.4zm27.9-7.7c2-2.5 3.6-5.3 4.7-8.2.4-.7.7-1.4 1-2.2-.7 3.9-3.1 7.8-5.7 10.4zm5.2-16s0 .1 0 0c0 .3-.3.3-.4.1-.1-.4-.2-.7-.3-1.1l-.1-.1c-.6-1.6-1.3-3.2-2.4-4.5-.5-.7-1.1-1.2-1.7-1.7 0 .1-.1.1 0 .2.5 1.3 1.3 2.5 1.9 3.7.7 1.5 1 3.3 1.9 4.6 0 .1.1.1.1.1 0 1.6-.2 3.1-.5 4.7-.3 1.5-.9 2.8-1.6 3.9-.6 1.2-1.4 2.3-2 3.3-.1.1-.2.1-.3 0-.2.4-.4.8-.6 1.1-.1.1-.3.1-.3-.1.9-2.5 2-4.6 2.2-7.3.1-1.7 0-3.2-.5-4.7-.8 3.4-1.1 6.9-2.2 10.2-3.2 4.8-6.9 9-12.4 11.1-.1-.3-.2-.5-.4-.7-.2-.2-.6.1-.4.3.1.2.1.4.2.6l-.9.3c-.4.1-.9.2-1.3.3-.1-.5-.3-.9-.5-1.4-.1-.2-.6-.1-.5.2.2.4.3.8.4 1.2v.1c-.8.2-1.6.4-2.4.5-.1-.4-.3-.8-.4-1.2-.1-.4-.8-.2-.7.2.1.4.3.7.4 1.1-1.6.2-3.1.2-4.6.1 2.3-.3 4.5-1.5 6.2-3-2.1 1.1-4.6 2.1-6.6 2.3-.1 0-.1-.1 0-.1 1.6-.8 3.2-1.5 4.7-2.3 1-.6 2.1-1.2 3.2-1.6l1.5-.9c-.3.6-.6 1.5-.1 2.1.1.1.3.1.5 0 .5-.3.6-.9.8-1.4.1-.3.2-.5.3-.8.3-.3.6-.8.9-1.2.2-.3.4-.6.7-.9 0-.1.1-.2.2-.4.7-.7 1.4-1.4 2-2.1-.1.9-.5 1.8-.8 2.7-.1.3-.1.5-.3.8-.1.3-.4.5-.4.7-.1.3 0 .6.3.7.3.1.6.1.8-.1.8-.8.7-1.8 1.1-2.8.4-1 .4-2.1.1-3 .5-.7 1-1.4 1.4-2.1 1.2-2.7 2.5-5.5 3.1-8.4.1-.3.1-.7.2-1-2.9 5.7-5.6 11.4-11 15.3-1.2.9-3.4 2.2-5.9 3.4-.1-.3-.3-.5-.5-.7-.2-.2-.5.1-.4.3.1.2.2.5.4.7-.5.2-.9.4-1.4.6 0 0 0-.1-.1-.1-.1-.2-.2-.5-.3-.7-.3-.5-.6-.9-1.1-1.1-.2-.1-.5.2-.3.4.5.4.6 1 .8 1.5 0 .1.1.2.2.4-.2.1-.5.2-.7.3-.1-.4-.4-.7-.6-1-.3-.4-.7-.9-1.1-1.2.1-.1.1-.2.2-.3 1.1-2.2 2.9-4.2 4.3-6.1 1.3-1.7 2.2-3.7 3.3-5.5v-.1c1.3-1.9 2.5-3.9 3.6-5.9.2-.6.3-1.3.5-2-.1 0-.3 0-.4.1-2.9 3.6-5.4 7.5-8.2 11.1-.9 1.2-3.1 4.2-5.4 6.6-.6.6-1.1 1.1-1.7 1.6-.3.4-.7.7-1.1.9-.5.6-1.4.8-2 .4-.4-.2-.7-.7-.9-1.2-1.1-4.2-.4-10.3.3-13.1 1.2-4.5 3.8-8.5 5.7-12.8-1.7 2-3.4 4.1-4.9 6.3-1.6 3.1-2.8 6.3-3 9.6-.1 2.6-.3 5.7.2 8.6-.6-.7-1.2-1.5-1.6-2.4-.8-2.1-.7-4.7-.9-7.1v-.1-.1c0-.5-.1-.9-.2-1.4-.1.4-.3.9-.4 1.3l-.6.3c-.1-.6-.2-1.2-.2-1.8.2-.1.4-.2.5-.4.3-.3.2-.7-.2-.8h-.4v-2.5c.1-.1.2-.1.2-.2.3-.2.6-.4 1-.6.3-.1.3-.7-.1-.6h-.7c-.1 0-.3 0-.4.1 0-.5.1-.9.2-1.4-.5-1.4 0-3.3.4-4.6.2-.7.5-1.9 1-2.7.5-1.5 1.5-3 2.5-4.2 2.2-2.6 4.5-5 7.6-6.4.7.1 1.1-.2 1.5-.5.3-.2.1-.8-.3-.7-1.5.6-2.9 1.3-4.1 2.1 1-.9 2-1.6 3.2-2.3C74.3 4.5 77.7 4 81 4h-.1c-3 .2-3.6 1.5-6 2.9-.3.2-.1.7.3.6 1.2-.4.8-.2 1.9-.9 1.3-.9 2.9-1.2 4.6-1.3-.5.1-1.1.3-1.5.5-6.8 2.8-13.8 5.5-16.6 13.2-.2 0 .2.2.4 0 4.1-4.8 7.6-10.2 14.3-11.7 3.6-.7 8.6-1.3 12.8-.3.7.6 1.4 1.1 2.1 1.6-4.6-.3-10.1 2.6-13.6 5.2-.3.2-.1.8.3.6 2.8-1.1 5.3-2.6 8.1-3.6 1.2-.4 4-1.2 6.4-1.2 1-.8 3.2.1 4 1 .6.7 1.1 1.6 1.4 2.5v.1c1.9-.3 3.2 1.2 4.2 3.3 2.3 1.3 3.4 5.5 2.1 7.6-.1.1-.2.1-.3.1zM51.6 31c-2.7-3.5-5.8-6.3-9.9-8.2-1.5-.4-2.9-.8-4.4-1.1-9.3-1.5-19.9 1.8-26.2 8.3-.7.1-1.1.6-1.3 1.2-.1-.1-.3-.2-.5 0-3.5 3.6-5 7.7-4.9 11.9.2.5.4 1.1.3 1.7-.1.3-.1.6-.1.9-.1 1.1.1 1.7 1 2.9.9 1.3 1.1 2.6 1.2 4.1.7 4.7 3.2 10 6 11.7 5 3 12.5 5.8 18.3 3.8.5 0 .9-.1 1.3-.2.4 0 .7-.1 1.1-.1.2.2.5.3.9.1.3-.1.6-.3.9-.4 5.7-1 10.8-3.7 13.6-8.3h.1c.8-.2 1.8.3 2.3-.7.2-.4.3-.8.5-1.2 4.7-4.9 4.6-12.9 2.8-18.9-.9-2.9-1.8-5.2-3-7.5zM37.9 64.1c-.3.3-.9.5-1.3.5-.3 0-.4-.4-.1-.5.4-.2.9-.4 1.3-.5.1.1.2.4.1.5zm15.2-15.7c-.1 1-.3 2-.6 2.9-.1 0-.3 0-.4.1.5-2.1.4-4.5-.1-6.9 0-.5-.1-1-.2-1.5v-.1c-1.1-3.1-2.7-5.7-4.7-8.3-.1-.1-.1-.2-.1-.3-5.1-6.7-13.1-10.9-20.1-6.8-.3.2 0 .6.3.4 6.4-3.3 14.1 1.5 18.5 6.6 2.5 3.9 4.5 6.6 4.7 11.6v2.1c.2 1.7.1 3.5-.4 5.4 0 .1-.1 0-.1 0-.1-1.9.4-3.8-.1-5.7-.3-1-.6-2.1-1-3.1-1-1.7-2.4-3.2-4.1-4.3-4.4-3.8-10.3-5.8-16-4.3-.4.1-.2.6.2.6 4-.8 7.8.3 11.1 2.1 1.1 1 2.4 1.9 3.4 3 1 1 2 2.2 2.9 3.3v.3c.9 1.8 1.6 3.9 1.6 5.9 0 .2 0 .7-.1 1.3.2 1.2.2 2.6-.8 3.5-.3.3-.6.5-.9.6v.4c-2.3.4-4.8.5-6.7.7-6.4.6-12.1-2.5-16-7.6-.2-.3-.6 0-.4.3 3.7 5 8.2 8.6 14.6 9 1.4.1 3.7.1 6-.1-.9.4-1.9 1-2.8 1.2-2.4.6-4.7.5-7.1 0-.1 0-.2.1-.1.2 1.8 1 4.2 1.3 6.6 1.1-.1 0-.3 0-.4.1-2.4.8-5 1-7.7.9-.3 0-.5-.1-.8-.1-3.6.2-7.2-.6-10-2.5-.4-.2-.7-.3-1-.5-2.8-2.3-4.6-5.7-6.1-9.1-.1-.3-.5-.2-.4.1 1.4 6.4 5.3 11.8 11.9 13.2 1.7.4 3.9.7 6.1.8-.1.1-.3.2-.4.3.7 0 1.5.1 2.2 0 .2 0 .2.2.1.3-1 .7-2.1.7-3.2.4-.2.2-.5.5-.7.8-2.3 0-4.4-.3-6.5-.9-.1-.7-.3-1.4-.5-2-.1-.3-.6-.2-.5.2.1.5.1 1 .1 1.5-1.2-.4-2.5-.9-3.6-1.6 0-.2-.1-.4-.2-.6-.1-.3-.4-1-.2-1.4.3-.4-.3-.7-.6-.4-.5.4-.5 1-.3 1.7-.8-.5-1.6-1.1-2.4-1.7-.7-.6-1.4-1.2-2-1.8.1.2.1.3.2.5l.3.6c.3.6.7 1.2.8 1.9l.4.4c.5.4.9.8 1.4 1.1 1 .7 2.1 1.4 3.3 1.9-.3-.1-.5-.2-.8-.3.9.4 1.8.8 2.8 1 .1 0 .1.2 0 .2-5.7-.6-9.8-4.8-12.3-9.8 0-.1.1-.2.1-.1.8 1 1.7 2 2.6 3-.2-.5-.4-1-.5-1.4-.1-.4-.1-.7-.1-1-.2-.2-.3-.4-.5-.6 0-.2.1-.4.2-.4.5-.3.1-1-.4-.9-.2 0-.4.2-.5.3-.5-.8-1-1.6-1.4-2.4-.3-1.3-.6-2.7-.7-3.9-.5-.4-.8-1-.8-1.8 0-1.2.6-3.6 2-4v-.1c.3-.2.6-.3.8-.6.1-.2 0-.6-.2-.7-1-.4-2.3 0-3.2.7-.1.1-.1.2-.2.3l-.2.2c0 .1-.1.1-.2.2s-.1.2-.2.3v-.2c-.1 0-.3-.1-.3-.3l-.2-.2c-.9-2.2-.1-4.8 1.4-6.7 0-.3 0-.5.1-.8.2-1 1-1.8 1.7-1.8l.3-.6c.1-.1.4-.2.4-.2s.1 0 .2.1c.1.4.2.7.3 1.1.1.3.3.6.5.8.1.1.4.5.3.4.1.1.3.2.4.1l.1-.1c-.1-.4-.1-.7-.1-1 0-.3-.1-.7-.1-1 0-.1-.1-.2-.1-.3v-.4c-1.3-3.1 6.7-6.4 8.7-7.3 4.4-1.8 9.7-3.1 14.6-2.5 3.1.1 6.1.7 8.6 1.8 1.4.6 2.5 1.5 3.5 2.5 2.8 1.4 4.3 5.1 5.5 7.8 2.1 3.5 3.4 8.6 1.5 12.9zM9 50.8c0 .1.1.1.2.2s0 .3-.2.3c-.4-.1-.6-.2-.8-.6-.1-.2 0-.4.2-.4.1 0 .2 0 .3-.1.5 0 .6.5.3.6zm6.3 7.9c.2.6.2 1.4-.1 2-.1.2-.3.2-.4.1-.5-.4-.3-1.2-.4-1.8-.1-.6.7-.9.9-.3zm19.6-27.3c.9-.2 1.7.1 2.5.5.5.3 1 .8 1.5 1.1.5.4 1 .9 1.4 1.5.2.3-.1.5-.4.4-1-.4-1.9-1.2-2.7-2-.5-.4-1.5-1.1-2.2-1-.4.1-.4-.4-.1-.5zm4.2-.1c-.4-.2-.1-.7.3-.5 1.6.6 2.7 2.3 3.8 3.5.1.2 0 .4-.2.3-1.6-.8-2.3-2.6-3.9-3.3zm6.2-.7c-.9-.7-1.7-1.7-2.4-2.6-.2-.2.2-.6.4-.3.8 1 1.9 1.8 2.8 2.8.9 1 1.5 2.3 2.2 3.5.1.2-.2.5-.3.3-1.1-1.2-1.5-2.8-2.7-3.7zm50.9 6.2l-.2.2c-.2.2-.3.6-.4.9-.1.4-.2.9-.4 1.2-.2.3-.7.1-.8-.2-.2-.5.1-1.3.2-1.8.2-.5.5-1 1.1-1.2.5-.1.8.5.5.9zm-.3 3.4c-.2.4-.5.6-.8.9-.5.4-.7.9-1.1 1.3-.1.2-.4 0-.4-.2.1-.5.3-1.3.7-1.6.3-.3.7-.5.9-.8.2-.4.9-.1.7.4zM84 36.3c-.2.7-.6 1.4-1.1 2-.5.6-.9 1.3-1.5 1.7-.2.1-.4 0-.4-.2.1-1.5 1.8-2.4 2.4-3.7 0-.5.7-.2.6.2zm.1 3.7c-.3.2-.9.6-1.1 1-.1.3-.3.6-.5.8-.4.4-1 .7-1.5 1-.2.1-.4-.1-.4-.3.2-.8 1-1.1 1.3-1.7.4-.7 1-1.3 1.7-1.6.6-.1.9.5.5.8zM68 43.1c-1.2-1.7.3-3.6 0-5.4-.1-.4.6-.5.7-.1.2.7 0 1.5-.1 2.2-.2 1.1 0 2.1-.1 3.1-.1.3-.3.4-.5.2zm7.9-32.7c-.4-.6.2-1.4.8-1.5.7-.2 1.4-.1 2.1 0 .5.1.3.8-.2.7-.4-.1-.9-.1-1.3.1-.2.1-.4.1-.6.2-.1.1-.1.3-.1.4-.2.3-.6.3-.7.1zm2.9-.2c-.6.6-1.1 1.9-2.1 1.9-.1 0-.3-.2-.1-.3.7-.6 1.1-1.5 1.7-2.1.3-.4.8.1.5.5zm-6.7 15.3c-.8-.2-.8.4-.9 1 0 .2-.3.3-.4.1-.4-.4-.5-1.1-.2-1.6.4-.6 1.1-.7 1.8-.5.6.2.4 1.2-.3 1zm-3.3 6.1c-.5.5-.6 1.2-.9 1.9-.1.2-.3.1-.4-.1-.1-.8.2-1.6.8-2.2.3-.4.8.1.5.4zM42.5 46.1c-.4-.1-.3-.6 0-.7.6-.2.8.4 1.3.7.6.4 1.1 1.3 1.5 1.9.1.2-.1.4-.3.3-.6-.4-1.1-.8-1.6-1.3-.2-.2-.4-.3-.5-.6-.1 0-.3-.3-.4-.3zm3.7 5.8c.2.7.6 1.4.7 2.1.1.6-.7.8-.9.3-.3-.7-.3-1.4-.5-2.1 0-.5.6-.7.7-.3zm-6.4 4c0-.1-.1-.2-.1-.3-.1-.3.4-.5.5-.2v.1c.4-.1.7 0 1 .2.1.1 0 .3-.2.3-.3 0-.6 0-.9.1-.1.1-.3 0-.3-.2zm63.5-25.1c.1.3 0 .6-.1.9-.1.4-.1.7-.3 1-.1.1-.2.1-.3-.1 0-.3 0-.6.1-.9.1-.3.2-.6.2-.8-.1-.3.3-.3.4-.1zm-36.1 1.5c-.8 1.7-.6 3.4-.8 5.2 0 .1-.2.1-.2 0-.4-1.9-.2-3.7.7-5.4 0-.3.4-.1.3.2z"/></g></svg>