<svg id="Layer_1" xmlns="http://www.w3.org/2000/svg" viewBox="0 0 104 137.3"><style>.st0{opacity:.6}.st1,.st2{fill:#fff}.st2{opacity:.1091}.st3{fill:none;stroke:#fff;stroke-miterlimit:10}</style><g id="XMLID_2601_" class="st0"><g id="XMLID_2137_"><g id="XMLID_537_"><path id="XMLID_541_" class="st1" d="M27.8 19.4c5.7-.6 10.7-2.4 16.1-4.4-.9.3-1.9.5-2.8.8 3.8-.9 8 .3 11.9-.2 3.2-.4 6.3-1.6 9.6-1.7 2.6-.1 5.2.2 7.4 1.6 3.1 2 1.6 3.1-1 4.7-14.1 8.4-27.1.5-41.5-1.8-.9-.1-2 .9-2.9.8 11.2 1.8 21.4 7.4 33 5.3 5.1-.9 11.7-2.6 15.7-5.9 4.3-3.6-4.2-5.5-7.1-5.5-5.7.1-11 2.3-16.8 1.9-7-.5-11.6 2.9-18.7 3.6-1 .1-1.9.7-2.9.8z"/></g></g><g id="XMLID_2139_"><g id="XMLID_499_"><path id="XMLID_535_" class="st1" d="M66.5 21.5c-3.2 3.5-3.9 10.9 2 11.9 2.9.5 5.8-.1 8.7.6 2.9.7 5.8 2 8.3 3.8 5.5 3.8 8.9 10.1 7.6 16.9-1.3 6.4-7 11.8-11.9 15.8.7-.6 2.2-.2 2.9-.8C89 65.8 94.8 60.3 96 53.9c1.3-6.8-2.1-13.1-7.6-16.9-2.5-1.7-5.3-3.1-8.3-3.8-2.9-.7-5.8-.2-8.7-.6-6-.9-5.1-8.5-2-11.9-.5.6-2.3.2-2.9.8z"/></g></g><g id="XMLID_2140_"><g id="XMLID_493_"><path id="XMLID_497_" class="st1" d="M73.5 41.3c-1.5.3-3.1.6-4.5 1.1-3 1.1-3.5 3-4 6-.4 2.4-.6 4.8-.7 7.3-.3 4.8 1.4 7.6 6.1 8.8 5.3 1.3 10.5-1.8 13.5-5.9 6.1-8.1-.9-18.1-10.4-17.3-1 .1-1.9.7-2.9.8 5.7-.5 11.3 2.9 12.7 8.7 1.3 5.5-3.3 12-8.4 13.8 1-.3 1.9-.5 2.9-.8-2.9.5-5.8-.1-8.2-1.8-3.2-2.3-2.4-5.6-2.2-9.1.2-4 0-9.3 4.1-11.1-.7.2-1.5.4-2.2.6.4-.1.9-.2 1.3-.3 1-.2 2-.7 2.9-.8z"/></g></g><g id="XMLID_2141_"><g id="XMLID_477_"><path id="XMLID_486_" class="st1" d="M36.6 22.5c.9 2.5 2.7 3.7 3.1 6.6.5 3.9.4 8 .1 11.8-.5 7.5-1.9 15-3.1 22.4.1-.4 2.8-.4 2.9-.8 1.1-7.4 2.6-14.9 3.1-22.4.3-3.6.3-7.3 0-10.9-.3-3.6-2.1-4.5-3.2-7.5-.1-.1-2.9.8-2.9.8z"/></g></g><g id="XMLID_2142_"><g id="XMLID_471_"><path id="XMLID_475_" class="st1" d="M36.6 61.3c-4.5 4.1-10.2 5.9-14.9 9.6-5.5 4.4-10.7 8.7-13.5 15.3-2.5 6-3.5 13.3-3.2 19.8.3 6.1 3.6 11.8 7.3 16.4 12.1 14.9 37.4 11.1 54.4 11.2 10.4 0 21.7-.1 27.7-10.1-.4.6-2.5.1-2.9.8-3.6 6-8.6 8.4-15.5 8.6-6.7.2-13.4 0-20.1 0-5.8 0-11.6.2-17.3-.6-10.8-1.4-19.3-4.1-25.5-13.6C6.6 108.9 6.6 96.8 11 86c2.7-6.6 7.7-10.9 13.1-15.3 4.8-4 10.8-5.8 15.5-10.1-.7.5-2.3.1-3 .7z"/></g></g><g id="XMLID_2143_"><g id="XMLID_465_"><path id="XMLID_469_" class="st1" d="M78.7 70.4C87.8 78.7 97 90.1 96 103.1c-.5 6.5-2.1 13.2-4.5 19.3-2.6 6.7-8.2 9.6-15.2 9.4-1 0-1.9.8-2.9.8 3.9.1 7.9-.6 11.7-1.9 8-2.8 10.1-10 12-17.5 2.3-8.9 2.9-17.5-1.3-25.9-3.3-6.7-8.6-12.5-14.1-17.5-.5-.5-2.6 1-3 .6z"/></g></g><g id="XMLID_2144_"><g id="XMLID_458_"><path id="XMLID_463_" class="st1" d="M37.1 58.2c6.4 2.7 13.3 4.5 20.3 3 2.6-.6 5.8-1.2 7.6-3.3-.5.6-2.3.1-2.9.8-1 1.2-1.8 1.6-3.3 2.1.8-.2 1.6-.4 2.5-.7-7.3 1.9-14.5.1-21.3-2.7-.7-.3-2.2 1.1-2.9.8z"/></g></g><g id="XMLID_2158_"><g id="XMLID_451_"><path id="XMLID_455_" class="st1" d="M38.7 8.1c1 2.6 2.6 4.8 4.7 6.6.1.1 1.3-.3 1.5-.4.2 0 1.3-.5 1.4-.4-2.1-1.8-3.7-4-4.7-6.6-.1-.1-2.9.9-2.9.8z"/></g></g><g id="XMLID_2165_"><g id="XMLID_443_"><path id="XMLID_448_" class="st1" d="M39.1 7.1c6.6.8 13.3 1.9 19.8.4 1.2-.3 2.4-.6 3.6-1 .7-.2 1.3-.4 1.9-.7 1.3-.4 4-.8 2-1.8-2.6-1.4-7.8 0-10.5.5-4.2.7-8.3 1.5-12.6 1.8-1.7.1-4 .2-5.3 1.4.6-.6 2.3-.2 2.9-.8l.6-.6c-1 .3-1.9.5-2.9.8 3.2-.3 6.3-.3 9.5-.9 4.4-.8 8.9-2 13.4-1.7.9.1 2.3 0 3.1.7.1.1-7.6 2.3-9.6 2.3-4.3 0-8.7-.7-12.9-1.2-1.1-.1-2.1.9-3 .8z"/></g></g><g id="XMLID_2172_"><g id="XMLID_437_"><path id="XMLID_441_" class="st1" d="M63.2 6.4c-1.7 2.3-3.3 4.8-3.1 7.8 0-.2 2.9-.6 2.9-.8-.3-3 1.4-5.5 3.1-7.8-.4.7-2.4.2-2.9.8z"/></g></g><g id="XMLID_2179_"><g id="XMLID_431_"><path id="XMLID_435_" class="st1" d="M42 14.9c.8 2.4.7 5.1 1.4 7.5.5 1.5-.3 1.7 1.9 2 1.1.2 2.2.1 3.4 0 3.7-.4 7.8-.5 11.5-1.3.9-.2 1.8-.4 2.7-.7 1.2-.4 3.1-.9 3.5-2.2.3-.7-.2-.9-.3-1.5-.3-1.6-.7-1.8-.3-3.6-.1.4-2.8.3-2.9.8-.4 1.9.8 2.8.7 4.4-.1 1.7-2.2 2.5-3.6 2.9.9-.3 1.9-.5 2.8-.8-2.2.4-4.4.2-6.5.5-2.1.2-4.1.8-6.2.9-.8 0-1.9.1-2.7-.2-1.6-.6-.9-.4-1.3-1.9-.6-2.5-.6-5-1.4-7.5.1-.2-2.7.7-2.7.7z"/></g></g><g id="XMLID_2149_"><g id="XMLID_425_"><path id="XMLID_429_" class="st1" d="M27.3 88.9c-4.6 2.5-6.7 12.1-1.1 14.8 2.6 1.2 6.8.3 9.3-1.1 2.5-1.4 4.2-4 5.2-6.5.4-1.1 1-2.8.3-3.9-.8-1.1-2.8-1.1-4.1-1.2-3.1-.1-7.9.8-9 4.1.2-.5 2.7-.2 2.9-.8.5-1.7 1.6-2.5 3.2-3.1-.9.3-1.9.5-2.8.8 3.4-.6 8.3-.4 6.9 4.2-1.1 3.5-3.7 6.9-7.3 8 .9-.3 1.9-.5 2.8-.8-4 .7-7.4-1.2-7.8-5.5-.3-3.7.9-7.7 4.3-9.6-.8.3-2 .1-2.8.6z"/></g></g><g id="XMLID_2151_"><g id="XMLID_419_"><path id="XMLID_423_" class="st1" d="M42.1 100.6c2.8-1.3 6.3-3.2 8.2-5.7 1.2-1.6 2-3.9-.7-3.8-3.5.2-7.1 2.6-8.6 5.7-.9 1.9-2.7 7.2-.3 8.3 1.4.6 3.6-.2 5-.6 4.4-1.2 8-3.4 9.9-7.8-.2.6-2.5.2-2.9.8-1.1 1.7-2.3 5 .4 5.9 1.1.3 2.2-.1 3.3-.4 2.7-.7 4.8-1.6 6.3-4.2-.3.6-2.5.1-2.9.8-1 1.8-2.2 2.8-4.1 3.6.9-.2 1.8-.5 2.7-.7-4.5 1.1-4.6-2.8-2.7-5.7-1 .3-1.9.5-2.9.8-1 2.3-7.6 10.5-10.1 6-.8-1.5.4-5.4 1-6.9 1.2-2.7 3.2-4.6 6-5.5-.9.3-1.9.5-2.8.8 3.3-.2 1 3.4-.2 4.6-2.1 2.1-4.8 3.7-7.4 4.9.8-.5 1.9-.5 2.8-.9z"/></g></g><g id="XMLID_2186_"><g id="XMLID_371_"><path id="XMLID_417_" class="st1" d="M56.2 92.7c.6-.9 1.2-1.8 1.9-2.7 0 0-.5.1-.4.1-.3.1-.7.2-1 .3-.3.1-.7.2-1 .3-.1 0-.4.1-.4.1-.6.9-1.2 1.8-1.9 2.7 0 0 .5-.1.4-.1.3-.1.7-.2 1-.3.3-.1.7-.2 1-.3 0 0 .3 0 .4-.1z"/></g></g><g id="XMLID_2187_"><g id="XMLID_351_"><path id="XMLID_355_" class="st1" d="M61.1 95.9c0 2.3-1.2 9.2 1.4 9.9.4.1 1.4-.4 1.8-.5 1.1-.3 1.8-.5 2.7-1.4 1.4-1.5 3.2-7.1.8-8.3-1 .3-1.9.5-2.9.8 3.1.4 6.8-.2 9.6-1.7 5.1-2.6.6-4.7-2.2-2.7-2.5 1.7-1.5 6.3-.2 8.5 1.5 2.5 3.7 2.7 6.4 2.2 5.1-1 9.4-4.1 13.2-7.5-.7.6-2.2.2-2.9.8-3.1 2.9-6.6 5.4-10.6 6.8.9-.3 1.9-.5 2.8-.8-3.2.6-5.4-.6-6.6-3.7-.9-2.3-1.1-5.3.8-7.1-1 .3-1.9.5-2.9.8.9-.1 2-.2 2.1 1.1.1 1.6-4.3 3-4.8 3.2.9-.3 1.9-.5 2.8-.8-1.7.3-2.9.3-4.6.1-.7-.1-2.3 1.1-2.9.8 3.2 1.6-.2 8.4-2.5 9.4 1-.3 1.9-.5 2.9-.8-2.6-.3-1.4-7.9-1.4-9.9.1.3-2.8.5-2.8.8z"/></g></g><g id="XMLID_2145_"><g id="XMLID_402_"><g id="XMLID_403_"><path id="XMLID_415_" class="st2" d="M13.9 116.7c1.1 2.9 2.2 5.4 4.2 7.8 1.3 1.4 2.8 2.8 4.4 3.9 6.6 4.4 14.1 5.6 21.8 6.5.5.1 1.3-.4 1.8-.5.2-.1 1.5-.8 1.7-.7-6.6-1.1-13.8-1.8-19.7-5.3-2.4-1.4-4.7-3.1-6.6-5.1-2.1-2.3-3.2-4.9-4.2-7.8.1-.1-3.4 1.2-3.4 1.2z"/><path id="XMLID_414_" class="st2" d="M6.9 106.6c1.2 4.2 1.5 7.2 3.2 10.8 1.1 2.2 2.5 4.1 4.4 5.7 2.1 1.9 4.5 3.5 7.2 4.5 1.4.4 2.7.9 4.1 1.3 3.6 1.1 7.4 1.7 11.2 1.8.8.1.3-3.6-.4-3.7-4.2-.6-8.6-1.2-12.6-2.8-2.5-1-4.8-2.3-7-3.9-4.1-2.8-6.7-7.1-9-11.4.3 1.2.6 2.3.9 3.5 0-.9.1-1.9.1-2.8 0-.6-.8-1.6-1.1-2-.2-.1-1-1.2-1-1z"/><path id="XMLID_413_" class="st2" d="M8.6 103.4c2.4 4.3 5.6 8 10 10.4 5.9 3.2 12.6 4.4 19.3 4.7.5 0 1.4-.5 1.8-.7.2-.1 1.4-.8 1.7-.8-2.7-.2-5.4-.5-8.1-1l-3.9-.9c-2.4-.5-4.7-1.5-6.8-2.8-1.6-.6-2.9-1.4-4.1-2.6-.8-.6-1.5-1.3-2.2-2-1.7-1.8-2.9-3.6-4.1-5.7-.2-.3-3.6 1.4-3.6 1.4z"/><path id="XMLID_412_" class="st2" d="M14.8 107.4c0 1.7.4 3.2 1.4 4.7.5.7 1.1 1.5 1.6 2.2 1.5 1.9 3.5 3.2 5.5 4.5 2 1.3 4.3 1.8 6.7 2l5.4.6c2.2 0 4.4.2 6.6.4.9.2 2 0 2.6-.8.5-.8.2-2.2-.5-2.9-1.7-1.9-3.4-3.7-5.1-5.6-.3-.2-.5-.4-.8-.6h-.9c-1.6.3-3.2.6-4.8.6-1.9.2-2.2.4-3.8 1.3-1.3 1.1-2.8 1.3-4.5.6-4.7.4-7.8-2.2-9.3-7.9.5 1 1 2 1.5 2.9 0-.1-1.2-5.9-1.2-5.9-.1.2-.2.4-.2.7-.1 1.1-.3 2.3-.2 3.2z"/><path id="XMLID_411_" class="st2" d="M14.6 101.3c2.2 3.3 4.3 6.4 7.5 8.8 2.1 1.6 4.1 2.6 6.6 3.6 1.9.7 3.8 1.3 5.8 1.8 1.5.4 3 .7 4.5 1 2.8.6 5.6.8 8.5.7.4 0-1-.4-.8-.3-.8-.2-1.7-.6-2.6-.7-3.9-.1-7.6-1.1-11.1-2.9-3.9-.3-7.1-1.8-9.6-4.4-2-2-3.6-4.3-5.1-6.7-.2-.3-1.5-.5-1.8-.6-.1.2-1.8-.2-1.9-.3z"/><path id="XMLID_410_" class="st2" d="M4.6 111.5c.4.8.8 1.6 1.2 2.5.8 1.2 1.8 2.4 2.9 3.4 1.8 1.7 3.7 3.3 6 4.4 6 3.1 12.5 4.2 19.2 4.9.1 0 .5-3.7.5-3.7-6.5-.7-13.4-1.6-19.2-4.9-1.7-1-3.4-2.1-4.9-3.4-1.1-1-2.2-2-3-3.2-1-1-1.7-2.2-2.1-3.6.1.2-.3 1.7-.3 1.9-.2.2-.5 1.3-.3 1.7z"/><path id="XMLID_409_" class="st2" d="M9.8 119.4c.7 1.9 1.7 3.5 3.1 4.9.6.8 1.4 1.5 2.1 2.1 2.1 1.8 4.4 3.1 6.9 4.3 6.6 3.2 13.7 4.1 20.9 4.9-1.2-.1-2.4-.6-3.6-.9-1.2-.3-2.4-.5-3.7-.7-4.3-.3-8.2-1.5-11.8-3.7-1.9-.8-3.7-1.8-5.2-3.2-2.4-1.8-4.1-4.1-5.1-6.8-.1-.2-1.7-.4-1.8-.5 0 0-1.7-.3-1.8-.4z"/><path id="XMLID_408_" class="st2" d="M19.2 105.9c.5 2.4.7 3.5 1.8 5.7 1.3 2.6 3.2 4.3 5.6 5.9 1.5 1 4 2.6 5.5 3.3 4.6 2 9.8 2.9 14.7 4-.7-.3-1.5-.6-2.2-.9 2 1 4 2 6 2.9.2.1-.1-2-.1-1.9 0-.1-.2-1.8-.5-1.8-6.1.3-11.6-.9-16.7-3.7-3.5-1.7-6.7-3.9-9.6-6.5-2.2-3.3-3.8-6.4-4.8-10.3-.1-.3 0 .6 0 .6 0 1 .1 1.9.3 2.7z"/><path id="XMLID_407_" class="st2" d="M5.1 102.2c.1 1.8.5 3.6 1.2 5.2.7 1.7 1.7 3.3 3 4.7 2.4 2.7 5.3 4.8 8.6 6.3 5.5 2.6 11.7 3.5 17.8 4.1.4 0 1.2-1.2 1.3-1.4 0 0 1.2-1.5 1.1-1.5-8.4-.8-18-2.4-24.4-8.4-1.4-1.3-2.8-2.8-3.9-4.4-1.6-2.3-2.1-4.9-2.4-7.6 0 .2-1.1 1.4-1.2 1.5 0 .2-1.1 1.3-1.1 1.5z"/><path id="XMLID_406_" class="st2" d="M9.9 99.9c.5 2.8 1.2 5.3 2.8 7.7 1.3 2 2.9 3.4 4.8 4.7 2.7 1.8 5.3 3.3 8.4 4.2 1.9.5 3.7 1 5.6 1.5 2.8.2 5.5.9 8 1.9.9.3 4-1.8 2.5-2.6-2.2-1.2-4.3-2.4-6.5-3.6-2-.3-3.9-.8-5.8-1.4-1.1-.4-2.2-.7-3.4-.7-1.5-.1-2.9-.4-4.3-1-1.7-.4-3.2-1.3-4.5-2.4-2.6-2.1-3.4-5.5-4-8.6.1-.4-3.6.1-3.6.3z"/><path id="XMLID_405_" class="st2" d="M17.2 110.7c.7 3 1.5 5.7 3.3 8.2 1.4 2 3 3.7 4.9 5.1.4.6.9.9 1.5.9 1.8.3 3.4 1.2 4.8 2.7 2.3.4 4.7.8 7 1.2 3.3.5 6.4 1.3 9.5 2.6.3.1 1.2-1.3 1.3-1.4 0 0 1.1-1.6 1-1.6-2 .2-4 .5-6 .7.6 0 1.2-.1 1.8-.1-1.3-.3-2.7-.5-4-.8-3.3-1.6-6.7-3.1-10.2-4.5-2.2-.9-4.4-2.4-6.2-4.1-1.3-1.2-2.4-2.6-3.4-4-1.8-2.6-2.6-5.2-3.3-8.2 0 .1-1 1.5-1.1 1.6 0 .3-.9 1.4-.9 1.7z"/><path id="XMLID_404_" class="st2" d="M5.9 115.2c1.2 2.8 1 2.8 3.1 5.1 2 2.2 4.4 4 7 5.4 6.1 3.2 12.5 4.2 19.4 5.1l-.6-1.8c0-.1-.5-1.7-.7-1.8-11-1.4-24-4-29.1-15.1-.1-.3.1.6.1.6.2.8.5 1.7.8 2.5z"/></g></g></g><g id="XMLID_2146_"><g id="XMLID_387_"><g id="XMLID_388_"><path id="XMLID_400_" class="st2" d="M20.4 121.6c3.9 3.3 8.1 5.7 12.7 7.9 1.9.9 3.8 1.7 5.7 2.6 3.8 1.5 7.7 2.6 11.6 3.5.7.2 2-.5 2.6-.8-.1 0 1.3-.5.7-.7-2-.5-3.9-1-5.9-1.5-3.9-1.1-7.6-2.6-11.1-4.5-2.8-1-5.5-2.4-7.9-4.2-1.8-1-3.4-2.2-4.8-3.5-.1-.1-1.7.6-1.8.6 0-.1-1.7.6-1.8.6z"/><path id="XMLID_399_" class="st2" d="M16.2 106.7c4.3 2.9 8.6 5.7 13.4 7.8 4.8 2 9.5 3.4 14.5 4.7.6.2 2-.7 2.5-.9-.1 0 1.3-.5.7-.7-4.9-1.3-9.7-2.7-14.4-4.7-4.8-2-9-4.8-13.3-7.7-.2-.1-1.7.7-1.7.7 0 .1-1.6.9-1.7.8z"/><path id="XMLID_398_" class="st2" d="M22.4 104.6c5.4 3.7 10.5 7 16.6 9.3 4.6 1.7 8.9 2.9 13.6 4.1.3.1 1 .4 1-.1 0-.3-2.3-.8-2.5-.9-9.2-2.2-17.5-6-25-11.5-1.1-.5-2.7-.2-3.7-.9z"/><path id="XMLID_397_" class="st2" d="M12 115.1c4.4 2.8 8.8 5.4 13.5 7.5 4.7 2.1 9.4 3.4 14.4 4.7.3.1 1-3.6.5-3.7-5-1.3-9.8-2.6-14.4-4.7-4.8-2.1-9.1-4.6-13.6-7.5.1.1-.3 1.9-.3 1.9.1-.1-.2 1.7-.1 1.8z"/><path id="XMLID_396_" class="st2" d="M22.6 126.6c5.6 2.8 11 5.5 17 7.3 2.4.7 5 1.3 7.3 1.9 0 0 1.8.6 1.9.2.1-.3-1.7-.6-1.8-.7-4.5-.9-8.8-2.3-12.9-4.2-2.7-1.2-5.4-2.4-8.1-3.8-.8-.4-1.8-.5-2.6-.7.4.1-1.2-.2-.8 0z"/><path id="XMLID_395_" class="st2" d="M13.5 119.3c5.2 3.3 10.4 6.2 16.2 8.5 4.5 1.8 7.2 2.3 11.8 3.5.2.1-.4-1.9-.4-1.9-.1-.3-.4-1.6-.8-1.7-6-1.2-11.7-3.2-17.2-5.9-3.8-1.7-7.4-3.7-10.8-6.1.2.1.5 1.6.6 1.8 0 .2.3 1.6.6 1.8z"/><path id="XMLID_394_" class="st2" d="M12.2 113c.8 1.1 1.5 2.1 2.5 3.1 1.2 1.1 2.3 2.3 3.5 3.4 1.9 2.1 4.1 3.8 6.7 5 3.3 1.8 6.8 3.4 10.4 4.7 6.5 2.4 9 2.1 16.7 2.9 0 0-1.1-1.5-1.2-1.5-.3-.3-.9-1.2-1.3-1.3-4.3-1.1-8.6-2.3-12.8-3.6-3.6-1.2-7.1-2.8-10.5-4.6-3.3-1.9-6.6-3.7-10-5.3-2.3-1.6-4.3-3.6-5.9-5.9.7.9 1.2 2.1 1.9 3.1z"/><path id="XMLID_393_" class="st2" d="M18 110.8c.6.6 1.1 1.2 1.7 1.9.7.7 1.4 1.3 2.1 2 1.6 1.1 3.3 2.2 4.9 3.3 2.3 1.4 4.7 2.6 7.3 3.5 2.1.8 3.4 1.3 5.5 1.9 1.7.5 3.3 1 5.1 1.3 3.4.7 6.7 1.8 9.9 3.3.9.3 2.9-2.7 2.4-2.9-3.9-1.8-7.9-3.9-12-5.5-1.4-.2-2.7-.4-4.1-.6-1.9-.1-3.7-.4-5.4-1-6-1.7-11.7-5.1-17-8.2.9.8 1.8 1.6 2.7 2.5-.1-.1-2.7-5.2-2.7-5-.1.4-.1.9-.2 1.3-.1.6 0 1.6-.2 2.2z"/><path id="XMLID_392_" class="st2" d="M24.5 111.8c3 2.6 6.2 5 9.7 6.9 4.4 1.9 8.8 3.6 13.3 5.3 5.1 1.5 10.2 3 15.3 4.7-.1 0 .3-3.8-.1-3.8-4 .2-7.9-.4-11.7-1.8-4.6-1.5-9.2-3.1-13.7-5 .5.4.9.7 1.4 1.1-3-3.1-6.4-5.6-10.2-7.6-1.6-1-3.1-2.2-4.4-3.5.1.1.2 1.8.2 1.9-.1.2-.1 1.6.2 1.8z"/><path id="XMLID_391_" class="st2" d="M11.8 109.4c4.8 3.7 9.9 6.7 15.5 9.1 2.7 1.3 5.6 2.3 8.5 3.2 3.8 1.2 7.7 2 11.7 2.4.1 0 1.1-1.5 1.2-1.5 0 0 1-1.5 1.1-1.5-4-.4-7.9-1.2-11.7-2.4-2.9-.8-5.8-1.9-8.5-3.2-5.5-2.4-10.7-5.5-15.5-9.1-.1-.1-2.4 2.9-2.3 3z"/><path id="XMLID_390_" class="st2" d="M13.3 103.4c1.4 1.9 2.9 3.4 4.8 4.8 3.4 2.5 6.7 4.9 10.6 6.7 1.9.9 3.9 1.7 5.8 2.4 2.8 1.1 5.6 1.9 8.4 2.7 3.2 1 6.6 1.6 10 2 .8.1 1.8 0 2.7-.1-.2 0 1.3-.1.9-.3-3.2-1.5-6.8-3.6-10.2-4.7-1.9-.5-3.7-1-5.6-1.4-4.2-1.1-8.2-2.5-12-4.4-1.3-.7-2.7-1.3-4.1-1.7-1.1-.2-2.1-.7-2.9-1.4-1.9-1.4-3.3-2.9-4.7-4.8-.1-.1-1.8.1-1.9.1 0-.1-1.7.2-1.8.1z"/><path id="XMLID_389_" class="st2" d="M22.4 116.4c3.7 3.4 7.8 6.1 12.2 8.5 2.5 1.4 5.2 2.7 7.9 3.7 6.2 1.4 12.3 3 18.4 4.9.5.2 1.6-3.2 1.9-3.2H53l3.3.3c-11.1-4.7-22.9-8.9-31.9-17.3.1 0-2.2 2.9-2 3.1z"/></g></g></g><g id="XMLID_2147_"><g id="XMLID_372_"><g id="XMLID_373_"><path id="XMLID_385_" class="st2" d="M71.2 118.2c-2.3.8-4.7 1.6-7 2.4-5.9 1.8-11.9 2.9-18 3.3-6.2.6-12.2.4-18.5 0-.4 0 1.1.4.9.3.8.2 1.7.5 2.6.6 4.9.5 9.9.6 14.8.4 3.7-.1 7.4-.6 11-1.3 1.3-.2 2.5-.4 3.8-.7 4.9-1 9.6-2.4 14.2-4.2-.3.1-1.6-.4-1.8-.5-.5 0-1.6-.4-2-.3z"/><path id="XMLID_384_" class="st2" d="M77.1 98.8c-2.2 1-4.5 2-6.7 3.1 1-.4 2-.8 3-1.3-4.7 1.4-9.5 2.8-14.2 4.1-3.6.8-7.3 1.3-11 1.6-2 .2-18.3 1.4-18.4-.5 0 .4-3.5 1-3.5 1.5v.5h.1c3.7.5 7.4.7 11.1.5 3.7 0 7.4-.2 11.1-.8 5-.7 9.9-1.8 14.7-3.2 5.9-1.8 10.9-4 16.5-6.6.4-.2.4-.2 0-.1-.9.3-1.8.8-2.7 1.2z"/><path id="XMLID_383_" class="st2" d="M73 103.5c-4.4 2.2-9 4-13.7 5.3-3.5 1.1-7.1 1.9-10.8 2.5-3.6.7-7.3 1.2-11 1.3-5 .4-10 .1-14.9-.8.2 1.2-.6 2.5-.5 3.7v.5c4.9.5 9.9.7 14.8.4 3.7-.2 7.4-.6 11-1.3 3.7-.5 7.2-1.3 10.8-2.5 4.7-1.3 9.3-3.1 13.7-5.3.2-.1.3-1.8.3-1.9.1 0 .2-1.8.3-1.9z"/><path id="XMLID_382_" class="st2" d="M82.9 96.9c-4.4 2.4-9 4.1-13.9 5.2-4.6 1.7-9.4 2.8-14.3 3.3-2.5.2-4.9.5-7.4.7-4.9.3-9.9.1-14.8-.4 1.2.4 2.3.7 3.5 1.1-.1-.4 0-.7.3-.9-.1.3-3.5-1.3-3.6-1-.2.3-.3.6-.3.9 0 .4 3.2 1.1 3.5 1.1 4.9.6 9.8.7 14.8.4 4.9-.3 9.8-.9 14.7-2 2.5-.5 4.9-1.2 7.3-1.9 4.8-1.3 9.4-3.1 13.9-5.4-.2.1-1.7-.5-1.8-.6-.3-.1-1.5-.7-1.9-.5z"/><path id="XMLID_381_" class="st2" d="M72.8 107.9c-4.4 2.1-9 3.8-13.7 5.2-3.5 1.1-7.1 1.9-10.8 2.4-3.6.7-7.3 1.2-11 1.3-4.9.3-9.9.1-14.8-.4.4 1.2.8 2.3 1.3 3.5 0-.2.1-.5.1-.7.1-.4-.5-1.5-.6-1.8-.1-.3-.7-1.4-.6-1.8-.2.3-.3.6-.2.9 0 .3.8 3.4 1.3 3.5 4.9.5 9.9.6 14.8.4 3.7-.2 7.4-.6 11-1.3 3.7-.5 7.2-1.3 10.8-2.4 4.7-1.4 9.3-3.1 13.7-5.2.1-.1-1.3-3.6-1.3-3.6z"/><path id="XMLID_380_" class="st2" d="M89.8 112.2c-8.2 3-16.3 6.1-24.5 9.1-6 1.4-12 2-18.1 1.9-2.5.2-4.9.1-7.3-.3-3.6.5-4.6.2-3-.9-1.1.5-2.4.8-3.6 1.3-.5.2-.6.4-.7.9h.1c7.5.5 14.9.8 22.5-.4 5-.7 10.2-1.7 15.1-3.2 2.9-.9 5.8-2 8.6-3.1 2.5-1 5-2 7.5-2.9 2.4-1.1 4.7-2.3 6.9-3.7-1 .6-2.4.7-3.5 1.3z"/><path id="XMLID_379_" class="st2" d="M89.5 100.4c-4.2 2.9-8.6 5.4-13.1 7.6-3.6 2-7.3 3.5-11.3 4.5-4.5 1.6-9 2.8-13.7 3.6-7.2 1.5-14.4 1.7-21.7.7-.3.2-.5.5-.8.7.3-.2.7-.5 1-.7.1-.1 0-.1-.1-.1-.4 0-.9.3-1.3.5-.3.1-2.1.7-2.1 1.1-.1.4 0 .8.1 1.2h.1c5.1.4 9.9.8 15 .5 5-.3 10.1-.8 15-1.9 2.6-.6 5.1-1.2 7.7-1.8 2.7-1 5.5-2 8.2-3 3.2-.9 6.2-2.2 9-3.9 3.4-1.7 6.7-3.6 9.8-5.8.3-.1-1.7-3.3-1.8-3.2z"/><path id="XMLID_378_" class="st2" d="M97.9 97.7c-4 2.2-8 4.6-12.1 6.7-4.9 2.5-10.1 4.5-15.4 6-4.4 1.2-8.8 2.1-13.3 2.7-6.1.8-11.9.7-18.1.6.5.1 1 .3 1.6.4v-.1l-.3 2.4.1-.1c.8-1 .5-4.1-1.4-3.3-.7.3-1.1.7-1.6 1.2s-.5 1.8-.3 2.4c.3.9 1 1 1.9 1 5 .1 10 .3 15-.1 5.8-.5 11.5-1.6 17.1-3.2 4.4-1.2 8.6-2.8 12.8-4.7 2-.8 4-1.8 5.9-3 2.7-1.4 5.3-3.1 7.7-5 .3-.2.3-1.6.3-1.9 0-.1.1-2 .1-2z"/><path id="XMLID_377_" class="st2" d="M101.4 96.5c-4 2.6-7.9 5.2-12.2 7.3-5.6 2.7-11.6 4.7-17.6 6.2-4.8 1.2-9.6 2.1-14.6 2.5-6.2.6-12.2.3-18.5 0 .2 1.1.5 2.2.7 3.3.2-.2.3-.4.5-.6.6-.3-.7-3.6-.5-3.7-.6.4-.7.7-.8 1.5-.1.5.1 3.3.7 3.3 4.9.3 9.8.6 14.8.4 6.2-.3 12.3-1.3 18.3-2.9 4.8-1.2 9.5-2.8 14.1-4.7 5.7-2.4 10.6-5.4 15.8-8.8.2-.1-.2-1.8-.2-1.9-.1 0-.5-1.9-.5-1.9z"/><path id="XMLID_376_" class="st2" d="M90 93.2c-4.4 2.5-8.9 4.8-13.5 7-4.4 2.3-8.9 4.1-13.7 5.4-4.7 1.4-9.5 2.5-14.4 3.1-7.4 1.5-14.7 1.3-21.9-.5-.7.9-1.5 1.9-2.2 2.8.1-.1.2-.1.3-.2.5-.3.9-1 1.2-1.5.2-.3.8-1.4 1.1-1.5-1 .6-1.7 1.7-2.3 2.6-.3.5-.6.8-.5 1.4v.1c5 .3 9.8.7 14.9.4 4.9-.3 9.9-.9 14.7-2 4.8-1.1 9.6-2.4 14.2-4.2 3.3-1.5 6.6-3 9.9-4.7 3.4-1.7 6.7-3.4 10-5.3.9-.5 1.2-2.4 2.2-2.9z"/><path id="XMLID_375_" class="st2" d="M92.6 93.9c-5.6 3.9-11.7 6.6-18.3 8.2-4.5 1.5-9.2 2.8-13.8 3.9-4.7 1-9.5 1.6-14.4 1.9-4.9.1-9.9.1-14.8-.1.8.9 1.7 1.7 2.5 2.6-.1-.5.1-.8.5-1 .1-.1-2.3-2.6-3-2.3-.5.2-.4.6-.4 1.1 0 .8 1.7 2.6 2.5 2.6 5 .1 10 .3 15 0 6.2-.4 12.2-1.5 18.2-3 2.4-.5 4.7-1.2 7-2.1 2.4-.5 4.6-1.5 6.6-3 2-1.3 4.2-2.5 6.4-3.5 3.4-1.5 6.5-3.3 9.6-5.4.4-.2-1.1-.1-.9-.1-.7 0-2.1-.1-2.7.2z"/><path id="XMLID_374_" class="st2" d="M101.8 101.5c-4.8 4-10.1 7.1-15.9 9.1-3.4 1.4-6.9 2.7-10.5 3.8l-7.2 1.8c-9.8 1.9-19.6 2.5-29.4 1.7-.5.7-1 1.5-1.5 2.2.1-.1.3-.1.4-.2.5-.3.9-1.4 1.2-1.8.1-.2.5-1.2.7-1.3-.8.4-1.1 1-1.6 1.7s-1 1.5-1.2 2.3v.1c5 .3 9.9.6 14.9.4 4.2-.2 10.6-1 14.7-1.9l7.2-1.8c4.7-1.5 9.4-3.3 14-5.2 4.4-2.2 8.1-4.8 12.2-7.7.4-.3.8-1.2 1.1-1.6.2-.3.6-1.4.9-1.6z"/></g></g></g><g id="XMLID_2193_"><g id="XMLID_357_"><g id="XMLID_358_"><path id="XMLID_370_" class="st2" d="M39.7 69.6c1.2.8 2.6 1.7 3.8 2.4 1.3.6 2.7 1.2 4 1.9 2.4.5 4.7.7 7.1.7 3.2.1 6.4.4 9.5-.2 3.7-.6 1.9-.2 6.9-3 .4-.2.4-.6-.1-.5-1.4.2-14.2 2.7-15.4 2.8.8.1 1.6.1 2.4.2-5.4-.5-10.2-2.4-14.6-5.6-.2-.1-1.7.6-1.8.6-.1.1-1.7.8-1.8.7z"/><path id="XMLID_369_" class="st2" d="M35.1 65.7c1 1.4 2.3 2.4 3.8 3 1.1.5 2.1 1.1 3.1 1.7.8.3 1.6.5 2.5.7 4.1.7 8-.4 11.9-1.6 1.3-.4 2.5-.9 2.1-2.5-.4-1.6-1.7-1.5-3-1.1l-8.7 1.5c-1.6 0-3.1-.4-4.6-1-3.1-1.1-6-2.3-8.9-3.7-.4-.2.4 1 .3.9.5.6.9 1.6 1.5 2.1z"/><path id="XMLID_368_" class="st2" d="M37.4 56.3c5.4 1.8 11 3.4 16.7 2.4 3.9-.7 6.5-2 10-3.7 1-.5 1-.9-.2-.4-4.9 2.4-10.1 3.1-15.4 2.3-2.7-.5-5.3-1.3-7.9-2.1-.6-.2-2 .7-2.5 1 .1-.1-1.2.4-.7.5z"/><path id="XMLID_367_" class="st2" d="M41.4 63.6c3 1.3 5.2 2.5 8.5 2.8 1.8.1 4.1-.3 6-.4 2.6-.1 3-.2 5.9-1.4 1.3-.6 2.6-1.3 4-1.9 1.1-1.3 2.2-2.5 3.2-3.8 1.1-1.4.5-3.9-.1-5.5-.1-.8-.5-1.4-1.2-1.6-.6-.2-1.2-.1-1.7.3-1.5 2.1-3.1 4.1-4.8 6-1.8 2.2-3.7 4.2-5.9 6 .3-.1.6-.3 1-.4-3.7 1.1-7 .8-10-1-1.6-.7-3.1-1.7-4.5-2.8-.2-.1-.4 1.9-.4 1.9s-.3 1.6 0 1.8z"/><path id="XMLID_366_" class="st2" d="M44 54.7c3.4 1.1 6.8 2.4 10.3 2.9 2.7.4 5.6.5 8.3.1 3.1-.4 5.5-1.5 8.4-2.8.5-.3-.8-.6-.8-.6-.6-.2-2-.9-2.6-.6-3.7 1.9-7.6 2.9-11.8 2.8-4-.4-7.9-1.1-11.7-2.2-1-.3-1.3 0-.1.4z"/><path id="XMLID_365_" class="st2" d="M33.4 64.2c2.5 1.2 5.1 2 7.8 2.4 2.1.4 4.2.4 6.4.1 2.1-.1 4.2-.4 6.2-1.1 1.3-.4 2.5-1 3.7-1.6.5-.2.5-1.5.5-1.8 0 .1.3-2 0-1.9-2.6.8-5.2 1.7-7.8 2.5-2.1.4-4.2.4-6.3.2-1.4 0-2.8-.2-4.2-.6-2-.3-3.9-1-5.7-1.9-.1-.1-1.2 3.4-.6 3.7z"/><path id="XMLID_364_" class="st2" d="M38.5 71.9c2.3 1.2 3.4 2 5.5 2.5 1.7.4 3.5.9 5.3 1.1 2.9.3 5.8.4 8.7-.1 3.2-.5 5.3-1.3 8.3-2.5.5-.2-.9-.6-.8-.5-.6-.2-2-.8-2.6-.5-2.5 1.1-5.1 1.8-7.8 2-3.9 1-7.8.9-11.7-.2.8.2 1.5.4 2.3.6-1.3-.6-2.6-1.2-3.9-1.7-.8-.3-1.8-.5-2.6-.7-.1-.1-1.1-.2-.7 0z"/><path id="XMLID_363_" class="st2" d="M45.8 62.3c2.6 1.3 5.4 2.2 8.3 2.6 2.1.5 4.2.8 6.4.7 2.1.1 4.2 0 6.3-.1 2.5-.4 5-1 7.5-1.8-.2.1-1.7-3.1-2.4-2.9-2.4.8-4.9 1.5-7.4 1.9-2.2.4-4.4.5-6.5.3-2.1.1-4.2-.2-6.3-.8-2.4-.8-4.5-2.1-6.4-3.7l.1 1.9c0 .2.1 1.8.4 1.9z"/><path id="XMLID_362_" class="st2" d="M31.6 58.3c2.1 1.5 4.4 2.6 6.9 3.2 2.6.8 5.3 1.2 8 1.2 2.8.1 5.6-.2 8.3-1 1.5-.5 3-1 4.5-1.6.7-.2 2.2-3.5 1.4-3.3-4.4.9-8.9 2.3-13.4 2.3-1.2 0-2.4-.1-3.5-.1-3.6-.4-6.9-1.6-9.8-3.7-.3-.2-2.3 3-2.4 3z"/><path id="XMLID_361_" class="st2" d="M36.5 56c2.3 1.6 4.6 3.2 7.5 3.7 2 .4 4.1.2 6.1 0s4.1-.4 6.1-1c2.3-.7 4.3-1.8 6.3-3.1 1-.7 1.6-1.2 1.2-2.4-.3-1-1.9-2.8-3-3-1.9-1.3-3.8-1.5-5.5-.8-1.3.4-2.3 1.3-3 2.7-2.4 1.9-5 3.7-7.7 5.2.5-.2.9-.3 1.4-.5-1.9-.5-3.9-.9-5.8-1.4-.8-.2-1.9.1-2.7.1.1.1-1.3.2-.9.5z"/><path id="XMLID_360_" class="st2" d="M43.7 66.7c3.6 2.1 6.8 3.8 11 4.2 1.3.1 7.1.2 8.3.1 1.8-.2 3.7-.4 5.5-.7 1.9-.3 3.4-1.4 5.2-2.3.5-.3.3-.5-.1-.6-.8-.2-2.2.3-2.9.6-1.3.5-2.5 1-3.8 1.4.5-.1 1-.3 1.4-.4-2.2.2-4.3.3-6.5.5-2.2-.2-4.3-.7-6.4-1.5-1.4-.4-2.8-.9-4.1-1.5-2-.7-3.9-1.7-5.6-2.9-.2-.1-2.1 3.1-2 3.1z"/><path id="XMLID_359_" class="st2" d="M34.9 68.1c3.4 1.6 3.9 2 7.8 2.5 2.8.4 5.6.4 8.5-.1 2.7-.4 5.3-1.2 7.8-2.5.4-.2-.9-3.7-1.2-3.6-2.5 1.2-5.1 2.1-7.8 2.5-5.5.9-11 0-16.2-2.4-.1-.1.5 1.9.4 1.8 0 .5.3 1.6.7 1.8z"/></g></g></g><g id="XMLID_2194_"><g id="XMLID_342_"><g id="XMLID_343_"><path id="XMLID_348_" class="st2" d="M42.4 21.8c3.9.4 7.8.7 11.7 1.1l-.9-1.7c-.1-.2-.7-1.5-1.1-1.5-3.9-.4-7.8-.7-11.7-1.1.1 0 .9 1.6 1 1.6.1.1.8 1.6 1 1.6z"/><path id="XMLID_347_" class="st2" d="M48.2 19.6c4.1.3 8.1.6 12.2.9.2 0 .5-3.7.4-3.8-4.1-.3-8.1-.6-12.2-.9-.1.1-.4 3.8-.4 3.8z"/><path id="XMLID_346_" class="st2" d="M65.7 19.3c-.1 0-.2-3.7-.5-3.7 0-.1.2 3.7.5 3.7z"/><path id="XMLID_345_" class="st2" d="M43.6 12.2c4.1.2 8.2.3 12.3.5.9 0 2.1 0 3-.3.4-.1.5-.2 0-.2-3.9-.1-7.8-.2-11.7-.4-.9 0-1.8.1-2.7.2.2 0-1.3.2-.9.2z"/><path id="XMLID_344_" class="st2" d="M63.5 24.2c.2 0 1-1.5 1-1.6 0 0 .9-1.6 1-1.6-.2 0-1 1.5-1 1.6 0 0-.9 1.6-1 1.6z"/></g></g></g><g id="XMLID_2200_"><g id="XMLID_334_"><g id="XMLID_335_"><path id="XMLID_341_" class="st2" d="M41.3 17.9c1.7-.2 3.5-.3 5.2-.5.3 0 1.1-1.4 1.2-1.5.1-.1 1-1.5 1.1-1.5-1.7.2-3.5.3-5.2.5-.2 0-1.1 1.4-1.2 1.5 0 .1-.9 1.5-1.1 1.5z"/><path id="XMLID_340_" class="st2" d="M53.5 26.4c1.9 0 3.9 0 5.8-.1.3 0 1-1.4 1.1-1.6l.9-1.6c-1.9 0-3.9 0-5.8.1-.2 0-1 1.5-1.1 1.6l-.9 1.6z"/><path id="XMLID_339_" class="st2" d="M45.1 25.4c3.6.1 7.1-.2 10.6-.8 0 0-.9-1.7-.9-1.6 0-.1-.8-1.6-1.1-1.6-3.5.6-7 .9-10.6.8l.9 1.7c.1.1.8 1.5 1.1 1.5z"/><path id="XMLID_338_" class="st2" d="M51.1 23.2c3.6 0 7.3-.4 10.8-1.1.4-.1.2-3.7.4-3.8-3.6.7-7.2 1.1-10.8 1.1-.4.1-.4 3.8-.4 3.8z"/><path id="XMLID_337_" class="st2" d="M55.6 22c3.9 0 7.8-.4 11.7-1.2.1 0-.5-3.7-.5-3.7-3.9.8-7.8 1.1-11.7 1.2-.1 0 .2 3.7.5 3.7z"/><path id="XMLID_336_" class="st2" d="M47.2 15.8c2.3-.2 4.5-.3 6.8-.5s4.3-.8 6.8-1.3c.3-.1-.6-.1-.6-.1-.9 0-1.8.1-2.7.2-3.2.5-6.3.9-9.5 1.4-.7 0-3 .4-.8.3z"/></g></g></g><g id="XMLID_2203_"><g id="XMLID_325_"><g id="XMLID_326_"><path id="XMLID_332_" class="st2" d="M45.8 18.7c.2 0 1.1-1.4 1.2-1.5 0 0 1-1.5 1.1-1.5-.2 0-1.1 1.4-1.2 1.5 0 0-1 1.5-1.1 1.5z"/><path id="XMLID_331_" class="st2" d="M52.1 27.5h6.2c.3 0 1-1.4 1.1-1.5l.9-1.6h-6.2c-.2 0-1 1.5-1 1.6 0-.1-.8 1.5-1 1.5z"/><path id="XMLID_330_" class="st2" d="M43.8 26.4c3.9.1 7.7-.1 11.6-.5l-.9-1.7c-.1-.1-.8-1.6-1.1-1.6-3.8.4-7.7.5-11.6.5 0 0 .9 1.7.9 1.6.1.3.9 1.7 1.1 1.7z"/><path id="XMLID_329_" class="st2" d="M49.8 24.3c3.9.2 7.7-.1 11.5-.8.5-.1.5-3.7.8-3.7-4 .6-7.9.8-11.9.7-.4 0-.5 3.8-.4 3.8z"/><path id="XMLID_328_" class="st2" d="M54.3 23.1c4.3.2 8.6-.1 12.9-.9.1 0-.4-3.7-.5-3.7-4.3.8-8.6 1.1-12.9.9 0-.1.2 3.7.5 3.7z"/><path id="XMLID_327_" class="st2" d="M44.9 16.8c2.9 0 5.5.2 8.3-.1 2.5-.3 4.6-1 7.3-1.6.4-.1-1.2-.1-.9-.1-.9.1-1.8.1-2.6.3-2 .5-4 .9-5.9 1.4l3.3-.3h-5.8c-.9 0-1.8.1-2.7.2.1 0-1.4.2-1 .2z"/></g></g></g><g id="XMLID_2249_"><g id="XMLID_316_"><g id="XMLID_317_"><path id="XMLID_324_" class="st2" d="M59.1 13.6c1.2 0 2.4-1.3 3.6-1.3-1.2.1-2.4 1.3-3.6 1.3z"/><path id="XMLID_323_" class="st2" d="M50.5 1.6c.3 0 1.1-1.3 1.2-1.4 0 0 1-1.5 1.1-1.5-.3 0-1.1 1.3-1.2 1.4 0 0-1 1.5-1.1 1.5z"/><path id="XMLID_322_" class="st2" d="M49.6 9.9c3.2-.4 6.4-.7 9.7-.9l-.9-1.7c-.1-.1-.8-1.6-1.1-1.6-3.2.1-6.4.4-9.6.9 0 0 1 1.6.9 1.6 0 .2.9 1.8 1 1.7z"/><path id="XMLID_321_" class="st2" d="M55.5 7.8c3.3-.5 6.6-.9 9.9-1.1.4 0 .3-3.7.4-3.8-3.3.2-6.6.6-9.9 1.1-.4.1-.2 3.7-.4 3.8z"/><path id="XMLID_320_" class="st2" d="M60.1 6.6c3.5-.5 7-.9 10.5-1.2.1 0-.3-3.8-.5-3.7-3.5.3-7 .7-10.5 1.2 0-.1.5 3.7.5 3.7z"/><path id="XMLID_319_" class="st2" d="M54.1.1c3.3-.4 6.6-.9 9.9-1.5.5-.1.4-.1 0-.2-.9-.1-2 .1-3 .3-3.4.4-6.8.9-10.2 1.6-.3.1.6 0 .6 0 .9-.1 1.8-.1 2.7-.2z"/><path id="XMLID_318_" class="st2" d="M63.2 10.5c1.8-.1 3.6-.1 5.4-.2.2 0 1-1.5 1-1.6 0 0 .9-1.6 1-1.6-1.8.1-3.6.1-5.4.2-.4 0-1 1.3-1.1 1.5 0 0-1 1.7-.9 1.7z"/></g></g></g><g id="XMLID_2256_"><g id="XMLID_306_"><g id="XMLID_307_"><path id="XMLID_314_" class="st2" d="M66.3 40.9l1.2 1.8c.2.3 3.4-1.5 3.6-1.3l-1.2-1.8c-.3-.3-3.4 1.5-3.6 1.3z"/><path id="XMLID_313_" class="st2" d="M56.4 23c.1 2.8.6 4.7 2.2 7.1-.1-.2 2.6-2.6 2.3-3-1.6-2.3-2.1-4.3-2.2-7.1 0 .3-1 1.3-1.2 1.5-.1.2-1.1 1.2-1.1 1.5z"/><path id="XMLID_312_" class="st2" d="M58.6 25.4c-.4 2.9-.2 5.6 1.1 8.2 1.1 2.2 2.4 4.1 4.1 6 .2.3-.2-.6-.2-.6-.4-.8-.9-1.6-1.4-2.3-.5-.7-1-1.3-1.5-2 .3.5.6 1 .9 1.6-.6-1.2-.9-2.5-1-3.8-.4-1.3-.4-2.6 0-3.9.1-.4-.8-1.4-.9-1.6-.1-.2-1.1-1.5-1.1-1.6z"/><path id="XMLID_311_" class="st2" d="M66.9 22.7c-1 1.8-2.5 4.2-1.7 6.4.4.6.8 1.3 1.3 1.8 1.6 1.9 3.1 3.7 4.7 5.6.1.1.1.1.1 0-.1-.4-.3-.9-.5-1.3-.2-.5-.5-1.8-1-2.1-.6-.4-1.2-.8-1.9-1.1.7 1 1.4 1.9 2.1 2.9-.4-1.7-1.1-3.3-2.1-4.8-1-1.6-1.7-3.4-1.9-5.3.3 1.1.6 2.1.9 3.2 0-1.7.1-3.3.1-5 0 0 0-.5-.1-.3z"/><path id="XMLID_310_" class="st2" d="M70.5 21.5c-.4 2.4-.3 4.7.2 7 .6 3.4 2.3 5.4 5 7.3-.1-.1-.2-1.8-.2-1.9 0-.2-.1-1.7-.3-1.9-2.8-2-3.9-3.5-4.7-6.6.2 1.1.3 2.2.5 3.2 0-1.2.1-2.4.1-3.6.1-1-.7-2.4-.6-3.5z"/><path id="XMLID_309_" class="st2" d="M61.6 18.9c-.4 2.4-.4 4.6.7 6.8.8 1.5 1.7 2.3 3.1 3.3.4.3 1.5 0 1.9 0l1.9-.3c-1.8-1.3-3.2-2.9-3.7-5.1-.4-1.8-.3-3.2-.1-5-.1.2-3.7-.1-3.8.3z"/><path id="XMLID_308_" class="st2" d="M68.9 29.6c-.3 2-.4 4.1.4 6 .9 2.2 2.4 3.7 4.1 5.2-.1-.1 2.2-3 2-3.2-1.7-1.5-3.4-3-4.1-5.2-.7-2-.7-3.9-.4-6-.1.4-.8 1.3-1 1.6-.2.4-.9 1.2-1 1.6z"/></g></g></g><g id="XMLID_2258_"><g id="XMLID_296_"><g id="XMLID_297_"><path id="XMLID_303_" class="st2" d="M54.7 49.5c.2 0 1.1-1.4 1.2-1.5 0 0 1-1.5 1.1-1.5-.2 0-1.1 1.4-1.2 1.5 0 0-1 1.5-1.1 1.5z"/><path id="XMLID_302_" class="st2" d="M70.3 50c-1.1 2.8-1.9 5.7-2.4 8.7-.1.4.7-.9.6-.7.4-.6 1.2-1.5 1.4-2.3.5-3 1.4-6 2.5-8.9-.4 1.2-1.7 2-2.1 3.2z"/><path id="XMLID_301_" class="st2" d="M60 45.7c-1 2.1-1.9 4.2-2.5 6.4-.8 2.2-1.3 4.4-1.8 6.7-.1.3.8 1.4.9 1.6 0 0 1.1 1.5 1.1 1.6.4-2.3 1-4.5 1.8-6.7.6-2.2 1.5-4.4 2.5-6.4.1-.3-.9-1.5-.9-1.6 0 0-1.1-1.5-1.1-1.6z"/><path id="XMLID_300_" class="st2" d="M68.3 43.1c-1.3 2.7-2.4 5.5-3.2 8.4-.3 1.6-.6 3.1-.7 4.7-.1 1-.3 2-.3 3 0 .4.1.5.1 0 .5-4.4 1.8-8.6 3.8-12.5.3-.7.3-1.9.3-2.6.1.2.2-1.4 0-1z"/><path id="XMLID_299_" class="st2" d="M72 41.8c-.9 2-1.5 4.1-2 6.3-.6 2.1-.9 4.2-1 6.4-.1 1.2.6 2.5.5 3.7.1-2.2.5-4.4 1-6.5.4-2.1 1.1-4.2 1.9-6.2.2-.4-.1-1.5-.2-1.9 0-.2-.4-1.5-.2-1.8z"/><path id="XMLID_298_" class="st2" d="M63 39.3c-1.8 4.1-2.9 7.8-3.8 12.2 0-.2 3.7.2 3.8-.3.9-4.4 2.1-8.1 3.8-12.2l-1.9.1c-.1 0-1.8 0-1.9.2z"/></g></g></g><g id="XMLID_2260_"><g id="XMLID_287_"><g id="XMLID_288_"><path id="XMLID_295_" class="st2" d="M92.9 60.9c-.6 2.8-1.6 5.5-3 8.1.1-.2 1.7-.6 1.8-.6.1 0 1.7-.4 1.8-.6 1.4-2.6 2.4-5.3 3-8.1 0 .1-1.7.6-1.8.6-.1 0-1.7.4-1.8.6z"/><path id="XMLID_294_" class="st2" d="M85.1 46.6c-.9 3.4-2.3 6.6-4.3 9.6-.2.4.8-.8.6-.7.5-.7 1.2-1.4 1.6-2.1 1.6-2.3 2.8-4.8 3.5-7.4.3-.8.6-1.5.8-2.3-.2 1-1.8 1.7-2.2 2.9z"/><path id="XMLID_293_" class="st2" d="M87.5 47.5c.2 1.7-.5 4.1-1 5.7-1.3 4.2-3.5 7.8-5.9 11.4-.1.2.9 1.6.9 1.7 0 0 1 1.6 1.1 1.6 2.4-3.6 4.8-7.2 5.9-11.4.5-1.8 1.2-3.9 1-5.7-.2-1.2-1.9-2.1-2-3.3z"/><path id="XMLID_292_" class="st2" d="M95.6 44.8c-.8 1.2-1.5 2.4-2.3 3.7-.3 1.4-.7 2.7-1 4.1-.8 3.2-2.3 6.1-3.6 9-.2.4.2 1.4.3 1.8l.6 1.8c1.2-1.7 2.5-3.4 3.7-5 1-1.8 1.8-3.7 2.2-5.7.4-.9.6-1.9.7-2.9.3-2 0-4-.9-5.9-.1 1.2-.2 2.4-.4 3.7.1-.3.2-.5.2-.8.5-1.2.1-2.7.5-3.8z"/><path id="XMLID_291_" class="st2" d="M99 44.5c-.1 1.7-.3 3.3-.6 4.9-.7 4.1-2.4 7.8-5.1 11-.2.3.2 1.6.2 1.9 0 .1.4 1.8.3 1.9 2.3-3.1 3-3.6 4.2-7.3.9-2.8 1.2-5.7 1.5-8.7.1-1.1-.6-2.5-.5-3.7z"/><path id="XMLID_290_" class="st2" d="M90.5 41.1c-.2 1.9-.5 4-1 5.9-1.2 4-3.3 7.3-5.6 10.7 0 0 1.9-.1 1.9 0 .2 0 1.7 0 1.9-.3 2.2-3.4 4.6-6.7 5.6-10.7.5-1.9.8-3.9 1-5.9-.1.1-3.8 0-3.8.3z"/><path id="XMLID_289_" class="st2" d="M97.4 52.5c-.1 2-.4 3.9-.9 5.8-.3 2.5-1.1 4.9-2.3 7.2.6-.9 1.1-1.9 1.7-2.8-.8 1.1-1.5 2.1-2.3 3.2-.7 1-1.2 2.2-2 3.1 1.6-2 3.3-4 4.5-6.3 2.2-4.3 2.9-8.7 3.3-13.4 0 .4-.9 1.3-1 1.6-.2.3-.9 1.2-1 1.6z"/></g></g></g><g id="XMLID_2262_"><g id="XMLID_277_"><g id="XMLID_278_"><path id="XMLID_284_" class="st2" d="M38.7 6.4c.7.2 1.3.4 2 .6.4.1 1.9-3.1 2.3-3-.7-.2-1.3-.4-2-.6-.5-.1-1.9 3.1-2.3 3z"/><path id="XMLID_283_" class="st2" d="M42.5 13.9c1.4.5 2.8.7 4.2.7-.1 0-.9-1.6-.9-1.6-.1-.1-.8-1.6-1-1.6-1.4 0-2.9-.2-4.2-.7.1 0 .9 1.6.9 1.7 0 .2.6 1.4 1 1.5z"/><path id="XMLID_282_" class="st2" d="M48.4 11.7c1.2.5 2.4.8 3.7.8.1 0 .5-3.7.4-3.8-1.3 0-2.5-.3-3.7-.8 0 0-.8 3.7-.4 3.8z"/><path id="XMLID_281_" class="st2" d="M52.9 10.5c1.2.5 2.5.8 3.8.9-.3 0-.1-3.7-.5-3.7-1.3-.1-2.6-.3-3.8-.9l.2 1.9s.1 1.7.3 1.8z"/><path id="XMLID_280_" class="st2" d="M43.6 4.3c2.4.9 1.4.6 3.9 1 .6.1 1.3-.1 1.9-.1.4 0 1.4-.3 1.9-.2-1.4-.4-2.8-.8-4.1-1.1-.7-.2-2 .1-2.7.2.2-.1-1.3 0-.9.2z"/><path id="XMLID_279_" class="st2" d="M50.8 14.9c1.2.5 2.5.7 3.9.7.1 0 1-1.6 1-1.6s.9-1.6 1-1.6c-1.3 0-2.6-.3-3.9-.7-.4-.1-1.8 3.3-2 3.2z"/></g></g></g><g id="XMLID_2205_"><g id="XMLID_268_"><path id="XMLID_272_" class="st1" d="M43.7 28.1c.9 6.2.4 12.2-1.5 18.2.2-.5 2.7-.2 2.9-.8 1.9-6 2.4-12 1.5-18.2 0 .1-2.9.7-2.9.8z"/></g></g><g id="XMLID_2213_"><g id="XMLID_262_"><path id="XMLID_266_" class="st1" d="M64.2 44.7c-1.4 4.1-2.3 8.3-2.6 12.6 0-.3 2.9-.4 2.9-.8.4-4.3 1.2-8.5 2.6-12.6-.2.6-2.7.3-2.9.8z"/></g></g><g id="XMLID_2242_"><g id="XMLID_256_"><path id="XMLID_260_" class="st1" d="M65.4 35.6c.5 1.3.6 2.7.4 4.1 0-.1 1.3-.3 1.5-.4.2 0 1.4-.3 1.4-.4.3-1.4.2-2.7-.4-4.1 0-.1-2.8.9-2.9.8z"/></g></g><g id="XMLID_2264_"><g id="XMLID_250_"><path id="XMLID_254_" class="st1" d="M39.8 61.2c3 1.8 6.3 2.6 9.7 2.4 1-.1 1.9-.7 2.9-.8-3.5.2-6.8-.6-9.7-2.4-.7-.3-2.4 1.2-2.9.8z"/></g></g><g id="XMLID_2266_"><g id="XMLID_243_"><path id="XMLID_247_" class="st1" d="M37.1 63.1c3.3 1.3 6.7 1.9 10.2 2 1 0 1.9-.8 2.9-.8-3.5-.1-6.9-.7-10.2-2-.8-.3-2.1 1.1-2.9.8z"/></g></g><g id="XMLID_2282_"><g id="XMLID_237_"><path id="XMLID_241_" class="st1" d="M21.1 119.5c-1.9.1 1-1.3 1.4-1.5l4.2-2.1c3.2-1.5 6.4-2.8 9.7-3.9-.7.2-1.9.4-2.8.7-3 1-5.9 2.2-8.7 3.5-1.4.6-2.8 1.3-4.2 2.1-.5.3-4.2 2.1-2.4 2 .9-.1 1.8-.8 2.8-.8z"/></g></g><g id="XMLID_2334_"><g id="XMLID_231_"><path id="XMLID_235_" class="st1" d="M22.6 120.1c2.5-1.7 5.5-3.5 8.5-4.2.9-.2 2.1-.6 2.8-.8-5.1 1.2-9.8 2.8-14.2 5.7.8-.5 2.1-.2 2.9-.7z"/></g></g><g id="XMLID_2368_"><g id="XMLID_225_"><path id="XMLID_229_" class="st1" d="M29.4 127c8.2 1.4 16.4 1.7 24.6.8 1-.1 1.9-.7 2.9-.8-8.3.8-16.4.6-24.6-.8-.9-.1-2 1-2.9.8z"/></g></g><g id="XMLID_2387_"><g id="XMLID_219_"><path id="XMLID_223_" class="st1" d="M36.6 18c-2-.1-3.9.1-5.8.6-.7.2-1.3.3-2 .5-.1 0-1 .3-.5.2 1.8-.4 3.6-.6 5.4-.5 1 0 2-.9 2.9-.8z"/></g></g><g id="XMLID_2411_"><g id="XMLID_213_"><path id="XMLID_217_" class="st1" d="M39.8 17.8c-1.2.7-2.4 1.3-3.6 1.8-.6.3-1.2.5-1.9.8-.4.2-.8.3-1.3.5-.8.2-.9.3-.3.3 1 .4 3.1.2 4.2.3l4.5.3c.9.1 2-.8 2.9-.8l-4.2-.3c-.7-.1-1.4-.1-2.1-.2-.7 0-1.8.1-2.4-.2-.6 0-.5-.1.3-.3.3-.1.6-.2.9-.4.6-.2 1.2-.5 1.9-.8 1.3-.6 2.6-1.3 3.9-2-.8.7-2 .5-2.8 1z"/></g></g><g id="XMLID_2418_"><g id="XMLID_207_"><path id="XMLID_211_" class="st1" d="M39.3 17.8c.2.4-.1.5-.4.7 1-.3 1.9-.5 2.9-.8-2.5.4-4.9.9-7.4 1.3-1 .2-1.9.6-2.9.8 2.5-.4 5-.8 7.5-1.3.5-.1 3.6-.7 3.2-1.4-.1-.3-2.8.8-2.9.7z"/></g></g><g id="XMLID_2425_"><g id="XMLID_201_"><path id="XMLID_205_" class="st1" d="M39.5 20c-.4.4-.9.7-1.4.9-.2.1-.5.2-.7.3-.7.3-.1.1 1.8-.4-.2 0-.5.1-.7.1-1 .1-1.9.7-2.9.8 1.3-.1 2.6-.6 3.8-.9 1.1-.3 2.1-.8 3-1.6l-.4.1c-.3.1-.7.2-1 .3-.5.1-1.2.1-1.5.4z"/></g></g><g id="XMLID_2432_"><g id="XMLID_195_"><path id="XMLID_199_" class="st1" d="M39.3 19.9c.3 0 .3.2.1.4-.2.2-.9.3-1.1.4-.7.2-1.4.5-2.2.7-.2.1.2 0 .1 0 .3-.1.6-.1.9-.2.6-.2 1.2-.3 1.8-.5.8-.3 1.6-.5 2.4-.8.3-.1.6-.1.8-.3.2-.1.4-.5 0-.5-.5 0-1 .3-1.5.4-.3.1-.8.4-1.3.4z"/></g></g><g id="XMLID_2439_"><g id="XMLID_189_"><path id="XMLID_193_" class="st1" d="M45.4 18.2c.1 0 .1-.1.2-.1-.4.1-.7.2-1.1.3h.1c-.6.2-1.2.3-1.8.5.5-.1 1 .2 1.2.7l2.9-.8c-.1-.6-.7-.8-1.2-.7-.6.1-1.3.3-1.9.5-.4.1-.9.2-1.3.4.1-.1.4-.1.4-.1.3-.1.7-.2 1-.3.3-.1.7-.2 1-.3.2 0 .4 0 .5-.1z"/></g></g><g id="XMLID_2446_"><g id="XMLID_183_"><path id="XMLID_187_" class="st1" d="M50 6.6l6-.3c.3 0 2.5-.3 2.7-.1-.4.1-.8.3-1.1.4.5-.1.5-.1-.3 0l-1.8.3c-.9.1-2 .8-2.9.8 1.3 0 2.6.1 3.9.1 1 0 1.9-.8 2.9-.8h-3.9c-1 .3-1.9.5-2.9.8 2.4-.3 4.8-.9 7.1-1.6.5-.1 1.2-.2 1.6-.5.4-.1.4-.1 0-.1h-1c-.4 0-.9 0-1.3.1L53 6c-1.1-.1-2 .6-3 .6z"/></g></g><g id="XMLID_2453_"><g id="XMLID_177_"><path id="XMLID_181_" class="st1" d="M69 15.3c.5-.4 1-.8 1.5-1.3-.1 0-.4.1-.4.1-.3.1-.7.2-1 .3-.4.1-1.1.2-1.4.4-1.1.8-2.3 1.6-3.4 2.3.1 0 .4-.1.4-.1.3-.1.7-.2 1-.3.4-.1 1.1-.2 1.4-.4 1.1-.8 2.3-1.6 3.4-2.3-1 .3-1.9.5-2.9.8-.5.4-1 .8-1.5 1.3.1 0 .4-.1.4-.1.3-.1.7-.2 1-.3.3-.1.7-.2 1-.3.2 0 .4 0 .5-.1z"/></g></g><g id="XMLID_2460_"><g id="XMLID_171_"><path id="XMLID_175_" class="st1" d="M66.1 16.1c.6-.1 1.2-.1 1.7.2.4.3.7.8.4 1.2-.3.6-1.3.9-1.2 1.7 0-.1 2.9-.6 2.9-.8-.1-.8.9-1.1 1.2-1.7.2-.4 0-.9-.3-1.2-.5-.4-1.2-.3-1.7-.2-1.1.2-2 .7-3 .8z"/></g></g><g id="XMLID_2150_"><g id="XMLID_165_"><path id="XMLID_169_" class="st1" d="M34.5 68.3c.2-.2.5-.4.7-.6h-.1c-3.6.7-7.3 1.6-10.4 3.7-5.9 3.9-10 10.3-12.1 17 .2-.5 2.7-.2 2.9-.8 1.3-4 3.1-7.7 5.7-10.9 1.2-1.5 2.4-2.8 3.8-4.1.8-.7 1.6-1.4 2.5-2 .4-.2.8-.5 1.2-.7.8-.6 1.8-.9 2.8-.8.7-.6 2.3-.2 3-.8z"/></g></g><g id="XMLID_2160_"><g id="XMLID_159_"><path id="XMLID_163_" class="st1" d="M30.9 73.4c-10.7 3.7-15.6 14-14.8 24.9 0-.2 2.9-.6 2.9-.8-.8-10.8 4-21.2 14.7-24.8-.7.2-2 .4-2.8.7z"/></g></g><g id="XMLID_2161_"><g id="XMLID_153_"><path id="XMLID_157_" class="st1" d="M89 113.5c-.3 4.6-4.6 8.7-8.1 11.2-4.1 2.8-9.5 4.2-14.1 5.9.9-.4 2-.4 2.9-.8 4.6-1.7 10-3.1 14.1-5.9 3.6-2.5 7.9-6.6 8.1-11.2 0 .3-2.9.5-2.9.8z"/></g></g><g id="XMLID_2162_"><g id="XMLID_147_"><path id="XMLID_151_" class="st1" d="M92.7 107.4c.7 5.8-1.6 11.4-6.2 15.1.7-.6 2.2-.2 2.9-.8 4.6-3.7 6.9-9.2 6.2-15.1 0 .1-2.9.6-2.9.8z"/></g></g><g id="XMLID_2163_"><g id="XMLID_141_"><path id="XMLID_145_" class="st1" d="M90.6 121.3c-.1 4-3.9 6-7.1 7.5.9-.4 2-.4 2.9-.8 3.2-1.5 7-3.4 7.1-7.5 0 .3-2.9.5-2.9.8z"/></g></g><g id="XMLID_2164_"><g id="XMLID_135_"><path id="XMLID_139_" class="st1" d="M65.8 59.3c-.7-.2-1.5.1-2.2.3-1.1.3-2.1.4-1.4 1.9 1.9 4.2 9 4.1 12.8 4.1 1 0 1.9-.8 2.9-.8-3 0-6.1 0-9-1.2-1-.4-5.8-3.4-3.4-4.5-1 .3-1.9.5-2.9.8.1 0 .3.1.4.1.7.3 2-1 2.8-.7z"/></g></g><g id="XMLID_2167_"><g id="XMLID_91_"><path id="XMLID_133_" class="st1" d="M78.4 40.4c4.7.2 10.1 2.5 11.2 7.5 1.1 5-2.2 9.3-6.1 12 .8-.5 2.1-.2 2.9-.8 3.9-2.8 7.1-7 6.1-12-1.1-5-6.5-7.3-11.2-7.5-1 0-2 .8-2.9.8z"/></g></g><g id="XMLID_2169_"><g id="XMLID_85_"><path id="XMLID_89_" class="st1" d="M25.7 19.4c6.8-.4 13.4-1.9 19.9-4-.7.2-1.9.5-2.8.7-4.6 1.5-9.4 2.2-14.2 2.5-1 .1-2 .7-2.9.8z"/></g></g><g id="XMLID_2524_"><g id="XMLID_79_"><path id="XMLID_83_" class="st1" d="M44.3 15.3c-3.5.8-7.1 1.7-10.6 2.4-.9.2-2.1.6-2.8.8 3.6-.8 7.1-1.6 10.6-2.4.8-.2 2.1-.6 2.8-.8z"/></g></g><g id="XMLID_2531_"><g id="XMLID_73_"><path id="XMLID_77_" class="st1" d="M41.4 17.9c-2.7.3-5.3.9-7.9 1.6-.4.1-1 .4-1.4.4.5 0 1-.3 1.5-.4 1.4-.4 3.3-.6 5-.8.9-.1 1.8-.7 2.8-.8z"/></g></g><g id="XMLID_2538_"><g id="XMLID_67_"><path id="XMLID_71_" class="st1" d="M40.1 9.1c1 0 1.9-.8 2.9-.8-.9.1-1.9.8-2.9.8z"/></g></g><g id="XMLID_2545_"><g id="XMLID_61_"><path id="XMLID_65_" class="st1" d="M43.9 9.4c-.9 1.1.8 2.7 1.7 3.3 1.3.8 2.7 1.1 4.2.9 1-.1 1.9-.6 2.9-.8-1.5.2-2.9-.1-4.2-.9-.9-.6-2.6-2.2-1.7-3.3-.2.2-1.2.3-1.5.4-.3 0-1.2.1-1.4.4z"/></g></g><g id="XMLID_2552_"><g id="XMLID_55_"><path id="XMLID_59_" class="st1" d="M47.7 10c1.4 2.3 3.9 3.6 6.6 3.3 1-.1 1.9-.7 2.9-.8-2.7.3-5.2-1-6.6-3.3-.1-.2-2.8 1-2.9.8z"/></g></g><g id="XMLID_2559_"><g id="XMLID_49_"><path id="XMLID_53_" class="st1" d="M59.4 16.6c.4 1.1.2 2.4-.5 3.4-.4.5-.8.7-1.3 1 1.7-1.2 2.5-.4 1.4-.5-.4 0-.7-.1-1-.2-.3-.1-1.1.3-1.5.4-.3.1-1.1.5-1.4.4.8.2 1.6.2 2.4 0 .9-.2 1.9-.4 2.8-.8 1.8-.7 2.7-2.7 2.1-4.5-.2 0-3 .9-3 .8z"/></g></g><g id="XMLID_2566_"><g id="XMLID_43_"><path id="XMLID_47_" class="st1" d="M56.2 16.6c-.3 1.1-.9 2-1.9 2.7-.5.4-2.1.9-.4.5 1.7-.4.6-.2.2-.2-.3 0-.6 0-1-.1-.9-.1-2 .9-2.9.8 1.7.3 3.5-.4 5.1-.9 1.8-.6 3.2-1.9 3.8-3.7 0 .1-1.3.3-1.5.4-.1.1-1.3.3-1.4.5z"/></g></g><g id="XMLID_2573_"><g id="XMLID_37_"><path id="XMLID_41_" class="st1" d="M61.6 33.5c-1.8 6.1-2 12.3-.4 18.5 0 0 2.9-.7 2.9-.8-1.5-6.2-1.4-12.4.4-18.5-.1.5-2.7.3-2.9.8z"/></g></g><g id="XMLID_2580_"><g id="XMLID_31_"><path id="XMLID_35_" class="st1" d="M63.1 62.1c.2-.1.4-.2.5-.3-.1.1-.3.1-.4.1-.3.1-.7.2-1 .3-.5.1-1 .2-1.4.4-.2.1-.4.2-.5.3.1-.1.3-.1.4-.1.3-.1.7-.2 1-.3.4-.1 1-.2 1.4-.4z"/></g></g><g id="XMLID_2587_"><g id="XMLID_25_"><path id="XMLID_29_" class="st1" d="M60.3 62.8c-1.3.9-2.6 1.8-4 2.5-.7.3-1.3.6-2 .9-.5.2-1.1.4-1.7.6.9-.2.9-.2 0 0s-2.1.6-2.8.8c4.8-1 9.4-2.5 13.4-5.5-.7.5-2.1.1-2.9.7z"/></g></g><g id="XMLID_2594_"><g id="XMLID_19_"><path id="XMLID_23_" class="st1" d="M64.3 65.1c-2.6 1.5-5.2 2.7-8.1 3.1-1 .1-1.9.6-2.9.8 4.8-.7 9.7-2.2 13.9-4.7-.9.6-2.1.4-2.9.8z"/></g></g></g></svg>