<svg id="Layer_1" xmlns="http://www.w3.org/2000/svg" viewBox="0 0 362.7 298.7"><style>.st0{opacity:.5}.st1{opacity:.1091}.st1,.st2{fill:#fff}</style><g id="XMLID_77_" class="st0"><g id="XMLID_357_"><g id="XMLID_381_"><g id="XMLID_382_"><path id="XMLID_394_" class="st1" d="M63.1 256.2c-3.2-3.4-5.9-7.1-8.2-11.1-2.4-4-4.5-8.1-6.3-12.4-2.3-5.7-4.5-12.1-4.7-18.3-.2-2.7.2-5.3 1.2-7.9.5-2.8 1.5-5.3 2.9-7.7 1.4-2.5 2.9-4.9 4.6-7.2 3.4-4.7 6.8-9.4 10.3-14 3.3-4.5 6.6-9 10-13.5 2.1-2.8 4.5-5.4 7.3-7.6 2.6-1.8 5.6-3.2 8.2-5.1 2.8-2 4.9-4.5 6.5-7.6 1-2 1.8-4 2.6-6.1 2.9-8 5.8-16 8.6-24l-2.2.6c-.3.1-1.9.5-2.1.9-2.8 7.9-5.7 15.7-8.5 23.6-.7 2.1-1.6 4.1-2.6 6.1-1.4 2.8-3.3 5.2-5.9 7.1-1.8 1.2-3.6 2.3-5.5 3.3-3.2 1.9-5.8 4.2-8.3 7-1.6 1.9-3.1 3.8-4.5 5.8-5.2 7.1-10.4 14.1-15.6 21.2-5.8 8-11.6 16.4-11.3 26.7.2 6.3 2.3 12.6 4.7 18.3 1.8 4.3 3.9 8.5 6.3 12.4 2.3 4.1 5 7.8 8.2 11.1.2.2 2.1-.6 2.2-.6 0-.1 2.2-.9 2.1-1z"/><path id="XMLID_393_" class="st1" d="M58 257.4c-.8-2.2-1.8-4.2-3.1-6.1-3-3.2-5.7-6.7-8.1-10.3-4.4-6.6-8.1-13.9-10.5-21.6-1.5-4.8-2.2-9.8-1.3-14.9 1.6-8.5 7.2-15.9 12-22.9 3.7-5.4 7.4-10.8 11.3-16 1.3-1.9 2.7-3.7 4.2-5.5 3.9-4.4 8.5-6.4 12.6-10.1 2.8-2.5 5-5 6.9-8.2 1.1-1.9 2.1-3.9 3-5.9 3.5-8.8 7.1-17.6 10.9-26.3.2-.5-.4-1.8-.6-2.2l-.9-2.1c-3.9 6.1-7.3 12.4-10.2 18.9-1.9 4.2-3.8 8.4-5.6 12.7-1.5 2.8-3.1 5.4-4.8 8.1.2-.3.4-.6.7-.9-2 2.5-4.4 4.6-7.3 6.2-.9.6-1.7 1.2-2.6 1.8-1.7 1.3-3.4 2.7-4.9 4.3-3.8 4.1-7 8.7-10.2 13.3-5.4 7.7-11.2 15.3-15.5 23.7-1.8 3.5-3.2 7.2-3.9 11.1-1 5.1-.1 10.4 1.5 15.3 1.8 5.5 4.2 10.9 7 15.9 2.2 4 4.7 7.8 7.6 11.4 3.9 3.5 7.8 7 11.6 10.7.6.2.1-.6.2-.4z"/><path id="XMLID_392_" class="st1" d="M55.5 236.8c-3-3.7-5.7-7.5-8.3-11.4-2.5-4-4.6-8.2-6.4-12.6-2.3-5.7-4.4-12-4.6-18.2-.2-2.7.2-5.3 1.2-7.8.5-2.7 1.5-5.3 2.9-7.7 1.4-2.5 2.9-4.9 4.6-7.2 3.4-4.7 6.8-9.4 10.3-14 3.3-4.5 6.6-9 10-13.5 2.1-2.8 4.5-5.4 7.3-7.6 2.6-1.8 5.6-3.2 8.2-5.1 2.8-2 4.9-4.5 6.5-7.6 1-2 1.8-4 2.6-6.1 3.1-8.1 5.9-16.2 8.4-24.5 0 .1-2.1.8-2.1.8-.2.1-1.9.6-2.1 1-2.6 8.1-5.3 16.1-8.3 24.1-.7 2.1-1.6 4.1-2.6 6.1-1.4 2.8-3.3 5.2-5.9 7.1-1.8 1.2-3.6 2.3-5.5 3.3-3.2 1.9-5.8 4.2-8.3 7-1.6 1.9-3.1 3.8-4.5 5.8-5.2 7.1-10.4 14.1-15.6 21.2-5.8 7.9-11.6 16.3-11.3 26.6.2 6.2 2.3 12.5 4.6 18.2 1.8 4.4 3.9 8.5 6.4 12.6 2.6 3.9 5.3 7.7 8.3 11.4.4.3 4.1-2 4.2-1.9z"/><path id="XMLID_391_" class="st1" d="M66 250.6c-5.5-6.9-9.3-14.4-11.4-22.9-.5-1.8-.9-3.6-1.2-5.4-.3-2.1-.5-4.2-.5-6.3v1.2c.4-3.4.9-6.5 2.3-9.7 1.4-3.1 3.5-6 5.4-8.7 5.2-7.7 10.8-15.1 15.9-22.9 1.6-2.4 3.2-5.2 5.2-7.4 3.6-3.9 8.6-5.9 11.3-10.7 1-1.7 1.7-3.4 2.4-5.2.6-1.4 1.2-2.9 1.6-4.4 6.1-11.7 9.2-24.3 9.4-37.8.2-1.2-.3-2.4-1.6-2.5-1.2-.1-2.6.3-3 1.5-1.3 5.1-2.7 10.1-4 15.2-1.8 4.5-3.6 9-5.3 13.6-.9 2.5-2.1 4.9-3.3 7.3l.6-1.2c-1.1 1.7-2.5 3.2-4.1 4.5-1.6 1.2-3.3 2.3-5 3.3-2.8 1.9-5.1 4.1-7.3 6.7-1.4 1.8-2.8 3.7-4.1 5.6-5 7-10 14-14.9 21-2.7 3.8-5.4 7.7-7.4 12-2 4.2-3 8.6-2.9 13.3.1 3.5.7 6.9 1.6 10.3 1.9 6.9 4.7 13.5 8.2 19.7 1.9 3.3 4 6.5 6.3 9.6 1.5 1.9 3.2 3.5 5.3 4.9.1.1.4-2.3.4-2.2.1-.5.4-1.9.1-2.4z"/><path id="XMLID_390_" class="st1" d="M62.8 237.4c-4.1-5.7-8-11.6-11.6-17.6-2.1-4.2-3.9-8.5-5.3-12.9-1.6-5-2.7-10.3-2.1-15.6.5-4.1 2.1-8.2 4-11.8 1.4-2.5 2.9-4.9 4.6-7.2 3.4-4.7 6.8-9.4 10.3-14 3.3-4.5 6.6-9 10-13.5 2.1-2.9 4.6-5.4 7.4-7.7 2.6-1.8 5.6-3.2 8.2-5.1 2.8-2 4.8-4.4 6.4-7.5 1-2 1.8-4 2.6-6.1 3-8 5.8-16.1 8.6-24.3 0-.1-4.3-1.5-4.4-1.3-2.7 8.1-5.6 16.2-8.6 24.3-.7 2.1-1.6 4.1-2.6 6.1-1.4 2.9-3.4 5.3-6.1 7.2-1.8 1.2-3.6 2.3-5.5 3.3-3.1 1.9-5.7 4.1-8.2 6.9-1.6 1.9-3.1 3.8-4.5 5.8-5.2 7.1-10.4 14.1-15.6 21.2-3.3 4.6-6.7 9.2-8.9 14.4-2.2 5.1-2.8 10.4-2 15.9 1.1 7.2 4 14.2 7.2 20.6 1 2.2 2.1 4.3 3.5 6.3 2.8 3.7 5.5 7.4 8.1 11.3.3.4 1.8.6 2.1.7.3.1 2.3.5 2.4.6z"/><path id="XMLID_389_" class="st1" d="M47.2 243.7c-3.5-3.3-6.3-7.1-8.4-11.3-2.5-3.9-4.6-8.1-6.3-12.4-1.4-3.4-2.5-6.9-3.4-10.4-1-3.8-1.3-7.6-.9-11.4-.1.9-.2 1.9-.3 2.8 1.6-7.9 5.2-13.6 9.6-19.7 5.6-7.7 11.2-15.3 16.8-22.9 3.6-4.9 7.2-9.4 12.5-12.5 1.8-1.1 3.7-2.1 5.5-3.3 2.3-1.6 4-3.6 5.4-5.9.9-1.5 1.7-3.1 2.4-4.8 3.7-8.7 6.3-17.8 9.1-26.8.3-1 .3-2.1.5-3.2 0 .2.2-1.5.1-1.1-2.8 8.2-5.5 16.3-8.5 24.4-1.3 3.4-2.7 7-5.1 9.8-3.2 3.8-7.8 5.5-11.7 8.3-5.6 4.1-9.6 10.5-13.7 16.1-4.3 5.9-8.7 11.7-12.9 17.6-2.1 2.9-4.2 5.8-5.8 8.9-1.5 2.7-2.9 5.7-3.6 8.8-.7 3.1-1.1 5.8-1.2 8.9-.2 4.8.8 9.4 2.2 14 1.7 5.6 4.1 11 7 16.1 1.1 2 2.3 4 3.5 6 1.7 3.2 3.9 6 6.6 8.4-.1-.1.4-2.2.4-2.2 0-.1.5-1.9.2-2.2z"/><path id="XMLID_388_" class="st1" d="M57.2 258.6c-3.4-3.2-6.2-7-8.3-11.2-2.5-4-4.6-8.1-6.3-12.4-2.3-5.7-4.4-12.1-4.6-18.3-.4-12.4 8.3-22.3 15.2-31.7l11.7-15.9c1.4-2 2.9-3.9 4.5-5.8 2.2-2.7 4.8-4.9 7.8-6.6 1.9-1 3.7-2.1 5.5-3.3 2.8-2 4.8-4.4 6.4-7.5 1-2 1.8-4 2.6-6.1 2.9-7.9 5.7-15.8 8.4-23.8 0 .1-4.3-1.3-4.4-1.1-2.7 8-5.5 15.9-8.4 23.8-.7 2.1-1.6 4.1-2.6 6.1-1.4 2.9-3.4 5.3-6.1 7.2-1.8 1.2-3.6 2.3-5.5 3.3-3.1 1.9-5.7 4.1-8.1 6.9-1.6 1.9-3.1 3.8-4.5 5.8l-11.7 15.9c-6.9 9.4-15.6 19.3-15.2 31.7.2 6.2 2.3 12.6 4.6 18.3 1.7 4.3 3.9 8.5 6.3 12.4 2.1 4.2 4.8 8 8.3 11.2.3.4 1.8.5 2.2.6.1.1 2 .3 2.2.5z"/><path id="XMLID_387_" class="st1" d="M70.5 249.2c-3.6-2.9-6.4-6.4-8.5-10.6-2.3-3.2-4.1-6.6-5.4-10.3-2.3-5.4-4.7-10.7-6-16.4-.9-3.6-1.3-7.4-.9-11.1.8-7.5 4.8-13.8 9-19.9 2.6-3.8 5.2-7.5 7.9-11.2 4.2-5.9 8.6-11.7 13.2-17.4 3.3-2.7 6.7-5.4 10-8.1 2-1.1 3.9-2.5 5.6-4 1.8-1.7 3-3.4 4.2-5.5 1-1.8 2-3.6 2.9-5.5 3.6-7.9 6.1-16 7.7-24.5.2-.8-.8-2.3-1.1-3 0 .1-.7-1.5-.8-.8-2.7 11.1-7.8 32.5-18.9 41.6-3.3 2.7-6.8 4.4-9.8 7.4-1 1-2 2.1-2.8 3.3-3.5 4.6-7 9.2-10.3 13.9-4.7 6.4-10.3 13.2-14.3 20.2-2.1 3.6-4 7.3-5 11.5s-.9 8.2-.2 12.5c1.2 7.1 3.8 14.3 7.2 20.6 2.3 4 5 7.7 8.1 11.1 2.3 4.1 5.3 7.7 8.9 10.7-.1-.1-.2-2.1-.2-2.3-.2-.4-.2-1.9-.5-2.2z"/><path id="XMLID_386_" class="st1" d="M56.3 245c-4.1-4.4-8.2-8.7-11.4-13.8-3.1-4.8-6.1-9.9-8.2-15.3l-3.3-10.2c-.3-1.3-.5-2.6-.8-3.9-.9-5.4 0-10.3 1.7-15.5l-1.5 2.4c1.9-2.4 3.7-4.8 5.3-7.4 1.1-1.8 2.3-3.6 3.5-5.3 3.7-5.5 7.6-10.9 11.6-16.3 1.9-2.7 3.9-5.4 6.1-7.9 2-2.3 3.9-4.6 6.1-6.6 2.4-2.1 5.2-3.8 7.9-5.5 3.4-2.1 6.2-4.9 8.2-8.4 1.1-1.8 2-3.7 2.8-5.6 0-.1.1-.3.1-.4 3-9.6 6.3-19.2 9.9-28.6.2-.6-1.2.8-1 .6-.6.6-1.9 1.5-2.1 2.4-2.1 7.5-4.9 14.9-8.3 21.9-1.6 5.5-4.6 9.8-8.9 12.9-3.6 2.6-7.5 4.5-10.7 7.6-1.3 1.2-2.5 2.6-3.5 4-6.3 8.5-12.5 17-18.7 25.5-1.7 2.3-3.3 4.7-4.9 7.1-.5 1.2-1 2.4-1.5 3.5-2 4.6-4.8 9.6-5.3 14.7-.4 4 .1 7.9 1 11.8 1.4 5.9 3.7 11.6 6.4 17 2.1 4 4.4 7.9 7 11.7 3 3.8 6.2 7.5 9.6 11 0 0 3.1-3.2 2.9-3.4z"/><path id="XMLID_385_" class="st1" d="M64 245.6c-2.7-2-5.4-4-8.2-5.9 1 1 2 2.1 3 3.1-3.1-4.9-6.2-9.9-9.3-14.8-3.7-6.6-6.6-13.4-8.9-20.5-.8-2.1-1.2-4.2-1.5-6.4-.2-2 .1-4 .8-5.9.6-2.6 1.4-5.1 2.4-7.6.3-3.2 1.2-6.3 2.4-9.2 3.4-5.7 6.9-11.4 10.3-17.1 3.1-4.7 6.2-9.3 9.4-13.9 1.9-2.6 3.8-4.9 6.4-6.9 2.5-1.9 5.3-3.2 7.8-5 2-1.4 3.7-3.2 5.1-5.3 1.2-1.8 2.2-3.7 3.1-5.6 3.9-9.5 9-18.4 15.5-26.6.2-.3-1.5-.7-1.6-.7-.5-.1-2.2-.8-2.6-.4-3.5 3-7 6-10.5 8.9-1.5 2.2-2.6 4.6-3.2 7.2-1.5 3.6-2.8 7.1-4.7 10.4-1.5 2.7-3.5 5.3-5.9 7.3-1.5 1.2-3.2 2.1-4.7 3.2-3.8 2.7-6.7 6.2-9.1 10.1-3.2 5-6.2 10.3-8.9 15.5-3.2 6.1-5.9 12.5-8.7 18.8-1.1 2.4-2.3 4.8-3.7 7.1-.8.7-1.1 1.6-1 2.7-.1.5-.2 1-.2 1.5.1 1.3.1 2.5.2 3.8 0 1.4.1 2.9.1 4.3.2 2.1.5 4.2.9 6.2.9 5.6 2.3 10.8 4.6 16 .9 2.1 2 4.3 3 6.3 3.7 7.1 9 13 13.1 19.8.2.3 2.1 0 2.3-.1.1 0 2.3-.3 2.3-.3z"/><path id="XMLID_384_" class="st1" d="M70.9 255.3c-3.3-3.1-6.2-6.5-8.7-10.3-2.9-3.8-5.5-7.8-7.6-12.1-2.9-5.7-4.9-12.1-5.9-18.4-1-6.7.1-12.5 3.3-18.6 1.3-2.4 2.8-4.8 4.4-7 3.4-4.9 6.9-9.7 10.3-14.6 4.3-6 8.9-12.8 14.4-18.1 3.1-3 6.9-4.7 10.4-7.2 3.8-2.8 6.3-6.3 8.4-10.5 2.5-5.1 4.5-10.4 6.1-15.9 1.5-4.9 2.5-10 2.8-15.2.2-1.2-.5.3-.6.6-2 5-4.1 10.1-6.1 15.1-1.7 4.1-3.5 8.2-5.2 12.3-.9 1.9-1.8 3.8-2.9 5.6-1.1 1.8-2.4 3.4-4 4.9-2.2 2.1-4.9 3.6-7.4 5.3-3.9 2.7-7.1 6-9.9 9.9-3.2 4.5-6.5 9.1-9.8 13.5-3.9 5.3-8 10.4-11.6 15.9-4.7 7.2-7.9 15.1-6.8 23.9.8 6.7 3.4 12.8 6.2 19 2 4.4 4.3 8.5 7 12.4 1.3 1.9 2.6 3.7 4 5.6 2 2.9 4.2 5.4 6.8 7.8-.2-.3 2.7-3.6 2.4-3.9z"/><path id="XMLID_383_" class="st1" d="M47 248.7c-3.5-3.2-6.3-6.9-8.3-11.2-4.5-7.1-7.5-14.8-9.1-23.1-.1-2.5-.1-5-.2-7.5.4-2.8 1.1-5.5 2.2-8 1.6-3.9 4-7.5 6.5-11 3.4-4.7 6.8-9.4 10.3-14 3.2-4.6 6.5-9 10-13.4 3-3.8 6-7 10.2-9.5 2.7-1.6 5.7-3.1 8-5.3 1.6-1.6 2.8-3.5 3.9-5.5 1-2 1.8-4 2.6-6.1 3-7.8 5.7-15.7 8.1-23.8.1-.5-.5-1.8-.7-2.2 0-.1-.9-1.9-.8-2.1-2.7 8.1-5.4 16.2-8.4 24.1-.5 1.6-1.2 3.1-1.9 4.6-.6 1.5-1.4 2.9-2.5 4.1-.7 1.5-1.7 2.7-3 3.6-.8.7-1.7 1.3-2.6 1.9-2.3 1.4-4.7 2.6-6.8 4.2-3.5 2.6-6.2 6-8.8 9.5-4.3 5.8-8.5 11.6-12.8 17.4-2.9 4-6.1 8-8.8 12.3-3 4.8-5.4 9.8-6.3 15.5-.6 4.1.2 8.5 1.1 12.5 1 4.3 2.6 8.6 4.2 12.8 1.4 3.6 3.1 6.9 5.1 10.2 1.2 2.1 2.4 4.1 3.6 6.2 1.6 3.3 3.9 6 6.8 8.4-.2-.3-.5-1.9-.6-2.2-.4-.8-.6-1.9-1-2.4z"/></g></g></g><g id="XMLID_341_"><g id="XMLID_366_"><g id="XMLID_367_"><path id="XMLID_379_" class="st1" d="M135.9 247.1c5-3.8 10-7.6 13.4-12.9 3.2-5 4.7-10.8 5.4-16.7.8-6.7 1-13.7.4-20.4-.7-7.7-3.2-14.9-7-21.6-3.9-6.8-8.9-12.8-13.9-18.8-5.1-6-10.5-11.9-15.2-18.3-2.3-3.1-4.4-6.4-6.3-9.8-1.9-3.4-3.4-6.9-4.6-10.6-.2-.4-4.4 1.1-4.3 1.5 1.2 3.7 2.7 7.2 4.6 10.6 1 1.7 2 3.3 3 5 3.2 5 7 9.5 10.8 14.1 8.2 9.7 17.1 19 23 30.4 2.7 5.2 4.5 10.5 5.3 16.3.8 5.5.8 11 .5 16.6-.2 4.5-.6 8.9-1.7 13.2-.4 2.2-1.1 4.2-2.1 6.3-3.9 6.9-9.1 12.5-15.5 16.8.4-.3 1.7-.5 2.1-.7.6-.4 1.6-.6 2.1-1z"/><path id="XMLID_378_" class="st1" d="M106.6 257.9c6.9-5.3 13.9-10.5 20.8-15.7 2-1.5 3.9-3 5.7-4.7 3.2-2.8 5.6-6 7.6-9.8 2.9-5.4 4.1-11.7 4.6-17.8.7-8 .9-16.6-1-24.5-2.9-11.6-9.6-21.5-17.1-30.6-4.4-5.3-9-10.4-13.3-15.8-2.5-3-4.8-6.2-7-9.4-1.7-2.4-3.1-4.8-4.4-7.4-1.4-2.4-2.4-5-3-7.8-.4-1.1-5.1-1.7-4.4.1 2.1 5.1 4.5 9.9 7.5 14.5 3.2 5 7 9.5 10.8 14 8.7 10.4 18.3 20.5 23.9 32.9 2.6 5.9 4.1 12.8 4.3 19.2.2 5.1 0 10.2-.5 15.3-.2 2.2-.5 4.3-1 6.4-.6 3.2-1.8 6.1-3.6 8.8-1 2.8-2.5 5.1-4.7 7-1.2 1.2-2.5 2.3-3.8 3.3-7.7 6.3-15.9 12.1-23.8 18.1-.1.2 2.5 3.8 2.4 3.9z"/><path id="XMLID_377_" class="st1" d="M131.1 224.8c3.9-3.2 7.7-6.3 10.5-10.5 2.4-3.6 3.9-7.9 4.7-12.2 1.1-5.3 1.2-10.8 1.3-16.2.1-6.8-.4-13.4-2.5-19.9-4.3-13-13.7-23.5-22.5-33.7-3.9-4.5-7.8-9-11.3-13.8-2.3-3.1-4.4-6.4-6.3-9.8-1.9-3.4-3.4-6.9-4.6-10.6-.1-.3-4.3 1.4-4.2 1.8 1.2 3.7 2.7 7.3 4.6 10.6 1.9 3.4 4 6.7 6.3 9.8 3.5 4.8 7.4 9.3 11.3 13.8 8.8 10.2 18.2 20.7 22.5 33.7 1.8 5.5 2.4 11.2 2.6 17 .2 6.2 0 12.9-1.3 19-.9 4.3-2.3 8.5-4.7 12.2-2.8 4.2-6.6 7.4-10.5 10.5 1-.9 2.9-.8 4.1-1.7z"/><path id="XMLID_376_" class="st1" d="M113.8 255.2c3.2-2.4 6.5-4.9 9.7-7.3l11.4-8.4c1.8-1.2 3.6-2.3 5.3-3.7 2.1-1.7 4.2-3.6 5.9-5.7 3.8-4.6 6.2-10.2 7.6-16 1.5-6.4 2.5-13.1 2.5-19.7 0-7.4-1.9-14.8-4.9-21.6-2.8-6.3-6.5-12.2-10.5-17.8-5.3-7.3-10.9-14.4-16.2-21.7.2.3.4.6.7.9-2.2-3.2-4.3-6.5-6.2-9.8-1.7-3.2-3.2-6.5-4.7-9.8-.6-1.3-2.5-3.4-4.1-3.4-1.1 0-2.8 1.6-2.3 2.7 2.2 5.4 4.5 10.3 7.6 15.2 2.3 3.7 4.8 7 7.4 10.5 10.7 14.1 24 28 27.5 46 .8 4.4 1 8.7.7 13.2-.2 4.2-.7 9.2-1.8 13.4-2.1 4.9-4.2 9.8-6.4 14.6-3 3.4-6.2 6.5-9.8 9.3-6.2 5.1-12.7 9.7-19.1 14.6-.3.2-.3 2-.3 2.2.2.1.1 2.2 0 2.3z"/><path id="XMLID_375_" class="st1" d="M135.6 227.6c3.9-3 8-6 11.2-9.9 2.7-3.2 4.5-6.9 5.8-10.9 1.9-5.6 2.2-11.7 2.3-17.6.2-6.8 0-13.4-1.8-20-3.1-11.4-10-20.9-17.5-29.8-4.5-5.3-9.1-10.5-13.5-15.9-2.5-3-4.8-6.2-7-9.5-3.2-4.8-5.7-10-7.5-15.5-.2-.5-1.8-.7-2.1-.8.1 0-2.3-.6-2.2-.4 1.2 3.7 2.7 7.3 4.6 10.6 1 1.7 2 3.4 3.1 5.1 3.2 5 7 9.5 10.8 14 10.5 12.5 22.7 24.6 27.1 40.8 1.8 6.6 2 13.2 1.8 20-.2 5.2-.5 10.4-1.8 15.4-1.2 4.8-3.2 9.2-6.4 13-3.2 3.8-7.3 6.8-11.2 9.9.2-.1 2.1.6 2.2.6 0 .3 1.9 1 2.1.9z"/><path id="XMLID_374_" class="st1" d="M121.9 236.4c3.9-3.2 7.8-6.4 10.6-10.6 2.1-3.2 3.5-6.8 4.4-10.5 2.2-8.9 2.7-18.5 2.2-27.6-.3-5.9-1.3-11.6-3.5-17.1-2.5-6.3-6.1-12-10.2-17.5-4.8-6.3-10.1-12.2-15.2-18.2-1.9-2.2-3.8-4.5-5.6-6.9-1.8-2.2-3.5-4.6-4.9-7.2-1.8-2.3-3.2-4.8-4.4-7.4-1.4-2.6-2.5-5.2-3.3-8-.2-.6-.5 1.3-.4 1-.1.8-.6 2.4-.3 3.2 2.1 5.5 4.3 10.6 7.6 15.6 2.2 3.3 4.6 6.5 7 9.6 3.1 3.9 6.4 7.6 9.6 11.4 2 2.2 3.9 4.5 5.8 6.8 2.5 2.9 4.8 6.1 6.8 9.4 2.3 3 4.2 6.3 5.8 9.8.7 1.8 1.4 3.5 2.1 5.3 1.3 3.6 2 7.3 2 11.1.6 3.7.7 7.5.5 11.3-.3 8.7-1.6 17.7-7.6 24.5-2.5 2.8-5.4 5.2-8.3 7.6-.2.2-.3 2.1-.3 2.2-.1.1-.2 2-.4 2.2z"/><path id="XMLID_373_" class="st1" d="M135.7 244.8c3.9-3.5 7.6-7.2 9.7-12.2 1.8-4.1 2.8-8.4 3.3-12.8.6-4.8.7-9.9.7-14.7-.1-6.8-1.1-13.3-3.6-19.7-4-10-10.7-18.5-17.6-26.6-5.1-6-10.4-11.9-15.1-18.2-2.3-3.1-4.4-6.4-6.3-9.8-1.9-3.4-3.4-6.9-4.6-10.6-.2-.4-1.9-.6-2.2-.7.1 0-2.3-.5-2.2-.4 1.2 3.7 2.7 7.2 4.6 10.6 1.9 3.4 4 6.7 6.3 9.8 2.4 3.2 4.9 6.3 7.5 9.4 9.4 11.1 19.8 21.7 25.2 35.4 2.5 6.3 3.6 12.9 3.6 19.7 0 4.9-.1 9.8-.7 14.7-.5 4.4-1.5 8.7-3.3 12.8-2.1 4.9-5.8 8.6-9.7 12.2.1-.1 2.1.5 2.2.5 0 .1 2 .7 2.2.6z"/><path id="XMLID_372_" class="st1" d="M129.7 246.3c4.1-3.2 8.3-6.4 12.4-9.6 2-1.5 3.9-3.2 5.7-4.9 3.9-3.9 7-8.4 8.5-13.8.3-1.5.6-3 .9-4.4.4-4 1-7.9 1.6-11.9.7-5.3.8-10.5.5-15.8 0-3.8-.7-7.5-2-11.1-1.3-3.7-2.9-7.3-4.8-10.7-3.8-6.9-8.8-13-13.9-19s-10.5-11.9-15.2-18.3c-2.3-3.1-4.4-6.3-6.3-9.7-1.9-3.6-3.6-7.2-5.1-10.9-.4-.8-.9 1-.9.9-.2.9-.7 2.3-.4 3.2.8 2.9 1.9 5.6 3.3 8.2.8 1.8 1.8 3.5 2.9 5.1 2.6 4.2 5.5 8.1 8.6 11.9 6.2 7.7 13.1 14.8 18.9 22.8 2.2 3.1 4.3 6.3 6.2 9.6 2.4 4.2 3.9 8.6 4.9 13.2a23263973459515736 23263973459515736 0 0 1 1.7 28.2c.1-.9.2-1.9.3-2.8-1.4 6.4-3.3 13.2-7.7 18.3-1.6 1.8-3.4 3.5-5.2 5.1-4.8 4.2-10.4 8.1-15.3 11.9-.3.2.2 2.1.2 2.3-.2-.1.2 2.2.2 2.2z"/><path id="XMLID_371_" class="st1" d="M121.2 233.7c3.6-2.7 7.2-5.5 10.3-8.7 1.9-2 3.7-4.2 5.3-6.5 2.3-3.3 3.8-7.1 4.8-11 1.7-6.8 2.1-14.2 1.9-21.2-.2-5.9-.9-11.5-2.6-17.2-2.5-8.2-7.7-15.6-13-22.3-5.5-7-11.6-13.5-17.2-20.5-3.1-3.8-5.9-7.8-8.5-12-2.5-4.2-4.3-8.5-6.1-13.1-.1-.3-1.7 1.7-1.6 1.6-.3.4-1.3 1.4-1.1 2 1.2 3.7 2.7 7.2 4.6 10.6 1 1.7 2 3.3 3 5 3.2 5 7 9.5 10.8 14.1 8.2 9.7 17.1 19 23 30.3 3.5 6.8 5.4 14 5.8 21.8.2 5.1.1 10.2-.3 15.3-.1 2.2-.4 4.4-.9 6.6-.5 3.5-1.8 6.7-4.1 9.5-1.1 3.1-3 5.6-5.6 7.5-1.9 1.6-3.9 3.2-5.9 4.7-.8.6-1.4 1.7-2 2.5.1-.2-1 1.3-.6 1z"/><path id="XMLID_370_" class="st1" d="M112.5 245.6c4.7-3.8 9.5-7.5 14.4-11 2.6-1.9 5.2-3.9 7.8-5.8 1-.8 2-1.6 2.9-2.3.8-1 1.4-2.2 1.9-3.4-1 .8-2 1.7-3 2.5 5.5-3.9 5.6-2.8 7.9-8.4 1.1-2.8 2.6-8.7 3.3-11.3.4-1.8.9-3.6 1.3-5.4.3-2.2.6-4.4.8-6.5.2-2.5.6-5.1 1-7.6.4-3 .2-6-.7-8.9-.6-4-1.7-7.9-3.3-11.7-.9-1.7-1.8-3.4-2.6-5.1-3.8-6.9-8.9-13.1-13.9-19.1-3.8-4.6-7.8-9-11.5-13.7-3.7-4.4-6.9-9.1-9.8-14.1-2.1-4.4-4.4-8.7-6.8-12.9-.3-.5-.2.6-.2.4-.4 3 .3 5.6 1.9 8 1.2 2.6 2.7 5.1 4.4 7.5l3.6 5.1c7.5 10.3 16.7 19.2 23.9 29.8 5.5 8.1 9.7 17.5 10.6 27.4.3 3.2.6 6.5.7 9.8.2 2.2.3 4.4.5 6.6 0 4.4-.6 8.7-1.1 13.1.3-.9.5-1.8.8-2.7-.7 2.7-1.8 5.2-3.3 7.6-2.1 2.5-3.5 5.3-4.2 8.5.3-.7.6-1.3.9-2-1.5 1.9-2.9 3.8-4.4 5.7 1-.8 2-1.7 3-2.5-1.9 1.2-3.8 2.3-5.7 3.5-1.4 1.2-2.9 2.4-4.4 3.5-7 5.3-14 10.6-21 16 .3-.2 2-.1 2.3-.2.2-.2 1.7-.2 2-.4z"/><path id="XMLID_369_" class="st1" d="M127.2 252.1c4.2-3.3 8.4-6.5 12.6-9.8 2-1.6 4-3.2 5.8-5 2.2-2.2 4.2-4.7 5.9-7.3 1.9-3 3.6-6.3 4.6-9.7 1.7-5.8 2.2-11.8 2.4-17.8.2-7.7-.2-15.3-2.5-22.8-2-6.4-5.7-12.4-9.5-17.8-5.2-7.2-11.2-13.8-16.9-20.6-3.2-3.8-6.3-7.6-9.1-11.7-4-5.7-6.7-11.1-9.1-17.8-.2-.6-.9.5-1 .7-.3.4-1.8 2.2-1.6 2.8 1.9 5.1 2 6 4.6 10.8 2.8 5.1 6.3 9.9 9.9 14.4 6.8 8.4 14.4 16.3 20.7 25.2 1.7 2.3 3.3 4.7 4.7 7.2 1.5 3.4 3.1 6.8 4.6 10.2 1.9 5.3 2.5 11.4 2.6 17 0 4.9 0 9.8-.6 14.7-.2 1.5-.5 2.9-.7 4.4-.8 4.3-2.3 8.3-4.5 11.9.6-1 1.3-2 1.9-3-.7 1-1.5 2-2.2 3-2 2.3-4.1 4.3-6.5 6.2-4.5 3.7-9.2 7.3-13.7 10.9-.5.4-.9 1.3-1.3 1.9-.2.5-.8 1.7-1.1 2z"/><path id="XMLID_368_" class="st1" d="M120.8 243.6c4-3 8-6.1 11.3-9.9 3.3-3.9 5.3-8.4 6.5-13.2 1.5-6 1.8-12.2 1.9-18.3.1-7-.6-13.5-2.6-20.3-2-6.7-5.2-13.1-9.1-18.9-4.9-7.4-10.9-14-16.7-20.7-2.6-3-5.1-6-7.5-9.2-1.8-2.2-3.4-4.6-4.9-7.1-3.3-4.5-5.7-9.3-7.4-14.7-.1-.4-.3-1.1-.6-.9-.2.2.9 2.8 1 3.1 1.8 4.9 3.6 9.3 6.3 13.8 2.1 3.5 4.4 6.7 6.8 9.9 7.8 10.1 17.2 19.1 24.2 29.9 5.4 6.8 8.2 14.4 8.4 22.7.5 3.7.7 7.5.4 11.3-.1 4.5-.5 8.9-1.3 13.3-1.1 5.7-3.3 10.7-7 15.1-3.1 3.9-7.3 6.9-11.2 9.9-.3.2 1.9 3.9 1.5 4.2z"/></g></g></g><g id="XMLID_325_"><g id="XMLID_349_"><path id="XMLID_353_" class="st2" d="M72.7 274.9c-12.5-12.4-27.7-21.7-40.1-34.2-5.7-5.7-10.7-12.2-14.1-19.6-4.1-8.9-5.3-18.8-5.9-28.5-.6-10.5.2-21.4 3.6-31.4 2.9-8.5 8.7-14.1 15.9-19.2 15-10.6 31-19.6 46.9-28.6 14.2-8 28.8-17.6 34.5-33.7.5-1.5-.5-3.5 0-5-5.6 15.8-19.9 25.4-33.9 33.4-17.5 10-35.8 19.5-51.7 32-14.2 11.1-15.8 29.5-15.8 46.3 0 17.3 1.5 34.9 12 49.4 12.9 18 33 28.6 48.5 44.1-.7-.8.9-4.2.1-5z"/></g></g><g id="XMLID_324_"><g id="XMLID_343_"><path id="XMLID_347_" class="st2" d="M114.7 90.3c2.6-2.9 2.6-6.8 2.3-10.5-.1-2.4-.7-4.6-2.2-6.6-2.4-3.2-6.4-4.2-6.7-8.7v4.9c1.3-8.9 11.5-8.2 17.2-12.7 3.6-2.8 3.7-6.4 3.6-10.5-.2-13.2-11.2-24.8-22.6-29.9.6.3-.7 4.5 0 5 8 5.4 19.7 8.3 23.9 17.8 2 4.6.7 9.1-2.2 13-2.8 3.7-8.4 5.6-9.3 10.5-.3 1.6-.2 3.6-.1 5.3.4 4.4 4.1 6.4 6.6 9.6 7.6 9.8 1 20.8-7.3 27.5-.8.7.8 4.4 0 5 7.5-6 11.2-13.7 11.2-23.2 0-3.6-.2-7.1-1.7-10.5-2.1-4.8-8.2-7.7-8.8-13.1v5c.4-3.8 3.4-5.6 6.1-7.8 2.4-2 4.3-4.2 5.5-7.2 1.6-3.8 1.5-7.9 1.4-12-.4-14.6-15.2-18.1-25.3-24.9v5c11.1 4.9 22.2 16.2 22.6 29v-4.9c-1.9 11.6-20 7.5-20.9 19.7-.1 2-.3 4.8.5 6.7 1 2.4 3.6 3.6 5.4 5.4 2 2 2.8 4.4 3 7.2v-4.9c-.1 2.4-.7 4-2.3 5.7-.7 1.1.9 4.2.1 5.1z"/></g></g><g id="XMLID_323_"><g id="XMLID_336_"><path id="XMLID_340_" class="st2" d="M128.6 101l20 20.3c2.9 2.9 6.5 5.8 8.9 9.1 2.4 3.2 4 7.9 5.7 11.6 1.3 2.8 2.3 5.2 4.2 7.7 1.9 2.4 4 4.5 5.2 7.3 3.7 9.4 5.9 17.9 5.3 28.1-.5 8.6-1.6 18.5-5.2 26.5-3.2 7.2-9 12.5-13.6 18.7-4.9 6.5-8 12.7-15.4 16.7-7.9 4.2-16.7 7.2-25.1 10-8.6 2.9-17.5 4.8-26.2 7.5-7.9 2.4-15.4 5.9-20.2 12.9-.8 1.1.8 3.9 0 5 9.6-14 30.6-15.3 45.5-20.1 9.2-3 19-6.2 27.4-11.1 7.7-4.5 11-12.4 16.5-19 5.8-7.1 11.5-13.6 13.4-22.8 1.8-8.4 3-16.9 3.1-25.6.1-5.6 0-11.2-.7-16.7-.6-4.6-2.2-8.5-3.9-12.8-1.5-3.6-3-5.7-5.3-8.8-5.3-7.1-7-16.5-13.3-22.9-8.7-8.9-17.4-17.7-26.1-26.6.6.8-1.1 4.1-.2 5z"/></g></g><g id="XMLID_322_"><g id="XMLID_330_"><path id="XMLID_334_" class="st2" d="M47.7 247c-17.6-21.1-25.2-50-17.8-76.8 1.8-6.3 4.1-12.7 7.9-18.2 4-5.9 9.8-9.7 15.8-13.3 12.5-7.3 22.6-15.4 28.6-28.9.6-1.4-.6-3.6 0-5-3.2 7.3-7.8 13.9-13.9 19.2-6.1 5.3-13.5 8.6-20.2 13.2-13.5 9.1-18.9 25.3-20.8 40.9-3.2 26.3 3.2 53.4 20.3 73.9-.7-1 .9-4 .1-5z"/></g></g><g id="XMLID_321_"><g id="XMLID_316_"><path id="XMLID_328_" class="st2" d="M66.9 266.5c-8.3-13-16-26.6-22.1-40.7-2.9-6.8-5.9-14.4-6.4-21.9-.6-8.9 2.6-17.4 5.8-25.5 5.3-13.2 10.6-26.9 20.3-37.6 9.3-10.3 21.8-17.2 31.1-27.5 5.2-5.7 9.5-12.5 11.1-20.1.8-3.8.7-7.8.6-11.7v4.3c.1 5.7-4.2 12.9-7.5 17.4-4.4 6-9.9 10.9-15.7 15.6-11.6 9.3-22.3 18.1-29.5 31.4-3.5 6.4-6.3 13.2-9 20-3 7.4-6.1 14.9-7.1 22.9-1.2 10.1 0 20.5 3.3 30 5.9 17.1 15.4 33.3 25.1 48.5-.7-1.2.8-3.9 0-5.1z"/></g></g><g id="XMLID_320_"><g id="XMLID_303_"><path id="XMLID_314_" class="st2" d="M72.2 269.3c-4.5-16.4-12-30.6-19.8-45.5-3.6-6.9-6.7-14-4.5-21.8 2.3-8.2 5.5-16.1 8.3-24.1 5.3-15.2 10.2-30.8 20.9-43.2 9.9-11.4 22.9-19.8 31.8-32.1 7.2-10 10.1-21.5 8.4-33.6.2 1.6-.2 3.4 0 5 2 14.5-11.7 28.7-21.4 37.6-11.5 10.6-22.6 20.3-29.6 34.7-7.3 15.1-12.2 31.7-17.5 47.6-3.2 9.7-3.1 20 .9 29.4 3.4 8.2 8.5 15.6 12.3 23.6 4.2 8.8 7.5 18 10.1 27.5-.3-1.7.5-3.5.1-5.1z"/></g></g><g id="XMLID_319_"><g id="XMLID_297_"><path id="XMLID_301_" class="st2" d="M139.1 249.8c7.9-1.8 13.1-9.2 17.1-15.7 4.3-7 7.3-14.7 9.2-22.6 2.8-11.7 4.3-24.2 3.5-36.3-.2-3.8-1.4-6.8-3.5-9.9-2-2.9-4.8-4.8-6.6-8-3.3-5.8-4.7-12-8.8-17.4-4.5-5.8-6.3-14.4-9.6-21.1-3.4-6.9-7.6-13.1-13.7-17.7.8.6-.8 4.4 0 5 11 8.3 15.4 21.4 20.5 33.6 2.3 5.5 6.3 9.6 8.6 15.3 1 2.4 1.8 4.9 3.1 7.2 1.5 2.6 3.5 4.2 5.5 6.4 5.7 6.5 4.8 14.6 3.7 22.6-1 7.3-2.2 14.5-4.4 21.5-3.7 11.4-11.5 29.1-24.5 32-.5.2.2 5.1-.1 5.1z"/></g></g><g id="XMLID_82_"><g id="XMLID_291_"><path id="XMLID_295_" class="st2" d="M102.3 262c7-2.8 13.9-6 20.6-9.5 6.4-3.4 13.7-6.9 18.7-12.3 4.9-5.2 7-12.3 9.1-19 2.4-7.4 4.7-15 5.5-22.8 1-9.7.4-19.7-3.8-28.6-1.3-2.8-2.8-5.7-4.7-8.2-1.5-2-2-3.9-3.2-6.1-1-1.9-2.8-2.9-4.1-4.6-2-2.8-3.8-5.8-5.5-8.9-8.2-14.8-13-32.4-12-49.4.1-1.5-.1-3.6 0-4.8-1.5 23.8 3.3 47.7 17.1 67.4 1.3 1.8 3.2 2.9 4.3 4.8 1.3 2 1.6 4.3 3 6.2 4.1 5.7 7.4 12.4 8.6 19.3 1.5 8.4-1.1 17.2-3.5 25.3-2.1 6.8-4 14.2-7.8 20.4-4.3 6.9-11.6 10.8-18.5 14.6-7.7 4.2-15.7 8-23.8 11.2-.6.2.6 4.8 0 5z"/></g></g><g id="XMLID_81_"><g id="XMLID_285_"><path id="XMLID_289_" class="st2" d="M79.9 268.2c9.9-9.6 22.7-14.5 35-20 5.7-2.6 12.7-5.2 17-10 4.8-5.3 5.3-14.2 6.6-20.9 1.9-10.3 2.9-20.8 2.4-31.3-.8-14.5-7.3-26.5-14.2-39-9.2-16.7-14.2-33.8-9.6-52.9.4-1.6-.4-3.4 0-5-2.3 9.3-2.8 19.2-2 28.8 1.3 15.4 8.3 28.1 15.6 41.4 3.3 6.1 6.4 12.3 8.2 19 2.5 9.1 2 18.3.6 27.6-1.1 7.4-2 15.8-4.8 22.7-2.5 6.1-8.4 9.1-14 11.8-14 6.9-29.4 11.6-40.8 22.8-.8.9.9 4.2 0 5z"/></g></g><g id="XMLID_467_"><g id="XMLID_279_"><path id="XMLID_283_" class="st2" d="M92.2 220.1c-.4-8.7 5.8-18.5 9.9-25.7 4.9-8.6 10.4-17.3 12.6-27.1 1.5-6.5 1.3-13.6.8-20.2-1-12.7-3.9-25.4-6-38 .3 1.6-.3 3.4 0 5 2.1 12.5 5.3 25.3 6 37.9.6 11.3-4.2 21.3-9.7 30.9-4.5 7.9-9.5 15.8-12.1 24.6-1.6 5.7-1.7 11.5-1.5 17.4-.1-1.1.1-3.2 0-4.8z"/></g></g><g id="XMLID_80_"><g id="XMLID_273_"><path id="XMLID_277_" class="st2" d="M119 190.8c.6-11.9 0-23.7-2.3-35.4.3 1.6-.3 3.4 0 5 1.7 8.4 2.7 17 2.3 25.6-.1 1.5 0 3.7 0 4.8z"/></g></g><g id="XMLID_78_"><g id="XMLID_79_"><g id="XMLID_626_"><g id="XMLID_267_"><path id="XMLID_271_" class="st2" d="M208.1 203.6c-12.2-29.5-3.8-65.5 19-87.6 9.9-9.6 22.4-16.7 35.9-19.6 8.3-1.8 16.8-2 25.3-1.4 8 .6 16.4 3.5 24.3 3.1 7.7-.4 11.4-6.4 13.3-13.2.2-.7.6-4.8 1.1-5.2.9-.7 6.5 1 7.6 1.1 5.1.6 10.2 1 15.3 1.2v-5c-8.1 16.5-20.9 33.8-14.8 53.2 1.7 5.4 5.1 10.1 7.9 15 2.7 4.6 4.7 9.5 5.9 14.7 2.6 11 .5 22.5-4.6 32.5-9.8 19.1-30.3 28.6-50.5 32.2-11.8 2.1-24.4 2.9-36.3.9-11.1-1.9-21.3-6.8-31.5-11.5-6.1-2.8-12.3-5.6-18.7-7.6-2.3-.7-7.5-3.2-8.8-1-.4.7-.3 1.7-.4 2.5-.2 3.3 0 6.2 1.4 9.2 3.1 6.4 6 11.7 6.8 19v-5c-2-.1-2.6-1.5-2.9-3.3v5c.4-3.2 3.2-5.4 3.6-8.7.1-1 0-2.1 0-3.2 0-4.5-1.2-8.5-6.1-9.9.3.1-.1 4.5 0 5 1.9 6.8 10.6 8.6 11.1 16.2v-5c-.6 3.4-.9-1.9-.9-2.9 0-2.9-.1-5.8-.1-8.7 0-1 .5-2.8-.4-3.5-1.3-.9-2.6.2-3 1.4-.2.4-.1 5 0 5 5 .7 10.4 2 11.5 7.7v-4.7c-.1.7-.2 1.4-.3 2-.4 1.3.7 3.9 0 5 3-4.7 2.5-13.5-1.7-17.3.8.7-.8 4.2 0 5 2 1.8 2.9 3.8 3.3 6.4v-1.2V218.8c-.2 1.8-.7 3.1-1.6 4.6v5c.6-2.1.7-5 .4-7.2-.8-5.8-6.6-7.2-11.5-7.9v5c.3-.8.8-1.6 1.8-1.7 2.2-.1 1.6 3.5 1.6 5 .1 4.2.1 8.4.2 12.6v.3c1.1-2.2 1.1-5.1.9-7.5-.7-7.5-9.2-9.4-11.1-16.2v5c3.8 1.1 5.9 4.1 6 8v-4.9c-.5 3.9-3.6 6.4-3.7 10.5 0 2.4-.4 6.3 2.9 6.4v-5c-.5-4.4-1.5-8.5-3.3-12.5-1.6-3.6-4.1-6.7-4.9-10.6v3.7c.9-3.2 2.4-2.1 5.2-1.4 2.4.6 4.8 1.4 7.2 2.2 4.8 1.7 9.4 3.7 14 5.8 9.2 4.2 18.3 8.6 28.1 11.1 18.7 4.7 41.1 2.2 59-4.6 17.1-6.5 31.3-19.1 36.5-37 3.6-12.4 3.4-27.8-1.3-39.9-4.1-10.5-14.2-19.7-12.3-31.8 1.9-12.4 10.1-23 15.5-34 .2-.4-.1-5 0-5-4.8-.2-9.6-.5-14.4-1.1-2.1-.2-4.5-.9-6.7-.9-3.5 0-1.1-.8-2.1 1-.5.8-.5 2.3-.7 3.3-1.8 7-5.5 13.5-13.5 13.9-4 .2-8.2-1-12.1-1.6-5-.8-10-1.4-15-1.7-9.3-.5-18.6.2-27.6 2.9-32 9.5-52.9 39.8-55.4 72.4-1.1 14.6-.1 29.8 5.6 43.5-.6-1.3.6-3.5 0-4.9z"/></g></g><g id="XMLID_633_"><g id="XMLID_261_"><path id="XMLID_265_" class="st2" d="M312 110c-.1-.5-.2-1-.4-1.4v4.9c.3-7.3 8.3-8.7 11.9-13.9 3.1-4.4 3.4-9.9 3.8-15.1.1-1.5-.1-3.6 0-4.8-.3 4.6-.7 9.5-3 13.7-2.4 4.2-6.8 5.7-10 9.1-3.1 3.2-3.4 8.4-2.3 12.6-.4-1.7.4-3.6 0-5.1z"/></g></g><g id="XMLID_640_"><g id="XMLID_220_"><path id="XMLID_259_" class="st2" d="M320 115.1c0-.5 0-1.1-.1-1.6v4.9c1.6-5.2 6-9.7 8.6-14.6 2.7-5 4.8-10.2 6.5-15.6.5-1.5-.5-3.5 0-5-2.8 8.7-6.7 16.7-11.8 24.2-3.2 4.6-3.5 7.2-3.3 12.5.1-1.2.2-3.3.1-4.8z"/></g></g><g id="XMLID_647_"><g id="XMLID_214_"><path id="XMLID_218_" class="st2" d="M214.4 200.6c-4.1-1.4-4.5-5.9-4.8-9.7-.5-5.9-.9-11.8-1.4-17.6.1 1.7-.1 3.3 0 5 .5 5.9.9 11.8 1.4 17.6.3 3.8.8 8.2 4.8 9.7-.5-.1.6-4.8 0-5z"/></g></g><g id="XMLID_654_"><g id="XMLID_241_"><g id="XMLID_242_"><path id="XMLID_257_" class="st1" d="M322.1 142c-1.6.3-3 .8-4.5 1.3-.8.3-1.6.6-2.3 1.2-2.1 1.8-2.3 4.6-2.3 7.1.1 4.2 1.7 9.3 4.5 12.5 1.4 1.7 2.7 4.2 3.4 6.3.5 1.9.9 3.8 1.4 5.7.3 1.6.7 3.3 1 4.9.9 4.5.8 8.9-.5 13.3-.4 4.6-2.4 8.4-6.2 11.5-2.3 4.6-5.6 8.3-10 11-1.7 1.1-3.4 2.1-5 3.2-8.8 4.9-19.1 7.5-29 8.6-2 .2-4.1.4-6.1.5-4.3 0-8.6-.1-12.9-.1-4.4-.5-8.7-2.1-13-3.3-1-.3-2.2 0-3.2.2.1 0-1.6.1-1 .5 2.3 2 5 3.4 7.8 4.4 2.3 1.1 4.6 1.8 7.1 2 3.3.5 6.5.7 9.8.7 8 0 16.3-.8 24-2.7 9.8-2.4 19.7-6.3 26.9-13.6 1.3-1.6 2.6-3.3 3.9-5 .7-.8 1.3-1.7 2-2.6 1.5-2.1 2.8-4.4 3.9-6.6 2.2-4.3 3.8-8.7 4.8-13.4.7-3.4 1-6.9.7-10.4 0-2.1-.5-3.9-1.5-5.6-.8-1.5-1.5-3-2-4.6-1.1-2.6-2.1-5.3-3.3-7.9-1-2.1-2-4.2-2.7-6.4-1.3-4.3-1.4-9.8 2.8-12.4-1.4.5-2.8 1-4.1 1.5.4-.1.8-.2 1.2-.2 1.6-.4 2.9-1.3 4.4-1.6z"/><path id="XMLID_256_" class="st1" d="M309.9 134.9c-1 0-1.7 0-2.3.9-1.3 2-1.1 4.8-1.7 6.9.7-1.2 1.4-2.3 2.1-3.5-4.1 6.1-3.6 3.2-3.4 7.7.1 1.9.2 3.8-.1 5.7.1-.3.1-.6.2-.9-.2.9-.4 1.7-.6 2.6-.2 1-.4 1.9-.7 2.9-.1 1.3-.1 2.6-.2 3.8-.6 2.7-1 5.4-1.3 8.1.1-.4.2-.7.3-1.1-1.5 5.7-2.9 11.2-5.7 16.5-2.7 4.9-6.2 9.1-10.6 12.5l.9-.6c-1.7 1.1-3.5 2.1-5.2 3.2.3-.2.7-.4 1-.5-1.9 1-3.7 1.9-5.6 2.9.3-.2.7-.3 1-.5-1.9.9-3.8 1.7-5.7 2.6.3-.2.7-.3 1-.5-5 1.9-9.9 3.5-15.1 4.6-5.7 1.2-11.6 1.9-17.4 2.2-2.2.1-4.4.3-6.5.5-1.7-.6-3.3-.6-4.7.2-1.7 1.2-2.7 3.6-3.8 5.4-.5.9 0 2 1 2.2 2.6.9 5.3 1.3 8.1 1.1-.4-.1-.7-.1-1.1-.2 3.2.7 6.5 1.1 9.8 1.1 3 .1 5.9 0 8.9-.2 8-.5 15.9-1.5 23.6-3.7 11.4-3.4 22.1-9.1 29.1-18.9 6.6-9.2 9.9-20.9 8.2-32.2-.6-4.3-2-8.4-3.2-12.6-1-2.4-1.5-5-1.6-7.6.8-2.5.6-4.8-.6-7-.8 1.3-1.6 2.5-2.4 3.8 2.5-2.1 3.5-3.7 6.4-4 .2 0-1-2.1-1-2 .1.1-.7-1.4-1.1-1.4z"/><path id="XMLID_255_" class="st1" d="M309.1 125c-4.2 2.2-4.3 7.3-3.2 11.5 1.1 4 3.3 7.7 5.2 11.4 3.1 5.9 4.9 11.9 4.3 18.7-.3 2.8-.8 5.5-1.7 8.2-.4 1.4-.9 2.7-1.5 4-1 2.6-2.5 5-4.5 7.1-1.1 2.5-2.8 4.6-4.9 6.2-1.2 1-2.3 2-3.6 2.9-3.2 2.5-6.5 4.5-10.1 6.3-7.3 3.7-15.2 6-23.3 7.3-8.4 1.3-17.3 2.4-25.8 1.2.6.1 1.2.3 1.7.4-3.1-1.2-6.1-2.8-8.9-4.7-.5-.3-1.8.7-2.1.9.1-.1-2.1 1.3-1.8 1.5 6 2.3 3.7 1.5 10.9 2.9 2.5.5 5 .9 7.5 1.2 8.1.7 16.1.5 24.2-1.1 10.1-2 19.7-5.4 28.4-11.1 4.9-3.3 9-7.7 12.3-12.5 7.9-11.3 10.4-26.1 4.3-38.8-2.2-4.5-4.9-8.8-6.3-13.6-1.2-4.1-1.1-9.2 3.1-11.5-1.3.5-2.8.9-4.2 1.6z"/><path id="XMLID_254_" class="st1" d="M320.3 131.5c-1.7.1-2.8.4-3.9 1.8-.6.8-1 1.6-1.2 2.6-.3.6-.5 1.2-.6 1.9-.2 2 .9 4.9 2 6.4 2.1 2.9 4.4 5.5 7 8.1-.2-.3-.4-.7-.6-1 1.6 3.1 3 6 3.6 9.5.7 4.4.6 8.6.1 13 .1-.6.2-1.3.2-1.9-.3 2.2-.8 4.3-1.5 6.4-.6 2.1-1.4 4.2-2.4 6.2.6-1.1 1.1-2.3 1.7-3.4-1.3 2.4-2.5 4.9-3.8 7.3.6-1.1 1.2-2.3 1.8-3.4-1.6 2.4-3.3 4.8-4.9 7.3 2.2-2.9 4.4-5.9 6.6-8.8-4.8 5.1-9.5 10.2-14.3 15.3l7.2-6.3c-2.5 2-5 4.1-7.5 6.1 1.1-.8 2.1-1.5 3.2-2.3-2.7 1.8-5.3 3.7-8 5.5 1.1-.7 2.2-1.3 3.3-2-2.8 1.6-5.6 3.2-8.3 4.9 1.1-.6 2.3-1.2 3.4-1.8-2.9 1.4-5.8 2.8-8.6 4.2 1.1-.5 2.3-1 3.4-1.5-3 1.2-5.9 2.4-8.9 3.6 1.2-.4 2.3-.8 3.5-1.3-3 1-6 2-9.1 3 1.2-.3 2.3-.7 3.5-1-2.6.7-5.2 1.3-7.7 2 1.2-.3 2.3-.6 3.5-.9-3.6.7-7.2 1.4-10.9 1.5-1.9 0-3.8.1-5.7.2-3.5.2-6.9.1-10.3-.3-2.9-.2-5.9.1-8.7 1-.8.1-1.4.5-1.8 1.2-.3.8-.2 1.4.3 2.1.9.6 1.7 1.2 2.6 1.8 1.3.5 2.7.8 4 .9 3.6.6 7.3 1.2 11 1.1 8-.2 15.9-1.7 23.6-3.9 8.6-2.5 17-6.2 24.1-11.8 6.5-5.1 12.2-11.8 16.6-18.8 2.3-3.6 4.6-7.3 6.4-11.1 1.6-3.3 2.6-6.9 3.5-10.5 1.3-5.2 1.9-10.9 1.4-16.2-.2-2.3-.8-5.4-2.1-7.4-.5-.9-2-3.3-2.8-3.6-1.3-.4-2.7-.1-4 0-3.7.2-7.1 1.1-10.7 1.7.3.1.6.1.9.2-1.4-.8-2.7-1.5-4.1-2.3.6.7 1.2 1.5 1.8 2.2-.6-1-1.1-2-1.7-3 .4 1.1.8 2.3 1.2 3.4.2-1.6.7-3.1 2.4-3.3.5-.2.5-4.6.3-4.6z"/><path id="XMLID_253_" class="st1" d="M316.1 122.5c-4.3 2.4-3.8 7.5-2.7 11.7 1 4.1 2.9 7.9 4.8 11.7.9 1.7 1.8 3.5 2.5 5.3.8 3.9 1.6 7.9 2.4 11.8 0 2.1-.2 4.2-.7 6.2-1.3 6.8-4.6 13.2-9.1 18.4-4.4 5.2-10.2 9.1-16.3 12.1-7.4 3.7-15.2 5.9-23.4 7.2-3.8.6-7.7 1-11.6 1.3-3 .3-6 .2-9-.3-4 0-7.9-.5-11.8-1.4.8.4 1.7.9 2.5 1.3-1.2-.7-2.3-1.4-3.5-2.1-.8-.5-2.3-.4-3.2-.4.3 0-1.8 0-1.1.3 3.2 1.4 6.5 2.8 9.7 4.2 1.4.8 3 1.3 4.6 1.4 3.7.6 7.4.8 11.1.8 7.9 0 15.8-1.2 23.5-3.1 9.9-2.5 19.5-7.1 27.3-13.8 5.2-4.5 9.2-10.3 11.9-16.6 4.5-10.4 4.6-22.1-1.1-32.1-1-1.8-2.4-3.5-3.3-5.4-1.6-3.2-2.6-6.8-2.7-10.3-.1-3 .7-5.5 3.4-7-.2.1-2-.6-2.2-.6 0 0-1.8-.7-2-.6z"/><path id="XMLID_252_" class="st1" d="M303.8 130.6c-2.4 2.5-3.3 5.8-3.5 9.2-.2 3.4.3 6.2 1.7 9.3 1.7 3.7 3.9 7.1 5.3 11 4.2 11.2 2.2 24.2-4.3 34.2-3.7 4.8-8.1 9-13 12.4-3.3 2.4-6.8 4.3-10.5 5.9-9.4 4.2-19.4 5.8-29.6 6.7 1.3 0 2.6 0 3.9.1-2.5-.7-5.1-1.2-7.7-1.4-2.7-.4-5.4-.7-8.1-.9-1.6-.3-3.3-.6-4.9-.9-2.9-.8-5.6-1.9-8.2-3.5 0 0-1.4 4.1-.6 4.5 2.6 1.5 5.3 2.7 8.2 3.5 2.9.7 5.9 1.1 8.9 1 6-1 12.1-1.9 18.2-2.7 4.1-.5 8.1-1.2 12.1-2.2 7.8-2 15.5-5.2 22.1-9.8 3.9-2.6 7.2-5.9 9.7-9.9.6-.8 1.2-1.6 1.7-2.4 5.6-8 8.7-17.8 7.4-27.6-.3-2.8-1-5.5-2.2-8.1-.8-1.9-1.8-3.7-3-5.5-3-5.4-5.9-10.7-6.2-17-.2 1.2-.3 2.4-.5 3.5.6-1.9 1.1-3.3 2.5-4.8.3-.3.3-1.9.3-2.2.1-.4.1-2.1.3-2.4z"/><path id="XMLID_251_" class="st1" d="M308.3 145.3c-2.4 4.3-1.7 9.1.2 13.5 2.8 6.5 6.9 12.3 8.6 19.3 1.5 6.5 0 13.1-2.3 19.2-1.7 4.4-3.6 8.7-6.4 12.6-4.5 6.3-11.1 10.4-18.1 13.5-5.7 2.2-11.5 4-17.5 5.3-9.6 2.4-19.4 3-29.5 1.6l1.8.3-10.5-3.3c-.9-.4-2.1-.6-3.1-.7 0 0-1.3-.1-.8.2 1.5 1 3.1 1.8 4.8 2.4 1.3.5 2.7.9 4 1.4 2.1.6 4.2 1.1 6.4 1.4 5.8.8 11.9.5 17.7.2 14.5-.7 29.4-5 40.6-14.7 4.1-3.5 7.9-7.4 11-11.8 1.5-2.1 3.1-4.8 4-7.3 1.3-3.8 1.9-7.9 2.1-11.9.1-2.1-.1-6.5-.4-8.6-.8-5.2-3.7-9.7-6-14.4-2.8-5.5-5.3-11.3-2.1-17.1-.2.3-4.2-1.4-4.5-1.1z"/><path id="XMLID_250_" class="st1" d="M324.6 130c-1.7.3-2.7.7-3.8 2.1-.6.8-1.1 1.7-1.4 2.7-.9 1.2-1.2 2.6-.6 4.1.9 6.1 4.9 11.5 7.9 16.8-.1-.3-.3-.5-.4-.8.6 1.1 1.1 2.3 1.7 3.4-.1-.3-.3-.6-.4-.8.6 1.6 1.3 3.2 1.9 4.8l-.3-.9c.4 1.7.8 3.4 1.2 5-.1-.3-.2-.7-.2-1 .5 2.7.6 5.5.4 8.3-.3 2.9-.8 5.7-1.7 8.4-1.8 5.7-5 10.5-8.7 15.2l1.4-1.4-4.3 4.3c.5-.5 1-1 1.5-1.4-11.6 10.9-26.2 16.6-43.6 17.3-3.2.3-6.4.3-9.5.1.5.1 1.1.1 1.6.2-3.3-.4-6.7-.8-10-1.2-3.7-.3-7.4-1-11-2-1-.2-1.4.1-1.6 1.1-.1.6-.3 2.9.6 3.2 4.3 1.3 6.1 1.9 10.5 2.6 2 .3 4 .7 6 .9 8.2.8 16.6-.3 24.6-1.8 13.4-2.6 26.7-8.1 36.9-17.3 3-2.7 5.7-5.6 7.9-9 2.1-3.2 3.8-6.6 5-10.1 1.9-5.5 2.6-11.2 1.8-17-.8-5.7-3.7-10.7-7.4-14.9l-4.5-4.8c-.5-.6-1.1-1.3-1.6-1.9-1.9-2.2-3.1-4.7-3.3-7.7 0 .4.1.7.1 1.1 1.1-2.1 1.8-2.7 3.9-3 .3-.2-.3-4.6-.6-4.6z"/><path id="XMLID_249_" class="st1" d="M310.6 125.9c-1.8.3-2.7.9-3.9 2.3-.6.7-1.2 1.5-1.7 2.2-2.1 2.8-3.1 6.4-2.4 9.8.3 1.5.9 2.7 1.5 4.1 1.5 3.4 3.4 6.9 4.5 10.4.5 2.4 1.1 4.9 1.6 7.3.2 2.6.1 5.3-.4 7.9-.9 5.6-3.1 10.5-5.9 15.4.2-.2.3-.5.5-.7l-3 4.2c.2-.2.3-.5.5-.7-1.2 1.6-2.5 3-4 4.2-1.7 1.5-3.4 2.9-5.3 4.2-4.6 3.3-9.9 6.2-15.1 8.4-1.9.7-3.8 1.4-5.6 2.2-9.8 3.3-19.8 5.1-30 5.3-1.2-.1-2.5-.3-3.7-.4-3.3-.6-6.5-1.7-9.6-3.3-.8-.3-2.4 4-2 4 2 .5 4 .9 6 .9 1.6.1 3.2.3 4.8.5 2.7.3 5.3.5 8 .6 9.4.3 19.2-.7 28.3-3.3 8.6-2.5 17-6 24.1-11.6 4.3-3.4 8-7.4 10.9-12 3.2-5.1 5.3-10.7 6.3-16.7 1-5.9.1-12.1-1.9-17.7-1.4-3.8-3.4-7.5-5-11.2-1-2.3-1.9-4.7-2.4-7.2-.5-2.9 0-4.6 1.4-7.1-.8 1.1-1.6 2.1-2.4 3.2.8-1.1 1.8-1.7 3.1-1.7.4-.1 1.3-1.5 1.4-1.8.1 0 1.2-1.7 1.4-1.7z"/><path id="XMLID_248_" class="st1" d="M317 126.1c-2.2.1-4.7-.3-6.3 1.5-1.3 1.5-1.4 3.8-1.2 5.6.2 2.2 1.1 4.5 2.1 6.5.7 1.4 1.5 2.8 2.4 4.2 1.2 2 2 4.1 2.9 6.3-.2-.8-.4-1.5-.7-2.3.4 1.4.8 2.7 1.2 4.1-.3-2.3-.7-4.6-1-6.9.4 2.6.6 5.2.7 7.8v-2.7c-.3 3.3-.5 6.6-1.3 9.8-.8 3.3-2 6.3-3.4 9.4.2-.5.5-.9.7-1.4-2.6 4.6-5.5 9.1-9.3 12.8-4.9 4.9-11 8.6-17.4 11.2-6.4 2.7-13.3 4.5-20.3 5.1-3 .2-6 .4-9 .4-4.2-.9-8.1-.1-11.8 2.4.4-.1.7-.2 1.1-.3-2.3.6-4.7 1.2-7 1.8-1 .3-2.2 2.1-2.6 2.9-.4 1-.3 2 .7 2.6 1.2.7 2.4 1.4 3.7 2 1.1.5 2.2.6 3.4.5 3 .2 5.8.9 8.8 1.2 7.6.7 15.3-.2 22.7-1.6 4.8-.9 9.6-2.3 14.1-4.2 4.4-1.8 8.9-3.9 12.7-6.8 5.6-4.3 10.3-9.5 13.7-15.7 2.7-4.9 4.7-10.3 5.4-15.9.8-6.8.1-13.7-1.1-20.4-.4-2.2-1.1-4.4-1.7-6.6-.5-1.6-.9-3.5-1.9-4.9-.4-.6-1-1-1.6-1.5-1.2-.8-1.8-.6-3.2-.9.6.2 1.1.5 1.7.7-1.4-2.4 1.5-5.9 3.5-6.6 1.2-.1-.4-.2-.7-.1z"/><path id="XMLID_247_" class="st1" d="M325.1 136.1c-1.6.3-2.5.6-3.7 2-.7.8-1.2 1.7-1.8 2.6-.7 1.1-1.5 2.3-1.8 3.7-.5 2.4 1.3 4.5 2.4 6.5-.3-.9-.7-1.8-1-2.6.7 2.4 1.6 4.7 2.7 7 1.1 2.2 2.3 4.4 3.4 6.6 1.6 2.8 2.5 5.9 2.9 9.1 1.5 3.5 2.1 7.2 1.7 10.9 0-.3.1-.6.1-.8-.2 1.7-.5 3.4-.7 5.1.1-.3.1-.6.2-.9-.4 1.7-.8 3.4-1.3 5l.3-.9c-.6 1.7-1.3 3.3-1.9 5 .1-.3.3-.6.4-.9l-2.4 4.8c.1-.3.3-.6.4-.9-2 3.1-4 6-6.6 8.6-3.3 3.2-7.2 6.1-11.2 8.3-3.6 1.9-7.3 3.6-11.1 5-5.8 2.1-11.9 3.2-18 4.2.5-.1 1-.1 1.4-.2-2.5.3-5 .5-7.6.8.5 0 .9-.1 1.4-.1-2 .1-4 .3-5.9.4.4 0 .9-.1 1.3-.1-3.1.2-6.2.1-9.2-.2-5.3-.9-10.4-2.4-15.3-4.7-1-.4-3.1 3.5-2.6 3.7 4.5 1.9 8.8 3.7 13.5 4.9 2.9.8 5.9 1.1 8.8 1.3 4.6.3 9.2 0 13.9-.5 9.9-.9 19.8-3.3 28.9-7.2 4-1.7 7.7-3.7 11.2-6.2 3.3-2.3 6.8-4.9 9.3-8.2 2-2.6 3.7-5.5 5.2-8.5 2.9-5.8 3.6-12.6 2.5-18.9-.9-5.2-2.7-10.1-5.1-14.8-3.6-6.9-8.2-12.3-10.2-20.2 0 1.2-.1 2.4-.1 3.6.1-3.4.7-6.8 1.9-10-.7 1.1-1.4 2.2-2.2 3.3.8-1.2 1.9-1.8 3.4-1.9.4-.1 1.2-1.6 1.3-1.8.1.1 1.2-1.9 1.2-1.9z"/><path id="XMLID_243_" class="st1" d="M304.8 134.8c-6 3.5-4.3 11.5-2.2 16.8 2 4.9 4 9.7 5.6 14.7 3.4 10.5 4.4 18.9-3.1 30.5-.9 1.2-1.7 2.5-2.6 3.7-2.4 2.6-4.6 5.4-6.7 8.3.7-.7 1.3-1.4 2-2-3.6 3.5-7.7 6.2-12.3 7.9-3 1.4-6.1 2.5-9.4 3.1-2.4.7-4.8 1.4-7.1 2-4.2 1.5-8.4 2.4-12.8 2.9-2.7 1-5.5 1.3-8.3.8-2.2-.2-4.3-.4-6.5-.6-1.5-.1-3-.2-4.4-.3-4.4-1-8.5-2.6-12.3-5-.6-.3-.1 1.5-.1 1.7.2.6.3 2.3 1 2.6 1.6.6 3.2 1.3 4.8 1.9 2.5.4 5 .9 7.4 1.4 2.9.7 5.7 1 8.8.8 2.5 0 5-.4 7.5-1l6-.3c3.7-.3 7.6-.5 11.3-1.2 4.3-.8 8.2-3.1 11.9-5.3 1.8-.9 3.5-2 5.2-3.2 2.6-1.7 5.1-3.4 7.5-5.3 1.2-.8 2.7-1.4 3.7-2.3 1-1.1 1.9-2.3 2.9-3.4 1.4-1.8 2.6-3.6 3.7-5.6 3.7-6.6 6.4-14.2 6.6-21.9.1-4.5-.4-9.6-2.2-13.8-.8-1.8-1.8-3.6-2.8-5.3-.8-1.3-1.7-2.5-2.5-3.7-1.4-1.8-2.4-3.8-3.1-6l.9 2.7c-.6-1.8-.8-3.7-.7-5.6.2-.7.4-1.4.7-2.1.7-1.8 1.6-2.9 3.3-3.8.1.1-1.9-3.9-1.7-4.1z"/></g></g></g><g id="XMLID_661_"><g id="XMLID_222_"><g id="XMLID_223_"><path id="XMLID_235_" class="st1" d="M213.7 180.7c0 2.7.3 5.3.9 7.9 0 .1 2.2.5 2.2.5s2.2.4 2.2.5c-.6-2.6-.9-5.2-.9-7.9-.1-.4-4.4-.6-4.4-1z"/><path id="XMLID_234_" class="st1" d="M214.8 146.5c-1.4 4.7-2.7 9.6-2.6 14.6.1 1.3.1 2.7.2 4 .3 2.6.9 5.2 1.9 7.6 0-.1 4.2-1.6 4.2-1.8-1.3-3.9-2.2-7.5-2.1-11.6.1-5 1.2-9.8 2.6-14.6-.1.2-2 .8-2.1.9-.1.1-2 .7-2.1.9z"/><path id="XMLID_233_" class="st1" d="M209.1 156.7c-.6 3-1.1 5.9-1.5 8.9-.4 3.2-.5 6.1-.2 9.3.4 3.4.9 4.6 1.9 7.8-.2-.5.3-1.8.3-2.2.1-.4.5-1.7.3-2.2-2.1-5.4-2.6-11-1.5-17 .3-1.6.4-3.1.7-4.6z"/><path id="XMLID_232_" class="st1" d="M229.4 150.8c-3.9 7.2-7.1 14.7-8.7 22.7-.7 3.7-1.1 7.6-.6 11.3.2 1.3.5 2.6.7 3.9.6 2.6 1.6 5 3 7.3.1.2 4.2-1.6 4.3-1.5-1.8-3.6-3.4-7.1-3.7-11.3-.4-3.8-.1-7.5.6-11.3 1.5-8 4.8-15.6 8.7-22.7-.1.3-2 .7-2.1.7-.2.2-2 .6-2.2.9z"/><path id="XMLID_231_" class="st1" d="M223.8 139.4c-2.2 6.2-4.3 12.5-4.3 19.2 0 2.7.3 5.3.9 7.9.6 2.6 1.6 5 3 7.2.1.2 2 .6 2.2.6.1 0 2.1.4 2.2.6-1.4-2.2-2.4-4.7-3-7.2-.6-2.6-.9-5.2-.9-7.9 0-6.7 2.1-13 4.3-19.2 0 .1-4.3-1.3-4.4-1.2z"/><path id="XMLID_230_" class="st1" d="M211.9 152.4c-3.2 8.9-5.7 18.2-3.3 27.6 1 3.9 2.6 7.5 4.3 11.1-.7-1.3-.8-2.9-1.5-4.3-4.8-9.7-1.5-20.7 1.9-30.2.1-.3-.7-1.9-.7-2.1 0-.2-.8-1.8-.7-2.1z"/><path id="XMLID_229_" class="st1" d="M226.6 135.7c-2.8 2.9-5.2 5.9-7.2 9.5-1.3 2.4-2.4 4.8-3.3 7.4-2.5 6.7-4.6 14.1-4.2 21.4.2 4.1 1.2 8.1 3.1 11.8 1.5 2.9 3.1 5.3 5.1 8 .4.5.4.3.2-.1-.3-1-1.3-2.2-1.9-3-.8-1.1-1.5-2.1-2.3-3.2.6 1 1.3 2 1.9 3-2.4-4.8-3.9-9.5-3.8-14.8.1-5.7 1.5-11.3 3.4-16.7 1.2-3.3 2.3-6.6 4.1-9.7.7-1.2 1.5-2.4 2.2-3.6 1.4-2.2 3.1-4.2 5-5.9.5-.7-2.4-4-2.3-4.1z"/><path id="XMLID_228_" class="st1" d="M236.8 132.4c-2.4 1.4-4.5 3.2-6.1 5.6-.8 1.1-1.5 2.3-2.1 3.5a71 71 0 0 0-5 11.7c-2 6-3.4 12.4-3 18.8.2 2.7.7 5.4 1.4 8 .7 2.7 1.9 5.2 3.4 7.5.3.5 1.7.6 2.2.7-.1 0 2.3.4 2.3.2-1.4-2.4-2.6-4.8-3.7-7.3-.3-1.2-.6-2.5-1-3.7-1.1-4.8-1-9.5 0-14.3.9-4.8 2.7-9.2 4.4-13.7 1.7-4.6 4.1-8.5 6.8-12.4.4-.6.3-1.9.4-2.6v-2z"/><path id="XMLID_227_" class="st1" d="M241.2 130.9c-2.4 2.5-4.5 4.7-6 7.8-1.5 2.9-2.8 6-4 9.1-2.5 6.1-4.5 12.9-4.4 19.6 0 3 .3 5.8.9 8.8.4 2.2.9 4.3 1.8 6.4 1.1 3 2.5 4.5 4.4 7 .3.4 0-1.3.1-1.1-.1-.8 0-2.5-.5-3.2-3.3-3.7-5.3-8.1-5.8-13.3.1.9.2 1.9.3 2.8-.1-1.3-.1-2.6-.2-4 .4-3.1.8-6.3 1.2-9.4.9-3.9 2.3-7.7 4-11.3 1.1-2.3 1.9-4.8 3.1-7.1 1.5-3 3.6-5.2 5.9-7.6.3-.3-.1-2-.2-2.3-.1.1-.6-2.2-.6-2.2z"/><path id="XMLID_226_" class="st1" d="M227 126.9c-3.4 3.2-2.6 2.4-5.6 6.1-.4.5-.7.9-1.1 1.4-2.4 3.2-4.7 6.6-6 10.4-2.3 6.9-4.9 13.8-4.9 21.2 0 2.6.3 5.4.9 8 .4 1.2.8 2.5 1.2 3.7 1 2.4 2.3 4.6 4.1 6.6-.2-.3 3-3.2 2.8-3.6-.8-1-1.5-2.1-2.3-3.1-1.1-1.7-1.9-3.5-2.4-5.4-1.5-4.7-1.9-9.6-1.2-14.6.5-3.3 1.3-6.5 2.2-9.7.8-2.2 1.5-4.4 2.3-6.6.9-3.2 2.5-6.1 4.7-8.7-.6.9-1.3 1.7-1.9 2.6 1.5-1.7 3.1-3.3 4.6-5 .7-.7 1.3-1.7 2-2.5-.1.2.9-1.1.6-.8z"/><path id="XMLID_225_" class="st1" d="M230.3 127.7c-3.6 3.7-6.8 7.9-8.9 12.7-1.9 4.3-3.4 8.9-4.5 13.4-1 4.3-1.5 8.8-1.1 13.2.3 2.8.9 5.5 1.9 8.2.8 2.6 2.2 4.8 4.1 6.7.3.4 2 0 2.3 0-.1 0 2.3-.3 2.2-.4-1.9-1.9-3.2-4.1-4.1-6.7-1-2.5-1.6-5.2-1.9-7.9-.4-4.5 0-9 1-13.5s2.6-9.3 4.5-13.4c2.2-4.8 5.3-8.9 8.9-12.7h-2.3c-.3.1-1.7 0-2.1.4z"/><path id="XMLID_224_" class="st1" d="M241.6 137.1c-2.5 2.6-4.6 5.2-6.5 8.3-.9 1.5-1.7 3.1-2.5 4.6-1.1 2.4-2.2 4.9-3.2 7.3-2.6 6.2-4.3 12.8-4.5 19.5-.1 2.6.3 5.5.9 8 .4 1.3.8 2.5 1.3 3.8 1 2.5 2.4 4.7 4.2 6.7 0 .1 1.3-1.9 1.3-1.9 0-.1 1.3-1.8 1.1-2-.8-1.1-1.6-2.1-2.4-3.2-1.5-2.2-2.4-4.7-2.8-7.3-.7-1.9-1.1-3.8-1.1-5.7-.2-2.3-.1-4.6.3-6.9.5-3.3 1.3-6.5 2.3-9.6 1.5-4.9 6.1-14.6 9.3-18 .7-.7 1.2-1.8 1.8-2.7-.1.3.8-1.3.5-.9z"/></g></g></g><g id="XMLID_712_"><g id="XMLID_207_"><path id="XMLID_211_" class="st2" d="M204.6 211.8c-3.9.6-7.6 1.7-11.2 3.1-.6.2.5 4.8 0 5 3.6-1.4 7.4-2.5 11.2-3.1.3 0-.2-4.9 0-5z"/></g></g><g id="XMLID_714_"><g id="XMLID_201_"><path id="XMLID_205_" class="st2" d="M209.6 214.8c-8.5 1.7-16.3 5.2-23.3 10.4-.8.6.8 4.4 0 5 7-5.2 14.8-8.7 23.3-10.4.4 0-.3-4.9 0-5z"/></g></g></g><g id="XMLID_716_"><g id="XMLID_194_"><path id="XMLID_198_" class="st2" d="M202.2 221.3c-3.9 2.4-6.8 6.1-8.2 10.5-.5 1.5.5 3.5 0 5 1.4-4.4 4.3-8.1 8.2-10.5.2-.1 0-2.2 0-2.5 0-.3-.2-2.4 0-2.5z"/></g></g></g><g id="XMLID_1721_"><g id="XMLID_190_"><path id="XMLID_199_" class="st2" d="M135.6 115.8c17.8 13.8 31.2 32.8 38.2 54.3 0-.1.9-.4.9-.5-7-21.4-20.4-40.4-38.2-54.3-.1-.1-.8.6-.9.5z"/></g></g><g id="XMLID_1728_"><g id="XMLID_183_"><path id="XMLID_188_" class="st2" d="M144.6 134.5c8.4 9.4 15.6 19.8 21.3 31l.9-.5c-5.8-11.2-12.9-21.6-21.3-31-.1-.1-.9.5-.9.5z"/></g></g><g id="XMLID_1735_"><g id="XMLID_176_"><path id="XMLID_180_" class="st2" d="M150.6 142.8c4.7 10.2 8.5 20.8 11.4 31.6 0-.1.9-.4.9-.5-2.9-10.9-6.7-21.4-11.4-31.6l-.9.5z"/></g></g><g id="XMLID_1742_"><g id="XMLID_172_"><path id="XMLID_181_" class="st2" d="M285.4 105.5c-7.3-1.7-15.6 1.4-22.1 4.7-10.5 5.4-23.5 13.3-28.1 24.8.2-.5 2.7-.2 2.9-.8 3.2-8.1 10.1-13.3 17-18 7.8-5.4 17.4-12.2 27.3-9.9.9.2 2.1-1 3-.8z"/></g></g><g id="XMLID_1749_"><g id="XMLID_165_"><path id="XMLID_170_" class="st2" d="M276.6 113.6c-7.2 3.5-14.1 7.5-20.6 12.1-3.1 2.2-6.2 4.5-9.1 7-2.5 2.1-5.5 4.1-6 7.6.1-.4 2.8-.4 2.9-.8.6-3.4 3.5-5.5 6-7.6 2.9-2.5 6-4.8 9.1-7 6.5-4.6 13.4-8.6 20.6-12.1-.8.5-2 .4-2.9.8z"/></g></g><g id="XMLID_1756_"><g id="XMLID_159_"><path id="XMLID_163_" class="st2" d="M257.4 133.4c-8.9 5-16.3 11.9-21.7 20.5.4-.6 2.5-.1 2.9-.8 5.5-8.6 12.8-15.6 21.7-20.5-.9.5-2.1.3-2.9.8z"/></g></g><g id="XMLID_1763_"><g id="XMLID_153_"><path id="XMLID_157_" class="st2" d="M341.5 159.8c.3-.8.6-1.6.8-2.4-1 .3-1.9.5-2.9.8-5.1 14.3-12.8 27.8-23.7 38.5-5.4 5.3-11.6 9.9-18.4 13.4-3.8 2-7.8 3.7-12 5-1.5.4-10.9 3-11.5 1.7.6 1.1 19-7.2 20.3-7.8 7-3.4 13.7-7.5 20-12.1 5.9-4.3 12-9.2 16.4-15.1 1.7-2.2 8.4-12.9 1.8-12.8-5 0-8 5.6-10.6 9-5.9 8-11.1 16.5-16.2 25 .4-.6 2.5-.1 2.9-.8 3.6-5.8 7.1-11.7 10.9-17.4 1.7-2.6 3.5-5.1 5.3-7.6 2.1-2.9 4.5-7.1 8-8.3-.9.3-1.9.5-2.8.8 6.6 1.5-2 12.8-4.2 15.3-4.4 5-9.8 9.3-15.2 13.2-12.4 9-26.3 15.6-41.1 19.8-.1 0-.1 0-.2.1 35.2-2.4 61.5-28.4 72.9-60.6-.2.5-2.7.2-2.9.8-.3.8-.6 1.6-.8 2.4.5-.6 3-.3 3.2-.9z"/></g></g></g></svg>