<svg id="Layer_1" xmlns="http://www.w3.org/2000/svg" viewBox="-213.3 -137 428.3 279.3"><style>.st0{opacity:.6}.st1{fill:#fff}.st2,.st3{opacity:.1091}.st3{fill:#fff}.st4{opacity:.9}.st5{fill:#c8c8c8}.st6{opacity:.9;fill:#7e7e7e}.st7{fill:#959595}.st8{fill:#afafaf}.st9{fill:#ddd}.st10{fill:none;stroke:#a9a9a9;stroke-width:0}.st11{fill:#f2f2f2}</style><g id="XMLID_6575_" class="st0"><path class="st1" d="M-192.9-44.7c3.3 2.7 6.1 5.8 8.2 9.5 2 3.6 2.3 8.6 4.9 11.8 2.1 2.5 5.5 3 8.4 3.8 4.2 1.2 8.1 2.9 11.7 5.3 1.6 1.1 3 2.2 4.4 3.5.6.5 1.2 1.1 1.7 1.7.1-1.3.2-2.6.4-3.8s.2-2.6.4-3.8c-.5-1.8.1-2.5 1.8-1.9 1.7-.4 4.7.6 6.4 1 3.7 1 7.1 2.7 10.2 4.9 3.1 2.3 5.3 5.8 9.5 6 3.7.1 6.1-1 9.5 1.2 2.2 1.4 3.9 3.3 5.8 5 2.8 2.6 10.9 7.9 12.1.8.7-3.9-.3-6.1-3.3-8.6l-11.7-9.6c-3-2.5-5.8-5.1-6.4-9.2v5c0-.8.2-1.5.6-2.2.6-1.3 1.5-1.3 2.5 0 2.1.6 4.5 2.7 6.4 3.8 4 2.4 8 4.7 12 6.9 7.5 4.1 15.4 7.7 23.8 9.7 6.5 1.5 15 3 20.9-1 3.9-2.6 3.5-6.3 3.4-10.4v-.7c-5.1-1.7-10.2-3.4-15.3-5v5c7.3-2 14.8-.3 22.1.7 7.7 1.1 15.4 2.3 23.2 3.4 3.3.5 8.3 2.2 11.6 1.7C-4.6-10.7-1-13 2.1-14c6.7-2 13.6-3 20.6-3.1-.1 0 .3-4.6 0-5-1.9-2.6-4-4.3-6.9-5.5v5c33.7-3.6 68-7.4 98.7-22.7 15.8-7.8 30.6-17.6 45.6-26.8 7.6-4.7 15.2-9.3 22.8-14 3.1-1.9 6.1-3.9 9-6.1 1.5-1.2 3.1-2.4 4.5-3.7 1.8-1.7 3.6-5.8 3.8-1v-4.9c-.9 8.2-9.5 12.8-15.6 17-7.3 5-14.6 9.9-22.1 14.6-14.9 9.3-30.5 17.6-46.9 23.8-16.8 6.3-35.3 8.3-51.2 16.8-6.7 3.6-13 8.5-17.3 14.9-3.3 5-5.4 15-12.9 14.7v5c2.2-3.6 1.7-10.5-.9-13.7-3.7-4.4-9.8-3.8-14.8-2.6-6.4 1.6-12.7 3.9-19 5.9C-6-3.8-12.8-2.7-17.7.2c-4.3 2.5-4.1 8.2-5.7 12.4-3 8.2-9.6 16.7-19.2 15.6v5c1.5-8.2 1.7-16.7 1.2-25.1V8c-8.2-2-15.6 1.6-23.1 4.3-3.5 1.3-6.9 2.4-10.5 2.7-4.4.4-8.8-.8-13.2-1.1-8.3-.7-16.8.9-24.4 4.3-5.6 2.6-14.1 10.1-20 4.6v5c3.3-2.4 5.4-5.3 6.5-9.3.1-.5.1-5 0-5-6.1-1.4-12.3-2.7-18.4-4.1-3.8-.8-12.1-4.1-15 .1-1.7 2.6-1.4 10.7 2.4 10.7v-5c-5 0-8.7-3.3-9.1-8.3v5c.4-4 2.4-6.8 6.1-8.3.1 0 .2-4.8 0-5-8.4-8.1-17.2-16.1-25.3-24.5-3.4-3.6-4.2-7.7-5.5-12.3-1.5-5.5-3.7-10.7-6.4-15.7.7 1.3-.7 3.7 0 5 2.6 4.7 4.7 9.7 6.2 14.9 1.4 4.9 2 9.3 5.7 13.2 8.1 8.5 16.9 16.4 25.3 24.5v-5c-9.6 3.7-8.2 21.4 3 21.5 0 0 .1-5 0-5-2.2 0-2.9-1.6-3-3.7v4.9c1.2-6.2 9.7-3.4 13.8-2.5 6.7 1.5 13.5 3 20.2 4.5v-5c-1.1 4-3.1 6.9-6.5 9.3-.2.2-.2 4.8 0 5 6.2 5.7 15.7-2.8 21.6-5.2 9-3.8 18.3-4.4 27.9-3.1 9.3 1.3 16.5-1.4 25.1-4.5 3.9-1.4 8-2.7 12.2-2.6 4.3.2 4.6 2.7 4.4 6.8-.2 3.1-.6 6.1-1.2 9.1-.1.5-.1 5 0 5 7.4.8 13-3.9 16.6-10 1.9-3.2 3.1-6.7 4-10.2 1.1-4.7 2.4-7.4 7.2-9.1 9.4-3.3 19.2-6 28.8-9 7.3-2.3 20.8-4.9 21.4 6.6v-4.9c-.2 1.3-.4 2.1-1.2 3.2-.2.4.1 5 0 5 5.6.3 8-5.3 10.1-9.6 2.9-5.7 6.6-10.5 11.7-14.5 11-8.7 24.8-12 38.1-15.5 27.9-7.4 53.2-20.4 77.3-36.1 5.4-3.5 10.8-7.2 16.1-10.9 4.8-3.4 11.4-7.4 12.6-13.7.4-1.9.3-4 .2-5.9 0-.5.1-1.1-.1-1.7-.8-2.4-1.3-.2-2.6 1.1-2.8 2.8-5.9 5.1-9.1 7.3-12.4 8.5-25.6 15.9-38.4 23.8-12.7 7.8-25.4 15.9-39 22.3-29.8 14-63 17.6-95.4 21.1 0 0-.2 4.9 0 5 2.9 1.2 5.1 2.9 6.9 5.5v-5c-6.9.1-13.8 1-20.5 3-3.1.9-6.6 3.3-9.8 3.7-3.4.5-8.1-1.2-11.6-1.7-7.7-1.1-15.4-2.3-23.2-3.4-7.3-1.1-14.8-2.7-22.1-.7-.1 0-.1 5 0 5 1.6.5 15.3 3.9 15.3 5.4V-15c-1.8 10.1-17.6 7.5-24.4 6-11.5-2.7-22.1-8.5-32.2-14.4-2.6-1.5-5.1-3.1-7.7-4.6-.5-.3-3.4-2.6-4-2.4-.9.3-1.2 1.7-1.4 2.5-.4 1.5-.2 3.7-.1 5.2.4 4.2 3.3 7 6.4 9.6 2.7 2.2 5.3 4.4 8 6.6 2.4 2 5.5 3.8 6.9 6.6v-5c-.5 5-6.5 3.5-9.3 1.6-3.3-2.4-5.8-6-9.4-8-4.6-2.4-9.4.9-13.7-2.7-4.9-4-9.1-7.5-15.5-9.1-1.3-.3-2.7-.6-4-.7-.8-.1-1.6-.1-2.4-.1-1.2-.3-1.5.3-1 1.9-.5 1.8 0 4-.5 5.8-.7 2.2.1 2-1.9.2-4.6-4.2-10.1-7.1-16.1-8.8-2.3-.7-4.9-1.1-6.9-2.5-2.5-1.8-3-4.5-4-7.3-2-6.1-5.6-11.2-10.6-15.3 1 .9-.6 4.5.2 5.2z" id="XMLID_151_"/><path class="st1" d="M-128.9 24.3c9.4-9.2 21.3-14.4 34.4-15.5C-81 7.7-66.3 7.2-53.7 13c-.6-.3.7-4.7 0-5C-66.3 2.2-81 2.7-94.5 3.8c-13.1 1-25 6.3-34.4 15.5-.8.8.9 4.2 0 5z" id="XMLID_152_"/><path class="st1" d="M-118.2 29l.6 11.7v-4.9c-5.5.1-13.3.5-15.8 6.4-1.4 3.3-1 6.6-3.5 9.5-2.3 2.6-5.6 4.2-8.7 5.7-.6.3.5 4.8 0 5 13.4-4.4 25.5 8.4 38.8 4.8 1.5-.4 2.9-1.2 4.4-1.6 2.7-.7 4 .1 6.6.7 2.3.5 4.4.3 6.6-.7 4.6-2.1 8-6.2 12.2-8.8 1.7-1 4.3-2.4 6.4-2 2.3.4 1.2.5 2.4 2 .9 1.2 1.4 2.2 2.8 3 6.7 3.9 13-2.6 17.9-6.6 5.9-4.8 13-9.3 20.9-9.3 5 0 13.1 2.9 15.9-2.9.7-1.4-.7-3.7 0-5-2.7 5.5-10.3 3.1-15.1 2.9-8.3-.3-15.6 4.2-21.8 9.2-4.8 3.9-11.1 10.5-17.9 6.6-1-.6-2-1.4-2.6-2.5-1.1-1.9-.3-2.2-2.6-2.6-2.2-.3-4.7 1-6.4 2-4.3 2.6-7.6 6.7-12.2 8.8-2.2 1-4.2 1.2-6.6.7-2.6-.6-3.9-1.4-6.6-.7-1.5.4-2.9 1.2-4.4 1.6-13.3 3.6-25.4-9.2-38.8-4.8v5c2.9-1.4 6-2.9 8.3-5.2 2.9-3 2.4-6.4 4-10 2.6-5.9 10.3-6.3 15.8-6.4.1 0 0-4.5 0-4.9l-.6-11.7c0 1.4-.1 3.5 0 5z" id="XMLID_153_"/><path class="st1" d="M-.8 3.3C5.6 6.8 12.5 8.4 19.8 8V3C15.9 13.6 8 22.4-2.3 27.2c-5 2.4-10.1 3.3-15.6 4-4.8.5-10.2 1.2-12.6 6.1-.2.4-.2 4.9 0 5 4.7 2.2 8.8-.2 13.5-.5 3.2-.2 8.2.8 8.2 4.9v-4.3c-1.2 4.9-7.2 6-11.2 7.9-5.6 2.6-10.1 6.7-13.5 11.8-.4.7.6 4.8 0 5 3.2-1.3 5.9 1.1 6.1 4.4v-4.9C-29.6 76.8-43 71.3-49 77c-1.8 1.7-1.6 2.7-1.6 4.9 0 2.1 1.2 3.7 1.3 5.7.2 7.8-8.9 8.9-11.5 14.7-2.6 5.8 1.3 14-4.5 18.2-.7.5.7 4.7 0 5 5.7-2.5 11.4-.4 17.3-.4 6.3-.1 10.1-3.8 14-8.4 4.3-5.1 8-10.8 10.9-16.9 1.3-2.8 2.5-5.6 3.5-8.5.8-2.4.3-2.6 2.3-1.1 1 .7 1.6 2.2 2.1 3.4C-13.3 98-13.3 104-9 107c.7.5 2.4 1.6 3.3 1.2.2-.1.3-4 .3-3.8.2-2.4.2-4.7.3-7.1.1-10.5-.6-20.8-2.9-31v5C-1 70 2.7 82.1 5.2 86.8c.7 1.4 1.5 3.8 2.6 4.9.6 2.1 1.1 2.2 1.6.1.5-1 1-2 1.4-3.1 1.4-3.4 2.3-6.9 2.8-10.5.6-3.9.6-7.9.5-11.8 0-2.5-.2-5-.6-7.4-.7-3.9-2.5-7.7-2.6-11.7v4.3c.5-3.3 4.5-9.8 8.9-8.3 2.1.7 3.1 14.4 3.7 17.3 1.2 6.1 2.5 12.1 3.9 18.1.5 2-.1 3.5 1.4 1.4.6-.8 1-2 1.5-2.9 1.2-2.5 2.3-5.1 3.3-7.7 2.6-6.8 3.7-13.6 3.6-20.9 0-3.1-.2-6.2-1.1-9.2-1.4-4.9-5.3-8.6-6.2-13.6v4.3c.1-6 7.1-9 11.8-10.7v-5c-.3 3.3-.5 6.8-.1 10.1.4 3.4 1.8 6.8 5.2 8.1 3 1.2 5.9-.1 7.3-3 1.6-3.3 1.1-7.7 1.1-11.3 0-2.6-.2-5.1-.7-7.7-.8-4.6-3-8.8-3.9-13.4V.5C52.2-7.1 61.7-9.8 63-17.7c.3-1.6-.3-3.4 0-5-1 6-6.7 8.8-10 13.4-2.4 3.3-2.4 7.1-2.1 11 .5 7.3 6.4 14.3 3.9 21.8-2.8 8.3-13.5 3.7-12.9-4 0-.6-.2-4.9 0-5-4.8 1.8-11 4.5-11.8 10.3-.3 2.2-.3 5.4.2 7.6.8 3.1 3.2 5.7 4.6 8.6 1.7 3.7 2.5 7.7 2 11.8-.9 7.4-4 14.4-7.2 21-.2.5-.7 1.9-1.1 2.2-1.1.8-.3.2-.8-1.2-.7-1.8-.9-3.9-1.3-5.7-1-4.4-2-8.9-2.8-13.4-.8-4.1-1.6-8.3-2.2-12.5-.3-2.1.2-4.6-2.2-4.8-1.5-.1-3.3 1-4.5 1.8-8.3 6.2-1.3 19.5-.8 27.2.3 4.5-.6 9.1-2 13.3-.6 1.9-1.3 3.7-2.2 5.5-.1.3-.2.5-.4.8-.4 1.8-.8 2-1.2.7-.7-.4-1.4-2.6-1.7-3.3C4.3 80.2 2.3 76 0 72c-1.8-3.1-4.1-6.4-8-5.7-.1 0-.1 4.6 0 5 1.4 6.3 2.4 12.7 2.7 19.2.1 1.4 1 12-.4 12.7-1.3.7-3.7-1.5-4.5-2.4-2.9-3.2-3.1-7.7-4.6-11.6-.4-1.1-1.8-4.7-3.4-4.9-1.2-.1-1.1 1.5-1.6 2.8l-1.5 3.9c-3.8 9.1-9.5 18.9-17.1 25.5-8.1 7.1-17.9.2-26.8 4.1v5c3.7-2.7 3.3-7.1 3.5-11.2.1-3.1.1-6.4 2.2-8.8 1.8-2.1 4.6-3 6.6-5 4.9-5 5.5-15.3 2.5-21.5v5c5-8.2 21.5-1.7 23.2-12.5.6-3.9-.3-11.9-6.1-9.4v5c4.3-6.3 9.8-10.3 16.8-13.2 4-1.7 7.7-3.4 7.9-8.1.2-3.3.4-6.8-3.2-8.4-6.1-2.8-12.4 2.7-18.6-.3v5c2.3-4.9 7.7-5.6 12.6-6.1 5.5-.6 10.6-1.6 15.6-4C8 27.4 15.9 18.6 19.8 8c.2-.5-.1-5 0-5-7.3.4-14.2-1.2-20.6-4.7.6.3-.8 4.5 0 5z" id="XMLID_154_"/><path class="st1" d="M-8.2-17.5c-6-6.4-18.8-14.4-24.9-3.4-.7 1.3.7 3.7 0 5 6.1-11 18.9-3.1 24.9 3.4-.8-.9.9-4.1 0-5z" id="XMLID_4859_"/><path class="st1" d="M-61-20.4c6.9-1.3 12-6.2 13.6-13 .1-.5 0-5 0-5l-30.8.9c-5 .1-9.9.3-14.9.4-3.5.1-8.9 1.2-10.1-3.1v4.9c.3-6 7.2-7 10.8-10.2 2.5-2.3 2.6-4.3 2.5-7.4 0-.7.2-2-.1-2.6-1-2.2-6.7-1.7-9.1-2-3.5-.4-7.1-.7-10.6-1.1-3.1-.3-7.8.5-8.6-3v4.9c.2-6 5.9-7.4 10.8-8.2 0 0 .3-4.8 0-5-6.4-5.9-13.4-11.2-21-15.5-3.5-2-7.2-3.8-10.9-5.5-3.2-1.5-6.3-2.9-7.2-6.5v3.8c2.3-8.6 13.6-6 19.3-3.1 7.1 3.7 13.1 9.2 21 11.1-.3-.1.2-4.5 0-5-.1-.3-.3-.6-.4-.9v4.9c.5-8 12.2 1.5 14.7 1.8-.1 0 .1-4.5 0-5-.3-1.1-.5-2.3-.6-3.5v4.3c0-2.6 1.5-6.2 4.7-5.9 2.9.2 3.4 3.4 4.2 5.6 1.6 4.6 5.1 6.7 9.6 8 4.5 1.4 9.4 1.9 13.5 4.3 2.8 1.6 7.9 9.5 11 4.5.3-.4.3-4.7 0-5-5.9-5.1-11.8-10.3-17.7-15.4v5c7.7-5.5 15.5 1.2 21.3 6.1 3.4 2.9 7.3 5.7 10 9.4 2.1 2.8 3.8 7.3 7.9 7.5 5.2.2 4.6-5.9 4.6-9.5v-2.2c0-.7-.1-1.4-.1-2.1.1 1.2.2 1.3.5.1 2.4-2.7 5.3-2.4 7.2.9 2.2 3.7.2 8.4 2.1 12.2 1.6 3.3 5.3 4.6 7.4 7.5 2.6 3.4 1.3 7.5 2.7 11.3.9 2.5 4.1 5.7 7 4 1.5-.9 1.3-3.3 3.1-3.9 1.4-.5 2.9.4 3.7 1.5 1.5 1.8 1 3.9 1 6.1.2 6.2 3.5 11.3 9.4 13.6-.5-.2.6-4.8 0-5-5.4-2.1-8.8-6.6-9.3-12.3v1.8c0-3.2 1-9.1-2.8-10.5-3.7-1.3-3.2 3.5-6.1 4.2-2.7.7-5.2-2.1-6.1-4.3-1.4-3.8-.2-7.9-2.7-11.3-1.8-2.5-4.9-3.8-6.7-6.3-2.2-3.3-1.1-7-1.8-10.6-.6-2.8-3.3-7.2-6.8-5.2-2.7 1.6-2 6.4-1.9 9 0 .7.1 1.5.1 2.2-.1 1.8.7-.3-.3 1.2-1.8 2.9-4.4 3.7-7.4 1.4-2.9-2.2-4.3-6.1-6.8-8.7-2.8-2.9-6.1-5.4-9.2-8-5.5-4.7-12.9-10-20-5-.2.2-.2 4.8 0 5 5.9 5.1 11.8 10.3 17.7 15.4v-5c-2.2 3.4-5.4.4-7.3-1.6-2.3-2.3-4.8-3.8-7.9-4.8-5.3-1.8-12.2-2-16.4-6.2-2.3-2.3-2.1-5.5-3.8-8-2.1-3.1-5.9-1.9-7.2 1.4-1.3 3.3-.5 8.5.2 11.9v-5c-3.4-.5-12.1-9.3-14.6-2.6-.6 1.6-.3 5.2.3 6.7v-5c-8.8-2.2-15.2-8.8-23.3-12.3-5.8-2.5-16.4-3-17 5.4-.1 1.7-.3 3.9.2 5.6 1.2 4.3 6.7 5.7 10.3 7.4 10.5 5 20.2 11.6 28.7 19.5v-5c-4.5.7-9.8 1.8-10.8 7-.3 1.6-.3 3.9-.1 5.5.1 1 0 2.3.9 3 1.4 1.2 6.8.7 8.7.9 3.2.3 6.4.7 9.7 1 1.6.2 3.2.3 4.8.5 2.3.2 4.2-.6 4.4 2.5v-4.9c-1.7 6.8-11.7 6.3-13.2 13.2-.4 2-.6 5.8.6 7.5 2.1 3 8.4 1.6 11.5 1.5 4.6-.1 9.3-.3 13.9-.4 9.9-.3 19.8-.6 29.8-.9v-5c-1.6 6.8-6.7 11.8-13.6 13-.5.2.1 5.1-.2 5.2z" id="XMLID_4894_"/><path class="st1" d="M-125.1-88.8c20.3 16.3 43.2 29 67.9 37.5 13 4.4 26.3 7.4 39 12.7 12.5 5.2 24.1 12.1 34.9 20.3.5.4 2.4-1.1 2.9-.8C9.1-27.1-2.3-33.8-14.5-39c-12.9-5.5-26.6-8.6-39.8-13.1-24.6-8.4-47.6-21.2-67.9-37.5-.5-.4-2.4 1.1-2.9.8z" id="XMLID_5467_"/><path class="st1" d="M-36.9 2.7c33.9-7 68.7-14.3 99-31.9-.8.5-2.1.3-2.9.8C30.5-11.8-2-4.7-34.1 1.9c-.9.2-2.1.6-2.8.8z" id="XMLID_5469_"/><path class="st1" d="M-165.1-11.3c18.2 6.8 37.7 16.9 57.5 16.6 1 0 1.9-.8 2.9-.8-19.8.3-39.3-9.7-57.5-16.5-.7-.3-2.1 1-2.9.7z" id="XMLID_5471_"/><path class="st1" d="M-134.7 59.4c13.8-6.7 27.5-13.6 41.4-20.1 16-7.5 32.3-14.3 49.9-17 1-.2 1.9-.6 2.9-.8-34.7 5.3-66 23.5-97.1 38.7.9-.5 2-.4 2.9-.8z" id="XMLID_5478_"/><path class="st1" d="M-11.5 16.5C-1 12.5 9.6 9 20.4 6c1.1-.3-1.7.4-2.1.5-11 3.1-21.9 6.7-32.7 10.8 1-.4 2-.5 2.9-.8z" id="XMLID_5499_"/><path class="st1" d="M-68.1 124.7c21.2-15.8 42.5-32.6 57.7-54.6 8.3-12 13.3-25.7 20.9-38C18.1 19.8 28 9.2 37.8-1.4c-.6.6-2.3.1-2.9.8C25.1 9.9 15.2 20.6 7.6 32.9c-7.7 12.3-12.7 26-20.9 38-15.2 22-36.5 38.7-57.7 54.6.8-.6 2.2-.3 2.9-.8z" id="XMLID_5506_"/><path class="st1" d="M65.1-35.4c14-14.3 30.5-25.7 46-38.3 7.4-6 14.7-12.4 21.1-19.5 3.4-3.7 6.5-7.6 9.3-11.8 2.6-3.8 4.5-9.3 8.9-11.4-.5.1-1 .3-1.4.4.4-.1.7-.2 1.1-.3-.5.1-1 .2-1.5.4 3.6-.3 7.2 1.8 8.4 5.2.8 2.3.5 3.3-1.3 4.5-2 1.3-4.2 2.3-6.2 3.6-8.6 5.9-15.4 13.9-22.7 21.1-16.5 16.2-35.1 30-53.6 43.7.7-.5 2.1-.2 2.9-.8C92.2-50.5 108.3-62.4 123-76c6.7-6.2 12.9-13 19.5-19.3 3.1-3 6.4-5.8 9.9-8.2 3-2.1 8.9-3.2 7.7-7.6-1.2-4.5-5.9-6.4-10.1-5.4-5.7 1.3-7.6 6.3-10.6 10.8-9 13.8-21.4 24.8-34.2 35-14.6 11.8-29.9 22.7-43 36.1.6-.6 2.3-.2 2.9-.8z" id="XMLID_5513_"/><path class="st1" d="M65.3-14.3c21.3 4.6 42.6 9.6 63 17.4 9.9 3.8 19.6 8.3 28.7 13.8 4.7 2.8 9.2 5.8 13.5 9.1 2 1.5 3.9 3 5.7 4.6 2.2 1.9 1.6 1 .2 2.6-1.1 1.2-3.6 2.1-4.9 2.9 1-.3 1.9-.5 2.9-.8C139.1 7.9 95.3-7.1 50.7-7.1c-1 0-1.9.8-2.9.8 44.6 0 88.4 15 123.7 42.3.2.2 2.6-.6 2.9-.8 1.4-.8 2.7-1.6 4.1-2.4.8-.5 1.6-1 2.5-1.4-.4-.4-.8-.7-1.2-1.1-1.1-1.9-4.6-3.8-6.4-5.2-4.3-3.3-8.8-6.3-13.5-9.1-9.1-5.5-18.8-10-28.7-13.8-20.4-7.9-41.7-12.9-63-17.4-.9-.1-2.1 1.1-2.9.9z" id="XMLID_5520_"/><path class="st1" d="M51.3 1.4c5.1-2.6 10.5-4.7 16-6.2 1.8-.5-1 .2-1.5.4-6 1.7-11.9 3.8-17.5 6.7 1-.5 2.1-.4 3-.9z" id="XMLID_5527_"/><path class="st1" d="M88.9-11.8c9.2-2.5 18.2-5.4 27.1-9 2.8-1.1 5.6-2.3 8.4-3.6 2.5-1.1 6.1-2.2 8.3-3.9 1.8-1.4 1.7-.9-.7-2-1.3-.6-2.7-1.2-4.1-1.5-1.8-.4-3.4-.3-5.2.1-5.8 1.2-10.5 5.3-16.1 7.4-12.4 4.6-24.9 8.8-37.4 13.2.9-.3 2-.4 2.9-.8 9.2-3.3 18.4-6.5 27.7-9.8 4-1.4 8.1-2.7 12-4.3 3.9-1.6 7.2-4.2 11-5.8-.9.3-1.9.5-2.8.8 3.1-.6 5.5-.1 8.3 1 .8.3 1.6.7 2.4 1.1 1.3.4 1 .8-.8 1.2-3 2.4-8.1 3.9-11.6 5.4-9.7 4.2-19.8 7.7-30 10.5-2.2.8-.3.3.6 0z" id="XMLID_5534_"/><path class="st1" d="M-22 3.8c-5.1 6-8.9 12.7-11.6 20.1.2-.5 2.7-.2 2.9-.8C-28.1 15.7-24.2 9-19.1 3c-.6.7-2.4.2-2.9.8z" id="XMLID_5541_"/><path class="st1" d="M-199.9-54.1c2.9 5.1 7.2 9.1 12.5 11.7.7.3 2.2-1.1 2.9-.8-5.3-2.6-9.5-6.6-12.5-11.7-.2-.2-2.8 1-2.9.8z" id="XMLID_5548_"/><g id="XMLID_5555_"><path class="st2" d="M-87.5-73.1c2.6 3.2 5.5 6 8.9 8.4 2.4 2 5 3.8 7.7 5.3 6.2 3.8 12.7 6.3 19.5 8.4.6.2 2-.6 2.5-.8-.1 0 1.2-.4.8-.6-6.8-2.4-13.4-4.8-19.6-8.6-2.6-1.5-5.1-3.2-7.4-5.1-3.4-2.4-6.3-5.2-8.9-8.4-.2-.2-1.7.4-1.8.5.1.1-1.8.8-1.7.9z"/><path class="st2" d="M-97.7-85c2 3.6 3.8 7.6 6.4 10.9 1.2 1.3 2.3 2.5 3.5 3.8 1.6 1.6 3.2 3.2 5 4.6 2.6 2.2 5.3 4.1 8.3 5.7 5.5 2.8 6.3 2.4 14.7 4.6.8.2 1.2-.2 1.3-1 0-.6.1-2.4-.7-2.6-6.2-1.4-12-3.8-17.3-7.3-4.1-2.6-7.8-5.6-11.1-9-1.9-1.8-3.7-3.7-5.2-5.8-1.5-1.5-3.1-2.9-4.9-4.1-.3-.3 0 .2 0 .2zM-93.8-89.2c4.4 4.3 8.7 8.6 13.9 12 3.4 2.3 7 4.3 10.7 6 3.6 1.7 7.4 2.9 11.2 3.8.5.1 1.4-.4 1.8-.6l1.7-.9c-5.9-1.8-11.6-3.6-17-6.8-3.3-2.2-6.6-4.4-10-6.6-3.1-2.7-6-5.5-8.9-8.4-.2-.2-1.7.6-1.8.6.2.1-1.6.9-1.6.9z"/><path class="st2" d="M-89.9-84.3c3.2 4.4 7.3 7.9 12.2 10.4 7.3 3.7 15 6.8 22.5 10 1 .4 2.1-.3 2.4-1.3.3-1.3-1.2-3.4-2.1-4.2-2.8-3.6-6.2-6.4-10-8.5-2.1-1.4-4.3-2.4-6.7-2.9-.9-.5-1.9-.7-2.9-.4-1.8.5-3.6 1.2-5.3 1.9.5 0 1-.1 1.6-.1-4.9-1.4-8.7-4.3-11.2-8.8l-.3 1.9c-.1.5-.4 1.7-.2 2z"/><path class="st2" d="M-87.7-91.1c3.8 3.5 7.3 7.3 11.4 10.3 4.1 3 8.6 6 13.2 7.9 2 .8 4.1 1.8 6.2 2.5 2.6.9 5.7 1.4 8.2 2 1 .2-.3-.4-.5-.4-5.4-2.2-10.9-4.4-16.3-6.6-2.6-1.4-5.2-3-7.6-4.8-1.7-1-3.3-2.3-4.6-3.9-2.1-2.1-4.3-4.2-6.6-6.1-.5-.5-1.9-.6-2.5-.8.2 0-1.3-.4-.9-.1zM-97.8-81.1c2.5 3.2 5.5 6 8.9 8.3 2.4 1.9 4.8 3.7 7.5 5.2 6.1 3.7 12.5 6.2 19.4 8.4 0 0 .9-3.6.5-3.7-6.8-2.1-13.2-4.6-19.4-8.4-2.6-1.5-5.1-3.2-7.5-5.2-3.4-2.3-6.4-5.1-8.9-8.3l-.4 1.9c0 .2-.3 1.5-.1 1.8z"/><path class="st2" d="M-92.6-73.3c1.4 1.6 2.8 3.2 4.3 4.8 1.6 1.2 3.1 2.4 4.7 3.6 2.5 1.9 5 3.8 7.8 5.4 6.2 3.8 12.7 6.3 19.5 8.4.9.3 2 .6 2.9.7.4 0 .5 0 0-.2-5.6-2.1-11.6-4.1-16.8-7.1l-9.9-6.6c-3.4-2.2-6.4-4.9-8.8-8.2-.3-.3-1.4-.4-1.8-.5-.2.1-1.8-.1-1.9-.3zM-85.4-85.5c5 6.1 2.2 3.7 8.8 7.5-.8-.6-1.6-1.2-2.4-1.7 1.2 1.5 2.6 2.9 4.1 4.2 2.3 2 4.8 3.7 7.5 5.2 2.5 1.6 5.2 3.1 8 4.3 4.9 1.9 9.7 4.2 14.2 6.8.5.3 0-1 0-1-.1-.5-.5-2.2-1-2.5-2.4-1.3-4.9-2.5-7.5-3.4-2.8-1.1-5.5-2.2-8.1-3.5-5.7-3-11-6.7-16.3-10.2.6.5 1.3.9 1.9 1.4-3.5-3.4-6.7-7-9.7-10.8.2.2.2 1.7.2 1.9.1.3 0 1.5.3 1.8z"/><path class="st2" d="M-95.9-85c2.7 3 5.6 5.8 8.8 8.3 2.8 2.2 5.8 4.2 8.9 6 5.9 3.4 11.8 5.5 18.2 7.6.7.2 2.3-2.9 2.4-2.9-7.2-2.6-14.1-5.1-20.7-9.1-2.3-1.3-4.5-2.9-6.6-4.6-3.2-2.5-6.1-5.2-8.8-8.3 0-.1-2.6 2.6-2.2 3z"/><path class="st2" d="M-94.8-91.7c1.2 1.6 2.5 3.3 3.7 4.9 1.2 1 2.5 2.1 3.7 3.1 2.2 1.8 4.5 3.5 6.9 5.2 3 2.1 6.2 3.8 9.6 5.4 1.7.9 3.4 1.6 5.2 2.3 3.2 1.2 6.4 2.7 9.4 4.4 1.3.6 4.3-1.5 2.5-2.8-4.5-4.5-9.7-7.7-15.6-9.7-2.1-.7-4.2-1.5-6.3-2.4-6-2.3-11.1-5.9-15.4-10.8-.2-.2-1.7.1-1.9.1.1 0-1.8.3-1.8.3z"/><path class="st2" d="M-87.5-81.1c2.6 3.4 5.4 6.5 8.6 9.4 3.4 2.5 6.9 5 10.3 7.5 2.9 2.3 6.1 4.2 9.6 5.6 4.1 1.1 8 2.7 11.8 4.5.7.3 2.3-3.1 2-3.2-11.2-2.9-20.4-8.5-30-14.5.2.3.4.6.6.8-1-2.5-2.5-4.6-4.6-6.2-2.3-2.1-4.4-4.5-6.3-7.1.2.3-2.3 2.9-2 3.2zM-96.3-77.2c2.4 3.4 5.3 6.2 8.8 8.3 2.3 2 4.8 3.7 7.4 5.2 6.2 3.8 12.7 6.3 19.6 8.5.1 0-.5-1.9-.5-1.8-.1-.3-.4-1.6-.8-1.7-6.7-2.2-13.1-4.7-19.2-8.4-2.7-1.5-5.2-3.2-7.5-5.2-3.5-2.2-6.5-5-9-8.3-.3-.3.2 1.1.1.9.4.8.6 2 1.1 2.5z"/></g><g id="XMLID_5562_"><path class="st3" d="M-42.4-62c-.2.2-.3.5-.2.8.9 1.5 1.8 3.1 2.7 4.6 2.3 3.6 5.2 6.3 8.6 8.8 4.2 3.1 8.5 5.6 13.5 7.3 4 1.5 8 2.7 12.2 3.6 3.9 1.8 8 2.9 12.2 3.3.7.1 1.9-.6 2.5-.8-.1 0 1.3-.4.8-.6-4.1-1.3-8.2-2.3-12.4-2.9-3.1-.2-6-1-8.7-2.4-4.4-1.9-8.8-3.8-12.9-6.4-2-1.1-3.9-2.5-5.5-4.2-2.8-1.8-5-4.2-6.7-7.1-.9-1.5-1.8-3.1-2.7-4.6-.1-.3 0-.5.2-.8-.1.2-1.7.5-1.8.6-.3.2-1.6.5-1.8.8z"/><path class="st3" d="M-48.3-69.3c-.6 2.3-.2 4.4 1 6.3.9 1.9 1.9 3.7 3.1 5.4 2.1 3.1 4.7 6.2 7.7 8.5 4.1 3.2 8.6 5.8 13.6 7.5l7.2 2.1c4.8 1 9.6 1.7 14.5 1.9.8.1 1-.4 1-1.1 0-.5-.2-2.4-.9-2.5-11-1.8-22.5-4.2-31.9-10.5-5-3.4-9-7.6-12.1-12.7 0-2.3-.9-3.8-2.7-4.5.1 1.2.3 2.5.4 3.7.3-.3.6-.5.9-.7.1-.2-1.5-3.1-1.8-3.4z"/><path class="st3" d="M-48.2-76.9c-.2.4-.2.8 0 1.2.7 1.2 1.5 2.3 2.2 3.5 2 2.3 4.1 4.6 6.3 6.6 1.2 1.2 2.5 2.3 4 3.2C-25.2-55-12.2-52.2.2-49.9c.6.1 1.6-.6 2.1-.8.2-.1 1.2-.7 1.3-.7-7-1.5-14.3-2.8-21-5.3-2.2-.9-4.5-1.8-6.7-2.7-3-1.2-5.7-2.9-8.2-4.9-2.1-1.2-4-2.7-5.7-4.5-1.6-1.5-3.1-3.2-4.5-4.9-.7-1.2-1.5-2.3-2.2-3.5-.1-.4-.1-.8 0-1.2 0 .1-1.7.7-1.7.7-.2.1-1.8.6-1.8.8z"/><path class="st3" d="M-40.6-72c-.4.4-.9.3-1.1.9-.1.3-.1.6-.1.9.3 1.3 1.8 3.1 2.6 4.1 3.6 4.4 8.7 7.9 14 9.8 2.2.8 4.4 1.5 6.7 2 2.2.7 4.3 1.4 6.5 2.1 2.2.6 4.3 1.2 6.5 1.9 4.1.7 8.2 1.8 12.1 3.3.6.2 1.2.2 1.8 0 .5-.2.7-.5.8-1 .5-1.1.5-3.5-.1-4.6-1.8-3-3.6-6.1-5.4-9.1-.4-.3-.7-.5-.9-.6-1.8-.6-3.5-1.3-5.3-1.9-3-.8-6-1.1-9-.9-2.1-.3-4.1-.1-6.1.6-1.7.4-3.4.8-5.1 1-1.6.4-3.3.5-4.9.3-2.5 0-4.9-.4-7.4-1.1.4.2.9.5 1.3.7-2.5-2.2-5.1-4.5-7.6-6.7.5 1 1 1.9 1.6 2.9-.2-1.3-.4-2.7-.7-4 0-.3-.1-.5-.2-.6z"/><path class="st3" d="M-42.7-78.9c-.2.4-.3.8-.2 1.2.9 1.2 1.8 2.4 2.7 3.5 1.1 1 2.1 2.1 3.2 3.1 2.3 2.3 4.5 4.7 7.1 6.7 2 1.5 4.2 2.7 6.5 3.8C-13.1-55.4-2-52.9 9.3-51c.5.1.4 0 .1-.2-.8-.5-2-.6-2.9-.8-2.1-.5-4.3-.9-6.4-1.4-6.1-1.9-12.2-3.9-18.3-5.8-5.1-2.3-9.7-5.3-13.6-9.3-2.1-2.2-4.4-4.1-6.2-6.4-1.1-1.4-1.6-1.5-1.1-2.9 0 0-3.6-1.2-3.6-1.1zM-51.4-73c-.2 1.2-.5 2.5-.5 3.7 0 .5-.1.3.1.9.7 2 1.9 4 3.1 5.7 2.7 4 6.9 6.9 11 9.4 10.2 6.4 22.1 8.9 33.7 11.4.1 0 .8-3.7.5-3.7-9.3-2-18.7-3.9-27.4-8-8.2-3.8-17.7-10.3-20.5-19.1v.4c-.1-.2 0-.4 0-.7 0-.1 0-.1 0 0z"/><path class="st3" d="M-47.3-61.9c.3 1.8 1.2 3.5 2.4 5 1.5 3.1 3.7 5.6 6.4 7.5 3.9 3 8.1 5.7 12.5 7.7 9.6 4.5 20.2 6.5 30.5 8.7.5.1.5-.1 0-.2-6-1.7-11.9-3.4-17.9-5.3-4.2-.7-8.1-2.1-11.7-4.1-2.1-1-4.1-2.2-6-3.5-2.6-1.7-5.2-3.6-7.4-5.8-1.6-2-2.9-4.1-4-6.4-.7-.8-1.1-1.7-1.3-2.7 0-.1-1.8-.5-1.8-.5.1.1-1.7-.3-1.7-.4zM-36.3-72.9c-.8-.6-1.1.9-1.1 1.5 0 .8.2 1.6.3 2.3.2 1.5.3 1.1 1.9 2.5 2.6 2.4 5 5 7.7 7.3 2 1.6 4.1 3 6.2 4.3 2.2 1.3 4.3 2.5 6.6 3.6 2 1 4.1 1.8 6.3 2.3 7.2 1.8 14.2 4.4 20.9 7.6.3.2.1-2 .1-1.9 0-.3 0-1.7-.5-1.9-8.3-2.2-16.8-4.2-24.8-7.5-4-1.5-7.7-3.4-11.3-5.7-4-2.8-7.7-5.9-11.1-9.4.5.6 1 1.3 1.4 1.9-1.3-2-2.5-4-3.8-5.9.2 1.2.3 2.4.5 3.5.1-.6.4-1.4 1-1-.1-.1-.2-1.8-.2-1.9.2.1.1-1.4-.1-1.6z"/><path class="st3" d="M-50.3-73.1c-.1.4-.1.8.1 1.1.7 1.2 1.4 2.5 2 3.7 2.8 4.5 7.1 7.8 11.5 10.6C-26.3-51-14-48.3-2.1-45.9c.4.1 1.3-1 1.5-1.2 0 0 1.4-1.4 1.3-1.4-13.4-3.6-27.6-6.3-38.8-14.8-2.9-2.2-5.8-4.8-7.8-7.9-.7-1.2-1.4-2.5-2-3.7-.2-.4-.2-.7-.1-1.1 0 .3-1.1 1.3-1.2 1.5-.3.2-1.1.9-1.1 1.4z"/><path class="st3" d="M-41.4-75.8c-.1 0-.1 0-.2-.1-.5-.2-1.4 0-1.9 0-.3 0-1.6-.1-1.9.1-1.4 1.3 1.9 4.5 2.1 4.7 2.8 3.2 6.2 6.2 9.9 8.5 4.3 2.7 9.2 4.5 14 6.3 2.4.9 4.9 1.7 7.4 2.4 4.9 1 9.6 2.8 14.1 5.2 1.2.5 4.3-1.5 2.6-2.7-4.4-4.5-9.5-7.6-15.3-9.3l-4.2-1.5c-5.5-1.8-11.5-2.7-16.8-5-2.8-1.2-5.9-2.6-8-4.9-.7-.9-1.5-1.8-2.2-2.7 0-.4.2-.8.4-1.1-1.3 0-2.5.1-3.8.1.1.1.1.2.2.3.1.2 1.8-.1 1.9-.1.1.1 1.4-.3 1.7-.2z"/><path class="st3" d="M-36.1-68.2c-.8.3-1.1 1-1.5 1.7-.5.8-1.2 1.5-1.2 2.5 1 1.4 2.1 2.9 3.1 4.3 1.6 1.9 3.3 3.7 5.1 5.4 2.8 2.6 6 5 9.3 7.1 3 1.9 6.3 3.1 9.7 4.1 2.2.5 4.3 1 6.5 1.5 5.6 1.1 11 2.7 16.2 4.9.8.3 1.9-3.3 1.8-3.3-3.6-.1-7.2-.2-10.7-.2l3 .3C3-40.5.8-41.2-1.4-41.8c-3.5-1.4-7-3-10.3-4.7-4.2-2.1-8.8-4.2-12.6-7-2.4-1.8-4.6-3.8-6.7-6-1.7-1.7-3.2-3.6-4.3-5.7-.9-.7-1.3-1.5-1.2-2.4-.6 1-1.2 1.9-1.7 2.9.1-.1.2-.3.3-.4l-.3.3c.1-.1.3-.1.4-.2.3-.1.9-1.4 1-1.6-.2-.1.4-1.5.7-1.6z"/><path class="st3" d="M-51.6-69.2c-.1.7.2 1.2.4 1.9.8 2.2 1.6 4.6 2.7 6.7.7 1.2 1.6 3 2.5 4 1.2 1.1 2.4 2.2 3.7 3.2 1.9 1.5 3.9 2.9 6 4.1 10.2 6.5 22.3 8.9 33.9 11.6.1 0-.5-1.9-.5-1.8-.1-.2-.4-1.6-.8-1.7-9.2-2.1-18.6-4-27.2-8-2.9-1.3-5.7-2.9-8.3-4.8-4.7-2.8-8.4-6.7-11.2-11.6 0 .1.1.3.1.4 0-.1 0-.3.1-.4.1-.4-.5-1.5-.6-1.8-.3-.3-.9-1.4-.8-1.8z"/></g><g id="XMLID_5569_"><path class="st2" d="M-38.5-61.5c4.1 2.8 8.3 5.7 12.4 8.5.4.2 1.6-.4 1.8-.5-.1 0 1.8-.7 1.7-.8-4.1-2.8-8.3-5.7-12.4-8.5-.2-.1-1.7.6-1.8.6.1 0-1.6.7-1.7.7zM-32.4-69.5c.8 0 1.8-.7 2.5-1-.2.1 1.2-.5.8-.5-.8 0-1.8.7-2.5 1 .1-.1-1.3.5-.8.5zM-38.8-78.7c4.1 2.4 8.3 4.8 12.4 7.1.7.4 1.7.6 2.5.8-.3-.1 1.4.3.9 0-4-2.2-8-4.5-12.1-6.8-1.1-.6-2.6-.4-3.7-1.1z"/><path class="st2" d="M-36.7-61.3c.4 0 .5-3.7.5-3.7-.3 0-.5 3.7-.5 3.7zM-27.8-52.3c.4 0-1.1-.4-.9-.3-.8-.2-1.8-.6-2.6-.6-.4 0 1.1.4.9.3.8.2 1.8.6 2.6.6zM-46.4-72.7c3.8 2.4 7.7 4.9 11.5 7.3.4.3 2.5-2.8 2.3-3-3.8-2.4-7.7-4.9-11.5-7.3-.2-.1-2.3 3-2.3 3z"/><path class="st2" d="M-33.2-66.5c.2-.4.3-.7.5-1.1-.7 1-1.3 2.1-2 3.1 4.3 2.7 8.5 5.5 12.8 8.2.4.3 2.4-2.9 2-3.2-4.3-2.7-8.5-5.5-12.8-8.2-.1-.1-1.9 2.9-2 3.1-.2.4-.4.8-.5 1.3.5-1.1 1.5-2.1 2-3.2zM-46.6-65.2c3.8 2.7 7.6 5.3 11.5 8-.1 0-.5-1.8-.5-1.8-.1-.4-.3-1.4-.8-1.7-3.8-2.7-7.6-5.3-11.4-8 .3.2.5 1.6.6 1.8.1.1.4 1.5.6 1.7z"/><path class="st2" d="M-43.4-61.8c-.2-.9-.2-1.8.2-2.6 7.8 5.8 16.2 10.5 25.3 14-.3-.2-.7-.8-1-1.1-.5-.5-1-1.2-1.6-1.6-4.1-2.7-8.2-5.5-12.3-8.2-5.6-9.2-9.6-11.5-12.1-7-.7 1.1-.7 1.9-.5 3.2 0 .5.7 1.3 1 1.6.1.4 1 1.4 1 1.7z"/><path class="st2" d="M-37.1-67.7c.6-.6 1.3-1.1 1.9-1.7-1.1.3-2.3.7-3.4 1 8.9 5.3 17.9 10.5 26.8 15.8v-1.9c0-.1 0-1.8-.2-1.9l-23.1-13.2c-.5-.3-3.5.5-3.6 1.1-.4.7-.5 1.4-.2 2.2.1 1 .6 1.7 1.5 2.3-.1-.1.3-1.8.3-1.9-.2 0-.2-1.7 0-1.8z"/><path class="st2" d="M-33.4-68.9l-.3-1.2c.2 1.2.3 2.5.5 3.7-.1-.8.1-1.6.6-2.3 8.4 5.1 16.9 10 25.4 14.9-.1-.1-.2-1.8-.2-1.9 0-.1-.1-1.7-.3-1.9-8.5-4.9-17-9.9-25.4-14.9-.2.4-.3.7-.5 1.1-.2.6-.1 1.3 0 1.9.2 1.5.4 2.8.8 4.3-.4-1.2-.3-2.5-.6-3.7z"/><path class="st2" d="M-38.6-71.8c-.3-1.4-.2-2 .6-3.2-1.3.1-2.5.2-3.8.3 7.9 5.3 16.1 10 24.7 14.1.5.3 1.3.2 1.9.3.2 0 1.7 0 1.9.1-7.6-6-15.9-11-24.7-14.9-.4-.2-1.5.1-1.9.1-.2 0-1.7 0-1.9.2-.8 1.2-.9 1.8-.6 3.2.1.4 3.8-.2 3.8-.2z"/></g><g id="XMLID_5576_"><path class="st2" d="M-99.4 61.8c5.3-3.3 10.8-6.1 16.5-8.4 5.6-2.6 11.3-4.9 17.1-7 2-.8-.2-.2-.9.1-4.3 1.5-8.7 3-12.9 4.7-7.9 3.2-15.3 7.2-22.8 11.3-.5.3-.3.3.1.3.9 0 2.3-.6 2.9-1zM-118.1 64.6c6.5-4 13.2-7.7 20.1-11 8.3-3.9 16.8-7.5 25.4-10.9 0 0-1.7-3.3-2.1-3.1-8.5 3.3-16.9 6.9-25.1 10.8-6.9 3.3-13.7 7-20.2 11.1-.3 0 1.6 3.2 1.9 3.1zM-106.5 45.2c10.7-5.3 21.6-10.3 32.7-14.7.7-.3 1.7-.5 2.3-1 .2-.2.2-.2-.2 0-4.5 1.7-9.1 3.3-13.5 5.2-8 3.4-15.8 7.3-23.6 11.2-.5.2-.3.3 0 .3.5 0 1.8-.8 2.3-1z"/><path class="st2" d="M-112.1 62.3c4.1-2.7 8.3-5.3 12.4-8l-.9.3c33.9-10.9 10.2 2.2 33.7-12.1 2-1.2-1.2-3-2.5-2.4-9.6 3.2-19 7.2-28.1 11.9-4.6 2.5-9.3 4.6-14.2 6.5-.3.1-.3 1.7-.3 1.9 0 0-.1 2-.1 1.9zM-99.4 45.1c5.5-2.9 11.1-5.5 16.8-8C-76.9 34.4-71 32-65 29.8c-.1.1-1.7-.6-1.8-.6-.3-.1-1.4-.6-1.8-.4-5.9 2.1-11.7 4.5-17.3 7.2-5.7 2.5-11.3 5.2-16.8 8.1-.5.2.8.5.8.5.4 0 2 .8 2.5.5z"/><path class="st2" d="M-113.3 54.4c5.6-3 11.3-5.8 17.1-8.3 5.6-2.7 11.4-5 17.3-7.1.2-.1.3-1.8.3-1.9l.2-1.9c-5.9 2.1-11.6 4.5-17.3 7.1-5.8 2.5-11.5 5.3-17.1 8.3-.4.2-.4 1.6-.4 1.8 0 .1-.3 2.1-.1 2zM-104.2 63.5c5.4-3.3 11-6.1 16.8-8.5 5.7-2.7 11.5-5 17.5-7-.2.1-1.6-.4-1.8-.5-.3-.1-1.5-.5-1.8-.4-5.9 1.9-11.7 4.2-17.3 6.9-5.9 2.5-11.6 5.4-17.1 8.7l1.8.6c.4 0 1.5.4 1.9.2zM-107.6 61.1c5.3-3.1 10.7-6.1 16.1-9.1 9.3-5.5 19.2-9.8 29.7-12.8.6-.2-.5-3.8-.7-3.7-7.7 3.3-15.4 6.7-22.9 10.3-7.9 3.3-15.4 7.1-22.7 11.6-.5.3.8 3.6.5 3.7z"/><path class="st2" d="M-121.8 57c6.8-5 14.1-9.1 21.8-12.3 7.5-3.6 15.2-6.8 23-9.8.6-.3 1.3-1.5 1.7-2.1-.1.1.8-1.1.4-.9-7.9 2.8-15.6 6.1-23.1 9.7-7.7 3.2-14.9 7.3-21.5 12.4-.4.3-.9 1.1-1.2 1.5-.2.3-.7 1.3-1.1 1.5z"/><path class="st2" d="M-113.3 54.4c5.7-4.3 11.8-8 18.3-11.2 8.4-4.9 17.4-8.4 27.1-10.3.6-.2-1.1-.5-.9-.5-.8-.1-1.8-.4-2.7-.2-13 2.2-11.1.8-22.3 7.9-.2.1-.4.2-.5.3-7.3 4.9-14.8 9.6-22.5 14-.4.3 1.1.1.9.2.6.1 2 .2 2.6-.2zM-109.7 65.5c14.9-8.1 30.2-15.3 45.9-21.6.5-.2 1.1-1.9 1.3-2.3 0 .1.6-1.2.1-1-7.9 3.8-15.8 7.5-23.9 11-7.4 3-14.6 6.6-21.5 10.7-.4.2-.8 1.2-1.1 1.6 0 .2-.6 1.5-.8 1.6zM-111.8 58.6c5.6-3.1 11.3-5.9 17.1-8.4 5.6-2.7 11.4-5 17.3-7 .2-.1-1.2-3.6-1.2-3.6-5.9 2-11.6 4.4-17.3 7-5.9 2.5-11.6 5.3-17.1 8.4-.4.3 1.1 3.7 1.2 3.6z"/></g><g id="XMLID_5583_"><path class="st2" d="M-86.2 58.4c.3-.5.6-1 .8-1.5.9-1.1 2-1.9 3.4-2.4 11.1-6 20.4-9 34.9-12.8.8-.2 2.1-.5 2.8-1 .3-.2.5-.4-.1-.3-7 1.7-12.4 3.1-19.3 5.4-3.4 1.1-6.8 2.3-10.1 3.7-3 1.6-6.1 3.1-9.3 4.5-.9.4-1.8.8-2.7 1.4-1.8 1.2-3 2.3-4 4.1.1-.2 1.7-.6 1.8-.6.2 0 1.6-.3 1.8-.5zM-94.4 57.4c0-1.2.3-2.3 1-3.4.7-1 1.6-1.8 2.7-2.5 3.3-1.4 6.5-2.9 9.6-4.5 8.8-3.4 17.8-6.4 26.9-8.9 1.3-.4-.2-3.8-1.5-3.5-6.3 1.9-12.7 3.7-18.9 5.9-6.1 2.2-12.5 4.7-18.1 7.9-1.1.6-2.5 1.6-3.1 2.7-.6 1.2-.6 1.7-.6 3.1 0 .5.6 1.3.9 1.7.1 0 1.1 1.4 1.1 1.5zM-92.4 42.6c.9-2.2 2-3.8 4-5.2 2.7-1.8 5.7-3.1 9-3.7 8.5-3.3 17.1-6.1 25.9-8.4.8-.2 2-.6 2.7-1.2.3-.3.4-.4-.1-.2-6 1.4-12 3.1-17.8 5.1-3.1 1.1-6.2 2.3-9.2 3.6-3.4 1.3-7 2.4-10.3 4-.9.4-1.7.9-2.5 1.5-2.5 1.6-4 3.3-5.1 6 .1-.2 1.6-.7 1.7-.7.1-.1 1.6-.6 1.7-.8z"/><path class="st2" d="M-88.3 54.8c.4-1.5.8-3.1 1.1-4.6-.5.9-1.1 1.9-1.6 2.8.9-1.3 1.9-2.5 2.8-3.8-.7.6-1.3 1.2-2 1.8 1.6-1 3.1-2.1 4.7-3.1-1 .3-1.9.5-2.9.8 7.3-1.1 14.6-1 21.9-1.3 7.1-.3 5.1-.9 14.4-5.7 1-.5 2.5-2.7 2.3-3.9-.1-1.1-1.6-1.9-2.6-1.5-4 1.6-8.2 2.8-12.4 3.7-4.1 1-8.3 2-12.6 3-.1 0-7.6 2.2-9.9 3.9l-1.4 1.4c-1 .8-1.8 1.8-2.3 3-.4 1.6-.1 2.2.4 3.8 0 .3.1-.3.1-.3zM-86.5 43.1c.6-1.3 1.1-2.4 2.1-3.4 1.2-1.3 2.7-2.2 4.2-3 1.6-.9 3.3-1.6 5-2.1 2.9-1.1 5.7-2.2 8.6-3.3 7.3-2.8 14.7-4.8 22.2-6.9.5-.1-1-.5-.8-.5-.6-.2-1.9-.8-2.6-.7-6 1.6-12 3.1-17.8 5.1-2.9 1.1-5.8 2.2-8.7 3.4-3.3.8-6.5 2.1-9.4 3.8-1.3.7-2.4 1.5-3.5 2.4-1.4 1.2-2.1 2.4-2.9 4.1.1-.1 3.6 1.3 3.6 1.1z"/><path class="st2" d="M-99.1 50.3c1.6-2.2 3.4-3.5 5.8-4.7 5.8-2.4 11.6-4.7 17.5-6.9C-70 36.7-64 35-58 33.6c.3-.1.4-1.7.4-1.8 0 .1.3-1.9.1-1.9-6 1.5-11.9 3.2-17.8 5.1-5.9 2.1-11.7 4.4-17.5 6.9-2.4 1.2-4.2 2.5-5.8 4.7-.2.3-.2 1.5-.3 1.9 0 .2 0 1.5-.2 1.8zM-89.1 57.6c2.9-2.1 5.9-3.3 9.2-4.9 9.9-4.6 20.3-7.6 30.8-10.3.4-.1-1-.4-.8-.4-.6-.2-1.9-.7-2.6-.6-6.1 1.3-12 2.9-17.8 5-4.5 1.3-8.8 3.1-13 5.2-3.3 1.5-6.5 2.9-9.4 5 .1-.1 1.8.5 1.8.5.1.1 1.6.6 1.8.5z"/><path class="st2" d="M-83.9 53.9c.7-4.3 3.7-6.1 7-7.9 5-3.1 10.4-5.4 16.2-6.9 6.5-2.2 13-4 19.7-5.4.7-.2-.2-3.9-.6-3.7-4.9 1.6-12.7 4-17.6 5.8-5.6 2.5-11.3 4.7-17.2 6.5-1 .3-2 .8-3 1.3-1.5.8-2.9 1.8-3.9 3.3-1 1.5-.9 1.8-1.1 3.5-.1.8.2 1.8.3 2.6-.1-.2.1 1.3.2.9zM-95.9 46.9c.3-1.2.5-2.3.8-3.5-.5.7-1.1 1.4-1.6 2.1 3.5-4.4 9.3-5.7 14.2-7.6 2.9-1.1 5.8-2.2 8.6-3.3C-68 32.7-62 31-56.1 29.5c.6-.2 1.4-1.6 1.7-2 0 .1.8-1.1.3-.9-6 1.6-12 3.1-17.8 5.1-2.9 1.1-5.7 2.2-8.6 3.3-2.9 1.1-5.9 2.3-8.8 3.4-1.5.9-2.9 1.8-4.2 3-1.1 1.1-2 2.3-2.9 3.6-1.2 1.7-1.6 2.9-1.7 5 0-.3 1-1.3 1.2-1.5.1-.3 1-1.2 1-1.6z"/><path class="st2" d="M-89.6 47.2c-.2-2 .3-3.8 1.4-5.5-.9.8-1.7 1.6-2.6 2.4 1.9-.7 3.8-1.4 5.6-2.3 4.9-3.6 10.2-6.5 15.9-8.6 5.8-2.6 11.8-4.3 18.1-5 .6-.1 1.6-1.5 1.8-2 .1-.3.3-1.2-.4-1.1-6.9-.4-13.4 1.1-19.4 4.5-5.6 2.6-11 5.5-16.3 8.7-2.6 1.8-4.8 4.1-6.7 6.7-.8.7-1.2 1.6-1.1 2.6-.1 0 3.7.1 3.7-.4zM-84 55.2c.3-1 .7-2 1-3l-1.8 2.7c2.3-2.4 4-3.1 6.8-4.3l9.9-5.1c5.8-2.2 11.6-4.2 17.6-6-.8.2-1.5.4-2.3.5 3.3-.5 6.7-1.1 10-1.6.7-.1 1-1.5 1.2-2 0-.1.7-1.7.1-1.4-4 1.5-8 3.1-12 4.6-3 .9-5.9 1.9-8.9 2.8l-8.7 3.3c-1.8.6-3.5 1.2-5.3 1.8-2.3.9-4.4 2-6.1 3.8-.7.8-1.2 1.5-1.8 2.4-.3.6-.7 1.1-1 1.7-.7 1.4-.5 1-.8 3 .1-.3.9-1.3 1.1-1.6.3-.4.9-1.1 1-1.6z"/><path class="st2" d="M-98.2 55.8c.4-1.1.9-2.1 1.7-2.9 1.1-1.1 2.5-1.9 3.9-2.7 4.5-2.3 9.3-4.1 14.1-5.8 7.3-2.7 14.6-4.8 22.1-6.7.2 0-.9-3.7-1.2-3.6-6 1.6-11.9 3.1-17.8 5.1-6.2 2.1-12.6 4.5-18.4 7.4-1.1.6-2.2 1.2-3.2 2.1-1.2 1.1-1.8 2-2.4 3.5-.1.3.6 1.6.6 1.8.1.2.7 1.5.6 1.8z"/></g><g id="XMLID_5590_"><path class="st3" d="M-119.7 8.2c10.7-2.7 21.4-6.1 32.5-6.4 3.1-.1 6.4 0 9.5-.4 2.7-.3 5-.8 7.7-1.5.8-.2 2-.7 2.7-1.2.3-.3.4-.4-.1-.2C-71-.6-74.6-.1-78.3.1c-3.2.1-6.3.1-9.5.3-3.2.2-6.3.7-9.4 1.4-6.5 1.5-12.9 3.3-19.3 4.8-.8.2-1.7.6-2.5 1 .3 0-1.2.7-.7.6z"/><path class="st3" d="M-110.1 7.2c6.4-1.6 12.7-3.4 19.2-4.8 3.7-.8 7.5-1.4 11.3-1.5 2.5-.1 5.1-.1 7.6-.2 3.9-.1 7.4-.7 11.1-1.6.5-.1-1-.5-.8-.5-.6-.2-1.9-.8-2.6-.7-3.1.8-6.1 1.3-9.3 1.5-3.2.2-6.3.1-9.5.3-3 .2-5.9.5-8.8 1-2.5.5-5 1.1-7.4 1.8-4.7 1.3-9.5 2.5-14.2 3.6-.4.1 1 .5.8.4.6.2 1.9.8 2.6.7zM-124.1 16.6c10.1-2.7 20.3-6.2 30.8-6.6 2.5-.1 5.1-.1 7.6-.2 3.9-.1 7.4-.7 11.1-1.6.7-.2.3-3.7.5-3.7-3.1.8-6.1 1.3-9.3 1.5-3.2.2-6.3.1-9.5.3-10.5.6-20.7 3.9-30.8 6.6-.2.1-.3 1.8-.4 1.9.2-.2-.1 1.8 0 1.8zM-114.9 25.7c9.9-2.9 20-6.4 30.5-6.8 2.5-.1 5.1-.1 7.6-.2 3.9-.1 7.4-.7 11.1-1.6.4-.1-1-.4-.8-.4-.6-.2-1.9-.7-2.6-.6-3.1.8-6.1 1.3-9.3 1.5-3.2.2-6.3.2-9.5.3-10.5.6-20.6 4-30.7 6.9.2-.1 1.6.5 1.8.5.4.1 1.4.5 1.9.4z"/><path class="st3" d="M-122.5 20.8c10.1-2.7 20.2-6.3 30.8-6.7 2.5-.1 5.1-.1 7.6-.2 3.9-.1 7.4-.7 11.1-1.6.2 0-.9-3.7-1.2-3.6-3.1.8-6.1 1.3-9.3 1.5-3.2.2-6.3.1-9.5.3-10.5.6-20.7 3.9-30.8 6.7-.1 0 1 3.6 1.3 3.6zM-112.9 25c6.4-1.9 12.7-3.9 19.2-5.3 4.8-1 9.8-1.5 14.8-1.6 2.5-.1 5.1-.1 7.6-.3 2.6-.2 5.1-.8 7.7-1.4 0-.1-.1-.2-.1-.3-2.1.9-4.3 1.8-6.4 2.8-.3.1 1.1-.3.9-.3.8-.3 1.7-.6 2.5-.9l5.4-2.1c.3-.1 1.4-.8.5-.5l-3.6.9c-3 .4-6.1.7-9.1.7-3.2.1-6.4.1-9.5.4-9.2 1.1-18.1 4-26.9 6.6-.9.3-2 .5-2.8 1-.6.2-.7.4-.2.3z"/><path class="st3" d="M-129.7 23.6c7.5-2 14.9-4 22.3-6 1.6-.4 3.2-.8 4.8-1.3 4.1-1.1 8.2-1.7 12.4-1.7 3.5-.3 6.5-.5 9.9-.7 3.2-.2 6.2-.7 9.4-1.4l-1.2-3.6c-1.7.8-3.3 1.7-5 2.5.1-.1 2 3 2.6 2.8 1.2-.6 2.4-1.1 3.6-1.7 1.2-.5.1-3.9-1.2-3.6-2.4.7-4.8 1.1-7.3 1.3-2.4.1-4.8.2-7.2.4-2 .1-4 .2-6.1.4-3 .3-6 .8-9 1.5-10.1 2.3-20.1 5.3-30 8 .2-.2 1.5 3.2 2 3.1z"/><path class="st3" d="M-123.9 21.4c6.1-2.5 12.4-4.4 18.8-5.5 3.4-.7 6.7-1.4 10.1-2.2 3.9-.8 7.6-1.2 11.5-1.4 3.4-.1 6.8 0 10.2-.4 2.7-.3 5.1-.8 7.7-1.4-.6-1.1-1.2-2.2-1.7-3.3-1.2.6-2.4 1.2-3.5 1.8.2-.1 2.2 2.9 2.7 2.6.9-.4 1.7-.8 2.6-1.1 1.1-.5 1.1-1.1.7-2.2-.3-1-.8-1.7-1.9-1.4-3.3.8-6.7 1.3-10.2 1.5-3 .2-6.1.2-9.1.5s-6 .9-8.9 1.6c-9.6 2.2-18.7 5.3-28.6 7.1-.5.1-.1 3.7-.4 3.8z"/><path class="st3" d="M-119.3 20.2c9.6-2.6 19.2-5.6 28.9-7.8 3.9-.9 7.8-1.7 11.9-2 3.1-.2 6.3-.2 9.4-.3 3.9-.2 7.5-.7 11.2-1.6-.2-1.2-.3-2.5-.5-3.7-2 .8-4.1 1.6-6.1 2.4-.5.2.5 3.7.5 3.7 2-.8 4.1-1.6 6.1-2.4.6-.2-.1-3.8-.5-3.7-3.8.9-7.4 1.5-11.3 1.6-3.1.1-6.3.1-9.4.3-4 .3-8 1-11.9 2-9.7 2.4-19.3 5.2-28.9 7.8-.1 0 .8 3.7.6 3.7zM-122.1 12.4c5.7-1.4 11.3-3 16.9-4.4 6.3-1.6 12.8-2.1 19.3-2.2 1.6 0 2.3-.1 3.9-.2 3.2-.2 6.1-.7 9.3-1.5.7-1 1.3-2 2-3-2.1.8-4.1 1.5-6.2 2.3-.4.2-1 1.1-1.2 1.4-.1.1-.9 1.5-1.1 1.5 2.2-.8 4.3-1.6 6.5-2.3.7-.2 1.3-1.5 1.7-2 0 .1.8-1.1.3-.9-5.1 1.3-9.3 1.6-14.8 1.7-1.9.1-3.9.1-5.8.2-2.7.2-3.7.2-7 .9-7.3 1.5-14.6 3.7-21.9 5.5-.6.2-1.4 1.6-1.7 2 .1 0-.7 1.1-.2 1z"/><path class="st3" d="M-125 13.6c8.2-2.4 16.5-4.7 24.8-6.6 1.6-.4 3.3-.7 4.9-1.1 2.2-.2 4.5-.4 6.7-.7 3.1-.4 6.3-.4 9.4-.7 3.8-.2 7.5-.6 11.2-1.5.4-1 .9-2.1 1.3-3.1-2.3 1.3-4.5 2.6-6.8 3.8-.4.3.9.4.9.4.5.1 2.2.6 2.6.3.8-.5 1.5-1 2.3-1.5.6-.4 1.4-1.4 1.7-2.1.1-.2.3-1.2-.3-1-4.3 1-8.7 1.5-13.1 1.6-3.2.1-6.7 0-9.8.6-2.9.6-5.9 1.4-8.7 2.1-10.3 2.6-20.5 6.3-30.6 9.7-.4.1 1.1 0 .9 0 .8 0 1.7.1 2.6-.2zM-108.9 21.6c6.3-1.8 12.6-3.8 19.1-5.2 4.9-1.1 9.9-1.5 14.9-1.7 2.5-.1 5.1-.1 7.6-.3 2.6-.2 5-.8 7.5-1.4.6-1.1 1.1-2.1 1.7-3.2-2 .8-4 1.6-5.9 2.5-.5.2-.9 1.1-1.1 1.5 0 .1-.8 1.6-.9 1.7 2.1-.8 4.2-1.7 6.3-2.5.6-.3 1.2-1.6 1.5-2.2 0 0 .7-1.1.1-1l-3.6.9c-3.1.5-6.1.7-9.2.8-3.1.1-6.3.1-9.5.4-9.1 1-18 4-26.7 6.5-.6.2-1.3 1.7-1.5 2.2-.1 0-.9 1.2-.3 1z"/></g><g id="XMLID_5597_"><path class="st2" d="M-101.8 18.2c-.4 0-.8-3.6-1.2-3.6.4.1.8 3.6 1.2 3.6zM-115.4 26.6c11-1.6 22-3.3 32.9-5.2 1.2-.1 2.4-1.2 3.6-1.3-6 .6-14.4 1.2-20.3 2.3-4.8.9-8.1 2.2-12.6 2.8-1.2.3-2.4 1.2-3.6 1.4zM-89.4 4.8l10.2-.9c-1.2.1-2.5-1.1-3.6-1l-10.2.9c1.2-.2 2.5 1.1 3.6 1zM-128.8 16.3c2.2-1.3 4.5-2.3 6.9-3 3.4-.6 6.9-1.2 10.3-1.8 6.7-1.2 13.5-2 20.3-2.4.4 0 1.1-1.2 1.2-1.4 0 0 1-1.6 1.1-1.6-5.1.2-10.2.8-15.2 1.7-5.1.7-10.3 1.6-15.4 2.6-2.4.8-4.7 1.8-6.9 3-1 .5-1.3 2.4-2.3 2.9z"/><path class="st2" d="M-127 25.5c1.3-1.2 2.7-2 4.4-2.6 1.6-.6 3.2-1 4.8-1.3 6.7-1.6 13.4-2.8 20.3-3.6 6.8-.8 13.6-1.2 20.4-1.2.1-.1-.9-1.8-.9-1.8-.1-.1-.8-1.5-1.1-1.5-6.8 0-13.6.4-20.4 1.2-6.8.8-13.6 2-20.3 3.6-1.7.3-3.3.7-4.8 1.3-1.6.6-3.1 1.5-4.4 2.6-.1.2 2 3.3 2 3.3z"/><path class="st2" d="M-121.1 23.3c.5-.7.9-1.4 1.4-2-.1.1-.2.2-.2.3 1.7-1 3.3-2 5-3l-3.6.6c1.9-.1 3.9-.2 5.8-.2-.1 0-.3-.1-.4-.1 4.5 2.1 1.8 0 11.9-1.8 10.2-1.8 20.3-2.4 30.6-2.8.3 0 .3-3.8.1-3.8-10.9.6-21.9 1.1-32.6 3.2-3.5.8-7 1.6-10.5 2.3-1.9.6-3.6 1.6-5.1 3 .1 0 .3-.1.4-.1-.8.2-1.6.3-2.4.5-.2 0-.3 1.8-.3 1.9 0 .1-.1 1.9-.1 2z"/><path class="st2" d="M-116.5 22.1c1.4-1.2 3-2.1 4.7-2.7 1.8-.7 3.6-1.2 5.5-1.5 6.6-1.5 13.2-2.7 19.9-3.5 6.8-.8 13.6-1.2 20.5-1.3 0 0-.2-3.7-.5-3.7-6.9.1-13.7.5-20.5 1.3-6.7.8-13.4 1.9-19.9 3.5-1.9.4-3.7.9-5.5 1.5-1.7.6-3.3 1.5-4.7 2.7-.1.1.2 1.8.2 1.9 0-.1.4 1.8.3 1.8zM-122.2 15.5c2-1.7 4.3-2.9 6.9-3.6 13.1-3.3 26.3-5.1 39.9-5.3.9 0 2.1 0 3-.3.4-.1.5-.2 0-.2-8.5.3-13.6.5-22 1.4-3.9.4-7.9 1.1-11.6 1.7-10 1.7-7.2.8-12.9 2.9-1.7.5-3.3 1.2-4.9 2.1-.8.5-1.5 1.1-2.2 1.7.2-.1 1.7-.1 1.9-.1.4-.1 1.6 0 1.9-.3z"/><path class="st2" d="M-118.6 26.5c1.4-1.1 3-2 4.7-2.5 1.8-.6 3.6-1 5.5-1.2 6.5-1.8 13.2-3 19.9-3.6 6.8-.8 13.6-1.2 20.5-1.2.2 0 1-1.5 1.1-1.6 0 0 .9-1.6 1-1.6-6.8 0-13.7.4-20.5 1.2-6.7.7-13.4 1.9-19.9 3.6-1.9.2-3.7.6-5.5 1.2-1.7.5-3.3 1.4-4.7 2.5-1 .7-1.2 2.6-2.1 3.2z"/></g><g id="XMLID_5604_"><path class="st2" d="M-167.2-6.4c8.5 2.4 17 4.7 25.5 6.7.7.2 2-.6 2.5-.8-.1.1 1.3-.5.8-.6-8.5-2-16.9-4.2-25.3-6.6-.5-.1-1.4.3-1.8.5 0 0-1.6.8-1.7.8zM-173.8-23.2c8.4 2.9 17 5.3 25.7 7.2.6.1 2-.7 2.5-1-.1 0 1.2-.5.7-.6-8.6-1.8-17.1-4.2-25.5-7.1-.4-.1-1.5.5-1.8.7.1 0-1.5.8-1.6.8zM-167.1-25.1c4.6 1.6 9.3 3.1 14 4.5 4.5 1.3 9.1 2.4 13.7 3.4-.1 0 1.2.4.9 0-.3-.5-2-.7-2.5-.8l-23.7-6.6c-.6-.2-1.8-.7-2.4-.7-.4 0-.5 0 0 .2zM-178-14.8c8.5 2.7 17.1 5 25.7 6.9.1 0 .9-3.6.5-3.7-8.7-2-17.3-4.3-25.7-6.9.1-.1-.8 3.6-.5 3.7zM-172.1-6.5c10.3 2.8 16.6 4.5 27 7.1 0 0 1.8.5 1.9.3.1-.2-1.8-.6-1.8-.6-8-2.1-16.1-4.1-24.1-6.2-1.1-.2-2-.5-3-.6-.5-.1-.5-.1 0 0z"/><path class="st2" d="M-176.5-10.6c8.5 2.5 17.1 4.8 25.7 6.8.1 0-.5-1.9-.5-1.8-.1-.2-.4-1.6-.8-1.7-8.6-2-17.2-4.3-25.7-6.8l.5 1.8c.2.1.5 1.6.8 1.7z"/><path class="st2" d="M-184.3-15.4c7.4 3.4 15 6.1 22.8 8.2 9.3 2.8 18.8 4.7 28.5 5.5-.1 0-1.2-1.4-1.2-1.4-.3-.3-.9-1.1-1.4-1.2-8.6-2.1-17.2-4.2-25.8-6.4-8.3-2.4-16.6-5-24.8-7.8.2.1.9 1.5 1 1.6 0 .2.6 1.4.9 1.5zM-178.4-17.6c7.7 2.4 15.4 4.7 23.1 7.1 9.2 2.2 18.4 4.5 27.6 6.7.1 0 .9-3.7.6-3.7-10.7-2.2-21.3-4.7-31.8-7.5-6.6-1.5-13-3.6-19.2-6.3.2 0-.7 3.6-.3 3.7z"/><path class="st2" d="M-173.8-18.8c8.4 2.8 16.9 5.5 25.4 8 8.7 1.9 17.3 3.9 26 5.7-.1 0 .2-3.6-.4-3.8-8.9-1.2-17.6-3.1-26.1-5.7-8.5-2.5-17-5.1-25.4-8 .1 0 .2 1.9.2 1.9 0 .1.2 1.9.3 1.9z"/><path class="st2" d="M-176.2-19c6.3 2.2 12.8 4 19.3 5.5 6.3 1.7 12.7 3 19.2 4 .2 0 1.2-1.4 1.2-1.5l1.1-1.5c-6.5-1-12.9-2.4-19.2-4-6.5-1.5-12.9-3.3-19.3-5.5-.6-.2-2.2 3-2.3 3z"/><path class="st2" d="M-183.2-25c8.1 3.3 16.3 6 24.7 8.1 9.5 2.7 19.2 4.6 29.1 5.6.3 0 1.6.2.7-.2-8.8-3.5-17.8-6.1-27.1-7.9-7.9-2-15.7-4-23.6-5.9-.5-.1-1.4.1-1.9.1-.4 0-1.6.3-1.9.2zM-163-9.8c6.2 2 12.5 3.7 18.9 5.2 6.4 1.7 12.9 3.1 19.5 4.2.6.1 1.8-3.2 2-3.2-6.6-1.1-13-2.6-19.5-4.2-6.4-1.5-12.6-3.2-18.9-5.2-.6-.1-2.1 3.2-2 3.2z"/></g><g id="XMLID_5611_"><path class="st2" d="M15 22.3c-.3 3.1-.9 6.3-1.1 9.5-.2 2.9.2 5.8.8 8.6.8 3.3 2.4 6.3 3.9 9.3.8 1.5 1.5 3 2.2 4.6 1.3 2.8 1.8 5.8 1.5 8.8l.3-2.4c-.9 2.1-1.8 4.3-2.6 6.4-.4.7-.4 1.8-.5 2.6 0-.2-.1 1.5.3 1 1.8-2.9 3-5.5 3.4-9 .3-2.6.2-5.2-.4-7.7-1.3-4.9-4.4-9.2-6.3-13.9-.7-1.5-1.2-3.1-1.4-4.8 0-3-.1-6.1-.1-9.1.2-2.5.4-5.1.6-7.6-.2 1.2-.5 2.5-.6 3.7z"/><path class="st2" d="M20 33.6c-.4 4.3-1.2 8.8-.4 13.1.5 2.9 1.6 5.5 2.9 8.1 2.2 4.4 5 8.8 5.3 13.8.2 3.8-1.1 6.9-3 10 0 .1 3.3 1.5 3.7.9 1.9-3.1 3.2-6.2 3-10-.2-2.9-1.2-5.5-2.4-8.1-2.1-4.5-5-8.8-5.8-13.9-.7-4.3.1-8.8.4-13.1 0-.2-3.7-.7-3.7-.8z"/><path class="st2" d="M25.1 30.1c.2 2.3.1 4.7-.1 7-.2 2.2-.3 4.4-.5 6.6 0 4.6 1.8 8.6 3.9 12.6 2 3.9 4.4 7.9 4.6 12.5.3 5-1.9 8.4-4.7 12.1.1-.2 1.6-.5 1.8-.6.4-.1 1.5-.3 1.8-.7 2.3-2.8 4.1-5.7 4.6-9.4.5-4.3-1.1-8.4-2.9-12.2-2-4-4.5-8-5.2-12.5-.4-2.7-.1-5.4.1-8 .2-2.9.3-5.8.3-8.7-.2.4-3.8.9-3.7 1.3z"/><path class="st2" d="M18.1 19.6c.5 2.1 1 4.1 1 6.2 0 2.3-1.4 6.3-1.8 8.6-.3 2-.5 4-.4 6 .2 2.5.9 4.9 1.7 7.4.6 1.9 1.2 3.7 1.8 5.6.8 2.6.7 5.3 1 7.9.2 2.2-.5 4.2-.5 6.4-.1 2.7.7 5.7 1.2 8.3 0-.1.1.7.3.3.7-1.9 1.5-3.9 2.1-5.9.2-1.2.5-2.4 1-3.5.4-.8.6-1.6.7-2.5.6-3.5 0-7.3-1.2-10.7-1.7-5.1-4.3-9.9-4.9-15.3-.3-2.7 0-5.3 0-8 0-1 0-2 .2-3.1.3-1.5.2-3.1-.1-4.6-.1-.7-.8-1.5-1.1-2-.2-.2-1-1.3-1-1.1z"/><path class="st2" d="M18.9 14.4c-.1 4.3-1 8.7-.8 13 .2 4.7 1.8 8.7 3.9 12.8 2 4 4.4 8 4.6 12.6.1 2.7-.4 5.2-1.6 7.5-.8 1.6-1.9 3-3.3 4.2.3-.3 1.4-.6 1.7-.7.4-.2 1.4-.4 1.7-.7 1.3-1.2 2.3-2.3 3.2-3.8.8-1.5 1.4-3.4 1.6-5.1.5-4.3-1.1-8.5-3-12.3-2-4-4.4-7.9-5.2-12.4-1-5.4.3-11 .5-16.5 0 .1-1.7.7-1.7.7.1-.1-1.6.6-1.6.7z"/><path class="st2" d="M26 20.5c-.8 1.4-1.1 2.9-1 4.5 0 1.4-.1 2.9-.2 4.3.1 3 .5 5.8 1.8 8.5 1 2 2.2 3.9 3.4 5.7.5.8 1.1 1.7 1.6 2.5 1 1.8 1.8 3.7 2.4 5.8-.1-.4-.2-.7-.3-1.1.4 1.9.6 3.8.4 5.7.1-.7.2-1.4.2-2.1-.1.9-.3 1.7-.4 2.6l1.5-5.4c-1.9 4.9-3.7 9.7-5.6 14.6-.5 1.2-.1 1.9 1 2.4 1.2.5 1.8.3 2.4-.9 3.2-6.2 5.7-13.1 6.3-20.1.3-3-.2-5.8-1.7-8.5-1.2-2.2-2.4-2.8-4.4-4.2-.4-.3-.8-.6-1.3-.9-3.1-1.2-4.3-3.3-3.8-6.5 0-1.6-.2-3.1-.5-4.6-.1-2.1-.6-4.1-1.5-5.9.1.2-.7 3.3-.3 3.6z"/><path class="st2" d="M24.7 12.4c.2 4.4-.6 8.6-.6 13 0 4.2 1.3 7.7 3.2 11.5 1 2 2.1 4.1 3 6.1.8 1.5 1.3 3 1.5 4.7.7 1.4.9 2.9.7 4.5-.1 1.8-.4 3.4-1.1 5.1-.8 2.1-2 3.6-3.6 5.2.1-.1 1.8.5 1.8.5s1.7.6 1.8.5c1.2-1.2 2.3-2.4 3.1-4 .8-1.5 1.3-3.3 1.5-5 .4-3.8-.7-7.4-2.3-10.8-1-2.1-2-4.1-3-6.1-1.4-2.9-2.8-6.2-3-9.4-.3-4.9.7-9.8.5-14.7.2-.5-3.4-.8-3.5-1.1z"/><path class="st2" d="M30.4 19c0 3.3-.1 6.5-.5 9.8-.6 2-.7 4.1-.5 6.2.3 2.9 1.5 5.6 2.7 8.3 2.4 5.1 5.4 9.8 5.3 15.8 0 1.7-.3 3.4-.9 5.1-1.1 1.8-1.8 3.8-2.1 5.9-.2.8-.2 1.8-.2 2.7 0 .1 0 1 .3.6 2.6-2.9 4.1-4.1 5.5-7.7 1-2.7 1.5-6.2 1.1-9-.7-4.6-3.6-8.8-5.6-12.8-1.2-2.4-2.2-4.7-2.9-7.2-.7-2.7-.8-5.2-.9-7.9-.2-4.3-.6-8.3-1.4-12.5-.3-.8-.3-.7-.3-.3.1 1 .3 2 .4 3zM16.3 15.2c.6 3.1.6 6.3-.1 9.4-.5 2.2-.6 4.4-.5 6.7.2 3.5 1.1 6.6 2.5 9.7 1.5 3.5 3.8 6.9 4.6 10.6 1 4.3.6 8.7.2 13 .3-.5.5-1.1.8-1.6-.8.9-1.6 1.9-2.4 2.8-.5.5-.8 1.8-1.1 2.4.1-.2-.5 1.2-.2.9 2.5-2.7 2.3-2.5 4.3-5.8.5-.9.9-1.7 1.3-2.6 1.9-4.5 1.2-9.3-.6-13.7-.6-1.6-1.5-3.1-2.3-4.6-2.3-4.4-4.3-8.9-4.7-13.8-.3-3.4.5-6.6.8-10 .2-3 .1-3.5-.3-6.5 0 .2-1.1 1.4-1.2 1.5 0 .3-1.1 1.4-1.1 1.6z"/><path class="st2" d="M21.1 13.1c.5 2 .7 4 .5 6.1l-.3 2.4c-.3 2.9-.6 5.5-.1 8.4.4 2.7 1.4 5 2.5 7.4 1.5 3.2 3.1 6.3 4.2 9.8-.2-1-.5-2.1-.7-3.1.3 1.7.5 3.5.6 5.3 0-.4 0-.8.1-1.3-.4 3-.8 5.9-1.3 8.9-.3 2.8-.9 5.5-1.8 8.2-.2.6 3.4.8 3.8-.1.8-1.9 1.2-3.2 1.7-5.1.6-2.2 1.5-4.4 1.7-6.7.2-2.1-.1-4.2-.4-6.3-.3-2.1-.8-4.3-1.6-6.3-.7-1.6-1.5-3.2-2.3-4.8-.6-1.1-1.2-2.3-1.7-3.5-.6-1.1-.9-2.2-.9-3.4-.4-1.7-.5-3.3-.2-5 .1-.8.2-1.7.3-2.5.1-.9.2-1.7.3-2.6.2-2.1 0-4.1-.5-6.1-.2-.3-3.9.3-3.9.3z"/><path class="st2" d="M28.4 23.8c.6 2.1.8 4.3.7 6.5-.1 2.3-.2 4.6-.3 6.8-.1 2.1.1 4.1.7 6.1.3 1 .7 2 1.3 2.9-.3-.7-.5-1.5-.8-2.2.7 2.5 1.7 4.8 2.9 7.1.5 1 1 2 1.5 3.1 1.3 2.3 1.9 4.9 1.8 7.6.2 1.7.4 3.3.2 5-.3 4-2.4 7.5-4.1 11.1-.2.4.5-.2.4-.1 2.8-2.4 5.3-4.6 6.2-8.4.6-2.4 1.2-5.1.1-7.5-1-2.4-1.8-4.8-3-7.3-1.9-3.8-3.7-7.6-5.6-11.4.3.9.6 1.9.9 2.8l-1.2-5.7v2.4c-.1-2.3.1-4.5.6-6.8.4-1.6.6-3.3.4-5 0-1.2 0-2.3.1-3.5.1-2.3-.2-4.6-.7-6.8 0 .2-1 1.5-1 1.6-.2.2-1.1 1.4-1.1 1.7zM15.3 22.7c-.3 4.5-1.4 9.2-1 13.7.2 2.7.7 5.5 1.6 8.1.9 2.6 2 5.1 3.3 7.6.5 1 1.1 2 1.6 3 1.9 2.9 2.5 6 1.8 9.1 0 1.3-.2 2.5-.8 3.7-.7 2.1-2 3.9-3.8 5.4-.1.1.6 1.8.6 1.8s.7 1.7.6 1.8c2-2.1 3.6-4 4.5-6.9.9-2.9.8-5.9.1-8.8-1.5-6.3-5.3-11.7-7.7-17.6.2.7.5 1.5.7 2.2-.9-3.7-1.5-7.3-1.1-11.2.3-2.8.6-5.5.8-8.3 0-.5-.5-1.4-.6-1.8-.1-.4-.7-1.4-.6-1.8z"/></g><g id="XMLID_5613_"><path class="st2" d="M-66 118.4c4.9-3.3 9.9-6.6 14.8-9.9 5-3.5 10.2-6.7 15.7-9.5.5-.3-.8-.6-.8-.6-.5-.2-2.1-.8-2.6-.5-5.5 2.9-10.8 6.1-15.8 9.7-5 3.4-9.9 6.7-14.9 10 .1-.1 1.7.5 1.8.5.1-.1 1.6.4 1.8.3z"/><path class="st2" d="M-61.4 116.5c6.9-4.1 13.6-8.5 20.1-13.2 7.1-4.3 14.3-8.2 21.8-11.8.4-.2-1.1.3-.9.2-.8.3-1.7.6-2.5.9-7.4 3.1-14.6 6.8-21.4 11.2-6.7 4.7-13.6 9.3-20.5 13.8-.3.2 1.1-.3.9-.2.8-.2 1.8-.4 2.5-.9zM-69.5 114c5.8-4.5 11.9-8.7 18.1-12.6 7.8-4.7 15.8-9.2 24-13.3.1 0-1.7-3.3-2-3.2-8.2 4.1-16.2 8.6-24.1 13.3-6.3 3.9-12.3 8.1-18.1 12.6-.3.3 1.8 3.4 2.1 3.2zM-67.3 101.1c7.8-6.5 16.1-12.3 24.9-17.2 5.4-3.2 10.8-6.2 16.3-9.1.3-.2-1 .4-.9.3-.8.3-1.7.7-2.4 1.1-9.8 5-11.6 5.8-21.2 11.6-3.5 2.1-6.9 4.3-10.4 6.4-3.4 2.7-6.7 5.4-9.8 8.3.9-.7 2.6-.6 3.5-1.4z"/><path class="st2" d="M-62.6 111.6c3.1-2.3 6.3-4.5 9.4-6.8 8.1-1.7 16.2-3.3 24.4-4.8 5.2-2 7.1-10.3 9.4-13.9.3-.5.1-1.1-.5-1.1-.8-.1-2.1.7-2.7 1.2-6.4 4.3-13 8-20 11.1-6.9 3.1-13.6 6.7-19.9 10.8-.5.3-.4 2.2-.5 2.6 0 .1-.1 1.3.4.9zM-61.5 101.6c8-6.6 16.4-12.4 25.5-17.4 5.4-3.2 10.8-6.2 16.4-8.9-.1.1-1.7-.5-1.8-.6-.2-.1-1.6-.6-1.8-.5-3.6 1.9-7.2 3.8-10.8 5.6-5.3 2.9-10.6 6.1-15.7 9.4-8.7 5.5-3.9 2.2-15.3 11.4.1-.1 1.8.6 1.8.6s1.5.6 1.7.4z"/><path class="st2" d="M-74.5 110.2c12.8-10 26.4-18.6 40.9-25.7.2-.1.3-1.8.3-1.9 0 0 .1-1.8.2-1.9-7.3 3.8-14.4 7.6-21.4 11.8-3.5 2.2-6.9 4.4-10.4 6.6-3.3 2.2-6.3 4.6-9.1 7.3-.2.2-.3 1.7-.3 1.9 0 .2 0 1.8-.2 1.9zM-58.5 110.4c6.1-4.9 12.6-9.5 19.3-13.6 7.4-4.4 15.1-8.5 22.9-12.2.6-.3-.8-3.7-.8-3.7-7 4.2-14 8.3-21 12.4-7.1 4.2-14.1 8.6-20.8 13.3-.4.2 0 1.7 0 1.9-.1 0 .2 2.1.4 1.9z"/><path class="st2" d="M-72.8 106.4c7.9-6.5 16.3-12.3 25.2-17.2 5.2-3.1 10.6-6 16-8.8.7-.4 1.3-1.5 1.7-2.1-.1.2.8-1 .4-.8-3.6 1.9-7.3 3.7-10.9 5.6-5.3 3-10.6 6.2-15.7 9.4-8.5 5.3-4.2 2.3-14.5 11-.7.5-1.2 1.4-1.7 2.1.1-.2-.8 1-.5.8z"/><path class="st2" d="M-64.5 103.5c12-11.5 26-19.8 41.9-24.8.5-.2-.9-.6-.8-.5-.7-.2-1.9-.7-2.6-.5-3.9.8-7.8 1.6-11.6 2.4-2.1.7-3.9 2-5.4 3.9-8.1 6.2-17.9 14.3-25.1 19.6-.6.4 1.1.4.9.4.7-.1 2.2 0 2.7-.5zM-60.7 114.8c7.5-4.9 15-9.9 22.4-14.9 6.4-4 13-7.5 20-10.4.5-.3 1-1.9 1.2-2.4-.1.1.6-1.2.2-.9-9.4 5.3-18.8 10.8-28.1 16.4-4.8 2.8-9.4 5.9-13.9 9.2-.6.4-1.1 1.6-1.5 2.2.1-.3-.8 1.1-.3.8z"/><path class="st2" d="M-72.9 114c6.2-5.1 12.7-9.7 19.6-13.8 6.9-4.2 14-8.1 21.3-11.6.2-.1-1.3-3.5-1.2-3.6-7.3 3.5-14.4 7.4-21.3 11.6-6.9 4.1-13.5 8.6-19.6 13.8-.4.3 1.4 3.4 1.2 3.6z"/></g><g id="XMLID_5615_"><path class="st2" d="M12-2.6c.4 0 .6-3.7.5-3.7-.3 0-.5 3.7-.5 3.7zM21.1 6.6c.4 0-1.1-.4-.9-.4-.8-.2-1.8-.6-2.6-.6-.4 0 1.1.4.9.4.8.2 1.7.6 2.6.6z"/><path class="st2" d="M12.2 6.8c14-1.1 7.7-.1 21-3.2.8-.2 1.7-.6 2.5-.9-.2.1 1.2-.4.8-.4-6.9 1-13.9 2.1-20.8 3.1-1.2.2-2.3 1.3-3.5 1.4zM7.5 3c7.1-.9 14.1-2.3 21-3.9.2 0-1-1.7-.9-1.6-.1-.2-.9-1.5-1.2-1.4-7 1.3-13.9 2.5-20.9 3.7.1 0 1.2 3.4 2 3.2zM6.2-8.4c6.7-1.8 13.5-3.3 20.4-4.4 1.2-.2 2.3-1.3 3.5-1.5-6.9 1-13.7 2.5-20.4 4.4-1.2.3-2.3 1.2-3.5 1.5z"/><path class="st2" d="M14 .7C17.8-.5 21.6-1.7 25.4-3c-1.1.3-2.1.5-3.2.8 4.2-.3 8.4-.7 12.6-1 .2 0-1-1.7-.9-1.7-.1-.1-.9-1.6-1.2-1.5-3.5 1.4-6.9 2.7-10.3 4 1.1-.3 2.1-.5 3.2-.8-3.8 0-7.5.1-11.3.1-.6 0-.4 3.8-.3 3.8zM15.5-9.4c6.9-1.9 13.9-3.3 20.9-4.5-.4.1-1.5-.4-1.8-.5-.4-.1-1.4-.6-1.8-.5-7.1 1.1-14 2.6-20.9 4.5.4-.1 1.5.5 1.8.5.3.1 1.4.6 1.8.5z"/><path class="st2" d="M18.2-.5c7.1-1 14.2-2.3 21.2-3.8.4-.1-.3-3.8-.5-3.7-7 1.6-14.1 2.8-21.2 3.8-.2 0 .3 3.7.5 3.7zM4.1-4.6c6.7-1.5 13.5-2.9 20.3-4.1.4-.1 1-1.2 1.2-1.4 0 0 1-1.5 1.1-1.6-6.8 1.2-13.5 2.6-20.3 4.1-.4.1-1.1 1.2-1.2 1.5-.1 0-1 1.5-1.1 1.5z"/><path class="st2" d="M9.9-7.1c8 .1 15.9-1.1 23.5-3.6.4-.1-.5-.4-.6-.4-.8-.2-1.9-.3-2.7-.2-7.1.7-14.1 2-21 3.8-.9.2.5.4.8.4zM16.1 3.9c7.1-.6 14.2-1.7 21.1-3.5.4-.1 1-1.2 1.1-1.5l.9-1.7C32.3-1.1 25.2.1 18.1.7c-.3 0-1 1.4-1.1 1.5l-.9 1.7z"/><path class="st2" d="M4 3c6.8-.8 13.4-2 20.1-3.5-.1 0-1.1-3.6-1.2-3.6C16.2-2.5 9.5-1.3 2.8-.5 3-.6 3.8 3.1 4 3z"/></g><g id="XMLID_5617_"><path class="st2" d="M41.8-.9c.5 0 1.3-.4 1.8-.6.4-.1 1.3-.7 1.8-.7-.5 0-1.3.4-1.8.6-.4.1-1.3.7-1.8.7zM42.2-22.8c-2.4 4.7-4.9 9.4-7.3 14-.2.4.7 1.5.8 1.7 0-.1 1.1 1.7 1.2 1.5 2.4-4.7 4.9-9.4 7.3-14 .1-.3-.8-1.5-.9-1.7 0 .1-1.1-1.5-1.1-1.5zM50.5-25.4c-2.6 4.4-5.3 8.9-7.9 13.3-.3.5.6 1.4.9 1.7 0 0 1.3 1.7 1.5 1.2 1.8-4.2 3.5-8.4 5.3-12.7.3-.8.3-1.8.3-2.6-.1.2.1-1.3-.1-.9zM54.1-26.7c-2.2 4.6-4.3 9.2-6.5 13.9-.3.6.1 2 .3 2.7 0-.2.2 1.4.4.9 2.1-4.5 4.2-9.1 6.3-13.6.2-.4-.1-1.5-.2-1.9 0-.3-.4-1.8-.3-2zM40.4-27c-2.5 4.4-5.1 8.8-7.6 13.2-.2.4.8-.8.7-.6.5-.7 1.1-1.4 1.6-2.1 2.5-4.5 5.1-9 7.6-13.5-.6 1.1-1.7 1.9-2.3 3z"/><path class="st2" d="M45.2-29.2c-2.3 4.5-4.7 9-7 13.4-.1.2 2 .1 1.9.1.3 0 1.6 0 1.9-.4 2.3-4.5 4.7-9 7-13.4l-1.9.1c-.2-.1-1.8-.1-1.9.2zM52.5-18.6c-2.1 4.6-4.2 9.3-6.4 13.9-.2.5-.1.4.2.1.7-.6 1.3-1.7 1.7-2.5 2.2-4.8 4.3-9.7 6.5-14.5.2-.3-.7.9-.5.7-.5.7-1.1 1.5-1.5 2.3z"/></g><g id="XMLID_5619_"><path class="st3" d="M-44.5-6.5c6.1 2.3 12.3 3.8 18.8 4.3 6.3.9 12.5 1.5 18.9 1.8.7.1 1.8-.6 2.5-.8-.2.1 1.2-.4.8-.5-6.3-.5-12.6-1.1-18.9-2-6.4-.6-12.5-1.9-18.5-4.1-.3-.1-1.5.5-1.8.6-.2.1-1.5.8-1.8.7z"/><path class="st3" d="M-49.3-10.2c4.8 1.6 9.7 3 14.7 4.2 7.6 1.8 15.4 2.2 23.2 1.1.2 0-1-1.7-1-1.6-.3-.3-.8-1.3-1.3-1.3-6.8 0-13.6-.6-20.2-1.9-5.7-1.4-11.4-2.6-17.1-3.6-.5-.1.2.9.2.9.3.4.9 2 1.5 2.2zM-50.4-21.7c6.2.9 12.3 2.1 18.5 3.4 6.2 1 12.4 1.4 18.6 1.4.5 0 1.3-.5 1.8-.7.2-.1 1.4-.8 1.7-.8-6.3-.2-12.6-.7-18.9-1.6-6-1.3-12.1-2.4-18.2-3.2-.4-.1-1.5.6-1.7.7-.3.2-1.5.9-1.8.8z"/><path class="st3" d="M-42.7-12.5c5.3 1.6 10.7 2.3 16.2 2.1 6 .7 12 1.3 18 1.8 1 .1 3.1-3.2 1.4-3.4-6.1-.6-12.1-1.1-18.2-1.6-5.8 0-11.5-.9-17-2.7-.2-.1-.9 3.7-.4 3.8zM-41.2-22.6c6.1.9 12.2 2 18.2 3.4 6.4 1 12.8 1.5 19.2 1.4.4 0-1.1-.4-.8-.4-.8-.2-1.7-.6-2.6-.7-6.2-.2-12.4-.7-18.5-1.6-6.3-1.5-12.7-2.6-19.1-3.2 1.2.2 2.4.9 3.6 1.1z"/><path class="st3" d="M-45.7-11.9c4.7 1 9.5 1.7 14.2 2.2 4.6.6 9.3 1 13.9 1.1.2 0 .5-3.7.5-3.7-4.7-.1-9.3-.5-13.9-1.1-4.8-.5-9.5-1.2-14.2-2.2-.3-.1-.9 3.6-.5 3.7zM-37.1-2.9c4.7.8 9.4 1.4 14.1 2C-18.2-.2-13.4.2-8.5.3c-1.2-.1-2.4-.8-3.6-.9-9.3-.9-18.5-2-27.8-3.4-.6 0-.3.2-.1.4.7.5 2.1.6 2.9.7z"/><path class="st3" d="M-38.4-13.8c6.3 1.4 12.7 2.4 19.2 2.9 6.2.7 12.5 1.6 18.7 2.7.3 0 .5-3.7-.2-3.8-7-.1-13.9-.7-20.8-1.6-5.8-1.1-11.6-2.4-17.3-3.9.1 0-.2 3.6.4 3.7z"/><path class="st3" d="M-52.6-17.8c7.5 1.5 15 3.1 22.6 4.1 7.3 1 4.1.6 14.3.9.4 0 1.2-1 1.4-1.3 0 0 1.3-1.5 1.2-1.5-6.7-.4-13.3-1.2-19.8-2.3-5.9-.7-11.7-1.7-17.4-3-.2 0-1.2 1.4-1.2 1.5l-1.1 1.6z"/><path class="st3" d="M-47.7-20.4c2.9.9 5.9 1.8 8.8 2.7 1.6.2 3.1.4 4.7.5 2.9.4 5.8.6 8.8.7 5.2.2 10.3.8 15.4 1.9.8.1 1.9-.1 2.6-.4.1 0 1-.3.5-.5-6.9-5-14.2-6.7-22.2-5.1-5.2.6-10.3.5-15.4-.3-.8-.1-1.9 0-2.7.2 0-.1-1 .1-.5.3zM-40.5-9.4c5.7 1.5 11.5 2.5 17.4 3 6.9 1 13.8 1.9 20.7 2.8.4.1 1-1.4 1.1-1.6 0 .1.9-1.8.6-1.8-8.1 1-16 .4-23.7-1.8-4.8-1.1-9.5-2.4-14.1-3.8-.5-.1-1.8 3.3-2 3.2z"/><path class="st3" d="M-52.6-10.2c5.9 2 11.9 3.3 18 3.9 6.2.9 12.4 1.5 18.6 1.8 0 0-.6-1.8-.5-1.8 0-.1-.5-1.7-.7-1.8-6.2-.3-12.4-.9-18.6-1.8-6.2-.6-12.2-1.9-18-3.9.1 0 .6 1.7.6 1.8 0 .1.4 1.7.6 1.8z"/></g><g id="XMLID_5621_"><path class="st2" d="M-83.1-70.4c1.9 1.8 3.8 3.3 5.9 4.7 1.7 1.2 3.6 2.1 5.6 2.7 4.4 2 8.9 3.8 13.4 5.5.4.2 1.5-.4 1.8-.5.1 0 1.7-.8 1.7-.7-3-1.2-6.1-2.4-9.1-3.6-3.6-1-6.9-2.6-9.9-4.6-2.2-1.4-4-2.9-5.9-4.7-.1-.1-1.8.6-1.8.6s-1.6.7-1.7.6zM-73.6-77.5c3 1.2 6 2.3 9 3.5.3.1 1.6-.6 1.8-.7.1 0 1.6-.8 1.7-.8-3-1.2-6-2.3-9-3.5-.3-.1-1.6.6-1.7.7-.2.1-1.7.9-1.8.8zM-76.2-84.1c11.5 6 5.8 3.4 17.8 8.1.8.3 1.7.5 2.6.8-.2-.1 1.3.3.9.2-5.9-2.6-11.8-5.3-17.7-7.9-1.1-.7-2.6-.6-3.6-1.2z"/><path class="st2" d="M-77.8-69.3c3 1.2 6 2.4 9 3.5-.2-.1.8-3.6.5-3.7-3-1.2-6-2.4-9-3.5.3.1-.8 3.6-.5 3.7zM-59.8-56.8c-1.2 0-2.4-.9-3.7-.9 1.3 0 2.5.9 3.7.9zM-85.4-69.2c6 2.7 12 5.3 18.1 7.6-.1 0-.6-1.8-.6-1.8-.1-.2-.4-1.7-.7-1.8-6.1-2.3-12.2-4.9-18.1-7.6.2.1.6 1.7.6 1.8.2.1.5 1.7.7 1.8z"/><path class="st2" d="M-90-77.9c1.6 2.3 3.4 4.4 5.6 6.1 2.5 2 4.7 2.9 7.8 4.3 3 1.4 6 2.6 9 3.8 4.5 1.9 9.1 3.5 13.9 4.8l-.9-1.7c-.2-.4-.7-1.4-1.1-1.5-6.2-1.8-12.2-4-18.1-6.5-3.6-1.1-7-2.7-10.2-4.7-3.2-2-5.7-4.5-7.9-7.6-.2-.3.5 1 .4.8.5.7.9 1.5 1.5 2.2zM-84.1-80c.5 2.8 3.6 4.3 5.9 5.6L-68-69c6.8 3.3 14 5.7 21.5 7.2-.3-.1-1.1-1.3-1.2-1.5-.3-.3-.8-1.2-1.2-1.4-5.3-2.5-10.6-4.7-16.1-6.7-3.2-1.6-6.5-3.2-9.8-4.6-3.3-1.5-6.3-3.6-9.4-5.4l2.6 2.6c-.7-1.6-1.4-3.2-2-4.9v.1c-.2.4-.1.9-.2 1.3-.2.7-.4 1.6-.3 2.3z"/><path class="st2" d="M-79.5-81.2c.5 1.3 1.3 2.4 2.2 3.5 1.6 1.3 3.3 2.4 5.1 3.2 3.8 1.7 7.5 3.5 11.2 5.5 6 2.5 12.2 4.7 18.4 6.5.1 0-.1-1.9-.1-1.9 0-.2-.1-1.7-.4-1.8-6.3-1.8-12.4-3.9-18.4-6.5-3.7-1.9-7.4-3.8-11.2-5.5-1.8-.9-3.5-1.9-5.1-3.2-.9-1-1.7-2.2-2.2-3.5.6 1 0 2.7.5 3.7z"/><path class="st2" d="M-92.6-83.4c1.9 2.2 3.8 3.8 6.5 5.1 3.4 1.7 6.8 3.4 10.2 5 5.9 2.5 12 4.7 18.2 6.4.5.2 2-3.1 2.3-3-6.2-1.8-12.3-3.9-18.2-6.4-3.4-1.6-6.9-3.2-10.2-5-2.6-1.3-4.6-2.9-6.5-5.1.1.2-2.5 2.7-2.3 3z"/><path class="st2" d="M-88.9-87.4c.7 1.4 1.5 2.6 2.5 3.8 1.4 1.2 2.9 2.1 4.5 2.8 3.8 1.6 7.6 3.5 11.3 5.5 5.7 3.3 11.9 5.3 18.4 6.2.8.2 1.8.1 2.7.1-.3 0 1.4 0 .9-.2-6-2.7-12.1-4.9-18.4-6.6-3.2-1.9-6.6-3.6-10-5-2-.8-3.8-1.8-5.5-3.2-1-1.1-1.9-2.4-2.5-3.8-.1-.2-1.8.1-1.9.1-.1 0-2 .3-2 .3zM-80.6-75c2.1 2.6 4.7 4.4 7.6 6 9 4.9 18.6 8.2 28.2 11.3.5.2 1.9-3.2 2-3.2-9.7-3.1-19.3-6.4-28.2-11.3-2.9-1.6-5.5-3.4-7.6-6 .2.3-2.3 2.8-2 3.2z"/></g><g id="XMLID_5637_"><path class="st2" d="M145.1-120.1c-10.8 10.7-21.6 21.4-32.5 32.1-.4.3 1.1-.3.9-.2.7-.3 1.9-.6 2.4-1.1 10.9-10.7 21.8-21.5 32.6-32.3-.3.3-1.4.6-1.7.7-.4.2-1.3.4-1.7.8zM151.3-122.2c-10.9 10.8-21.8 21.5-32.7 32.2-.1.1 1.8.7 1.8.7.2.1 1.6.6 1.9.4 10.9-10.7 21.8-21.4 32.7-32.2l-1.8-.6c-.1 0-1.8-.6-1.9-.5z"/><path class="st2" d="M141.4-115.5c-10.8 10.7-21.6 21.4-32.5 32.1-.4.3-.3 1.4-.4 1.9l-.1 1.9c10.8-10.7 21.7-21.3 32.5-32.1.2-.2.2-1.6.3-1.9 0-.3 0-1.7.2-1.9zM135.5-93.1c-7.3 7.1-14.5 14.2-21.7 21.3l1.8.6c.2 0 1.6.6 1.9.3 7.2-7.1 14.5-14.2 21.7-21.3l-1.8-.5c-.2 0-1.7-.5-1.9-.4zM141.2-111.2c-10.8 10.7-21.6 21.3-32.5 32-.2.2.4 1.7.5 1.8 0-.1.7 1.8.8 1.7 10.8-10.6 21.7-21.3 32.5-32 .1-.1-.6-1.8-.6-1.8 0 .1-.7-1.7-.7-1.7zM155.5-107.5c-6.5 6.9-13.4 13.3-20.1 19.8-9.1 8.9-18.2 17.9-27.2 26.9.3-.3 1.5-.5 1.8-.6.4-.1 1.4-.3 1.8-.7 9-8.9 18-17.8 27.1-26.7 6.8-6.7 13.8-13.1 20.3-20-.2.3-1.5.5-1.8.6-.5.2-1.6.4-1.9.7z"/><path class="st2" d="M155.7-114.5c-.2-.4-.3-.8-.5-1.2-.1-.2-1.9-3.1-2-3.1-1.4 1.3-2.9 2.5-4.3 3.8-3.5 3.1-6.7 6.4-9.6 10-11.9 13.3-24.2 25.6-38.2 36.8-.4.3 2 3.2 2.1 3.1 5.3-7 11.1-13.4 17.5-19.4 5.4-5.4 11-10.6 16.7-15.7 3.1-2.6 6.2-5.2 9.3-7.7 2.7-2.7 5.6-5.3 8.5-7.7-.7-1-1.3-2.1-2-3.1.1.3.3.7.4 1 .5 1.2 1.6 2.1 2.1 3.2z"/><path class="st2" d="M160.1-113.4c.7-.8 1.1-1.6 1.2-2.7.1-1 .3-2 .3-3 0-.4 0-1-.1-1.3-.2-.4-.4-.7-.5-1.1-1.4 1.2-2.7 2.3-4.1 3.5-1.2 1.3-2.4 2.5-3.6 3.8-5.3 5-10.5 10.1-15.6 15.3-3.4 3.5-6.9 6.9-10.3 10.4-5.7 5.9-11.7 11.6-18 17-.4.3.2 1.6.3 1.9 0-.1.5 2 .8 1.7 8.9-7.1 17.3-14.8 25-23.2 6.4-6.5 12.7-13.1 19.1-19.6 2.1-2.3 4.1-4.6 6.1-7 .5.7.7 1.4.6 2.3.1-1.3.3-2.5.4-3.8-.1.8-.5 1.5-1.1 2-.2.3-.2 1.6-.2 1.9-.1.2-.1 1.7-.3 1.9z"/><path class="st2" d="M164.9-122.6c-1.9 1.7-3.8 3.6-5.6 5.5-4.1 4.4-8.4 8.6-12.9 12.6-10.9 10.6-21.7 21.3-32.5 32-.3.3 0 1.6.1 1.9 0-.1.3 1.9.4 1.8 10.8-10.7 21.6-21.4 32.5-32 3.7-3.6 7.4-7.1 11.1-10.7 2.3-2.6 4.8-5 7.3-7.3.2-.2-.2-1.8-.2-1.9.1-.1-.3-1.8-.2-1.9zM149.1-122.5c-8 6.8-3.5 3-15.2 14.6l-32.4 31.8c-.6.6-1.1 1.4-1.7 2.1.1-.2-.8 1.1-.5.8 7.5-7 14.9-14.2 22.1-21.4 8.4-8.4 16.9-16.7 25.5-24.9.6-.6 1.1-1.4 1.7-2.1-.1.1.8-1.2.5-.9zM160.4-123.1c.1-.8 0-1.5-.5-2.1-.1-.2-3.5.1-3.8.3-6.3 5-12.2 10.3-18 15.8-3.6 3.5-7.2 7-10.9 10.4-8.2 7.4-15.7 15.4-22.7 24-.3.4 1.1-.1.9-.1.7-.2 1.9-.4 2.5-1 5.9-5.1 11.6-10.4 17.1-15.9 5.4-5.3 10.8-10.5 16.3-15.8 3.5-3.6 6.9-7.2 10.4-10.9 2.6-2.4 5.3-4.8 8.2-6.9-1.3.1-2.5.2-3.8.3.5.6.7 1.3.5 2.1 0 0 3.8-.1 3.8-.2zM165.4-117.7c-17.1 16.8-34.3 33.5-51.2 50.5-.6.6-1 1.5-1.5 2.2.1-.2-.7 1.2-.3.9 12.7-12.5 25.3-25.1 38.2-37.5 1.9-1.8 3.8-3.6 5.6-5.4 2.3-2.6 4.6-5.1 7.1-7.5.9-.9 1.2-2.3 2.1-3.2z"/></g><g id="XMLID_5653_"><path class="st2" d="M121.7-17.9c0 .9-.6 1.5-1.8 1.7-18.2 5.9-36.5 11.7-54.8 17.6-.4.1-.4.2 0 .1 25.1-4.3 9.9-1 42.3-11.7 3.1-1 5.8-2.5 8.9-3.9-.5.2 8.3-2.4 8.9-5.1 0 .1-1.7.6-1.8.6 0 .1-1.7.5-1.7.7zM115.2-24.8c.4 6-4.7 8.3-15.3 7.1-13.1 6.5-27 10.4-41.7 11.6-.1 0 .8 3.6 1.5 3.5 10.2-1.3 20.1-4 29.5-8.1 8.9-2 17.1-5.5 24.7-10.5-.3.1-.6.3-.9.4 1.2.9 2.4 1 3.5.2.5-.3.7-.7.6-1.3.1-.6-.8-1.6-1.1-2.1.1.1-.8-1.1-.8-.8zM115.6-32.3c-.5.8-.9 1-1.8 1.5 1.1-.5 2.2-.9 3.3-1.4-4.9 1.4-9.8 2.8-14.7 4.4-13.2 4.8-26.7 8.6-40.5 11.6-.8.2-1.7.7-2.5 1 .2-.1-1.2.5-.8.4 9.6-1.6 19-3.9 28.3-6.9 4.8-1.5 9.5-3.1 14.2-4.8 4.5-1.5 9.3-2.8 13.7-4.6 1.6-.7 3.4-1.2 4.4-2.7-.2.3-1.5.6-1.7.7-.4.1-1.7.5-1.9.8z"/><path class="st2" d="M123.3-24.4c-.3-1.7-1-2.2-2.1-1.5-16.4 6.6-33.1 12-50.3 16.2-1.3.3-1.8.8-1.5 2.2.2 1.2.9 1.9 2.2 1.5 10.1-2.7 19.5-4.9 29.2-8.2 4.4-1.5 8.7-3 13-4.8 3-1.2 6-2.3 9-3.5.3 0 .5-.2.7-.3.4-.3.3-.2.5-.7.1-.3.2-3.7 0-3.8.1.1 0-.5-.1-.4-.7.7-.7 2.5-.6 3.3zM121.2-34.3c-1.9 2.5-6 2.9-8.5 3.6-6.8 2.1-13.5 4.3-20.2 6.7-9.2 2.9-18.4 5.3-27.9 7.2.3-.1 1.6.5 1.8.6.4.1 1.4.6 1.8.5 9.4-1.7 18.5-4 27.6-6.9 6.8-2.3 13.6-4.6 20.4-6.8 2.5-.8 6.8-1.3 8.6-3.8-.2.2-3.3-1.5-3.6-1.1z"/><path class="st2" d="M112.4-28.4c-1.6 2.5-7.4 3.4-8.8 3.9-6.8 2.4-13.7 4.8-20.6 7-9.2 2.9-18.6 5.3-28.1 7.3-.5.1-.1 3.7-.5 3.7 9.5-2 18.8-4.4 28.1-7.3 6.9-2.2 13.8-4.6 20.6-7 1.4-.5 7.2-1.4 8.8-3.9.6-1-.1-2.8.5-3.7zM116.3-16.9c-4 2.6-16.2 6.9-14.9 6.4C87.7-5.7 73.7-2.2 59.8 1.6c.3-.1 1.5.4 1.8.4.3.1 1.4.5 1.8.4C70.4.8 77.4-1 84.2-3c6.9-1.9 13.8-4 20.5-6.4 4.6-2 9.2-3.9 13.8-5.9.5-.2 1-.4 1.4-.8-.1.1-1.8-.5-1.8-.5-.2 0-1.6-.5-1.8-.3z"/><path class="st2" d="M127.2-28.8c-.4 1.3-1.3 1.6-2.4 2.1-3.6 1.5-7.3 2.9-10.9 4.4C99.7-17 85.2-12.8 70.4-9.8c-.4.1.1 3.8 0 3.8 10.8-2.5 21.6-4.9 32.1-8.4 7.7-2.6 15.3-5.3 22.8-8.6 1.2-.5 2.1-1 2.5-2.3.2-.7-.2-2-.3-2.6 0 .1-.2-1.3-.3-.9z"/><path class="st2" d="M113.6-29.3c-.1.4-.2.7-.3 1.1.7-.9 1.3-1.7 2-2.6C100.1-18 81-12.2 58.2-13.6c-.4.1-.9 1.3-1.1 1.6l-.8 1.7c10.1-3.2 20.3-6.3 30.5-9.2 8.2-2.9 16.5-5.3 25-7.4.6-.3 1.2-.7 1.6-1.2 1-1.1 2.3-2.6 2.4-4.2 0 .3-1.1 1.3-1.2 1.5-.1.2-1 1.1-1 1.5z"/><path class="st2" d="M118.4-31.7c.1.5-.2.8-.8 1-3.8 1.1-7.8 1.4-11.8 1.1-8 .4-15.9 1.3-23.8 2.6-7.6 3.2-14.4 7.8-20.5 13.7-.5.3.5.4.6.4.7.1 2 .2 2.7-.1 5.1-1.9 10.1-3.8 15.2-5.7 4.5-1.1 9-2.2 13.5-3.4 4.6-1.1 9.1-2.2 13.7-3.3 5.1.1 9.6-1.2 13.5-3.8 1.1-.8 1.5-1.4 1.6-2.8-.2-.1-3.9-.1-3.9.3zM125.7-20.9c-.1.2-.1.4-.2.7.6-1 1.3-2 1.9-3-2.9 2.7-17.8 7.5-14.5 6.3-4.4 1.5-8.9 3.1-13.3 4.6-9.4 3-19 5.7-28.6 7.9-.6.2-1.3 1-1.7 1.4-.2.2-.9 1-1 1 10.9-.5 21.5-2.7 31.7-6.6 8.3-2.2 16.1-5.7 23.4-10.3.7-.3 1.4-.5 2-1.1 1.1-1 2-2.6 2.4-4 .1-.4-.7.9-.6.7-.6.8-1.3 1.6-1.5 2.4zM112.2-24.5c-1.7 2.4-7.7 3.6-8.9 4-6.8 2.7-13.7 5-20.6 7.1-9.2 2.9-18.5 5.4-28 7.4 0 0 1 3.6 1.2 3.6 9.4-2.1 18.8-4.6 28-7.4 7-2.1 13.9-4.5 20.6-7.1 1.1-.4 7.2-1.7 8.9-4 .1-.2-.6-1.7-.6-1.8 0-.1-.7-1.7-.6-1.8z"/></g><g class="st4 st4" id="XMLID_5669_"><path class="st5" d="M-71.1 14.7c-.8-1.9-5.2-1.2-5.8-1.7-1.4-.6-4.2.6-6.8 1.8-2.6 1.2-5 2.3-5.1 1.8 0-.7-.7-2.5-1.6-4.2-.9-1.7-2-3.2-2.6-3.3-1.6-.2-3.4.1-5.2.9-1.8.8-3.7 2.2-5.1 3.9l-.3.3-.3.3-.5.5c-.1.2-.3.3-.4.5-.1.1-.1.2-.1.3 0 .2-.1.3-.2.4l-.1.1-.3.1c-.1 0-.1 0-.2.1-.4.2-.3 2.8-1.5 5.3-.4.8-1.1 1.6-1.6 2.3-.6.8-1.1 1.6-1.1 2.5-.2.8-.5 1.9-.8 3.3-.1.7-.3 1.4-.3 2.2-.1.5 0 .6 0 .9 0 .3.1.4.1.6.4 1.3 1.4 2.8 1.9 3.7 1 1.6 1.2 3.1.7 4-.4.9-1.3 1.4-2.6 1.6-1.1 0-1.8.2-2.5.4s-1.4.4-2.2.3c-.9 0-1.6.1-2.3.3-.8.2-1.6.4-2.6.7-2.5.2-4.7 1-6.9 2.5-.3.3-.5.5-.6.9-.1.3-.7.6-.9.9-1.9.9-4.3 1.3-5.6 3.2-.4.5-.5 1.5.1 1.7 2.7 1 5.2 1.3 7.6 1.7 2.2.3 3.4-.6 5.1-1.1 1.1-.4 2.5.1 3.6 1.1 1.2.9 2.2 2.4 3.2 3.8l.6.9c.1.2.2.3.4.5l.5.5c.6.6 1.3 1.3 2.1 1.8 1.5 1 3.4 1.7 5.4 1.1 2.3-.8 4.1-2.1 5.7-3.4 1.6-1.3 3.2-2.6 5.4-3.7 1.5-.8 2.9-1.6 4.1-2.6 1.2-1 2.3-2.2 3.1-3.6.4-.3 1.4-1.7 1.6-2.2.2-.8.4-1.7.6-2.7.2-1 .4-2.1.4-3.2 0-.6 0-1.2-.1-1.8 0-.1 0-.3-.1-.4l-.4-.3c-.3-.2-.6-.4-.8-.6l-.2-.1c2.3.6-20.4-5.5-10.8-2.9h.1c.1 0 .2.1.2.1.2.1.3.1.5.2 1.9.9 2.5 1.9 2.4 1.7 0-.1-.1-.1-.1-.2l-.1-.2c-1-2.5 1.3 3.4 1.1 2.8h.1l.2.1c.1 0 .2.1.3 0l.1-.3c0-.1-.1-.1-.1-.2l-.3-.3c0-.3-.1-.5-.1-.8 0-1.1.6-2 1.5-2.5 1.1-.6 2.5-.7 4.1-.5.6 0 2.9 2.1 3.7 2.8 1.3 1.2 3.1.1 4.1-1.1 1.6-2.2 3.4-3.8 5.5-5.2.8-.3 1.6.2 2.6 0 2.1-.8 3.3-2.7 4.9-3.9 3.3-1.5 4.5-2.6 5-3.2.5-.6.3-.8.4-.8.7-.2 1.4 1 2.3.9 1.2-.2 2.1-1.3 2.5-2.4.7-1.4 1.4-3 2.3-4.1.9-1.2 2-2 3.5-2.1-.3-.2-.5-.5-.7-.5-2.1.2-4.2-.2-6.1-.4-1.9-.2-3.8-.3-5.6.5-.3.3-.7.8-1.1.9-.8.3-1.5.6-2.1.9-.6.2-1.7-.4-2.7-1.2-.8-.9-1.7-2-2.1-2.9z"/><path class="st6" d="M-121.6 54.3c-1.7.5-3 1.4-5.1 1.1-2.3-.4-4.8-.7-7.6-1.7-.6-.2-.4-1.2-.1-1.7 1.3-1.8 3.7-2.3 5.6-3.2.2-.3.8-.6.9-.9.1-.3.3-.6.6-.9 2.2-1.5 4.5-2.2 6.9-2.4 1-.2 1.8-.4 2.6-.7.7-.2 1.4-.3 2.3-.3.9 0 1.6-.2 2.2-.3.7-.2 1.4-.4 2.5-.4 1.3-.2 2.1-.7 2.6-1.6.4-.9.3-2.3-.8-4-.5-.9-1.5-2.3-1.9-3.7l-.1-.2v-.8-.6c.1-.8.2-1.5.4-2.2.3-1.4.7-2.5.8-3.3.1-.9.6-1.7 1.1-2.5.6-.8 1.2-1.5 1.6-2.3h1.2c.4 0 .9 0 1.4.1.3 0 .6 0 .9.1.2 0 .3 0 .5.1h.4c-.1.1.2-.1.2-.1h.1c-.1 0 .1-.1-.1.1l-.1.1c-.1.2-.3.4-.6.7-.5.6-1.1 1.5-1.6 2.6-1.1 2.1-2 5.3-1.5 8.1.1.7.4 1.2.6 1.8.3.6.6 1.2.9 1.7.7 1.2 1.6 2.3 2.1 3.3.6 1 .9 1.9 1.1 2.5.1.3.1.6.2.7v.3s-.1.4-.4 1c-.3.6-.8 1.5-1.7 2.3-.8.8-2 1.6-3.3 2.2-1.3.6-2.8 1-4.4 1.4-1.5.3-3.2.7-4.7 1-.8.2-1.3.4-1.8.6-.5.2-.9.4-1.3.5-.8.4-1.5.7-1.9 1-.4.3-.7.5-.7.5z"/><path class="st7" d="M-105.5 23.5s.1-.2.3-.5c.2-.3.5-.7.9-1.2s.9-1 1.4-1.5c.1-.3 1.1-.9 1.6-1.3 1.2-.8 2.4-1.2 3.2-1.1.9.1 1.4.7 1.5 2 0 0-.3.9-.7 2.3-.4 1.4-.9 3.3-1.2 5.2-.1.5-.1.9-.2 1.4l-.1.7c.1.2 0 .5 0 .7 0 .9.1 1.7.2 2.4.2 1.4.6 2.4.5 2.7 0 0-.1.2-.1.4v.2l.1.2c.5.5.3 1.3.4 1.8 0 0-.6.8-1 2s-.2 2.6-.2 4.8c0 0 0 .3-.1.7-.1.5-.3 1.1-.6 1.8-.6 1.5-1.9 3.2-3.5 4.6-1.6 1.3-3.5 2.3-5.2 2.8-1.7.5-3.1.6-3.6.3 0 0-.5 0-1.2.1-.7 0-1.8.1-2.8.1-.3 0-.7 0-1-.1-.3 0-.6-.1-.9-.1-.6-.1-1.1-.2-1.5-.4 0 0-.7-.7-1.8-1.2-1-.5-2.3-.7-3.1.1 0 0-1.9.1-3.6.2-1.7.1-3.2 0-2-1.6 0 0 .3-.6.7-1.2.4-.7.9-1.4 1.4-1.9 0 0 .9-.6 2.4-1.2 1.5-.7 3.5-1.4 5.6-1.8l.8-.1.6-.1c.4 0 .9 0 1.3-.1.9 0 1.7 0 2.5.1 1.6.1 2.8.2 3.2.4h.8c.5 0 1.2-.1 2.1-.4.8-.3 1.8-.7 2.5-1.5.8-.7 1.4-1.8 1.5-3.1.1-1.3-.6-2.6-1.1-3.9-.3-.7-.5-1.3-.7-2-.2-.7-.3-1.2-.4-2 .4-2.7.9-6 1.1-9.7z"/><path class="st8" d="M-106 22.1s.2-.6.7-1.5c.2-.5.6-1 1-1.5l.1-.1v-.1c.5-.2.1-.1.2-.1l.1-.1.1-.3.2-.3.4-.4.5-.4.5-.4.9-.6c.6-.4 1.2-.6 1.9-.8 1.3-.3 2.5-.1 3.6.8 0 0 .7.2 1.6.6.9.4 2 1 3 1.7 1.9 1.5 3.4 3.4 2.4 5.1 0 0-.5.8-1.3 2.1s-2 3.1-3.1 4.9c-.5.9-1 1.9-1.3 2.8-.2.5-.3.9-.4 1.3-.1.2 0 .4 0 .6v.1s-.1.1-.1.2l-.2.4-.1.1c.4-.2.1-.1.2-.1v.1l.1.2c0 .1.1.3.1.4.1.3.2.5.3.7.1.1.1.2.2.2l-.2-.1c-.2-.2-.6-.4-.9-.7 0 0-.2-.1-.5-.3-.3-.2-.8-.4-1.3-.5 2.5.7-5.6-1.5 5.6 1.5.1 0 .1.1.2.2.2.2.5.4.8.7.2.8.3 2 .3 3.1 0 2.3-.5 4.2-2.1 4.8 0 0-.3.3-.8.9-.5.5-1.3 1.3-2.3 2.1-1 .8-2.1 1.6-3.1 2.2-1 .7-2 1.2-2.5 1.8 0 0-.9 0-2 .1-1 .1-2.2.2-2.7 1 0 0 .9-.6 2.1-1.6 1.2-1 2.7-2.6 3.8-4.6.5-1 1-2.1 1.2-3.1.2-1.1.2-2 .2-2.9-.1-1.6 0-2.9.7-3.2 0 0 .2-.4.4-1.3 0-.2.1-.5.1-.7v-.2c0-.1 0-.1-.1-.2s-.1-.2-.2-.4l-.1-.2c0-.1 0 0 0 0s0-.1-.1-.1c-.1-.3-.4-.9-.6-2.2-.1-.6-.2-1.4-.2-2.4v-1.6c.1-.6.2-1.3.3-2 0 0-.1-.5-.2-1.1-.2-.7-.4-1.6-.9-2.5-.4-.9-1.1-1.8-2.3-2.2-.2-.1-.4-.3-.7-.4-.1-.1-.2-.1-.4-.2-.3.2-.1 0-.2.1h-.5c-.6 0-1.5.1-2.4.6z"/><path class="st9" d="M-102.6 12.2c1.2-1.4 2.5-3 3.9-4.1.8-.5 2-.6 2.9-.9 1.1-.3 2.3.1 3 .4.8.5 1.7.8 2.4 1.1.8.3 1.5.5 2.3.8 1.5.5 3 1.1 4.2 2.3.4.3.6.4 1 .4l.5-.5c1-.2 2.1-.2 3-.6 1.5-.8 3.2.2 4.9 1.2.9.5 2 .7 3 1.1 1.7.6 2.6 3.6 4.3 3.8 2.8.4 4.2-2.4 6.8-2.4 1.6.1 2.9-.1 4.6.3 1.3.4 2.6.5 4 .7.3 0 1.5.8 1.6 1 .1.4-.6.5-.9.9-.8 1-2-.2-2.9-.5-1.1-.2-2 .5-3.1.8-.5 0-.9-.2-1.5-.5-.8-.5-1.4.3-2.2.8-.8.8-2.3.1-3.3.5-1.4.4-2.2 2.4-3.6 2 .6.2-.5.5-1.6.7-1.1.2-2.3.2-1.8-.1-.1.1-.5-.4-.7-.8 0-.3-.2-.6-.1-.8.6-1.1.2-2.7.2-4-.1-.1-2.9.3-4.2-.6-1-.8-1.8-1.7-2.9-1.7-.3.1-.3.8-.5.9-.3.1-2.1 1.7-4 3.2-1.9 1.5-4 2.9-4.4 2.8-.6-.3-1.3-1.1-1.2-1.8 0-1.8-1.1-2.6-1.6-4.1-.1-.4.1-.9 0-1.3-.4-1.1-1.1-2.3-1.9-2.5-1.3-.6-3.2-.5-4.7.1 0 0-1.2.2-2.5.5-1.6.4-3 .9-3 .9z"/><path class="st10" d="M-102.7 62.3s1.3-1.1 3.3-2.5c2-1.4 4.7-3.2 8-5 0 0 1.2-.9 2.3-2.1 1.1-1.2 2.1-2.6 2.2-3.2l.6-.6c.3-.3.5-.7.5-.7s.2-.5.4-1.2c.2-.8.4-1.9.5-3.4 0-.7 0-1.5-.1-2.2 0-.4-.1-.8-.1-1.1-.3-.3-.7-.5-1-.7l-.3-.2-.1-.1c9.6 2.6-13.1-3.5-10.7-2.9h.2c.1 0 .2.1.3.1.2.1.3.1.4.2 0 0 .1.1.3.1.2.1.4.2.7.4.5.3.9.6 1 .7 0 0 .3.2.4.4l.1.1s-.1-.1-.1-.2-.1-.1-.1-.2v-.1c-.2-.6 2.1 5.3 1.1 2.8h.1c.1 0 .2.1.3.1"/><path class="st11" d="M-78.4 9.7c.8.2 4.7 1.5 6 2.3 1.9 1.3 3.8 2.6 5.9 3.9.2.1.4 0 .5-.1.7-1.3 2.1-1 2.8-1.8.3-.3.5-.9 1-1 2.4-.4 4.9.1 7.7.9 1.2.4 2.4 1.1 3.7 1.6.3.2.7.3.8.6.2.2-.3.3-.5.5-.3 0-.7-.3-1.1-.3-.8-.2-1.6.1-2.4-.2-.8-.2-1.6-.6-2.4-.8-.5-.1-1 0-1.4.1-1.8.2-3.4.5-5 1.1-.3 1.1-1.6.8-2.3.9-.2 0-.5-.1-.8-.2-.7.1-1.3.7-2 .1-1.3-1.3-2.6-2.4-4-3.3-1.1-.7-5.4-2.4-6.4-2.6-1.4-.4-2.6.5-4 .4 0 .1.7-2.4 3.9-2.1z"/></g><g class="st4 st4" id="XMLID_5685_"><path class="st5" d="M-13.7-62.6c.3-1-.3-2-.8-2.9-.5-.9-.9-1.9-.8-2.2.1-.4 0-.7-.1-1.2 0-.2-.1-.3-.2-.5l-.1-.2-.2-.4c-.1-.3-.3-.8-.6-1.2-.2-.4-.5-.9-.8-1.5-.2-.3-.3-.6-.5-.8-.2-.3-.6-.8-.8-1.1l-.1-.1-.1-.1-.2-.2-.1-.1c-.3-.3-.5-.6-.8-.8l-1.8-1.5c-1.3-.9-2.6-1.5-3.9-2-1.3-.5-2.5-.7-3.7-.8-2.3-.2-4.4 0-6.2.4l-.7.2c-.3.1-.5.1-.8.2-.3.1-.4.1-.5.2l-.2.1h-.1l-.2.1c-.7.3-1.4.6-1.9.9-1.1.6-2 1.1-2.6 1.5-1.3.8-1.8 1.2-2 1-.2-.6-1.9-1.9-3.2-3.3-.3-.3-.6-.7-.9-1-.2-.3-.4-.7-.6-1-.3-.6-.5-1-.6-1-.3-.3-.5-.2-1 .2-.4.4-1 1.1-1.8 2-.8.7-1.2 1.2-1.3.9-.1 0-.4.5-.9 1-.3.3-.6.6-1 .9-.3.2-.7.5-1.2.6-1 .2-1.6-.6-2.7-.6-.1 0-.2-.1-.3-.1-.7-.3-1.8-.9-3.1-1.7-1.3-.8-2.9-1.7-5.1-2.6-1.1-.4-2.4-.8-4-1-1.5-.2-3.7.2-5 1.1-.3.2-.6.4-1 .6-.1.1-.2.2-.2.3l-.3.6c-.2.4-.3.8-.3 1.2-.2 1.3-.3 2.6-.8 3.5-.4 1-1.3 1.5-2 1.6-1.6.2-3-.8-4.5-2-1.2-1-2.1-1.6-3.2-2.1-1-.5-2.1-1-3.3-1.8-3-1.8-5.3-2.7-8.2-4.6-2.5-2.1-5-3.9-8-5.6-.4-.2-.9-.3-1.3-.3s-1.1-.5-1.6-.7c-2.2-1.8-3.6-4.3-6-5.6-.7-.4-1.9-.5-2 .1-.6 3 .1 5.9 1.2 8.8 1.1 2.7 3.7 4.4 6.3 6.5 3.5 2.8 4.6 7.2 5 11.2.1 3-.7 7.1 2.8 8.8.5.2 1.1.4 1.6.6.8.3 1.7.6 2.5 1 1.8.7 3.6 1.3 5.3 1.9 1.8.7 3.5 1.2 5.3 2 .9.4 1.7.6 2.6.9.9.3 1.8.7 2.7 1 2.5.9 4.8 1.4 7.3 1.4 1.2 0 2.5-.2 3.7-.4 1.2-.3 2.2-.6 3.2-1 .3-.1 1-.3 1.7-.6s1.6-.7 2-1.1c.6-.6 1.3-1.2 1.9-1.9l.5-.6.3-.3.1-.1s.1-.1 0-.1h-.2l-1.9-.3-1-.1-.5-.1h-.1c-11.8-30.1-3.3-8.4-5.9-15.1v.8c0 .6-.2 1.4-.6 2.5-.1.3-.2.6-.3.8-.1.3-.3.5-.4.8-.3.7-.6 1.3-1 1.8-.4.7-.8 1.4-1.3 2l-1.5 2.1c-.3.4-.5.7-.8 1.1l-.4.5-.5.6c-.5.6-.3.3-.3.3l.1-.1c.2-.2.4-.2.7-.4.5.1 1.1.6 1.7 1.2 2.6 2.7 5.1 4.7 8.9 5.6 3.7.8 7.2.9 10.7.7 3.5-.2 6.8-.7 10.3-1.2 2-.3 3.9-.8 5.8-1.3.9-.3 1.9-.6 2.8-.9.8-.3 1.6-.5 2.5-.8.5-.2 1.9-.2 2.9.1 1.1.2 1.8.8 2.1 1.1l.3.3.1.1-.1-.2v-.1l-1.1-3.2h.5H-32.7V-59.7c-.1-.6 0-2 .2-3 .2-.7.4-1.2.6-1.6l.1-.2.1-.1.1-.1s-.3-.1-.2-.1v.2c-.1.1 0 .3-.2.3-.1.1-.3.1-.4.1-.3.2-.6.4-1.1.7l-.8.4-1.1.5-.3.2-.2.1H-35.6l.1.1c.1.2.3.4.4.6.3.5.6.9.9 1.4.3.5.7 1 1.1 1.5.9 1.6 1.3 3.3 2.6 4.9 1.7 1.7 3.7 2.7 5.6 3.4 1.9.7 3.9 1.1 5.6 1.5 3 1 5 1.4 6.5 1.6 1.5.2 2.3.2 2.9.2 1.1-.1.9-.4 1.1-.3.9.4.8 1.8 1.8 2.5 1.4.8 3 .8 4.3.6 1.8-.2 3.9-.1 5.7.8 1.8.8 3.2 2.7 3.1 4.8.2-.3.6-.5.5-.8-.1-3.1-1.3-6.4-3.3-9-2-2.7-4.7-4.8-8.1-6-.7-.1-1.7-.1-2.4-.3-1.3-.5-2.5-.7-3.7-1-1-.3-2-1.6-2.6-3.1-.3-.7-.5-1.5-.5-2.1.1-.6.1-1.2.3-1.6z"/><path class="st6" d="M-112.5-81.1c-2.5-2-5.2-3.7-6.3-6.4-1.1-2.9-1.8-5.9-1.2-8.8.1-.6 1.4-.4 2-.1 2.4 1.3 3.9 3.8 6 5.6.4.2 1.2.7 1.6.7.4 0 .8.1 1.3.3 3 1.8 5.4 3.5 8 5.6 2.9 1.9 5.2 2.8 8.2 4.6 1.1.8 2.2 1.2 3.2 1.7s2 1.1 3.2 2.1c1.5 1.2 3 2.1 4.5 1.9.8-.1 1.6-.6 2-1.6.4-1 .5-2.2.8-3.5.1-.3.2-.7.3-1.1l.3-.6.1-.1v-.1l.2-.1c.3-.2.6-.4 1-.6 1.5-.8 3.5-1.1 5.1-1 1.6.2 2.9.6 4 1 2.2.9 3.7 1.8 5.1 2.6 1.3.8 2.4 1.4 3.1 1.7.1 0 .1 0 .2.1 1.1 0 1.7.8 2.8.6v.8c0 .3 0 .6.1 1.1.1.4.2.9.4 1.5-2.1.3-4.3 0-6.6-.8-1.5-.7-3.1-1.5-4.8-2.1-.8-.3-1.7-.6-2.6-.7-.9-.2-1.8-.2-2.6-.1s-1.6.5-1.9 1.2l-.3.5-.3.6c-.2.4-.3.9-.5 1.4-.5 2-.6 4.1-1.6 5.8l-.3.3c-.2.2-.6.4-1.1.6-1 .4-2.7.4-4.5 0-.9-.2-1.8-.6-2.9-1-.5-.2-1-.4-1.6-.6-.5-.2-1.1-.5-1.6-.7-2.2-1-4.6-2.2-6.9-3.4-4.1-2.1-8.1-4.2-11-5.9-2.9-1.8-4.9-3-4.9-3z"/><path class="st7" d="M-58.2-74.5h1.4c.8 0 1.7-.1 2.6-.1.9-.1 1.6 0 2.1.3.5.4.8 1.1.5 2.4 0 0-.1.2-.3.5-.2.3-.5.8-1 1.3-.9 1.1-2.3 2.4-4.2 3.5-1.9 1.1-4.3 1.9-6.8 1.9s-5-.8-6.7-2.2c-.2-.1-.3-.2-.4-.4 0 0-.8-.8-1.7-1.5-.4-.3-.9-.7-1.3-.9-.2-.1-.3-.1-.5-.2h-.1l.1-.2s.3-.8.6-1.7c.1-.6.2-.9.2-1.4v-.6c-1-2.7 1.4 3.6 1.2 3l.2.1c.1 0 .3.1.4.1h.1s.1 0 0 0l-.2.1c-.1.1-.3.2-.4.3-.5.4-1 .9-1.4 1.5-.8 1.1-1.3 2.3-2.2 3.6 0 0-.2.3-.7.8-.5.5-1.4 1.1-2.6 1.4-1.2.3-2.6.4-4.1.2-1.5-.1-3.1-.6-4.8-1-3.3-1.1-6.9-2.7-9.6-4-.3-.2-.6-.3-1-.5-.2-.1-.4-.2-.7-.4-.4-.2-.8-.4-1.1-.7-.6-.4-1-.8-1-1.1 0 0-1.8-1.2-3.7-2.8-1.9-1.5-3.9-3.4-4.5-4.5 0 0-.2-1.2-.9-2.6-.7-1.4-1.7-3-3.4-3.8 0 0-1.9-2.3-3.1-4.4-1.2-2-1.7-3.7.8-2.4 0 0 3.3 1 4.8 1.7 0 0 4.9 3.5 10.1 7 2.6 1.8 5.2 3.5 7.2 5 1.9 1.3 3.3 2.4 3.5 2.9 0 0 1 .8 2.8 1.9.9.6 2 1.2 3.2 1.9 1.2.6 2.8 1.3 4.4.9.8-.2 1.5-.7 2-1.4s.7-1.6 1-2.5c.3-.9.6-1.8 1.1-2.5.5-.7 1.4-1.3 2.4-1.4 1-.1 2 0 2.9.3.9.3 1.8.6 2.7 1 1.7.7 3.3 1.5 4.9 2.1 2 .5 3.7.3 5.2-.5z"/><path class="st8" d="M-57.2-75.7s1.5-.6 3.1-1.2c.7-.2 1.4-.5 1.9-.3.6.1 1.1.6 1.6 1.6 0 0 1.5 1.3 3.5 2.4.5.3 1 .6 1.6.8.6.3 1.1.5 1.6.8.9.6 1.4 1.4 1 2.5 0 0-.1.2-.3.7-.2.4-.5 1.1-1 1.8-.9 1.5-2.7 3.6-5.6 5.3-1.4.9-3.1 1.6-5 2.1s-4 .8-6.2.6c-2.2-.1-4.5-.5-6.7-1.4-2.2-.9-4.4-2.2-6.2-3.9-.3-.3-.6-.5-.9-.7 0 0-.2-.2-.7-.3-.5-.1-1.4-.2-2.2.4h-.1s0 .1.1-.1c.3-.4.6-.9 1-1.5 1.4-2.2 2.7-5 3-6.6 0-.2.1-.4.1-.6v-.2-.1-.3c-.9-2.2 7.7 19.5 4 10.3h.1l.8.1 1.6.3h.1l-.1.1-.1.1-.3.3c-.2.2-.4.3-.6.5-.8.6-1.4 1-2 1.3-.6.3-1.1.4-1.6.3l-1.5.5c-.5.2-1 .3-1.7.5s-1.6.4-2.6.4c-2 .1-4.1-.4-5.8-.9-.9-.3-1.7-.6-2.6-.9-.8-.3-1.5-.5-2.2-.6 0 0-.3-.2-.7-.6-.4-.4-1-.9-1.6-1.4-1.3-1-2.9-2.1-4.4-2.3 0 0 .4.1 1.2.4.8.3 1.9.6 3.2 1l2.1.6c.7.1 1.5.3 2.3.5 1.6.4 3.2.5 4.9.4.9-.1 1.7-.2 2.6-.6.8-.3 1.6-.8 2.1-1.4 1.1-1.2 1.6-2.4 2.4-3.5.4-.6.8-1.1 1.3-1.6.3-.2.5-.4.7-.6-.2-.1-.5-.2-.7-.3-.5-1.2 1.1 2.8-1.1-2.8V-73.5c0 .1 0 .6-.1.8 0 0 0 .1-.1.2 0 .1-.1.6-.2 1-.1.2-.2.4-.3.8-.1.2-.1.3-.2.5l-.1.1v.1l.1.1c.4.4 1.8 1.4 4.1 2.6 1.7 1.1 3.8 2 6 2.2 2.2.3 4.6-.1 6.8-1.2 0 0 .3-.4.7-1 .4-.6.7-1.5.9-2.5.7-1.8.4-4-1-5.9z"/><path class="st9" d="M-51.9-81.3c.6-.8 1-2 1.2-2.8.1-.1.1-.2.1-.2s.1 0 .1-.1.1.4.3.7c.1.3.2.5.3.7.1.2.4.3.7.4.8.1 2-.2 3.8-.7 1.8-.4 4.1-1 6.6-1.2h.4l.7-.1c.4 0 .9-.1 1.2 0 .7 0 1.3.1 1.9.2 1.3.2 2.4.5 3.5 1 1.6.5 2.6.8 4.1 1.3.2 0 .8.1 1.4.2.6.1 1.2.3 1.5.3 1.3.6 2.7 1.3 3.9 2.3 1.3 1 2.4 2.2 3.4 3.4l.1.2.4.6.4.6.3.4c.4.6.6 1.1.9 1.6.3.5.5 1 .6 1.4.2.4.4.9.4.9.2.2.2.3.3.4.2.6-.3 1.8-.4 3.2-.1.9.3 1.7.7 2.6.2.4.2.8.3 1.3.1.5.2 1.1.2 1.7.2 1.1.4 2.3 1.4 3 1.7 1.2 3.6 1.6 5.8 2 2.1.4 4.4 1 6.4 2.6 2.3 2 4.3 3.9 5.6 6.6.7 2.1 1.5 4.4 1.3 6.7 0 .3-.2.7-.5 1.1-.2.4-.6.7-.7.7-.4-.1-.4-1.1-.8-1.6-.3-.3-.4-.6-.4-1-.1-.3-.1-.6 0-1 .1-.7.2-1.4.1-2.1-.4-1.7-2.2-2.8-3.6-4-.5-.6-.8-1.2-1.3-2-.5-1.2-2.2-1.5-3.6-1.9-.9-.1-1.7-.7-2.6-1.2-.8-.5-1.7-1.1-2.5-1.3-2.3-.8-4.8.1-6.4-1.4.7.7-1.1 0-2.6-.9s-2.7-2.1-1.9-1.7c-.2 0-.2-.7 0-1.1.2-.2.4-.6.6-.6 1.5-.1 2.3-1.5 3.3-2.4 0-.1-.6-.6-1.2-1.3-.6-.7-.9-1.7-.8-2.4.3-1 .8-1.8.9-2.6v-.5c-.1-.1-.3-.1-.5-.1-.1 0-.2 0-.3-.1-.1-.1-.2-.3-.3-.4-.1-.2-.4-.7-1-1.6-.2-.2-.3-.5-.5-.7-.2-.3-.5-.6-.7-.9-.2-.2-.4-.4-.5-.6l-.2-.1h-.1s-.3-.4-.2-.2l-.1-.1-.3-.2c-.2-.2-.4-.3-.6-.5-1.5-1.2-3.5-2.2-5.4-2.7-1.9-.5-3.8-.5-5.4-.3-.8.1-1.6.3-2.3.5-.7.2-1.4.4-2.2.8-.2.1-.3.1-.4.2l-.3.2c.1 0-.2.1-.2 0h-.1l-.1.1-.2.1-.4.2c-.5.3-.9.6-1.3.8-1.6 1.1-2.4 1.8-2.8 1.9-1 .1-2.3-.3-2.4-1-.3-.9-.9-1.4-1.4-1.8-.6-.4-1.1-.8-1.5-1.5-.2-.4-.2-.9-.4-1.2-.6-.9-1.2-2.1-1.5-2.3-.5-.6-.8-.8-1.2-.4h-.2c-.1 0-.3 0-.4-.1-.1.1-.4 0-.4 0z"/><path class="st10" d="M-100.6-59.5s.7.2 1.9.6c1.2.4 3 1 5 1.9 2 .7 4.3 1.9 6.8 2.6 2.5 1 5 1.7 7.8 2.2 0 0 .6.1 1.5.1s2.2-.1 3.5-.4c2.6-.5 4.3-1.3 5-1.8l1.2-.4c.3-.1.6-.3.9-.4l.4-.2s.2-.2.5-.4c.3-.3.9-.7 1.5-1.4l.5-.5.1-.4c.1-.1-.2-.1-.3-.1l-.5-.1-2.1-.3-.5-.1h-.4c1.3 3.3-11.3-28.7-6-15.2v.3c0 .1 0 .7-.1 1 0 .1 0 .2-.1.4 0 .1-.1.3-.1.4-.1.3-.2.5-.3.9-.1.4-.3.7-.4 1.1-.1.2-.2.3-.3.5l-.3.6c-.4.9-.9 1.5-1.4 2.5-.6.9-1.1 1.6-1.8 2.6-.3.5-.7.9-1 1.3-.3.4-.6.8-1 1.3-.5.7-.3.4-.3.4l.1-.1c.2-.1.4-.2.6-.4 0 0 .2 0 .5.2s.8.5 1.3.9c.8.8 1.4 1.4 1.6 1.7 0 0 .3.3.8.7.6.4 1.4 1.1 2.4 1.6 2.2 1.2 5.5 2.4 9.2 2.2"/><path class="st11" d="M-12.5-70c-.1.2-.4 1-.4 1.9-.1.9.1 2 .1 2.7 0 .5.1 1 .2 1.6.2.6.5 1.2.9 1.8.7 1.2 1.5 2.5 2.4 3.9.2.2.6.4.8.3 1-.2 1.9 0 2.9.3s2.1.8 3.1.9c.9.2 1.8 0 2.6.5 2.2 1.3 4.2 3 5.8 5.1 1.6 2.1 2.7 4.6 3.1 7.1.3 2.1-.4 4.1-1.2 5.8-.3.3-.5.8-.9.8-.3.1-.2-.6-.3-.9.1-.4.4-.8.5-1.5.1-.6 0-1.2-.1-1.9-.2-.6-.3-1.2-.3-1.8-.1-.6-.2-1.3-.3-1.9-.1-.6-.3-1.3-.6-1.9-.3-.4-.5-.8-.8-1.1-.3-.3-.6-.7-.9-1-2.4-2.5-5.2-4.2-8.1-5.3-.8.2-1.5 0-2.2-.3-.7-.3-1.4-.7-2-1-.4-.2-.7-.5-1-.8-1.1-.5-2.3-.6-2.8-1.5-.4-1-.8-2-1.1-2.9-.2-.5-.3-.9-.4-1.3-.1-.4-.2-.8-.2-1.2-.1-.6-.5-1.9-.6-3.1-.1-1.2.2-2.2.3-2.6v-.3c0-.2 0-.3-.1-.6l-.2-.5-.3-.7c-.2-.5-.5-1.1-.9-1.7-.2-.3-.4-.6-.6-1-.2-.3-.5-.8-.9-1.3l-.2-.3-.1-.1-.1-.2-.3-.4-.1-.1-.1-.1-.2-.3-.5-.5c-1.3-1.3-2.7-2.5-4.1-3.4-.1-.1.1-.1.8.1.3.1.8.2 1.3.5.6.3 1.2.6 2 1.2 1.5 1 3.4 3 4.6 5.1.1.3.3.5.4.8.1.2.2.5.4.7.2.4.5 1 .6 1.3.1.2.1.2.1.3v.2c.1.3.1.4 0 .6z"/></g><g class="st4 st4" id="XMLID_5701_"><path class="st5" d="M-39.1 96.3c-1.8-1.1-2.7-.1-3.3-.3-.9-.2-.9 1-.9 2.1 0 1.2 0 2.4-.3 2.1-.4-.5-1.9-1.8-3.2-2.9-1.3-1.2-2.5-2.3-2.7-2.3-.9-.2-.7.9.2 2.9.3.9.7 1.4.5 1.3 0 0 .3.5.6 1.2.4.7.8 1.5 1 2.1.2.8-.3.8 0 1.7.3 1.4-.5 3.5-.8 4.4-.4 1.9-1 2.4-2.2 2-1-.5-1.3.3-2.1.3-.8.1-1.2.5-2 .5-.8-.3-1.5-.6-2.3-.3-.1.1-.2.2-.2.5 0 .2-.2.2-.3.3-.7-.3-1.4-1.6-1.9-1.2-.1.1-.3.7-.2 1.2.5 2.7 1.3 4.7 2.2 6.5.4.8.9 1.2 1.3 1.4.4.2.9.2 1.4.3.7.1 1.4 1 2.2 2.2.8 1.2 1.6 2.7 2.4 4.1 1.2 2.3 2.7 6 4 5.4 1.4-.9 2-3.2 4-2.7 1.4.4 2.7.9 3.9.7.2.1 1 .2 1.3.1 1.1-.9 2.9-.9 2.4-3.4.8-1.4 2-1 1.9-3.1-.1-1.3-.2-2.7-.3-3.9-.1-1.2 0-2.3.4-3 .4-.8.9-1.4 1.8-1.7.3-.1 2.6.8 3.4 1.1 1.4.5 1.4-.8 1.1-2-.8-2-1.2-3.6-1.3-5.1.1-.4.9-.3 1.1-.6.3-1.1-.6-2.6-.7-3.7.6-3.4-.8-3.6-.5-3.6.1-.3 1.4.3 1.8.1.4-.4 0-1.2-.6-1.9-1.4-1.9-3.1-3.8-1.5-4.3-.3 0-.7-.2-.7-.1-1.1.4-2.4.6-3.6.7-1.1.2-2 .4-2.3 1.1.1.2.3.5.2.7-.2.3-.2.6-.2.9-.1.2-1 .1-2-.3-1.1-.5-2.3-1.1-3-1.5z"/><path class="st6" d="M-54.4 119.8c-.5-.1-.9-.2-1.4-.3-.4-.2-.9-.6-1.3-1.4-.9-1.7-1.7-3.7-2.2-6.5-.1-.5.1-1.1.2-1.2.5-.3 1.2.9 1.9 1.2.1-.1.3-.1.3-.3 0-.2.1-.4.2-.5.7-.2 1.4 0 2.3.3.8 0 1.2-.4 2-.5.8 0 1.1-.7 2.1-.3 1.2.4 1.8-.1 2.2-2 .2-.9 1.1-3 .8-4.4-.3-.9.2-.9 0-1.7 0 0 .7.7 2.1 1.8 0 0 .1.7.2 1.8s.2 2.5.2 4-.1 3-.3 4.2c-.1 1.1-.3 1.9-.3 1.9s-.1.1-.4.2l-1 .5c-.4.2-.9.5-1.4.7-.5.2-1.1.5-1.7.7-1.1.5-2.3.8-3.2 1.2-.7.4-1.3.6-1.3.6z"/><path class="st7" d="M-45.9 104.3s-.2-1.3-.1-2.1.5-1 2.1 1.2c0 0 1.7 2.9 3.1 6 1.4 3.1 2.3 6.6 1.5 7.3 0 0-1.1.9-1.6 1.5 0 0-.6-.3-1.2-.4-.6-.1-1.3.1-1.7 1 0 0-.2.4-.6.9-.4.5-1 1.1-1.6 1.7-1.3 1.1-2.8 2.1-3.3 1.2 0 0-.7 0-1.5-.3-.8-.2-1.7-.5-2.2-1.2 0 0-.5-.9-1-1.7-.5-.8-1.2-1.5-1.6-1.2l-.5-.5c-.3-.3-.7-.8-1.1-1.3-.7-1-1.1-2.1-.5-2.5 0 0 .2-.2.4-.5s.4-.6.6-.7c0 0 .4 0 .9.1s1.3.2 2.1.2c1.6.2 3.2.2 3.6.8 0 0 .1 0 .3.1.2 0 .5.1.9.1.7 0 1.7-.2 2.5-.7.8-.6 1.6-1.5 1.8-2.9.3-1.5 0-3.5-1.3-6.1z"/><path class="st8" d="M-46.6 103.1s-.6-1.4-.8-2.5c-.2-1-.1-1.7 1.5-.2 0 0 .3.2.8.4.5.3 1.2.7 1.9 1.1 1.5.9 3.3 2.1 4.1 3.5 0 0 .4.7.9 1.9s1.2 2.8 1.6 4.5c1 3.4 1.2 7.5-.4 8.9 0 0-.4.2-.1 2.4 0 0-.2.8-.8 1.3-.5.5-1.4.8-2.4-.2 0 0-1-.5-2.2-.9-1.1-.4-2.3-.7-2.7-.1 0 0-.4-.4-.9-.7-.5-.3-.9-.4-1.1.2 0 0 .3-.4.7-1 .4-.6 1-1.4 1.6-2.1 1.2-1.4 2.4-2.7 3.4-1.7 0 0 1 .3 1.7-.6.7-.9 1-3.1-.8-7.7 0 0-.9-1.5-2.2-3.1-1.2-1.5-2.8-3.2-3.8-3.4z"/><path class="st9" d="M-50.1 96.5c-.4-.9-1-1.9-1.4-2.7-.1-.3.1-.3.1-.5s.5.1.8.3c.9.7 1.6.9 2.3 1.1.7.2 1.5.5 2.7 1.3.3.2.5.2.6.2-.1-.1-.1-.3-.2-.4.2-.3.5-.4.5-.7-.1-.7 1.1-.2 2.4.2.7.2 1.2.2 1.9.3 1.1.1 3.8 1.9 4.5 1.7 1.4-.2 0-2 1.1-2.4.8-.2 1.4-.4 2.5-.5 1 0 1.8-.1 2.7-.2.2 0 1.4.2 1.6.3.3.2 0 .3.1.6.3.6-1.2.2-1.9.2-.8 0-.6.6-1 .9-.3.1-.6 0-1.1 0-.8-.1-.5.4-.4.8.3.6-1 .4-1.1.8-.3.5.9 1.8 0 1.8.8.1-.9 1.6-.9 1 .1.1-.5-.1-.8-.4-.2-.2-.5-.4-.6-.5-.6-.8-1.9-1.7-2.9-2.5-.1-.1-.9.6-2 .2-.9-.4-1.9-.9-2.2-.7 0 .1.5.6.5.7 0 0 .1.4.3.9.2.5.4 1.2.6 1.9.2.7.4 1.4.5 1.9.1.5.1.8-.1.8-.4-.1-1.2-.6-1.6-1.1-1.2-1.4-2-1.8-3.1-2.8-.3-.3-.6-.7-.9-1-.8-.8-1.8-1.6-2-1.7-.6-.3-1-.3-1 .1l-.5.1z"/><path class="st10" d="M-44.9 130.7s.3-.8 1.1-1.3c.7-.5 1.8-.9 3.5.1 0 0 .6.1 1.3.2.7.1 1.4.1 1.5-.1l.9.2s.8-.3 1.4-.9c.7-.6 1.2-1.5.9-2.5 0 0 .8-1.5 1.3-1.3 0 0 .3-.1.5-.7.2-.5.3-1.5 0-3.2"/><path class="st11" d="M-45.3 93.9c.2 0 .8.2 1.6.3.7.1 1.6.3 2.1.5.8.3 1.7.6 2.6.8.9.3 1.7.5 2.7.8.1 0 .2 0 .1-.2-.7-.9.2-.9-.1-1.4-.1-.2-.4-.6-.3-.7.4-.3 1-.4 1.8-.5.8-.1 1.7-.1 2.8-.1.9 0 2.1.2 3.3.3.3 0 .6.1 1 .2.3.1 0 .2.1.3h-.9c-.6 0-.8.3-1.4.3-.6 0-1.3-.1-1.9-.1-.3.1-.5.1-.7.3-.8.3-1.3.7-1.6 1.3.7.7-.1.7-.3.9-.1.1-.3 0-.5 0-.2.2 0 .6-.7.4-1.5-.6-2.9-1.1-4.1-1.5-.5-.2-1.4-.3-2.2-.5-.8-.2-1.6-.4-1.9-.3-.7-.1-.4.7-.9.7l-.3-.3c-.1-.2-.3-.4-.4-.6-.4-.4-.6-.8.1-.9z"/></g><path class="st1" d="M-161.8 10.6c-1.1-2.1 0-4.1 1.8-5.4-.3.2-.6.3-.8.5 5.9-3.2 14.4-3 20.9-1.9 6.9 1.1 13.4 3.9 19.1 8 .1.1.8-.6.9-.5-8.1-5.9-18-8.9-27.9-8.5-3.1.1-18.5 1.3-14.8 8.4 0-.1.8-.5.8-.6z" id="XMLID_4922_"/><path class="st1" d="M-51.6-13.5c11.3 5.9 23.7 9 36.5 9 .3 0 .6-.5.9-.5-12.8 0-25.3-3.1-36.6-9-.1-.1-.7.6-.8.5z" id="XMLID_4961_"/><path class="st1" d="M.6 52.3c3.8 10.7 8 21.3 12.5 31.8l.9-.5C9.4 73.1 5.2 62.5 1.4 51.8c0 0-.9.4-.8.5z" id="XMLID_5402_"/><path class="st1" d="M-11.9 38.9c6-1.3 12-2.7 18-4 .3-.1.6-.4.9-.5-6 1.3-12 2.7-18 4-.3 0-.5.4-.9.5z" id="XMLID_6482_"/><path class="st1" d="M-27.9 62.9c5.5.1 10.8-.8 16-2.6.3-.1.6-.4.9-.5-5.2 1.8-10.5 2.7-16 2.6-.3 0-.6.5-.9.5z" id="XMLID_6484_"/><path class="st1" d="M-97-39c.1-.7.3-.8.8-1.2-.3.2-.6.3-.9.5 3.6-1.6 8.2-2.1 12-2.7 4-.6 8-1 12.1-1.2 8.4-.4 16.8.2 25.1 1.7.3 0 .6-.5.9-.5-10.6-1.9-21.4-2.4-32.1-1.2-5.2.6-10.5 1.4-15.6 2.8-1.2.3-3 .9-3.2 2.3.1-.2.9-.3.9-.5z" id="XMLID_6500_"/><path class="st1" d="M-47.5-20.4c-1.3-.8-.5-2 .6-2.7-.3.2-.6.3-.9.5 10.1-4.6 21.1-7.5 31.9-9.5.3-.1.6-.4.9-.5-8.3 1.5-16.4 3.6-24.3 6.5-2.6.9-5.4 1.8-7.8 3.1-1.1.6-2.9 1.9-1.2 3.1 0 .1.6-.6.8-.5z" id="XMLID_6516_"/></g></svg>