<?xml version="1.0" encoding="iso-8859-1"?>
<!-- Generator: Adobe Illustrator 19.0.0, SVG Export Plug-In . SVG Version: 6.00 Build 0)  -->
<svg version="1.1" id="Layer_1" xmlns="http://www.w3.org/2000/svg" xmlns:xlink="http://www.w3.org/1999/xlink" x="0px" y="0px"
	 viewBox="0 0 512 512" style="enable-background:new 0 0 512 512;" xml:space="preserve">
<g>
	<g>
		<path style="fill:#fabc14;" d="M402.039,44.069L365.534,7.564c-10.078-10.078-26.428-10.078-36.506,0L128.222,208.362
			c-2.842,2.833-4.975,6.281-6.238,10.086l-18.253,54.767c-3.098,9.276-0.674,19.507,6.238,26.419
			c6.912,6.912,17.143,9.327,26.419,6.238l54.758-18.253c3.806-1.263,7.262-3.405,10.095-6.238L402.039,80.575
			C412.117,70.497,412.117,54.147,402.039,44.069z M128.222,281.373l18.253-54.767l36.506,36.514L128.222,281.373z M201.242,244.867
			l-36.514-36.506L347.273,25.808l36.506,36.506L201.242,244.867z"/>
	</g>
</g>
<g>
	<g>
		<circle style="fill:#fabc14;" cx="448" cy="140.795" r="12.8"/>
	</g>
</g>
<g>
	<g>
		<circle style="fill:#fabc14;" cx="396.8" cy="140.795" r="12.8"/>
	</g>
</g>
<g>
	<g>
		<path style="fill:#fabc14;" d="M486.4,76.795h-53.675c-2.415,7.902-6.519,15.215-12.527,21.214l-4.386,4.386H486.4v76.8H339.004l-25.6,25.6H486.4v281.6
			H25.6v-281.6h76.262c2.543-5.99,5.99-11.639,10.615-16.273l9.318-9.327H25.6v-76.8h172.996l25.6-25.6H25.6
			c-14.14,0-25.6,11.46-25.6,25.6v384c0,14.14,11.46,25.6,25.6,25.6h460.8c14.14,0,25.6-11.46,25.6-25.6v-384
			C512,88.255,500.54,76.795,486.4,76.795z"/>
	</g>
</g>
<g>
</g>
<g>
</g>
<g>
</g>
<g>
</g>
<g>
</g>
<g>
</g>
<g>
</g>
<g>
</g>
<g>
</g>
<g>
</g>
<g>
</g>
<g>
</g>
<g>
</g>
<g>
</g>
<g>
</g>
</svg>
