<svg xmlns="http://www.w3.org/2000/svg" viewBox="0 0 423.4 311.3"><style>.st0{fill:#2e0b01}</style><g id="White_BG"><path class="st0" d="M40.4 257.4s11.4 10.4 24 10.4c5.1 0 10.5-2 10.5-8 0-11.9-45.2-11.5-45.2-42.4 0-18.5 15.6-30.7 35.5-30.7 21.6 0 32.3 11.4 32.3 11.4l-10.4 20.1s-10.1-8.8-22.2-8.8c-5.1 0-10.7 2.2-10.7 7.9 0 12.6 45.2 10.4 45.2 42.1 0 16.7-12.8 31.2-35.4 31.2-23.6 0-36.6-14.3-36.6-14.3l13-18.9zM113.7 188.3h41.7c19.5 0 32.7 14.3 32.7 34.5s-13.2 34.8-32.7 34.8h-17.1v31h-24.6V188.3zm36.6 48.3c8.6 0 12.8-5.8 12.8-13.8s-4.2-13.5-12.4-13.5h-12.5v27.2h12.1zM199.2 188.3h24.6v100.4h-24.6V188.3zM288.6 186.7c24.8 0 37.6 14.2 37.6 14.2l-11.4 18.5s-11.2-10.2-25.1-10.2c-19.2 0-28.4 14.2-28.4 28.6 0 14.9 9.8 30.2 28.4 30.2 15.2 0 26.7-12.4 26.7-12.4l12.6 18s-14.2 16.8-40.4 16.8c-31.4 0-52.6-22.3-52.6-52.1 0-29.2 22.5-51.6 52.6-51.6zM338.2 188.3h62.9v21.1h-38.3v18.3h30.6v21.1h-30.6v19h40.3v21.1h-64.9V188.3z"/><g><path class="st0" d="M340.2 145v-.3c-.1.1 0 .2 0 .3zM317.1 148.9l.2-.2c-.2 0-.2.1-.2.2zM353.4 140.4c0 .1 0 .1 0 0 .2 0 .5-.1.9-.3l-.9.3zM267.1 150.2h.3c-.1 0-.2-.1-.3 0zM296.8 150.8c-.1.1-.2.2-.4.2.2 0 .3-.1.4-.2zM363 141.7l-.6-.1c.1.1.3.2.6.1zM373 129.7s-.1-.1 0 0c-.1 0 0 0 0 0zM368.1 133.4c-.1.1-.1.3-.2.4.2-.1.4-.3.2-.4zM367.9 134c0-.1 0-.1.1-.2-.1.1-.1.2-.1.2zM101.1 87.4c-.3-.3-.7-.3-1.2-.4l1.2.4zM222.1 145.1l.1-.1-.1.1zM98.4 89.5l-.2-.3c0 .1.1.2.2.3zM356.4 146.6c-.2.5-1.3.5-1.1.8.4-.2 1.1-.2 1.1-.8zM209.6 157.4h-.3.3zM98.4 89.5l.2.3c0-.1 0-.1.1-.2-.2 0-.3-.1-.3-.1zM177 132.4h.1-.1zM174.9 130.9c.2 0 .3 0 .5.1-.3-.1-.4-.1-.5-.1zM100 87l-.7-.2c.2.1.4.2.7.2zM150.3 120.4c.1 0 .2.1.2.1 0-.1-.1-.1-.2-.1zM298.7 150.8c.1 0 .2 0 .2.1 0-.1 0-.2-.2-.1zM280.2 162.1zM281.2 161.6c-.3-.1-.8.2-1 .5.3 0 .6-.1 1-.5zM278 161.9h.1-.1zM298.9 161.7s0-.1 0 0c-.1-.1-.1 0 0 0zM294.7 162.1c-.1-.1-.2-.1-.3-.2.1.1.2.1.3.2zM267.7 162.9z"/><path class="st0" d="M228.4 162.2c3.9.4 9.1.3 13 1 .9-.7 2.2-.6 3.4-.6v1.1l1.1-.2c.4.4-.8.1-.1.6l.5-.6c0 .4 2.6.5.8 1.1l2 .2 2 .2c.9.1.6-.8 1.6-.5.2.3-.4.2-.3.6 2.9 1 3.6-1.8 6.3-1.2l-.2.1c.5-.3 1.4-.2 1.4-.3-.3-1.1-.5.5-1.3-.1.1-.9 1.1-.4 1.1-1.1.6.4 1-.1 1.6-.2.9.6 2.3.3 3 1 .5-.3 1-1.1 2-1.1.7.7-.2.7.8 1l.2-.5c.8.1.7.2.6.5.9 0 .7-.7 1.8-.3l-.6.5c.8-.2 1.1-.1 2.2 0 0 .3-.5.3-.8.2.6.8 1-.3 1.4-.2-.1-.2-.9-.3-.5-.8.5.1 1.2-.7 1.6-.1l-.6.5c1.2-.4.6-.6 1.9-.4-.1 0 0 .2-.1.3.8-.7 1.9 0 3.2 0l-.2.1c.5-.2.8-.6 1-.6-.7-.3-.5-.4-.6-.9.9.8 1.4-1 2.9-.5 0 .3-.4.7-.8.4-.5.9-.6 1.6-1.5 2.1.6-.2 1.2-.3 1.1 0l.2-.8h.9c.1-.5-.7-.8.1-1.2.9-.3.5.8.6.5 1.2-.4.5-.9 1.7-.7-.1.1-.3.2-.5.1.9.3 2.1-.2 2.4.8-.1.2-.1.5-.5.4v-.2c-.9.7.8-.2.5.7-.1-.5 1.1-.4 1.7-.4l-.2-.6c1.7-1.9-.1 1.2 1.7.9 1.1-.5-.4-.1.2-.6.8.1 1.1.6 2.2.3.3.2 1 .5 1.1 1.2.7-.3 2.1.2 2.5-.5-1.2-.5-1.1.8-2.6 0l.3-.7c1 0 2.1-.4 2.8-.2-.1-.1-.2-.3-.1-.4 1.3-.3 1.7-1 3-.9.2.6-.6.5-1.1.6.9.4.9 0 2.2 0 .1.5-.9 0-1 .6l1.4-.3v.1c.1-.9 1.1 0 2-.4 2.1-.2 2.3-1.4 3.4-2.2.3.2.5.4.3.7-.6-.3-.4 0-.6.2.7-.2 1.6.7 1.3 1.1 1.1-.4-.5-.4.2-.8l1.6-.1c-.2-.4-.8-.5 0-.9.7-.2 1-.2 1.9-.2-.1.2.4.6-.3.7.4.1 1.1.1 1.3-.4-1-.3 1.5-.6.7-1.2l1 .3c-.2 0-.2.3-.5.3.4.6.8-.3 1.1-.4.4.1 1.2 0 1.4.3.3-.2 1-.2 1.2.1.4-.2 0-.4.1-.7l1.5-.2c.1.4.4 1.4.2 1.6.5-.4 0-1.1.9-1.2-.4.8 1.3.4.7 1.3.6.5 2 .2 2.8-.2.4-.7-.9-.2-1-.8 2.2-.6 2-2.3 3.7-2.3l-.5-.1c.9-.5.8-.4 1.3-1.1-.1.8 1.5 1.7 3.2 1.2.1-.4-1.1-.5-.9-1.1l1.1-.3c.1 0 0 .2-.1.3.9-.5 2 .5 2.1-.4l1.2.8-.5-.4c.1-.4 1.1-.7 1.3-1 1-.7 1.5-.5 2.2-.2-.3-.2-.9-.8-.1-1.1.3 1.2 2 0 2.1.5.3-.1 1.1.1 1-.4l.1.7c-.2-1 1.1-1.4 2-1.8.2 1.4 1-.4 1.9.6-.1-1 1.6-.9 1.5-1.8.7-.3.9.6 1.2.8l.2-.5c.5.3 2-.1 2.9-.2l.5-1.1.4.2c0-.3.6-.6.1-.8l.4-.1c-.3-.9.5-.5 1.2-1.2.2.1.3.3.1.5.4-.2.4.3.8.5-.4-.1.8-2.2-.4-2.1-.2-.3.3-.8.8-.9l.6.7.1-1c.6-.4 1.1 0 1.6-.2-.5.3-.5 2 .9 1.3-.7.4-.8 1-1.1 1.3.3-.1.5-.1.2.4 1-.7.1-.6 1.2-1.2.3.7.7.8 1.7.6l-1-.2v-.2c-.3 0-.4 0-.6-.3.2-.1.8-1.4 1.2-1.1-.8-.3-.4-.7 0-1.1.4-.4.9-.8.4-.9 0-.3.7-.7.9-.4-.6.9 1 .4 1.1.9.2-.4-.9-.1-.6-.6.5-.3 1.1-.1 1.5 0l-.1.2s.2 0 .5-.1c.2 0 .5-.1.5-.1-.1-.4-1.1-.1-.4-.7.3 0 .9-.6 1-.3-.1.6.5 1.1 0 1.6.5-.3 2.1-1.4 1.1-1.6l.6-.3c-.5 0-1.9.1-.7-.7l.1.1.5-1 .6.1c-.1-.2-.1-.4.2-.6.2.1.5 0 .7.3.9-.6.6-.9.5-1.1.4-.4.7-.4.7.1.7-.4 1.8-1.3 2.5-1.4.6-1-.3 0-.1-.8.8.2 1.6-.3 2.3-1 .4-.4.7-.8 1-1.2.3-.4.6-.9.9-1.3-1.2-.4.2-.5-.3-1.4 0 .6 1.8-.8 1 .7l.5-.9c.9-.2-.7 1.6.7 1.3.3-.5.4-1.1.5-1.6 0-.3.1-.5.2-.8.1-.3.3-.5.5-.8.4.8.3-1 .9-.3.1.4-.2.7-.3 1.1l.3-.1c1.6-2.2-.4-1.1-.2-2.6.6-1.4 1.1-.8 1.5-.8.1-.1.3-.3.3-.6.1-.3.1-.6.1-.9.2 1.2-1.2 1.5-1.4.9.6-.1.8-.7.8-1.3 0-.6-.1-1.2-.2-1.4-.8.9-.9 1.2-1.1 1.6-.1.3-.3.6-1.2 1.3.1.4.9.7 0 1.6 0-.8-.4-.2-.6-.1.5 0-.3.8-.3 1.2-.5.1-.6-1.2-1.3-.3l.8.8c-.4.3-.6-.6-.9.3-.2-.8-.8-.4-.2-1.5-1.6.6-.9 2.1-1.4 3.3 0-.1-.1-.2-.1-.4.1.4-.3.7-.5 1-.7.4 0-.8-.3-.9 0 0-.2.2-.4.5l-.4.4h-.1c-.1.3-.3.6-.6.5 0-.5-.1-.9-.2-1.2l-.4 1.4c-.2-.4-1.2.2-.7-.6l-.2.2c-.1.1-.3.3-.4.5-.3.3-.7.6-.7.6l-.6-.5c-.2.4-.2.5.3.2-.5.3-1.4 2.8-2 1.4-.8 1.4-1.4 1.4-2.7 2.7.8-1.3-1.8.1-.7-1-.9.1-.6.9-1.1 1.4-.7 0-.8-.7-.4-1.3l-.5.7-.1-.1-.4.7c-.8 0-.5-.6-1.2-.3l.2.7-.6-.1c.3.2 0 .5-.5.8l-.1-.1-.5.4c.4-.7-.6.1-.5-.4-.5.2-.5.2-1.4.8l.4.3c-1 .9-.3-.6-1.3-.2l.3.4c-1.7-.2-2.2 1.5-3.4 1.4.6-.4.2-.9.2-.7-.8.6-2.4 1-3.1 2-.6-.6-.8-.8-1.9-.7-.7.3-.8.4-.9.9-.8 0-1.9.8-2.1.3 0 .5-.7.1-.9.6l-.2-.2.2.5c-1.6-.7-1.9 1.3-3.5.7l.2-.2-.5.4c-.1-.2 0-.4 0-.7 0 0-.6.2-1.2.3-.6.2-1.2.3-1.2.3l.6.3c-.5.2-.7.8-1.4.6.8-1-.8.2-1.1-.4l.5-.3c-.7.2-.7.2-.5.7-.9.4-.9-.8-1.6 0l.6-.1c.3.3-.1.8-.5.9-.1-.1-.5-.2-.2-.4-.7.4-1.9.4-2.2.7-.4-.1-.4-.5-.2-.6-1.5.8-.7.1-2.2.9v-.3l-.5.5-.9-.5.4.3c-.5.2-.8.4-1.5.4l.2-.5c-1.4.5-1.9-.4-3.2.5-.1-.1.1-.2.2-.3-1.2.9-1.1-.6-2.3.5.1-.2-.1-.3-.1-.5l-.6.4-.1-.6-.3.9-.5-.5-.2.3c-.8-1-1.6 0-2.6-.7l.3.7c-1 .9-2.3.9-3.7.8-1.4-.1-2.8-.4-4.1.1v-.6l-1 .8c-.7-.4.3-.5.1-.8-1.2.4-.4.9-1.8 1.2-.8-.3.2-.5.5-.7-1.3.4-3.2 1-4.1.7 0 .1-.1.2 0 .2-.9.3-2 .2-3 .3 0-.3.2-.3.5-.4-.3 0-.8-.2-1.1.1l.3-.5c-.7 0-2.1.5-2.3-.1.1.2.1.7-.5.7-.4-.9-1.7.5-2.8.1.1-.2.9-.3.6-.3-.5-.2-1 .2-1.4.5l.1-.4-2.4.6c-.4-.9-2.3.2-2.1-.4-.9 0 .7.4-.3.5-.3-.4-1 .2-.9-.4l.1-.1-.8.1.5-.6c-.6.1-1.1.7-1.1 1.2-.6-.3-1.5 0-1.8-.5l.2-.1c-1.7.2-2.9-1.6-4.2-.6-.1-.1-.1-.2.1-.2h-1.1l.3-.4-1.8.7v-.3c-1.2-.1-3 0-4.5.1l.2-.1c-1.6.4-1.6-.3-2.8 0 0-.1.1-.1.1-.1h-1.1l.2-.3c-.8.6-2.2-.9-1.8-.4-.5.3-1.3.6-1.4.9-1.2 0-.3-.4-1-.7-.8-.1-1 .4-2.2.1v-.3c-.5 0-.9.2-1.6.2l.2-.1c-1.3.5-1.5-1-2.5.3-.5-.3-1.5-.1-1.4-.7-1.5.3-2.7.3-4.3.5-.2-1-.3 0-1.2-.6v.5c-2.1-.2-4.5-1.6-6.8-1.7v-.5l-.5.5c-2.5-.5-5.7-1.2-7.7-1.5-.7.2-1.8.6-2.8.3l.1-.1c-1.9 0-3.8-.1-5.7-.7.2-.2 0-.4.2-.5-.6.5-1.2-.2-1.6-.3l.4.5c-.6.4-1.4-.2-1.6-.6l-1 .4c0-.1-.1-.2-.1-.2l-.2.2-.3-.8c-.2.1-1.4 0-1.9.6 0-.2-.8-.6-.2-.6l-1.6-.4-1.6-.4.4.3c0 .5-1.1.6-1.5.3.7-.3.2-.7 0-1.2-.5.2.3.5 0 .8-.6.2-1.8.2-2.1-.1l.4-.1c-.8 0-.9-.9-1.7-1.1-.8.3-1.1-.2-1.2.7-1 0-.2-.7-.5-.8-.5.3-1.8-.3-1.9-.8-.8 1.2-2.4-1.1-2.9 0l-.6-.8c-.1.3-.4.9-1.1.8-.5-.5-.2-.9-.3-1.3l-.7 1c-3.1-2-7.8-2.5-11.2-4.6-1.7-.3-3.9-.5-5.8-1.2l.3-.1s-.4-.2-.9-.5c-.4-.2-.9-.5-.9-.5l1.2.9c-.5 0-.8.1-1.2-.1-1.9-1.2-4.5-2.6-7.2-3.1-2.1.6-.7-1.5-2.6-1.2.2-.1.3-.2.5-.3-1.8-.2-2.8-.4-4.8-.4.7-1.1-1.1-.4-.7-1l-.3.4c-.3-.4-1.1-.9-.8-1.2l-1 .3.1-.5c-.9-.5-3.2-1-3.3-2.2-2.7-.3-6.3-2.3-9.1-3.9-.6.2-1.5-.2-2.2-.5l-.4-.9c-.8-.2-1.8.1-2.3-.5 0-.1.1-.1.1-.1-.7-.2-1.2-.9-2.1-.7-.7-.4-1.3-1.1-.8-1.5-.6.9-1.5-1-1.5-1s-.6-.4-1.6-1-2.5-1.6-4.2-2.7c-3.5-2.3-8.2-5.5-13.1-8.9-9.9-6.8-20.1-15.2-25.9-17-.6.1-1.6-.4-1.7.3-.7-.4-.3-1.3-.8-1 .5 1-1.2.7-.9 1.9l-.6-.4c-.4.2.9.3.3.7l.8-.5c.3.5.3.8.2 1.2.6.1 1.8-.6 2.2.6l-.3-.2c.7.7 0 .9 0 1.1l-.1-.2.2.9c-.2-.7-1.5-.8-1.1-.5.6 1-.1-.4.7.2.4.3 0 .6-.3.8l.7.7c-.3.3-.4-.5-.5.1 0 0 .3.1.6.3l.6.2c-.6 1 1.4.5 1 1.7-.8-.4-.2.3-.6.5l1.7 1.4c0 .3-.7-.1-.4 0 .1.5.7.3.8.4-.1.4 1.2 1.1.7 1.6.8 1.4 1.1-.3 1.9.9-.2.5-.9-.6-.7.1l1.2.8c-.2.1-.7.4-1-.1 2.5 3 2.7 6.2 5.9 8 .1.7-.5.1-1 .1 2.5 1 2.2 3.2 4 4.5l.3-.3c1.7 3 5.3 4.5 7.9 7l.3-.7c.6-.1 1.3.3 1.9.5-.1.2-.9.6.1 1-.1-.3-.4-.6-.1-.7.9 1.3 2.8 2.8 5 4.3s4.6 3 6.6 4.5c6 3.1 12.2 7.2 18.4 9.8-.9-.4-.1-1.2.5-.7 1.1 2.6 3.4 1.2 4.9 3.2 1.9.5 3.5 1.5 5.1 2.3 1.6.8 3.2 1.5 5.2 1.5l-.1.5c.4.4.7.1 1.2.3l-.1.1c1.2.7 2.9.7 3.5 1.2l.2-.5c.8.2.2.6 1.1.5l-.1.3 1.1-.2c-.4 1 2.1.8 2.5 1.5 1 .1 3 .3 4.4 1 .1.6 1.9 1.2 3 1.8 1.2.3 2.6.6 4 1 1.5.4 3 .8 4.4 1.3l.1-.7.8.2c0 .1 0 .2-.1.3.4.9 1.8.2 2.3.9-.2-.7-.5-.2-.9-.4-.5-.5.2-1 1-.4l-.1.1.7-.2c-.1.5.4.9.3 1.4 2.5.5 4.5.1 7 .9-.4.5 1.9.3 1.1 1.2 1.6 0-.1-.9.8-1.4.4.1 1-.1.9.3-.3.2.2.7-.2.7l1.1.1c.1.1-.2.2-.3.2 2.3-.1 3.6 1.5 5.7 1.3.2-.3-.7-.3-.5-.6 2.1-.4 1.6 1 3.5.8l-.5.4c.6-.2 1-.6 1.9 0 .1.6-.9.3-1.4.5.7.2 2.4.3 1.9-.3.8-.1 1 .5 1.4.8 0-.1-.7-.5-.2-.7 1 .5 2.7.8 4 1.1 0 .1 0 .4-.1.4 1.4-.6 1 .7 2.5.8z"/><path class="st0" d="M299.4 161.7h-.5c0 .1 0 .3-.2.5l.7-.5zM274 162.4c-.1 0-.1.1-.2.2l.2-.2zM267.8 163.3c.4-.1.1-.3-.2-.4.1.1.1.3.2.4zM313.5 158.5c-.1.1-.1.2-.1.3.1-.2.1-.3.1-.3zM352.3 148.5h-.2c0 .1.1.1.2 0zM349.8 148.6c-.1 0-.2.1-.4.2.2 0 .3-.1.4-.2zM304 159.9c-.1 0-.3.1-.4.2.2 0 .3-.1.4-.2zM349 149.1l-.5.1v.1l.5-.2z"/><path class="st0" d="M352.9 148.3c-.2.1-.5.2-.7.2.4.1.6 0 .7-.2zM327.7 155.1c-.4.3-.2.2 0 0zM347.1 151l-.2.2.2-.2zM355.3 147.5c-.1.1-.2.1-.2.2.1 0 .2 0 .3-.1-.1 0-.1-.1-.1-.1zM336 153.9c.1-.3.1-.4.1-.5-.2 0-.3.2-.1.5z"/><g><path class="st0" d="M160.5 86c0 .1-.1.1-.1.3.1-.1.1-.2.1-.3zM180.2 90.8l-.3.1c.2 0 .2 0 .3-.1zM148.5 84.2c-.2-.1-.4-.1-.8-.2l.8.2zM221.2 103.7l-.3-.1c.1 0 .2.1.3.1zM197.1 95.2c.1-.1.2-.1.4-.1-.2 0-.3 0-.4.1zM142.3 78l.3.4c0-.1-.1-.3-.3-.4zM129.7 79.5zM134.5 81.1c.1 0 .2-.1.4-.2-.2 0-.3 0-.4.2zM135.1 80.8l-.2.1c.1 0 .2 0 .2-.1zM375 128.6c.3-.3.3-.7.3-1.2l-.3 1.2zM257.7 117.6l-.1.1c.1 0 .1-.1.1-.1zM372.8 126l.2-.1c-.1 0-.1 0-.2.1zM149 77.3c.4-.4 1.1.2 1.1-.2-.4.1-.9-.3-1.1.2zM271 107.3l.2.1c-.1-.1-.2-.1-.2-.1zM372.8 126l-.3.2c.1 0 .1 0 .2.1.1-.2.1-.3.1-.3zM295.9 133.4h-.1.1zM297.8 134.8c-.2 0-.3 0-.5-.1.2.2.3.2.5.1zM375.4 127.5l.2-.7c-.2.2-.2.4-.2.7zM321.1 141.9h-.2.2zM195.6 94.6s-.1-.1-.2-.1c0 .1 0 .1.2.1zM214 89zM213 89.2c.2.2.7 0 1-.2-.3-.1-.6 0-1 .2zM215.7 89.8c0-.1 0-.1 0 0 0-.1 0 0 0 0zM198.8 84.3zM202.3 85.1c0 .1.1.2.2.2-.1-.1-.1-.2-.2-.2zM224.4 91.4z"/><path class="st0" d="M256.4 100.1c-3.2-1-7.5-1.8-10.4-3.2-1 .5-1.9.2-3-.1l.3-1h-.9c-.2-.4.7.1.2-.5l-.5.5c.1-.4-2-1-.4-1.2l-3.2-1.2c-.7-.3-.7.7-1.4.1-.1-.3.4-.1.4-.5-2.1-1.6-3.4 1-5.4-.3l.2-.1c-.5.1-1.2-.1-1.2 0-.1 1.1.6-.4 1.1.4-.4.8-1 .2-1.2.8-.4-.5-.9-.1-1.3-.2-.6-.8-1.8-.8-2.2-1.7-.5.1-1.2.8-2 .6-.4-.9.3-.6-.4-1.1l-.3.5c-.6-.3-.5-.4-.4-.6-.7-.3-.8.5-1.6-.1l.6-.3c-.7 0-.9-.2-1.8-.5.1-.3.5-.1.7 0-.3-.9-.9.1-1.2-.1 0 .2.6.5.1.9-.4-.2-1.2.4-1.3-.3l.6-.3c-1.1.1-.7.5-1.7-.1.1 0 .1-.2.1-.2-.9.4-1.6-.4-2.6-.8l.2-.1c-.5 0-.8.4-1 .3.5.5.3.6.2 1.1-.5-1-1.4.6-2.5-.3.1-.3.5-.5.8-.1.7-.7.9-1.4 1.8-1.6-.5.1-1.1 0-.9-.3l-.4.7c-.3-.1-.5-.2-.7-.2-.3.5.3 1-.4 1.1-.8 0-.2-.9-.4-.6-1.1 0-.7.7-1.6.2.1 0 .3-.1.4 0-.6-.5-1.8-.4-1.7-1.4.2-.2.3-.5.5-.3l-.1.1c1-.5-.7 0-.2-.8-.1.5-1.1.1-1.5-.1v.6c-2 1.3.4-1.1-1.1-1.3-1 .1.3.3-.4.5-.6-.3-.7-.9-1.7-.9-.2-.3-.6-.8-.5-1.4-.6.1-1.6-.8-2.1-.2.8.8 1.1-.4 2 .7l-.5.5c-.8-.2-1.9-.2-2.3-.6.1.2.1.3 0 .4-1.2 0-1.7.5-2.7 0 0-.6.6-.4 1.1-.3-.6-.6-.7-.2-1.8-.7.1-.5.7.2 1-.3l-1.2-.1V84c-.4.8-.9-.3-1.7-.2-1.8-.4-2.3.7-3.4 1.1-.2-.3-.2-.5-.1-.7.3.5.3.2.5 0-.6-.1-1.1-1.2-.7-1.4-1 0 .2.5-.4.7l-1.3-.4c.1.5.5.7-.3.9-.6 0-.8-.1-1.6-.3.2-.2-.1-.7.5-.6-.3-.2-.9-.4-1.2 0 .7.6-1.4.1-1 .9l-.7-.6c.2 0 .3-.2.5-.1-.1-.7-.7 0-1 0-.3-.2-1-.4-1-.7-.3.1-.9-.1-.9-.5-.4.1-.1.4-.3.6l-1.3-.3c0-.4.1-1.4.3-1.5-.6.2-.4 1.1-1.1.9.6-.6-.9-.8-.1-1.5-.3-.6-1.5-.8-2.3-.8-.5.5.7.5.5 1-1.9-.1-2.3 1.5-3.6.9l.3.2c-.9.2-.8.1-1.4.5.4-.7-.6-2.1-2.1-2.2-.2.3.7.8.4 1.4h-1c-.1-.1.1-.2.2-.2-.9.1-1.4-1.2-1.8-.4l-.7-1.2.3.5c-.2.3-1.1.3-1.3.4-1 .3-1.3-.1-1.8-.6.1.3.4 1.1-.3 1.1.2-1.2-1.5-.7-1.4-1.3-.3 0-.8-.5-.9 0l.1-.7c-.2 1-1.3.8-2.2.9.4-1.4-1 0-1.2-1.3-.3.9-1.6.2-1.8 1-.7 0-.5-.9-.6-1.2l-.3.3c-.3-.5-1.5-.7-2.2-1.1l-.8.8-.2-.4c-.1.2-.7.3-.4.6l-.4-.1c-.1.9-.5.2-1.3.5-.2-.2-.1-.4.1-.5-.4 0-.2-.5-.3-.8.2.3-1.5 1.6-.5 2 0 .4-.6.6-.9.4l-.2-.8-.5.8c-.6.1-.8-.5-1.2-.6.5 0 1.2-1.5-.1-1.6.7-.1 1-.5 1.4-.6-.3-.1-.4-.1.1-.5-1 .2-.4.5-1.3.5.1-.7-.1-1-1-1.3l.6.6c0 .1-.1.2-.1.2.2.1.3.2.3.5-.2 0-1.2.8-1.3.4.9 1.2-1.7.8-1.2 1.5-.1.2-.8.2-.8-.2.8-.5-.5-.9-.4-1.4-.3.2.6.6.2.8-.5 0-.8-.5-1-.7l.2-.1-.7-.4c-.1.4.7.7 0 .8-.2-.2-.9 0-.8-.3.3-.5.1-1.2.7-1.3-.5 0-2 0-1.4.8l-.6-.1c.3.3 1.3 1 .2 1v-.1l-.8.5-.3-.4c0 .2-.1.4-.4.3-.1-.2-.3-.3-.3-.6-.9 0-.8.4-.9.6-.5 0-.7-.1-.4-.6-.7-.1-1.8-.1-2.2-.5-.9.3.2.2-.3.7-.7-1.3-2.9-.5-4.3-.4.4 1.1-.4.1-.7 1.2.3-.4-1.4-.9-.1-1.2l-.8.1c-.5-.6 1.3-.5.5-1.3-.9 0-1.4 1.3-2.4.9.3-.8-.8.3-.5-.6.2-.3.5-.2.8-.3l-.2-.2c-1.9-.2-.5 1-1.5 1.5-1.1.1-.9-.6-1-1-.2-.2-.8 0-1.1.2.7-.5 1.3.5 1 1-.5-.9-1.7 0-2 .3 1.7.9 1.1 0 2.7 1 .2-.3.2-1.1 1.1-.8-.6.4 0 .5.2.6-.2-.5.6-.2.9-.4.3.4-.5 1.1.4 1.3l.2-1.1c.4.2-.1.8.6.5-.4.6.1.9-.9 1.1 1.2.9 1.9-.5 2.9-.9-.1.1-.1.2-.2.3.2-.3.6-.3.9-.3.6.3-.5.5-.3.8h1v.1c.3-.2.5-.2.6 0-.3.4-.4.7-.6 1l1.1-.8c-.1.4.9.6.1.9 0 0 .4 0 .8-.1.4 0 .8-.1.8-.1l.1.8c.4-.1.4-.3-.1-.4.5.2 2.4-1.2 2.1.2 1.3-.6 1.7-.3 3.2-.6-1.2.6 1.3 1 0 1.2.7.4.9-.4 1.5-.5.5.4.2 1.1-.3 1.3l.7-.3v.1l.6-.4c.6.4.1.8.7.9l.2-.7.4.4c-.1-.3.2-.4.7-.5v.1l.6-.1c-.6.4.5.2.2.6.5.1.5.1 1.4 0l-.1-.5c1.2-.3 0 .7.9.8v-.5c1.3 1 2.3-.3 3.2.3-.6.1-.5.7-.5.5.9-.1 2.2.2 3.1-.4.2.8.3 1 1.2 1.5.7 0 .8 0 1-.5.6.3 1.8.1 1.8.6.2-.4.6.2.9-.2v.2-.5c1 1.3 2-.4 3 .7l-.2.1.5-.1c0 .2-.2.4-.2.6l2.2.4-.4-.5c.5 0 .8-.4 1.3-.1-1 .7.7.1.8.8l-.5.1c.6 0 .6 0 .7-.5.9-.1.4 1.1 1.3.6l-.5-.1c-.1-.3.3-.7.7-.6.1.1.3.4 0 .4.7-.1 1.6.3 1.9.2.3.2.2.6-.1.7 1.5-.2.6.2 2.1 0l-.1.3.5-.3.6.7-.2-.4c.5 0 .8-.1 1.3.1l-.3.4c1.3 0 1.4 1 2.7.6.1.1-.1.2-.3.2 1.3-.5.7.9 2 .3-.1.1 0 .3-.1.5l.6-.2-.2.6.6-.8.2.7.3-.2c.3 1.2 1.3.5 1.9 1.5v-.8c2.2-1.2 4.1 1.8 6.6 1.6l-.2.6 1.1-.5c.4.6-.4.4-.3.8 1.1-.1.6-.8 1.8-.6.5.5-.3.4-.6.5 1.2 0 2.9 0 3.6.6 0-.1.1-.2.1-.2.8-.1 1.7.4 2.5.6-.1.3-.3.3-.5.3.3.1.6.4.9.2l-.4.4c.6.3 1.9.1 1.9.7 0-.2.1-.7.7-.5.1 1 1.5 0 2.3.7-.2.2-.8.1-.6.1.4.3.9 0 1.3-.1l-.2.3 2.1.1c0 1 1.9.4 1.6 1 .7.2-.5-.6.4-.4.1.4.9.1.7.6h-.1l.6.1-.6.4c.6 0 1.1-.4 1.3-.8.4.5 1.2.4 1.3 1l-.2.1c1.5.2 1.9 2.3 3.3 1.6.1.1 0 .2-.2.2l.9.3-.3.4 1.6-.2-.1.3c.9.4 2.5.7 3.7 1.1l-.2.1c1.5 0 1.2.7 2.3.7l-.1.1.9.3-.3.2c.9-.4 1.6 1.4 1.4.8.5-.1 1.2-.3 1.4-.6 1 .3.1.4.6.9.7.3 1-.2 1.8.4l-.1.3c.5.1.8 0 1.4.2l-.2.1c1.2-.2.9 1.3 2.2.3.3.4 1.2.5.9 1 1.4.1 2.4.3 3.7.5-.1 1 .3 0 .8.8l.1-.5c1.8.6 3.3 2.5 5.3 3.1l-.1.5.6-.4c2 1 4.5 2.2 6.2 2.9.6 0 1.7-.3 2.5.2h-.1c1.6.3 3.2.7 4.7 1.7-.2.2-.1.4-.3.4.6-.4 1 .4 1.3.5l-.3-.5c.6-.3 1.1.4 1.2.9l.9-.2c0 .1.1.2 0 .3l.2-.2.1.8c.2-.1 1.3.2 1.8-.3 0 .2.6.7 0 .6l2.6 1.3-.3-.4c.1-.5 1.1-.5 1.4-.1-.7.2-.3.7-.2 1.1.5-.1-.1-.6.2-.7.6-.1 1.6.1 1.8.4l-.4.1c.7.1.6 1 1.2 1.2.7-.2 1 .4 1.2-.5.9.2.1.7.3.9.5-.2 1.5.5 1.5 1 .9-1 1.9 1.3 2.5.4l.4.9c.1-.3.5-.8 1.1-.7.4.5.1.9.1 1.3l.8-.9c2.4 2.3 6.5 3.1 9.2 5.3 1.5.4 3.5.6 5 1.4l-.2.1 1.5.9-1-1c.4 0 .8-.1 1.1.1 1.6 1.2 3.8 2.6 6.3 3 1.9-.6.6 1.4 2.3 1.1-.2.1-.3.2-.4.3 1.7.2 2.6.3 4.3.1-.6 1.1 1 .3.6.9l.3-.4c.2.4 1 .8.7 1.1l.9-.4-.1.5c.9.4 2.9.6 3.1 1.8 2.5 0 6 1.4 8.8 2.4.5-.3 1.4-.1 2.1.1l.5.8c.7 0 1.6-.6 2.2 0 0 .1-.1.1-.1.1.7 0 1.3.5 2.1.1.8.2 1.4.7 1.1 1.2.3-1 1.6.5 1.6.5s.2 0 .4.1c.3.1.7.2 1.3.3 1.1.3 2.7.7 4.8 1 2 .4 4.5.7 7.2.9 2.8.1 5.8.2 9-.2s6.5-1.1 9.6-2.2c3.1-1.2 6-2.7 8.5-4.5 4.9-3.6 7.7-7.8 8.3-10.6-.1-.6.2-1.5-.5-1.7.3-.7 1.2-.3.9-.8-.9.5-.8-1.1-1.9-.8l.3-.5c-.2-.3-.2.9-.6.3l.6.8c-.4.3-.8.3-1.1.2 0 .6.8 1.7-.4 2.1l.2-.3c-.6.7-.8 0-1.1 0l.1-.1-.9.2c.6-.2.7-1.4.4-1-.9.5.4 0-.1.6-.3.4-.6-.1-.8-.3l-.6.6c-.3-.3.4-.4-.1-.5 0 0-.1.3-.2.5-.1.3-.2.5-.2.5-.9-.7-.5 1.2-1.6.7.4-.7-.3-.2-.4-.6 0 0-.3.3-.7.6-.4.3-.7.6-.7.6-.2 0 .2-.6 0-.4-.5 0-.3.6-.4.7-.3-.2-1.1.8-1.5.2-1.3.2.1 1.1-1.1 1.3-.4-.3.7-.6 0-.7l-.9.8c0-.2-.2-.7.2-.9-1.5.5-2.9.4-4.2.3-1.3-.1-2.4-.2-3.5.6-.5-.4.2-.4.3-.9-1.6 1.3-2.9-.4-4.4 0l.1.4c-.6-.2-1.2-.4-1.8-.4H347c-1.3.1-2.6.2-3.9-.1l.3.3c-.4.4-.9.5-1.4.7-.1-.2.3-1-.4-.8.2.2.5.3.4.6-.6-.3-1.3-.5-2.1-.7-.8-.2-1.7-.3-2.7-.5-1.9-.3-4.1-.8-5.9-1.4-5.2-.6-10.5-3.1-15.6-4.5.8.2.1 1.2-.4.7-1-2.3-2.9-.6-4.1-2.4-3.2-.5-5.2-3-8.5-2.7l.1-.5c-.3-.4-.6-.1-1-.2l.1-.1c-.9-.6-2.4-.6-2.9-1l-.3.5c-.6-.2-.1-.6-.9-.5l.1-.3-.9.2c.5-.9-1.7-.8-2-1.4-.9-.1-2.5-.3-3.6-1 0-.6-1.5-1.2-2.3-1.8-1.9-.6-4.5-1.5-6.7-2.7l-.2.6-.6-.2c.1-.1 0-.2.1-.3-.2-.9-1.5-.4-1.8-1 .1.7.4.3.7.4.4.5-.4.9-.9.3l.1-.1-.6.1c.2-.5-.2-.9 0-1.4-2-.7-3.7-.4-5.7-1.5.4-.5-1.5-.5-.7-1.3-1.4-.2-.1.9-1 1.3-.3-.2-.8 0-.7-.4.3-.2 0-.7.3-.7l-.9-.3c0-.1.2-.2.3-.2-1.9-.1-2.7-1.9-4.5-1.9-.3.3.6.3.3.6-1.8.1-1.1-1.2-2.7-1.3l.5-.4c-.6.1-1 .5-1.6-.2.1-.6.8-.2 1.3-.3-.5-.2-1.9-.6-1.7 0-.7-.1-.7-.7-1-.9-.1.1.4.6 0 .7-.7-.7-2-1.2-3.1-1.6.1-.1.1-.4.2-.4-1.4 1.7-.9.5-2.1.2z"/><path class="st0" d="M198.4 84.1l.4.2c0-.1.1-.3.3-.4l-.7.2zM219.1 90.3c.1 0 .1-.1.2-.1-.1 0-.2 0-.2.1zM224.4 90.9c-.4 0-.1.3 0 .5 0-.1.1-.3 0-.5zM186.1 82.9c.1 0 .2-.1.2-.2-.1.1-.2.1-.2.2zM152.7 77.6l.1.1c.1 0 0 0-.1-.1zM154.5 78.7h.4c-.1-.1-.3 0-.4 0zM194.2 84.5c.1 0 .3 0 .4-.1-.2-.1-.4 0-.4.1zM155.3 78.6l.5.1v-.1h-.5zM152.2 77.5c.2 0 .4.1.6.1-.3-.1-.5-.2-.6-.1zM173.8 81.4s.1 0 0 0c.5-.2.2-.1 0 0zM157.5 77.8l.2-.1-.2.1zM150.1 77.1c.1 0 .2 0 .2-.1-.1 0-.2-.1-.3-.1.1.1.1.2.1.2zM167 79.5c-.2.2-.2.3-.3.5.2-.1.3-.2.3-.5z"/></g><g><path class="st0" d="M94.4 106h.1c.1 0 .1-.1-.1 0zM94.5 106c-.1.2-.8.8.6.7 0-.2 0-.5-.6-.7zM92.5 106.5c.4-.2-.3-.1-.5-.2l.5.2zM93.4 106.2l.6-.1-.6-.1zM96.7 92.3c.2 0 .5 0 .8-.1l-.8.1zM94.2 92.1c-.1 0-.1-.1-.2-.1 0 .1 0 .1.2.1zM96.5 92.9l.1-.1c-.1 0-.1.1-.1.1zM95.5 99.8c.4 0 .8.1 1 .1.4-.3-.5-.1-1-.1zM86.5 90.5c-.2 0-.4 0-.4.1l.4-.1zM87.1 93.1c.2 0 .4-.1.6-.1h-.1l-.5.1zM95.7 93.5l.2.1c.1-.1.1-.2-.2-.1zM85.3 89.9h-.9c.2.1.6 0 .9 0zM94 92zM87.7 93.9c-.1 0-.1-.1-.2-.1-.2 0 0 .1.2.1zM95.5 99.8h-.3.3zM95.3 105.2c0-.1-.3-.1-.6 0h.6zM95.5 89.1c.1 0 .2-.1.4-.1-.2 0-.3.1-.4.1zM96.5 89.3zM96.2 104.9c1-.1.1-.1.1-.2.1.1-.6.2-.1.2zM94.5 104.5c.3 0 .5 0 .6.1 0 0-.1-.1-.6-.1zM95 104.9c.2-.1.2-.3.1-.3 0 .1-.4.2-.1.3zM94.9 103.1c.5-.5 1.1-.1 1.6-.1-.2-.2-1-.1-1.9-.1.6 0 .3.2.3.2zM94.1 102.6c.1-.1.2-.1.1-.1 0 0-.1 0-.1.1zM94.7 102.2c-.2-.1-.8-.1-1.4 0-.5.2.6.2.8.3.1-.2 0-.2.6-.3zM97.3 97.6c.1 0 .1.1.5 0v-.2c-.2-.1-.4.1-.5.2zM94.8 96.9l.6.1c-.1-.2.9-.2.7-.3l-1.3.2zM88.9 98.1h0zM96.5 96l1.4-.1c-.3-.1-1.4 0-1.4.1zM97.4 95.1l.4.1-.4-.3zM96.6 94.4l.3-.1-.4-.1zM120.4 88.3s0-.1.1-.2h-.1v.2zM127.8 85c0-.1.1-.1.1-.2-.1.1-.1.1-.1.2zM120.5 89c0-.1.1-.2.1-.4-.1.2-.2.5-.1.4zM125.9 86.1c0-.1.1-.2.1-.3-.1.2-.1.3-.1.3zM129.4 86c0-.1.1-.2.1-.2l-.1.1v.1zM109.5 75l.1-.2c0 .1-.1.2-.1.2zM129.5 86.4l-.1-.4c-.1.4-.4.9-.7 1.1.2-.3.5-.3.8-.7zM98.2 83.8zM98.5 83.1l-.3.7.3-.3c.4-.5.2-.5 0-.4zM98.6 83.6c-.3.5-1.1 1.2-1.2 1.7.5.4 1.6-1.6 2-1.1l.1-.7c-.6.8-1.1 1.1-1.4 1l.4-.6c.2-.1.3-.3.4-.4 0-.1-.3.3-.3.1zM99 83.5zM137.5 72.8l-.1-.1c-.1.2 0 .2.1.1zM137.5 72.8c.3.5.8.5 1.1.5-.1-1.4-.9-.6-1.1-.5zM137.8 70.8l-.4-.4c.2.1.1.8.4.4zM137.5 71.7h-.2l.2.6zM118.1 76.3v.8c.1-.3.1-.5 0-.8zM117.3 73.9c-.1-.1-.1-.2-.2-.2.1 0 .2.1.2.2zM118.8 76.2l.2-.1c-.1 0-.2 0-.2.1zM129 75.4c-.1-.2-.2-.6-.3-1 0 .6 0 1.4.3 1zM113.6 66.3l.1-.4c-.2.1-.1.3-.1.4zM117.3 67.2v-.5.5zM119.7 75.5l-.1-.3c0 .3 0 .4.1.3zM112.3 64.3c0 .4.1.7.1.9.1-.2 0-.7-.1-.9zM117.2 73.7zM118.4 67c.1.1.1.2.2.2 0-.2-.1-.3-.2-.2zM128.5 74.1c0 .1.1.2.1.3 0-.1 0-.3-.1-.3zM136.3 73.6c0-.3-.1-.5-.2-.6.1.3.1.6.2.6z"/><path class="st0" d="M136.8 71.7c-.8-.4-.7-2.3-1.4-1.5l.1.4c-.4.9-.8-.6-1.2-.6.1-.2.1-.7.1-.9-.8.9-1.6.2-2.5.7l-.2-1.2-.1.9c-.4.4-.1-1-.3-1.2v.3c-.5-1.1-.3.8-.6.5.1 1 .5.4.4 1.7-.5-1.1-1.3-.5-1.3-2.7-1 .9-2.1-.6-2.9-.8-.1.4.1.3 0 .6-.3-1.3-1.1.9-1-.3-.2.3-.3 1.1-.3 1.5-.2-.6-.4-.8-.7-1l.2.3v.2l-.2-.5V68c-.6-.4-1.4-.1-1.9-1.3.3.8-.1 1.4 0 1.8-.2-1.8-.9-1.9-1.5-1.7 0 .4-.1.7 0 1l-.3-.8v.5c-.6.3-1.2-1.7-1.6-.9.2.2.2.6.2 1.2-.4-.1-.8-.1-1.3-.7v.4c-.1.2-.3-.3-.4-.5l-.1.9c-.2-.4-.6 0-.9-.7-.2 1-.7-1-1.1-.5-.1-.2.3 1.1-.1 1 0-2-.5-.1-.4-2.2l-.4.8v-1.1c-.4 2-.4-.9-.8-.3 0 .2.1.3 0 .5-.1-.2-.4-.4-.2-.9-.2 0-1-.5-.7.6 0-.6.3-.1.4.1-.1.9-.4.5-.5 1.5 0-.1 0-.3-.1-.4l-.1.6c-.4-1-.8-.3-1.1-1.6 0 .3-.1.5-.2.4v-1.1h-.4l.1 1.7c-.5.3-.8-1.6-1.2-1.9-.2 1.9-.7-.8-1.2.9l.3.5c-.6-.4-.8.8-1.4.1.5-.6.5-.2 1.4-1.8-.8.8-1.3-1.1-2 0 0 .5.2.8 0 1.2-.1-1-.7 0-.5-1.1-.2.4-.3 1.5-.4 1.6l-.7-1.4v.2c-1.3 2.6-2.3-1.9-3.5-.8v.6l-.3-.9c.2.6-.1.8-.2 1.3l-.7-1.4c0 .5 0 1.8.2 1.5-.3.6-.6-.7-.9-.8l.1.5-.3-.5v.8c-.4-.4-1 .4-1.1-.8v1.2l-.4-1 .2.8c-.5.2-1.3-.7-1.4-.7v.5c-.1.2-.2-.1-.2-.2v.7c-.8-.2-1.1 1.3-1.9.6-.2.2.1.2.1.6-.2.5-.4 0-.5-.3 0 1.1.4.8.1 1.6-.1-.3-.1 0-.1.2l-.2.2-.1-1c-.2.2-.1 1.1-.4.9-.3-.6.5-1.5-.1-1.8-.3.1-.7 3.1-1.2 2.4-.3.4-.2 1.1-.2 1.5l-.3.3c-.1.1-.2.2-.3.4-.2.3-.5.5-.7.8h-.2c.1-.1.2-.4.3-.3-.6-.7-.4-2.2-1.2-2.1.1-.4.2-.2.3-.4-.6.2-.3-1-.7-1.1l-.1.3c-.1-1.1-.9-.9-1.3-1.6v.2c.2.2.1.2-.1.2.1-.1.4-.5.2-.5 0 .1 0 .2-.1.4 0-.5-.3-.8-.7-1.1-.4-.4-.8-.7-1.1-1.1-.6-.3-1.1-.7-1.5-1.2-.5-.5-.9-1-1.5-1.3.2.1-.4.6-.4.4.5-1.2-.7-.3-.4-1.2-.8-.2-.6-1.4-1.8-1.2l.2-.3c0-.2-.2 0-.3-.1l.1-.1c-.1-.3-.6-.2-.6-.4l-.3.3c-.1-.1.2-.3-.1-.2l.1-.1-.4.1c.5-.5-.3-.3-.1-.7-.2-.1-.7-.1-.8-.4.2-.3-.1-.6-.1-.8-.4-.3-.9-.7-1.2-1.2l-.3.3-.1-.1.1-.1c.3-.4-.4-.2-.2-.5-.2.3 0 .1.1.2-.1.2-.5.4-.4.2l.1-.1-.3.1c.2-.2.3-.4.5-.7-.4-.3-1.1-.2-1.3-.7.3-.2-.3-.2.2-.6-.4-.1-.4.4-.8.6 0-.1-.3 0-.1-.2.1-.1.3-.3.4-.3l-.2-.1s.1-.1.2-.1c-.6-.1-.2-.9-.7-.9-.2.1 0 .2-.2.3-.6 0 .1-.5-.4-.6l.3-.2c-.3.1-.5.2-.4-.1.3-.3.4-.1.6-.1-.1-.1-.4-.3-.6 0-.2 0 0-.3.1-.4-.1.1-.1.3-.3.3 0-.3-.2-.6-.3-.8l.2-.2c-.5.2.2-.4-.1-.5-.6-.5-1.6-1-2-1.7-.5.2-.7 0-.9-.1l.5-.4h-.3c.1-.2.2 0 .3-.2l-.4.2c.2-.2-.2-.5.4-.5l-.4-.8c-.1-.2-.5.3-.5 0 .1-.2.2 0 .3-.2.1-.8-1.5.2-1.5-.4h.1c-.2 0-.3-.1-.4-.1-.5.5.4-.1.1.2-.5.3-.4 0-.7.3.1-.2-.2-.1-.3-.2.2-.4-.2-.4.1-.8-.2 0-.7.3-.9.1.3-.4.4-.2.4-.5l-.3.2c0-.2 0-.2.2-.3-.1-.2-.5.1-.4-.2l.3-.1c-.2-.1-.2-.1-.3-.3.2-.1.2 0 .2.1.3-.4-.3-.1-.3-.1-.1.1-.1.3-.4.4 0-.1-.5.1-.2-.2l.3-.1c-.4 0-.4.1-.5-.2 0 0 .1-.1.2-.1-.5.1-.2-.3-.4-.5h.1c-.2 0-.4.1-.4 0-.1.2-.2.2-.5.4.4-.5-.7.1-.6-.3.2-.1.4-.2.3 0 .5-.2 1-.5 1.3-.5-.2 0-.3-.1-.1-.2l-.5.3c0-.1-.1-.1-.1-.2-.3.2-.4.4-.7.4-.2-.1.4-.4.2-.3-.1-.1-.4.3-.3-.1h.1c.1-.3-.3-.3.2-.7.1-.1.3-.2.3-.1l-.1.1c.5-.1-.2-.1.3-.3-.3.2-.3-.1-.4-.2l-.2.3c-1.2.3.7-.4.4-.6-.3-.1 0 .1-.4.2 0-.2.2-.4 0-.5.1-.1.2-.4.6-.6-.2 0 0-.5-.5-.3-.2.4.5 0 .2.5l-.4.2c-.1-.2-.4-.3-.3-.5l-.2.2c-.3-.2-.7 0-.7-.3.3-.2.3-.1.4 0 .2-.3-.1-.2-.1-.5.3-.2.1.2.4 0l-.4-.3h.1c-.5.3-.1-.2-.3-.3-.2-.4-.9 0-1.4 0 .1-.1.2-.2.4-.3-.2.2 0 .1.1.1-.1-.1.3-.6.6-.6-.3-.1-.2.2-.4.2l-.1-.3c-.2.2-.2.3-.5.3-.1-.1-.1-.2-.2-.3.1 0 .4-.3.4-.1.1-.1 0-.3-.3-.2-.1.3-.4-.2-.7.2l.1-.3h.2c.4-.3-.2-.1-.3-.1 0-.1 0-.3.1-.4-.1 0-.1-.2.1-.3-.1 0-.3.1-.4.2l-.2-.4c.2-.1.8-.5.9-.5-.3 0-.7.3-.7.1.5-.1.2-.4.8-.5.3-.3.1-.5-.1-.6-.4.1-.1.3-.5.4-.3-.3-1.3.1-1.3-.3l-.1.1c-.3-.1-.2-.1-.6-.1.5-.2 1.1-.8.8-1-.2.1-.3.4-.7.5V36h.2c-.2-.1.4-.6-.1-.4l.6-.5-.2.2c-.2.1-.4-.1-.5-.1-.3-.1-.2-.3 0-.5-.2.1-.5.4-.7.3.7-.3.1-.5.5-.6 0-.1.1-.3-.2-.2l.5-.2c-.6.3-.7 0-.9-.1.9-.3-.2-.2.6-.6-.6.2-.4-.2-.9-.1-.1-.1.5-.3.6-.5h-.2c.2-.2.2-.5.3-.7h-.6l.2-.1c-.1 0-.3-.1-.4.1v-.1c-.6.2-.2-.1-.5-.1.1-.1.2-.1.3-.1 0-.1.3-.2.5-.3-.1.1-1.1.1-1.3.4-.2.1-.4 0-.4-.1l.5-.2-.7.1c-.1-.1.2-.3.2-.4.1.1 1.1-.1 1-.4.1.1.4.1.6.1 0-.1 0-.1.3-.1-.2-.2-.3 0-.5-.1.5-.1.6-.3.7-.5l-.3.2h-.1c0 .1-.1.1-.3.2 0 0-.7 0-.4-.2-.6.5-.7-.2-1.1.1-.1 0-.2-.1 0-.2.4.1.5-.3.8-.4-.2 0-.3.2-.5.2-.1-.1.2-.3.3-.4h.1l.2-.2c-.2 0-.3.3-.5.2.1-.1-.1-.2.1-.2.3 0 .7-.2.9-.1-.1-.1-.2-.4-.6-.1v-.1c-.2.1-.5.5-.6.2h.1l-.4-.1.2-.1H57c.1-.1.2-.1.4-.2-.1-.2-.3-.1-.5-.1-.1-.1 0-.2.3-.2 0-.2-.1-.4.1-.6-.3-.1-.1.1-.4 0 .8-.4.2-.7 0-1-.7.2-.1-.1-.8 0 .2 0 .5-.4.8-.2l-.1-.2c.4-.2.4.2.9-.1-.1-.2-.9-.2-.6-.4.5 0-.2-.1.4-.2.2 0 .1.1.2.1l.1-.1c.1-.4-.6 0-1-.2-.1-.2.4-.3.6-.3.1-.1 0-.2-.2-.2.3.1-.3.3-.6.3.6-.2 0-.4-.3-.4-.6.4 0 .3-.6.7.2 0 .7-.1.5.2-.3-.1-.3.1-.4.1.3-.1.1.1.3.2-.2.1-.7 0-.8.2l.7-.1c-.1.1-.5.1-.3.2-.4 0-.6.1-.7-.1-.6.4.4.4.7.6h-.2c.2 0 .2.1.3.2-.1.2-.3-.1-.5 0l.1.2c.1 0 .2.1 0 .2h-.7l.6.2c-.2 0-.4.3-.6.2l.2.4-.5.2c.1.1.2.1.2-.1-.1.2 1 .4 0 .6.5.2.4.4.7.7-.5-.2-.5.5-.7.2-.2.2.4.1.5.2-.2.2-.6.3-.9.2l.3.1h-.1l.3.1c-.4.2-.7.1-.7.3l.4-.1-.2.2c.2-.1.3 0 .4.1h-.1l.1.1c-.3-.1 0 .2-.4.2 0 .1 0 .1.2.3l.3-.1c.3.2-.4.2-.4.4l.3-.1c-.4.5.5.4.2.8-.1-.1-.5.1-.4 0 .2.2.2.5.7.6-.4.3-.6.3-.7.6.1.2.1.2.4.1-.1.2.3.4-.1.6.3-.1 0 .2.3.2l.3-.1c-.6.6.6.3.1.8h-.1l.2.1c-.1.1-.2.1-.4.1l.2.6.2-.2c.1.1.4 0 .3.3-.6 0 .1.2-.3.4l-.2-.1c.1.1.1.1.4 0 .2.1-.5.4-.1.4v-.1c.1-.2.4-.2.4-.1 0 0-.1.2-.2.1.2.1.1.4.3.4-.1.1-.3.2-.4.2.4.2 0 .2.4.4l-.2.1h.3l-.3.3.2-.2c.1.1.2.1.2.3l-.3.1c.3.2-.3.6.3.7h-.2c.5.1-.4.4.3.5-.1 0-.2.1-.3.1h.2l-.3.3.6-.2-.3.3h.2c-.6.5 0 .4-.4.9l.4-.3c1.1 0 .1 1.3.8 1.6l-.3.2h.5c-.2.3-.3.1-.5.2.3.1.6-.2.8 0-.1.3-.3.1-.4.1.3.2.7.4.6.7 0 0 .1 0 .1-.1.3.1.2.4.4.6-.2.1-.2.1-.3 0 0 .1 0 .2.2.2l-.4.2c0 .2.5.3.1.5.1-.1.4-.2.4-.1-.5.4.4.2.3.6-.1 0-.3-.1-.2 0-.1.2.2.1.4.1l-.2.1.6.3c-.5.4.3.4 0 .6.1.2.1-.3.3-.1-.2.2.2.1-.1.3h-.1l.1.1-.4.1c.2.1.5 0 .8-.2-.1.2.2.3-.1.5h-.1c.3.2-.5 1.1.2 1l-.1.1.1.2-.3.1.6.1-.2.1c.1.3.4.6.6.8h-.1c.5.1 0 .4.4.5h-.1l.1.2-.2.1c.4-.1-.2.7.1.4.2 0 .5 0 .7-.1.2.2-.2.2-.2.4.1.2.4 0 .4.3l-.2.1c.1.1.3.1.4.2h-.1c.5 0-.3.6.6.3-.1.2.2.3-.2.5.4.1.7.3 1 .5-.5.4.1 0-.1.4l.3-.2c.3.4 0 1.3.4 1.7l-.3.2.4-.1c.2.6.6 1.2.9 1.6.2 0 .7-.1.8.2h-.1c.4.2.8.5 1 .9-.1.1-.2.2-.3.2.4-.2.2.2.2.3l.1-.3c.3-.1.2.2.1.5l.4-.1s0 .1-.1.1l.2-.1-.2.6c.1 0 .4.1.8-.1-.1.1-.1.3-.2.3l.4.7V60c.3-.2.6-.2.5 0-.3.1-.4.3-.5.5.2 0 .2-.3.3-.4.3-.1.5.1.5.2h-.2c.2 0-.2.5 0 .6.3-.1.2.2.6-.2.2.1-.2.3-.2.4.3-.1.4.2.2.5.7-.5.2.7.8.2l-.2.4c.1-.1.5-.4.7-.3-.1.2-.3.5-.5.6l.6-.4c0 1.1 1.1 1.5 1.3 2.6.4.2 1 .3 1.3.7h-.1l.2.5v-.5h.3c.2.6.4 1.3 1.1 1.5.9-.3-.3.7.4.5-.1 0-.2.1-.2.2.5.1.8.1 1.4.1-.6.6.2.2-.1.5l.3-.2c-.1.2.1.4-.1.6l.4-.2-.2.3c.2.2.8.3.4.9.8 0 1.5.7 2 1.3.3-.2.5 0 .6.1l-.1.4c.2 0 .7-.3.7 0l-.1.1c.2 0 .2.3.6.1.2.1.2.4-.1.7.4-.5.3.3.3.3s1.9 1.9 4.8 3.4c.6.3 1.2.6 1.9.8-.7.3-1.9.6-2 .7.3.4 1.1-.3 1.7-.2.2.2-.7.2-.9.4l1.4-.1h.1c.2.2-1.3.2-.7.3-.8.3-.5 0-1.6.1.3 0 .8.1.3.3-.4.1-.5-.2-.6 0 .8.5-.7.9-.4 1.4l-.7.1c.2 0 .5 0 .2.1h-.5c0 .1 1 .5.8.9l-.8-.1 1 .2-1.2.2c1.2-.1.5.4.9.7l-.8.1.2.1h-.5c.1.2 1.4.2.8.5.2-.2-1 0-1.5.1l1.4.3c-.5.1-.7.4-1.3.3l.9.1-.6.1c-1 1 3.5 1.1 1 2.3H84l1.5.3c-.1.1-1.2.3-1.6.5 1.1-.2.2.3 1.2.2-.4.2-.8.1-1.2.2-1 .6.9.7.2 1.4 1.5-.8 1.1-.7 1.7-1.2.7.3-.4.6 0 1l-.5-.1c-1.6.5 1 .5-.8.9.3.2 2.2.2 2 .5l-1.7.1v.3l1.1-.2c.1.1-.1.2-.4.2 1.3 0 .6.4 1.7.5l-.6.1h.4c-1 .2-.6.4-1.5.5-.2-.1-.8-.2-.2-.3-1.2-.1-.6.4-.6.5.5-.2.7-.1.9 0h-.5c-.6.4 2.3 0 .3.5l1.1-.1-.7.3c2.1-.3.2.3 2.2 0 .1.2-1.2.2-1 .2-.4.3 1.6.4.6.7.8.1.3.4.8.5l-.9.2c.2.1.7.1.6.2h-.4c.6.3.7.5.8.8-.6.1-1 .1-1.2 0-.8.4 1.3.5 1 1h-.5l.8.1c-.3 0-.6.1-1 .1-.1.4 0 .9 1.8.8-.5 0-1 .3-1.8.2 1.3.2 1.1.7 1.5 1.1h.1l.5.1h-.2l-.5.4c.2.1.5.3 1 .3-.3.1-1.1.2-1.4.4 1.1-.2-.9.7.4.7-.3.1-.2-.1-.6.1.3.5 1.8 1.1 1 1.9 2.2-.3 1.7.3 2.8.5-1.3.3-.7-.1-1.7 0 .3.1-1.6.3-.5.5-.2 0-.4.1-.4 0-.1.2 1.6-.3 1.2.1l-.9.2h1.2c-.5.7.3 1.1-.5 1.8.2 0 .6-.1.9-.2 0 .2 1.6.3.7.7h-.4c-.7.6 1.2.3 1.6.8.1-.1-.6-.3.4-.5.7-.1.6.2.1.4l1.2-.2c-.8 0-.7-.2-1.1-.3h.6c-.4-.1-.4-.3-.8-.4l-.1.3c-1.2.1 0-.5-.5-.5 1.1-.2 1 0 1.9-.3.3-.5-1.2-.1-2.3-.3l-.4.1c-.2-.1-1.4 0-.6-.4.8-.1.8 0 1.1.1.4-.1-1.4 0-.6-.3 1.1 0 1.5.2 1.6.5.3-.1.7-.1 1.1-.2-1-.5-2.5-1-1.9-1.8 1.5.1 0-.2 1.5-.3-1.1.1-.1-.2-.6-.4 1.1-.2.9.2 1.7 0-.3-.3-2.5-.4-2.1-1 .5 0 .5.1.8 0-.4-.2-3.1-.2-1.4-.7.7 0 1.4.1 2 .2 0 0 .1-.1.4-.2h.8c.2-.4-1.8 0-2.9 0l1.1-.4c.6-.5-.1-.8-1.7-.8 0-.1 0-.4 1-.4 1.5 0 2.4-.1 2.5.3-1 .2-1.2-.1-1.2 0 .2.1-.5.6.4.5l-.2-.4c1.5-.2.1.2.9.1 1.2-.3-.2-.3.5-.6h.1c-.3-.3 0-.3-.7-.5-1.4.2-.8.2-1.3.5-.1-.5-2.8-.9-.5-1.8l1.2.1c.2-.2-1.1-.4.6-.7-.5.3.5.1.8.1h-.1c.1 0 .3.1.5 0-1 0-1.3-.3-1.9-.4.4 0 .9-.2 1.2-.3-.3-.2-.8.1-1.3.2-.1-.1-1.1-.1-.2-.3.7-.3.8.1 1.5 0l-1.3-.4h.2c-.3 0-.5-.1-.3-.2.6-.2.8 0 .6.1.9-.5-2.1-.2-.3-.8l-.6-.1c.2 0 .5-.1.5-.1l-.3-.3c-.6-.2 1.3-.3 1.6-.4.2-.1.7-.3.9-.2l-.9-.2c-1.1 0-1.5-.4-3.5-.1.1-.1.5-.2.8-.2-.2-.2 1.6-.2 1.2-.5.4-.1.3 0 .5 0 0-.1-.1-.1-.3-.1.2 0 .5-.1.8-.2-.8.1-.6-.1-.5-.2l1.3-.1c-.6 0-.8 0-.6-.2h.8c-.3-.2-1.7.3-1.1-.2l-.7.4c-.3-.3-1.9.1-2.7 0-1.3-.2.9-1-1.7-.8.8-.2 1.1-.2 1.8-.4.4.2.7.2 1.9.2 1.3.2-3.1.6-1.1.8 1.1-.2 1-.3.5-.4.9-.2 1.5-.1 2 0-.5-.2.6-.8.4-.9-.5 0-1.2-.1-.9-.3-.7.1-1.3-.2-2.7.1-.4-.2 1.9-.5.3-.5 1.2-.1.8-.3 1.9-.4-1 .3.7.3 1.5.4l.6-.5c-.3.2-1.1.1-1.2.1l1-.2c-2.4.3 1.6-1-1.2-.8.2.1-.7.4.6.2-.7.4-1.8.2-2.6.5-1-.2.4-1.1-1.4-1.2.8 0 .7.2 1.7 0 .3-.2-.2-.3-.9-.4.1-.1.2-.1.3-.2.1 0 .2 0 .3-.1h-.2c.4-.1.1-.1 0-.2l.1-.1c.1 0 .2-.1.5-.1-.1.2-.2.4-.3.5.2 0 .4-.1.7-.4.1-.9.9-.4 1.2-1.4.3.3-.2 1-.3 1.6-.2.2-.7.2-.7.8.9-.6.8-1.2 1.8-2v-.4c.7-1 .5 0 .7-.2-.1.3-.4.2-.8.9 0 .4.6-.2.4.2-.6.6-.3.4-.9.9.4.3-.6.8-.6 1.4.2-.1.6-.7.6-.4.5-.8.6-1 .4-1.3.9-1 .2.5.8 0-.1-.2.1-.2-.2-.2.6-.9.7-1.1 1.5-1.8-.4.1-1.1 1-1.2.6.6-1 .8-.5 1.7-1.7.6-.5.5.2.3.7.8-.6 1.1-.4 2.1-1.3-.1.5 1.1-.2 1.2.3-.3.6.1.6-.5 1.1.2-.2.5-.1.8-.6-.2.2-.1 0-.2 0l.5-.6c0 .4.8-.3.6.2-.3.6-.5.1-.9.8.9-.9 1.8-.8 1.6-.3 0 .2-.6 1-.6 1.2l.3.1c-.2.3-.4.6-.6 1 0 .3.2 0 .4-.1-.1.7-.8 1.3-1.3 1.7v-.4c-.4.3-.4 0-.9.8.1 0 .4-.3.5-.5l-.2.5c.3-.3.7-.2 1.1-.8-.1.5.5.2.3.8.2-.5.5-.6.8-1.1l-.2-.4c.3 0 .8-.3.7.2-.3.3-.4.5-.6.9.3-.6.8-.4 1-1.2-.2.1-.4.2-.4 0 .5-.8.8-.8 1.2-1.2.3-.1.7-.2 1-.3 0 .3-.7 1.2-.1.8.3-.9 1.1-1.1 1.8-1.8-.1.5.8-.4.4.3-.3.2-.5 0-1 .5-.4.5-1 1.5-1.5 1.6.1.5.5-.3.9-.5h-.2c.2-.2.4-.7.5-.6.2.5-.2 1.1-.4 2 .2-.4.6-.7.7-.7-.1.7-.9 1.2-1.4 2.1.5-.5.5-.2.8-.6.1.1-.1.2-.2.5.4-.4.7-.6.8-.5-.2.2-.5.6-.5.4 0 .3-.6 1.2-1 1.6V89c-.5.5 1.3-2 .8-1.5-.2.1 0 .5-.2.6-.4.6-.2.3-.1.4.1.2-.1.8-.3 1.2 1-.7-.6 0 .4-.7.6-.6.8-.3 1.1-.3.4-.9.8-1.1 1.2-1.2-.2-.2.6-1-.1-.7l.5-.6c.1.1.1.5.2.6-.2.1-.2.3-.3.4h.6l-.3.4c.2.2.1.9.4.8-.2 0 .2-.7.5-.8.3-.2.6-.4.7-.3-.5.8 0 1-.9 1.6.6-.1.6-.3 1.2-.5h-.4c.4-.6 1.3-1.4 1.4-1.9.5-.2 1.1-1.3 1.5-1.2-.1.4-.9 1.1-1.2 1.1.1.1-.1.5.3.2-.3.5-.8.7-.9.9.1.2.2-.3.5-.4.8-.4-.5 1.1 0 .9-.1 0 0-.3.2-.5.3.3.6-.4 1.1-.5-.5.9-1.2 1.8-1.1 2.1l-.1-.1c-.2.5-.3.7-.2.8 1-.4 2.4-1.3 3.4-1.6l-.3.1c.2-.3.4-.2.6-.6l-.2.5c.5-.6.2-.8.7-1.3v.1-.3c.1.4 1.1-.6.5.5-.5-.2-1.4 1.7-2.1 1.7.4-.1-.4.7-.6 1 0 .2.4-.4.4-.1-.3.4-.9.6-1 1 .5-.7.5-.4 1-.9 0 .3-.3.4-.4.7.1 0 .3-.3.3-.1l-.3.4c-.2.8.6-.6.8-.1.4-.5.2-.5 0-.5.8-1.3 1.4-1 2.4-2.3.5 0-.5.4-.5 1-.5.9-.9.7-1.4 1.3l-.1.7c-.9 1-.8.5-1.6 1.5.2.2.3-.1.8-.3.3-1.1.6-.6 1.2-1.7 0 .4-.3.6 0 .7-.3.1-.7.9-.9.7.4.1.5-.1.8 0 .7-.7.4-1.2 1.2-1.5.1.1-.1.3-.2.3 0 .5.6-1 1.1-1.2.2 0 0 .3-.2.5.5-.3.8-.9 1-.9V89c.2-.2.9-1.3 1.2-1.2.2.1-.2.5-.4.8.3-.2.3.1.2.5.1-.2.2-.3.3-.3.4-.1-.3.7-.3.9.1.6 1-1.4 1.4-1.2l-.3-.6c.3-.3.7-.9.6-1-.4.5-.9.9-1 .7.4-.7.9-.4 1.2-1.3 0 .2.3.1.3.2-.6.6.3.4-.5 1 .6.2.3.7 1.1.5-.3.4-1.4 1.3-1.4.8l.3-.4c-.6.2-.1.6-.6 1.2 1.1-.8.4 1.1 1.1 1 .2-.4.4-.5.7-.9-.2 0-.3.1-.1-.4.4-.5.4-.2.7-.5.4-.5-.1-.1 0-.4.4-.2.4-.2.8-.6-.2.5-.4.7-.7 1.2.3.4 1-.6 1.2-.2-.1-.2-.3.6-.4.3l.1.1c-.9.6-1.3.2-2.2 1.5.3.1 1-.5 1.3-.4l-.2.2c.2.2.2-.3.4-.5.6-.3-.6 1.4.2.7l-.1-.4c.6-.4 0-.1.7-.9.8-.4 1 .4 1.9.1.2-.5.2-.6 0-.7.9-1.1.9-.9 1.5-1.9l-.2-.2.8-1.1c.1 0 .1.1.1.3.5-.6.2.4.6-.2h-.2c.3-.6.5-.4.7-.5.4-.8-.4-.2-.7-.4-.3.4-1.1 1-.9 1.3-.3.4-.6.6-.7.5.2-.2.7-1.3 1.1-1.4-.6.3-.1-.1-.5 0 .3-.3-.4-.3.3-1.2-.4.3-1 1.4-1.3 1.2-.4.7-.2 1-.9 1.5l.5-.3c0 .4-.5.6-.5 1.1 0-.1-.5.1-.1-.3-.9 1.4-.9.4-1.6 1.4.2-.4.2-.5 0-.5.3-.3.5-.8.8-.9 0 .2.2.1.1.4.9-1.4 0-.7-.1-1.1 0 .1-.1.3-.3.4 0-.3-.1-.8.4-1.3l-.8-.4c.2-.3.2-.1.3-.1l-.4-.3c.2-.5.5-.3.8-.7l-.3-.2.3-.4c-.3.2-.7.1-.3-.6-.5 0-1.5 1.3-1.4.4.5-.7.4-.1.8-.4.1-.3-.5 0-.1-.7-.6.2-1.5 1.4-2.1 1.9-.3-.1.4-.6.5-.8 0-.1-1.1 1.1-.5.1-.5.4-1 .9-1 1.3-.1-.1-.6.1-.8.4.9-.9.1-.5.7-1.3-.1-.3-.3-.9-1.3 0l.9-1-.3-.1c.3-.8.7-.5.9-.5-.2-.3-.5-.4-.8-.6-.1.3-.3.5-.5.8-.4.4-.3-.1-.5 0 .2-.3.4-.5.5-.5h-.3c.5-.7.4-.7.9-1l-.3.1c-.1-.3.4-.5.6-.7l-.2-.3c-.4.3-.4.6-.7.7.2-.8-.4-.9-.6-1.3l-.2.8c-.1-.3-.8.8-1.2 1.2-.1-.2-.4-.4-.3-.8.6-.4 1.1-1.2 1.3-1.8-.3-.4-1.1.9-1.6 1.1 1.2-1.2.1-.6.7-1.3-.5-.3-1.3-.2-1.8-.6-.1.2-.1.5-.4.6-.3.1 0-.5.2-.8-.3-.1-.8.3-1.1.6.2-.1.1.1-.2.5-.3-.1.4-.9-.3-.4.5-.8.5-.2 1-.9-.2-.2-.5 0-.9.2.3-.5.2 0 .4-.5-.6.1-1.3.3-1.7.3l.4-.6c-.2-.1-.4 0-.7.2.1-.3.2-.4.4-.4v.1c.3.1.9-1 1.3-.5-.1-.5-.4-1.1-.3-2 .2.5.4.5.5-.5-.6-2-.3 2.4-.9 1.2-.1-1.2-.3-1.5-.6-1.9.2-.7.1-1 .2-1.8.3 2.6 1 .3 1.5 1.6.2.8 0 2.4.5 2.7l-.5.8c.5-.7.1.8.5 1.1l-.1-.8c.2-.2.3 0 .4.6l-.2-1.3c.1-.2.4-.3.4.5 0-.3.1-.6.1-.8 0 .2.1.4.2.3-.1-.2-.2-.1-.1-.5.6.3.2-1.4.5-1.3 0-.3.1-.7.2-.8-.1 2 .6 2.3.8 3.5l.5.8c-.1-.2 0-.7.2-.9.2-.3-.1-2.2.3-1.6l.2.6v-.5l.2.6c.5-1.9.7 1.1 1.2.2-.1.2-.3 0-.2-.6.1-.2.2 0 .3.3v-.2l.8 1.3c0-.7-.5-.8-.3-1.5.2-.9.4.1.5.1 0 .5-.3 1-.1 1.3 0-.3.3-.8.2-1.2.3.6.7.9.9 1.9.1-.2 0-.5-.1-.5v.2c-.2-.3 0-1.4-.3-.8 0-1.8.5-.5.8-.7l-.4-1.2c.9-2.4 1.9.3 2.7.3-.3.5-.4 0-.5 1.4.5.7.4.4.9.7v-.1c.3-.7.6.7.8-.5-.1-.8-.4.7-.3-.8l.6.1c-.2-.9-.6-.1-.9-.4-.2.1.3.2.2 1.2-.6-.1-.7-1.1-.9-2.5-.1-1.1.3-1.1.4-1.1.3 1.6.8 2.4 1.5 1.7l.4-1.1c.3 1.1.1 3.1.6 2.9l-.1-.8c.1-.3.2-.4.3-.4-.2-.6-.4-1.4-.6-2 .4-1.8.8.9 1.3 1.3 0-.2-.2-.3-.2-.8.7-.4 1.3 1.7 1.8 2 .2-.8-.4-.5-.3-1.7.3.5.6-.5.6.5-.1-1.5.6-.1.2-1.5 1-.6 2 .8 2.9 1.7v-1.1c-.3 0-.8-.4-.9-1.5.2-.8.5 1.1.6.6-.1-.4-.3-.4-.3-1.1.3-.8.4.4.6.5l-.1.4c.6 1.1.2 2.7.9 2.3.3-.9 0-.8.1-1.9.1.5.7-.8.8.4l-.4.1c.3.3.5.3.7.7 0-.2 0-.5-.1-.6.2.4.5.3.6 1.1l.1-1.2c-.2.5-.6.6-.6-.1 0-2.2.4-1.5.5-1.6zM93.3 88.3h.6l-.7.2.1-.2zm-.6-3.3l-.1.1c-.2 0-.1-.1.1-.1zm-.3.3c0 .1-.1.1-.1.2-.2 0-.5.1-.5 0 .1-.1.3-.1.6-.2zm-2.2-3c-.1 0-.2.1-.2.1.1-.1.1-.1.2-.1zm-3.9-2.2c.2.1.5 0-.1.3-.3-.1-.2-.3.1-.3zm-1.7-.1c.2.1 1.7-.2 1 .2-.2-.1-1.7.1-1-.2zm1.4 5.3c1.3-.1 0 .2.6.2h.2-.2c-.5.1-1.7.2-.6-.2zm0 4.4c-.1.1-.1.1 0 0l-.1-.1c.7-.1.2 0 .1.1zm1.4-.6c-.8.1-.9-.1-1.5-.1.1-.1.8-.1 1.3-.1.1-.1 0-.1-.2-.1 1.6-.2-.5.2.4.3zm-.3-4c-.1.1-.8 0-.5-.2.6-.1.4.2 1.1 0l.1-.1c-.2.2 1.5-.2.7.2l.1-.1c-.3.1-1.2-.1-1.5.2zm1.2 2c1.8-.2.1-.3 0-.4.3.1 2.1 0 1.2.4L89 87v.1h-.7zm.5 7.9l-.2.1.2-.1.5-.4c1.4 0 0 .2-.5.4zm.6 2.2H89c-.2 0-.4.1-.5 0h.5c.4-.1.8-.3.4 0zm.7-.3c-.4 0-.6-.3.1-.4.1 0 0 .3-.1.4zm3.1 3.8l-.4.2-.1-.1.5-.1zm-.4 2.1l.1.2-1 .1.9-.3zm.2-4c.1 0 .2-.1.3-.1 0 0-.1 0-.3.1-.5.2-.8.7-.6.9-.5.2-1.4 0-1.8 0 3.1-.4-.2-.3.9-.6.3 0 .2.1.7.1.3-.1.4-.2.1-.3h-.4.4c.3 0 .5-.1.7-.1zm1.6-2.9l-1.3-.2h.7l-.6-.1c.8-.1 1.8 0 1.2.3zm-1-.9l.5.3h-1l.7-.1-.2-.2zm-.6 1c.1 0 .2 0 .3.1-.1-.1-.2-.1-.3-.1-.3 0-.6.2-1 .1.4-.1.7-.1 1-.1zm-.8-1.1l-1 .2c.1-.1 1-.2.4-.3-.7.1-2.3.3-1.8 0 1.2 0 1.8-.1 2.4.1zm-.9-5.5c-.3 0 .1-.1-.2-.1-.7.1-.6.1-.6 0-.1 0-.1 0-.1-.1l.1.1c.2 0 1.4-.2.8.1zm.6-.5c-.4 0 .4-.5-1-.3 1.6-.4 1.3.1 1 .3zm1.2-2.3l.5.1h-.2l-.4-.1h.1zm1.3-1.6c-.2.2-.3.4-.5.6-.8.1-.8.3-.8.4-.1.1-.1.2-.2.3-.6-.1-1.3-.1-1.8-.2l1.3-.1c-.6-.1-.4-.1-.2-.2v.1c.2.5 1.2-.9 1.3-.6.2-.3.1-.3 0-.4.4-.3.5-.8.8-1-.4.8-.1 1 .1 1.1zm3.7-19.4c.3-.7.2.8.4 1-.3.7-.2-.9-.4-1zm.4 1.6c.1-.3.2-.4.4-.2-.3.7-.3.5-.4.2zm7 1.1l.1-.2c.1-.8-.2-.5-.2-1.1.2-.3.5.3.4.5-.3.4.1 1.2-.1 1.6l.2-.1c-.3.9-.2-.9-.4-.7zm1-1.4c-.2-.6-.3.8-.4-.5.2-1.1.3.1.4.5v0zm6 3.5c.1 0 .2-.1.1.6.1.3.2-.1.2.2-.2.7-.1-.5-.3-.8 0 0-.1 0-.1-.1.1 0 .1.1.1.1zm-.2-4.4c0-.1.1-.1.1.1l-.1-.1c-.1.1-.2.6-.2-.1l.2.1zm-3.2 2.5v.7l-.1.1.2.5c-.4.9-.6-.8-.7-1.1.2 0 .6 1.6.6-.2zm-1.2 5.8c-.1 0-.1.1-.2.1l.2-.2v.1zm3.2 1.2h-.1c.2-1-.8.8-1.1.5 1.2-1.6-.4-.5-.4-.9l-.1.3c-.7.5-.5-.3-.3-.8-.2-.3-.6-.5-1.2-.3v-.1l.1-.1h-.1c.2-1.1.5.7.6-.8-.2.3-.6-.1-.7.8-.4.1-.3-.4-.8-.1.1-.1.3-.3.3-.4-.1-.2-.2-.3-.3-.4 0-.4 0-.9.2-1 .1 0 0 .5 0 .6.5.4.3-1.1.7 0v-1.3c.5.9 1 3.2 1.5 2.6 0-1-.3-.9-.4-1.7.6 1.8 1.5.3 2 1.3 0 .6.1 1.2.1 1.8zm-1.9-2.1v-.2l.3.5v.2l-.3-.5zm2-6.3c.1.2.1.2.2.1 0-.5-.2-1.1 0-1.3.1.5.4.7.3 1.4-.3-.7-.5 1.4-.5-.2zm.6 6.9l-.1-.6.2-.2-.1.8zm-.2-3c0 1.5.6.6.6 1-.2.3-.8.6-.6-1zm2.2 5.3c-.2-.1-.7.1-.9.1.3-.3.2 0 .4-.2-.1-.1-.3-.1-.6 0-.2-.8-.5-2-.7-1.1-.1-1.1.3-.7.2-1.9.4 1.7.3-.7.7-.3-.3 1.4.4 2 .3 2.7.2-.3.4.3.6.7zm6.3-7.6l.5-.5c0-.1.1-.2.2-.2l-.2.2c-.3.5-.3 2-.5.5zm.8 3c-.3-.6-.3-1.2-.6-2.4.4-.5.4 1.1.3 1.8.2.6.2-.2.3-.4v1zm1.1 1.8l-.6-.4.6.3v-.7l.1.8h-.1zm.2-.8l.3.6-.2-.7.5 1.3c-.3.6-.6-.3-.6-1.2zm.5-.4c-.1-.2-.1-.6-.1-1 .2.4 0 .7.1 1 .1.1.1.3.2.3-.2-.1-.2-.2-.2-.3zm.2-2.8c.1-.7.5-.5.6-.2-.2.1-.6.3-.6.2zm.8-1.3l-.1-.5c.1.1.1.3.1.5l.1.4c-.4.4-.2 0-.1-.4zm4.1 3.1c-.3-.2-.9.1-1.1.7 0 .2 0 .3-.1.3 0-.1.1-.2.1-.3v-.7c0-.1-.1-.2-.1-.4 0 0 .1.2.1.4.1.2.3.1.4-.2 0-.5-.2-.4-.3-.7.3-1.1.8 2.2.7-.9.1.5.5 1.3.3 1.8zm1.8.8l.1-.5.2.1-.3.4zm2.8-.7l.2-.9.1 1-.3-.1z"/><path class="st0" d="M113.2 75.5c0 .1-.1.2-.1.4.1-.1.1-.2.1-.4zM113.8 76.5c0-.1 0 0 0 0zM135.9 74.8c.1 0 .3.8.2-.2-.1-.5-.1.2-.2.2zM135.6 73.6c-.1-.1-.2-.3-.3-.6.1.5.2.6.3.6zM135.6 73.6c.1.1.3.1.4-.1-.2-.4-.3 0-.4.1zM133.4 73.5s-.3.3-.4-.3c.2.9.1 1.7.5 1.9-.1-.5-.7-1.1-.1-1.6zM132.2 72.8s.1 0 .2-.1c-.1.1-.1.1-.2.1zM131.7 72c.1.5.1 1.2.3 1.4 0-.7.1-.6.2-.6-.2-.1-.3-1.2-.5-.8zM125.6 76.9h.3c0-.4-.1-.4-.1-.5-.1.2-.3.3-.2.5zM124.6 74.6l-.2-.6-.1 1.3c.2.2.1-.8.3-.7zM125 68c0 .1 0 .1.1.1l-.1-.1zM123.4 77.3l-.1-1.4c0-.1-.1 1 .1 1.4zM122.4 77.2l-.1-.4h-.4zM121 76.3l.1-.3h-.4zM54.2 31.6v-.2.2zM58 44.5h.2c-.1-.1-.1-.1-.2 0zM57.4 29l-.2.1c.1 0 .2-.1.2-.1zM54.9 27.7s.1 0 .1.1c0-.1 0-.1-.1-.1zM58.5 30.2c.3 0 0 .3.3.2-.1-.1 0-.2-.3-.2zM74.5 67zM74.7 67.7h-.1c0 .1 0 0 .1 0zM57.9 44s-.1 0 0 0zM65.8 44zM65.4 44c0 .1.2.1.4 0-.1-.1-.2-.1-.4 0zM64.1 40.6zM67.6 45.8zM64.1 40.5v.1c.1 0 .2-.1.3-.1h-.3zM67.9 45.6c-.1 0-.2.1-.2.2l.2-.2zM58.3 31.7s.1 0 0 0c.1 0 .1 0 0 0zM63 40.1h-.2.2zM58.5 31.8v.1c.1 0 .1 0 0-.1zM58.8 30.9v0zM60 36c.2 0 .1 0 0 0zM59.3 32h.1zM58.8 30.4h.1-.1zM59.8 34.2c-.1 0-.2.1-.3.1.1 0 .1 0 .3-.1z"/></g></g></g></svg>