<?xml version="1.0" encoding="utf-8"?>
<!-- Generator: Adobe Illustrator 19.2.0, SVG Export Plug-In . SVG Version: 6.00 Build 0)  -->
<svg version="1.1" id="Слой_1" xmlns="http://www.w3.org/2000/svg" xmlns:xlink="http://www.w3.org/1999/xlink" x="0px" y="0px"
	 viewBox="0 0 629.4 522.4" style="enable-background:new 0 0 629.4 522.4;" xml:space="preserve">
<style type="text/css">
	.st0{fill:#FFFFFF;}
	.st1{fill:#2E0B01;}
	.st2{opacity:0.55;fill:#2E0B01;enable-background:new    ;}
	.st3{opacity:0.2;enable-background:new    ;}
	.st4{fill:#44A3BC;}
	.st5{fill:#CB242D;}
	.st6{fill:#DC5B2B;}
	.st7{opacity:0.5;}
	.st8{fill:#C5CB79;}
	.st9{fill:#E2001A;}
	.st10{fill:#B70718;}
	.st11{fill:#EFB886;}
	.st12{fill:#BBDBE8;}
	.st13{fill:#50542E;}
	.st14{opacity:0.1091;fill:#FFFFFF;enable-background:new    ;}
	.st15{opacity:0.5;fill:#CB242D;enable-background:new    ;}
	.st16{opacity:0.6;}
	.st17{fill:#EC9488;}
	.st18{fill:none;stroke:#50542E;stroke-linecap:round;stroke-miterlimit:10;}
	.st19{opacity:0.2;fill:#55721A;enable-background:new    ;}
	.st20{fill:#55721A;}
	.st21{fill:none;stroke:#FFFFFF;stroke-miterlimit:10;}
	.st22{fill:none;stroke:#C5CB79;stroke-width:2;stroke-miterlimit:10;}
	.st23{fill:#CDC09E;}
	.st24{opacity:0.1;fill:#44A3BC;}
	.st25{opacity:0.9;}
	.st26{opacity:0.9;fill:#44A3BC;enable-background:new    ;}
	.st27{opacity:0.1091;fill:#44A3BC;enable-background:new    ;}
	.st28{opacity:0.1091;fill:#55721A;enable-background:new    ;}
	.st29{opacity:0.4;}
	.st30{opacity:0.9;fill:#55721A;enable-background:new    ;}
	.st31{opacity:0.4;fill:#55721A;}
	.st32{fill:#D95929;}
	.st33{fill:#F68D1A;}
	.st34{fill:#FFC73B;}
	.st35{fill:#FABC14;}
	.st36{fill:#FCAD17;}
	.st37{fill:none;stroke:#FFFFFF;stroke-width:2;stroke-miterlimit:10;}
	.st38{fill:none;stroke:#44A3BC;stroke-width:20;stroke-miterlimit:10;}
	.st39{fill:none;stroke:#44A3BC;stroke-width:20;stroke-linejoin:round;stroke-miterlimit:10;}
	.st40{fill:none;}
	.st41{fill:#3B5998;}
	.st42{fill:none;stroke:#000000;stroke-width:2;stroke-miterlimit:10;}
	.st43{opacity:0.6;fill:#333333;}
</style>
<g>
	<g id="XMLID_59_">
		<path id="XMLID_158_" class="st19" d="M375.7,15.7c-1.6-2.2-4.9-2.2-6.5,0c-4.9,7.6-5.9,14.6-6.5,23.7c-1.1,14-4.3,27-10.3,39.9
			c-7,15.7-19.4,25.9-14.6,45.3c1.1,3.2,5.4,5.4,8.1,3.2c14-8.6,23.2-30.2,29.7-45.3C384.9,62.6,388.7,34,375.7,15.7z"/>
		<g id="XMLID_65_">
			<path id="XMLID_154_" class="st19" d="M507.9,273.6c-13-5.4-28.6-5.4-42.6-8.1c-17.8-3.2-36.7-10.8-52.9-18.3
				c-16.2-8.1-27-18.3-38.3-31.8c-4.3-4.9-8.1-8.6-12.4-11.9c-2.7-2.2-5.4-4.9-8.1-6.5c-1.1-0.5-2.2-1.1-2.7-1.1
				c-3.2-2.2-6.5-3.8-10.3-5.9c-5.9-3.2-13.5,3.8-9.7,9.7c0.5,1.1,1.6,2.2,2.2,3.2c3.2,9.7,10.8,17.8,16.2,26.4v2.2
				c0.5,5.4,0.5,10.8,3.2,15.1c1.6,2.7,13.5,8.6,13.5,9.2c0,2.7,1.1,5.4,2.7,7c-0.5-1.1,0-1.1,1.1,1.1c0.5,1.1,0.5,2.2,1.1,3.2
				c2.2,6.5,11.3,8.1,15.1,3.8l4.3,4.3c3.2,3.2,6.5,7,10.3,10.3c4.3,3.8,9.7,2.2,12.4-1.1c4.9,3.8,13,4.3,16.7,8.1
				c3.8,3.2,10.3,2.7,13-1.1c0.5,0,0.5,0.5,1.1,0.5c2.7,2.7,7.6,4.3,11.3,6.5c5.9,3.2,13-2.2,10.8-8.6c0-0.5,0-1.1-0.5-1.1
				c0.5,0.5,1.1,1.1,1.6,1.1c2.7,1.1,11.3,2.7,13.5,4.3c6.5,3.8,13-3.2,10.3-9.2h0.5c4.9,4.9,4.9,4.3,14,3.2
				C514.4,287.1,515.5,276.3,507.9,273.6z"/>
			<path id="XMLID_68_" class="st19" d="M369.2,262.8l-1.1-1.1C368.7,262.3,368.7,262.8,369.2,262.8
				C369.2,263.4,369.2,263.4,369.2,262.8C369.2,263.4,369.2,263.4,369.2,262.8z"/>
		</g>
		<path id="XMLID_64_" class="st19" d="M620.2,227.2c-3.2-5.9-10.3-11.9-17.3-13c-7-11.3-13.5-23.2-24.8-31.3
			c-13-9.7-28.1-15.7-42.1-24.3c-11.3-6.5-20.5-11.9-34-11.3h-0.5c-1.1-0.5-1.6-1.1-2.7-1.1c1.1-3.8-3.2-6.5-5.9-7
			c-4.3-1.1-8.6,0-13.5-0.5c-2.2-1.1-4.3-1.6-6.5-2.2c-4.3-1.1-9.7-1.1-14-2.7c0-1.1-0.5-1.6-0.5-2.7c-1.1-1.6-3.8-2.2-4.9-0.5
			c-4.3,0-7,4.9-3.8,8.1c7,7.6,20.5,7.6,29.7,11.9c5.4,2.7,11.3,3.8,16.7,6.5c1.1,1.6,2.7,3.2,5.4,3.2c1.1,0,1.6,0.5,2.7,0.5
			c4.3,2.2,8.6,4.3,14,5.4c1.1,0,1.6,0,2.2-0.5c16.2,5.9,32.4,15.7,45.3,23.7c11.9,7,22.7,23.2,27.5,35.6c3.2,8.1,0.5,15.1,4.3,23.2
			c2.2,4.3,9.7,4.3,11.9,0C613.2,241.8,624.5,234.8,620.2,227.2z"/>
		<path id="XMLID_63_" class="st19" d="M348.7,320.6c-1.6-1.1-3.2-2.7-4.3-3.8c2.2,0,3.8-1.6,4.9-3.8c4.3-2.2,5.4-9.2,1.6-12.4
			c-1.6-1.6-4.3-3.8-7-5.9c-1.1-1.6-2.7-3.8-3.8-5.4c5.4,0.5,10.8-3.8,9.2-9.7c-2.2-8.1-9.2-10.8-15.7-14c2.2-2.2,3.2-5.9,1.6-9.7
			c-2.2-4.9-6.5-9.2-10.8-12.4c-8.6-5.4-13-15.7-20-23.2c-3.8-3.8-9.7-2.2-11.9,2.2h-3.2c-7-1.6-24.3-4.3-26.4-3.8
			c-4.3,0.5-8.6,4.3-7,9.2v1.1c-3.2,1.1-5.9,3.2-7.6,5.9c-6.5,1.1-15.7,2.2-18.9,9.2c-1.6,3.2-1.1,5.4,1.1,8.1
			c-3.2-3.8-14.6-0.5-18.3-0.5c-10.3,0.5-16.2,7-22.7,14c-2.2,2.7-2.2,5.9,0,8.6v0.5c-8.6,3.2-16.2,5.9-23.2,6.5
			c-4.3,0.5-4.9,7.6,0,7c28.6-1.6,56.1-21.6,85.3-18.9c17.8,1.6,32.4,4.9,45.9,18.3c4.9,4.9,5.9,13,6.5,20
			c-3.8,31.3-10.8,61.5-39.4,83.1c-14,10.8-31.3,19.4-44.3,31.8c-8.1,7.6-12.4,18.3-21,25.4c-0.5,0.5,0,1.6,1.1,1.6
			c12.4-2.7,17.8-12.4,27.5-20.5c4.3,1.6,7,2.7,11.3,1.6c2.2-0.5,3.8-2.7,3.8-4.9c0-3.8,8.1-5.4,15.7-7.6c0.5,1.1,2.2,1.6,3.8,0.5
			l4.9-3.2c2.2,2.7,7,3.2,9.7-0.5c4.9-7,11.3-13,15.1-21c2.2-1.1,4.3-1.1,6.5,0c1.6,1.1,3.8,0.5,5.9,0c0,1.1-0.5,2.2-0.5,3.2
			c-0.5,3.8,5.4,4.3,6.5,1.1c1.1-4.3,2.2-8.1,3.2-12.4l1.6-6.5c3.2-3.2,5.4-6.5,7.6-10.8h1.6c3.2,1.6,7.6,0.5,8.6-3.8
			c0.5-1.1,0.5-1.6,0.5-2.7v-0.5c0.5-8.1,1.6-17.8,3.8-26.4c0.5,0.5,1.6,1.1,2.2,1.6c2.7,1.1,5.9,1.1,8.1-1.1
			c2.2-2.7,3.2-3.8,4.3-6.5C352.5,326.5,352,322.7,348.7,320.6L348.7,320.6z"/>
		<path id="XMLID_62_" class="st19" d="M308.3,171.1c-10.3-18.9-18.9-29.1-15.7-52.9c3.2-22.1,16.2-41.6,11.9-64.2
			c-0.5-3.2-5.4-3.2-6.5-1.1c-14.6,25.4-24.8,51.3-28.1,80.4c-0.5,6.5,0.5,13.5,2.7,20.5c-7.6-11.9-20-22.1-29.1-28.1
			c-43.7-28.6-118.2-34-164.6-7c-12.4,3.8-23.2,9.7-31.3,18.3c-0.5,0.5-0.5,1.6-0.5,2.2c-11.3,6.5-26.4,14.6-33.5,26.4
			c-1.6,3.2-15.1,15.7-9.7,14c-3.2,1.1-4.9,4.9-3.2,7.6c0,0.5,0.5,0.5,0.5,1.1c1.6,1.6,3.2,2.2,4.9,2.2h0.5c2.2,0,3.8-1.1,4.9-2.7
			c0,0.5,6.5-3.2,8.6-4.3c5.4-3.2,11.3-14,13.5-15.7c4.3-3.2,8.6-4.9,13-8.6c27-21.6,62.6-23.7,95-29.7c9.7,0.5,19.4,1.6,29.7,3.8
			c19.4,3.8,39.4,8.6,57.2,16.7c8.1,3.2,36.7,22.7,22.7,32.9c-2.2,1.6-4.3,4.9-3.2,7.6c0,0.5,0.5,1.1,0.5,1.1
			c1.6,3.8,5.4,5.9,9.2,3.8c0.5-0.5,1.1-0.5,2.2-1.1c-1.1,3.8,2.2,0.5,4.9-3.2c6.5-4.9,13.5-11.3,13.5-17.3c0-1.6,0-3.2-0.5-4.9
			c7,12.4,16.7,23.2,27.5,27c3.8,1.6,8.1-2.2,8.1-5.9C313.7,181.3,312.6,179.2,308.3,171.1z"/>
		<path id="XMLID_60_" class="st20" d="M286.1,358.4c0,1.6-2.2,1.1-2.2-0.5c-1.1-20-0.5-40.5-16.2-55.6c-10.3-9.7-21.6-18.9-34-26.4
			c-0.5,0-0.5-0.5-0.5-1.1c-9.2,10.3-17.8,23.7-24.8,36.7c7.6,1.6,11.9,10.3,15.7,17.3c6.5,12.4,7.6,23.7,8.6,37.2
			c0,1.1-1.6,1.6-2.2,0.5c-2.7-9.7-2.7-20.5-7.6-29.7c-3.8-8.1-7.6-18.9-16.2-22.7c-5.9,11.3-11.3,22.1-15.7,30.2
			c-2.2,4.3-4.3,9.2-6.5,13.5c13,10.3,13.5,29.1,11.9,44.8c0,1.1-1.6,1.1-1.6,0c-1.1-15.1,0-31.3-10.8-43.2
			c-11.9,27-20.5,54-28.6,82.6c-0.5,1.6-2.7,1.1-2.7-0.5c3.2-27,11.3-54,22.7-78.8c-16.2,9.7-33.5,15.1-43.7,32.4
			c-1.1,1.6-3.2,0-2.2-1.1c9.7-16.2,27.5-27.5,45.3-32.4c0.5,0,1.1,0.5,1.1,1.1c5.9-13.5,13-26.4,20.5-38.9
			c11.3-18.9,33.5-66.4,59.4-65.3c0.5,0,0.5,1.1,0,1.1c-7.6,2.2-15.1,7.6-21.6,15.1h0.5C268.9,292.5,293.7,317.3,286.1,358.4
			L286.1,358.4z M626.7,232.1c-13.5,11.3-29.1,22.7-46.4,32.4h-1.6c-3.8,0.5-7.6,1.1-10.8,2.7c-1.6,1.1-2.2,3.2-0.5,4.3h-0.5
			c-1.1,1.6-3.2,2.7-5.4,2.7h-1.1c-1.1,0.5-2.7,1.1-3.8,1.6c-2.2-0.5-3.8-1.1-6.5-1.1s-4.9,1.1-6.5,2.7c-0.5,1.1-0.5,2.2,0,3.2
			c0,0-0.5,0-0.5,0.5c-1.1,1.1-3.2,2.2-5.4,2.2c-4.9-0.5-9.7-1.6-15.1-1.1c-1.6,0-2.7,1.6-2.2,3.2c0.5,1.1,1.1,2.2,1.6,2.7
			c-2.2,0.5-4.3,1.6-7,2.2c-5.9-0.5-11.9-1.1-17.3-2.2c-1.1,0-2.7,0.5-2.2,2.2c0.5,1.6,1.1,3.2,2.2,3.8c-1.1,0-2.7,0.5-3.8,0.5
			c-1.1-0.5-2.7-0.5-3.8-1.1c-6.5-1.6-12.4-3.2-18.9-3.2c-1.6,0-2.2,1.6-2.2,2.7c0,1.6,0.5,2.7,1.1,3.8h-0.5c-0.5,0-0.5,0.5-1.1,0.5
			c-2.2,0.5-5.9,1.1-10.3,0.5c-1.1-0.5-2.7-1.1-3.8-1.6c-3.8-1.6-7-3.8-11.3-4.3c-1.1,0-1.6,0.5-1.6,1.6c0,0.5,0.5,1.6,0.5,2.2h-0.5
			c-2.2-0.5-4.3-0.5-6.5-1.1h-0.5c-2.7-0.5-4.9-1.1-7.6-1.6c-1.1-0.5-1.6-1.1-2.7-1.6c-2.7-1.6-5.9-3.8-9.2-4.9
			c-1.1-0.5-2.2,0.5-1.6,1.6c0,0.5,0.5,1.1,0.5,1.6c-0.5,0-0.5,0-1.1-0.5c-1.1,2.2-4.9,2.7-6.5,0.5c-2.2-2.7-5.4-4.3-8.6-5.9h-0.5
			c-2.7-3.8-5.9-7.6-9.7-10.8c-1.1-1.1-3.8-1.1-4.3,1.1c0,1.1-0.5,2.2-0.5,3.2c-1.1,1.1-3.2,2.2-4.9,1.1c-2.2-2.7-4.9-5.4-7.6-8.1
			c-1.6-2.2-3.8-3.8-5.4-5.9c-1.6-2.2-4.9-5.4-5.9-8.1v-0.5l-0.5-0.5h-0.5h-0.5c0,0-0.5,0-0.5,0.5v1.6c-1.1,3.2-6.5,3.2-6.5-0.5
			c0-3.2-1.6-6.5-3.2-9.2c-4.3-4.9-8.1-10.8-10.3-17.3c-1.6-4.9-2.2-10.8-3.8-16.7c-4.3-7-8.6-14-15.7-18.3
			c-2.7-1.1-5.4-2.2-9.2-1.1c-4.3,1.6-7,4.3-9.7,7.6c0,1.1-0.5,2.2-0.5,3.2c-0.5,2.7,1.1,4.9,2.7,7.6c0.5,0.5,0.5,1.1,1.1,1.6
			c2.7,2.2,4.3,4.9,6.5,8.1c0.5,0.5,1.1,1.1,1.1,2.2c3.8,1.1,7,2.2,9.2,4.9c1.1,1.6,1.6,3.8-0.5,4.9c-0.5,0-1.1,0.5-1.6,0.5
			c0.5,0.5,0.5,1.1,1.1,1.6c2.2,1.6,4.3,2.7,5.9,4.3c4.9,3.2,10.3,7,14,11.3s0.5,7-3.8,9.2c0,0.5,0.5,1.1,0.5,1.1
			c1.1,0.5,2.7,1.1,3.8,1.6c4.9,2.2,9.2,4.3,13,8.1c1.1,1.1,1.6,2.2,1.6,3.2v2.2c0,0,0,0.5-0.5,0.5v0.5l-0.5,0.5
			c-1.6,1.6-4.3,3.2-7,4.3h-1.1c-0.5,0-1.1,1.1-0.5,1.6c1.1,1.6,1.6,3.8,2.7,5.4c1.1,2.2,2.7,4.3,4.9,5.4c1.1,0.5,1.6,1.6,2.7,2.2
			c0.5,1.1,1.6,2.2,2.2,3.2c1.6,1.6,3.2,3.8,4.3,6.5c0.5,1.1,0,2.2-0.5,2.7c-1.6,1.6-4.3,2.7-6.5,3.2v2.2c2.2,1.1,2.7,3.2,3.8,4.9
			c1.1,1.6,2.2,3.2,2.7,5.4c0.5,2.7,1.1,7-1.6,8.6c-2.7,2.2-7.6,1.1-10.8,1.6c-1.6,0.5-3.8,0.5-5.4,1.1h-0.5h-0.5h-0.5
			c0,0.5,0,0.5,0.5,1.1c-0.5,1.1-0.5,1.6-1.1,2.7v4.9c0,3.8,0.5,8.1,0,11.9v1.6c-1.1,3.2-2.2,5.9-3.8,9.2c0,1.6-0.5,3.2-1.1,4.3
			c-0.5,0.5-1.1,1.6-1.6,1.6h-1.6c-1.1,0.5-2.7,0.5-4.3-0.5c-1.1-1.1-3.2-1.6-4.9-2.2l-2.7,2.7l-1.6,4.9c-2.2,6.5-6.5,12.4-8.6,17.3
			c-1.6,2.7-5.9,2.7-7,0c-1.1-2.2-3.2-3.2-5.4-3.8c-3.8,2.7-7.6,4.9-11.3,7.6c-0.5,0.5-0.5,1.1-0.5,2.2c-1.6,3.8-2.7,9.2-5.4,11.3
			s-4.9,2.2-8.1,1.1c-2.7-1.1-5.4-1.1-8.1-1.6c-4.3,2.2-9.2,4.9-13.5,7c-2.2,3.8-3.8,8.1-7,10.3c-4.3,2.7-9.7,1.1-14.6,1.1l-3.2,1.6
			c-0.5,3.2-4.9,10.8-7,11.9c-7,3.2-14.6,3.8-22.1,5.4c-0.5,0-1.6,0-2.2-0.5h-0.5c0.5,1.1,0.5,2.2-0.5,2.7
			c-13,6.5-21.6,16.7-32.4,25.9c-11.3,9.7-20,21.6-24.8,35.6v0.5c0.5,3.2-3.8,4.3-4.9,1.1c-5.4-14-5.9-30.2-10.3-45.3
			c-4.3-16.2-8.1-31.8-8.6-48.6c0-5.9-0.5-12.4-0.5-18.3c-1.1,0-2.2-0.5-3.2-1.1c-3.8-3.8-1.6-13.5,2.7-15.1c0-0.5,0.5-0.5,0.5-1.1
			c0.5-9.7,1.1-19.4,2.7-29.1c-0.5-1.6-1.6-3.8-2.7-4.9c-2.7-2.2-3.2-5.4-1.1-8.1c1.6-1.6,3.2-2.7,4.9-3.2l1.6-1.6l2.7-2.7
			c2.7-7,5.9-13.5,9.7-20c-0.5-0.5-1.1-0.5-1.6-1.1c-2.2-0.5-4.3-2.7-4.3-5.4c0-1.1,0-2.2,0.5-3.2c0.5-2.7,2.7-3.8,5.4-4.3
			c2.2,0,4.9-1.6,7-2.7s4.3-1.6,6.5-2.2c0.5,0,1.1-0.5,1.6-0.5l9.7-9.7V286c1.1-8.6,13-14,22.1-15.1c3.8-2.7,7.6-4.9,11.9-7.6h-0.5
			c-4.3-1.1-3.2-7,1.1-7c1.1,0,2.2-0.5,3.2-0.5c0-0.5,0.5-0.5,1.1-0.5c1.6-0.5,2.7-0.5,4.3-1.1c2.2-1.1,4.9-2.7,7-3.2
			c4.3-1.6,8.6-2.7,13-3.2c1.6-1.1,3.2-2.2,5.4-3.8c-2.2-1.1-2.7-3.8-1.1-5.4c4.9-5.4,11.9-6.5,18.9-7.6c0.5,0,1.1-0.5,2.2-0.5
			c2.7-2.2,5.9-3.8,8.6-5.4c-0.5-1.1-0.5-1.6-1.1-2.7c-1.1-1.6-0.5-3.2,0.5-4.3c5.4-6.5,15.7-5.4,23.7-4.9c1.1-0.5,2.7-0.5,3.8-1.1
			c2.2-0.5,4.3-0.5,6.5-1.6s4.3-2.7,6.5-3.8c1.1-3.2,1.6-7,3.8-9.7c0,0,0-0.5,0.5-0.5c0.5-1.6,1.1-3.2,1.1-5.4c0-1.1,1.6-0.5,1.6,0
			v1.6l0.5-0.5c-1.6-3.2-3.2-7-4.9-11.3c-2.2,4.3-7.6,4.3-12.4,4.3c-2.7,0-4.9,0-7.6,0.5c-3.8,2.2-7.6,4.3-10.3,6.5
			c-1.1,0.5-1.1,1.6-1.6,2.7c-2.2,1.6-3.8,3.8-4.9,5.9c-1.1,1.1-2.2,2.2-3.8,2.7H251c-0.5,0-1.1,0.5-1.1,1.1
			c-1.1-2.2-3.8-4.3-4.9-5.4c-1.6-2.2-4.9-1.1-6.5,1.1c-3.2,5.4-3.2,12.4-5.4,17.8c-0.5,1.1-0.5,1.6-0.5,2.2c0,0,0,0.5-0.5,0.5
			c-1.6,2.2-5.4,2.7-8.6,2.2c-0.5,0.5-1.1,0.5-1.1,1.1c-0.5-1.1-0.5-2.2-1.1-2.7c-1.1-2.2-4.9-2.7-6.5-1.1
			c-2.7,2.7-4.3,6.5-5.9,10.3c-1.1,2.7-2.7,5.4-3.2,8.1c-1.6,1.6-3.8,2.7-5.4,3.8c-0.5,0.5-1.6,0.5-2.2,0.5c0-2.2-1.1-3.8-1.6-5.9
			c-0.5-2.2-3.2-2.7-4.9-1.1c-4.3,3.8-8.1,8.1-11.9,11.9l-1.6,1.6c-8.6,1.6-17.8,1.1-26.4-1.1c2.2-4.3-3.2-8.6-7-5.9
			c-2.2,1.1-4.3,1.6-5.9,3.2c-5.9-1.6-11.9-3.8-17.3-5.9c-4.3-2.2-9.2-3.8-13.5-5.9c0.5-2.2,0-4.9-2.7-5.4c-3.2-0.5-5.9-2.2-9.2-2.2
			c-1.6,0-3.8,0-5.4,0.5c-3.2-1.6-7-2.7-10.3-3.8c-1.1,0-1.6-0.5-2.2-1.1c-6.5-2.2-13.5-4.9-20.5-6.5c-14-3.8-30.2-5.9-43.2-13
			c-10.8-5.9-17.8-14-8.1-24.8c20.5-22.1,41.6-47,69.1-61c24.8-12.4,57.2-16.7,84.7-17.8c30.8-1.6,58.3-0.5,83.7,18.3
			c9.7,7,17.3,16.7,24.3,25.9c-3.2-8.6-4.9-16.7-4.3-22.7c3.2-27.5,22.7-58.8,37.2-82c1.1-1.6,3.2-1.6,4.3,0
			c1.6,2.7,3.2,5.9,4.9,9.2c-0.5,4.3-1.6,9.7,1.6,13c0.5,0.5,1.1,0.5,1.6,0l0.5-0.5V61c0.5,0.5,0.5,1.1,1.1,1.6v1.6
			c0,2.7-2.2,11.3,2.7,11.3c1.1,0,1.6,0,2.2-0.5c0.5,0.5,1.1,1.1,2.2,1.6c-1.1,2.2-3.2,11.3,1.1,11.3c1.1,0,1.6-0.5,2.7-1.1
			c1.1,3.2,1.6,7,2.2,10.3c-1.1,1.6-1.6,3.2-2.2,4.3c-0.5,1.1,0.5,2.2,1.6,1.6c0.5-0.5,1.1-0.5,1.6-1.1c1.6,9.7,2.2,20,1.1,29.7
			c-1.1,8.6-2.7,18.9-5.4,28.6c0.5-0.5,1.1-1.6,1.6-2.2c1.6-3.2,3.8-5.9,4.9-9.7c1.1-2.7,1.6-5.4,2.7-8.1s2.2-5.4,3.2-8.6
			c0-4.9,0.5-11.9,1.1-17.3c1.1-22.7,2.2-43.7,10.3-65.8c5.4-14.6,21.6-31.3,23.7-45.9c0.5-2.2,3.8-2.2,4.9-0.5
			c32.9,56.1-8.6,107.4-43.7,152.2c-0.5,0.5-0.5,1.1-1.1,1.6c-1.1,1.6-2.2,3.2-3.8,4.3c0,0.5-0.5,0.5-0.5,1.1l-0.5,0.5
			c-2.2,2.7-4.3,5.9-6.5,8.6c-2.7,7-5.9,13.5-10.3,18.9h0.5c0.5-0.5,0.5-0.5,1.6-0.5c3.2,0,6.5,0,9.7-0.5c2.7-5.4,5.9-10.3,9.2-14.6
			c1.1-3.2,2.2-5.9,3.8-8.1c3.2-4.9,6.5-10.8,11.9-14c2.2-1.1,3.8,0,4.9,1.6c0,0,0.5,0,0.5-0.5c0,0,0.5,0.5,1.1,0
			c1.6-0.5,2.7-1.6,3.2-3.2l0.5-0.5c0.5-1.1,1.1-1.6,1.6-2.7c1.1-3.2,3.2-7,5.9-9.2c1.6-1.6,4.3-3.2,7-2.2v3.2
			c0,1.6,2.2,1.6,3.2,1.1c0.5,0,1.1-0.5,1.6-0.5c0-0.5,0.5-0.5,0.5-1.1c0.5-1.1,1.1-1.6,1.6-2.7c1.1-1.1,1.6-2.2,2.7-3.2
			c0.5-1.1,1.6-1.6,2.2-2.7c2.2-1.6,5.4-2.7,7.6-0.5c0,0.5-0.5,1.1-0.5,1.6c-1.1,2.7,1.1,5.9,3.8,3.8l11.3-8.1c0.5,0,0.5,0,1.1-0.5
			c2.2-0.5,4.9-0.5,6.5,1.1c0.5,0.5,1.1,1.6,1.1,2.2h3.2c2.2,0,3.8-0.5,5.9-0.5c3.8-2.2,8.1-3.8,11.9-3.2c1.6,0,2.7,1.1,3.8,2.7
			c0,1.1,0.5,1.6,1.6,2.7c2.2,1.6,5.4,0.5,8.1,0c4.3-1.1,7.6-3.2,10.8-5.4c2.7-1.1,5.9-1.1,7.6,1.1c1.1,1.1,1.6,2.7,2.2,3.8v1.1
			c-0.5,1.6,0.5,3.8,2.7,3.8c4.9,0,9.2-1.1,13.5-2.2c1.6-0.5,2.7-0.5,4.3-1.1h2.2c3.2,0.5,5.9,3.2,7.6,5.9c0,0,0.5,0,0.5,0.5
			c-0.5,1.1-0.5,2.7,0.5,3.2c4.9,2.7,11.3,1.6,17.8,0c3.2,1.1,5.4,3.8,7.6,7c0,0.5,0,1.1-0.5,1.6c0,1.1,0,2.7,1.1,3.2
			c2.7,1.6,5.9,2.2,9.2,2.2c2.7,1.6,5.9,3.8,8.6,5.4v1.1c1.1,2.7,3.2,3.2,5.4,2.7c28.6,18.9,55,42.6,77.2,63.1
			C627.7,228.3,628.3,231,626.7,232.1z M361.7,107.4l-9.7,4.9v0.5c1.1,0.5,1.1,2.2,0,2.2h-0.5c-0.5,0-1.1,0-1.6-0.5
			c-1.1,2.2-1.6,4.3-2.7,5.9c0.5,0,0.5-0.5,1.1-0.5c1.1-1.1,2.2-2.2,3.8-3.2c1.1-0.5,2.2,0,2.7,0.5c2.2-2.7,4.3-5.9,5.9-8.6
			C361.1,108.5,361.7,107.9,361.7,107.4L361.7,107.4z M343.3,99.3v-1.1c0-0.5,1.1-0.5,1.1,0c0.5,1.6,1.6,3.2,2.7,4.9l1.6,3.2
			c0.5-1.6,1.6-3.8,2.2-5.4c-1.1-1.1-2.2-2.7-3.2-3.8c-1.1-1.6-2.2-2.7-2.2-4.9c0-0.5,0.5-1.1,1.1-0.5c2.2,1.6,3.8,3.8,5.4,5.9
			c0.5-1.1,0.5-2.2,1.1-3.2c4.9-17.8,2.2-35.6,7-52.9c0.5-2.2,3.8-1.6,3.8,0.5c-1.6,17.3-0.5,32.9-4.9,49.1c1.1-0.5,1.6-0.5,2.7-1.1
			c2.7-1.6,4.9-3.8,7.6-5.4c1.1-1.1,2.2,1.1,1.1,2.2c-2.7,1.6-4.9,3.8-7.6,5.4c-1.6,1.1-2.7,1.6-4.3,1.6l-3.2,9.7
			c-0.5,1.1-1.1,1.6-1.1,2.7c0.5-0.5,1.1-0.5,1.6-1.1c3.2-1.1,6.5-2.7,9.2-4.3h1.1c10.3-17.3,17.8-35.6,16.2-56.1
			c-0.5-8.1-7.6-25.9-5.9-34.5c-1.6,8.6-13,15.7-16.7,23.7c-7,15.7-14.6,36.2-15.1,53.4C343.3,91.7,343.3,95.5,343.3,99.3z
			 M342.3,119.8c1.6-3.2,3.2-5.9,4.3-9.2c-1.1-1.1-1.6-2.2-2.2-3.2l-1.6-4.9C342.8,107.9,342.8,113.9,342.3,119.8z M339,139.2
			c3.8-4.9,7-9.7,10.8-14.6c-1.6,1.1-3.2,1.6-4.9,1.1c-0.5,0.5-0.5,1.1-1.1,2.2c-1.6,3.8-3.2,6.5-4.3,8.1
			C339.6,136.5,339.6,138.2,339,139.2z M258.1,188.3c2.7-4.3,9.7-8.1,13.5-9.2c3.2-1.1,7-1.6,10.8-2.2
			c-71.2-35.6-142.5-24.3-214.3,6.5c-1.6,0.5-2.7-1.1-1.6-2.2c32.9-23.2,76.1-35.1,118.7-34.5c-5.9-7.6-11.3-15.1-17.8-21.6
			c-10.8-10.3-20-15.1-34.5-14c-2.2,0-2.2-2.7,0-3.2c13-1.1,21.6,1.1,31.3,9.7c9.2,8.6,16.7,18.3,23.2,29.1
			c31.3,0.5,62.6,8.1,89,22.7c-9.2-10.8-16.2-23.2-25.4-34c-5.4-5.9-10.8-10.8-16.7-15.1c3.8,7.6,6.5,15.1,8.1,23.2
			c0,1.1-1.1,1.6-1.6,0.5c-3.8-8.6-6.5-17.8-10.8-26.4c-9.7-5.9-20-9.2-30.8-11.3c10.3,11.3,18.9,26.4,18.9,41.6
			c0,1.1-1.1,1.1-1.6,0c-4.3-16.2-9.7-30.8-21.6-42.1c-11.3-1.6-23.2-1.6-35.6-0.5c-29.1,2.2-63.7,5.4-89.6,21
			c-20.5,13-39.4,33.5-55.6,51.3s38.3,28.6,44.3,30.2c10.3,2.7,21,5.4,30.8,9.2c5.9,2.7,13,5.9,19.4,8.6c1.6,0,3.2,0,3.8-2.2
			c2.2-3.8,7.6-0.5,5.4,3.2c-0.5,1.1-1.1,1.6-1.6,2.2c3.2,1.6,7,3.2,10.3,4.3c2.7-1.1,5.9-1.6,9.2-1.1c2.7,0.5,3.8,3.8,2.2,5.4
			c1.6,0.5,3.8,1.1,5.4,1.6h0.5c3.2-0.5,7-2.7,10.8-2.7c1.6,0,2.2,1.6,1.6,2.7c-0.5,0.5-1.1,1.6-1.6,2.2c5.4,1.1,11.3,1.1,16.7,0.5
			c0-0.5,0-0.5-0.5-1.1c-1.6-5.4,5.9-7.6,8.1-2.7c3.8-1.1,5.9-2.7,8.6-5.9c2.2-2.7,4.3-4.9,8.1-5.4c2.2-0.5,4.9,1.1,4.9,3.8v0.5
			c1.1-0.5,2.2-1.1,2.7-2.2c3.2-3.8,5.4-8.1,8.1-13c0.5-0.5,1.1-1.1,2.2-1.1c0.5-1.1,1.6-1.6,3.2-2.2c1.1,0,4.3,0.5,6.5,1.1
			c0.5-0.5,1.1-0.5,1.1-1.1v1.1c0.5,1.1,1.6,1.1,1.6,0c0.5-1.1,1.6-2.7,1.6-4.3c0-0.5,0-1.1,0.5-1.1c0-0.5,0.5-1.6,0.5-2.2
			c0-1.1,0.5-1.6,0.5-2.7c1.1-3.2,2.7-5.9,3.2-8.6c0.5-1.1,1.1-2.2,2.2-3.2c0.5-0.5-0.5,0,1.6,0h2.2c2.2,0.5,4.3,0,5.9-0.5l4.9,1.6
			c0.5,0,0.5,0.5,1.1,0.5c0,0,0-0.5,0.5-0.5C254.3,192.1,255.9,190,258.1,188.3L258.1,188.3z M298,220.7c-1.1-0.5-1.6-1.1-2.7-1.6
			c-0.5,1.1-1.1,1.6-1.6,2.7c-0.5,3.2,3.8,7,5.9,8.6c2.7,2.7,5.9,5.4,7.6,8.6c0.5,1.1-0.5,1.6-1.6,1.1c-3.8-3.8-8.1-6.5-11.3-10.3
			c-1.1-1.1-2.2-2.7-3.2-4.3c-4.3,7-10.8,13.5-17.3,18.3c3.8,2.2,7.6,6.5,9.7,7.6c7.6,4.9,15.1,9.7,20,17.8
			c9.2,15.7,9.7,34.5,5.4,51.8c0,1.1-2.2,1.1-1.6,0c0.5-16.2,2.7-35.6-7-49.7c-6.5-8.6-15.1-14.6-24.3-20l-4.9-4.9
			c-1.1,0.5-2.2-0.5-2.2-1.6c-1.6,0-1.6-2.2,0-2.2h1.1c4.9-7.6,11.9-13.5,16.7-20.5c-0.5,0-1.1,0-1.1,0.5c-1.6,0.5-3.8,1.1-6.5,1.6
			c0-1.6-0.5-1.6-1.1-1.6c-5.4-1.1-10.3-2.7-15.7-2.2c-0.5,0-1.6,0.5-1.6,1.1c-2.2,0-3.2,2.7-1.6,4.3c0.5,0.5,2.2,2.2,2.7,3.8
			c-3.8,2.7-8.1,5.4-11.9,8.1c-2.2-0.5-3.8-0.5-5.9-0.5c-3.8,0-8.1,1.1-11.3,3.8c-3.2,3.2-1.6,6.5,1.1,8.1c0,0.5,0.5,1.1,1.1,1.6
			c-1.1,0.5-2.2,0.5-2.7,0c-3.2,2.2-7,4.3-10.3,5.9c-2.2,3.8-7,3.8-11.3,4.3c-3.2,0-6.5,0.5-9.7,0.5c-2.2,2.2-3.2,5.4-2.2,8.6
			c-0.5,0-0.5,0.5-1.1,0.5c-5.4,3.2-11.3,7-16.7,10.3c-4.9,1.6-10.3,3.2-15.1,4.9c-1.1,0-1.6,1.1-1.6,2.2c-0.5,0.5-1.1,1.1-1.1,1.6
			c0.5,1.1,1.1,2.2,1.1,3.8l1.6,1.6c0,1.6-1.1,3.2-2.7,4.3c-0.5,0.5-1.1,1.6-2.2,1.6c-1.6,0.5-3.2,2.2-4.9,2.7
			c-1.1,0.5-2.2,1.1-2.7,1.6l-1.6,1.6c-4.9,1.6-9.2,3.8-13.5,7c-1.1,0.5-1.1,2.2,0,2.7c1.1,1.1,2.7,1.6,4.3,1.6
			c-4.9,6.5-8.6,13.5-11.9,21c-1.1,3.8-4.9,5.9-7,8.6c-0.5,0.5-1.1,1.1-2.2,1.6v1.6c0.5,2.2,2.2,3.8,4.3,4.9
			c0.5,1.6,0.5,3.8-0.5,5.9c-0.5,0.5-0.5,1.1-1.1,1.6c-0.5,3.2-1.1,7-1.6,10.3c1.1,4.3,1.6,8.6,0,12.4c-2.2,3.8-3.2,7.6-5.4,11.3
			l-2.7,2.7c0,0.5,0.5,1.1,1.1,1.1c1.6,1.1,3.2,1.1,5.4,1.1c-0.5,35.6,7,72.3,14.6,106.3c0.5-2.2,1.6-4.9,2.7-7
			c2.2-4.3,5.4-8.6,9.2-13c6.5-8.1,13.5-15.1,21.6-21.6c5.4-5.4,11.9-11.3,18.3-13.5c3.2-2.2,6.5-4.3,10.3-6.5
			c0-0.5,0.5-0.5,1.1-0.5c4.9,0.5,9.2,1.1,13.5-0.5c5.9-2.2,7-5.9,7-10.8c0.5,0,0.5-0.5,1.1-0.5c0.5-1.1,0.5-2.2,1.1-3.8
			c0.5-1.6,2.2-2.7,4.3-2.2h2.2c3.2,1.1,7,1.1,10.8,0.5c3.8-0.5,5.9-3.8,8.1-6.5c2.7-2.7,5.4-5.4,8.6-7.6c2.7-1.6,5.4-3.2,8.6-4.9
			c0.5-0.5,1.1-1.1,2.2-1.1c0,0,0.5,0,0.5-0.5c1.6,0.5,3.2,1.6,4.9,1.6c4.3,1.1,7-1.6,9.2-4.9c0.5-1.1,1.6-4.3,1.6-7.6
			c0.5-0.5,0.5-1.1,1.1-1.6c0.5,0,1.1,0.5,1.6,0.5c2.7,0,4.9-1.6,5.9-3.8c0.5-0.5,1.1-1.6,1.1-2.2v0.5c0-0.5,0-1.1,0.5-1.6
			c1.6-2.7,4.9-3.2,7.6-2.7l2.7,2.7c3.2,2.2,5.4,2.2,7.6-1.1c2.7-3.2,4.9-7,6.5-10.8c0.5-0.5,0.5-1.1,0.5-1.6
			c0.5-3.2,1.6-5.9,2.7-8.6c0.5-1.1,1.6-1.6,2.2-1.6c3.2,0,5.4,1.6,8.6,2.7c1.1,0,2.2,0,3.2-1.1c1.1-9.2,1.1-18.3,2.7-27.5
			c0-2.2,0-4.3,2.2-5.9c2.7-1.6,5.4-1.6,8.6-1.6h3.2c1.6-2.2,2.2-4.9,0.5-7.6c-0.5-1.6-2.2-2.7-3.2-3.2c-0.5-0.5-1.6-1.1-2.2-1.1
			l-0.5-0.5c-1.6,0.5-1.6,0-1.6-0.5c-1.1-1.6-1.1-2.7-0.5-4.3c1.1-1.6,3.8-2.7,5.4-3.8c0.5-0.5,1.1-1.1,1.6-1.1v-2.2
			c-0.5-2.2-2.2-3.8-4.3-5.4v-1.1c-3.2-3.8-6.5-8.1-8.1-12.4c-1.6-0.5-2.2-2.7-1.6-4.3c0.5,0,1.1-0.5,1.6-0.5s1.1-0.5,1.6-0.5
			c1.6-0.5,2.7-1.1,4.3-2.2c0.5-0.5,1.6-1.1,2.2-2.2c1.1-1.1,1.1-2.2,1.1-3.2c-1.1-0.5-1.6-1.6-2.7-2.2c-5.4-3.2-13.5-4.3-17.3-9.7
			c-1.1-0.5-1.6-1.6-1.6-2.2c1.1-1.1,2.7-1.6,3.8-2.7c2.2-1.1,3.2-4.9,1.1-6.5c-5.4-4.3-10.8-8.1-15.7-13c-1.6,0-3.2-1.6-3.2-1.1
			c0-1.6,1.1-3.2,1.1-4.9c0-1.6-1.1-2.7-2.2-3.2h-1.6h-0.5C302.9,229.4,300.2,225,298,220.7L298,220.7z M315.3,161.4
			c-1.1,2.2-2.7,4.3-4.3,6.5c-1.1,1.6-3.8,4.3-3.8,7c0,1.1-0.5,2.2-1.1,2.7c0,1.1-0.5,1.6-0.5,2.7s0,1.6-0.5,2.2
			c5.9-5.9,15.7-33.5,15.7-32.4c1.6-7.6,2.7-15.7,2.7-23.7c-0.5-1.1-1.1-2.7-1.6-3.8c-1.1-2.2,0.5-3.8,2.2-4.3v-5.4v1.1
			c0,0.5-0.5,1.1-1.1,1.1c-2.7,0-3.2-2.2-3.2-4.3c0-2.7,4.3-3.2,4.9-0.5v-3.8c-2.7,1.6-7-1.6-4.9-4.3c1.1-1.6,2.2-2.2,3.2-3.2h0.5
			c-0.5-2.2-0.5-4.3-1.1-5.9c0-0.5,0-1.1-0.5-1.6c-1.1,0-2.7,0-3.2-1.6c-1.6-1.6-1.6-2.7-1.6-4.3c0-0.5,1.1-3.2,1.1-3.2
			c0-0.5-0.5-1.1-0.5-1.1v-0.5c-1.6,1.1-4.3,1.1-5.9-1.1c-2.2-3.8-0.5-7.6,1.1-11.3c0-0.5-0.5-0.5-0.5-1.1c-1.6,2.7-6.5,2.7-7.6-1.1
			c-1.1-3.2,0-7-0.5-10.3c0-2.2-1.1-4.9-1.6-7c-1.1-1.1-2.2-1.6-2.7,0c-5.4,11.9-10.3,23.7-16.2,35.6c-11.9,24.3-16.7,44.8-2.7,69.6
			c3.2,5.9,7,13.5,11.3,20.5c-4.3-13-7-27-7-39.4c0-22.7,10.8-41.6,17.8-62.6c1.1-3.2,5.9-1.6,4.9,1.6c-3.8,14.6-13,28.6-15.7,43.7
			c-2.2,10.8-1.1,20.5,0.5,30.2c1.6-2.7,3.2-4.9,4.9-7.6c3.2-4.3,5.4-9.2,8.1-13.5c0.5-1.1,2.7,0,2.2,1.1
			c-4.9,8.1-9.2,15.7-14.6,23.2c1.1,4.9,2.2,10.3,3.8,15.1c1.6-2.2,3.8-4.3,5.4-6.5c2.7-3.8,4.9-8.1,7.6-11.9c1.1-1.6,3.2,0,2.2,1.6
			c-4.3,6.5-7.6,15.7-14,20.5c1.1,3.8,1.6,7.6,2.7,11.3c0.5,1.6,1.1,2.7,1.6,3.2c-0.5-1.1-1.1-2.2-0.5-3.8c-0.5-0.5-0.5-2.2,0.5-2.2
			c0.5-1.6,1.1-3.2,1.6-4.3c0,0,0-0.5,0.5-0.5v-0.5c0.5-1.6,1.6-3.2,2.7-4.3c2.2-2.7,4.3-5.4,7-7.6
			C314.7,159.2,315.8,160.3,315.3,161.4L315.3,161.4z M597.5,209.4c-10.3-10.8-22.1-20-34.5-28.1c-3.8-2.2-7.6-4.9-10.8-7
			c0.5-1.1,0-2.7-1.1-3.2c-2.2-1.6-4.9-2.7-7-1.6c-8.1-4.9-16.2-9.7-24.3-14c0-2.2-1.1-4.3-1.6-6.5c-1.1-2.2-2.2-2.7-4.9-2.7
			c-3.2,0.5-5.9,0.5-9.2,1.6c-0.5,0-0.5,0.5-1.1,0.5c-1.1,0-1.6,0.5-2.2,1.1c-0.5,0.5-1.6,0-2.2-0.5c-0.5,0.5-1.6,0.5-2.2,0
			c-2.2-1.1-2.7-2.7-3.2-4.9c-0.5-2.7-1.6-4.9-3.8-5.9c-2.7-1.6-6.5-0.5-9.2,0.5c-0.5,0-1.1,0.5-1.6,1.1c-2.7,0.5-5.4,1.1-8.1,1.1
			c-1.1,0-1.6-0.5-1.6-1.1c-0.5,0-1.1,0-1.6-0.5c-0.5-0.5-1.1-0.5-1.6-1.1c-0.5-2.2-1.6-3.8-2.2-5.4c-0.5-1.1-2.2-1.6-3.2-1.6
			c-4.9,1.1-9.2,2.7-14,4.9c-1.6,0.5-3.2,1.6-4.9,2.7c-0.5,0-0.5-0.5-0.5-0.5c-1.6,0.5-3.8-0.5-4.9-2.2c0-0.5-0.5-1.1-0.5-1.6h-0.5
			c-0.5-0.5-0.5-1.6-1.1-2.2c-0.5-1.1-2.2-1.6-3.2-1.1c-4.3,1.6-8.6,3.2-12.4,5.4h-3.8h-1.1c-1.1,0-2.2,0-2.7-1.1h-1.1
			c-0.5-1.1-1.1-1.6-1.6-2.7c-0.5-1.1-2.2-1.1-2.7-0.5l-6.5,4.9c-0.5,0-1.6,0.5-2.2,0.5c-1.6,0.5-2.7,1.1-4.3,1.1
			c-0.5,0-1.1,0.5-1.1,0.5c-1.1-1.1-2.2-2.2-3.2-2.7c-2.2-1.6-5.4-0.5-5.9,2.2c-0.5,1.6-1.6,3.2-2.7,4.9v0.5H379l-1.6,1.6
			c0,0.5-0.5,0.5-1.1,0.5c0,2.2-2.7,3.2-4.3,1.6l-0.5-0.5c-0.5,0-0.5,0.5-1.1,0.5c-1.1-1.1-2.7-2.7-3.8-3.2
			c-1.6-1.1-3.8-1.1-4.3,1.1c-1.1,2.7-2.2,5.9-2.7,8.6H359c-1.6,2.7-3.2,4.9-4.9,7c-1.1,2.2-3.2,3.2-5.9,1.6l-0.5,0.5
			c-0.5-0.5-1.1-1.1-1.6-2.2c-1.1-2.2-4.3-1.6-4.9,0.5c-0.5,1.6-1.1,3.8-1.6,5.4c-0.5,0.5-1.1,0.5-1.1,1.1
			c-0.5,3.8-2.2,8.1-4.3,11.3c-0.5,1.1-1.1,1.6-1.6,2.2c-0.5,0.5-0.5,1.1-1.1,1.6c0,0.5,0,0.5,0.5,0.5c0-0.5,0.5-0.5,0.5-1.1
			c0,0.5-0.5,0.5-0.5,0.5c-0.5,0.5-1.6,0.5-2.2,0.5c-0.5,0.5-0.5,1.1-1.1,1.6c3.2,0,6.5-0.5,9.7-1.1c0.5-1.1,1.1-2.7,2.2-3.2
			c4.9-3.8,7.6-7.6,7.6-14.6c0-1.6,2.7-1.6,2.7,0c0,5.9-2.7,12.4-7,17.3c8.6-1.1,17.3-1.6,25.9-2.7c8.6-18.3,30.8-30.2,49.7-34
			c1.1,0,1.1,1.1,0.5,1.6c-16.7,5.9-37.2,16.2-46.4,32.4c13-1.6,26.4-3.2,39.4-4.9c8.1-6.5,17.3-10.8,27-13.5c0.5,0,1.1,1.1,0.5,1.1
			c-7.6,3.8-15.1,7-22.1,11.9c16.7-1.6,34-2.7,50.2-2.7c1.6-4.3,8.1-5.9,11.9-7.6c0.5-0.5,1.1,0.5,0.5,1.1c-2.2,2.2-7,3.8-9.2,6.5
			c35.1,1.6,69.1,10.3,99.3,35.6c1.1,1.1-0.5,2.2-1.6,1.6c-42.6-24.3-88-34.5-137.1-30.8c-7,0.5-13.5,1.6-20.5,2.2
			c-3.8,9.2,7,25.4,11.9,32.9c5.9,9.2,13.5,16.7,21,24.3c0.5,0.5,0,1.6-1.1,1.1c-13-9.7-22.1-21-29.1-35.6
			c-2.7-5.4-7.6-15.7-4.9-22.7c-12.4,1.6-24.8,3.8-37.2,5.9c1.6,1.6,2.2,3.8,3.2,6.5c2.7,7.6,4.9,14.6,8.1,21.6
			c6.5,12.4,14,23.2,23.7,32.9c0.5,0.5,0,2.2-1.1,1.6c-9.7-6.5-17.3-15.1-22.7-25.4c-3.2-5.9-6.5-11.3-8.1-17.8
			c-1.6-5.4-2.7-14-5.9-18.3v-0.5c-8.6,1.1-16.7,2.2-25.4,2.7c0.5,0.5,0.5,1.1,1.1,1.6c3.8,6.5,8.1,13,9.7,20.5
			c0.5,1.1-1.6,2.7-2.2,1.6c-2.7-3.8-4.9-7.6-7-11.3c-1.6-3.2-3.8-8.6-6.5-11.9h-13.5c7.6,3.8,11.3,10.8,14,20
			c1.1,2.7,2.2,5.4,2.7,8.1c1.6,4.3,3.2,8.1,5.4,12.4c1.1,4.9,2.2,9.2,3.8,13.5c0.5,2.2,3.8,2.2,4.3,0c0.5-1.6,0.5-3.2,0.5-4.9
			c0,0,0.5,0,0.5,0.5c3.8,3.2,5.9,8.1,8.1,12.4c0.5,1.1,1.6,2.2,2.7,3.8c2.2,3.8,4.9,8.1,8.6,10.3c0.5,0.5,1.6,0,1.1-1.1
			c0-0.5,0-0.5-0.5-1.1l0.5,0.5v-2.2c0.5-0.5,0.5-1.1,1.1-1.6s1.1-2.2,1.6-3.2c0.5-0.5,1.1-0.5,1.6-1.1c2.2-0.5,3.2,1.1,3.8,2.7v4.3
			c4.3,2.7,8.1,5.4,11.9,9.2c2.7,2.7,5.4,3.8,8.6,5.4c0.5-2.2,1.6-4.3,3.2-5.4c0.5-0.5,1.6-0.5,2.7,0c1.1,0.5,1.6,1.6,1.6,2.2
			c3.2,2.7,6.5,5.4,10.3,7.6c3.2,1.6,7,2.7,10.8,3.2c0-3.2,1.1-5.9,4.3-6.5l3.2,3.2c0,0.5,0,1.6,0.5,2.2c1.6,1.1,3.2,2.2,5.4,2.2
			h0.5c3.2,2.2,7,3.2,10.8,3.2c1.6,0,2.7-1.6,2.2-3.2h0.5c-0.5-3.8,0-7,4.3-8.1c1.1,0,2.2,0,2.7,1.1c0.5,0.5,0.5,1.6,1.1,2.7
			c3.2,1.1,7,1.1,10.3,1.1c1.6,0,3.8,1.1,5.9,1.1h1.6V285v-1.1c-1.1-0.5-1.1-2.2,0-2.7h0.5c0-0.5,0.5-1.1,1.1-1.6
			c1.1-1.1,2.7-1.1,4.3,0c0.5,0,0.5,0.5,0.5,0.5c5.9,0,11.9,1.1,17.3-1.1c-0.5-2.7,0-5.4,2.7-7c0.5-0.5,1.6-0.5,2.2,0
			c1.1,0.5,1.6,1.6,2.2,2.2c3.8-1.1,8.1-1.6,12.4-1.1h5.4c1.1-0.5,1.6-0.5,2.7-1.1c0-0.5-0.5-0.5-0.5-1.6v-3.8
			c0.5-3.2,4.9-3.2,6.5-1.1c0.5,1.1,1.1,1.6,1.1,2.7c2.2-3.2,6.5-2.7,10.3-3.8c1.1,0,1.6-0.5,2.7-0.5c0.5,0,1.1-0.5,1.6-0.5v-1.1
			c0.5-2.7,2.2-3.8,4.3-4.3c1.1,0,1.6,0.5,2.2,1.1c0,0.5,0,0.5,0.5,1.1c13.5-6.5,25.9-14,37.8-21.6
			C626.1,227.7,608.9,221.8,597.5,209.4L597.5,209.4z M442.1,133.8v0.5c0,0,0-0.5,0.5-0.5H442.1z M385.4,136c0.5,0,1.1-0.5,1.6-0.5
			c0-0.5,0-0.5-0.5-1.1l-0.5,0.5C386,134.9,386,135.5,385.4,136z M367.1,143.6c0.5-0.5,1.1-0.5,2.2-1.1v-0.5h-0.5L367.1,143.6z
			 M201.4,310.9c-22.7,2.2-44.8,9.2-57.2,29.7c-0.5,1.1,1.1,1.6,1.6,1.1c13.5-19.4,34.5-24.3,56.1-29.1
			C201.9,311.9,201.9,310.9,201.4,310.9z M218.1,280.1c-15.7,3.2-28.1,13-41.6,20.5c-0.5,0.5,0,1.6,0.5,1.6
			c5.4-1.6,11.3-5.4,16.7-8.6c8.1-4.3,16.7-7.6,25.4-11.9C219.7,281.7,219.2,280.1,218.1,280.1z M472.3,220.2
			c-5.9-10.3-13.5-18.3-14-31.3c0-1.1-1.6-1.1-1.6,0c0,12.4,7,22.7,14.6,31.8C471.8,221.3,472.3,220.7,472.3,220.2z M538.7,222.9
			c-8.6-4.9-15.7-11.3-21.6-19.4c-1.1-1.6-3.8,0-2.7,1.6c6.5,8.1,13.5,15.7,23.2,19.4C539.2,224.5,539.2,223.4,538.7,222.9z
			 M225.7,166.8c-1.1,9.2-11.9,20-18.3,25.4c-7.6,7.6-16.7,13-25.4,19.4c-0.5,0.5,0,1.6,0.5,1.1c11.3-6.5,21.6-13.5,30.8-22.7
			c5.9-5.9,13.5-15.1,14-23.2C227.8,165.1,225.7,165.7,225.7,166.8z M189,163.5c-3.2,9.7-9.2,17.8-16.2,24.8
			c-5.9,5.9-14,9.2-21.6,13c-1.1,0.5-0.5,2.2,0.5,2.2c18.9-3.2,34.5-21,39.4-39.4C191.7,162.4,189.5,161.9,189,163.5z M151.2,168.9
			c-7,9.7-17.3,13.5-26.4,20c-0.5,0.5-0.5,2.2,0.5,1.6c11.3-3.2,21.6-10.8,28.6-20.5C155,168.9,152.3,167.3,151.2,168.9z
			 M95.6,144.6c-1.1-1.6-2.2-3.2-3.8-4.3c-1.1-1.6-3.8,0.5-2.2,2.2c1.6,1.6,2.7,3.2,4.9,3.8C95.6,146.8,96.2,145.7,95.6,144.6z
			 M350.4,85.3v-1.1c0-1.1-2.2-1.1-2.2,0v1.1C347.1,87.4,350.9,87.4,350.4,85.3z M133.9,522.4c-1.1,0-2.7-0.5-3.2-2.2
			c-3.2-8.6-4.9-17.8-6.5-27c-1.1-5.9-2.2-12.4-3.8-18.3c-4.3-16.7-8.1-32.4-8.6-48.6v-2.2c0-5.4,0-10.3-0.5-15.7
			c-1.1,0-2.2-0.5-3.2-1.6c-2.2-2.2-2.7-5.4-2.2-9.2c0.5-3.2,2.7-5.9,4.9-7c0,0,0-0.5,0.5-0.5c0.5-10.8,1.1-20,2.7-28.6
			c0,0,0-0.5-0.5-0.5c-0.5-1.6-1.1-2.7-2.2-3.8c-1.6-1.1-2.7-2.7-2.7-4.3c0-1.6,0.5-3.2,1.6-4.9c1.6-1.6,3.2-2.7,5.4-3.8l1.6-1.6
			l1.6-1.6l1.1-1.1c2.7-7,5.9-13.5,9.7-19.4c-0.5,0-0.5-0.5-1.1-1.1c-3.2-1.1-4.9-3.2-4.9-5.9c0-1.1,0-2.2,0.5-3.2
			c0.5-2.7,2.7-4.3,5.9-4.3c1.6,0,3.2-1.1,4.9-1.6c0.5-0.5,1.1-0.5,2.2-1.1l1.1-0.5c1.6-0.5,3.8-1.6,5.4-2.2h0.5
			c0.5,0,0.5-0.5,1.1-0.5l9.7-9.7v-1.6c1.6-9.2,14-14.6,22.7-15.7c3.2-2.2,6.5-4.3,10.3-6.5c-1.6-0.5-2.2-2.2-2.2-3.8
			c0-2.2,1.6-3.8,4.3-4.3c1.1,0,1.6,0,2.7-0.5c0-0.5,0.5-0.5,1.1-1.1c1.6-0.5,2.7-0.5,4.3-1.1c0.5-0.5,1.1-0.5,1.6-1.1
			c1.6-1.1,3.2-1.6,5.4-2.7c3.2-1.1,7.6-2.2,11.3-3.2l2.2-0.5c1.6-1.1,3.2-2.2,4.3-2.7c-0.5-0.5-1.1-1.6-1.6-2.7
			c0-1.1,0-2.7,1.1-3.8c4.9-5.4,11.9-7,19.4-8.1h1.6c2.7-1.6,5.4-3.8,8.1-5.4c-0.5-0.5-0.5-1.6-1.1-2.2c-1.1-1.6-0.5-3.8,0.5-5.4
			c3.2-3.8,8.1-5.4,15.7-5.4c3.2,0,5.9,0.5,8.6,0.5c1.1-0.5,2.2-0.5,3.2-1.1c1.1-0.5,2.2-0.5,2.7-0.5c1.1,0,2.7-0.5,3.8-1.1
			c0.5-0.5,1.6-1.1,2.2-1.6c1.1-0.5,2.7-1.6,3.8-2.2c0.5-3.2,1.6-6.5,3.8-9.7c0.5-1.6,1.1-3.2,1.1-4.9c0-0.5,0.5-1.1,1.6-1.1
			c0-0.5-1.1-3.2-2.2-5.9c-3.8,0.5-8.6,0.5-12.4,0.5h-2.2c-2.7,0-4.9,0.5-7,0.5c-3.8,1.6-7,3.8-9.7,6.5c-0.5,0.5-1.1,1.1-1.1,2.2
			c-2.2,2.2-3.8,3.8-4.9,5.9c-1.6,1.6-2.7,2.2-4.3,2.7h-1.6c0,0-0.5,0-0.5,0.5l-1.1,0.5L250,204c-0.5-1.6-2.2-3.2-3.2-4.3l-1.1-1.1
			c-0.5-0.5-1.6-1.1-2.2-1.1c-1.1,0-2.7,0.5-3.2,1.6c-2.2,3.2-2.7,7-3.2,10.8c-0.5,2.7-1.1,4.9-1.6,7.6c0,0.5-0.5,1.1-0.5,2.2v0.5
			l-0.5,0.5c-2.7,2.2-5.9,3.2-9.7,3.2l-1.6,1.6l-0.5-1.1c-0.5-1.1-0.5-2.2-1.1-2.7c-0.5-1.1-1.6-1.6-2.7-1.6c-1.1,0-2.2,0.5-2.7,1.1
			c-2.7,2.7-4.3,6.5-5.9,9.7l-1.1,0.5c-1.1,2.2-2.2,4.9-2.7,7c-2.2,1.6-3.8,2.7-5.4,3.8c-0.5,0.5-1.6,0.5-2.7,0.5h-0.5v-0.5
			c0-1.6-0.5-3.2-1.1-5.4v-0.5c-0.5-1.6-2.7-2.2-3.8-1.1l-5.9,5.9l-5.9,5.9l-1.6,1.6c-7.6,1.1-16.7,1.1-27-1.1h-1.1l0.5-1.1
			c0.5-1.6,0.5-2.7,0-3.2c-1.1-2.2-4.3-3.2-5.9-1.6c-1.1,0.5-1.6,1.1-2.7,1.1c-1.1,0.5-2.7,1.1-3.8,2.2h-0.5
			c-5.9-1.6-11.9-3.8-17.3-6.5c-4.3-2.2-9.2-3.8-13.5-5.9l-1.6,1.1v-0.5c0.5-1.1,0.5-2.2,0-3.2l-1.6-1.6c-0.5,0-1.6-0.5-2.2-0.5
			c-2.2-0.5-4.3-1.1-7-1.6h-1.1c-1.6,0-2.7,0-3.8,0.5h-0.5v-0.5c-2.7-1.1-5.9-2.2-8.6-3.2h-2.7c-0.5,0-1.6-0.5-2.2-1.1
			c-8.1-2.7-14-4.9-20-6.5c-4.3-1.1-8.6-2.2-13.5-3.2c-10.3-2.2-21-4.9-29.7-9.7c-7.6-4.3-11.9-8.6-13-13.5
			c-0.5-3.8,1.1-8.1,4.9-12.4c2.2-2.2,3.8-4.3,5.9-6.5c18.9-20.5,38.9-42.1,63.7-55c20.5-10.3,48-16.2,85.3-17.8
			c6.5-0.5,11.9-0.5,16.7-0.5c20.5,0,44.8,2.2,66.9,18.9c8.6,6.5,15.7,14.6,22.1,22.7c-2.2-7.6-3.2-14-2.7-18.9
			c3.2-26.4,20.5-56.1,37.2-82c0.5-1.1,1.6-1.6,2.7-1.6s2.2,0.5,2.7,1.6c1.6,2.7,3.2,5.4,4.9,9.2c-0.5,3.8-1.6,9.7,1.1,12.4
			c0,0,0.5,0.5,0.5,0l0.5-0.5l1.1-1.1l0.5,1.6v0.5c0,0.5,0.5,1.1,1.1,1.6v3.2c-0.5,2.7-1.1,6.5,0.5,8.6c0.5,0.5,1.1,0.5,1.6,0.5
			c0.5,0,1.1,0,1.6-0.5l0.5-0.5l0.5,0.5l1.6,1.6l0.5,0.5l-0.5,1.6c-1.1,1.6-2.2,7-1.1,9.2c0.5,0.5,0.5,1.1,1.6,1.1
			c1.1,0,1.6,0,2.2-1.1l1.1-0.5v1.1c0.5,3.2,1.6,6.5,2.2,10.3v0.5c-1.1,1.1-1.6,2.7-2.2,3.8v1.1h0.5c0.5-0.5,1.1-0.5,1.6-1.1
			l1.1-0.5v1.1c1.6,10.8,1.6,20.5,1.1,30.2c-0.5,5.9-1.6,14.6-4.3,24.8c0.5-0.5,0.5-1.1,1.1-2.2c1.1-2.2,2.2-3.8,3.2-5.9
			c1.1-2.7,1.6-5.4,3.2-8.1l3.2-8.1c0-3.2,0.5-6.5,0.5-10.3c0-2.2,0.5-4.9,0.5-6.5v-2.7c1.1-21.6,2.2-42.1,9.7-63.1
			c2.2-6.5,7-13,11.3-19.4c5.9-8.6,11.9-17.8,13-25.9c0-1.6,1.6-2.7,3.2-2.7c1.1,0,2.2,0.5,3.2,1.6c32.9,56.1-7.6,106.9-43.2,151.7
			l-2.2,0.5c-0.5,0.5-0.5,1.1-1.1,1.6c-1.1,1.6-2.2,3.2-3.8,4.3v0.5c0,0,0,0.5-0.5,0.5l-0.5,0.5c-2.2,2.7-4.3,5.4-6.5,8.6
			c-2.7,7-5.4,12.4-8.6,17.3c2.7,0,5.9,0,9.2-0.5c2.7-5.4,5.9-10.3,8.6-14.6c1.1-2.7,2.2-5.9,3.8-8.1c0.5-0.5,1.1-1.6,1.1-2.2
			c2.7-4.9,5.9-9.2,10.8-12.4c1.6-1.1,4.3-0.5,5.4,1.1l0.5-0.5l0.5,0.5l0.5,0.5v-0.5c1.1-0.5,2.2-1.6,3.2-2.7h0.5
			c0.5-0.5,1.1-1.6,1.1-2.2c1.6-4.3,3.8-7.6,5.9-9.2c1.1-0.5,3.8-2.7,6.5-2.7h2.2v3.8c0,0.5,1.1,1.1,1.1,1.1c0.5,0,0.5,0,1.1-0.5
			l0.5-0.5v0.5c0.5,0,0.5,0,1.1-0.5c0,0,0-0.5,0.5-0.5c0.5-1.1,1.1-1.6,1.6-2.7l0.5-1.1c0.5-1.1,1.1-1.6,2.2-2.7
			c0.5-1.1,1.6-1.6,2.2-2.7c1.1-0.5,2.7-1.6,4.9-1.6c1.6,0,2.7,0.5,3.8,1.6l0.5,0.5l-0.5,1.1c0,0.5,0,0.5-0.5,1.1
			c-0.5,0.5,0,1.6,0,2.7c0.5,1.1,1.6,1.1,2.7,0.5c3.8-2.2,7-4.9,11.3-8.1h1.1c3.2-0.5,5.4,0,7,1.6c0.5,0.5,1.1,1.1,1.1,2.2h4.3
			c1.6,0,3.2-0.5,4.3-0.5c3.8-2.2,8.1-3.8,12.4-3.2c1.6,0,3.2,1.1,4.3,2.7v0.5c0,0.5,0.5,1.1,1.1,2.2c0.5,0.5,1.6,0.5,3.2,0.5
			c1.6,0,3.2-0.5,4.3-0.5c3.8-1.1,7-2.7,10.3-5.4c4.3-1.1,7-0.5,8.6,1.6c1.1,1.1,1.6,2.7,2.7,3.8v1.1c0,1.1,0,1.6,0.5,2.2
			c0.5,0.5,1.1,0.5,1.6,0.5c4.9,0,9.2-1.1,13.5-2.2h1.1c1.1,0,2.2-0.5,3.2-0.5h2.2c2.7,0.5,5.9,2.7,8.1,5.9l1.1,0.5l-0.5,0.5v-0.5
			c0,0.5,0.5,0.5,0.5,1.1c3.8,2.2,9.7,2.2,17.3,0c3.2,1.1,5.9,4.3,8.1,7v1.6c0,0.5,0,1.6,1.1,2.2c2.7,1.6,5.9,2.2,8.6,2.2h0.5
			c2.7,1.6,4.9,3.2,7.6,4.9l1.6,1.1v1.1c0.5,1.6,1.6,2.2,2.7,2.2h2.7c29.7,19.4,56.7,44.3,77.2,63.1c0.5,0.5,1.1,1.6,1.1,2.7
			s-0.5,2.2-1.1,2.7c-13.5,11.9-29.1,22.7-46.4,32.4h-1.6c-1.1,0-1.6,0.5-2.7,0.5c-2.7,0.5-5.4,1.1-8.1,2.2
			c-0.5,0.5-1.1,1.1-1.1,1.6c0,0.5,0,1.1,0.5,1.6l0.5,0.5l-1.1,0.5c-1.1,1.6-3.2,2.7-5.4,3.2h-1.1c-0.5,0.5-1.1,0.5-2.2,1.1
			c-0.5,0-1.1,0.5-1.6,0.5c-1.6-0.5-3.8-1.1-5.9-1.1c-2.7,0-4.9,1.1-5.4,2.7c-0.5,0.5-0.5,1.6,0,2.7l0.5,0.5h-0.5h-0.5h-0.5
			c-1.6,1.6-3.8,2.2-5.9,2.2h-0.5c-1.1,0-2.2-0.5-3.2-0.5c-2.7-0.5-5.9-0.5-8.6-0.5h-2.7c-0.5,0-1.1,0.5-1.6,1.1v1.1
			c0.5,0.5,0.5,1.1,1.1,1.6c0,0.5,0.5,0.5,0.5,1.1l0.5,0.5l-2.7,0.5c-1.6,0.5-3.2,1.1-5.4,1.6c-2.2,0-3.8-0.5-5.9-0.5
			c-3.8-0.5-7.6-1.1-11.9-1.6c-0.5,0-1.1,0-1.1,0.5v1.1c0.5,1.6,1.1,2.7,2.2,3.8l1.1,1.1h-1.1c-0.5,0-1.1,0-1.6,0.5
			c-1.1,0-1.6,0.5-2.7,0.5l-1.6-0.5c-0.5,0-1.6-0.5-2.2-0.5c-6.5-1.6-12.4-2.7-18.3-3.2c-0.5,0-0.5,0-1.1,0.5
			c-0.5,0.5-0.5,1.1-0.5,1.6c0,1.6,0.5,2.7,1.1,3.8l0.5,1.1h-1.1c-0.5,0-0.5,0.5-1.1,0.5c-1.6,0.5-3.8,1.1-6.5,1.1h-3.8
			c-1.1-0.5-1.6-0.5-2.7-1.1h-5.4c-3.2-1.6-5.9-2.7-9.2-3.8h-0.5v1.6c0,0.5,0,1.1,0.5,1.6v1.1h-1.1h-0.5c-1.6,0-3.2-0.5-4.9-0.5
			l-2.2-0.5c-2.2-0.5-4.3-1.1-6.5-1.1l-1.1-0.5c-0.5-0.5-1.1-0.5-1.6-1.1l-1.6-1.1c-2.7-1.6-5.9-3.8-8.6-4.9h-0.5v0.5
			c0,0.5,0,0.5,0.5,1.1v0.5l0.5,1.1l-2.2,0.5H414c-0.5,1.1-2.2,1.6-3.8,1.6c-1.6,0-2.7-0.5-3.2-1.6c-2.2-2.2-4.3-3.8-7-4.9
			c-0.5-0.5-1.1-0.5-1.6-1.1h-0.5c-2.7-4.3-5.9-7.6-9.2-10.8c-0.5-0.5-1.1-0.5-1.6-0.5s-1.6,0.5-1.6,1.1c0,1.1-0.5,2.2-0.5,3.2
			c-1.6,1.6-3.8,2.2-5.4,1.1c-1.6-2.2-3.8-4.3-5.4-5.9l-1.6-1.6c-2.2-2.2-3.8-3.8-5.4-5.9l-1.1-1.1c-1.6-2.2-4.3-4.9-4.9-7V259v2.2
			c-0.5,2.2-2.2,2.7-3.8,2.7c-1.6,0-3.8-1.1-3.8-3.8c0-2.7-1.1-5.4-2.7-8.6c-5.4-5.9-8.6-11.9-10.3-17.3c-0.5-2.7-1.1-5.4-2.2-8.6
			l-1.6-8.1c-0.5-0.5-1.1-1.6-1.6-2.2c-3.8-5.9-7.6-11.9-13.5-15.7c-1.6-0.5-3.2-1.6-5.4-1.6c-1.1,0-2.2,0-2.7,0.5
			c-3.2,1.1-6.5,3.8-9.7,7v1.1c0,0.5,0,1.1-0.5,2.2c0,2.2,0.5,3.8,2.2,5.9l1.6,2.7c2.2,2.2,4.3,4.3,6.5,8.1c0.5,0.5,1.1,1.1,1.1,1.6
			c3.2,1.1,7,2.2,9.2,4.9c1.1,1.1,1.1,2.7,1.1,3.8c0,1.1-1.1,1.6-1.6,2.2c0,0-0.5,0-0.5,0.5l0.5,1.1c0.5,0.5,1.6,1.1,2.2,1.6
			c1.1,1.1,2.7,1.6,3.8,2.7c0.5,0.5,1.6,1.1,2.2,1.6c4.3,2.7,8.6,5.9,11.9,9.7c1.6,1.6,2.2,3.2,1.6,4.9c-0.5,2.2-2.7,3.8-4.9,4.9
			l0.5,0.5l3.2,1.6c5.9,2.2,9.7,4.9,13,8.6c1.1,1.1,1.6,2.2,2.2,3.8v2.7c0,0,0,0.5-0.5,0.5c0,0,0,0.5-0.5,0.5c0,0,0,0.5-0.5,0.5
			c-1.6,2.2-4.9,3.8-7,4.3h-0.5h-0.5v0.5c0.5,1.1,1.1,2.2,1.6,3.8c0.5,0.5,0.5,1.6,1.1,2.2c1.1,2.2,3.2,4.3,4.3,5.4
			c0.5,0.5,1.6,1.6,2.7,2.2c0.5,1.1,1.6,2.2,2.2,3.2c2.2,2.2,3.8,4.3,4.3,6.5c0.5,1.1,0,2.7-1.1,3.8c-1.6,1.6-3.8,2.2-6.5,3.2v1.6
			c2.2,1.1,2.7,3.2,3.8,4.9c1.6,1.6,2.2,3.2,2.7,5.4c0.5,2.7,1.1,7.6-2.2,9.2c-2.2,1.6-4.9,1.6-7.6,1.6h-3.2c-1.1,0-2.2,0.5-3.2,0.5
			c-1.1,0-1.6,0.5-2.7,0.5H345l-0.5,0.5c-0.5,1.1-0.5,1.6-0.5,2.7v17.8c-1.1,3.2-2.2,5.9-3.8,9.2c0,1.1-0.5,2.7-1.1,4.3
			c-0.5,0.5-1.1,2.2-2.2,2.2h-1.6c-1.6,0.5-3.2,0-4.9-1.1c-0.5-0.5-1.6-1.1-2.7-1.1c-0.5,0-1.1-0.5-1.6-0.5l-2.7,2.7l-1.6,4.9
			c-1.1,4.3-3.8,8.6-5.9,12.4c-1.1,1.6-2.2,3.8-2.7,5.4c-0.5,1.6-2.2,2.7-4.3,2.7c-1.6,0-3.2-1.1-4.3-2.7c-1.1-2.2-2.7-2.7-4.3-3.2
			c-3.2,2.2-7,4.9-11.3,7c0,0.5-0.5,1.1-0.5,1.6c-0.5,0.5-0.5,1.6-1.1,2.7c-1.1,3.2-2.2,7-4.9,9.2s-5.4,2.7-8.6,1.1
			c-1.6-0.5-3.2-1.1-4.9-1.1c-1.1,0-1.6,0-2.7-0.5c-3.8,2.2-8.1,4.3-13.5,7c0,0.5-0.5,1.1-0.5,1.1c-1.6,3.2-3.2,7-6.5,8.6
			c-2.2,1.1-4.3,1.6-7,1.6c-1.6,0-3.8,0-5.4-0.5h-2.2l-2.7,1.6c-1.1,3.8-4.9,10.8-7,12.4c-7,1.6-12.4,2.7-17.8,3.2
			c-2.2,0.5-4.3,0.5-6.5,1.1h-1.6v1.1c0,0.5-0.5,1.1-1.1,1.6c-9.2,4.3-16.2,10.8-23.2,17.8c-2.7,2.7-5.9,5.4-9.2,8.1
			c-11.3,9.2-19.4,21-24.8,35.1c0,1.1,0,2.2-0.5,2.7C136.1,521.9,135,522.4,133.9,522.4L133.9,522.4z M266.7,216.4
			c-7,0-11.9,1.6-14.6,4.9c-0.5,1.1-1.1,2.2-0.5,3.8c0.5,0.5,1.1,1.6,1.6,2.7v0.5h-0.5c-2.7,1.6-5.9,3.2-8.6,5.4h-0.5
			c-0.5,0-1.1,0-1.1,0.5c-7,1.1-13.5,2.7-18.3,7.6c-0.5,0.5-1.1,1.6-0.5,2.7c0,1.1,0.5,1.6,1.6,2.2l1.1,0.5l-1.1,0.5
			c-1.6,1.1-3.2,2.2-5.4,3.8l-2.2,0.5c-3.8,1.1-7.6,1.6-10.8,3.2c-1.6,0.5-3.2,1.6-5.4,2.2c-0.5,0.5-1.1,0.5-2.2,1.1
			c-1.6,0.5-2.7,1.1-4.3,1.1c0,0-0.5,0-0.5,0.5v0.5h-4.3c-1.6,0-2.7,1.6-2.7,2.7s0.5,2.7,2.2,2.7h0.5l1.6,0.5l-1.6,1.1
			c-4.3,2.7-8.1,4.9-11.9,7.6h-0.5c-9.7,1.1-20.5,6.5-21.6,14.6v2.2l-0.5,0.5l-9.7,9.7c-0.5,0-0.5,0.5-1.1,0.5h-0.5
			c-2.2,0.5-3.8,1.1-5.4,2.2l-1.1,0.5c-0.5,0-1.1,0.5-2.2,1.1c-1.6,0.5-3.2,1.6-4.9,1.6c-2.7,0-4.3,1.6-4.9,3.8c0,1.1,0,1.6-0.5,2.7
			c0,3.2,2.7,4.3,3.8,4.9l1.1,1.1l0.5,0.5l-0.5,0.5c-3.8,5.9-7,12.4-9.7,20l-1.1,1.1l-1.6,1.6l-1.6,1.6c-2.2,1.1-3.8,1.6-4.9,3.2
			c-1.1,1.1-1.6,2.7-1.1,3.8c0,1.1,1.1,2.7,2.2,3.2c1.1,1.1,1.6,2.7,2.7,4.3l0.5,1.1c-1.6,8.6-2.7,18.3-2.7,29.1
			c0,0.5-0.5,0.5-0.5,1.1v0.5h-0.5c-2.2,0.5-3.8,2.7-4.3,5.9c-0.5,3.2,0,6.5,1.6,8.1c0.5,0.5,1.6,1.1,2.7,1.1h0.5v0.5
			c0,5.4,0,10.8,0.5,16.2v2.2c0.5,16.2,4.3,31.3,8.6,48.6c1.6,5.9,2.7,12.4,3.8,18.3c1.6,9.2,3.2,18.3,6.5,26.4
			c0.5,1.1,1.6,1.1,1.6,1.1c0.5,0,1.1,0,1.6-0.5c0.5-0.5,0.5-1.1,0.5-1.6v-0.5c5.4-14,14-26.4,25.4-35.6c3.2-2.7,5.9-5.4,9.2-8.1
			c7.6-7,14.6-13.5,23.7-17.8c0.5,0,0.5-0.5,0.5-0.5V455l-0.5-0.5l1.1-0.5h0.5c0.5,0.5,1.1,0.5,1.6,0.5c2.2-0.5,4.3-1.1,7-1.1
			c5.4-1.1,10.3-1.6,15.1-3.8c1.6-1.1,5.9-8.1,6.5-11.3v-0.5l3.8-1.6h2.7c1.6,0,3.8,0.5,5.4,0.5c2.7,0,4.9-0.5,6.5-1.6
			c2.7-1.6,4.3-4.9,5.9-8.1c0-0.5,0.5-1.1,0.5-1.6c5.4-2.7,9.7-4.9,13.5-7c1.1,0,1.6,0.5,2.7,0.5c1.6,0,3.8,0.5,5.4,1.6
			c2.7,1.1,4.9,1.1,7-1.1c2.2-1.6,3.2-5.4,4.3-8.6c0.5-1.1,0.5-1.6,1.1-2.7c0-0.5,0.5-1.1,0.5-2.2c4.3-2.7,8.1-4.9,11.3-7.6h0.5
			c2.2,0.5,4.3,1.6,5.4,4.3c0.5,1.1,1.6,1.6,3.2,1.6c1.1,0,2.2-0.5,3.2-1.6c0.5-1.6,1.6-3.2,2.7-5.4c2.2-3.8,4.9-8.1,5.9-12.4
			l1.6-4.9l2.7-2.7l0.5-0.5h0.5c0.5,0.5,1.1,0.5,1.6,0.5l3.2,1.6c1.1,1.1,2.2,1.1,3.8,0.5h1.6c0.5,0,1.1-1.1,1.1-1.6
			c0.5-1.6,1.1-3.2,1.1-4.3c1.6-2.7,2.7-5.9,3.2-8.6v-0.5v-0.5v-8.1v-3.8v-2.7V347c0-1.1,0.5-2.2,0.5-2.7l-0.5-1.6h2.7
			c1.1,0,1.6-0.5,2.7-0.5s2.2-0.5,3.2-0.5s2.2,0,3.8-0.5c2.7,0,4.9,0,7-1.6c2.2-1.6,1.6-5.4,1.1-8.1c0-1.6-1.1-3.2-2.2-4.9V326
			c-0.5-1.6-1.1-3.2-3.2-4.3H353v-0.5v-2.7h0.5c2.7-0.5,4.9-1.6,6.5-2.7c0.5-0.5,0.5-1.6,0.5-2.2c-0.5-2.2-2.2-3.8-4.3-5.9
			c-0.5-1.1-1.1-1.6-1.6-2.7c-0.5-0.5-1.6-1.1-2.2-2.2c-1.6-1.1-3.8-3.2-4.9-5.9c-0.5-0.5-0.5-1.6-1.1-2.2l-1.6-3.2
			c-0.5-0.5-0.5-1.1,0-1.6c0-0.5,0.5-1.1,1.1-1.1h1.1c2.2-1.1,5.4-2.2,7-4.3v-0.5v-0.5v-0.5v-0.5v-0.5v-0.5v-0.5
			c0-1.1-0.5-2.2-1.6-2.7c-2.7-3.2-7-5.9-12.4-8.1c-1.1-0.5-2.7-1.1-3.8-1.6l-1.1-2.2l0.5-0.5c2.7-1.1,4.3-2.7,4.9-4.3
			c0.5-1.1,0-2.2-1.1-3.8c-3.2-3.8-7.6-6.5-11.3-9.7c-1.1-0.5-1.6-1.1-2.2-1.6c-1.1-1.1-2.7-1.6-3.8-2.7c-0.5-0.5-1.6-1.1-2.2-1.6
			l-1.6-2.2l1.1-0.5c0.5,0,0.5-0.5,1.1-0.5c0.5-0.5,1.1-0.5,1.1-1.6s0-1.6-0.5-2.7c-2.2-2.7-5.4-3.8-8.6-4.9v-0.5
			c-0.5-0.5-0.5-1.1-1.1-1.6c-2.7-3.8-4.3-5.9-6.5-8.1l-1.6-2.7c-1.1-2.2-2.7-4.3-2.2-7c0-0.5,0-1.1,0.5-2.2v-1.1
			c3.2-3.8,6.5-6.5,10.3-7.6c1.1-0.5,2.2-0.5,3.2-0.5c2.2,0,3.8,0.5,5.9,1.6c5.9,3.8,10.3,9.7,14,16.2c0.5,0.5,1.1,1.6,1.6,2.2
			l1.6,8.1c0.5,3.2,1.1,5.9,2.2,8.6c1.6,5.4,4.9,10.8,9.7,16.7c1.6,2.7,3.2,5.9,3.2,9.7c0,1.6,1.6,2.7,2.7,2.7
			c1.1,0,2.2-0.5,2.7-1.6v-1.6c0,0,0-0.5,0.5-0.5c0,0,0.5-0.5,1.1-0.5h1.1c0.5,0,0.5,0.5,0.5,0.5l0.5,0.5v0.5
			c0.5,2.2,2.7,4.3,4.3,6.5c0.5,0.5,0.5,1.1,1.1,1.1c1.6,2.2,3.2,3.8,5.4,5.9l1.6,1.6c2.2,1.6,3.8,3.8,5.4,5.9
			c1.1,0.5,2.7,0,3.8-0.5c0-1.1,0-2.2,0.5-3.2c0-1.6,1.6-2.2,2.7-2.2s1.6,0.5,2.2,1.1c3.2,3.2,6.5,6.5,9.7,10.8
			c0.5,0.5,1.1,0.5,1.6,1.1c2.7,1.6,5.4,2.7,7.6,5.4c0.5,0.5,1.6,1.1,2.2,1.1c1.1,0,2.2-0.5,2.7-1.6v-0.5h0.5V293
			c0-0.5,0-1.1,0.5-1.6s1.6-1.1,2.2-0.5c3.2,1.1,6.5,3.2,9.2,4.9l1.6,1.1c0.5,0.5,1.1,0.5,1.6,1.1h1.1c2.2,0.5,4.3,1.1,6.5,1.1
			l2.7,0.5c1.6,0,2.7,0.5,4.3,0.5v-1.6c0-0.5,0-1.1,0.5-1.6c0.5-0.5,1.1-1.1,2.2-0.5c3.2,1.1,6.5,2.2,9.7,3.8l1.1-1.6
			c1.1,0.5,1.6,0.5,2.7,1.1c3.8,0.5,7.6,0,9.7-0.5c0.5,0,0.5-0.5,1.1-0.5c-0.5-1.1-0.5-2.2-0.5-3.2c0-1.1,0-2.2,0.5-2.7
			s1.1-1.1,2.2-1.1c6.5,0,12.4,1.6,18.9,3.2c0.5,0,1.6,0.5,2.2,0.5l1.6,0.5c0.5,0,1.6-0.5,2.2-0.5h0.5l-1.6-3.2c0-0.5,0-1.6,0.5-2.2
			c0.5-0.5,1.6-1.1,2.7-1.1l11.3,1.6c2.2,0,3.8,0.5,5.9,0.5l4.9-1.6l1.1-0.5v-0.5c-0.5-0.5-0.5-1.1-1.1-1.6c-0.5-1.1-0.5-1.6,0-2.7
			s1.6-1.6,2.7-1.6h2.7c3.2,0,5.9,0.5,9.2,0.5c1.1,0,2.2,0.5,3.2,0.5v0.5v-0.5c2.2,0,3.8-1.1,5.4-2.2c-0.5-1.6-0.5-2.7,0-3.2
			c1.1-2.2,3.8-3.2,6.5-3.2c2.7,0,4.9,0.5,6.5,1.1c0.5,0,1.1-0.5,1.6-0.5c0.5-0.5,1.1-0.5,2.2-1.1h1.1c2.2-0.5,3.8-1.1,4.9-2.7
			c-0.5-0.5-0.5-1.6-0.5-2.2c0-1.1,1.1-2.2,1.6-2.7c2.7-1.6,5.4-2.2,8.6-2.2c1.1,0,1.6-0.5,2.7-0.5h1.6
			c16.7-9.7,32.4-20.5,45.9-32.4c0.5-0.5,0.5-1.1,0.5-1.6s0-1.6-0.5-2.2c-20-19.4-47-43.7-76.6-63.1c-2.7,0.5-4.9-0.5-5.9-3.2v-0.5
			l-1.1-0.5c-2.2-1.6-4.9-3.2-7.6-4.3c-3.2,0-6.5-0.5-9.2-2.2c-1.1-0.5-2.2-2.2-1.6-3.8V149c-1.6-2.2-3.8-5.4-7-6.5
			c-7.6,2.2-14,2.2-17.8,0c-0.5-0.5-1.1-1.1-1.1-1.6v-1.6c-1.6-3.2-4.3-5.4-7-5.9h-1.6c-1.1,0-2.2,0.5-3.2,0.5h-1.1
			c-4.3,1.1-8.6,2.2-13.5,2.2c-1.1,0-2.2-0.5-2.7-1.1c-0.5-1.1-1.1-2.2-1.1-3.2v-0.5c-0.5-1.1-1.6-2.7-2.2-3.8
			c-1.1-1.6-3.2-2.2-7-1.1c-3.8,2.7-7,4.3-10.8,5.4c-1.1,0.5-3.2,0.5-4.9,0.5c-1.6,0-2.7-0.5-3.8-1.1c-1.1-1.1-1.6-2.2-1.6-2.7
			c-1.1-1.1-2.2-2.2-3.2-2.2c-3.8-0.5-8.1,1.1-11.9,3.2c-1.6,0-3.2,0-4.3,0.5h-1.1c-0.5,0.5-1.1,0.5-2.2,0h-2.2v-0.5
			c0-0.5-0.5-1.6-1.1-1.6c-1.6-1.6-3.2-1.6-5.9-1.1H407c-3.8,3.2-7.6,5.9-11.3,8.1c-1.6,1.1-3.8,0.5-4.9-1.1
			c-0.5-1.1-1.1-2.7-0.5-3.8c0-0.5,0-0.5,0.5-1.1c-1.6-1.1-3.8-1.1-6.5,0.5c-0.5,1.1-1.6,1.6-2.2,2.7c-0.5,0.5-1.1,1.6-2.2,2.2
			l-0.5,0.5c-0.5,0.5-1.1,1.6-1.1,2.7c0,0.5-0.5,0.5-0.5,1.1h-0.5c-0.5,0-1.1,0.5-1.6,0.5l-0.5,0.5h-1.1c-1.1,0-2.2-0.5-2.7-2.2
			c0-1.1-0.5-2.2,0-3.2c-1.6,0-3.8,0.5-5.9,2.2c-2.2,1.6-4.3,4.9-5.9,8.6c-0.5,1.1-1.1,1.6-1.6,2.7l-0.5,0.5h-0.5
			c-0.5,1.1-1.6,2.7-3.8,3.2H352l-0.5,0.5l-0.5-0.5c-1.1-1.6-2.7-2.2-4.3-1.1c-4.3,2.7-7.6,7.6-10.3,11.9c-0.5,0.5-1.1,1.6-1.1,2.2
			c-1.6,2.2-2.7,4.9-3.8,8.1c-3.2,4.3-5.9,9.2-9.2,14.6v0.5h-0.5c-3.8,0-7,0.5-9.7,0.5c-0.5,0-0.5,0-1.1,0.5l-2.7,0.5l1.1-1.6
			c3.8-4.9,7-11.3,9.7-18.9c2.2-2.7,4.3-5.4,6.5-8.6h0.5c0,0,0-0.5,0.5-0.5v-0.5c1.1-1.6,2.7-3.2,3.8-4.9c0.5-0.5,0.5-1.1,1.1-1.6
			l1.1-1.6c35.6-44.8,75.6-95,42.6-150c-0.5-0.5-1.1-1.1-1.6-1.1c-0.5,0-1.6,0.5-1.6,1.1c-1.1,8.1-7.6,17.8-13,26.4
			C354.7,34,350.4,41,348.2,47c-7.6,20.5-8.6,41-9.7,62.6v2.7c0,2.2-0.5,4.3-0.5,7c-0.5,3.8-0.5,7.6-0.5,10.3l-3.2,8.1
			c-1.1,2.7-2.2,5.4-2.7,8.1c-0.5,2.2-2.2,4.3-3.2,6.5l-1.6,3.2l-3.8,5.4l1.1-3.8c3.2-11.9,4.9-22.1,5.4-28.6
			c1.1-9.2,0.5-18.3-1.1-28.6l-0.5,0.5c-0.5,0.5-1.6,0.5-2.2-0.5c-0.5-0.5-0.5-1.1,0-1.6v-0.5c0.5-1.1,1.1-2.7,2.2-3.8
			c-0.5-3.2-1.1-5.9-1.6-8.6c-2.2,2.7-2.7,2.7-3.2,2.7c-1.1,0-2.2-0.5-2.7-1.6c-1.6-2.7-0.5-7.6,0.5-10.3c-0.5-0.5-1.1-0.5-1.1-1.1
			c-0.5,0.5-1.6,0.5-2.2,0.5c-1.1,0-1.6-0.5-2.7-1.1c-1.1-1.1-1.1-3.2-1.1-5.4c-1.6,3.2-3.2,7-1.1,10.3c0.5,1.1,1.6,1.6,2.7,1.6
			c0.5,0,1.6-0.5,2.2-0.5l0.5-0.5l0.5,1.6v1.1l-0.5,0.5l0.5,0.5c0,0.5-0.5,2.7-1.1,3.2c0,1.6,0,2.7,0.5,3.8c0.5,1.1,1.6,1.1,2.7,1.1
			h0.5v0.5c0,0.5,0.5,1.1,0.5,1.6c0.5,2.2,1.1,4.3,1.1,5.9v0.5l-0.5-1.1l-0.5,0.5c-1.1,0.5-2.2,1.6-2.7,2.7c-0.5,1.1-0.5,1.6,0,2.2
			c0.5,1.6,2.7,2.2,3.8,1.1l1.1-0.5v4.9h-1.1c0-1.6-2.2-1.6-3.2-1.1c0,0.5-0.5,0.5-0.5,1.1c0,3.8,2.2,3.8,2.7,3.8
			c0.5,0,0.5,0,1.1-0.5v-1.1h1.6v5.9h-0.5c-0.5,0-1.1,0.5-1.6,1.1c-0.5,0.5-0.5,1.1,0,2.2c0,0.5,0.5,1.1,0.5,1.1
			c0.5,1.1,0.5,1.6,1.1,2.7c-0.5,8.1-1.6,16.2-2.7,23.7h-0.5l0.5,0.5l-1.1,2.2c-2.7,7-9.7,25.4-14.6,30.2l-1.6,1.6l1.6,1.6h-2.2
			l-0.5,0.5v-0.5l-1.6-1.1c-1.1-0.5-1.6-1.6-1.6-3.8c-0.5-4.3-1.6-8.1-2.7-11.3v-0.5h0.5c4.3-3.2,7-8.1,9.7-13.5
			c1.6-2.7,2.7-4.9,4.3-7v-0.5c0-0.5-1.1-0.5-1.6,0c-1.6,2.2-2.7,4.3-4.3,6.5c-1.1,1.6-2.2,3.2-3.2,5.4c-1.1,1.6-2.7,3.2-3.8,4.3
			l-1.6,1.6l-1.1,1.1l-1.1-4.3c-1.1-3.8-2.2-8.1-2.7-12.4V149c5.4-7.6,9.7-14.6,14.6-23.2v-0.5c0-0.5-0.5-0.5-1.1,0
			c-1.1,1.6-1.6,3.2-2.7,4.9c-1.6,3.2-3.2,5.9-5.4,9.2c-0.5,0.5-1.1,1.1-1.6,2.2c-1.1,1.6-2.7,3.8-3.8,5.4l-1.1,1.6l-0.5-1.6
			c-1.6-7.6-2.7-18.3-0.5-30.8c1.6-8.1,4.9-16.7,8.6-24.3c2.7-6.5,5.4-13,7-19.4v-1.6c-0.5-0.5-1.1-0.5-1.6-0.5
			c-0.5,0-1.6,0-1.6,1.1c-1.6,5.4-3.8,10.3-5.9,15.7c-5.9,15.7-11.9,30.2-11.9,47c0,14.6,3.8,29.1,6.5,39.4l1.6,4.9l-1.1-3.8
			c-2.7-4.3-4.9-8.6-7.6-13.5c-1.1-2.7-2.7-4.9-3.8-7c-14-24.8-9.2-45.9,2.7-70.2c3.2-6.5,6.5-13.5,9.2-20c2.2-5.4,4.9-10.3,7-15.7
			c0.5-1.1,1.1-1.6,1.6-1.6s1.6,0.5,2.2,1.1c0,1.1,0.5,2.2,0.5,3.2c0.5,1.1,0.5,2.7,1.1,3.8v3.8c0,2.2,0,4.3,0.5,6.5
			c0.5,1.6,2.2,2.7,3.2,2.7s2.2-0.5,3.2-1.6l0.5-1.1l1.1,2.2c0-1.1,0-2.2,0.5-3.2v-1.6V61c-0.5-0.5-0.5-1.1-1.1-1.6
			c-0.5,0.5-1.6,0-2.2-0.5c-3.2-3.2-2.7-9.2-1.6-13.5c-1.6-3.2-3.2-5.9-4.9-8.6c-0.5-1.1-2.2-1.1-3.2,0
			c-16.7,25.9-34,55.6-37.2,81.5c-0.5,5.9,0.5,13.5,3.8,22.7l1.6,4.3l-2.7-3.8c-7-9.2-14.6-18.9-24.3-25.9
			c-21.6-16.7-45.9-18.9-66.4-18.9c-4.9,0-10.3,0-16.7,0.5c-36.7,1.6-64.2,7.6-84.7,17.8c-24.8,12.4-44.3,34-63.1,54.5
			c-2.2,2.2-3.8,4.3-5.9,6.5c-3.8,3.8-4.9,7.6-4.3,11.3c0.5,4.3,4.9,8.6,12.4,13c8.6,4.9,18.9,7,29.1,9.2c4.9,1.1,9.2,2.2,14,3.2
			c5.9,1.6,12.4,3.8,20.5,6.5c0.5,0.5,1.1,0.5,2.2,0.5l1.6,0.5c2.7,1.1,5.9,2.2,8.6,3.2c1.1-0.5,2.2-0.5,3.8-0.5h1.6
			c2.7,0,4.9,1.1,7,1.6c0.5,0,1.6,0.5,2.2,0.5c1.1,0.5,2.2,1.1,2.7,2.2c0.5,1.1,0.5,2.2,0.5,3.8c4.3,1.6,8.6,3.8,13,5.4
			c5.4,2.2,11.3,4.3,16.7,5.9c1.1-0.5,2.2-1.1,3.8-1.6c0.5-0.5,1.6-0.5,2.2-1.1s1.6-0.5,2.7-0.5c2.2,0,4.3,1.1,5.4,3.2
			c0.5,1.1,1.1,2.7,0.5,3.8c9.7,1.6,17.8,1.6,25.4,0.5l1.6-1.6l5.9-5.9c2.2-2.2,4.3-4.3,5.9-6.5c0.5-0.5,1.6-1.1,2.7-1.1
			c1.6,0,3.2,1.1,3.8,2.7v0.5c0.5,1.6,1.1,3.2,1.1,4.9c0.5,0,1.1,0,1.6-0.5c1.6-1.1,3.2-2.2,5.4-3.2c0.5-2.2,1.6-4.9,2.7-7l0.5-0.5
			c1.6-3.8,3.2-7.6,6.5-10.3c1.1-1.1,2.2-1.1,3.2-1.1c1.6,0,3.2,1.1,3.8,2.2c0,0.5,0.5,1.1,1.1,2.2l0.5-0.5c3.8,0,6.5-0.5,8.6-2.7
			c0-0.5,0-1.6,0.5-2.2c1.1-2.2,1.1-4.9,1.6-7c0.5-3.8,1.6-7.6,3.8-10.8c1.1-1.6,2.7-2.2,4.3-2.2c1.1,0,2.2,0.5,3.2,1.6
			c0,0.5,0.5,0.5,1.1,1.1c1.1,1.1,2.2,2.2,3.2,3.8l0.5-0.5h1.6c1.1-0.5,2.2-1.1,3.2-2.2c1.1-2.2,2.7-3.8,4.9-5.9
			c0.5-1.1,1.1-2.2,1.6-2.7c2.7-2.2,6.5-4.9,10.3-6.5c2.7-0.5,4.9-0.5,7.6-1.1h2.2c3.8,0,8.6,0,12.4-1.1h0.5v0.5
			c1.6,4.3,3.2,8.1,4.9,11.3v0.5l1.6,1.1c0,0-0.5,0-0.5,0.5l-1.1,1.1v-2.2v-1.1c0,0,0-0.5-0.5-0.5c-0.5,2.2-1.1,3.8-1.1,5.4v0.5
			c-2.2,2.7-3.2,6.5-3.8,9.7v0.5h-0.5c-1.6,0.5-2.7,1.6-3.8,2.2c-0.5,0.5-1.6,1.1-2.2,1.6c-1.6,0.5-2.7,1.1-4.3,1.1
			c-1.1,0-1.6,0-2.7,0.5s-2.7,1.1-3.8,1.1L266.7,216.4L266.7,216.4z M302.3,178.1c-0.5,0-0.5,0.5-0.5,0.5v0.5h0.5v0.5
			c0,1.1,0,2.2,0.5,3.2l1.1,1.1l0.5-1.6c0-0.5,0-1.1,0.5-1.6v-0.5c0-1.1,0.5-2.2,0.5-2.7c0.5-1.1,0.5-1.6,1.1-2.7
			c0-2.2,1.6-4.3,3.2-5.9c0.5-0.5,0.5-1.1,1.1-1.1l0.5-0.5c1.6-2.2,2.7-3.8,3.8-5.9v-0.5h-0.5c-2.2,2.2-4.9,4.3-7,7.6
			c-1.1,1.1-1.6,2.7-2.2,4.3v1.6c0,0.5-0.5,1.1-0.5,1.6C303.4,175.9,303.4,177,302.3,178.1z M314.2,164.6c-0.5,1.1-1.1,2.2-2.2,2.7
			l-0.5,1.1c0,0.5-0.5,0.5-1.1,1.1c-1.1,1.6-2.7,3.8-3.2,5.4c0,1.1-0.5,2.2-1.1,3.2c0,0.5-0.5,1.6-0.5,2.2
			C308.8,176.5,311.5,170.5,314.2,164.6z M299.1,168.9l1.6,8.1c0,0,0.5,0,0.5-0.5c0.5-1.1,0.5-1.6,1.1-2.7c0-0.5,0.5-1.1,0.5-1.6
			c0,0,0-0.5,0.5-0.5v-0.5c0.5-1.6,1.6-3.2,2.7-4.9c2.7-3.2,4.9-5.9,7.6-8.1c0.5-0.5,1.6-0.5,2.2,0.5v0.5c1.6-3.2,2.7-5.9,3.2-8.1
			c0.5-1.1,0.5-2.2,1.1-2.2c1.6-7.6,2.7-15.7,2.7-23.2c-0.5-0.5-1.1-1.6-1.1-2.7c0-0.5-0.5-1.1-0.5-1.1c-0.5-1.1-0.5-2.2,0-3.2
			c0.5-0.5,1.1-1.6,2.2-1.6V115h-1.1c-1.6,0-3.8-1.1-3.8-5.4c0-1.1,0-1.6,0.5-2.2c1.1-1.1,2.7-1.1,3.8-0.5v-0.5
			c-1.6,0.5-4.3-0.5-4.9-2.2c-0.5-1.1-0.5-2.7,0-3.8c1.1-1.1,1.6-2.2,3.2-2.7l0.5-0.5c0-1.6-0.5-3.8-1.1-5.4v-1.1
			c-1.6,0-2.7-0.5-3.2-2.2s-1.1-2.7-0.5-4.9c0,0,0.5-2.2,1.1-3.2v-0.5c-0.5,0.5-1.6,0.5-2.2,0.5c-1.6,0-2.7-1.1-3.8-2.2
			c-2.2-3.8-0.5-7.6,0.5-10.8c-1.1,1.1-2.7,1.1-4.3,1.1c0.5,0,0.5,0.5,0.5,0.5c0.5,0.5,0.5,1.6,0.5,2.7c-1.6,6.5-4.3,13-7,19.4
			c-3.2,7.6-7,15.7-8.1,24.3c-2.2,11.3-1.1,21,0.5,28.6c1.1-1.6,2.2-2.7,2.7-4.3c0.5-0.5,1.1-1.1,1.1-2.2c2.2-2.7,3.8-5.9,5.4-9.2
			c1.1-1.6,1.6-3.2,2.7-4.9c0.5-1.1,2.7-1.1,3.2,0c0.5,0.5,0.5,1.1,0,1.6c-4.9,8.1-9.2,15.7-14.6,22.7c1.1,3.8,1.6,7.6,2.7,11.9
			l0.5,1.6c0-0.5,0.5-0.5,0.5-1.1c1.1-1.6,2.7-2.7,3.8-4.3l3.2-4.9c1.1-2.2,2.7-4.3,4.3-7c1.1-1.1,3.2-1.1,3.8,0
			c0.5,0.5,0,1.1,0,2.2c-1.6,2.2-2.7,4.3-4.3,7C306.6,160.3,303.4,165.7,299.1,168.9L299.1,168.9z M301.2,48.6c0,0-0.5,0-0.5,0.5
			c-2.7,5.4-4.9,10.3-7,15.7c-2.7,6.5-5.9,13.5-9.2,20c-11.9,24.3-16.7,44.3-2.7,68.5c1.1,2.2,2.7,4.9,3.8,7
			c1.6,2.7,3.2,5.9,4.9,8.6c-2.7-9.7-5.4-22.1-5.4-34.5c0-17.3,5.9-31.8,12.4-47.5c2.2-4.9,3.8-10.3,5.9-15.1
			c0.5-1.6,1.6-2.2,3.2-2.2h0.5c-1.1-0.5-2.2-1.6-2.2-2.7c-0.5-2.2-0.5-4.3-0.5-6.5v-3.8c0-1.1-0.5-2.7-0.5-3.8s-0.5-2.2-0.5-3.2
			C301.8,48.6,301.2,48.6,301.2,48.6z M134.5,512.2l-1.1-3.2c-8.1-35.6-15.1-70.7-14.6-105.8c-2.2,0-3.8-0.5-4.9-1.1
			c-0.5-0.5-1.1-1.1-1.1-1.6v-0.5c1.1-1.1,2.2-2.7,2.7-2.7c1.6-2.2,2.7-4.9,3.8-7c0.5-1.1,1.1-2.7,1.6-3.8c1.6-2.7,1.6-6.5,0-11.9
			c0.5-3.8,1.1-7.6,1.6-10.3c0.5-0.5,1.1-1.1,1.1-1.6c0.5-1.6,0.5-3.2,0.5-5.4c-2.2-1.1-3.8-2.7-4.3-4.9v-2.2
			c0.5-0.5,1.1-1.1,2.2-1.6l1.6-1.6c2.2-2.2,4.9-3.8,5.4-6.5c2.7-7,6.5-13.5,11.3-20.5c-1.6-0.5-2.7-1.1-3.8-1.6
			c-0.5-0.5-1.1-1.1-1.1-2.2c0-0.5,0.5-1.6,1.1-1.6c3.8-2.7,8.6-5.4,13.5-7l0.5-0.5l0.5-0.5c1.1-0.5,2.2-1.1,2.7-1.6
			s1.1-0.5,1.6-1.1c1.1-1.1,2.2-1.6,3.8-2.2c0.5,0,1.6-0.5,2.2-1.1c1.6-1.1,2.2-2.2,2.2-3.2l-1.6-1.6c-0.5-1.6-0.5-2.7-1.1-3.2
			c0-0.5,0.5-1.6,1.1-1.6c0-1.1,1.1-2.2,2.2-2.2c3.2-0.5,6.5-1.6,9.7-2.7c1.6-0.5,3.8-1.1,5.4-1.6c5.4-3.8,10.8-7,16.7-10.3h0.5
			c-0.5-3.2,0-6.5,2.7-8.6c1.6,0,2.7,0,4.3-0.5c1.6,0,3.8-0.5,5.9-0.5c3.8,0,8.6,0,10.8-3.8h0.5c3.2-2.2,7-3.8,10.3-5.9h2.7
			c0,0-0.5-0.5-0.5-1.1c-2.2-1.6-3.2-3.2-3.2-4.9c0-1.6,0.5-3.2,2.2-4.3c3.2-2.7,7.6-3.2,11.3-3.8c2.2,0,3.8,0,5.9,0.5
			c2.7-2.2,5.9-3.8,8.6-5.9c1.1-0.5,1.6-1.1,2.7-1.6c-0.5-1.1-1.6-2.2-2.2-2.7c-1.1-1.1-1.1-2.7-0.5-3.8c0.5-1.1,1.6-1.6,2.7-1.6
			c0.5-0.5,1.1-1.1,2.2-1.1h2.2c3.8,0,7.6,0.5,10.8,1.6c1.1,0,2.2,0.5,2.7,0.5c0.5,0,1.1,0,1.1,0.5c2.2-0.5,4.3-1.1,5.9-1.6
			c0.5,0,0.5,0,1.1-0.5l2.2-0.5l-1.1,1.6c-2.7,3.8-5.4,7-8.1,10.3c-2.7,3.2-5.9,6.5-8.6,10.3v0.5h-1.6c-0.5,0-0.5,0.5-0.5,0.5
			s0,0.5,0.5,0.5h0.5v1.1c0.5,0.5,0.5,0.5,1.1,0h0.5l0.5,0.5l2.7,2.7l2.2,2.2c9.7,5.9,18.3,11.3,24.8,20.5
			c9.2,12.4,8.1,29.7,7.6,44.8v5.4h0.5c3.2-13.5,4.9-33.5-5.4-51.3c-3.8-7-10.8-11.9-17.8-16.2l-2.2-1.1c-1.1-0.5-2.2-1.6-3.8-2.7
			c-2.2-1.6-4.3-3.2-5.9-4.9l-1.1-0.5l1.1-0.5c6.5-4.9,12.4-10.8,17.3-17.8l0.5-1.1l0.5,1.1c0.5,1.6,1.6,3.2,2.7,4.3l6.5,6.5
			c1.6,1.1,3.2,2.7,4.3,3.8h0.5c-1.1-2.7-3.2-4.9-5.9-6.5c-0.5-0.5-1.1-1.1-2.2-1.6l-0.5-0.5c-2.2-2.2-5.4-5.4-5.4-8.1v-0.5
			c0-0.5,0.5-0.5,0.5-1.1c0.5-0.5,0.5-1.1,0.5-1.6l0.5-0.5l0.5,0.5c1.1,0.5,1.6,1.1,2.7,1.6h0.5c1.6,3.2,4.9,8.1,9.7,9.7h1.6
			c1.6,0.5,2.7,2.2,2.7,3.8c0,1.1-0.5,2.2-0.5,2.7s-0.5,1.1-0.5,1.6c0.5,0,1.1,0.5,1.6,1.1l1.1,1.1c2.7,2.2,4.9,3.8,7.6,5.9
			c2.7,2.2,5.4,4.3,8.6,6.5c1.1,1.1,1.6,2.2,1.6,3.8s-1.1,3.2-2.7,4.3c-1.1,0.5-1.6,1.1-2.7,2.2l-0.5,0.5c0,0.5,0.5,1.1,1.6,1.6
			c2.2,3.2,6.5,4.9,10.3,6.5c2.2,1.1,4.3,1.6,6.5,2.7c0.5,0.5,1.6,1.1,2.2,1.6l1.1,0.5v0.5c0,1.6-0.5,2.7-1.1,3.8l-2.2,2.2
			c-1.6,0.5-2.7,1.6-4.3,2.2h-0.5c-0.5,0-0.5,0-1.1,0.5c-0.5,0-0.5,0-1.1,0.5c-0.5,1.1,0,2.7,1.1,3.2c2.2,4.3,5.4,8.6,8.1,11.9v0.5
			c1.6,1.6,3.8,3.2,4.3,5.4v2.7c-0.5,0.5-1.1,0.5-1.6,1.1h-0.5c-0.5,0.5-1.1,0.5-1.6,1.1c-1.6,0.5-3.2,1.6-3.8,2.7
			c-0.5,1.1,0,2.7,0.5,3.8c0,0.5,0,1.1,0.5,1.1l0.5,0.5c0.5,0.5,1.6,0.5,2.2,1.1c1.1,0.5,2.7,1.6,3.8,3.8c1.6,2.7,1.1,5.4-1.1,8.1
			h-5.4c-2.2,0-4.3,0-6.5,1.6c-1.6,1.1-1.6,3.2-1.6,5.4c-1.1,5.4-1.6,10.8-2.2,16.2c0,3.8-0.5,7.6-1.1,11.3
			c-1.1,0.5-2.2,1.1-3.8,1.1h-0.5c-1.1-0.5-1.6-0.5-2.7-1.1c-1.6-1.1-3.2-1.6-5.4-1.6c-0.5,0-1.6,0.5-2.2,1.1
			c-1.1,2.7-2.2,5.4-2.7,8.6v0.5c0,0.5-0.5,1.1-0.5,1.1c-1.6,3.8-3.8,7.6-6.5,10.8s-4.9,3.8-8.6,1.1c-1.1-0.5-1.6-1.6-2.7-2.7
			c-3.2-0.5-5.4,0-6.5,2.2c0,0.5-0.5,0.5-0.5,1.1v0.5l-0.5,0.5c0,0.5-0.5,1.1-1.1,1.6c-1.6,2.7-4.3,4.3-6.5,3.8
			c-0.5,0-1.1,0-1.6-0.5l-0.5,1.1c0,3.2-1.1,6.5-1.6,7.6c-2.2,4.3-5.9,6.5-9.7,5.4c-1.6-0.5-3.2-1.1-4.3-1.6H264
			c-1.1,0.5-1.6,0.5-2.2,1.1c-2.7,1.6-5.9,3.2-8.6,4.9l-0.5,0.5c-2.7,2.2-5.4,4.3-8.1,7l-1.1,1.1c-2.2,2.2-4.3,4.9-7.6,5.4
			c-3.8,0.5-7,0.5-10.8-0.5H223c-1.6-0.5-2.7,0.5-3.2,2.2c0-2.7,0-1.6-0.5-0.5l-1.1,0.5c0,4.3-1.1,8.6-7.6,10.8
			c-2.2,0.5-4.3,1.1-7.6,1.1c-2.2,0-4.3,0-5.9-0.5c0,0-0.5,0-0.5,0.5c-3.2,2.2-6.5,3.8-10.3,6.5c-6.5,2.2-13,8.1-17.8,13.5
			c-8.1,7-15.1,14-21.6,21.6c-4.3,4.3-7,8.6-9.2,12.4c-1.1,2.2-2.2,4.3-2.7,6.5L134.5,512.2L134.5,512.2z M119.9,401.5v0.5
			c-0.5,34.5,6.5,68.5,14,103.6c0.5-1.6,1.1-2.7,1.6-4.3c2.2-4.3,5.4-8.1,9.2-13c6.5-7.6,13.5-14.6,21.6-21.6
			c5.4-5.4,11.3-11.3,18.3-13.5c3.8-2.2,7-4.3,9.7-6.5l0.5-0.5h1.1c1.6,0,3.8,0.5,5.9,0.5c2.7,0,4.9-0.5,7-1.1
			c5.4-2.2,6.5-5.4,7-10.3V435l1.1-0.5c0.5-1.1,0.5-2.2,1.1-3.2c0.5-2.2,2.7-3.2,4.9-2.7h2.2c3.2,1.1,7,1.1,10.3,0.5
			c2.7-0.5,4.9-2.7,7-4.9l1.1-1.1c2.7-2.7,5.4-5.4,8.6-7.6l0.5-0.5l8.1-4.9c0.5-0.5,1.6-1.1,2.2-1.6l0.5-0.5h0.5
			c1.6,0.5,3.2,1.6,4.9,1.6h1.6c3.8,0,5.9-3.2,6.5-4.9c0.5-1.1,1.6-4.3,1.6-7v-0.5l1.1-2.2h2.2c2.7,0,4.9-2.2,5.4-3.2
			c0.5-0.5,0.5-1.1,1.1-2.2l0.5-2.2v0.5c1.6-2.7,4.9-3.2,8.1-2.7l0.5,0.5c1.1,1.1,1.6,1.6,2.7,2.2c2.7,2.2,4.3,2.2,6.5-0.5
			c2.7-3.2,4.9-6.5,6.5-10.8c0-0.5,0.5-1.1,0.5-1.1v-0.5c0.5-3.2,1.6-5.9,2.7-8.6c0.5-1.1,2.2-1.6,3.2-1.6c2.7,0,4.3,1.1,5.9,1.6
			c1.1,0.5,1.6,1.1,2.7,1.1s1.6,0,2.2-0.5c0.5-3.8,0.5-7,1.1-10.8c0.5-5.4,0.5-11.3,2.2-16.2c0-1.6,0-4.9,2.2-6.5
			c2.7-1.6,5.4-1.6,7.6-1.6h4.3c1.6-2.2,1.6-4.3,0.5-6.5c-0.5-1.1-1.6-2.2-3.2-3.2c-0.5-0.5-1.6-1.1-2.2-1.1l1.1,1.1
			c-0.5-0.5-1.1-1.1-1.1-2.2c-1.1-1.6-1.1-3.2-0.5-4.9c1.1-1.6,2.7-2.2,4.3-3.2c0.5-0.5,1.1-0.5,1.6-1.1h0.5c0.5,0,1.1-0.5,1.1-0.5
			v-1.6c-0.5-2.2-2.2-3.8-3.8-4.9v-0.5v-0.5c-2.7-3.2-5.9-7.6-8.1-11.9c-1.6-1.1-2.2-3.2-1.6-5.4V285h0.5c0.5,0,1.1-0.5,1.6-0.5
			c0.5,0,0.5,0,1.1-0.5c1.1-0.5,2.7-1.1,3.8-2.2c0.5-0.5,1.6-1.1,2.2-1.6c0.5-0.5,1.1-1.6,1.1-2.2l-0.5-0.5
			c-0.5-0.5-1.1-1.1-2.2-1.1c-1.6-1.1-3.8-2.2-6.5-2.7c-4.3-1.6-8.1-3.2-10.8-7c-1.1-0.5-1.6-1.6-2.2-2.7v-0.5l1.1-1.1
			c1.1-0.5,2.2-1.6,2.7-2.2c1.1-0.5,1.6-1.6,1.6-3.2c0-1.1-0.5-2.2-1.1-2.7l-8.1-6.5c-2.7-2.2-4.9-3.8-7.6-5.9l-1.1-1.1l-1.1-1.1
			l-1.1,2.2v-3.2c0-0.5,0.5-1.6,0.5-2.7s0.5-1.6,0.5-2.7c0-1.1-1.1-2.2-1.6-2.7h-2.2l-0.5-0.5c-5.4-1.6-8.1-6.5-10.3-10.3
			c-0.5-0.5-1.1-1.1-2.2-1.1c0,0.5-0.5,0.5-0.5,1.1l-0.5,0.5c-0.5,2.2,2.7,5.4,4.9,7.6l0.5,0.5c0.5,0.5,1.1,1.1,2.2,1.6
			c2.2,2.2,4.3,4.3,5.9,7v1.6c-0.5,1.1-1.6,1.1-2.2,0.5c-1.6-1.6-2.7-2.7-4.3-3.8c-2.2-2.2-4.9-4.3-7-6.5c-1.1-1.1-1.6-2.2-2.7-3.8
			c-4.3,6.5-9.7,12.4-16.2,16.7c2.2,1.1,3.8,2.7,5.4,4.3c1.6,1.1,2.7,2.2,3.2,2.7l2.2,1.1c7,4.3,14,9.2,18.3,16.7
			c10.3,18.3,8.6,38.9,5.4,52.3c0,0.5-0.5,1.1-1.6,1.1c-0.5,0-1.1,0-1.1-0.5c-0.5-0.5-0.5-0.5-0.5-1.1V313c0.5-14.6,1.6-31.3-7-43.7
			c-5.9-8.6-14.6-14-24.3-20c-0.5,0-1.1-1.1-2.7-2.7l-2.2-2.2c-0.5,0-1.6,0-2.2-0.5c1.6,1.1,1.1,1.1,1.1,0.5
			c-0.5-0.5-1.1-1.1-1.1-1.6c0-1.1,0.5-1.6,1.6-1.6h0.5c2.7-3.8,5.4-7,8.1-10.3c2.7-2.7,4.9-5.4,7-8.6c-1.6,0.5-3.2,1.1-5.9,1.6H278
			l-0.5-0.5c0,0-0.5-0.5-1.1-0.5c-1.1,0-2.2-0.5-2.7-0.5c-4.3-1.1-8.6-1.6-13-1.6c-0.5,0-1.1,0.5-1.6,0.5h-0.5
			c-1.1,0-1.1,0.5-1.6,1.1c-0.5,0.5,0,1.6,0.5,2.2c0.5,0.5,2.2,2.2,2.7,3.8v0.5l-0.5,0.5c-1.1,0.5-2.2,1.6-3.2,2.2
			c-2.7,2.2-5.9,3.8-8.6,5.9h-0.5c-1.6-0.5-3.8-0.5-5.9-0.5c-3.8,0-7.6,0.5-10.8,3.2c-1.1,1.1-1.6,2.2-1.6,3.2
			c0,1.6,1.1,2.7,2.7,3.8c0,0.5,0.5,1.1,0.5,1.1l0.5,0.5l-1.1,0.5c-1.1,0.5-2.2,0.5-3.2,0c-3.2,2.2-6.5,3.8-9.7,5.9
			c-2.2,3.8-7.6,4.3-11.3,4.3c-2.2,0-3.8,0-5.4,0.5c-1.6,0-2.7,0-4.3,0.5c-2.2,2.2-2.7,4.9-1.6,7.6v0.5h-0.5c-0.5,0-0.5,0.5-1.1,0.5
			c-5.9,3.2-11.3,7-16.7,10.3c-1.6,0.5-3.8,1.1-5.4,1.6c-3.2,1.1-6.5,2.2-9.7,2.7c-1.1,0-1.1,1.1-1.1,1.1v0.5h-0.5
			c-0.5,0-0.5,0.5-0.5,1.1c0.5,1.1,0.5,2.2,1.1,3.2l1.6,1.6v0.5c0,2.2-1.1,3.8-3.2,4.9c-0.5,1.1-1.6,1.6-2.7,1.6s-2.2,1.1-3.2,1.6
			c-0.5,0.5-1.1,0.5-1.6,1.1c-1.1,0.5-1.6,1.1-2.7,1.6l-0.5,0.5c-0.5,0-0.5,0.5-0.5,1.1c-4.9,1.6-9.7,4.3-13.5,7
			c-0.5,0-0.5,0.5-0.5,0.5c0,0.5,0,0.5,0.5,1.1c1.1,0.5,2.2,1.1,4.3,1.6h1.1l-0.5,1.1c-4.9,7-8.6,14-11.9,21c-1.1,2.7-3.2,4.9-5.4,7
			l-1.6,1.6l-1.6,1.6v1.1c0.5,1.6,2.2,3.2,3.8,4.3h0.5v0.5c0.5,2.2,0,3.8-0.5,5.9c0,0.5-0.5,1.1-1.1,2.2c-0.5,3.2-1.1,6.5-1.6,10.3
			c1.1,5.4,1.1,9.7-0.5,12.4c-0.5,1.1-1.1,2.7-1.6,3.8c-1.1,2.7-2.2,4.9-3.8,7.6c0,0-1.1,1.6-2.2,2.7l0.5,0.5
			c1.1,0.5,3.2,1.1,4.9,1.1L119.9,401.5L119.9,401.5z M154.4,443.6c-0.5,0-1.1,0-1.6-0.5c-0.5-0.5-0.5-1.1-0.5-1.6
			c2.7-24.3,10.3-50.2,22.1-77.2c-3.2,1.6-5.9,3.2-9.2,4.9c-13,6.5-24.8,13-32.9,26.4c-0.5,1.1-2.7,1.1-3.2,0
			c-0.5-0.5-0.5-1.1,0-2.2c9.2-15.1,26.4-27.5,45.9-32.9h1.1c5.9-13,12.4-25.4,20-37.8c1.6-2.7,3.2-5.4,4.9-9.2
			c11.9-21,31.3-56.7,54-56.7h1.1c0.5,0,1.1,0.5,1.1,1.1c0,0.5-0.5,1.1-1.1,1.1c-6.5,2.2-13.5,6.5-20.5,14
			c25.9,14.6,59.4,38.9,51.3,85.3c0,1.1-1.1,1.6-1.6,1.6c-1.1,0-2.2-0.5-2.2-1.6V354c-0.5-18.3-1.6-37.2-15.7-51.3
			c-10.8-10.8-22.1-19.4-34-25.9c0,0-0.5,0-0.5-0.5c-7.6,8.6-15.7,20-23.7,35.1c7.6,2.2,11.9,10.8,15.1,17.3
			c5.9,12.4,7.6,23.2,9.2,37.8c0,0.5,0,1.1-0.5,1.1c-0.5,0.5-0.5,0.5-1.1,0.5c-0.5,0-1.6-0.5-1.6-1.1c-1.1-3.8-1.6-8.1-2.7-11.9
			c-1.1-5.9-2.2-12.4-4.9-17.8c-0.5-1.6-1.6-2.7-2.2-4.3c-3.2-7-6.5-14.6-13.5-17.8c-4.9,8.6-9.2,17.8-12.4,24.8
			c-1.1,1.6-1.6,3.2-2.7,4.9c-2.2,3.8-3.8,8.1-5.9,13c9.7,8.6,14,23.2,11.9,44.8c0,2.2-3.2,2.2-3.2,0c0-2.7-0.5-5.9-0.5-8.6
			c-0.5-11.9-1.1-24.3-9.2-33.5c-11.3,25.4-19.4,50.7-28.1,81.5C156.6,443.1,155.5,443.6,154.4,443.6z M176,364.3
			c-11.9,27-19.4,52.9-22.1,77.2v0.5h0.5c0,0,0.5,0,0.5-0.5c8.6-30.8,16.7-56.7,28.6-82.6l0.5-1.1l0.5,0.5
			c9.2,9.7,9.7,22.7,10.3,35.1c0,2.7,0.5,5.9,0.5,8.6c0,0.5,0.5,0.5,0.5,0c2.2-21.6-1.6-36.2-11.9-44.3l-0.5-0.5v-0.5
			c2.2-4.9,4.3-9.7,6.5-13.5c0.5-1.6,1.6-3.2,2.7-4.9c3.8-7,8.1-16.2,13-25.4l0.5-0.5h0.5c7.6,3.2,11.3,11.3,14.6,18.3
			c0.5,1.6,1.6,3.2,2.2,4.3c2.7,5.9,3.8,11.9,4.9,17.8c0.5,3.8,1.1,8.1,2.7,11.9h1.1c-1.6-14.6-2.7-25.4-8.6-37.2
			c-3.2-6.5-7.6-15.1-15.1-16.7h-1.1l0.5-0.5c8.6-15.7,17.3-28.1,25.4-36.7l1.1-1.1c7.6-7.6,14-12.4,21-14.6
			c-21.6,0-41,35.1-52.9,55.6c-2.2,3.2-3.8,6.5-4.9,9.2c-7.6,13-14.6,25.9-20.5,38.9L176,364.3z M176,362.1
			c-18.9,4.9-36.2,17.3-45.3,32.4v0.5c0,0.5,1.1,0.5,1.1,0c8.1-13.5,20.5-20,33.5-27C168.5,366.4,172.3,364.3,176,362.1z
			 M233.8,274.7v1.1c11.9,7,23.2,15.7,34,26.4c14.6,14,15.7,33.5,16.2,51.8v4.3c0,0.5,0.5,0.5,0.5,0.5c0.5,0,0.5,0,0.5-0.5
			c5.9-35.1-9.7-61-50.7-83.7H233.8z M144.2,342.7c-0.5,0-1.1-0.5-1.6-0.5v-1.6c10.8-17.3,29.7-27,57.7-29.7c0.5,0,1.1,0.5,1.1,1.1
			s-0.5,1.1-1.1,1.6c-21,4.9-42.6,9.7-55.6,29.1C145.3,342.2,144.7,342.7,144.2,342.7z M201.4,311.4c-27.5,2.7-46.4,12.4-56.7,29.1
			c0,0,0,0.5,0.5,0C158.2,321.1,179.8,316.3,201.4,311.4z M176.6,302.8c-0.5,0-1.1-0.5-1.6-1.1c0-0.5,0-1.1,0.5-1.6
			c3.8-2.2,7-4.3,10.8-5.9c9.7-5.9,19.4-11.9,31.3-14.6c1.1,0,1.6,0.5,2.2,1.1c0,0.5,0,1.6-0.5,1.6c-3.8,2.2-8.1,3.8-11.9,5.4
			c-4.3,2.2-9.2,3.8-13.5,6.5c-1.1,0.5-2.2,1.1-3.8,2.2C186.3,299,182,301.7,176.6,302.8C177.1,302.8,177.1,302.8,176.6,302.8z
			 M218.1,281.2c-11.3,2.7-21,8.6-30.8,14c-3.2,2.2-7,4.3-10.8,6.5c4.3-1.1,8.6-3.8,13-6.5c1.1-0.5,2.2-1.6,3.8-2.2
			c4.3-2.2,9.2-4.3,13.5-6.5C210.6,285,214.9,283.3,218.1,281.2C218.7,281.2,218.7,281.2,218.1,281.2
			C218.7,281.2,218.7,281.2,218.1,281.2z M459.9,295.2c-3.2,0-6.5-1.1-10.3-3.2h-0.5c-2.2-0.5-4.3-1.6-5.4-2.7v-0.5v-2.2
			c-1.1-1.1-2.2-1.6-2.7-2.7c-2.2,0.5-3.2,2.2-3.8,5.4v0.5h-0.5c-3.8-0.5-7-1.6-10.8-3.2c-3.2-1.6-5.9-3.8-9.2-5.9l-1.6-1.6
			c-0.5-1.1-1.1-1.6-1.6-2.2c-0.5-0.5-1.1,0-1.6,0c-1.6,1.1-2.7,3.2-3.2,4.9v1.1l-0.5-0.5c-0.5-0.5-1.1-0.5-1.6-1.1
			c-2.2-1.1-4.9-2.7-7-4.9c-3.2-2.7-7-5.9-11.9-8.6H387v-0.5v-4.3c0-1.1-1.1-2.7-2.7-2.2c-0.5,0-1.1,0.5-1.6,0.5l-1.6,3.2
			c-0.5,0.5-0.5,1.1-1.1,1.6v2.7l-0.5-0.5c0,0,0,0.5-0.5,0.5c-0.5,0.5-1.1,0.5-2.2,0.5c-3.2-2.2-5.9-5.4-8.6-10.8
			c-0.5-1.1-1.6-2.2-2.2-3.2c-0.5-1.1-1.6-2.7-2.2-3.8c-1.6-3.2-3.2-5.9-5.9-8.1c0,1.1,0,2.2-0.5,3.8c-0.5,1.1-1.1,2.2-2.7,2.2
			c-1.6,0-2.7-1.1-3.2-2.2c-1.6-4.3-2.7-8.6-3.8-13.5c-2.2-4.3-4.3-8.1-5.4-12.4c-0.5-2.7-1.1-5.4-2.7-8.1
			c-2.7-10.3-7-16.2-13.5-19.4l-0.5-0.5l0.5-1.1h14.6c2.2,2.2,3.8,5.9,5.4,8.6l1.6,3.2c2.2,3.8,4.3,7.6,7,11.3c0.5,0.5,0.5,0,1.1,0
			v-0.5c-1.6-6.5-4.9-11.9-8.1-17.8c-0.5-1.1-1.1-1.6-1.6-2.7l-1.6-2.2h1.1c8.1-0.5,16.2-1.6,25.4-2.7h0.5v0.5
			c2.7,3.2,3.8,8.6,4.9,13c0.5,2.2,1.1,3.8,1.1,5.4c1.6,6.5,4.9,11.9,8.1,17.8c6.5,11.3,13.5,19.4,22.7,25.4h0.5V251
			c-9.7-10.3-17.3-21-23.7-33.5c-3.2-5.9-4.9-12.4-7-18.3c-0.5-1.1-0.5-2.2-1.1-3.8c0-0.5-0.5-1.1-0.5-1.6c-0.5-2.2-1.1-3.8-2.2-4.9
			l-1.1,1.6h1.6c5.9-1.1,11.3-1.6,17.3-2.7c6.5-1.1,13.5-2.2,20-3.2h1.1l-0.5,0.5c-1.6,4.9,0,12.4,4.9,22.1
			c7.6,14.6,16.7,25.9,29.1,35.1c-7.6-7-15.1-15.1-21.6-24.8l-0.5-0.5c-4.9-7.6-15.1-23.2-11.3-32.4V184h0.5
			c5.9-1.1,13-1.6,20.5-2.2c7-0.5,14-1.1,20.5-1.1c41.6,0,80.4,10.8,116.6,31.3c0,0,0.5,0,0.5-0.5V211c-27-22.1-58.3-33.5-99.3-35.1
			h-1.1l0.5-1.1c1.1-1.6,3.8-3.2,5.9-4.3c1.6-0.5,2.7-1.6,3.2-2.2c-0.5,0-1.1,0.5-1.6,0.5c-3.8,1.6-8.6,3.2-10.3,7v0.5H461
			c-13,0-26.4,0.5-43.2,2.7l-2.7,0.5l2.2-1.6c5.9-3.8,12.4-7,18.9-10.3l3.2-1.6c-9.7,2.7-18.9,7-27,13.5c-10.3,1.1-21,2.7-30.8,3.8
			l-9.7,1.1l0.5-1.1c7.6-13,22.7-23.7,47-32.9c-16.7,3.8-39.9,14.6-49.1,34v0.5h-0.5c-8.6,1.1-17.3,2.2-25.9,2.7h-1.6l1.1-1.1
			c4.3-5.4,6.5-11.3,6.5-16.7v-0.5h-0.5c0,0-0.5,0-0.5,0.5c-0.5,7-3.2,11.3-8.1,14.6c-0.5,0.5-1.1,1.6-1.6,2.2
			c0,0.5-0.5,0.5-0.5,1.1v0.5h-0.5c-1.1,0-2.2,0-3.2,0.5c-2.2,0-4.3,0.5-6.5,0.5h-1.1l0.5-1.1c0,0,0-0.5,0.5-0.5
			c0-0.5,0.5-0.5,0.5-1.1l0.5-0.5h1.1v-1.1c0.5-0.5,0.5-0.5,0.5-1.1c0,0,0-0.5,0.5-0.5c0-0.5,0.5-1.1,1.1-1.6l0.5-0.5
			c1.6-3.2,3.2-7,3.8-11.3c0-0.5,0.5-1.1,1.1-1.6c0.5-1.1,0.5-2.7,1.1-3.8l0.5-1.6c0.5-1.6,1.6-2.7,3.2-2.7c1.1,0,2.2,0.5,3.2,1.6
			c0.5,0.5,0.5,1.1,1.1,1.1l0.5,0.5c1.6,1.6,3.8,0.5,4.9-1.1v-0.5c1.1-1.6,1.6-2.7,2.7-3.8c0.5-1.1,1.6-2.2,2.2-3.2l0.5-0.5
			c0.5-2.2,1.1-3.8,1.6-5.9c0.5-1.1,0.5-2.2,1.1-3.2c0.5-1.6,2.2-2.7,3.8-2.2l1.1-1.6c0.5-0.5,1.1-1.1,1.1-1.6h0.5l0.5-0.5v1.6h-0.5
			c-0.5,0-1.1,0.5-1.1,0.5l-2.2,1.1c0.5,0,0.5,0.5,1.1,0.5l3.2,3.2h1.1l0.5,0.5v0.5c1.6,1.1,3.2,0.5,3.2-1.1v-0.5h0.5l1.6-1.6
			c0.5-0.5,0.5-1.6,1.1-2.2c0.5-1.1,1.1-1.6,1.6-2.7c0.5-1.6,1.6-2.7,3.8-3.2l0.5-1.1l0.5-0.5l0.5-0.5c0,0,0.5,0,0.5-0.5l0.5-0.5
			l0.5,1.1c0,0,0,0.5,0.5,0.5v0.5l1.1,1.6c0.5,0,1.1,0.5,1.6,0.5c1.1,0.5,2.2,1.6,3.2,2.7h1.1c1.1,0,2.2-0.5,3.8-1.1
			c0.5,0,1.1-0.5,1.6-0.5h1.1c1.1-1.1,2.7-2.2,4.3-3.2c0.5-0.5,1.1-1.1,2.2-1.6c0.5-0.5,1.1-0.5,1.6-0.5c1.1,0,1.6,0.5,2.2,1.1
			s0.5,1.1,1.1,2.2h1.1c0.5,0.5,1.6,0.5,2.2,0.5s0.5,0,1.1-0.5l0.5-0.5h3.8c4.3-2.2,8.6-3.8,12.4-5.4c1.1-0.5,3.2,0,3.8,1.6
			c0.5,0.5,0.5,1.1,1.1,1.6h0.5l0.5,0.5c0,0.5,0.5,1.1,0.5,1.1c0.5,1.6,2.2,2.2,3.2,2.2h1.1v0.5c1.1-1.1,2.7-1.6,4.3-2.7
			c4.9-2.2,9.2-3.8,14-4.9h1.1c1.6,0,2.7,0.5,3.2,2.2s1.6,3.8,2.2,5.4c0.5,0.5,1.1,0.5,1.6,1.1c0.5,0,0.5,0,1.1,0.5h0.5v1.1h0.5
			l2.7-0.5c1.6-0.5,3.8-0.5,5.4-1.1h0.5c0.5,0,0.5-0.5,1.1-0.5c2.2-1.1,4.3-1.6,6.5-1.6c1.1,0,2.7,0.5,3.8,1.1
			c2.2,1.1,3.8,3.2,4.3,5.9v0.5c0.5,2.2,1.1,3.8,3.2,4.3h1.6l1.1-0.5v1.1c0,0.5,0.5,0.5,1.1,0.5c0.5-0.5,1.1-0.5,2.2-1.1
			c0,0,0.5-0.5,1.1-0.5c2.2-1.1,4.9-1.1,7-1.6c0.5,0,1.6,0,2.2-0.5c2.7-0.5,4.3,0.5,5.4,3.2c1.1,2.2,1.6,4.3,1.6,5.9
			c7,3.8,14.6,8.1,23.7,14c2.2-0.5,4.9,0,7.6,2.2c1.1,0.5,1.6,2.2,1.1,3.2c3.8,2.2,7,4.3,10.8,7c14,9.2,25.4,18.3,34.5,28.1
			c2.2,2.7,4.9,4.9,7.6,6.5c5.9,4.9,10.8,9.2,10.3,14c0,3.8-3.2,7.6-10.3,12.4c-11.9,8.1-24.3,15.1-37.8,21.6l-0.5,0.5v-0.5
			c0-0.5,0-0.5-0.5-1.1c0-0.5-0.5-0.5-1.1-0.5c-2.2,0.5-3.2,1.6-3.8,3.8v1.1h-0.5c-0.5,0-0.5,0.5-1.1,0.5l-1.1,0.5h-0.5
			c-0.5,0-1.6,0.5-2.2,0.5c-1.1,0-2.2,0.5-2.7,0.5c-2.7,0.5-5.4,1.1-7,3.2l-0.5,1.1l-0.5-1.1c-0.5-1.1-0.5-1.6-1.1-2.7
			c-0.5-1.1-1.6-1.1-2.7-1.1s-2.2,0.5-2.7,2.2c0,1.6-0.5,2.2,0,3.8c0,0.5,0,0.5,0.5,1.1v1.1h-0.5c-0.5,0-1.1,0.5-1.6,0.5l-1.1,0.5
			h-5.9c-3.8,0-7.6,0.5-10.8,1.1h-0.5v-0.5c-0.5-0.5-0.5-1.6-1.6-2.2h-1.1c-2.2,1.1-2.7,3.2-2.2,6.5v0.5H515
			c-2.2,0.5-4.3,1.1-7.6,1.1h-10.3l-0.5-0.5c0,0,0-0.5-0.5-0.5c-1.1-1.1-2.7-1.1-3.2,0c-0.5,0.5-0.5,1.1-1.1,1.6v0.5h-0.5
			c-0.5,0-0.5,0.5-0.5,0.5c0,0.5,0,0.5,0.5,0.5h0.5v3.2l-1.1,0.5h-0.5c-1.1,0-2.2-0.5-2.7-0.5c-1.1-0.5-1.6-0.5-2.7-0.5h-1.6
			c-3.2,0-5.9-0.5-9.2-1.1h-0.5v-0.5c-0.5-1.1-0.5-1.6-1.1-2.2c-0.5-0.5-1.1-0.5-1.6-0.5h-0.5c-3.2,0.5-4.3,2.7-3.8,7.6v0.5h-0.5
			c0,0.5,0,1.1-0.5,1.6s-1.6,1.1-2.2,1.1C460.4,295.2,460.4,295.2,459.9,295.2z M449.7,290.4h0.5c3.8,2.2,7,3.2,10.3,3.2
			c0.5,0,1.1,0,1.6-0.5c0.5-0.5,0.5-1.1,0.5-1.6v-1.1h0.5c0-2.7,0-7,4.9-8.1c1.6,0,2.7,0.5,3.2,1.6c0.5,0.5,0.5,1.1,1.1,2.2
			c3.2,0.5,6.5,1.1,9.7,1.1c1.1,0,2.2,0.5,3.2,0.5c1.1,0,1.6,0.5,2.7,0.5h0.5v-0.5v-1.1c-0.5-0.5-1.1-1.1-1.1-1.6s0.5-1.6,1.6-1.6
			c0.5-0.5,0.5-1.1,1.1-1.6c1.1-1.6,3.2-1.6,4.9,0v0.5h9.7c2.7,0,4.9-0.5,6.5-1.1c-0.5-3.2,0.5-5.4,2.7-7c0.5-0.5,2.2-0.5,2.7,0
			c1.1,0.5,1.6,1.6,2.2,2.2c3.2-0.5,6.5-1.1,10.3-1.1h7c0.5,0,0.5,0,1.1-0.5c0-0.5,0-0.5-0.5-1.1v-3.8c0.5-2.2,2.2-3.2,3.8-3.2
			c1.6,0,3.2,0.5,3.8,2.2c0.5,0.5,0.5,1.1,0.5,1.6c2.2-1.6,4.3-2.2,7-2.7c1.1,0,2.2-0.5,2.7-0.5s1.6-0.5,2.2-0.5h0.5
			c0,0,0.5,0,0.5-0.5h0.5v-0.5c0.5-2.7,2.2-4.3,4.9-4.9c1.1-0.5,2.2,0.5,2.7,1.6v0.5c13-6.5,25.4-13.5,36.7-21
			c5.9-4.3,9.2-7.6,9.7-11.3c0.5-4.3-4.3-8.6-9.7-13c-2.7-2.2-4.9-4.3-7.6-7c-9.2-9.7-20.5-18.9-34.5-27.5c-3.8-2.2-7.6-4.9-10.8-7
			l-0.5-0.5l0.5-0.5c0.5-0.5,0-1.6-0.5-2.2c-2.2-1.6-4.9-2.2-6.5-1.6h-0.5c-9.2-5.9-17.3-10.3-24.3-14h-0.5v-0.5
			c0-1.6-0.5-3.8-1.6-5.9c-0.5-1.6-2.2-2.7-3.8-2.2c-0.5,0-1.6,0-2.2,0.5c-2.2,0.5-4.3,0.5-6.5,1.6l-0.5,0.5H502
			c-0.5,0-1.1,0.5-1.6,1.1c-1.1,1.1-2.2,0.5-2.7-0.5c-0.5,0-1.6,0-2.2-0.5c-2.2-1.1-3.2-3.2-3.8-4.9l-0.5-0.5
			c-0.5-2.7-1.6-4.3-3.2-5.4c-0.5-0.5-1.6-0.5-2.7-0.5c-2.2,0-3.8,0.5-5.9,1.6c-0.5,0-0.5,0.5-1.1,0.5c0,0-0.5,0-0.5,0.5
			c-1.6,0-3.2,0.5-5.4,1.1l-2.7,0.5c-0.5,0-1.1,0-1.6-0.5l-0.5-0.5c-0.5,0-0.5,0-1.1-0.5c-0.5-0.5-1.1-0.5-1.6-1.1
			c-0.5-2.2-1.6-3.8-2.2-5.4c-0.5-1.1-1.6-1.1-2.7-1.1c-4.3,1.1-9.2,2.7-14,4.9c-2.2,0.5-3.2,1.6-4.3,2.7L441,143h-0.5
			c-0.5,0-0.5-0.5-1.1-0.5c-2.2,0-3.8-1.1-4.9-2.7c0-0.5-0.5-1.1-0.5-1.1h-0.5v-0.5c-0.5-0.5-0.5-1.6-1.1-2.2s-1.6-1.1-2.2-1.1
			c-3.8,1.6-8.1,3.2-12.4,5.4H414c-0.5,0.5-1.1,0.5-1.6,0.5c-1.1,0-2.2,0-3.2-0.5h-0.5h-1.1v-0.5c-0.5-1.1-1.1-1.6-1.6-2.7
			c0,0,0-0.5-0.5-0.5c-0.5,0-0.5,0-1.1,0.5s-1.1,1.1-2.2,1.6c-1.6,1.1-2.7,2.2-4.3,3.2h-1.6c-0.5,0-1.1,0-1.6,0.5
			c-1.6,0.5-2.7,1.1-4.3,1.1h-0.5h-1.6c-1.1-1.1-2.2-1.6-3.2-2.7c-0.5-0.5-1.1-0.5-2.2-0.5s-2.7,0.5-3.2,2.2c0,1.1-1.1,2.2-1.6,3.2
			c-0.5,0.5-0.5,1.1-1.1,1.6v0.5h-0.5c-0.5,0.5-1.1,1.1-1.6,1.1c0,0.5-0.5,0.5-1.1,0.5c-0.5,1.6-1.6,2.7-3.2,2.7
			c-0.5,0-1.6-0.5-2.2-1.1h-1.1l-0.5-0.5c-1.1-1.1-2.2-2.2-3.8-3.2c-0.5-0.5-1.1-0.5-1.6-0.5c-1.1,0-1.6,0.5-1.6,1.1
			c-0.5,1.1-0.5,2.2-1.1,3.2c-0.5,1.6-1.1,3.8-1.6,5.4h3.2c-0.5,1.1-1.6,2.2-2.2,3.2c-1.1,1.1-1.6,2.7-2.7,3.8
			c-0.5,1.6-2.2,2.7-3.8,2.7c-0.5,0-1.6,0-2.2-0.5l-0.5,0.5l-0.5-0.5c-0.5-0.5-1.1-1.1-1.6-2.2c-0.5-0.5-1.1-1.1-2.2-1.1
			s-1.6,0.5-2.2,1.6l-0.5,1.6c-0.5,1.6-0.5,2.7-1.1,4.3v0.5c-0.5,0-0.5,0.5-0.5,1.1c-0.5,4.3-2.2,8.1-4.3,11.9l-0.5,0.5v0.5
			l-1.1,2.7v0.5c0,0.5-0.5,0.5-0.5,1.1l-0.5,0.5c1.1,0,2.2,0,3.2-0.5c1.1,0,2.2,0,3.2-0.5c0,0,0-0.5,0.5-0.5
			c0.5-1.1,1.1-2.2,2.2-2.7c4.9-4.3,7-8.1,7.6-14c0-2.2,2.2-2.2,3.2-1.1c0.5,0.5,0.5,0.5,0.5,1.1c0,5.4-2.2,11.3-5.9,16.2
			c8.1-1.1,16.2-1.6,23.7-2.7c9.2-19.4,32.4-30.8,49.7-34c0.5,0,1.6,0.5,1.6,1.1c0,0.5,0,1.1-1.1,1.6c-23.2,8.6-37.8,18.3-45.3,30.8
			l7-1.1c10.3-1.1,20.5-2.7,30.8-3.8c8.1-6.5,17.3-10.8,27-13.5h0.5c0.5,0,1.1,0.5,1.1,1.1c0,0.5,0,1.1-0.5,1.6l-3.2,1.6
			c-5.9,2.7-11.3,5.4-16.7,8.6c15.7-1.6,28.1-2.2,40.5-2.2h7c2.2-3.8,7-5.4,10.8-7c0.5,0,1.1-0.5,1.6-0.5c0.5-0.5,1.6,0,1.6,1.1
			c0,0.5,0,1.1-0.5,1.6c-1.1,1.1-2.2,1.6-3.8,2.7c-1.6,1.1-3.2,1.6-4.3,3.2c40.5,1.6,71.8,13,98.8,35.6c0.5,0.5,0.5,1.1,0.5,1.6
			c-0.5,1.1-1.6,1.6-2.7,1.1c-36.2-20.5-75-31.3-116-31.3c-6.5,0-13.5,0.5-20.5,1.1c-7,0.5-14,1.6-20,2.2
			c-3.2,8.6,6.5,23.7,11.3,30.8l0.5,0.5c5.9,9.2,14,17.3,21,24.3c0.5,0.5,0.5,1.1,0.5,1.6c-0.5,1.1-1.6,1.1-2.2,0.5
			c-12.4-9.2-21.6-20.5-29.1-35.6c-4.9-9.7-6.5-17.3-5.4-22.1c-6.5,1.1-13,2.2-18.9,2.7c-5.4,1.1-10.8,1.6-15.7,2.7
			c1.1,1.1,1.6,2.7,1.6,4.3c0,0.5,0.5,1.1,0.5,1.6c0.5,1.1,0.5,2.2,1.1,3.8c2.2,5.9,3.8,12.4,7,18.3c6.5,12.4,14,23.2,23.7,32.9
			c0.5,0.5,0.5,1.1,0.5,1.6c-0.5,1.1-1.6,1.1-2.2,0.5c-9.2-5.9-16.7-14-23.2-25.9c-3.2-5.9-6.5-11.3-8.1-17.8
			c-0.5-1.6-1.1-3.8-1.6-5.4c-1.1-4.3-2.2-9.7-4.3-13c-8.6,1.1-16.2,2.2-23.7,2.7l0.5,0.5c0.5,1.1,1.1,1.6,1.6,2.7
			c3.2,5.4,6.5,11.3,8.1,17.8c0,0.5,0,1.1-0.5,1.6c-0.5,1.1-2.2,1.1-3.2,0c-2.7-3.8-4.9-7.6-7.6-11.3l-1.6-3.2
			c-1.1-2.7-2.7-5.9-4.9-8.1h-10.3c5.9,3.8,9.7,9.7,11.9,18.9c1.1,2.7,2.2,5.4,2.7,8.1c1.6,3.8,3.2,8.1,5.4,11.9
			c1.1,4.3,2.2,9.2,3.8,13.5c0.5,0.5,1.1,1.1,1.6,1.1c0.5,0,1.1,0,1.1-1.1c0.5-1.6,0.5-2.7,0.5-4.3v-1.1l1.1,0.5c0,0,0.5,0,0.5,0.5
			c2.7,2.7,4.9,5.9,6.5,9.2c0.5,1.1,1.1,2.7,2.2,3.8c0.5,1.1,1.6,2.2,2.2,3.2c2.7,4.9,5.4,8.1,8.6,10.3v-1.1l-1.6-4.3l1.1,1.1v-0.5
			c0.5-0.5,0.5-1.1,1.1-1.6c0-0.5,1.1-1.6,1.6-3.2c0.5-0.5,1.1-0.5,2.2-1.1h1.1c2.2,0,3.2,1.6,3.2,3.2v3.8c4.9,2.7,8.6,5.9,11.3,8.6
			c2.2,2.2,4.3,3.2,6.5,4.3c0.5,0,0.5,0.5,1.1,0.5c0.5-1.6,1.6-3.8,3.2-4.9c1.1-0.5,2.2-0.5,3.2,0s1.6,1.6,2.2,2.2l1.1,1.1
			c2.7,2.2,5.4,4.3,8.6,5.9s6.5,2.2,9.7,2.7c0.5-4.3,2.7-5.9,4.9-5.9h0.5v0.5c1.1,1.1,1.6,2.2,3.2,2.7c0,0.5,0,1.6,0.5,2.2
			C445.9,289.3,447.5,289.8,449.7,290.4L449.7,290.4z M166.3,243.9c-3.8,0-8.1-0.5-11.9-1.1h-1.1l0.5-1.1c0.5-1.1,1.1-1.6,1.6-2.2
			v-1.1c0-0.5-0.5-0.5-1.1-0.5c-2.2,0-4.9,0.5-7,1.6c-1.1,0.5-2.2,1.1-3.2,1.1h-0.5c-2.2-0.5-3.8-1.1-5.4-1.6l-1.1-0.5l1.1-0.5
			c0.5-0.5,0.5-1.6,0.5-2.2c-0.5-1.1-1.1-1.6-2.2-2.2c-3.2-0.5-5.9,0-8.6,1.1h-1.1c-3.2-1.1-6.5-2.7-10.3-4.3l-0.5-0.5l0.5-0.5
			c0.5-0.5,1.1-1.6,1.6-2.2c0.5-1.1,0.5-1.6,0-2.7c-1.1-1.1-2.2-1.6-3.2-1.6c-0.5,0-1.6,0-2.2,1.1c-1.1,2.2-2.7,2.2-4.3,2.2H108
			l-3.2-1.6c-5.9-2.7-11.3-5.4-16.2-7.6c-9.7-3.8-20-6.5-29.7-9.2h-1.1c-0.5,0-1.1,0-1.6-0.5c-27.5-6.5-43.2-13.5-45.3-21.6
			c-1.1-3.2,0-5.9,2.7-9.2l3.2-3.2c15.7-16.7,33.5-36.2,52.9-48c25.9-16.2,61.5-18.9,89.6-21c13.5-1.1,25.4-1.1,36.2,0.5
			c11.9,12.4,17.3,27.5,21.6,42.6c0-13.5-7-28.6-18.9-41l-1.6-1.6l2.2,0.5c11.3,2.2,21.6,5.9,31.3,11.3c2.7,5.4,4.9,10.8,6.5,15.7
			c1.1,3.8,2.7,7,4.3,10.8c-1.1-7-3.8-14.6-8.1-23.2l-1.1-2.2l2.2,1.6c6.5,4.3,11.9,9.2,17.3,15.1c4.9,5.4,9.2,11.3,13,17.3
			c3.8,5.4,8.1,11.3,12.4,16.7l2.7,2.7l-3.2-1.6c-25.9-14-56.7-21.6-89-22.7l0.5,0.5v-0.5c-8.1-12.4-15.1-21.6-23.2-29.1
			c-7.6-7-15.1-10.3-24.8-10.3c-1.6,0-3.8,0-5.9,0.5c-0.5,0-1.1,0.5-1.1,1.1c0,0,0,0.5,0.5,0.5h4.3c13,0,21.6,5.9,30.8,14.6
			c5.4,4.9,9.7,11.3,14,16.7c1.1,1.6,2.7,3.2,3.8,4.9l1.1,1.1h-4.3c-42.6,0-83.7,12.4-115.5,34.5c-0.5,0-0.5,0.5-0.5,0.5
			c0,0.5,0.5,0.5,1.1,0.5c44.8-19.4,84.7-28.6,121.4-28.6c32.9,0,63.1,7,93.4,22.1l2.2,1.1l-2.2,0.5c-3.8,0.5-7.6,1.1-10.8,2.2
			c-3.8,1.1-10.8,4.9-13,9.2l-5.9,5.9l-0.5,0.5v0.5h-0.5c0,0-0.5,0-0.5-0.5c-1.6-0.5-3.2-1.1-4.3-1.6c-2.2,0.5-4.3,0.5-6.5,0.5H237
			c-0.5,0.5-1.1,1.6-1.6,3.2c-0.5,2.2-1.6,4.3-2.2,5.9c-0.5,1.1-0.5,1.6-1.1,2.7c-0.5,0.5-0.5,1.6-0.5,2.7c0,0.5-0.5,1.6-0.5,2.2
			v2.2c-0.5,1.1-1.1,2.7-1.6,3.8c-0.5,1.1-2.7,1.1-3.2-0.5l-0.5,0.5h-0.5c-1.1,0-1.6-0.5-2.7-0.5c-1.6-0.5-3.2-0.5-3.8-0.5
			c-1.1,0-2.2,0.5-2.7,1.6v0.5h-0.5c-0.5,0-0.5,0-1.1,0.5l-0.5,1.1c-2.2,4.3-4.3,8.6-7.6,11.9c-1.1,0.5-1.6,1.1-2.2,1.6l-2.2,1.1
			v-1.6c0-0.5,0-1.6-0.5-1.6c-0.5-1.1-2.2-1.1-3.2-1.1c-3.2,0.5-5.4,2.7-7.6,5.4c-2.7,3.2-5.4,5.4-9.2,5.9h-0.5v-0.5
			c-0.5-1.6-2.2-2.2-3.8-2.2c-1.1,0-2.7,0.5-3.2,1.6c-0.5,1.1-0.5,1.6-0.5,3.2v0.5l0.5,1.1h-1.1
			C170.1,243.9,168.5,243.9,166.3,243.9z M156.1,241.8c4.9,0.5,9.7,1.1,14.6,0.5c-0.5-1.6-0.5-3.2,0.5-4.3c1.1-1.1,2.7-2.2,4.3-2.2
			s3.2,1.1,4.3,2.2c3.2-1.1,5.4-2.7,8.1-5.4c2.2-2.7,4.3-4.9,8.1-5.9c1.6-0.5,3.8,0.5,4.9,1.6c0.5,0.5,1.1,1.1,1.1,2.2
			c0.5-0.5,1.1-1.1,1.6-1.1c2.7-3.2,4.9-7.6,7-11.9l1.1-2.2c0.5-0.5,1.1-0.5,1.6-0.5c1.1-1.1,2.2-1.6,3.8-1.6c1.1,0,2.7,0,4.3,0.5
			c0.5,0,1.6,0.5,2.2,0.5l1.6-1.1l0.5,1.1v0.5c0,0.5,0.5,0.5,0.5,0c0.5-1.1,1.1-2.7,1.6-3.8v-1.1c0-0.5,0.5-1.6,0.5-2.2
			c0-1.1,0.5-1.6,0.5-2.7c0.5-1.1,0.5-1.6,1.1-2.7c1.1-2.2,1.6-3.8,2.2-5.9c0.5-1.6,1.6-2.7,2.2-3.8v-0.5h4.3c2.2,0.5,3.8,0,5.9-0.5
			l4.9,1.6h0.5c2.2-2.7,3.8-4.9,5.9-6.5c2.7-4.3,9.7-8.1,14-9.7c2.7-1.1,5.9-1.6,8.6-2.2c-29.1-14-58.8-21-90.7-21
			c-36.7,0-76.1,9.2-120.9,28.6c-1.1,0.5-2.7,0-2.7-1.1c0-1.1,0-1.6,1.1-2.2c31.8-22.1,73.4-34.5,116.6-34.5h1.1
			c-1.1-1.1-2.2-2.7-3.2-3.8c-4.3-5.9-8.6-11.9-14-16.7c-9.2-8.6-17.3-14-30.2-14h-3.8c-1.1,0-2.2-1.1-2.2-2.2v-1.1
			c-21,2.7-43.2,7.6-61,18.3c-19.4,11.9-36.7,30.8-52.3,48l-1.6,4.3c-2.7,2.7-3.2,5.4-2.7,8.1c2.2,7.6,17.3,14.6,44.8,20.5
			c1.1,0,1.6,0.5,2.2,0.5H60c9.7,2.7,20,4.9,29.7,9.2c5.4,2.2,10.8,4.9,16.2,7.6l2.7,1.6c1.6,0,2.7,0,3.2-1.6
			c0.5-1.1,1.6-2.2,3.2-2.2c1.1,0,2.7,0.5,3.2,2.2c0.5,1.1,0.5,2.7,0,3.8c-0.5,0.5-0.5,1.1-1.1,1.6c3.2,1.6,6.5,2.7,9.2,3.8
			c2.7-1.1,5.9-1.6,9.2-1.1c1.6,0,3.2,1.6,3.2,2.7c0.5,1.1,0,2.2,0,2.7c1.1,0.5,2.7,1.1,4.3,1.1c1.1,0,2.2-0.5,3.2-1.1
			c2.7-1.1,4.9-1.6,7.6-1.6c1.1,0,1.6,0.5,2.2,1.6c0.5,0.5,0.5,1.6,0,2.2C156.6,240.7,156.6,241.2,156.1,241.8L156.1,241.8z
			 M218.1,148.4c20,3.2,38.9,9.7,56.1,18.3c-3.8-4.3-7-9.2-10.3-14c-4.3-5.9-8.1-11.9-13-17.3c-4.3-5.4-9.2-9.7-14.6-13.5
			c3.2,7.6,5.9,14.6,7,21c0,0.5,0,1.1-0.5,1.1c-0.5,1.1-2.2,0.5-2.7,0c-1.6-3.8-2.7-7-4.3-10.8c-2.2-5.4-3.8-10.3-6.5-15.7
			c-8.6-5.4-17.8-8.6-28.6-10.8c11.3,12.4,17.8,27,17.8,40.5C218.7,147.9,218.7,148.4,218.1,148.4
			C218.7,148.4,218.1,148.4,218.1,148.4z M188.4,145.7c9.2,0,18.9,1.1,28.1,2.2v-0.5c-3.8-14.6-9.2-29.7-21-41.6
			c-10.8-1.6-22.1-1.6-35.6-0.5c-4.9,0.5-9.7,0.5-14.6,1.1c7.6,1.1,14,4.3,20.5,10.3C173.3,124.1,180.3,133.3,188.4,145.7z
			 M538.7,225C538.2,225,538.2,225,538.7,225c-11.3-3.8-18.3-11.9-24.3-19.4c-0.5-0.5-0.5-1.1,0-2.2s2.7-1.6,3.8-0.5
			c5.9,8.1,13,14.6,21,19.4c0.5,0.5,0.5,1.1,0.5,1.6S539.2,225,538.7,225z M516,203.5c-0.5,0-0.5,0-1.1,0.5v0.5
			c5.4,7,12.4,15.1,22.7,18.9c-8.1-4.9-15.1-11.3-21.6-19.4C516.6,203.5,516.6,203.5,516,203.5z M471.8,221.8c-0.5,0-0.5,0-1.1-0.5
			c-7.6-9.2-14.6-18.9-14.6-32.4c0-0.5,0-1.1,0.5-1.1c0.5-0.5,0.5-0.5,1.1-0.5c1.1,0,1.6,0.5,1.6,1.6c0.5,9.7,4.9,16.7,9.7,24.8
			c1.1,2.2,2.7,3.8,3.8,5.9v1.1L471.8,221.8z M457.2,188.9c0,13,6.5,22.7,14,31.3c-1.1-2.2-2.2-3.8-3.8-5.9
			C462.6,206.7,458.3,199.1,457.2,188.9C457.7,188.9,457.2,188.9,457.2,188.9z M182,213.7c-0.5,0-1.1-0.5-1.1-1.1
			c0-0.5,0-1.1,0.5-1.6c2.2-1.6,4.9-3.8,7.6-5.4c5.9-4.3,12.4-9.2,18.3-14c4.9-4.9,16.7-15.7,18.3-25.4c0-1.6,2.2-2.2,3.2-1.1
			c0,0,0.5,0.5,0.5,1.1c-1.1,9.2-10.3,20-14.6,23.7c-8.6,8.6-18.9,16.2-31.3,22.7C182.5,213.7,182,213.7,182,213.7z M226.8,166.2
			C226.8,166.2,226.2,166.2,226.8,166.2c-1.6,9.2-10.8,18.9-18.9,26.4c-5.4,5.4-11.9,9.7-18.3,14c-2.2,1.6-4.9,3.2-7,5.4
			c11.9-6.5,22.1-14,30.8-22.7C216.5,185.7,226.2,175.4,226.8,166.2C226.8,166.8,226.8,166.8,226.8,166.2z M151.7,204
			c-1.1,0-1.6-0.5-1.6-1.6c0-0.5,0-1.6,1.1-1.6c1.6-1.1,3.8-2.2,5.4-2.7c5.4-2.7,11.3-5.4,15.7-10.3c8.1-8.6,13.5-16.7,16.2-24.8
			c0-0.5,1.1-1.1,1.6-1.1c0.5,0,1.1,0.5,1.6,0.5c0.5,0.5,0.5,1.1,0,1.6C186.8,181.3,171.7,200.2,151.7,204z M190.1,163
			C189.5,163,189.5,163.5,190.1,163c-3.2,8.6-8.6,16.7-16.7,25.4c-4.3,4.9-10.3,7.6-16.2,10.3c-1.6,1.1-3.8,1.6-5.4,2.7v0.5
			c0,0,0,0.5,0.5,0.5c19.4-3.8,34-22.1,38.9-38.9C190.6,163.5,190.6,163.5,190.1,163C190.6,163.5,190.1,163,190.1,163z M125.3,191.6
			c-0.5,0-1.1-0.5-1.6-1.1c0-0.5,0-1.6,0.5-1.6c3.2-2.2,6.5-4.3,9.2-6.5c6.5-3.8,12.4-7.6,16.7-14c1.1-1.1,3.2-1.1,3.8,0.5
			c0.5,0.5,0,1.6,0,2.2C147.4,180.8,136.6,188.3,125.3,191.6z M152.3,168.9c-0.5,0-0.5,0-0.5,0.5c-4.9,6.5-10.8,10.3-17.3,14
			c-3.2,2.2-6.5,3.8-9.2,5.9v0.5c10.8-3.2,21-10.8,28.1-20v-0.5C153.4,169.5,152.8,168.9,152.3,168.9z M94.5,147.3
			c-2.2-0.5-3.2-1.6-4.9-3.2l-1.1-1.1c-0.5-0.5-1.1-1.6-0.5-2.2c0.5-1.6,2.7-2.2,3.8-0.5c0.5,0.5,1.1,1.1,1.1,1.6
			c0.5,1.1,1.6,2.2,2.2,2.7c0.5,0.5,0.5,1.1,0.5,1.6C96.2,146.8,95.6,147.3,94.5,147.3z M90.8,140.3c-0.5,0-0.5,0.5-1.1,0.5v1.1
			l1.1,1.1c1.1,1.1,2.2,2.2,3.8,2.7v-0.5c-1.1-1.1-1.6-2.2-2.2-2.7C92.4,141.9,91.8,141.4,90.8,140.3
			C91.3,140.3,91.3,140.3,90.8,140.3z M337.4,142.5l1.1-3.2c0.5-1.1,0.5-2.2,1.1-3.2c1.1-1.6,2.7-4.3,4.3-8.1l1.1-2.7l0.5,0.5
			c1.1,0.5,2.2,0.5,3.8-1.1l3.2-2.2l-2.2,3.2c-3.8,4.9-7,9.7-10.8,14.6L337.4,142.5L337.4,142.5z M340.6,136c2.2-2.7,4.9-5.9,7-9.2
			h-2.2l-0.5,1.1C343.3,131.1,341.7,133.8,340.6,136z M442.1,136l-1.1-2.7h2.7l-1.1,1.1v0.5L442.1,136z M341.2,123l0.5-3.2
			c0.5-5.9,0.5-11.9,0.5-17.3h1.1c0,1.6,1.1,3.2,1.6,4.9c0.5,1.1,1.1,2.2,2.2,3.2l0.5,0.5v0.5c-1.1,2.7-2.7,5.9-4.3,9.2L341.2,123z
			 M343.9,106.3c0,3.2,0,6.5-0.5,9.7c1.1-2.2,2.2-3.8,2.7-5.9c-0.5-1.1-1.6-2.2-2.2-3.2V106.3z M345.5,123l4.3-9.7l0.5,1.1l0.5,0.5
			h1.1c0.5,0,0.5-0.5,0.5-0.5s0-0.5-0.5-0.5h-0.5v-0.5v-1.1l0.5-0.5c1.6-1.1,3.8-2.2,5.4-2.7s2.7-1.6,4.3-2.2l2.7-1.6l-1.6,2.2
			l-0.5,0.5c0,0.5-0.5,0.5-0.5,1.1c-1.6,2.2-3.2,4.3-4.3,6.5l-2.7,3.2l-0.5-0.5c0-0.5-1.1-0.5-1.6-0.5c-1.1,0.5-2.2,1.6-3.2,2.2
			l-0.5,0.5c-0.5,0.5-0.5,0.5-1.1,0.5L345.5,123z M350.4,116l-1.1,2.7c1.1-0.5,1.6-1.6,2.7-2.2c1.1-0.5,2.2-0.5,2.7,0l1.1-1.6
			c1.6-2.2,2.7-3.8,4.3-5.9c-0.5,0.5-1.1,0.5-2.2,1.1c-1.6,0.5-3.2,1.6-4.9,2.7c0.5,0.5,1.1,1.1,0.5,1.6c0,1.1-0.5,1.6-1.6,1.6h-0.5
			H350.4z M348.7,108.5l-0.5-1.1c0-0.5-0.5-1.1-0.5-1.6c0-0.5-0.5-1.1-0.5-1.6l-0.5-1.1c-0.5-1.1-1.1-2.2-1.6-3.8v1.1h-1.1
			c0-3.8,0-7.6,0.5-11.3c1.1-19.4,9.7-42.1,15.1-54c1.6-3.8,4.9-7,8.1-10.3c3.8-4.3,8.1-8.6,8.6-13.5h1.1c-1.1,5.4,1.1,13.5,3.2,21
			c1.1,4.9,2.7,9.7,2.7,13c1.1,18.3-3.8,36.2-16.2,56.7v0.5h-0.5H366c-2.7,1.6-5.4,2.7-9.2,4.3c-0.5,0-1.1,0.5-1.6,0.5l-1.6,1.1
			l0.5-1.6c0-0.5,0.5-0.5,0.5-1.1s0.5-1.1,0.5-1.6c1.1-2.7,2.2-5.9,3.2-9.7v-0.5h0.5c1.1-0.5,2.7-1.1,3.8-1.6
			c1.6-1.1,2.7-2.2,4.3-3.2c1.1-1.1,2.2-1.6,3.2-2.7v-0.5c0-0.5-0.5-0.5-0.5-0.5c-1.1,1.1-2.2,1.6-3.8,2.7c-1.1,1.1-2.7,2.2-3.8,2.7
			c-1.1,0.5-1.6,1.1-2.7,1.6l-1.1,0.5l0.5-1.6c2.7-10.8,3.2-20.5,3.8-31.3c0-5.9,0.5-11.3,1.1-17.8v-0.5c-0.5-0.5-1.6-0.5-2.2,0.5
			c-2.2,8.6-2.7,17.3-3.2,25.9s-1.1,17.8-3.8,27c0,1.1-0.5,1.6-1.1,2.7l-0.5,2.2l-1.1-1.6c-1.6-2.2-2.7-3.8-4.9-5.4
			c0,1.6,1.1,3.2,2.2,4.3c0.5,0.5,1.1,1.6,1.6,2.2l1.6,1.6v1.1c-0.5,2.2-1.6,3.8-2.2,5.4L348.7,108.5z M358.4,94.4
			c-1.1,3.8-2.2,7-3.2,9.7c0,0.5-0.5,0.5-0.5,1.1c3.8-1.6,6.5-2.7,9.2-4.3h1.1c11.9-20,17.3-37.8,16.2-55.6c0-3.2-1.6-8.1-2.7-13
			c-1.6-5.9-3.2-12.4-3.8-17.3c-1.6,3.2-4.9,6.5-7.6,9.7c-3.2,3.2-5.9,6.5-7.6,9.7c-5.4,11.9-14.6,34-15.1,53.4c0,3.2,0,5.9-0.5,9.2
			c0.5,0,1.1,0,1.6,0.5c0.5,1.1,1.1,2.2,1.6,3.8l0.5,1.1c0.5,0.5,0.5,1.1,0.5,1.6c0.5-1.1,1.1-2.2,1.6-3.8c-0.5-0.5-0.5-1.1-1.1-1.1
			c-0.5-0.5-1.1-1.6-1.6-2.2c-1.1-1.1-2.2-2.7-2.7-4.9c0-0.5,0-0.5,0.5-1.1c0.5-0.5,1.6-0.5,2.2,0c2.2,1.6,3.2,3.2,4.9,4.9
			c0-0.5,0.5-1.6,0.5-2.2c2.7-9.2,3.2-17.8,3.8-26.4s1.1-17.3,3.2-25.9c0.5-1.1,1.1-1.6,2.7-1.6c0.5,0,1.6,0.5,2.2,0.5
			c0.5,0.5,0.5,1.1,0.5,1.6c-0.5,5.9-1.1,11.9-1.1,17.8c-0.5,10.3-1.1,20-3.2,30.2c0.5,0,0.5-0.5,1.1-0.5c1.1-1.1,2.7-2.2,3.8-2.7
			c1.1-1.1,2.2-1.6,3.8-2.7c1.1-0.5,2.2,0,2.7,1.1c0,1.1,0,1.6-0.5,2.2c-1.1,0.5-2.2,1.6-3.2,2.2c-1.6,1.1-2.7,2.2-4.3,3.2
			C361.1,93.9,360.1,93.9,358.4,94.4z M349.3,87.4c-0.5,0-1.1,0-1.6-0.5c-0.5-0.5-0.5-1.1-0.5-1.6v-1.1c0-0.5,1.1-1.1,1.6-1.1
			c1.1,0,1.6,0.5,1.6,1.1v1.1c0,0.5,0,1.1-0.5,1.6C350.4,87.4,349.8,87.4,349.3,87.4z M349.3,84.2C348.7,84.2,348.7,84.2,349.3,84.2
			l-0.5,1.1v0.5c0,0.5,1.1,0.5,1.1,0v-0.5L349.3,84.2z"/>
	</g>
</g>
</svg>
