<?xml version="1.0" encoding="iso-8859-1"?>
<!-- Generator: Adobe Illustrator 19.0.0, SVG Export Plug-In . SVG Version: 6.00 Build 0)  -->
<svg version="1.1" id="Layer_1" xmlns="http://www.w3.org/2000/svg" xmlns:xlink="http://www.w3.org/1999/xlink" x="0px" y="0px"
	 viewBox="0 0 512.004 512.004" style="enable-background:new 0 0 512.004 512.004;" xml:space="preserve">
<g>
	<g>
		<circle style="fill:#006699;" cx="153.598" cy="448.004" r="12.8"/>
	</g>
</g>
<g>
	<g>
		<circle style="fill:#006699;" cx="409.598" cy="448.004" r="12.8"/>
	</g>
</g>
<g>
	<g>
		<path style="fill:#006699;" d="M499.198,435.204h-26.889c-5.931-29.21-31.744-51.2-62.711-51.2c-30.959,0-56.781,21.99-62.711,51.2H216.275
			c-5.726-28.015-29.824-49.229-59.179-50.85l-42.035-283.827c-0.401-2.722-1.673-5.222-3.61-7.177l-89.6-89.6
			C16.851-1.25,8.753-1.25,3.752,3.75c-5,5-5,13.099,0,18.099l86.613,86.596l41.421,279.62
			c-24.559,8.951-42.189,32.29-42.189,59.938c0,35.345,28.655,64,64,64c30.959,0,56.781-21.99,62.711-51.2h130.577
			c5.931,29.21,31.753,51.2,62.711,51.2s56.781-21.99,62.711-51.2h26.889c7.074,0,12.8-5.726,12.8-12.8
			C511.998,440.93,506.272,435.204,499.198,435.204z M153.598,486.404c-21.171,0-38.4-17.229-38.4-38.4
			c0-21.171,17.229-38.4,38.4-38.4c21.171,0,38.4,17.229,38.4,38.4C191.998,469.175,174.769,486.404,153.598,486.404z
			 M409.598,486.404c-21.171,0-38.4-17.229-38.4-38.4c0-21.171,17.229-38.4,38.4-38.4s38.4,17.229,38.4,38.4
			C447.998,469.175,430.769,486.404,409.598,486.404z"/>
	</g>
</g>
<g>
	<g>
		<path style="fill:#006699;" d="M433.764,126.989l25.975-6.963l-6.63-24.73l-25.975,6.963c-3.576-8.755-7.851-17.058-13.449-24.26l18.662-18.662
			l-18.099-18.108l-18.944,18.944c-7.339-5.683-15.369-10.317-23.962-13.833l6.938-25.856l-24.704-6.63l-6.835,25.489
			c-9.045-1.246-18.381-0.802-27.75,0.478l-6.963-25.975l-24.73,6.622l6.963,25.975c-8.755,3.575-17.058,7.851-24.269,13.457
			L251.33,41.237l-18.082,18.099l18.935,18.935c-5.683,7.339-10.317,15.369-13.833,23.962l-25.873-6.938l-6.622,24.73l25.489,6.827
			c-1.246,9.045-0.802,18.372,0.486,27.742l-25.975,6.963l6.613,24.738l25.975-6.963c3.575,8.755,7.851,17.058,13.449,24.26
			l-18.662,18.662l18.099,18.108l18.944-18.944c7.339,5.683,15.369,10.317,23.962,13.833l-6.921,25.873l24.704,6.63l6.827-25.498
			c9.045,1.246,18.381,0.802,27.75-0.486l6.963,25.975l24.73-6.63l-6.963-25.976c8.755-3.575,17.067-7.851,24.277-13.457
			l18.662,18.662l18.082-18.099l-18.935-18.935c5.683-7.339,10.317-15.369,13.833-23.962l25.873,6.938l6.622-24.73l-25.489-6.827
			C435.496,145.685,435.053,136.358,433.764,126.989z M352.68,214.993c-40.909,10.957-83.098-13.397-94.063-54.306
			s13.397-83.106,54.306-94.063s83.098,13.397,94.063,54.306C417.943,161.839,393.589,204.028,352.68,214.993z"/>
	</g>
</g>
<g>
	<g>
		<path style="fill:#006699;" d="M506.835,138.185c-4.838-6.409-12.407-10.18-20.437-10.18h-25.6v25.6h25.6l-51.2,179.2h-238.08l-25.6-179.2h33.28v-25.6
			h-33.28c-7.424,0-14.473,3.217-19.337,8.823s-7.057,13.047-5.999,20.395l25.6,179.2c1.792,12.612,12.595,21.982,25.335,21.982
			h238.08c11.426,0,21.478-7.578,24.619-18.569l51.2-179.2C513.227,152.913,511.673,144.602,506.835,138.185z"/>
	</g>
</g>
<g>
</g>
<g>
</g>
<g>
</g>
<g>
</g>
<g>
</g>
<g>
</g>
<g>
</g>
<g>
</g>
<g>
</g>
<g>
</g>
<g>
</g>
<g>
</g>
<g>
</g>
<g>
</g>
<g>
</g>
</svg>
