<?xml version="1.0" encoding="iso-8859-1"?>
<!-- Generator: Adobe Illustrator 19.0.0, SVG Export Plug-In . SVG Version: 6.00 Build 0)  -->
<svg version="1.1" id="Layer_1" xmlns="http://www.w3.org/2000/svg" xmlns:xlink="http://www.w3.org/1999/xlink" x="0px" y="0px"
	 viewBox="0 0 512 512" style="enable-background:new 0 0 512 512;" xml:space="preserve">
<g>
	<g>
		<path style="fill: #48a5bd;" d="M508.255,490.146l-128-128c-0.06-0.06-0.137-0.077-0.196-0.128c34.193-38.434,55.142-88.917,55.142-144.418
			c0-120.175-97.425-217.6-217.6-217.6S0.001,97.425,0.001,217.6s97.425,217.6,217.6,217.6c55.501,0,105.984-20.949,144.418-55.151
			c0.06,0.06,0.077,0.137,0.128,0.196l128,128c2.5,2.509,5.777,3.755,9.054,3.755s6.554-1.246,9.054-3.746
			C513.247,503.253,513.247,495.147,508.255,490.146z M217.601,409.6c-105.865,0-192-86.135-192-192s86.135-192,192-192
			s192,86.135,192,192S323.466,409.6,217.601,409.6z"/>
	</g>
</g>
<g>
	<g>
		<path style="fill: #48a5bd;" d="M352.735,201.532C350.311,198.537,292.609,128,217.601,128s-132.71,70.537-135.134,73.532
			c-7.552,9.378-7.552,22.75,0,32.128c2.423,3.004,60.126,73.54,135.134,73.54s132.71-70.536,135.134-73.532
			C360.287,224.29,360.287,210.91,352.735,201.532z M217.601,281.6c-63.625,0-115.2-64-115.2-64s51.575-64,115.2-64
			s115.2,64,115.2,64S281.226,281.6,217.601,281.6z"/>
	</g>
</g>
<g>
	<g>
		<path style="fill: #48a5bd;" d="M217.601,166.4c-28.279,0-51.2,22.921-51.2,51.2c0,28.279,22.921,51.2,51.2,51.2c28.279,0,51.2-22.921,51.2-51.2
			C268.801,189.321,245.88,166.4,217.601,166.4z M217.601,243.2c-14.114,0-25.6-11.486-25.6-25.6c0-14.114,11.486-25.6,25.6-25.6
			c14.114,0,25.6,11.486,25.6,25.6C243.201,231.714,231.715,243.2,217.601,243.2z"/>
	</g>
</g>
<g>
</g>
<g>
</g>
<g>
</g>
<g>
</g>
<g>
</g>
<g>
</g>
<g>
</g>
<g>
</g>
<g>
</g>
<g>
</g>
<g>
</g>
<g>
</g>
<g>
</g>
<g>
</g>
<g>
</g>
</svg>
