<svg id="Layer_1" xmlns="http://www.w3.org/2000/svg" viewBox="-389.5 243.6 57.5 74"><style>.st0{fill:#c5cb79}</style><path class="st0" d="M-363.4 300.7c-.4 0-.8-.2-1.1-.4l-6.8-6.8c-.6-.6-.6-1.5 0-2.1.6-.6 1.5-.6 2.1 0l5.2 5.2 9.2-22c.3-.8 1.2-1.1 2-.8.8.3 1.1 1.2.8 2l-9.9 24c-.2.5-.6.8-1.1.9h-.4zM-356.6 259.6c-.3 0-.6-.1-.9-.3-.7-.5-.8-1.4-.3-2.1l2.8-3.7-5.5.6h-.3l-5.5-.6 2.8 3.7c.5.7.4 1.6-.3 2.1s-1.6.4-2.1-.3l-4.9-6.5c-.4-.5-.4-1.1-.1-1.6.3-.5.9-.8 1.5-.8l8.8 1 8.8-1c.6-.1 1.2.2 1.5.8.3.6.3 1.2-.1 1.6l-4.9 6.5c-.5.4-1 .6-1.3.6z"/><path class="st0" d="M-360.8 311.2c-10.2 0-21.7 0-21.7-14.9 0-13.9 9.7-35.1 21.7-35.1s21.7 21.2 21.7 35.1c.1 14.9-11.4 14.9-21.7 14.9zm0-47c-4.4 0-9.1 4.1-12.9 11.1-3.5 6.5-5.7 14.7-5.7 20.9-.1 11.4 7 12 18.6 12s18.7-.6 18.7-11.9c0-6.3-2.2-14.5-5.7-20.9-3.8-7.1-8.6-11.2-13-11.2z"/></svg>