<?xml version="1.0" encoding="utf-8"?>
<!-- Generator: Adobe Illustrator 19.2.0, SVG Export Plug-In . SVG Version: 6.00 Build 0)  -->
<svg version="1.1" id="Слой_1" xmlns="http://www.w3.org/2000/svg" xmlns:xlink="http://www.w3.org/1999/xlink" x="0px" y="0px"
	 viewBox="0 0 120 52.3" style="enable-background:new 0 0 120 52.3;" xml:space="preserve">
<style type="text/css">
	.st0{fill:#FFFFFF;}
	.st1{fill:#2E0B01;}
	.st2{opacity:0.55;fill:#2E0B01;enable-background:new    ;}
	.st3{opacity:0.2;enable-background:new    ;}
	.st4{fill:#44A3BC;}
	.st5{fill:#CB242D;}
	.st6{fill:#DC5B2B;}
	.st7{opacity:0.5;}
	.st8{fill:#C5CB79;}
	.st9{fill:#E2001A;}
	.st10{fill:#B70718;}
	.st11{fill:#EFB886;}
	.st12{fill:#BBDBE8;}
	.st13{fill:#50542E;}
	.st14{opacity:0.1091;fill:#FFFFFF;enable-background:new    ;}
	.st15{opacity:0.5;fill:#CB242D;enable-background:new    ;}
	.st16{opacity:0.6;}
	.st17{fill:#EC9488;}
	.st18{fill:none;stroke:#50542E;stroke-linecap:round;stroke-miterlimit:10;}
	.st19{opacity:0.2;fill:#55721A;enable-background:new    ;}
	.st20{fill:#55721A;}
	.st21{fill:none;stroke:#FFFFFF;stroke-miterlimit:10;}
	.st22{fill:none;stroke:#C5CB79;stroke-width:2;stroke-miterlimit:10;}
	.st23{fill:#CDC09E;}
	.st24{opacity:0.1;fill:#44A3BC;}
	.st25{opacity:0.9;}
	.st26{opacity:0.9;fill:#44A3BC;enable-background:new    ;}
	.st27{opacity:0.1091;fill:#44A3BC;enable-background:new    ;}
	.st28{opacity:0.1091;fill:#55721A;enable-background:new    ;}
	.st29{opacity:0.4;}
	.st30{opacity:0.9;fill:#55721A;enable-background:new    ;}
	.st31{opacity:0.4;fill:#55721A;}
	.st32{fill:#D95929;}
	.st33{fill:#F68D1A;}
	.st34{fill:#FFC73B;}
	.st35{fill:#FABC14;}
	.st36{fill:#FCAD17;}
	.st37{fill:none;stroke:#FFFFFF;stroke-width:2;stroke-miterlimit:10;}
	.st38{fill:none;stroke:#44A3BC;stroke-width:20;stroke-miterlimit:10;}
	.st39{fill:none;stroke:#44A3BC;stroke-width:20;stroke-linejoin:round;stroke-miterlimit:10;}
	.st40{fill:none;}
	.st41{fill:#3B5998;}
	.st42{fill:none;stroke:#000000;stroke-width:2;stroke-miterlimit:10;}
	.st43{opacity:0.6;fill:#333333;}
</style>
<g>
	<g id="layer1_2_" transform="translate(-120.12 -522.492)">
		<path id="path4453_1_" class="st1" d="M214.4,546.4c0,0,2.7-2.8,3.5-2.9c0.2,0,0.4,0.4,0.1,0.8c-0.1,0.1,0,0.3,0.5-0.2
			c0.5-0.5,1.4-1.9,0.1-2.7c-1-0.6-2-0.3-2-0.3s-1-1.7-3.7-0.4c-1.9,0.9-2.8,1.1-4.5,1.2c-2.1,0.1-6.1-0.7-11.1-6l-9-2.9
			c0,0-9.6-4.8-13.6-10c-0.2-0.3,0.6,5,7.9,9.9c0,0.1-6.7-2.3-11.4-7.2c-0.1-0.1,1.1,4.4,7,7.6c-0.1,0-4.8-1.1-8.3-3.8
			c0,0,1,4.1,8.1,5.9c0.1,0-4.2-0.8-7.9-2.3c-0.3-0.2,2,3.1,7.3,4.1c0,0-1.3-0.1-2.7-0.4c-1-0.2-3.1-0.6-3.1-0.6s0.4,1.3,5.5,2.4
			l-4-0.5c0,0,0.2,1.2,5.8,2.1c-0.2,0.1-2.4-0.1-4-0.7c0,0,0.4,1.3,4.3,2.4c0.7,0.2,1.6,0.4,2.6,0.4c0.1,0,2.5,2.6,3.7,3
			c0.4,0.1,0.5,0,0.6,0.1c0.1,0.1,0.1,0.2,0.3,0.3c0.2,0.1,0.4,0,0.5,0.1c0.2,0.1,0.1,0.2,0.4,0.4c0.2,0.1,0.4-0.1,0.6,0.1
			c0.2,0.1,0.1,0.3,0.3,0.5c0.2,0.1,0.5-0.1,0.7,0.1c0.2,0.1,0.1,0.4,0.4,0.5c0.3,0.2,0.5,0,0.7,0.1c0.2,0.1,0.1,0.4,0.4,0.5
			c0.4,0.2,0.6-0.1,0.8,0.1s0.2,0.4,0.5,0.7c0.4,0.3,1.2,0.8,1.8,1.1c0,0-7.4,1.1-10.7,2.1c0,0.5,0.6,1.2,1.8,1.7
			c0.2,0.1,1.5,0.6,2.6,0.7c0,0-3.2,1.4-3.8,2.1c0.1,0.1,1.1,0.9,5.5,0.1c0,0-2.6,1.7-3.1,2.5c0,0.1,2.6,1.1,5.4-0.6
			c0,0-0.8,0.8-1,1.5c0,0,1.9,0,3.2-1.1c0,0-0.3,1.4,1.6-0.2c0,0,0.8,0.8,3.6-3.1c0.4-0.5,0.8-1.1,1.1-1.8c1.2-0.2,2.6-0.4,3.9-0.8
			c0,0,0.9,0.3,1.8,0.2c0.9-0.1,0.5,0.2,1.4,0.4c0.6,0.1,0.8-0.1,1.1-0.1c0.3,0,0.4,0.2,0.9,0.3c0.5,0.1,0.7-0.1,1.1,0
			c0.5,0.1,0.9,0.5,3.1,0.7c2,0.2,3.3-0.1,3.9-0.6c0,0,3.4,0.5,4-0.6c0,0,3.5,0.4,3.4-0.5c0.2,0,4.8,0.8,5.5-0.6
			c0,0-2.7-0.4-2.4-0.5c0.5,0,6.2,1,7.5-0.8c-0.5,0-4.2-0.6-4.2-0.7c0.1-0.1,7,0.9,8.1-1.5c-0.2,0-5.5-0.2-5.6-0.3
			c-0.1-0.1,6.2,0.3,6.6-2.1c-0.4,0.1-3.2,0.4-6.4,0.2c0.1-0.1,6-0.6,6.6-3.4c-0.3,0-3,2.1-11.7,1.5c-1-0.1-3.4-0.6-6.3,0.4
			c-3,0.9-4.8,0.6-4.8,0.6C217.2,545.6,215.5,545.2,214.4,546.4"/>
		<path id="rect4486_1_" class="st1" d="M197.5,549.4c0,0-11.6,1.7-14.3,2.6c-0.1,0-0.1,0.1-0.2,0.1c0,0.1,0.1,0.4,0.4,0.7
			c0.9,0.8,3.1,1.5,4.4,1.4c-0.1,0-2.4,1.2-3.2,1.6c-0.8,0.4-1,0.6-1,0.6s0.7,0.8,6-0.2c-0.2,0.1-3.4,2.3-3.5,2.7
			c0,0.1,2.8,1.1,6-1.2c0,0-0.6,0.6-1.2,1.3c-0.1,0.2-0.2,0.4-0.4,0.5c-0.1,0.2-0.1,0.2-0.1,0.2h0.1c0.5,0,1.8-0.2,3.1-1.4
			c-0.1,0.1-0.6,1.6,1.4,0c0,0.1,0.5,0.7,2.7-1.9c2.1-2.7,2-3.4,2-3.4L197.5,549.4L197.5,549.4z"/>
		<path id="rect4523_1_" class="st1" d="M197.8,549.7c0,0-10.5,2.1-12.5,2.8c0,0,1.8,1.2,4.4,1.1c-0.8,0.5-3.9,2-4.2,2.4
			c0.2,0.1,3.7-0.2,5.8-0.6c-0.9,0.8-2.5,2.1-3.2,2.9c0,0,2,0.1,5-1.8c-0.4,1.2-1.7,2.6-1.7,2.6s1.8-0.6,3.1-2
			c-0.1,0.1-1.1,2.5,1.2,0.1c0,0.1,0.1,1.2,2.2-1.7c1.7-2.5,1-3.2,1-3.2L197.8,549.7L197.8,549.7z"/>
		<path id="path4527_1_" class="st1" d="M228.2,546.6c0,0,9.4-0.6,11.7-3.2C239.8,543.4,239.1,546.6,228.2,546.6"/>
		<path id="rect4556_1_" class="st1" d="M213.6,546.1c-1.7,1.7-11.1,5.7-11.8,6.2l1.5,0.2c0.4,0.3,1.2,0.4,1.6,0.4
			c0.3,0,0.4,0,0.5,0s0.2,0,0.4,0c0.2,0,0.3,0,0.4,0.1c0.3,0.2,0.5,0.3,0.9,0.3c0.2,0,0.4,0,0.6-0.1c0.2-0.1,0.4-0.1,0.5,0
			c0.5,0.3,1,0.3,1.5,0.2c0.2,0,0.3,0,0.5,0.1c0.6,0.3,1.3,0.4,1.9,0.6c0.4,0.1,0.8,0.1,1.3,0.2c0.5,0,0.8,0,1.7,0s1.7-0.4,1.5-0.4
			c-2.1-0.2-2.8-0.8-2.5-0.7c5.2,1.3,6.7,0.4,6.5,0.3c-2.7-0.6-3.2-1-3.2-1c4.4,1.2,6.9,0.8,6.6,0.6c-2.3-0.6-4.7-1.8-4.7-1.8
			c6.2,2,8.9,1.7,9.8,1.4c0.4-0.1,0.5-0.2,0.5-0.2c-6-0.8-7-1.9-7-1.9c7,1.8,10.1,1.4,11.3,1c0.5-0.2,0.7-0.3,0.7-0.3
			c-7.6-1.1-7.7-1.5-7.9-1.6c10.3,2,11.9-0.6,11.8-0.6c-5.7-0.1-9-0.8-9.6-0.9c9.9,0.9,10.6-1.5,10.6-1.5c-2.7,0.4-7.2,0.1-10.1-0.1
			c-3-0.2-4.1-0.2-8.3,0.4C213.4,547.9,213.6,546.1,213.6,546.1L213.6,546.1z"/>
		<path id="polygon4585_1_" class="st1" d="M213.6,546.3c-0.6,0.6-9.2,4.1-10.9,5.4l5.9,1c3.6,1.6,7.3,1.3,7,1.2
			c-2.7-0.4-3.5-1.7-3.1-1.5c4.8,1.5,7.6,1.2,7.4,1.1c-3.5-0.7-3.3-1.6-3.4-1.7c2.2,0.9,6.6,1.2,6.3,1.1c-4.1-1.2-4.3-2.1-4.3-2.1
			c6.5,1.7,8.9,1.7,9.5,1.6c0.1,0,0.2,0,0.2,0c-6.4-0.9-7-2.5-7-2.5c6.9,1.6,10.5,1.5,11.7,1.4c0.3,0,0.5-0.1,0.5-0.1
			c-7.7-0.7-8.1-2.1-8.2-2.2c6.8,1.3,11.8,0.2,11.7,0.2c-8.1-0.1-10-1.5-10.1-1.5c7.8,0.8,11.1-0.6,11.1-0.6
			c-1.4,0.3-8.5-0.3-11.2-0.5c-2.8-0.2-2.4-0.1-6.3,0.4C214.8,547.4,213.6,546.3,213.6,546.3z"/>
		<path id="path4589_1_" class="st1" d="M226.8,549.4c0,0,8.9,0.9,11.8-0.6C238.6,548.8,237.2,551.4,226.8,549.4"/>
		<path id="path4591_1_" class="st1" d="M222.6,550.3c0,0,8.7,1.7,12,0.7C234.6,551,232.9,553,222.6,550.3"/>
		<path id="path4593_1_" class="st1" d="M219.3,551.1c0,0,7.2,2,10.3,1.1C229.6,552.2,228,553.9,219.3,551.1"/>
		<path id="path4595_1_" class="st1" d="M229,548c0,0,9.4,1.1,10.6-1.5C239.6,546.5,237.4,548.2,229,548"/>
		<path id="rect4628_1_" class="st1" d="M175,523.9c0,0,2.2,6.5,10.3,10.3c-0.5-0.1-8.7-2.2-14-7.9c0,0.1,2.9,6.2,9.4,7.8
			c-0.4-0.1-5.8-0.5-10.7-4.1c0.1,0.1,2.1,4.5,10.6,5.7c0,0-4,0.5-10.3-2.2c0.1,0.1,3.7,3.8,9.9,3.8c0,0-3.6,0.5-8.4-0.9
			c-0.1,0.1,3.5,2.2,8.5,2.2c0.1,0-1.7,0.5-7-0.4c-0.2,0,2.9,1.8,7.7,1.9c0.1,0-2.2,0.9-5.9-0.4c-0.2,0.1,3,2.3,6.6,2.3l0.6,0.6
			c0,0,2.5,2.6,3.5,2.5c0.2,0,0.4,0.1,0.4,0.2c0,0.1,0.1,0.2,0.2,0.2c0.1,0.1,0.2,0,0.2,0c0.1,0,0.2,0,0.3,0
			c0.2,0.1,0.2,0.2,0.3,0.4c0.1,0.1,0.3,0.1,0.5,0.1c0.3-0.1,0.4,0.2,0.5,0.4c0.1,0.2,0.3,0.2,0.5,0.1c0.1-0.1,0.3,0,0.4,0.2
			c0.1,0.1,0.1,0.3,0.2,0.4c0.1,0.1,0.3,0.1,0.5,0.1c0.1,0,0.3,0,0.4,0.1c0.1,0.1,0.1,0.2,0.2,0.4s0.2,0.3,0.7,0.2
			c0.3-0.1,0.4,0.2,0.5,0.5c0.1,0.3,0.8,0.7,1,0.9c0.4,0.2,1.3,0.7,1.6,0.8l0.8-0.1h0c0,0,1.8,0.7-1.6,3.5c0.6,1,11.9,0.9,18.3-4.6
			c0.5-0.5,1.1-1.1,1.7-1.6c0-0.1,0.1-4.1-0.6-5.9c0,0-7.1,4.5-15.2-4.9c-0.2-0.1-0.7,0-1.4,0c-1.1,0.1-2.5,0.2-3.1-0.4
			C192.9,535.9,179.3,529.4,175,523.9L175,523.9z"/>
		<path id="polygon4657_1_" class="st1" d="M209.7,546.8l-2.6,0.5c-2.8,3.4-11.5,5.3-12.1,5.4c0.6,0,0.5,0.2,0.5,0.2
			c0.2,0.5-0.1,0.7-0.1,0.7c1.2,0,1.9-0.5,2.1-0.6c0.1,0.4,0,0.8,0,0.8c10-0.8,14.3-5.5,14.3-5.5l-1.3,0.6c-0.3,0.1,0-0.1,0-0.1
			l0.8-0.8l-1.2,0.3l0.7-0.7l-2.4,0.5L209.7,546.8L209.7,546.8z"/>
		<path id="path4661_1_" class="st1" d="M216.5,541.7c0,0-0.9-2.2-4.6-0.1c0,0,0.6-0.3,0.8-0.1c0,0-0.6,0.1-1.8,0.9
			c0,0,0.3-0.1,0.4,0c0,0-1.3,0.8-3.7,0.8c0,0,0.2,0.2,1.2,0.2c0,0-0.9,0.4-2.5,0.1c0,0,0.1,0.4,0.9,0.5c0,0-0.9,0.3-1.7,0.2
			c0,0,0.2,0.3,1.2,0.3c0,0-0.4,0.4-1.3,0.6c0,0,0.6,0.2,2.1-0.3c0,0-0.7,0.5-1.9,1.1c0,0,0.6,0.1,2-0.2c0,0-0.2,0.3-1,0.7
			c0,0,0.7,0,1.6-0.2c0,0-0.3,0.4-1.2,0.9c0,0,0.7,0,2.6-0.5c0,0-0.8,1.1-1.1,1.4c0,0,1-0.2,1.8-0.4c0.3-0.1,0.8-0.2,0.3,0.1
			c-0.4,0.4-0.4,0.4-0.4,0.4s0.8-0.2,1-0.3c0,0-0.6,0.8-0.9,0.9c0,0,1-0.2,1.5-0.5c0,0,0.1,0.5,0.3,0.7c0,0,1.3-1.9,2.4-2.8
			c0.7-0.8,2.3-2.4,2.4-2.6C217.2,543.1,216.6,541.8,216.5,541.7"/>
		<path id="path4663_1_" class="st1" d="M213.9,541.9c0,0-0.1,0.5,1,0.3c0,0-0.8,0.4-1.2-0.2c0,0-0.3,0-0.6,0.1
			C213.1,542.1,213.5,541.9,213.9,541.9"/>
		<path id="path4665_1_" class="st1" d="M213.9,541.8c0,0,0.4-0.3,1,0c0.1,0,0,0,0.1,0.1c0,0,0.1,0,0.1,0c0.1,0,0.1,0,0.2,0h0.2
			c0.1,0,0.1-0.1,0.1-0.1c0-0.1-0.1-0.2-0.2-0.2c-0.1-0.1-0.2-0.1-0.2-0.1s0.1,0.1,0.1,0.1c0.1,0.1,0,0.2-0.3,0.1
			C215.1,541.6,214,541.2,213.9,541.8"/>
		<path id="path4667_1_" class="st1" d="M215.1,541.9c0,0.2-0.2,0.3-0.5,0.3c-0.3,0-0.5-0.1-0.5-0.3c0-0.2,0.2-0.3,0.5-0.3
			C214.9,541.6,215.1,541.7,215.1,541.9"/>
		<path id="path4669_1_" class="st1" d="M214.9,541.9c0,0.1-0.1,0.2-0.3,0.2c-0.2,0-0.3-0.1-0.3-0.2c0-0.1,0.1-0.2,0.3-0.2
			C214.8,541.7,214.9,541.8,214.9,541.9"/>
		<path id="path4671_1_" class="st1" d="M214.8,541.9c0,0.1-0.1,0.1-0.2,0.1s-0.2-0.1-0.2-0.1s0.1-0.1,0.2-0.1
			S214.8,541.8,214.8,541.9"/>
		<path id="path4673_1_" class="st1" d="M214.6,541.6c0,0,0.1,0.2,0.3,0.2c0.2,0.1,0-0.2,0-0.2L214.6,541.6z"/>
		<path id="path4675_1_" class="st1" d="M213.1,541c-0.4,0.2-0.8,0.4-1.2,0.6c-0.5,0.2-1.3,0.5-1.4,0.5c0,0,0.9-0.1,1.6-0.5
			c0.2-0.1,0.4-0.2,0.5-0.2c0.3-0.1,0.6-0.3,1-0.4c0.6-0.2,1.4-0.2,2,0.1c0.4,0.2,0.5,0.5,0.5,0.6v0c0.1-0.1,0.4-0.2,0.5-0.2
			c0,0,0-0.1-0.1-0.1c-0.3-0.4-0.8-0.7-1.3-0.8c-0.5-0.1-0.9,0-1.4,0.1C213.5,540.8,213.3,540.9,213.1,541"/>
		<path id="polygon4700_1_" class="st2" d="M214.8,543.4c0,0-0.8,0.5-2,1c0.6-0.2,1.3,0.1,1,0.4c-0.2,0.2-1.2,0.6-1.6,0.7
			c1-0.2,0.9,0.2,0.1,0.5c-0.4,0.2-1.8,0.7-2.1,0.8c0,0,0.2,0,0.5-0.1c0.4-0.1,0.9-0.1,0.7,0c-0.5,0.3-1.4,0.8-2.5,1.2
			c0,0,1.1-0.1,2.2-0.6c0.2-0.1,0.1,0.1-0.1,0.3c-0.2,0.2-0.4,0.4-0.3,0.3c0.8-0.1,0.9-0.3,0.9-0.3c-0.2,0.3-0.6,0.8-0.9,0.9
			c0.2-0.1,0.6-0.2,1.2-0.5c-0.1,0.1-0.2,0.5-0.1,0.7c0,0,0.5-0.9,1.3-1.6c0.5-0.5,1-1.1,1.9-1.9c0.7-0.6,1.4-1.4,2.3-1.9
			c0-0.1-0.5,0-1,0C215.7,543.5,214.8,543.6,214.8,543.4L214.8,543.4z"/>
		<path id="polygon4725_1_" class="st1" d="M217.2,541.3c-0.6,0-1.2,0.2-1.3,0.2c-0.2,0.2-0.2,1-0.5,1.3c-0.3,0.3-1.2,0.1-1.4,0.5
			c-0.4,0.8,1.3,0.6,2.5,0.2c0.6-0.1,0.1,0.4,0.1,0.4c0.1-0.1,0.2-0.2,0.2-0.2c0.1-0.1,0.2-0.1,0.2-0.2c0.1-0.1,0.3-0.2,0.5-0.3
			c0.1-0.1,0.2-0.1,0.3-0.1c0.1,0,0.2,0,0.2,0c0.5,0.2,0,0.9,0.1,0.9c0.4-0.3,1.4-1.5,0.6-2.4C218.4,541.4,217.8,541.3,217.2,541.3
			L217.2,541.3z"/>
		<path id="polygon4750_1_" class="st1" d="M217.5,543c-0.2,0-0.4,0.1-0.6,0.1c-0.3,0.1-0.6,0.1-0.9,0.2c-0.2,0-0.4,0.1-0.6,0.1
			s-0.4,0-0.6,0.1c-0.1,0-0.3,0.1-0.2,0.2c0.1,0.1,0.3,0.1,0.4,0c0.2,0,0.3-0.1,0.5-0.1c0.1,0,0.2,0,0.4-0.1c0.1,0,0.2-0.1,0.4-0.1
			c0.2-0.1,0.4-0.1,0.6-0.1c0.4-0.1,0.8-0.1,1.2,0c0.1,0.1,0.3,0.1,0.4,0.4c0-0.1,0-0.3-0.1-0.4C218,543,217.7,543,217.5,543
			L217.5,543z"/>
		<path id="path4754_1_" class="st1" d="M216.7,541.8c0.1,0.1,0,0.2-0.1,0.3c-0.1,0.1-0.3,0.2-0.4,0.1c-0.1-0.1,0-0.2,0.1-0.3
			C216.4,541.8,216.6,541.7,216.7,541.8"/>
		<path id="path4756_1_" class="st1" d="M216.6,541.7c0.1,0.1,0,0.2-0.1,0.3c-0.1,0.1-0.3,0.2-0.4,0.1c-0.1-0.1,0-0.2,0.1-0.3
			S216.6,541.7,216.6,541.7"/>
		<path id="path4758_1_" class="st1" d="M216.7,541.5c0,0,1.4-0.4,1.8,0.7C218.6,542.2,218.3,541.6,216.7,541.5"/>
		<path id="rect4781_1_" class="st1" d="M239.8,543.4c0,0-2.5,1.3-6.1,1.5c-0.2,0-0.4,0-0.6,0c-0.9,0.1-1.8,0.1-2.7,0.1
			c-1,0-2-0.1-3-0.1c-0.5,0-1-0.1-1.4-0.1c-0.7,0-1.4,0-2.1,0.1c-0.7,0.1-1.4,0.3-2.1,0.5c-1.4,0.4-2.9,0.7-4.4,0.5
			c-2.3-0.3-2.9,0.7-2.9,0.7c0.6,0.2,1.2,0.4,2.1,0.4c0.4,0,1.8,0.1,3.4-0.1c1.1-0.1,1.9-0.3,2.8-0.5c0.5-0.1,1-0.1,1.5-0.2
			c0.5-0.1,1-0.1,1.5-0.1c0.5,0,1.5,0.1,2.6,0.2c0.8,0,1.8,0,2.7-0.1c0.6,0,2.4-0.3,3-0.4C234.3,545.7,239.3,544.8,239.8,543.4
			L239.8,543.4z"/>
		<path id="path4785_1_" class="st1" d="M214.6,546.5c0,0,0.6-1,2.9-0.7c1.5,0.2,3-0.1,4.4-0.5c0.7-0.2,1.4-0.4,2.1-0.5
			c0.7-0.1,1.4-0.1,2.1-0.1c0.5,0,1,0.1,1.5,0.1c1,0.1,2,0.2,3,0.1c0.9,0,1.8,0,2.7-0.1c0.2,0,0.4,0,0.6,0c0,0.4-0.8,0.5-1.1,0.5
			c-0.5,0.1-1.2,0.1-1.8,0.1c-0.8,0-1.7,0-2.5,0c-0.8,0-1.6-0.1-2.4-0.2c-0.5,0-0.9,0-1.4,0.1c-0.5,0.1-1.1,0.2-1.7,0.3
			c-0.8,0.2-1.6,0.4-2.8,0.5c-1.1,0.1-1.9,0.1-2.7,0C216.6,546,215.6,546,214.6,546.5"/>
		<path id="polygon4832_1_" class="st1" d="M186.8,535c-0.5,0-0.9,0.1-1.3,0.2c-0.5,0.2-1,0.4-1.3,0.9c-0.4,0.5-0.7,1.2-0.7,2.2v0.1
			c0,0.6,0.2,1.4,0.5,2.1c0.4,0.9,1.3,2,2.5,3.2c0.6,0.6,1.4,1.2,2.3,1.8c0.5,0.4,1.4,0.8,2.1,1.2c0,0,9.6-1.7,13.2-1
			c1.2,0.2,1.3,0.7,1.3,0.7s0.1-0.6-0.9-1.6c-0.7-0.6-1.8-1.6-3.2-2.5c-1.1-0.7-1.9-1.4-3.2-2.2C197.9,540.1,191.2,535,186.8,535
			L186.8,535z"/>
		<path id="rect4859_1_" class="st1" d="M176.9,526.4c0,0.1,3.1,4.9,10.3,8.3c0,0-5.1,0-13-5.2c0,0.1,3.4,3.8,9.1,5.1
			c0,0-0.1,0-0.4,0c-1,0.1-4.3,0.1-9.5-2.1c0.1,0,2,2.2,9.7,3.3c0,0-0.3,0.1-0.8,0.2c-1.3,0.2-4.1,0.5-8.1-0.6
			c0.1,0,2.2,1.4,8.5,1.8c0,0-2.5,1.1-7.1,0.5c0.1,0,2.3,0.8,7.1,0.8c0.1,0-2,0.9-5.7,0.7c0.1,0.1,3.4,0.8,5.9,0.7
			c0,0-1.6,1.3-4.5,1c0,0,1.9,0.8,4.1,0.6c0.1,0.1,2.4,3,3.8,2.9c0.2,0,0.3,0.1,0.4,0.3s0.2,0.2,0.4,0.2h0.1c0.2,0,0.2,0,0.4,0.2
			c0.1,0.2,0.1,0.3,0.5,0.3c0.4,0,0.4,0.1,0.5,0.3c0.1,0.2,0.3,0.4,0.5,0.3c0.3,0,0.5,0.1,0.5,0.3c0.1,0.2,0.5,0.6,1,0.4
			c0,0-6.7-4.1-7.2-7.6c-0.2-1.3-0.1-4.2,3.3-3.9c3.4,0.2,8,3.1,8.3,3.4c0,0-4-4.1-4-4.1C191.3,534.5,184.4,533.1,176.9,526.4
			L176.9,526.4z"/>
		<path id="rect4900_1_" class="st1" d="M187.5,535.3c0,0,8.4,6.5,7,14.6c0,0,6.4-0.7,6.4-4.5v-0.2c0-1.1-0.5-2.4-1.8-4
			C199.2,541.1,192.3,535.9,187.5,535.3z"/>
		<path id="path4902_1_" class="st1" d="M179.9,522.5c0,0-2.5,2.4,9.1,11.5c3.9,3,11.4,9.3,16.3,9.2c1.1-0.1,1.6-0.4-0.1-0.9
			c-1.5-0.5-5.6-2.5-7.7-5.9c-0.3-0.7-1.9-1.1-4.3-2.8C193.1,533.6,183.1,527.6,179.9,522.5"/>
		<path id="polygon4929_1_" class="st1" d="M179.9,522.9c0,0,0,0.6,0.2,1.2c0.4,1.1,1.6,3.2,5.1,6.2c4.7,4,9.9,7.9,12.5,9.6
			c2.7,1.7,5.6,2.7,7.1,2.8c0.9,0-0.7-0.6-0.7-0.6s-2.2-0.6-5.4-3.2c-0.2-0.2-0.6-0.6-1.2-1.2c-0.4-0.4-0.7-1-2.1-1.9
			c-0.9-0.6-1.3-0.9-2.3-1.6c-1.6-1.1-11-7.3-12.6-10.4C180.3,523.7,180,523.2,179.9,522.9L179.9,522.9z"/>
		<path id="polygon4954_1_" class="st1" d="M214.1,543.4c-0.1,0.1-0.1,0.2-0.1,0.4c0,0.3,0.4,0.3,0.8,0.3c0.6,0,1.2-0.2,1.2-0.2
			C213.8,544.1,214.1,543.4,214.1,543.4z"/>
		<path id="polygon4983_1_" class="st1" d="M197.5,553.1c-2.5,1.2-2.9,0.2-2.9,0.2s-0.2,0.3-0.2,0.7c0,0.1,0,0.8,1.5,0.5
			c0.5-0.1,0.5-0.1,1.1-0.3C197.7,553.8,197.5,553.1,197.5,553.1L197.5,553.1z"/>
		<path id="polygon5012_1_" class="st1" d="M195.1,552.7c-0.1,0-0.1,0-0.2,0.1c-0.4,0.3-1.8,0.7-1.9,0.7c0-0.2-0.4-0.2-0.8,0.1
			c-0.5,0.4,0.4,0.6,0.4,0.6c0.1,0.6,1.3,0.2,1.4,0.1c0.3-0.1,0.8-0.4,1.1-0.6c0.5-0.4,0.4-0.8,0.4-0.8S195.4,552.7,195.1,552.7
			L195.1,552.7z"/>
		<path id="path5016_1_" class="st1" d="M197.6,552.7c-1,0.7-2,0.6-2,0.7c0,0,0.1-0.2,0.1-0.2V553c-0.1-0.4-0.5-0.4-0.8-0.3
			c-0.1,0.1-0.2,0.1-0.4,0.2c-0.5,0.3-1.5,0.4-1.5,0.4c0-0.3-0.6,0-0.6,0c-0.4-0.2,0-0.6,0-0.6c-1.1,0.2-0.5,0.9-0.5,0.9
			c-0.1,0.2,0.1,0.4,0.1,0.4c0.1,0.4,0.5,0.4,0.5,0.4c0.2,0.4,0.8,0.4,1.1,0.2c0.2-0.1,0.8-0.3,0.9-0.3c0.3,0.4,1.1,0.3,1.4,0.2
			c0.5-0.1,0.9-0.2,1.4-0.4C197.9,553.8,197.7,552.8,197.6,552.7 M196.5,554.2c-0.1,0-0.4-0.1-0.4-0.3c0,0-0.2,0.2,0.1,0.4
			c0,0-0.4,0.1-0.6,0.1c0,0-0.4,0-0.4-0.3c0,0-0.2,0.1,0,0.3c0,0-0.6,0.1-0.7-0.3c0,0-0.4,0.2-0.4,0.2s-0.2,0-0.2-0.1
			c0,0-0.2,0.1,0,0.2c0,0-0.8,0.3-0.9-0.1c0,0,1.1-0.2,2.1-0.9c0,0-0.6,0.4-1,0.4c-0.1,0-0.4-0.1-0.4-0.3c0,0-0.3,0.1,0.1,0.4
			l-0.2,0.1l-0.2,0.1c0,0-0.4,0-0.4-0.3c0,0-0.2,0.2,0.1,0.4c0,0-0.6,0.3-1-0.2c-0.1-0.2,0.1-0.4,0.3-0.4c0.2-0.1,0.5-0.1,0.4,0.1
			c0,0,1.3-0.2,1.9-0.6c0.4-0.2,0.8,0.1,0.3,0.8c0,0,1,0.2,2.3-0.5C197.5,553.2,197.7,553.9,196.5,554.2"/>
		<path id="path4429_1_" class="st1" d="M192,572.5c-1.9,0-4.3-0.9-4.4-3.5h9.3c0.1-3.7-2.2-6.4-5.7-6.4c-3.8,0-6.3,2.5-6.3,6.1
			c0,3.5,2.5,6.1,7,6.2c2.3,0.1,3.6-0.8,4.6-1.5v-2.1C196.6,571.2,193.9,572.5,192,572.5 M191.2,564.7c1.7,0,3.1,1.4,3.1,2.2h-6.5
			C187.8,566,189.1,564.7,191.2,564.7"/>
		<path id="path4431_1_" class="st1" d="M157.3,558L157.3,558l-4.3-0.1v0.1c0.5,0.3,0.6,1.2,0.7,2.1v12c0,0.9-0.2,1.9-0.7,2.2v0.1
			h4.3v-0.1c-0.5-0.3-0.7-1.3-0.7-2.2v-11.9C156.7,559.3,156.8,558.3,157.3,558"/>
		<path id="path4433_1_" class="st1" d="M179.2,565.7c1.7-0.3,3.7-1.3,3.7-3.8c0-2.4-2-4-6-4h-5.8v0.1c0.5,0.3,0.6,1.2,0.7,2.1v12
			c0,0.9-0.2,1.9-0.7,2.2v0.1h6.7c3.7,0,6.3-1.3,6.3-4.7C184.2,566.4,180.8,565.7,179.2,565.7 M174.7,560.3V560
			c0.4,0,0.8-0.1,1.2-0.1c3.1,0,4,0.7,4,2.2c0,2.1-2.3,2.6-4.5,2.6c-0.2,0-0.3,0-0.7,0V560.3z M177.2,572.3c-0.9,0-1.6-0.1-2.5-0.2
			v-5.2c0.3,0,0.7-0.1,1-0.1c2.9,0,5.3,0.3,5.3,2.8C181.1,571.2,180.1,572.3,177.2,572.3"/>
		<path id="path4435_1_" class="st1" d="M205.1,562.9L205.1,562.9c0.4,0.4,0.2,1.3-0.2,2.2l-2.4,5.8l-3.2-8h-2.9v0.1
			c0.6,0.3,0.5,1.2,0.9,2.1l2.9,7.1c0.8,1.8,3,2.3,3,2.3h0.1l4.7-11.6L205.1,562.9L205.1,562.9z"/>
		<path id="path4437_1_" class="st1" d="M169.7,572.1v-5.4c0-0.9-0.2-1.8-0.6-2.4c-0.8-1.2-2.4-1.7-3.8-1.7c-1.6,0-2.2,0.1-3.4,1.1
			v0l-0.6,0l-2.9-0.8v0.1c0.5,0.3,0.6,1.2,0.7,2.1v7.1c0,0.9-0.2,1.9-0.7,2.2v0.1h4.3v-0.1c-0.5-0.3-0.6-1.3-0.7-2.2v-5.3
			c0.1-1.2,0.7-2.4,2.3-2.4c2,0,2.6,1,2.6,3.4v4.2c0,0.9-0.2,1.9-0.7,2.2v0.1h4.3v-0.1C169.8,574,169.7,573.1,169.7,572.1"/>
		<path id="path4439_1_" class="st1" d="M187.1,568.6h9.3c0.1-3.7-2.2-6.4-5.7-6.4c-3.8,0-6.3,2.5-6.3,6.1c0,3.5,2.6,6.2,7,6.2
			c2.2,0,3.6-0.7,4.6-1.4v-2.2c0,0-2.3,1.3-4.5,1.2C189.5,572,187.2,571.2,187.1,568.6 M190.7,564.4c1.7,0,3.1,1.4,3.1,2.3h-6.5
			C187.3,565.7,188.6,564.4,190.7,564.4"/>
		<path id="path4441_1_" class="st1" d="M156.8,557.7L156.8,557.7l-4.3-0.1v0.1c0.5,0.3,0.6,1.2,0.7,2.1v12c0,0.9-0.2,1.9-0.7,2.2
			v0.1h4.3V574c-0.5-0.3-0.7-1.3-0.7-2.2v-11.9C156.1,559,156.3,558,156.8,557.7"/>
		<path id="path4443_1_" class="st1" d="M178.7,565.4c1.7-0.3,3.7-1.3,3.7-3.8c0-2.4-2-4-6-4h-5.8v0.1c0.5,0.3,0.6,1.2,0.7,2.1v12
			c0,0.9-0.2,1.9-0.7,2.2v0.1h6.7c3.7,0,6.3-1.3,6.3-4.7C183.7,566,180.2,565.4,178.7,565.4 M174.2,559.9c0-0.1,0-0.2,0-0.3
			c0.4,0,0.8-0.1,1.2-0.1c3.1,0,4,0.7,4,2.2c0,2.1-2.3,2.6-4.5,2.6c-0.2,0-0.3,0-0.7,0L174.2,559.9L174.2,559.9z M176.7,571.9
			c-0.9,0-1.6-0.1-2.5-0.2v-5.2c0.3,0,0.7-0.1,1-0.1c2.9,0,5.3,0.3,5.3,2.8C180.6,570.9,179.6,571.9,176.7,571.9"/>
		<path id="path4445_1_" class="st1" d="M204.6,562.5L204.6,562.5c0.4,0.4,0.2,1.3-0.2,2.2l-2.4,5.8l-3.2-8h-3.5v0.1
			c0.6,0.3,1.2,1.2,1.5,2.1l2.9,7.1c0.8,1.8,3,2.3,3,2.3h0.1l4.7-11.6L204.6,562.5L204.6,562.5z"/>
		<path id="path4447_1_" class="st1" d="M169.1,571.8v-5.4c0-0.9-0.2-1.8-0.6-2.4c-0.8-1.2-2.4-1.7-3.8-1.7c-1.6,0-2.2,0.1-3.4,1.1
			v0v-0.8h-3.6v0.1c0.5,0.3,0.6,1.2,0.7,2.1v7.1c0,0.9-0.2,1.9-0.7,2.2v0.1h4.3V574c-0.5-0.3-0.6-1.3-0.7-2.2v-5.3
			c0.1-1.2,0.7-2.4,2.3-2.4c2,0,2.6,1,2.6,3.4v4.2c0,0.9-0.2,1.9-0.7,2.2v0.1h4.3v-0.1C169.3,573.7,169.2,572.7,169.1,571.8"/>
		<path id="path4449_1_" class="st1" d="M146,565.7c1.7-0.3,3.7-1.3,3.7-3.8c0-2.4-2-4-6-4h-5.8v0.1c0.5,0.3,0.6,1.2,0.7,2.1v4.7
			c-1.7,0.1-3.3,0.3-4.7,0.6l-3.1-7.5h-3.4l0,0h-0.2v0.1c0.4,0.3,0.2,1.2-0.2,2.1l-4.9,12c-0.4,0.9-0.9,1.9-1.6,2.2v0.1h3.5
			c0.1-0.1,1.1-1.8,3.5-3.7c1.2-0.9,2.8-1.8,4.7-2.5l1.6,3.8c0.4,0.9,0.6,1.9,0.2,2.2v0.1h3.4l-2.8-6.8c1.2-0.2,2.4-0.4,3.8-0.5v5
			c0,0.9-0.2,1.9-0.7,2.2v0.1h6.7c3.7,0,6.3-1.3,6.3-4.7C150.9,566.4,147.5,565.7,146,565.7 M126.5,568.8l3.1-7.6l2,4.9
			C129.5,566.9,127.8,567.8,126.5,568.8 M141.5,560.3c0-0.1,0-0.2,0-0.3c0.4,0,0.8-0.1,1.2-0.1c3.1,0,4,0.7,4,2.2
			c0,2.1-2.3,2.6-4.5,2.6c-0.2,0-0.3,0-0.7,0L141.5,560.3L141.5,560.3z M144,572.3c-0.9,0-1.6-0.1-2.5-0.2v-5.2c0.3,0,0.7-0.1,1-0.1
			c2.9,0,5.3,0.3,5.3,2.8C147.8,571.2,146.9,572.3,144,572.3"/>
		<path id="path4451_1_" class="st1" d="M145.5,565.4c1.7-0.3,3.7-1.3,3.7-3.8c0-2.4-2-4-6-4h-5.8v0.1c0.5,0.3,0.6,1.2,0.7,2.1v4.7
			c-1.7,0.1-3.2,0.2-4.6,0.6l-3-7.5h-3.7v0.1c0.4,0.3,0.2,1.2-0.2,2.1l-4.9,12c-0.4,0.9-0.9,1.9-1.6,2.2v0.1h3.5
			c0.1-0.1,1.1-1.8,3.5-3.7c1.2-0.9,2.7-1.8,4.7-2.5l1.6,3.9c0.4,0.9,0.6,1.9,0.2,2.2v0.1h3.6l-2.8-6.8c1.1-0.2,2.4-0.4,3.7-0.4v5
			c0,0.9-0.2,1.9-0.7,2.2v0.1h6.7c3.7,0,6.3-1.3,6.3-4.7C150.4,566,147,565.4,145.5,565.4 M126,568.4l3-7.4l1.9,4.8
			C128.9,566.5,127.3,567.5,126,568.4 M141,559.9c0-0.1,0-0.2,0-0.3c0.4,0,0.8-0.1,1.2-0.1c3.1,0,4,0.7,4,2.2c0,2.1-2.3,2.6-4.5,2.6
			c-0.2,0-0.3,0-0.7,0L141,559.9L141,559.9z M143.5,571.9c-0.9,0-1.6-0.1-2.5-0.2v-5.2c0.3,0,0.7-0.1,1-0.1c2.9,0,5.3,0.3,5.3,2.8
			C147.3,570.9,146.4,571.9,143.5,571.9"/>
		<path id="path5018_1_" class="st1" d="M194.6,553.9c0,0,0.1,0.1,0.4-0.1c0,0-0.3,0-0.3-0.2C194.6,553.7,194.5,553.9,194.6,553.9"
			/>
		<path id="path5020_1_" class="st1" d="M214,546.7c0,0,2.2,1.1,9.2-0.1c0,0,1.4-0.3,3.1-0.2c0,0,4.6,0.4,8.4-0.8
			c0,0-4.1,0.8-7.4,0.5c0,0-2.2-0.3-4.1,0.1c0,0-6.2,1.2-8.8,0.1L214,546.7z"/>
		<path id="path5022_1_" class="st1" d="M179.9,523c0,0,3.1,5.3,16.6,13c0.3,0.2,0.6,0.4,0.8,0.7c0.2,0.4,0.4,0.7,0.6,1.1
			c0.4,0.6,0.9,1.1,1.4,1.5c0.5,0.5,1.1,1,1.8,1.5c0.4,0.3,1,0.6,1.4,0.8c0,0-3-1.2-6-4.5c-0.6-0.6-2.8-1.9-2.9-2
			C193.6,534.9,180.8,526.6,179.9,523"/>
	</g>
</g>
<g>
	<g id="XMLID_557_" class="st7">
		<g id="XMLID_722_">
			<g id="XMLID_723_">
				<g id="XMLID_724_">
					<path id="XMLID_729_" class="st14" d="M26940.8-212c0-3.2,0-6.4,0-9.6c0-1.5,0-3.2,0-4.9c0-3.9,0-8.4,0-13.8c0-1.5,0-3,0-4.4
						c0-4,0-7.9,0-11.9c0-5.3,0-10.5,0-15.8c0-3.8,0-7.5,0-11.1c0-3.7,0-7.3,0-10.7c0-6.9,0-13,0-19s0-11.9,0-18.3
						c0-3.1,0-6.3,0-9.7c0-3.6,0-7.2,0-10.9c0-0.8,0,1,0,0.9c0,0.9,0,2.3,0,3.2c0,2.9,0,5.6,0,8.2c0,1.8,0,3.5,0,5.1
						c0,4.2,0,8.1,0,11.9c0,7.7,0,14.8,0,22.8c0,3.1,0,6.3,0,9.6c0,4.2,0,8.6,0,13.2c0,0-65535,22216.5,0,28.2c0-0.9,0-1.9,0-2.8
						c0,6.4,0,13.2,0,18.3c0,1.8,0,3.5,0,5.1c0,4.2,0,8.1,0,11.9c0,0.2,0,2.1,0,2.3C26940.8-214.3,26940.8-212,26940.8-212
						L26940.8-212z"/>
				</g>
			</g>
		</g>
	</g>
</g>
<g>
	<g id="XMLID_1525_" class="st16">
		<g id="XMLID_1556_">
			<g id="XMLID_1557_">
				<g id="XMLID_1558_">
					<path id="XMLID_1561_" class="st14" d="M26940.8-286.5c0-0.5,0-1.3,0-2.5c0,1.2,0,2.5,0,3.7c0,1.3,0,2.6,0,4c0,0.6,0,1,0,1.2
						c0,2,0,4.4,0,6.4l0,0c0-0.9,0-1.2,0-2.1c0-1.5,0-4.7,0-6.1c0-2.3,0-3.3,0-4.5c0-1.1,0-1.9,0-2.6c0-0.9,0-1.4,0-1.6
						c0,0,0,3.5,0,3.7c0,2.4,0,4.7,0,6.4c0,1.7,0,2.7,0,3.6c0,0,0-3.4,0-3.7c0-7.4,0-15,0-23c0,1.2,0,2.5,0,3.7c0,3.9,0,7.4,0,10.6
						c0,2.2,0,5,0,8.4c0,0.1,0-2,0-1.9c0-0.3,0-1.6,0-1.9c0-3.5,0-7,0-10.9c0-1.5,0-3,0-4.7c0-2.3,0-4.9,0-7.7c0,1.2,0,2.4,0,3.7
						c0,1.5,0,2.9,0,4.3c0,2.8,0,5.1,0,7.1c0,0.1,0-1.3,0-1.5c0-0.5,0-1.9,0-2.2c0-8.5,0-16.6,0-24.6c0-0.3,0,0.9,0,0.9
						c0,0.5,0,2.2,0,2.6c0,0-65535,22257.1,0,11.9c0,0,0-3.4,0-3.7c0-3.3,0-6.9,0-10.7c0-3.7,0-7.5,0-11.6v3.6c0,2.9,0,3.9,0,6.3
						c0,2.8,0,4.5,0,6c0-0.1,0-0.2,0-0.4c0-1.5,0-2.9,0-4.4c0-2.2,0-3.6,0-5.1c0,0.1,0,1.8,0,1.9c0,0.3,0,1.6,0,1.9c0,1,0,1.9,0,2.9
						c0-0.1,0-0.3,0-0.4c0-0.6,0-1.4,0-2.5c0-2.2,0-5.4,0-9.7v1.5c0,0.6,0,1.7,0,2.2c0,4.1,0,8,0,11.6c0,3.8,0,7.4,0,10.7
						c0-1.2,0-2.4,0-3.7c0-0.7,0-1.7,0-3.2c0-2.1,0-5,0-8.5v3.6c0,8,0,16.1,0,24.6c0-1.2,0-2.4,0-3.7c0-3,0-6.8,0-11.5
						c0-0.1,0,1.3,0,1.5c0,0.5,0,1.8,0,2.2c0,4.5,0,8.7,0,12.6c0,3.8,0,7.3,0,10.9c0-1.3,0-2.5,0-3.8c0-1.3,0-2.5,0-3.8
						c0-1.6,0-3.1,0-4.6c0-0.9,0-1.7,0-2.5c0-2.4,0-5.1,0-8.1c0-0.1,0,2,0,1.9c0,0.4,0,1.6,0,1.8c0,8,0,15.6,0,23c0-1.2,0-2.5,0-3.7
						c0-0.9,0-1.9,0-3.6c0-1.7,0-3.9,0-6.4c0,1.2,0,2.5,0,3.7c0,0.7,0,1.7,0,4.2c0,1.6,0,3.3,0,6.2c0-1.1,0-2.3,0-3.4
						c0,4.7,0,5.4,0,1.9c0-3.9,0-7.6,0-11.1v1.9c0,0.3,0,1.6,0,1.9c0,1.1,0,2,0,2.5v-1.9C26940.8-284.8,26940.8-286.4,26940.8-286.5
						L26940.8-286.5z"/>
				</g>
			</g>
		</g>
	</g>
</g>
</svg>
