<?xml version="1.0" encoding="utf-8"?>
<!-- Generator: Adobe Illustrator 19.2.0, SVG Export Plug-In . SVG Version: 6.00 Build 0)  -->
<svg version="1.1" id="Слой_1" xmlns="http://www.w3.org/2000/svg" xmlns:xlink="http://www.w3.org/1999/xlink" x="0px" y="0px"
	 viewBox="0 0 120 39.3" style="enable-background:new 0 0 120 39.3;" xml:space="preserve">
<style type="text/css">
	.st0{fill:#FFFFFF;}
	.st1{fill:#2E0B01;}
	.st2{opacity:0.55;fill:#2E0B01;enable-background:new    ;}
	.st3{opacity:0.2;enable-background:new    ;}
	.st4{fill:#44A3BC;}
	.st5{fill:#CB242D;}
	.st6{fill:#DC5B2B;}
	.st7{opacity:0.5;}
	.st8{fill:#C5CB79;}
	.st9{fill:#E2001A;}
	.st10{fill:#B70718;}
	.st11{fill:#EFB886;}
	.st12{fill:#BBDBE8;}
	.st13{fill:#50542E;}
	.st14{opacity:0.1091;fill:#FFFFFF;enable-background:new    ;}
	.st15{opacity:0.5;fill:#CB242D;enable-background:new    ;}
	.st16{opacity:0.6;}
	.st17{fill:#EC9488;}
	.st18{fill:none;stroke:#50542E;stroke-linecap:round;stroke-miterlimit:10;}
	.st19{opacity:0.2;fill:#55721A;enable-background:new    ;}
	.st20{fill:#55721A;}
	.st21{fill:none;stroke:#FFFFFF;stroke-miterlimit:10;}
	.st22{fill:none;stroke:#C5CB79;stroke-width:2;stroke-miterlimit:10;}
	.st23{fill:#CDC09E;}
	.st24{opacity:0.1;fill:#44A3BC;}
	.st25{opacity:0.9;}
	.st26{opacity:0.9;fill:#44A3BC;enable-background:new    ;}
	.st27{opacity:0.1091;fill:#44A3BC;enable-background:new    ;}
	.st28{opacity:0.1091;fill:#55721A;enable-background:new    ;}
	.st29{opacity:0.4;}
	.st30{opacity:0.9;fill:#55721A;enable-background:new    ;}
	.st31{opacity:0.4;fill:#55721A;}
	.st32{fill:#D95929;}
	.st33{fill:#F68D1A;}
	.st34{fill:#FFC73B;}
	.st35{fill:#FABC14;}
	.st36{fill:#FCAD17;}
	.st37{fill:none;stroke:#FFFFFF;stroke-width:2;stroke-miterlimit:10;}
	.st38{fill:none;stroke:#44A3BC;stroke-width:20;stroke-miterlimit:10;}
	.st39{fill:none;stroke:#44A3BC;stroke-width:20;stroke-linejoin:round;stroke-miterlimit:10;}
	.st40{fill:none;}
	.st41{fill:#3B5998;}
	.st42{fill:none;stroke:#000000;stroke-width:2;stroke-miterlimit:10;}
	.st43{opacity:0.6;fill:#333333;}
</style>
<g>
	<g id="g3_1_">
		<path id="path5_1_" class="st1" d="M46.1,34.3c-4.5-2.9-10.5-3.4-20.3-0.7c-10.4,2.4-13.9,4-18.4,0.9c-1.8-1.5-2.4-4-1.9-7.6
			c1.1-5.8,4-11.5,9.3-17.7c2.9-3.3,5.6-6,9.2-7.2c2.7-0.7,2.5,1.5,2.1,1.8c-0.3,0-0.9,0.1-1.4,0.3c-0.4,0.3-1.4,1.2-1.4,2.4
			C23.1,8.4,25.1,8,25.9,7c0.9-1.2,2.3-3.4,1.2-5.5c-0.4-0.7-1.2-1.3-2.2-1.4c-3.3-0.2-6.3,1.4-9.1,3.1C9.7,7.4,4.8,13.3,2,19.8
			c-1.6,3.9-3.1,9.5-0.9,14.1c1.7,3.2,5.2,4.8,9.3,4.5c2.9-0.3,6.4-1.2,8.8-1.8c2.4-0.6,14.5-4.8,18.5,2.5c0,0,1.3-2.6,4.6-2.6
			c2.7-0.3,6.7,0.8,9.5,2.9C51.1,37.8,48.4,35.7,46.1,34.3L46.1,34.3z"/>
		<path id="path7_1_" class="st1" d="M27,9.9c-2.3-1.5-6.9,1.4-10.5,6.3c-3.3,4.4-4.8,9.5-3.2,11.8c2.3,2.8,6.7-1.3,8.5-3.4l0.2-0.3
			c1.3-1.3,2.2-3,3.2-4.5c0,0,0.9-1.4,0.9-1.5c0.5-0.1,1.2-0.3,1.9-0.5c0,0-2.8,4.7-2.5,7c0.1,0.7,0,3.3,2.5,4c3.3,0.6,6-2,8.4-4.3
			c0,0,0.4-0.4,0.6-0.6C37,24.1,37,24.4,37,24.4c-1,3.4,0.3,4.1,1.2,4.4c2.5,0.7,5.5-2.9,5.5-2.9c-0.1,1.1-0.3,2.1,0.9,2.8
			c1.1,0.4,2.3-0.2,3.2-0.8c3.1-2.2,5.7-5.7,7.7-8.7h-1.3c0,0-3.2,4.6-5.3,5.7c0,0-0.4,0.2-0.6,0c-0.3-0.2-0.2-0.7,0-1
			c0,0,8-13.9,8-13.9h-3.8c0,0-0.4,0.7-0.4,0.7c0,0-0.1-0.1-0.1-0.2c-2.4-3.3-7.7,1.8-11.7,7.5c-1.5,2.2-3.5,4.7-5.5,6.6
			c0,0-3,2.8-4.3,0.8c-0.5-0.8-0.3-2.1-0.1-2.8c1.5-4.3,4.1-8.1,7-10.5c0.8-0.6,1.7-0.8,2.2-0.6c0.4,0.3,0.5,0.9,0.2,1.3
			c-0.7,0-1.2,0.2-1.7,0.6c-0.9,0.9-1.2,1.8-0.9,2.6c1.4,1.9,4.1-1.9,3.9-4.2c0-0.8-0.5-1.6-1.2-2c-1-0.6-2.5-0.4-3.5,0
			c-1.3,0.5-3.4,2.2-4.6,3.6c-1.5,1.7-4.1,3.5-4.9,3.3C27.1,16.1,29.4,11.5,27,9.9L27,9.9z M45.3,16.5c0.7-1,2.9-3.7,3.4-4.2
			c1.8-1.5,2.5-0.9,2.5-0.4c-1.6,2.9-3.6,6.3-5.4,9.3c0,0-0.6,0.9-0.6,0.9c-0.8,1.2-1.6,2.3-2.9,3c-0.2,0.1-0.5,0.1-0.7-0.1
			c-0.3-0.2-0.3-0.4-0.3-0.7C41.4,23.4,42.4,20.5,45.3,16.5L45.3,16.5z M24.7,18.3c0,0,0,0.1,0,0.1L23,21.1c-1,1.3-2.2,3-3.8,3.8
			c-0.5,0.1-1.1,0.3-1.4-0.1c-0.7-0.8-0.3-2,0-2.9l0.1-0.3c0.8-2.2,2.1-4.2,3.4-6c0,0,0,0,0.1,0c0,0,0,0,0,0
			c0.8,1.5,2.3,2.2,3.4,2.6c0,0,0,0,0,0C24.7,18.1,24.7,18.2,24.7,18.3L24.7,18.3z M26.2,15.1c0,0-0.7,1.7-0.7,1.7
			c-0.1,0.1-0.3,0-0.5,0l-0.3-0.1c-1-0.3-1.8-1-2-1.8c-0.3-1.6,1-2.8,1.6-3.3c0.6-0.4,1.5-0.6,2-0.2c0.3,0.4,0.4,0.9,0.4,1.4
			C26.7,13.6,26.5,14.4,26.2,15.1z"/>
		<path id="path9_1_" class="st1" d="M74.2,20.2c-0.4-0.8-1.2-1.3-2.2-1.2c-3,0.3-5.9,2.7-7.5,6.3c-0.8,1.8-1.2,3.3-1.5,5.7
			c0.9-1.1,2.8-2.8,5-3.8c0,0,0.3-2.3,1.8-4.3c0.6-0.8,1.7-2.2,3-1.8c1.1,0.4,0.7,3.5-0.8,6.4c-1.1,2.2-2.8,4.4-4.5,5.9
			c-1.5,1.3-3.7,2.8-5.7,1.6c-1.2-0.7-1.8-2.2-1.7-4.2c0.6-5.5,3.1-10.3,6.7-15.6c3.7-5,7.8-10.1,13.4-12.9c1.1-0.6,2.2-0.7,3.1-0.3
			c0,0-5.2,2.8-7.7,8.1c-0.6,1.3-1.5,3.1-0.6,4.8c0.5,0.8,1.3,0.9,1.9,0.9c3-0.7,5-3.5,6.6-6.1c0.9-2,1.8-3.9,1.8-6.1
			c0-0.3,0-0.6,0-0.9c1.5-0.8,4.4,0.6,4.4,0.6C92,3.9,97,7.7,98.6,8.4c0.8-0.9,2.1-2.4,2.9-3.1l-1.1-0.7c-1.7-1.1-3.6-2.1-5.4-3.1
			c-4.1-2.2-7.5-1.5-9.2-0.8c-0.7,0.2-1.3,0.4-1.3,0.4c-1.3-1.4-3.3-1.2-4.9-0.9c-5.5,1.6-10.6,5.4-16.1,12.1
			c-4.1,5.2-6.6,9.8-7.9,14.2c-1,3-1.3,7.4,1.2,10c2.1,2.2,4.9,1.7,7,0.9c4.3-2.1,8.2-6.7,10.1-12C74.5,24.1,75,21.9,74.2,20.2
			L74.2,20.2z M84.1,3.7c-0.6,6.6-5.7,10.4-6.9,10.7c-0.8,0.1-2.1-0.2-0.9-2.9C78,7.8,80.9,4.6,84.1,3C84.1,3.3,84.1,3.4,84.1,3.7
			L84.1,3.7z"/>
		<path id="path11_1_" class="st1" d="M114.4,4.5c-2.7,1.6-5.6,2.6-9,2.2c-1,1.1-1.9,2.2-2.7,3.3c4.8,1.2,10-1.5,12.8-4.1
			c3-2.6,4.6-5.9,4.6-5.9S117.7,2.6,114.4,4.5z"/>
		<path id="polygon13_1_" class="st1" d="M62.5,10h-3.6l-2,3.3h3.6L62.5,10z"/>
		<path id="path15_1_" class="st1" d="M105.3,34.6c-0.4,0.3-0.9,0.1-0.7-0.5c0.5-1.5,2.5-4.7,2.5-4.7l5.6-9.9h-3.8
			c-0.2,0.3-0.6,1-0.6,1c-0.2-0.3-0.7-1-0.9-1.1c-0.9-0.6-2.3-0.3-3.3,0.2C100,22,97,26.7,94.6,30.5c0,0-2.5,4.1-3.9,4.4
			c-1.1,0.1-1-1.4-0.9-1.7c0.4-2.5,1.4-4.8,2.4-6.9c2-1.4,4.3-3.2,6.3-5.2c4.5-4.3,8.3-9.1,8.8-10.2c0,0-0.6,0.1-1.3,0.1
			c-3.4,4.8-10.5,11.8-12.7,12.9c0.9-2.3,7.1-13.2,12.3-18.4l0.8-0.8c1.3-1.2,2.6-2.5,3.6-2.7c0.1,0,0.3,0,0.4,0.3
			c0,1-0.3,1.7-0.7,2.5l-0.6,1.2c0,0,0.8-0.1,1.3-0.3c0.6-1.2,1.3-2.5,1.1-4.1c-0.1-0.5-0.4-0.9-0.9-1c-1.6-0.3-3.3,0.9-4.6,1.8
			l-0.1,0c-7,5.5-12.9,13.4-18.1,24.2c-0.4,0.3-1.8,0.6-2.1,0.5c0.5-1,1.2-2.5,1.5-4c0.1-0.4,0.1-0.9,0.1-1.3c0-0.9-0.2-1.8-1.1-2.4
			c-1-0.5-2.2-0.3-3,0.1c-3.7,1.5-6.5,5.3-8.5,8.5c-1.1,2-2.1,4.1-2.4,6.6c-0.2,1.9,0.2,3.1,1.3,3.7c1.1,0.6,2.5,0,3.1-0.3
			c3.7-2,6.4-5.9,8.4-9.6c0.1,0,1.2,0,2.1-0.3c0,0,0,0,0,0c0,0.2-0.5,1.5-0.5,1.5c-1.3,3.8-1.9,6.4-0.7,8c1.8,2.2,4.7-0.1,7.1-3.1
			c-0.5,3.6,1.3,4.1,2.8,3.9c1.6-0.4,3.4-2.2,4.3-3.1c-0.3,1-0.2,2.9,1.3,3.1c1,0.2,1.8-0.4,2.6-0.8c3.1-1.7,6.9-7.4,7.9-9.1h-1.3
			C109.3,30.5,107.6,33.3,105.3,34.6L105.3,34.6z M77.1,34.2c-0.2-0.3-0.3-0.6-0.3-1c0-2.2,2.3-6,3.9-8.1c0.7,1.5,2.2,2.5,3.2,2.9
			C82.8,30.6,78.8,36.1,77.1,34.2L77.1,34.2z M84.6,26.8c-0.1,0.1-2.1-0.6-2.4-2.4c-0.3-1.6,0.7-2.8,1.8-3.4
			c0.4-0.3,1.1-0.5,1.6-0.3c0.4,0.3,0.6,0.9,0.6,1.5c0,0.4,0,0.7-0.1,1.1c0,0,0,0.1,0,0.1C85.7,24.6,85.2,25.8,84.6,26.8L84.6,26.8z
			 M100.3,33.5l-0.4,0.3c-0.5,0.5-1.1,1-1.7,0.7c-0.2-0.1-0.3-0.3-0.3-0.5c0-1.3,0.6-2.6,1.2-3.8l0.1-0.3c1.7-2.8,3.7-6.2,6.6-8.5
			c0.5-0.3,1-0.6,1.6-0.4c0.1,0.1,0.3,0.3,0.3,0.5c0,0.1-0.1,0.2-0.1,0.3c-0.8,1.3-1.6,2.7-2.3,4C103.7,28.5,102.2,31.1,100.3,33.5
			L100.3,33.5z"/>
	</g>
</g>
<g>
	<g id="XMLID_557_" class="st7">
		<g id="XMLID_722_">
			<g id="XMLID_723_">
				<g id="XMLID_724_">
					<path id="XMLID_729_" class="st14" d="M26529.2-150.2c0-3.2,0-6.4,0-9.6c0-1.5,0-3.2,0-4.9c0-3.9,0-8.4,0-13.8c0-1.5,0-3,0-4.4
						c0-4,0-7.9,0-11.9c0-5.3,0-10.5,0-15.8c0-3.8,0-7.5,0-11.1c0-3.7,0-7.3,0-10.7c0-6.9,0-13,0-19s0-11.9,0-18.3
						c0-3.1,0-6.3,0-9.7c0-3.6,0-7.2,0-10.9c0-0.8,0,1,0,0.9c0,0.9,0,2.3,0,3.2c0,2.9,0,5.6,0,8.2c0,1.8,0,3.5,0,5.1
						c0,4.2,0,8.1,0,11.9c0,7.7,0,14.8,0,22.8c0,3.1,0,6.3,0,9.6c0,4.2,0,8.6,0,13.2c0,0-65535,22216.5,0,28.2c0-0.9,0-1.9,0-2.8
						c0,6.4,0,13.2,0,18.3c0,1.8,0,3.5,0,5.1c0,4.2,0,8.1,0,11.9c0,0.2,0,2.1,0,2.3C26529.2-152.5,26529.2-150.2,26529.2-150.2
						L26529.2-150.2z"/>
				</g>
			</g>
		</g>
	</g>
</g>
<g>
	<g id="XMLID_1525_" class="st16">
		<g id="XMLID_1556_">
			<g id="XMLID_1557_">
				<g id="XMLID_1558_">
					<path id="XMLID_1561_" class="st14" d="M26529.2-224.8c0-0.5,0-1.3,0-2.5c0,1.2,0,2.5,0,3.7c0,1.3,0,2.6,0,4c0,0.6,0,1,0,1.2
						c0,2,0,4.4,0,6.4l0,0c0-0.9,0-1.2,0-2.1c0-1.5,0-4.7,0-6.1c0-2.3,0-3.3,0-4.5c0-1.1,0-1.9,0-2.6c0-0.9,0-1.4,0-1.6
						c0,0,0,3.5,0,3.7c0,2.4,0,4.7,0,6.4s0,2.7,0,3.6c0,0,0-3.4,0-3.7c0-7.4,0-15,0-23c0,1.2,0,2.5,0,3.7c0,3.9,0,7.4,0,10.6
						c0,2.2,0,5,0,8.4c0,0.1,0-2,0-1.9c0-0.3,0-1.6,0-1.9c0-3.5,0-7,0-10.9c0-1.5,0-3,0-4.7c0-2.3,0-4.9,0-7.7c0,1.2,0,2.4,0,3.7
						c0,1.5,0,2.9,0,4.3c0,2.8,0,5.1,0,7.1c0,0.1,0-1.3,0-1.5c0-0.5,0-1.9,0-2.2c0-8.5,0-16.6,0-24.6c0-0.3,0,0.9,0,0.9
						c0,0.5,0,2.2,0,2.6c0,0-65535,22257.1,0,11.9c0,0,0-3.4,0-3.7c0-3.3,0-6.9,0-10.7c0-3.7,0-7.5,0-11.6v3.6c0,2.9,0,3.9,0,6.3
						c0,2.8,0,4.5,0,6c0-0.1,0-0.2,0-0.4c0-1.5,0-2.9,0-4.4c0-2.2,0-3.6,0-5.1c0,0.1,0,1.8,0,1.9c0,0.3,0,1.6,0,1.9c0,1,0,1.9,0,2.9
						c0-0.1,0-0.3,0-0.4c0-0.6,0-1.4,0-2.5c0-2.2,0-5.4,0-9.7v1.5c0,0.6,0,1.7,0,2.2c0,4.1,0,8,0,11.6c0,3.8,0,7.4,0,10.7
						c0-1.2,0-2.4,0-3.7c0-0.7,0-1.7,0-3.2c0-2.1,0-5,0-8.5v3.6c0,8,0,16.1,0,24.6c0-1.2,0-2.4,0-3.7c0-3,0-6.8,0-11.5
						c0-0.1,0,1.3,0,1.5c0,0.5,0,1.8,0,2.2c0,4.5,0,8.7,0,12.6c0,3.8,0,7.3,0,10.9c0-1.3,0-2.5,0-3.8s0-2.5,0-3.8c0-1.6,0-3.1,0-4.6
						c0-0.9,0-1.7,0-2.5c0-2.4,0-5.1,0-8.1c0-0.1,0,2,0,1.9c0,0.4,0,1.6,0,1.8c0,8,0,15.6,0,23c0-1.2,0-2.5,0-3.7c0-0.9,0-1.9,0-3.6
						s0-3.9,0-6.4c0,1.2,0,2.5,0,3.7c0,0.7,0,1.7,0,4.2c0,1.6,0,3.3,0,6.2c0-1.1,0-2.3,0-3.4c0,4.7,0,5.4,0,1.9c0-3.9,0-7.6,0-11.1
						v1.9c0,0.3,0,1.6,0,1.9c0,1.1,0,2,0,2.5v-1.9C26529.2-223.1,26529.2-224.7,26529.2-224.8L26529.2-224.8z"/>
				</g>
			</g>
		</g>
	</g>
</g>
</svg>
