<?xml version="1.0" encoding="utf-8"?>
<!-- Generator: Adobe Illustrator 19.2.0, SVG Export Plug-In . SVG Version: 6.00 Build 0)  -->
<svg version="1.1" id="Слой_1" xmlns="http://www.w3.org/2000/svg" xmlns:xlink="http://www.w3.org/1999/xlink" x="0px" y="0px"
	 viewBox="0 0 120 69.9" style="enable-background:new 0 0 120 69.9;" xml:space="preserve">
<style type="text/css">
	.st0{fill:#FFFFFF;}
	.st1{fill:#2E0B01;}
	.st2{opacity:0.55;fill:#2E0B01;enable-background:new    ;}
	.st3{opacity:0.2;enable-background:new    ;}
	.st4{fill:#44A3BC;}
	.st5{fill:#CB242D;}
	.st6{fill:#DC5B2B;}
	.st7{opacity:0.5;}
	.st8{fill:#C5CB79;}
	.st9{fill:#E2001A;}
	.st10{fill:#B70718;}
	.st11{fill:#EFB886;}
	.st12{fill:#BBDBE8;}
	.st13{fill:#50542E;}
	.st14{opacity:0.1091;fill:#FFFFFF;enable-background:new    ;}
	.st15{opacity:0.5;fill:#CB242D;enable-background:new    ;}
	.st16{opacity:0.6;}
	.st17{fill:#EC9488;}
	.st18{fill:none;stroke:#50542E;stroke-linecap:round;stroke-miterlimit:10;}
	.st19{opacity:0.2;fill:#55721A;enable-background:new    ;}
	.st20{fill:#55721A;}
	.st21{fill:none;stroke:#FFFFFF;stroke-miterlimit:10;}
	.st22{fill:none;stroke:#C5CB79;stroke-width:2;stroke-miterlimit:10;}
	.st23{fill:#CDC09E;}
	.st24{opacity:0.1;fill:#44A3BC;}
	.st25{opacity:0.9;}
	.st26{opacity:0.9;fill:#44A3BC;enable-background:new    ;}
	.st27{opacity:0.1091;fill:#44A3BC;enable-background:new    ;}
	.st28{opacity:0.1091;fill:#55721A;enable-background:new    ;}
	.st29{opacity:0.4;}
	.st30{opacity:0.9;fill:#55721A;enable-background:new    ;}
	.st31{opacity:0.4;fill:#55721A;}
	.st32{fill:#D95929;}
	.st33{fill:#F68D1A;}
	.st34{fill:#FFC73B;}
	.st35{fill:#FABC14;}
	.st36{fill:#FCAD17;}
	.st37{fill:none;stroke:#FFFFFF;stroke-width:2;stroke-miterlimit:10;}
	.st38{fill:none;stroke:#44A3BC;stroke-width:20;stroke-miterlimit:10;}
	.st39{fill:none;stroke:#44A3BC;stroke-width:20;stroke-linejoin:round;stroke-miterlimit:10;}
	.st40{fill:none;}
	.st41{fill:#3B5998;}
	.st42{fill:none;stroke:#000000;stroke-width:2;stroke-miterlimit:10;}
	.st43{opacity:0.6;fill:#333333;}
</style>
<g>
	<g id="XMLID_557_" class="st7">
		<g id="XMLID_722_">
			<g id="XMLID_723_">
				<g id="XMLID_724_">
					<path id="XMLID_729_" class="st14" d="M26658.5-395.3c0-3.2,0-6.4,0-9.6c0-1.5,0-3.2,0-4.9c0-3.9,0-8.4,0-13.8c0-1.5,0-3,0-4.4
						c0-4,0-7.9,0-11.9c0-5.3,0-10.5,0-15.8c0-3.8,0-7.5,0-11.1c0-3.7,0-7.3,0-10.7c0-6.9,0-13,0-19s0-11.9,0-18.3
						c0-3.1,0-6.3,0-9.7c0-3.6,0-7.2,0-10.9c0-0.8,0,1,0,0.9c0,0.9,0,2.3,0,3.2c0,2.9,0,5.6,0,8.2c0,1.8,0,3.5,0,5.1
						c0,4.2,0,8.1,0,11.9c0,7.7,0,14.8,0,22.8c0,3.1,0,6.3,0,9.6c0,4.2,0,8.6,0,13.2c0,0-65535,22216.5,0,28.2c0-0.9,0-1.9,0-2.8
						c0,6.4,0,13.2,0,18.3c0,1.8,0,3.5,0,5.1c0,4.2,0,8.1,0,11.9c0,0.2,0,2.1,0,2.3C26658.5-397.6,26658.5-395.3,26658.5-395.3
						L26658.5-395.3z"/>
				</g>
			</g>
		</g>
	</g>
</g>
<g>
	<path class="st1" d="M56.4,0.7c1.6,0.1,3.4,0.2,5.1,0.4c0.5-0.2,1.4-0.8,1.9-1.1l1.1,3.9l1.8-3.2c0.1,0.8,0.5,2.6,0.7,3.4
		c1.1-1.1,2.2-2,3.4-3.1c0,1.2-0.1,3.4-0.1,4.5l5.7-2.1c-0.5,1.2-1.5,3.7-2.1,4.9c0.9,0,2.8-0.1,3.8-0.2c-0.6,0.5-1.6,1.4-2.2,1.9
		c-5.5-3.5-12.5-7.7-19.2-4.5c-4.2,1.6-6.2,6-7.3,10c-1.4-1.4-2.7-2.8-4-4.2c2.4-2,4.2-4.4,5.1-7.3c1.2-0.7,2.4-1.3,3.7-2
		c0.5,0.6,1.5,1.6,2,2.1C55.6,3.3,56.2,1.6,56.4,0.7L56.4,0.7z"/>
	<path class="st1" d="M26.3,11c1.3,1.1,2.5,2.1,3.8,3.2c0.5-0.2,1.5-0.6,2.1-0.8c0.6,1.1,1.1,2.2,1.6,3.3c0.6-0.4,1.6-1.1,2.2-1.4
		c0-0.9,0.1-2.7,0.2-3.5c0.4,0.7,0.9,2,1.3,2.6c0.8-1.2,1.6-2.2,2.5-3.4c0.2,0.5,0.6,1.5,0.8,2c0.5-0.4,1.5-0.9,2-1.3
		c0.2,1.5,0.4,3.2,0.6,4.7c0.6-1.8,0.2-3.9,1.5-5.3c1.3,1.4,2.7,2.8,4,4.2c-1.6,0.5-3.2,0.8-4.8,1.3c0.9,3.2,1.9,6.4,2.7,9.5
		c-0.6-0.2-1.6-0.6-2.1-0.8c0.4,0.6,1.2,1.9,1.6,2.5l-2.2-0.1c-1.4-2-2.6-4.2-3.8-6.4c-2.9-1.1-6-1.5-9.1-2
		c-0.1-1.3-0.1-2.5-0.2-3.8l-3.5,0.7c-0.2-1.3-0.6-2.6-0.8-4C26.5,12.1,26.4,11.3,26.3,11L26.3,11z"/>
	<path class="st1" d="M77.7,19.5c0.4-1.5,0.7-3.1,1.1-4.7c-0.7-0.1-2.1-0.5-2.7-0.6c0.8-0.7,1.6-1.4,2.6-2.1
		c-0.8-0.5-2.6-1.5-3.4-2.1c-5.5-3.7-12.5-7.7-19.2-4.5c-4.2,1.6-6.2,6-7.3,10l-0.1,0.9c0.5,0.5,1.4,1.4,2,1.9
		c0.6-1.5,1.2-3.1,1.9-4.6c0,4.1,0,8.5,1.9,12.4c2.6,2.1,5.7,3.8,8.5,5.7c0.1-1.2,0.4-3.4,0.4-4.5c0.9,2,2,4,2.9,6.1
		c3.9-1.6,9.2-2.8,10.5-7.5c0.5,0.1,1.5,0.4,2,0.6c-0.7-2.7-2.4-4.9-4.2-6.8C75.3,19.5,76.9,19.5,77.7,19.5L77.7,19.5z M61.7,24
		c-3.4-0.9-4.2-6.2-1.6-8.7c2.1-2,4.9-3.2,7.5-4.5c1.9,1.9,3.4,4,4.8,6.2C69.2,20,65.8,23.1,61.7,24z M97.9,13.4
		c0.8-1.5,2-2.9,4-2.7c0.9,2.5,1.3,4.9,1.6,7.5c-4.7,0.1-7.8,3.5-10.6,6.9C90.6,24,83.8,25,86,20.6c1.5-0.2,3.1-0.4,4.7-0.5
		c-1.5-1.8-3.7-4.1-1.3-6.2c1.6,0.6,3.2,1.3,4.8,2c-0.1-1.1-0.2-3.3-0.4-4.4C95.4,12.4,96.7,12.8,97.9,13.4z M105.5,11.5
		c1.4,0.7,2.8,1.3,4.2,2c-0.5,1.2-1.5,3.5-2,4.7c2-0.6,4-1.2,6.1-1.6c0.2,1.3,0.6,2.6,0.8,3.9c-0.9,0.4-2.6,1.2-3.5,1.5
		c1.8,0.8,3.4,1.6,5.2,2.5c-0.4,0.7-0.9,2.1-1.3,2.8c-1.6-0.2-3.2-0.4-4.8-0.6c1.1,1.3,2.4,2.7,2.5,4.5c-1.1,0.1-3.1,0.4-4.1,0.5
		c-0.2,1.2-0.6,2.4-0.9,3.4c-2.8,0.8-6-1.9-4.7-4.8c0.1-2.2,2.9-2.7,3.5-4.7c-0.2-2.5-1.6-4.6-2.8-6.6l3.3,0.5
		c-1.2-0.9-2.2-2.1-3.1-3.3C103.9,14.5,104.9,13.1,105.5,11.5L105.5,11.5z"/>
	<path class="st1" d="M50.6,18.5c0.6-1.5,1.2-3.1,1.9-4.6c0,4.2,0,8.5,1.9,12.4C52.1,24.3,50.4,21.6,50.6,18.5z"/>
	<path class="st1" d="M43.9,16.7c1.6-0.5,3.2-0.8,4.8-1.3l-0.1,0.9c-0.1,2.6-0.1,5.2-0.4,7.8c-0.5,0.6-1.3,1.5-1.8,2.1
		C45.8,23.1,44.9,19.9,43.9,16.7z"/>
	<path class="st1" d="M48.6,16.6c0.5,0.5,1.4,1.4,2,1.9c-0.2,3.2,1.5,5.9,3.8,7.8c2.6,2.1,5.7,3.8,8.5,5.7l1.2,0.7
		c-0.8,0.5-2.4,1.4-3.2,1.9c0.1,3.2,0.2,6.5-0.5,9.7h-0.8c-0.4-4,1.2-8.6-2.2-11.7c-1.5,0.4-3.1,0.8-4.5,1.2
		c-0.8-2.6-1.4-5.5-4.1-6.8c-0.1-0.6-0.2-1.8-0.4-2.4C48.5,21.8,48.5,19.2,48.6,16.6L48.6,16.6z M48.6,28.3
		c-2.7,1.4-5.5,2.7-8.6,2.8c1.3-1.1,2.6-2.1,3.9-3.3c-1.4-2-2.5-4.2-3.8-6.4c-0.5,3.4-1.1,7.8-4.9,9.1c-2.6,0-4.4-1.6-5.9-3.5
		c-0.7-0.8-1.3-1.8-1.9-2.6c1.2-1.5,2.4-3.2,3.5-4.8c-0.1-1.3-0.2-2.5-0.2-3.8l-3.5,0.7c-0.2-1.3-0.6-2.6-0.8-3.9
		c-0.5,2.2-0.7,4.5-0.8,6.7c-0.7,0.2-2.1,0.6-2.8,0.8c-0.2,2.5,2,4.1,3.3,6c-1.5,0.5-3.1,0.8-4.6,1.2c0.9,1.5,1.8,3.1,2.9,4.4
		c1.2,0,2.4-0.1,3.7-0.2c-0.1,0.6-0.4,1.6-0.5,2.1c3.4,0.4,7.2-0.1,10.1,2.2c-0.1,3.8-0.1,7.5,0.1,11.3c0.4-0.5,0.9-1.3,1.3-1.8
		c0.5-3.8,0-7.5-0.2-11.3c0.8,0,2.5-0.1,3.3-0.1C44.3,32,46.4,30.1,48.6,28.3L48.6,28.3z M107.8,21.2 M86.8,27.7
		c2.6-2.8,6.5-2.4,10-2.4l-0.9,1.2c1.8,0.9,3.7,1.9,4.9,3.4c1.9,4.4,0.6,9.7,0.7,14.4c-0.2-0.1-0.8-0.2-1.1-0.2
		c-0.2-2.6-0.1-5.2,0-7.7c-0.8-0.2-2.4-0.6-3.2-0.8c-0.1-1.5-0.4-2.9-0.5-4.5c-1.3,1.8-3.5,4.6-6,2.8l-0.5-3.8
		c-0.5,0.4-1.4,1.2-1.9,1.5C88.1,30.5,87.3,28.6,86.8,27.7L86.8,27.7z M85.3,25.7c-2.1-0.6-4.1-1.3-6.2-1.9c0,0.8-0.1,2.4-0.2,3.2
		c-1.3,1.1-2.6,2.1-3.7,3.4c0.1,1.9,0.5,3.7,0.7,5.4c1.3,0.6,2.7,1.1,4,1.6c-0.2,2.4-0.6,4.6-0.9,6.9c-0.8,0.1-2.4,0.2-3.1,0.2
		c1.3,0.6,2.5,1.1,3.8,1.5c0.1,0.4,0.2,1.2,0.4,1.5c0-3.4,0.1-6.8,0.4-10.2c2.2-1.2,4.4-2.2,6.4-3.8C86.2,31,85.7,28.3,85.3,25.7
		L85.3,25.7z M77.1,33.2c-0.4-2.6,2-4.7,4.4-5.3c1.6,0.5,2.4,2.2,3.5,3.4C82.7,32.9,80,35,77.1,33.2z"/>
	<path class="st1" d="M25.2,36.5c2.6,0.4,7.1-0.6,7.5,3.1c0.7,9.7-0.7,19.4,0.7,29.1c-2.1,0-4.4,0-6.5-0.1
		C25.2,57.9,28.1,47,25.2,36.5z M82,38.2c2.2,0.4,4.7,0,6.8,1.2c0.9,1.8,0.9,3.8,1.4,5.7c2-0.1,4-0.2,6.1-0.5
		c-0.1,1.2-0.2,3.4-0.2,4.5c-2.1,0-4.1,0.1-6.2,0.1c0,2.2,0,4.6-0.1,6.8c-0.6-0.6-1.3-1.2-1.9-1.8c-1.5,1.1-2.9,2.1-4.5,3.2
		C83.1,51,84,44.4,82,38.2z"/>
	<path class="st1" d="M19.9,37C13.8,33.9,6.6,34.7,0,35.1C2.1,45.6-0.4,56.4,1.1,67c1.5,2.8,5.2,1.6,7.8,2
		c-1.6-4.2-1.4-8.7-1.4-13.2c4.1,0,8.5,0.4,12.2-1.6C26,50.9,26.5,40,19.9,37L19.9,37z M16.6,49.9c-2,2.4-5.4,1.8-8.2,2
		c0-4.5,0.1-8.8,0.1-13.3c2.8,0.4,6.2-0.2,8.2,2.2S18.7,47.5,16.6,49.9L16.6,49.9z M39,45.3c3.7-1.5,7.8-1.6,11.7-0.9
		c2.8,0.5,5.2,2.7,5.5,5.7c0.6,4.7,0,9.5,0.2,14.2c-0.8-2.4-1.1-4.9-2.7-6.8c-3.2-2.2-7.1-3.1-10.8-3.9l-0.7-0.1
		c2.7-0.1,5.4-0.1,8.1,0c-0.8-1.8-0.9-4.6-3.3-4.9c-4-1.1-7.7,1.3-11,3.3c0.5-1.6,0.5-3.4,1.5-4.8C38,46.6,38.6,45.8,39,45.3
		L39,45.3z M57.9,44h2.5c2.2-0.2,4,1.2,5.5,2.6c2.9-1.5,6.2-3.5,9.7-2c1.3,0.6,2.5,1.1,3.8,1.5c-1.6,1.6-3.3,3.2-5.1,4.8
		c-2.4-2.6-6.1-2-8.5,0.1c-1.5,1.1-2.9,2.2-4.4,3.4l-2.1-6C58.9,47,58.4,45.5,57.9,44L57.9,44z"/>
	<path class="st1" d="M79.3,46.3c0.1,0.4,0.2,1.2,0.4,1.5c1.9,6.9,0,14.2,1.3,21.3c-2.1-0.1-4.5,0.1-6.5-0.6
		c-1.1-5.8-0.4-11.7-0.4-17.4C76,49.5,77.6,47.8,79.3,46.3z M59.4,48.4l2.1,6c1.4-1.2,2.9-2.2,4.4-3.4c0.1,5.9-0.5,11.9,0.6,17.8
		c-2.1,0-4.4-0.1-6.5-0.1C58.8,62.1,59.6,55.2,59.4,48.4z M87.7,54.2c0.6,0.6,1.3,1.2,1.9,1.8c0.1,2.9-0.4,6.1,0.6,8.8
		c2.1,0.7,4.1-0.5,6.1-0.8c0.2,6.1-8.2,7.1-11.8,3.9c-2.1-3.1-1.2-7.1-1.4-10.6C84.7,56.3,86.2,55.2,87.7,54.2L87.7,54.2z
		 M56.4,64.3c-0.8-2.4-1.1-4.9-2.7-6.8c-3.2-2.2-7.1-3.1-10.8-3.9c-5.9,0.1-10.7,6.8-7.4,12.1c3.1,4.8,9.9,3.8,14.2,1.5
		c2.2,1.9,5.1,2.1,8,2C57.4,67.6,56.9,65.9,56.4,64.3z M42.9,64.7c-2.6-1.2-2.5-5.1-0.2-6.6c2.1-1.5,4.9-0.9,7.4-1.1
		c0,2.1,0.1,4.1,0.1,6.2C47.8,64.3,45.3,65.8,42.9,64.7L42.9,64.7z M118.5,50.6c-0.4-3.8-4.1-5.9-7.7-6.1c-3.3-0.1-7.2-0.2-9.9,1.9
		c-1.9,1.4-1.8,3.9-2.4,6c3.2-2.1,6.9-4.4,11-3.3c2.4,0.5,2.4,3.2,3.2,4.9c-4.2-0.1-9.1-0.6-12.6,2.1c-4.1,2.8-4.4,10.1,0.2,12.5
		c3.8,2,8.1,0.8,11.8-0.8c2.2,1.9,5.1,2.1,7.9,2C117.8,63.7,119.3,57,118.5,50.6L118.5,50.6z M105.3,65.2c-2.7-1.1-2.6-5.3-0.2-6.7
		c2.1-1.4,4.8-0.8,7.2-0.9c0,2.1,0.1,4.1,0.1,6.2C110.2,64.8,107.8,66.4,105.3,65.2z"/>
</g>
<g>
	<g id="XMLID_1525_" class="st16">
		<g id="XMLID_1556_">
			<g id="XMLID_1557_">
				<g id="XMLID_1558_">
					<path id="XMLID_1561_" class="st14" d="M26658.5-469.9c0-0.5,0-1.3,0-2.5c0,1.2,0,2.5,0,3.7c0,1.3,0,2.6,0,4c0,0.6,0,1,0,1.2
						c0,2,0,4.4,0,6.4l0,0c0-0.9,0-1.2,0-2.1c0-1.5,0-4.7,0-6.1c0-2.3,0-3.3,0-4.5c0-1.1,0-1.9,0-2.6c0-0.9,0-1.4,0-1.6
						c0,0,0,3.5,0,3.7c0,2.4,0,4.7,0,6.4s0,2.7,0,3.6c0,0,0-3.4,0-3.7c0-7.4,0-15,0-23c0,1.2,0,2.5,0,3.7c0,3.9,0,7.4,0,10.6
						c0,2.2,0,5,0,8.4c0,0.1,0-2,0-1.9c0-0.3,0-1.6,0-1.9c0-3.5,0-7,0-10.9c0-1.5,0-3,0-4.7c0-2.3,0-4.9,0-7.7c0,1.2,0,2.4,0,3.7
						c0,1.5,0,2.9,0,4.3c0,2.8,0,5.1,0,7.1c0,0.1,0-1.3,0-1.5c0-0.5,0-1.9,0-2.2c0-8.5,0-16.6,0-24.6c0-0.3,0,0.9,0,0.9
						c0,0.5,0,2.2,0,2.6c0,0-65535,22257.1,0,11.9c0,0,0-3.4,0-3.7c0-3.3,0-6.9,0-10.7c0-3.7,0-7.5,0-11.6v3.6c0,2.9,0,3.9,0,6.3
						c0,2.8,0,4.5,0,6c0-0.1,0-0.2,0-0.4c0-1.5,0-2.9,0-4.4c0-2.2,0-3.6,0-5.1c0,0.1,0,1.8,0,1.9c0,0.3,0,1.6,0,1.9c0,1,0,1.9,0,2.9
						c0-0.1,0-0.3,0-0.4c0-0.6,0-1.4,0-2.5c0-2.2,0-5.4,0-9.7v1.5c0,0.6,0,1.7,0,2.2c0,4.1,0,8,0,11.6c0,3.8,0,7.4,0,10.7
						c0-1.2,0-2.4,0-3.7c0-0.7,0-1.7,0-3.2c0-2.1,0-5,0-8.5v3.6c0,8,0,16.1,0,24.6c0-1.2,0-2.4,0-3.7c0-3,0-6.8,0-11.5
						c0-0.1,0,1.3,0,1.5c0,0.5,0,1.8,0,2.2c0,4.5,0,8.7,0,12.6c0,3.8,0,7.3,0,10.9c0-1.3,0-2.5,0-3.8c0-1.3,0-2.5,0-3.8
						c0-1.6,0-3.1,0-4.6c0-0.9,0-1.7,0-2.5c0-2.4,0-5.1,0-8.1c0-0.1,0,2,0,1.9c0,0.4,0,1.6,0,1.8c0,8,0,15.6,0,23c0-1.2,0-2.5,0-3.7
						c0-0.9,0-1.9,0-3.6c0-1.7,0-3.9,0-6.4c0,1.2,0,2.5,0,3.7c0,0.7,0,1.7,0,4.2c0,1.6,0,3.3,0,6.2c0-1.1,0-2.3,0-3.4
						c0,4.7,0,5.4,0,1.9c0-3.9,0-7.6,0-11.1v1.9c0,0.3,0,1.6,0,1.9c0,1.1,0,2,0,2.5v-1.9C26658.5-468.2,26658.5-469.8,26658.5-469.9
						L26658.5-469.9z"/>
				</g>
			</g>
		</g>
	</g>
</g>
</svg>
