<?xml version="1.0" encoding="utf-8"?>
<!-- Generator: Adobe Illustrator 19.2.0, SVG Export Plug-In . SVG Version: 6.00 Build 0)  -->
<svg version="1.1" id="Слой_1" xmlns="http://www.w3.org/2000/svg" xmlns:xlink="http://www.w3.org/1999/xlink" x="0px" y="0px"
	 viewBox="0 0 120 54.7" style="enable-background:new 0 0 120 54.7;" xml:space="preserve">
<style type="text/css">
	.st0{fill:#FFFFFF;}
	.st1{fill:#2E0B01;}
	.st2{opacity:0.55;fill:#2E0B01;enable-background:new    ;}
	.st3{opacity:0.2;enable-background:new    ;}
	.st4{fill:#44A3BC;}
	.st5{fill:#CB242D;}
	.st6{fill:#DC5B2B;}
	.st7{opacity:0.5;}
	.st8{fill:#C5CB79;}
	.st9{fill:#E2001A;}
	.st10{fill:#B70718;}
	.st11{fill:#EFB886;}
	.st12{fill:#BBDBE8;}
	.st13{fill:#50542E;}
	.st14{opacity:0.1091;fill:#FFFFFF;enable-background:new    ;}
	.st15{opacity:0.5;fill:#CB242D;enable-background:new    ;}
	.st16{opacity:0.6;}
	.st17{fill:#EC9488;}
	.st18{fill:none;stroke:#50542E;stroke-linecap:round;stroke-miterlimit:10;}
	.st19{opacity:0.2;fill:#55721A;enable-background:new    ;}
	.st20{fill:#55721A;}
	.st21{fill:none;stroke:#FFFFFF;stroke-miterlimit:10;}
	.st22{fill:none;stroke:#C5CB79;stroke-width:2;stroke-miterlimit:10;}
	.st23{fill:#CDC09E;}
	.st24{opacity:0.1;fill:#44A3BC;}
	.st25{opacity:0.9;}
	.st26{opacity:0.9;fill:#44A3BC;enable-background:new    ;}
	.st27{opacity:0.1091;fill:#44A3BC;enable-background:new    ;}
	.st28{opacity:0.1091;fill:#55721A;enable-background:new    ;}
	.st29{opacity:0.4;}
	.st30{opacity:0.9;fill:#55721A;enable-background:new    ;}
	.st31{opacity:0.4;fill:#55721A;}
	.st32{fill:#D95929;}
	.st33{fill:#F68D1A;}
	.st34{fill:#FFC73B;}
	.st35{fill:#FABC14;}
	.st36{fill:#FCAD17;}
	.st37{fill:none;stroke:#FFFFFF;stroke-width:2;stroke-miterlimit:10;}
	.st38{fill:none;stroke:#44A3BC;stroke-width:20;stroke-miterlimit:10;}
	.st39{fill:none;stroke:#44A3BC;stroke-width:20;stroke-linejoin:round;stroke-miterlimit:10;}
	.st40{fill:none;}
	.st41{fill:#3B5998;}
	.st42{fill:none;stroke:#000000;stroke-width:2;stroke-miterlimit:10;}
	.st43{opacity:0.6;fill:#333333;}
</style>
<g>
	<g id="layer1_3_" transform="translate(-168.087 -840.902)">
		<g id="g8219_1_" transform="matrix(20.3509 0 0 -20.3509 -9976.678 17563.833)">
			<path class="st1" d="M501.8,821.7c-0.1,0-0.4,0-0.6,0c-0.2,0-0.3-0.4-0.6-0.5c-0.3-0.1-0.8,0.4-1.2,0.2c-0.5-0.2-0.9-0.6-0.9-1
				c0-0.9,1.6-1.3,2.9-1.3c1.3,0,2.9,0.4,2.9,1.3C504.4,821.2,502.8,821.7,501.8,821.7L501.8,821.7z M501.4,819.1
				c-1.3,0-2.5,0.5-2.5,1.2c0,0.5,0.6,0.9,0.8,1c0.4,0.2,0.7-0.4,1-0.3c0.2,0.1,0.6,0.5,0.8,0.6c0.2,0.1,0.7,0,0.9,0
				c0.4-0.1,1.5-0.5,1.5-1.2C503.9,819.5,502.6,819.1,501.4,819.1L501.4,819.1z"/>
			<g id="g8237_1_" transform="translate(513.808 817.588)">
				<path id="path8239_1_" class="st1" d="M-10.4,2.9C-10.4,2.9-10.4,2.9-10.4,2.9C-10.4,2.9-10.4,3-10.4,2.9
					c0.1,0.1,0.1,0.1,0.2,0.1c0,0,0,0,0-0.1S-10.3,2.8-10.4,2.9C-10.4,2.8-10.4,2.8-10.4,2.9C-10.4,2.8-10.4,2.9-10.4,2.9
					 M-10.3,2.8C-10.3,2.8-10.3,2.8-10.3,2.8C-10.2,2.8-10.2,2.8-10.3,2.8c0.1,0.1,0.1,0.2,0.1,0.2c0,0,0,0-0.1,0
					C-10.4,3-10.4,2.9-10.3,2.8C-10.4,2.8-10.4,2.8-10.3,2.8C-10.4,2.8-10.4,2.8-10.3,2.8"/>
			</g>
			<g id="g8241_1_" transform="translate(513.927 817.765)">
				<path id="path8243_1_" class="st1" d="M-10.5,2.7V2.6h0L-10.5,2.7L-10.5,2.7L-10.5,2.7L-10.5,2.7L-10.5,2.7L-10.5,2.7z
					 M-10.4,2.7C-10.4,2.7-10.4,2.7-10.4,2.7C-10.4,2.7-10.4,2.7-10.4,2.7C-10.4,2.7-10.4,2.7-10.4,2.7L-10.4,2.7L-10.4,2.7"/>
			</g>
			<g id="g8245_1_" transform="translate(505.722 816.866)">
				<path id="path8247_1_" class="st1" d="M-5,3.3c-0.1,0-0.2-0.1-0.2-0.1C-5.2,3.1-5,3.1-5,3.3L-5,3.3 M-5,3.1C-5,3.1-5.1,3-5.3,3
					c0,0-0.2,0-0.2,0.2C-5.5,3.4-5,3.4-5,3.4c0,0,0,0.2-0.1,0.2c-0.1,0-0.1-0.1-0.2-0.2c-0.1-0.1-0.2,0-0.1,0.1
					C-5.3,3.7-5,3.7-5,3.7c0.2,0,0.3-0.1,0.3-0.2V3.1c0,0,0-0.1,0.1-0.1c0,0,0-0.1,0-0.1h-0.2C-4.9,3-5,3.1-5,3.1"/>
			</g>
			<g id="g8249_1_" transform="translate(509.736 815.762)">
				<path id="path8251_1_" class="st1" d="M-7.7,4.1c0,0-0.3,0.6-0.3,0.6c0,0,0,0-0.1,0c-0.1,0,0,0.1,0,0.1h0.5c0.1,0,0-0.1,0-0.1
					s-0.1,0-0.1,0c0-0.1,0.1-0.3,0.1-0.3l0.1,0.3c0,0,0,0-0.1,0.1c-0.1,0,0,0.1,0,0.1h0.3c0.1,0,0.1-0.1,0-0.1c0,0-0.1,0-0.1-0.1
					S-7.6,4.1-7.7,4.1C-7.6,4.1-7.7,4.1-7.7,4.1"/>
			</g>
			<g id="g8253_1_" transform="translate(512.087 817.178)">
				<path id="path8255_1_" class="st1" d="M-9.3,3.1C-9.3,3.1-9.3,3.1-9.3,3.1l0.2,0c0,0,0,0,0,0s0,0.1-0.1,0.1
					C-9.2,3.3-9.3,3.2-9.3,3.1 M-9.1,2.8c0.1,0,0.2,0,0.3,0.1c0,0,0.1,0,0,0C-8.9,2.7-9,2.7-9.1,2.8c-0.7-0.1-0.6,0.6,0,0.6
					c0.3,0,0.4-0.2,0.4-0.3S-8.8,3-8.8,3h-0.5C-9.3,2.9-9.2,2.8-9.1,2.8"/>
			</g>
			<g id="g8257_1_" transform="translate(503.983 818.089)">
				<path id="path8259_1_" class="st1" d="M-3.8,2.5C-3.7,2.3-4,2.3-4,2.5c0,0,0,0.1,0,0.1c0,0.1-0.1,0.1-0.1,0.1
					c-0.2,0-0.4-0.7,0-0.8C-4.1,1.9-4,2-3.9,2c0,0,0.1,0,0.1-0.1c-0.1-0.2-0.3-0.2-0.4-0.2c-0.6,0-0.7,0.9,0,1
					C-4.1,2.8-3.9,2.7-3.8,2.5"/>
			</g>
			<g id="g8261_1_" transform="translate(508.474 815.992)">
				<path id="path8263_1_" class="st1" d="M-6.8,3.9C-6.9,3.9-6.9,4-6.8,3.9l-0.1,0.9c0,0.1,0,0,0,0l-0.3-0.1c0,0,0-0.1,0-0.1
					c0.1,0,0.1,0,0.1,0V4c0-0.1-0.1-0.1-0.1-0.1s0-0.1,0-0.1L-6.8,3.9C-6.8,3.9-6.8,3.9-6.8,3.9"/>
			</g>
			<g id="g8265_1_" transform="translate(512.103 818.405)">
				<path id="path8267_1_" class="st1" d="M-9.3,2.3c0,0,0.2,0.2,0.4,0.2c0.1,0,0.1,0,0.2-0.1c0-0.1,0-0.1-0.1-0.1
					c-0.1,0-0.2,0-0.3-0.1C-9.2,2.3-9.3,2.2-9.3,2.3"/>
			</g>
		</g>
	</g>
</g>
<g>
	<g id="XMLID_557_" class="st7">
		<g id="XMLID_722_">
			<g id="XMLID_723_">
				<g id="XMLID_724_">
					<path id="XMLID_729_" class="st14" d="M26933.4-562.4c0-3.2,0-6.4,0-9.6c0-1.5,0-3.2,0-4.9c0-3.9,0-8.4,0-13.8c0-1.5,0-3,0-4.4
						c0-4,0-7.9,0-11.9c0-5.3,0-10.5,0-15.8c0-3.8,0-7.5,0-11.1c0-3.7,0-7.3,0-10.7c0-6.9,0-13,0-19s0-11.9,0-18.3
						c0-3.1,0-6.3,0-9.7c0-3.6,0-7.2,0-10.9c0-0.8,0,1,0,0.9c0,0.9,0,2.3,0,3.2c0,2.9,0,5.6,0,8.2c0,1.8,0,3.5,0,5.1
						c0,4.2,0,8.1,0,11.9c0,7.7,0,14.8,0,22.8c0,3.1,0,6.3,0,9.6c0,4.2,0,8.6,0,13.2c0,0-65535,22216.5,0,28.2c0-0.9,0-1.9,0-2.8
						c0,6.4,0,13.2,0,18.3c0,1.8,0,3.5,0,5.1c0,4.2,0,8.1,0,11.9c0,0.2,0,2.1,0,2.3C26933.4-564.7,26933.4-562.4,26933.4-562.4
						L26933.4-562.4z"/>
				</g>
			</g>
		</g>
	</g>
</g>
<g>
	<g id="XMLID_1525_" class="st16">
		<g id="XMLID_1556_">
			<g id="XMLID_1557_">
				<g id="XMLID_1558_">
					<path id="XMLID_1561_" class="st14" d="M26933.4-637c0-0.5,0-1.3,0-2.5c0,1.2,0,2.5,0,3.7c0,1.3,0,2.6,0,4c0,0.6,0,1,0,1.2
						c0,2,0,4.4,0,6.4l0,0c0-0.9,0-1.2,0-2.1c0-1.5,0-4.7,0-6.1C26933.4-634.7,26933.4-635.7,26933.4-637c0-1,0-1.8,0-2.5
						c0-0.9,0-1.4,0-1.6c0,0,0,3.5,0,3.7c0,2.4,0,4.7,0,6.4s0,2.7,0,3.6c0,0,0-3.4,0-3.7c0-7.4,0-15,0-23c0,1.2,0,2.5,0,3.7
						c0,3.9,0,7.4,0,10.6c0,2.2,0,5,0,8.4c0,0.1,0-2,0-1.9c0-0.3,0-1.6,0-1.9c0-3.5,0-7,0-10.9c0-1.5,0-3,0-4.7c0-2.3,0-4.9,0-7.7
						c0,1.2,0,2.4,0,3.7c0,1.5,0,2.9,0,4.3c0,2.8,0,5.1,0,7.1c0,0.1,0-1.3,0-1.5c0-0.5,0-1.9,0-2.2c0-8.5,0-16.6,0-24.6
						c0-0.3,0,0.9,0,0.9c0,0.5,0,2.2,0,2.6c0,0-65535,22257.1,0,11.9c0,0,0-3.4,0-3.7c0-3.3,0-6.9,0-10.7c0-3.7,0-7.5,0-11.6v3.6
						c0,2.9,0,3.9,0,6.3c0,2.8,0,4.5,0,6c0-0.1,0-0.2,0-0.4c0-1.5,0-2.9,0-4.4c0-2.2,0-3.6,0-5.1c0,0.1,0,1.8,0,1.9
						c0,0.3,0,1.6,0,1.9c0,1,0,1.9,0,2.9c0-0.1,0-0.3,0-0.4c0-0.6,0-1.4,0-2.5c0-2.2,0-5.4,0-9.7v1.5c0,0.6,0,1.7,0,2.2
						c0,4.1,0,8,0,11.6c0,3.8,0,7.4,0,10.7c0-1.2,0-2.4,0-3.7c0-0.7,0-1.7,0-3.2c0-2.1,0-5,0-8.5v3.6c0,8,0,16.1,0,24.6
						c0-1.2,0-2.4,0-3.7c0-3,0-6.8,0-11.5c0-0.1,0,1.3,0,1.5c0,0.5,0,1.8,0,2.2c0,4.5,0,8.7,0,12.6c0,3.8,0,7.3,0,10.9
						c0-1.3,0-2.5,0-3.8s0-2.5,0-3.8c0-1.6,0-3.1,0-4.6c0-0.9,0-1.7,0-2.5c0-2.4,0-5.1,0-8.1c0-0.1,0,2,0,1.9c0,0.4,0,1.6,0,1.8
						c0,8,0,15.6,0,23c0-1.2,0-2.5,0-3.7c0-0.9,0-1.9,0-3.6s0-3.9,0-6.4c0,1.2,0,2.5,0,3.7c0,0.7,0,1.7,0,4.2c0,1.6,0,3.3,0,6.2
						c0-1.1,0-2.3,0-3.4c0,4.7,0,5.4,0,1.9c0-3.9,0-7.6,0-11.1v1.9c0,0.3,0,1.6,0,1.9c0,1.1,0,2,0,2.5v-1.9
						C26933.4-635.3,26933.4-636.9,26933.4-637L26933.4-637z"/>
				</g>
			</g>
		</g>
	</g>
</g>
</svg>
