<?xml version="1.0" encoding="utf-8"?>
<!-- Generator: Adobe Illustrator 19.2.0, SVG Export Plug-In . SVG Version: 6.00 Build 0)  -->
<svg version="1.1" id="Слой_1" xmlns="http://www.w3.org/2000/svg" xmlns:xlink="http://www.w3.org/1999/xlink" x="0px" y="0px"
	 viewBox="0 0 120 55.4" style="enable-background:new 0 0 120 55.4;" xml:space="preserve">
<style type="text/css">
	.st0{fill:#FFFFFF;}
	.st1{fill:#2E0B01;}
	.st2{opacity:0.55;fill:#2E0B01;enable-background:new    ;}
	.st3{opacity:0.2;enable-background:new    ;}
	.st4{fill:#44A3BC;}
	.st5{fill:#CB242D;}
	.st6{fill:#DC5B2B;}
	.st7{opacity:0.5;}
	.st8{fill:#C5CB79;}
	.st9{fill:#E2001A;}
	.st10{fill:#B70718;}
	.st11{fill:#EFB886;}
	.st12{fill:#BBDBE8;}
	.st13{fill:#50542E;}
	.st14{opacity:0.1091;fill:#FFFFFF;enable-background:new    ;}
	.st15{opacity:0.5;fill:#CB242D;enable-background:new    ;}
	.st16{opacity:0.6;}
	.st17{fill:#EC9488;}
	.st18{fill:none;stroke:#50542E;stroke-linecap:round;stroke-miterlimit:10;}
	.st19{opacity:0.2;fill:#55721A;enable-background:new    ;}
	.st20{fill:#55721A;}
	.st21{fill:none;stroke:#FFFFFF;stroke-miterlimit:10;}
	.st22{fill:none;stroke:#C5CB79;stroke-width:2;stroke-miterlimit:10;}
	.st23{fill:#CDC09E;}
	.st24{opacity:0.1;fill:#44A3BC;}
	.st25{opacity:0.9;}
	.st26{opacity:0.9;fill:#44A3BC;enable-background:new    ;}
	.st27{opacity:0.1091;fill:#44A3BC;enable-background:new    ;}
	.st28{opacity:0.1091;fill:#55721A;enable-background:new    ;}
	.st29{opacity:0.4;}
	.st30{opacity:0.9;fill:#55721A;enable-background:new    ;}
	.st31{opacity:0.4;fill:#55721A;}
	.st32{fill:#D95929;}
	.st33{fill:#F68D1A;}
	.st34{fill:#FFC73B;}
	.st35{fill:#FABC14;}
	.st36{fill:#FCAD17;}
	.st37{fill:none;stroke:#FFFFFF;stroke-width:2;stroke-miterlimit:10;}
	.st38{fill:none;stroke:#44A3BC;stroke-width:20;stroke-miterlimit:10;}
	.st39{fill:none;stroke:#44A3BC;stroke-width:20;stroke-linejoin:round;stroke-miterlimit:10;}
	.st40{fill:none;}
	.st41{fill:#3B5998;}
	.st42{fill:none;stroke:#000000;stroke-width:2;stroke-miterlimit:10;}
	.st43{opacity:0.6;fill:#333333;}
</style>
<g>
	<path class="st1" d="M34,16.8c-0.1-0.4-0.2-0.7-0.2-1c0-0.2-0.1-0.2-0.1-0.4c0-0.1,0-0.2-0.1-0.3c0,0.1,0,0.2-0.1,0.3
		c0,0.2-0.1,0.2-0.1,0.4v0.2c-0.1,0.3-0.1,0.6-0.2,1c-0.1,0.3-0.1,0.6-0.2,1l-1.6,7h4.3l-1.6-7C34.1,17.5,34,17.1,34,16.8L34,16.8z
		 M74.8,21.4c-0.1-1-0.3-1.9-0.6-2.7c-0.3-0.9-0.8-1.5-1.4-2c-0.2-0.1-0.3-0.2-0.5-0.3l-0.5-0.2C71.5,16,71.4,16,71.2,16
		s-0.3-0.1-0.5-0.1c-0.9,0-1.6,0.3-2.3,1c-0.7,0.7-1.2,1.6-1.4,2.8c0,0.1,0,0.1-0.1,0.2v0.2c-0.1,0.2-0.1,0.4-0.2,0.6
		c0,0.2-0.1,0.4-0.1,0.6c0,0.2,0,0.3-0.1,0.5v1c0.1,1.2,0.3,2.3,0.8,3.3c0.5,1,1.1,1.8,2,2.1c0.1,0.1,0.2,0.1,0.3,0.1
		c0.1,0,0.2,0.1,0.3,0.1s0.2,0.1,0.3,0.1h0.3c0.9,0,1.7-0.3,2.3-1c0.7-0.6,1.2-1.6,1.5-2.8c0.1-0.2,0.1-0.5,0.2-0.6
		c0.1-0.2,0.1-0.5,0.1-0.7c0-0.2,0-0.3,0.1-0.5v-0.4V22C74.8,21.7,74.8,21.6,74.8,21.4L74.8,21.4z M18.8,19.2
		c-0.2-0.8-0.6-1.4-1.1-1.9c-0.3-0.4-0.7-0.6-1.1-0.8c-0.4-0.2-0.9-0.2-1.3-0.2h-0.5l-1,0.1v11.5c0.1,0,0.1,0.1,0.2,0.1
		c0.2,0,0.3,0.1,0.5,0.1h0.5c0.2,0,0.4,0,0.6-0.1c0.4-0.1,0.8-0.2,1.3-0.3c0.4-0.2,0.8-0.4,1.1-0.7c0.6-0.5,1-1.2,1.2-2.1
		c0.2-0.9,0.4-1.8,0.4-2.7v-0.2v-0.2C19.2,20.8,19,20,18.8,19.2L18.8,19.2z"/>
	<path class="st1" d="M115.9,4.3L59.3,0L4.1,4.3C1.9,4.4,0,6.5,0,9.2v36.9c0,2.7,1.9,4.7,4.1,4.9l15.6,1.2
		c36.4-1.7,31.6-18.2,79-13.8c-20.9,2.1-37.4,10.7-50.5,16.1l11,0.9l56.6-4.3c2.3-0.2,4.1-2.3,4.1-4.9V9.3
		C120,6.5,118.1,4.4,115.9,4.3L115.9,4.3z M23.6,22.1v0.5c-0.1,1.5-0.3,3.1-0.8,4.5c-0.5,1.4-1.2,2.7-2.3,3.5
		c-0.8,0.7-1.6,1.2-2.5,1.4c-0.9,0.2-1.9,0.4-2.7,0.5h-1.5c-1.4-0.1-2.9-0.3-4.3-0.9V12.3c1.5-0.4,3-0.7,4.6-0.7h1.4
		c0.9,0.1,1.8,0.2,2.7,0.5c0.9,0.2,1.7,0.7,2.4,1.4c1,0.9,1.6,2,2.2,3.4c0.5,1.4,0.8,2.9,0.9,4.3L23.6,22.1L23.6,22.1z M37.5,32.7
		l-0.8-3.8h-6.1l-0.8,3.8h-4.3l5.4-21h5.4l5.5,21H37.5L37.5,32.7z M60,32.2l-4.1,0.5l-6-10.9c-0.2-0.2-0.3-0.6-0.5-1
		c-0.2-0.3-0.3-0.7-0.4-1.1c-0.1-0.3-0.2-0.6-0.2-0.8c-0.1-0.2-0.2-0.6-0.2-0.8c0.1,0.6,0.2,1.4,0.2,2.1c0.1,0.7,0.1,1.4,0.1,2.1
		v10.4h-4.2V11.9l4.2-0.3l6,10.8c0.2,0.3,0.3,0.6,0.4,1c0.2,0.3,0.2,0.6,0.4,1c0.1,0.2,0.2,0.6,0.3,0.9c0.1,0.2,0.2,0.6,0.3,0.8
		c0-0.2-0.1-0.5-0.1-0.6c0-0.2-0.1-0.5-0.1-0.7c0-0.4-0.1-0.9-0.1-1.4V11.6H60V32.2z M79.1,23c0,0.2,0,0.5-0.1,0.6
		c0,0.5-0.1,1-0.2,1.4c-0.1,0.5-0.2,0.9-0.3,1.3c-0.7,2.2-1.8,3.8-3.2,5s-3,1.8-4.7,1.8H70c-0.6-0.1-1.1-0.2-1.7-0.4
		c-0.6-0.2-1.1-0.5-1.6-0.8c-1.4-1-2.5-2.3-3.3-4.1s-1.2-3.6-1.2-5.6v-0.9c0-0.2,0.1-0.6,0.1-0.9c0.1-0.6,0.2-1.1,0.3-1.8
		c0.2-0.6,0.3-1.1,0.6-1.7c0.8-1.9,1.9-3.3,3.2-4.3c1.4-1,2.7-1.5,4.3-1.5h0.6c0.2,0,0.4,0.1,0.6,0.1c0.6,0.1,1.2,0.3,1.9,0.6
		c0.6,0.3,1.2,0.6,1.7,1.1c1.2,1,2.1,2.3,2.7,4c0.6,1.7,1,3.5,1,5.2C79.1,22.5,79.1,22.8,79.1,23L79.1,23z M97.6,32.2l-4.1,0.4
		l-6-10.9c-0.2-0.2-0.3-0.6-0.5-1c-0.2-0.3-0.3-0.7-0.4-1.1c-0.1-0.3-0.2-0.6-0.2-0.8c-0.1-0.2-0.2-0.6-0.2-0.8
		c0.1,0.6,0.2,1.4,0.2,2.1c0.1,0.7,0.1,1.4,0.1,2.1v10.4h-4.2V11.9l4.2-0.4l6,10.8c0.2,0.3,0.3,0.6,0.4,1c0.2,0.3,0.2,0.6,0.4,1
		c0.1,0.2,0.2,0.6,0.3,0.9c0.1,0.2,0.2,0.6,0.3,0.8c0-0.2,0-0.5-0.1-0.6c0-0.2-0.1-0.5-0.1-0.7c-0.1-0.4-0.1-0.9-0.1-1.4V11.5h4.1
		L97.6,32.2L97.6,32.2z M110.3,19.9v4.5h-5.2v3.5h5.5l-0.5,4.7h-9.3v-21h9.3l0.4,4.6h-5.5V20L110.3,19.9L110.3,19.9z"/>
</g>
<g>
	<g id="XMLID_557_" class="st7">
		<g id="XMLID_722_">
			<g id="XMLID_723_">
				<g id="XMLID_724_">
					<path id="XMLID_729_" class="st14" d="M26917.4-436.3c0-3.2,0-6.4,0-9.6c0-1.5,0-3.2,0-4.9c0-3.9,0-8.4,0-13.8c0-1.5,0-3,0-4.4
						c0-4,0-7.9,0-11.9c0-5.3,0-10.5,0-15.8c0-3.8,0-7.5,0-11.1c0-3.7,0-7.3,0-10.7c0-6.9,0-13,0-19s0-11.9,0-18.3
						c0-3.1,0-6.3,0-9.7c0-3.6,0-7.2,0-10.9c0-0.8,0,1,0,0.9c0,0.9,0,2.3,0,3.2c0,2.9,0,5.6,0,8.2c0,1.8,0,3.5,0,5.1
						c0,4.2,0,8.1,0,11.9c0,7.7,0,14.8,0,22.8c0,3.1,0,6.3,0,9.6c0,4.2,0,8.6,0,13.2c0,0-65535,22216.5,0,28.2c0-0.9,0-1.9,0-2.8
						c0,6.4,0,13.2,0,18.3c0,1.8,0,3.5,0,5.1c0,4.2,0,8.1,0,11.9c0,0.2,0,2.1,0,2.3C26917.4-438.6,26917.4-436.3,26917.4-436.3
						L26917.4-436.3z"/>
				</g>
			</g>
		</g>
	</g>
</g>
<g>
	<g id="XMLID_1525_" class="st16">
		<g id="XMLID_1556_">
			<g id="XMLID_1557_">
				<g id="XMLID_1558_">
					<path id="XMLID_1561_" class="st14" d="M26917.4-510.8c0-0.5,0-1.3,0-2.5c0,1.2,0,2.5,0,3.7c0,1.3,0,2.6,0,4c0,0.6,0,1,0,1.2
						c0,2,0,4.4,0,6.4l0,0c0-0.9,0-1.2,0-2.1c0-1.5,0-4.7,0-6.1c0-2.3,0-3.3,0-4.5c0-1.1,0-1.9,0-2.6c0-0.9,0-1.4,0-1.6
						c0,0,0,3.5,0,3.7c0,2.4,0,4.7,0,6.4s0,2.7,0,3.6c0,0,0-3.4,0-3.7c0-7.4,0-15,0-23c0,1.2,0,2.5,0,3.7c0,3.9,0,7.4,0,10.6
						c0,2.2,0,5,0,8.4c0,0.1,0-2,0-1.9c0-0.3,0-1.6,0-1.9c0-3.5,0-7,0-10.9c0-1.5,0-3,0-4.7c0-2.3,0-4.9,0-7.7c0,1.2,0,2.4,0,3.7
						c0,1.5,0,2.9,0,4.3c0,2.8,0,5.1,0,7.1c0,0.1,0-1.3,0-1.5c0-0.5,0-1.9,0-2.2c0-8.5,0-16.6,0-24.6c0-0.3,0,0.9,0,0.9
						c0,0.5,0,2.2,0,2.6c0,0-65535,22257.1,0,11.9c0,0,0-3.4,0-3.7c0-3.3,0-6.9,0-10.7c0-3.7,0-7.5,0-11.6v3.6c0,2.9,0,3.9,0,6.3
						c0,2.8,0,4.5,0,6c0-0.1,0-0.2,0-0.4c0-1.5,0-2.9,0-4.4c0-2.2,0-3.6,0-5.1c0,0.1,0,1.8,0,1.9c0,0.3,0,1.6,0,1.9c0,1,0,1.9,0,2.9
						c0-0.1,0-0.3,0-0.4c0-0.6,0-1.4,0-2.5c0-2.2,0-5.4,0-9.7v1.5c0,0.6,0,1.7,0,2.2c0,4.1,0,8,0,11.6c0,3.8,0,7.4,0,10.7
						c0-1.2,0-2.4,0-3.7c0-0.7,0-1.7,0-3.2c0-2.1,0-5,0-8.5v3.6c0,8,0,16.1,0,24.6c0-1.2,0-2.4,0-3.7c0-3,0-6.8,0-11.5
						c0-0.1,0,1.3,0,1.5c0,0.5,0,1.8,0,2.2c0,4.5,0,8.7,0,12.6c0,3.8,0,7.3,0,10.9c0-1.3,0-2.5,0-3.8c0-1.3,0-2.5,0-3.8
						c0-1.6,0-3.1,0-4.6c0-0.9,0-1.7,0-2.5c0-2.4,0-5.1,0-8.1c0-0.1,0,2,0,1.9c0,0.4,0,1.6,0,1.8c0,8,0,15.6,0,23c0-1.2,0-2.5,0-3.7
						c0-0.9,0-1.9,0-3.6c0-1.7,0-3.9,0-6.4c0,1.2,0,2.5,0,3.7c0,0.7,0,1.7,0,4.2c0,1.6,0,3.3,0,6.2c0-1.1,0-2.3,0-3.4
						c0,4.7,0,5.4,0,1.9c0-3.9,0-7.6,0-11.1v1.9c0,0.3,0,1.6,0,1.9c0,1.1,0,2,0,2.5v-1.9C26917.4-509.1,26917.4-510.7,26917.4-510.8
						L26917.4-510.8z"/>
				</g>
			</g>
		</g>
	</g>
</g>
</svg>
