<?xml version="1.0" encoding="utf-8"?>
<!-- Generator: Adobe Illustrator 19.2.0, SVG Export Plug-In . SVG Version: 6.00 Build 0)  -->
<svg version="1.1" id="Слой_1" xmlns="http://www.w3.org/2000/svg" xmlns:xlink="http://www.w3.org/1999/xlink" x="0px" y="0px"
	 viewBox="0 0 120 26.2" style="enable-background:new 0 0 120 26.2;" xml:space="preserve">
<style type="text/css">
	.st0{fill:#FFFFFF;}
	.st1{fill:#2E0B01;}
	.st2{opacity:0.55;fill:#2E0B01;enable-background:new    ;}
	.st3{opacity:0.2;enable-background:new    ;}
	.st4{fill:#44A3BC;}
	.st5{fill:#CB242D;}
	.st6{fill:#DC5B2B;}
	.st7{opacity:0.5;}
	.st8{fill:#C5CB79;}
	.st9{fill:#E2001A;}
	.st10{fill:#B70718;}
	.st11{fill:#EFB886;}
	.st12{fill:#BBDBE8;}
	.st13{fill:#50542E;}
	.st14{opacity:0.1091;fill:#FFFFFF;enable-background:new    ;}
	.st15{opacity:0.5;fill:#CB242D;enable-background:new    ;}
	.st16{opacity:0.6;}
	.st17{fill:#EC9488;}
	.st18{fill:none;stroke:#50542E;stroke-linecap:round;stroke-miterlimit:10;}
	.st19{opacity:0.2;fill:#55721A;enable-background:new    ;}
	.st20{fill:#55721A;}
	.st21{fill:none;stroke:#FFFFFF;stroke-miterlimit:10;}
	.st22{fill:none;stroke:#C5CB79;stroke-width:2;stroke-miterlimit:10;}
	.st23{fill:#CDC09E;}
	.st24{opacity:0.1;fill:#44A3BC;}
	.st25{opacity:0.9;}
	.st26{opacity:0.9;fill:#44A3BC;enable-background:new    ;}
	.st27{opacity:0.1091;fill:#44A3BC;enable-background:new    ;}
	.st28{opacity:0.1091;fill:#55721A;enable-background:new    ;}
	.st29{opacity:0.4;}
	.st30{opacity:0.9;fill:#55721A;enable-background:new    ;}
	.st31{opacity:0.4;fill:#55721A;}
	.st32{fill:#D95929;}
	.st33{fill:#F68D1A;}
	.st34{fill:#FFC73B;}
	.st35{fill:#FABC14;}
	.st36{fill:#FCAD17;}
	.st37{fill:none;stroke:#FFFFFF;stroke-width:2;stroke-miterlimit:10;}
	.st38{fill:none;stroke:#44A3BC;stroke-width:20;stroke-miterlimit:10;}
	.st39{fill:none;stroke:#44A3BC;stroke-width:20;stroke-linejoin:round;stroke-miterlimit:10;}
	.st40{fill:none;}
	.st41{fill:#3B5998;}
	.st42{fill:none;stroke:#000000;stroke-width:2;stroke-miterlimit:10;}
	.st43{opacity:0.6;fill:#333333;}
</style>
<g>
	<path class="st1" d="M25.9,0.4v19c-0.1,0.8-0.5,1.4-1.2,1.7c-2.2,0.6-5.2-0.8-6.7,1.4c-0.4-0.1-0.5-0.5-1-0.8
		c-0.3-0.2-0.7-0.4-1.1-0.4l-0.1,0.1c-0.1,0.9,0.2,2.1-0.5,2.9c-1,1.3-2.8,0.5-4.3,0.8c-1.3-0.2-2.4,0.3-3.2,1.2
		c-0.4-0.4-0.9-0.8-1.4-1.1l-0.7-0.2l-4.2-0.1c-0.7-0.1-1.2-0.8-1.5-1.3L0,22.8l0.2-12.6V4.1L0.3,4L10,4l0.1-0.1l0.1-3.8L10.3,0
		l15.6,0.2L25.9,0.4L25.9,0.4z"/>
	<path class="st1" d="M25.4,1v10.3l-0.1,0.1c-1.1-0.1-2.3-0.1-3.3,0l-0.3-0.1c-1.3-0.1-2.6-0.2-3.9-0.1c-0.4-0.2-0.4-0.7-0.6-1
		c-0.4-0.3-0.7-0.8-1.1-1.2c0.1-0.3,0.3-0.6,0.1-0.9c-0.1-0.2-0.5-0.2-0.3-0.5c0.9-1,2.6-1,3.3-2.1c0.8-1,0.7-2.5,1.2-3.7
		c-0.2-0.3-0.5,0-0.8,0L19.1,2c-1.6-1.3-4-1.1-6-0.9c-0.5,0-1-0.2-1.4-0.4c-0.1,0.4,0.1,0.8,0.3,1.2c-0.7,0.5-1.3,1.4-1.1,2.4
		c0.2,0.9,1,1.6,1.9,1.8c1.1,0.2,2.3-0.2,2.9-1c0.2-0.4,0.5-1,0.2-1.5c-0.2-0.3-0.6-0.4-1-0.4c-0.3,0.1-0.7,0.1-0.9,0.4
		c-0.4,0.3,0,1.3-0.9,0.9C13,4.3,12.8,4.2,12.7,4c-0.1-0.3,0.1-0.5,0.3-0.8c1.2-0.9,3.1-0.8,4.6-0.3c0.3,0.1,0.5,0.3,0.6,0.5
		c0.1,0.5-0.2,1-0.5,1.4c-1.2,0.9-3.6,0.8-3.4,2.9c-0.3,0.1-0.6,0.1-0.8,0.4c-0.1,0.2,0,0.4,0.1,0.5c0.1,0.2,0.3,0.2,0.5,0.3
		c-0.1,0.2,0.1,0.5,0.1,0.7c-0.3-0.1-0.6-0.1-0.9,0.1c-0.2,0.1-0.4,0.3-0.5,0.5c-0.3,0.6,0.5,0.8,0.3,1.4c0.2,0.4-0.1,1,0.3,1.4
		c-0.1,0.2-0.1,0.5,0,0.7c0.2,0.3,0.5,0.5,0.9,0.6l0.1,0.1c0,1.4,0.1,2.9-0.1,4.3c0.1,0.6,0.1,1.2,0,1.8c-1.2-0.2-2.9,0.5-3.6-0.8
		l-0.1-0.6l0.2-18.5l0.1-0.1l14.5,0.2L25.4,1L25.4,1z"/>
	<path class="st1" d="M18.7,2.3c-0.2,0.2-0.3,0.4-0.4,0.6c-1.2-1-3.2-0.8-4.8-0.7c-0.5,0-1-0.3-1.3-0.8l0.1-0.1
		C14,1.6,15.9,1,17.5,1.6C17.9,1.7,18.5,1.9,18.7,2.3L18.7,2.3z M13,2.5c-0.4,0.3-1.1,0.9-0.8,1.6c0.2,0.4,0.6,0.7,1.2,0.7
		c0.2,0,0.4-0.1,0.6-0.1c0.3-0.3,0-1,0.5-1.1c0.2-0.1,0.5-0.1,0.8,0c0.1,0.1,0.3,0.4,0.2,0.7c-0.2,0.6-0.8,1-1.4,1.2
		c-0.9,0.2-1.8-0.1-2.4-0.7c-0.3-0.4-0.5-1-0.3-1.5c0.2-0.5,0.5-1,0.9-1.1C12.5,2.3,12.7,2.5,13,2.5L13,2.5z M19.7,2.2
		c-0.3,1.2-0.2,2.7-1.4,3.3c-1,0.8-2.9,0.7-3.1,2.3c-0.1,0-0.3,0-0.4,0.2c0.2,0.4,1-0.1,0.9,0.4c-0.6,0.1-1.2,0-1.8,0
		c-0.1-0.1-0.1-0.1-0.1-0.3c0.2-0.1,0.5,0.1,0.7-0.1c0-0.5,0-1,0.3-1.3c1.2-1.1,3.1-1,3.8-2.6C18.5,3.3,18.8,2.5,19.7,2.2L19.7,2.2z
		 M10,4.7c0,3.7,0,6.6-0.1,10.2c-0.7,0.2-1.5-0.1-2.1,0.1c-0.5-0.1-0.4-0.8-0.8-1.1c-0.5-0.3-0.7-1.1-1.3-1.3
		c-0.1-0.1-0.1-0.2,0-0.3c0.5,0,1.1-0.1,1.6,0.1c0.1,0.2,0,0.5,0.3,0.6H9L9,12.8L7.9,4.9L7.8,4.9H6.5C6.3,5.1,6.4,5.7,6,5.6H4
		c-0.2-0.3,0-1-0.5-0.8C3.1,4.9,2.5,4.6,2.3,5C1.9,7.6,1.4,10.3,1,12.9C1.4,13.1,2,13,2.5,13c0.1-0.2,0.1-0.5,0.2-0.6
		c0.5-0.1,1,0,1.5,0c0.1,0.3-0.3,0.8-0.1,1.2v0.1c-0.3-0.1-0.5-0.1-0.8,0c-0.3,0.2-0.6,0.4-0.6,0.8c0,0.3,0.1,0.6,0.3,0.9
		c-0.1,0.5,0.2,0.9,0.1,1.4c0.5,0.3-0.1,1,0.3,1.2c0.2,0.2,0.4,0.3,0.6,0.3c0,2.2,0,4-0.1,6.2L4,24.4c-1.2-0.1-2.9,0.3-3.4-1
		l-0.1-0.5L0.7,9.2l0.1-4.6L1,4.5L10,4.7L10,4.7L10,4.7z"/>
	<path class="st1" d="M3.3,5.5c0,0.2,0.1,0.3,0.1,0.5h2.9c0.2-0.2,0.1-0.6,0.4-0.8C7,5.3,7.3,5.2,7.4,5.5c0.3,2.3,0.7,4.7,1,7
		c-0.1,0.1-0.4,0.1-0.5,0.1c-0.1-0.2-0.1-0.5-0.3-0.8c-0.8,0.1-1.5-0.1-2.3,0c-0.1,0.3,0.1,0.7-0.2,0.8l-0.5-0.2l-0.1-0.6
		c-0.8-0.1-1.6-0.1-2.3-0.1C2.1,12,2.2,12.3,2,12.5c-0.2,0-0.5,0.1-0.6-0.1C1.7,10,2.2,7.7,2.5,5.3C2.7,5.2,3.3,5.1,3.3,5.5L3.3,5.5
		z"/>
	<path class="st1" d="M4.5,6.6c0.1,0.7,0.1,1.3,0,2C4,8.7,3.3,8.7,2.7,8.6c0.1-0.7,0.2-1.4,0.3-2.1C3.5,6.6,4,6.6,4.5,6.6z M6.9,7.1
		l0.2,1.5L7,8.7H5.3L5.2,8.5c0.1-0.7-0.1-1.4,0.1-2C5.8,6.8,7,6.2,6.9,7.1L6.9,7.1z"/>
	<path class="st1" d="M4.1,7.2c0.1,0.4,0.1,0.7,0,1.1c-0.3,0.1-0.6,0.1-0.9,0c0.1-0.4,0-1,0.3-1.2L4.1,7.2L4.1,7.2z M6.6,7.4
		l0.1,0.9c-0.3,0.1-0.6,0.1-0.9,0C5.7,8,5.7,7.6,5.8,7.2C6.1,7.2,6.7,7,6.6,7.4L6.6,7.4z M15.9,9.2c0.5,0.5,1.2,1.1,1.4,1.8
		c0.1,0.2,0.3,0.4,0.5,0.4l0.1,0.1c0,0.8,0.1,1.5-0.1,2.2c-0.6-0.1-1.3,0.2-1.9,0.1v-0.5c0.8-0.3,0.3-1.2,0.4-1.8
		c-0.4-0.2-0.5-0.5-0.5-1c-0.5-0.5-1.6-0.4-1.5-1.4c0.3-0.3,0.7,0.1,1.2,0L15.9,9.2z M4.5,9.2c0.1,0.8,0,1.3,0,2H2.3
		c0-0.7,0.1-1.3,0.3-2C3.2,9.2,3.8,9.2,4.5,9.2L4.5,9.2z M7.2,9.3L7.2,9.3c0.1,0.7,0.3,1.3,0.3,2c-0.8,0.1-1.5,0.1-2.2,0H5.3
		c-0.1-0.5,0-1.3,0-1.9l0.1-0.1C5.9,9.2,6.6,9.2,7.2,9.3z"/>
	<path class="st1" d="M4.1,9.8c0.1,0.3,0,0.7,0.1,1.1c-0.4,0.1-0.9,0.1-1.3,0.1l-0.1-0.1l0.2-1L4.1,9.8L4.1,9.8z M6.9,9.8
		C7,10.1,7,10.5,7.1,10.9c-0.4,0.1-0.9,0.1-1.3,0c-0.1-0.3,0-0.8,0.1-1.2L6.9,9.8L6.9,9.8z M15.1,10.7v0.3L15,11.1
		c-0.7-0.1-1.4,0-1.9-0.5c-0.1-0.3,0.2-0.5,0.4-0.5C14.1,10.2,14.7,10.3,15.1,10.7z M15.6,11.5c0.2,0,0.2,0.3,0.1,0.4
		c-0.6,0.1-1.2,0.1-1.8,0.1c-0.2-0.1-0.5,0-0.6-0.3c0.1-1,1-0.1,1.5-0.3L15.6,11.5L15.6,11.5z M19,12.1c-0.1,3.1,0.1,5.9-0.1,8.9
		c-0.2,0.1-0.3,0.2-0.5,0.2l-0.1-0.5l0.1-9.2c0.1-0.1,0.4-0.1,0.5,0L19,12.1L19,12.1z M19.5,11.5c0,0.1-0.1,0.1-0.1,0.2
		C19.3,11.6,19.4,11.4,19.5,11.5z M21.5,11.7c0.4,3,1,5.9,1.4,9c-0.2,0.1-0.5,0.1-0.8,0.1l-0.2-1.6L21,11.7c0.1-0.1,0-0.2,0.1-0.1
		C21.3,11.5,21.5,11.5,21.5,11.7L21.5,11.7z M20.5,12.2c-0.2-0.1-0.4-0.3-0.5-0.5l0.1-0.1C20.2,11.8,20.5,12,20.5,12.2L20.5,12.2z
		 M25.4,11.7l0.1,0.1l-0.1,2.6l-0.1,0.1c-1,0.1-1.8-0.1-2.7-0.2l-0.1-0.1c-0.1-0.8-0.3-1.6-0.3-2.5C23.1,11.5,24.3,11.5,25.4,11.7
		L25.4,11.7z M20.2,12.5c-0.2,0.1-0.4-0.3-0.6-0.5l0.1-0.1C19.9,12.1,20,12.3,20.2,12.5z M15.8,12.4c0.1,0.1,0,0.2,0,0.3
		c-0.6,0.3-1.3,0.3-2,0.3c-0.2-0.1-0.4-0.3-0.4-0.5c0.2-0.5,0.8,0,1.1-0.1L15.8,12.4L15.8,12.4z M20.7,12.4c0,0.1,0.1,0.3,0,0.4
		c-0.1,0.1-0.3,0.1-0.3,0C20.3,12.7,20.5,12.5,20.7,12.4z M19.8,12.8c-0.1,0.2-0.2,0.3-0.4,0.3c-0.1-0.2,0.1-0.4,0.3-0.5
		C19.7,12.6,19.9,12.7,19.8,12.8z M5.9,13.1c0.5,0.6,1.2,1.3,1.5,2.1c0.1,0.1,0.3,0.2,0.5,0.3v2.1c-0.8,0-1.4,0.1-2.1,0.2
		c-0.1-0.1-0.1-0.4-0.1-0.6c0.3-0.1,0.6-0.3,0.6-0.8c-0.1-0.4,0.2-0.9-0.2-1.2c-0.5,0-0.3-0.5-0.4-0.9c-0.5-0.5-1.4-0.5-1.4-1.3
		c0.3-0.4,0.8,0.1,1.2,0L5.9,13.1L5.9,13.1z M20.6,13.6c0,0.1-0.1,0.3-0.2,0.2L20,13.2C20.2,12.9,20.4,13.5,20.6,13.6L20.6,13.6z
		 M15.2,13.2c-0.1,0.4-0.6,0.5-1,0.5c-0.2,0.1-0.4-0.1-0.5-0.1c-0.1-0.1-0.1-0.2-0.1-0.3C14.1,13.3,14.8,13.3,15.2,13.2L15.2,13.2z
		 M20.3,14c0.1,0.1-0.1,0.1-0.1,0.1c-0.2-0.2-0.5-0.4-0.5-0.7C20,13.5,20.1,13.7,20.3,14L20.3,14z"/>
	<path class="st1" d="M5,14.4c0.1,0.1,0.2,0.3,0.1,0.5C4.4,15,3.7,15,3.1,14.6c-0.1-0.1-0.1-0.3-0.1-0.4c0.1-0.1,0.3-0.3,0.4-0.3
		C4,14,4.5,14.2,5,14.4L5,14.4z M19.5,14L19.5,14C19.4,13.9,19.4,13.9,19.5,14L19.5,14z M20.9,14.4c-0.1,0.1-0.1,0.3-0.2,0.3
		c-0.1,0-0.2-0.1-0.3-0.2c0-0.2,0.3-0.3,0.4-0.4C21,14,20.9,14.2,20.9,14.4L20.9,14.4z M15.2,14.1c0.1,2.3,0,4.2,0,6.4
		c-0.1,0.1-0.4,0.1-0.7,0.1l-0.1-0.1l0.1-6.1C14.8,14.2,15,14.1,15.2,14.1L15.2,14.1z M19.9,14.4c-0.1,0.1-0.3,0.4-0.5,0.4
		c-0.1-0.3,0.1-0.5,0.3-0.6C19.8,14.2,19.9,14.3,19.9,14.4L19.9,14.4z M17.8,14.4c0.1,2.3,0,4.9,0,7.2c-0.5-0.3-1.2-0.8-1.9-0.9
		l-0.1-0.1v-6C16.5,14.4,17.2,14.3,17.8,14.4L17.8,14.4z M20.9,15.4c0,0.1-0.1,0.2-0.2,0.3c-0.3-0.2-0.5-0.5-0.8-0.8
		C20.3,14.3,20.6,15.2,20.9,15.4L20.9,15.4z M25.3,15l0.1,0.2l-0.1,4.4c-0.1,0.4-0.5,0.8-0.9,0.9c-0.3,0.1-0.6,0.1-1,0.1l-1-5.7
		l0.1-0.1C23.5,14.9,24.4,15,25.3,15L25.3,15z M19.8,15.1c0.1,0.3,0.6,0.5,0.6,0.9c-0.3,0.3-0.6-0.3-0.9-0.5c-0.1,0-0.1-0.1-0.1-0.1
		C19.5,15.2,19.6,15,19.8,15.1z M5.7,15.5c0.1,0.3-0.1,0.4-0.3,0.4c-0.7,0-1.4,0.1-1.9-0.1c-0.3-0.1-0.2-0.4-0.1-0.5l0.1-0.1
		C4.2,15.4,5.1,15.2,5.7,15.5L5.7,15.5z M8.9,15.4v7.4C9,22.9,9,23,9.1,23l0.1-0.5l0.1-7.1c0.1-0.1,0.4-0.1,0.6-0.1l0.1,0.1
		C10,16.7,10,18,10,19.1c0.3,1.6,0.3,3.6,0.3,5.2l-1.1,0.2c-0.2-0.4,0-1-0.1-1.4l-0.1-0.1l-0.2,0.2v1.4c-0.1,0.2-0.3,0.3-0.5,0.3
		l-0.1-0.6l0.1-9C8.5,15.2,8.8,15.3,8.9,15.4L8.9,15.4z M21.1,16.5c-0.1,0.1-0.3,0.3-0.4,0.1c-0.1-0.1-0.1-0.2-0.2-0.3
		c0.1-0.2,0.3-0.3,0.5-0.5C21.2,15.9,21,16.3,21.1,16.5L21.1,16.5z M20,16.3c-0.1,0.2-0.3,0.3-0.5,0.5c-0.1-0.1-0.1-0.3-0.1-0.5
		C19.6,16.1,20,15.9,20,16.3z M5.7,16.2c0.1,0.1,0.1,0.2,0,0.3c-0.6,0.3-1.4,0.3-2.1,0.3c-0.2-0.1-0.3-0.3-0.3-0.5l0.1-0.1
		C4.2,16.3,5,16.2,5.7,16.2z M117.9,19.4c-0.5-0.2-1-0.4-1.2-1l-0.1-5.5c0-0.5-0.1-1-0.3-1.4c-0.7-0.8-1.5-1.8-2.5-2.2
		c-1-0.6-2.1,0.1-2.9,0.5c-0.3-0.3-0.7-0.6-1-0.8c-1.4-0.3-2.4,0.7-3.3,1.5c-0.5-0.4-1-1-1.5-1.3c-1.8-0.9-3.3,0.8-4.6,1.6h-0.1V9.8
		c0.1-1.2-0.4-2.5-1.4-3.1c-0.8-0.7-2.3-0.8-3.3-0.3C94.7,6.8,94,7.9,94,9c0.3,0.2,0.8,0,1,0.5c0.1,0.5,0.1,1.2,0,1.8
		c-0.3,0.1-0.7,0.4-1,0.5c-0.9-1-1.8-2.1-3.1-2.6c-0.8-0.3-1.4,0.2-1.9,0.5c-0.2-0.2-0.5-0.4-0.8-0.5c-1.6-0.7-2.8,0.7-3.8,1.5
		l-1.2-0.8C82.4,9.4,81.8,9,80.8,9c-1.6,0.2-2.8,1.4-4,2.3h-0.2c-1-0.8-2-1.6-3.1-2.1c-2.1-0.8-3.7,1-5.2,2c-1.3-1-2.7-2.5-4.6-2.2
		c-1.4,0.4-2.5,1.4-3.7,2.4c-0.7-0.7-1.1-1.6-2-2.1c-0.6-0.4-1.5-0.5-2.3-0.3c-1.3,0.6-2.4,1.5-3.6,2.3c-1-0.8-2-1.8-3.2-2.4
		c-1.7-0.8-3.1,0.5-4.4,1.2c-0.2-1.6,0.2-3.7-1.1-4.9c-0.8-0.9-2-1.3-3.1-1.1c-1.2,0.2-2.3,1.2-2.7,2.3h-0.1
		c-0.5-1.2-1.5-2.2-2.7-2.4c-1.2-0.3-2.3,0.1-3.1,1c-0.5,0.5-1,1.2-0.9,2.1c0.6,0.1,1.4,0.2,1.7,0.9c0.1,1,0.1,2,0,3l-3.4,3.3
		l-0.1,0.2c1.1,0.1,2.2,0.1,3.3,0.1l0.2,0.1c0.2,1.8-0.5,3.9,0.7,5.3c0.8,1.2,2.2,1.8,3.7,1.4c1.1-0.3,2.2-1.3,2.5-2.4
		c0.1,0.1,0.1,0.3,0.2,0.5c0.5,1.2,1.7,2,3.1,2.1c1.1,0,2-0.4,2.7-1.3h0.1c0.7,0.5,1.4,1,2.3,1.2c2,0.5,3.3-1,4.6-2.3h0.1
		c0.3,0.3,0.8,0.5,1,0.8c0.8,0.5,1.4,1,2.1,1.4c1.9,0.8,3.2-1,4.4-1.9c0.2,0.1,0.5,0.3,0.6,0.5l-1.8,2.2c-0.1,0.2,0,0.4,0.2,0.5
		c1.6,1,3.4,3.1,5.7,2c1.6-0.9,2.8-2.1,4-3.4c0.2-0.3,0.3-0.6,0.6-0.9c0.6,0.5,1.2,1,1.9,1.2c0.8,0.3,1.6,0.1,2.3-0.3
		c0.3-0.5,0.7,0.1,1.1,0.2c0.8,0.3,2,0.2,2.7-0.3c0.2-0.1,0.4-0.5,0.6-0.6c0.5,0.4,1.2,0.9,1.8,1.1c0.7,0.2,1.6,0.1,2.2-0.3
		c0.2-0.3,0.5-0.1,0.8,0.1c0.8,0.4,2.1,0.5,2.9-0.1c0.3-0.1,0.4-0.5,0.7-0.5c0.6,0.7,1.5,1.2,2.5,1c1.2-0.2,2.2-1.2,2.6-2.3h0.1
		c0.8,0.9,1.8,1.8,2.9,2.2c0.7,0.3,1.6,0.2,2.1-0.2c0.8,0.4,1.7,0.5,2.5,0.3c0.8-0.2,1.5-0.8,2.1-1.4c0.7,0.5,1.4,1,2.1,1.4
		c1.6,0.7,2.9-0.6,4-1.5c0.1,0.5,0.1,1,0.1,1.6l0.1,0.1h1.7c1.3-0.1,2.3-0.8,3.1-1.8c0.5,1.1,1.6,1.8,2.9,1.8c1.4-0.1,2.5-1,3.1-2.2
		C117.8,19.9,118.2,19.6,117.9,19.4L117.9,19.4z M37.7,7.1c0.1-0.1,0.3,0,0.4,0c0.4,0.1,0.7,0.4,0.9,0.8c0.2,0.8,0.1,1.6,0.1,2.4
		c-0.4,0.1-0.8,0.1-1.2,0.1h-0.2C37.7,9.4,37.7,8.2,37.7,7.1L37.7,7.1z M39.1,18c-0.5,0.1-0.8-0.1-1.2-0.3c-0.5-0.8-0.2-2-0.3-2.9
		c0.4-0.1,1-0.1,1.4,0C39.2,15.8,39.1,16.9,39.1,18z M43.1,20.1c-0.8,0.1-1.6-0.1-2.1-0.7c-0.3-0.4-0.5-1-0.5-1.6v-4.4l-0.1-0.1
		c-1.4,0-2.7-0.1-4.1,0l-0.1,0.1v4.6c0.2,0.5,0.8,1,1.3,1.2c-0.1,0.5-0.7,0.8-1.2,1c-0.7,0.1-1.3-0.1-1.8-0.5
		c-1.1-0.9-0.5-2.4-0.7-3.7v-2.5l-0.1-0.1l-1.3-0.1v-0.1c0.5-0.6,1.6-1,1.4-2.1V7.6c-0.1-0.6-0.7-1.2-1.3-1.4
		c0.2-0.5,0.9-0.8,1.5-0.8C35,5.5,35.7,5.9,36,6.7l0.3,0.8l0.1,4.3l0.2,0.1c1.3,0,2.8,0.1,4.1,0l0.1-0.2v-4
		c-0.1-0.7-0.6-1.2-1.2-1.4c0.3-0.5,0.8-0.6,1.4-0.7c0.8,0,1.4,0.3,1.7,1C43,7,43.1,7.7,43.1,8.3L43.1,18c0.1,0.6,0.7,1.1,1.2,1.3
		C44.1,19.6,43.5,19.9,43.1,20.1L43.1,20.1z M51.2,17.8c-0.5,1-1.4,1.7-2.4,2.3c-1.4,0.1-2.5-0.8-3.5-1.6c-1.6-1.4-0.7-3.9-0.9-5.9
		c0.2-1.6,1.8-2,3.1-2.6c0.7-0.1,1.2,0.3,1.7,0.7c0.7,0.5,1.5,1.1,2,1.8l0.1,0.6C51.3,14.7,51.5,16.2,51.2,17.8L51.2,17.8z
		 M59.2,18.3c-0.8,0.6-1.6,1.4-2.5,1.9c-0.3,0.1-0.7,0-1-0.2c-1-0.7-1.9-1.4-2.7-2.1l-0.3-0.6l0.1-4.4c0.1-1,1.1-1.4,1.8-2
		c0.7-0.4,1.5-1.2,2.4-0.8c0.5,0.3,0.8,0.8,1.2,1.2c0.3,0.8,1.1,1.5,1,2.4c-1,1.5-2.5,2.3-3.7,3.4c0.5,0.5,1.1,0.8,1.6,1.3
		c0.9,0.2,1.4-0.9,2.1-1.2C59.2,17.6,59.4,18.1,59.2,18.3L59.2,18.3z M67.5,19.9c-0.2,1.2-1.3,1.8-2.1,2.6c-0.8,0.5-1.6,1.5-2.7,1.4
		c-0.8-0.3-1.5-0.8-2.2-1.3c0.3-0.6,0.8-1,1.2-1.5c0.6-0.3,1,0.3,1.5,0.5c0.3,0.1,0.7,0.3,1,0.3c0.3-0.3,0.8-0.5,1-0.9
		c0-0.5,0.1-1.2,0-1.7c-0.4,0.1-0.8,0.5-1.2,0.8c-0.9,0.3-1.5-0.5-2.1-0.8c-0.4-0.4-1-0.6-1.1-1.2c-0.1-1.7-0.1-3.3-0.1-4.9
		c0.3-1.3,1.6-1.9,2.6-2.6c0.7-0.6,1.6,0,2.2,0.4c0.7,0.5,1.6,1,1.9,1.8C67.7,15,67.6,17.5,67.5,19.9L67.5,19.9z M75.8,20.4
		c-0.5,0.1-1,0-1.4-0.2l-0.8-0.7c-0.7,0.5-1.4,1.1-2.4,0.9c-1-0.4-1.8-1.2-2.1-2.2c-0.2-1.3-0.1-2.8,1.1-3.5
		c0.9-0.6,1.8-1.1,2.7-1.6c0-0.3-0.3-0.5-0.5-0.7c-0.3-0.4-0.8-0.6-1.4-0.5c-0.6,0-1,0.5-1.6,0.7c-0.1-0.2-0.1-0.5-0.1-0.8
		c0.8-0.6,1.6-1.3,2.7-1.6c1.4,0.1,2.5,1,3.3,1.9l0.3,0.6c0.1,1.8,0,3.6,0.1,5.5c0.1,0.6,0.5,1,0.9,1.3C76.6,20,76.3,20.3,75.8,20.4
		L75.8,20.4z M84.7,20.2c-0.3,0.3-0.9,0.4-1.3,0.3c-0.5-0.1-0.9-0.5-1.2-0.9c-0.4,0.1-0.7,0.4-1.1,0.6c-0.5,0.2-1.3,0.4-1.8,0.1
		c-1-0.6-2-1.6-1.8-3c-0.2-2.5,2.3-3.1,3.9-4.1c0.1-0.2-0.1-0.3-0.2-0.5c-0.5-0.5-1.2-0.9-2-0.7L78,12.6C78,12.4,78,12,78,11.8
		c1.1-0.6,2-1.9,3.4-1.4c1,0.3,1.8,1,2.5,1.8c0.4,0.5,0.3,1.5,0.3,2.1l0.1,4.1c0.1,0.5,0.5,0.9,0.9,1.2C85.1,19.7,84.9,20,84.7,20.2
		L84.7,20.2z M90.9,13.6c-0.5-0.5-1-1-1.5-1.4c-0.3-0.1-0.6,0.1-0.7,0.3c-0.1,2,0,4-0.1,5.9c0.1,0.5,0.4,0.8,0.8,1.1
		c-0.1,0.4-0.5,0.8-1,1c-0.8,0.1-1.5-0.3-1.9-0.9l-0.2-0.7c-0.1-2.2,0.1-4.3,0-6.5c-0.1-0.4-0.5-0.6-0.8-0.8
		c0.5-0.5,1.2-1.5,2.1-1.3c0.5,0.3,0.8,0.8,1,1.2h0.1c0.6-0.4,1.1-1.4,2-1c0.7,0.5,1.2,1.1,1.8,1.8l-0.1,0.1
		C91.8,12.9,91.4,13.5,90.9,13.6L90.9,13.6z M98.5,20.5c-0.8,0.3-1.6,0-2.1-0.5c-0.5,0.2-0.8,0.5-1.4,0.5c-1.3-0.3-2.5-1.2-3.1-2.3
		c0-1.4-0.5-3.2,0.7-4.1c1.2-0.9,2.4-1.5,3.7-2.2l0.1-0.2V9.1c-0.1-0.4-0.3-0.6-0.7-0.9c0-0.2,0.3-0.4,0.5-0.5
		c0.3-0.2,0.8-0.3,1.2-0.2c0.4,0.1,0.7,0.3,1,0.7c0.2,0.3,0.4,0.8,0.3,1.2v9.4c0.1,0.3,0.4,0.8,0.8,1C99.4,20.2,98.9,20.4,98.5,20.5
		z M106.7,18.6l-2.4,2.1c-0.8,0.5-1.4-0.3-1.9-0.6c-0.8-0.8-2.3-1.1-2.3-2.5v-4.4c0.8-1.2,2.2-2.2,3.6-2.7c1.4,0.2,1.8,1.6,2.5,2.6
		c0.2,0.3,0.4,0.9,0.1,1.3c-1,1.3-2.3,2.1-3.6,3.2l0.1,0.2l1.6,1.2c0.9,0.1,1.4-1,2.1-1.3h0.1C106.7,17.9,106.9,18.3,106.7,18.6
		L106.7,18.6z M114.9,20.8c-0.6,0.2-1.2-0.1-1.6-0.5c-0.3-0.4-0.4-0.9-0.3-1.4l-0.1-5.7c-0.1-0.3-0.4-0.5-0.8-0.7
		c-0.5,0.1-0.9,0.5-1.3,0.9l-0.1,0.2l-0.1,5.2c-0.1,0.8-0.6,1.4-1.3,1.7c-0.3,0.1-0.5,0.2-0.9,0.2c-0.1-2.7,0.1-5.3-0.1-7.9
		c-0.2-0.3-0.4-0.6-0.8-0.8c0.2-0.7,1-1.1,1.5-1.4c0.8-0.1,1.2,0.6,1.7,1.2h0.3c0.7-0.5,1.3-1.2,2.2-1c1,0.7,2.3,1.4,2,2.9l0.1,5.1
		c0.1,0.4,0.3,0.8,0.8,1.1C115.9,20.3,115.4,20.6,114.9,20.8L114.9,20.8z"/>
	<path class="st1" d="M49,13.3c0.1,1.6,0.1,3.1,0,4.7c-0.2,0.3-0.3,0.5-0.6,0.6c-0.7,0.1-1.2-0.4-1.6-1c-0.5-1.5-0.2-3.1-0.2-4.8
		c0.1-0.3,0.2-0.7,0.5-0.9C48,11.7,48.7,12.5,49,13.3L49,13.3z M57.3,13.6c0.1,0.2,0.1,0.5,0,0.7c-0.6,0.7-1.4,1.2-2.1,1.7l-0.1-0.1
		l0.1-3.3c0.1-0.3,0.3-0.5,0.6-0.6C56.6,12,56.8,13.1,57.3,13.6z M65.2,13.5c0.2,1.4,0.2,2.8,0.1,4.2c-0.1,0.3-0.3,0.5-0.5,0.6
		c-0.5,0.2-1-0.2-1.4-0.5l-0.2-0.3c-0.1-1.6-0.1-3.4,0-5.1c0.1-0.2,0.3-0.3,0.5-0.3C64.4,12.2,64.8,12.9,65.2,13.5L65.2,13.5z
		 M104.6,14.2c0.1,0.5-0.4,0.8-0.7,1.2c-0.5,0.5-1,0.8-1.5,1.1c-0.2-1.2,0-2.3-0.1-3.3c0-0.2,0.2-0.5,0.5-0.6c0.2-0.1,0.4,0,0.6,0.1
		C103.9,13.1,104.4,13.6,104.6,14.2L104.6,14.2z M96.3,13.4c0,1.8,0.1,3.7,0,5.5c-0.3,0.1-0.6,0-0.9-0.1c-0.5-0.1-0.9-0.6-1.2-1
		c-0.3-0.9-0.1-1.9-0.1-2.9c0.4-0.8,1.3-1.1,2.1-1.5H96.3z M73.4,14c0.1,1.6,0.1,3.1,0,4.7c-0.9,0-1.8-0.5-2.2-1.3
		c-0.2-0.8-0.2-1.6,0.1-2.3C72,14.7,72.6,14.2,73.4,14z M81.7,14.1c0.1,1.6,0.1,3.1,0,4.6c-0.5,0.1-1-0.2-1.4-0.4
		c-0.9-0.5-0.9-1.6-0.8-2.6c0.2-1,1.4-1.2,2.1-1.7L81.7,14.1L81.7,14.1z M21.2,17.4c0.1,0.1-0.1,0.3-0.2,0.3c-0.4-0.2-0.7-0.6-1-1
		c0-0.1,0.2-0.3,0.3-0.3L21.2,17.4L21.2,17.4z M5.1,17.2c-0.3,0.3-0.8,0.4-1.3,0.3c-0.1-0.1-0.3-0.2-0.3-0.3C4.1,17,4.6,17,5.2,17
		L5.1,17.2z M20.7,18c-0.1,0.1-0.1,0.3-0.3,0.3l-0.2-0.1l-0.8-0.8c0-0.1,0.1-0.3,0.2-0.3C20.1,17.3,20.4,17.6,20.7,18z M5.1,18
		c0,2.1,0,4.4-0.1,6.3H4.4l-0.1-0.2c0-2.1,0-4,0.1-6C4.7,18.1,4.9,17.9,5.1,18L5.1,18z M21.3,18.7c-0.1,0.1-0.3,0.3-0.4,0.2
		c-0.1-0.1-0.3-0.2-0.2-0.4c0.2-0.1,0.3-0.4,0.5-0.5C21.3,18.2,21.4,18.5,21.3,18.7z"/>
	<path class="st1" d="M5.8,17.8c0,2.6,0,4.6-0.1,7.1c-0.3-0.1-0.7-0.4-1-0.6L3.6,24l0.1-6c0.6-0.2,1.4-0.2,2.1-0.3L5.8,17.8z
		 M20.2,18.6c-0.2,0.3-0.5,0.5-0.8,0.6c0-0.4-0.1-0.9,0.3-1C20,18.2,20.1,18.4,20.2,18.6z M21.3,19.7c0,0.2-0.2,0.2-0.3,0.3
		c-0.3-0.3-0.6-0.6-0.9-0.9c0-0.1,0.2-0.3,0.3-0.2L21.3,19.7L21.3,19.7z M21.4,19.3c-0.1,0-0.1-0.1-0.2-0.1l0.1-0.2
		C21.4,19.1,21.4,19.2,21.4,19.3L21.4,19.3z M20.8,20.2c-0.1,0.1-0.1,0.2-0.3,0.3c-0.3-0.2-0.6-0.6-0.8-0.9c0-0.1,0.1-0.2,0.3-0.3
		C20.2,19.6,20.6,19.8,20.8,20.2z M19.6,20.2c-0.1,0-0.1,0.1-0.1,0c-0.1-0.1,0-0.3,0.1-0.4C19.6,20,19.8,20.1,19.6,20.2z M21.5,20.3
		c0,0.2-0.1,0.3-0.2,0.4h-0.6c0.1-0.3,0.4-0.5,0.6-0.7C21.5,20,21.5,20.2,21.5,20.3z M20.3,20.6c-0.2,0.1-0.5,0.1-0.7,0.1
		C19.7,20.4,20.1,20.2,20.3,20.6z M11.4,21c0.2,1.1,0.3,2.3,0.4,3.4c-0.3,0.1-0.8,0-1.2,0c-0.2-1.2-0.1-2.6-0.2-3.9
		C10.8,20.7,11,20.9,11.4,21z M12.4,21.5c0.2,1,0.3,1.9,0.5,2.9c-0.2,0.1-0.4,0.1-0.6,0l-0.1-0.2l-0.3-3.1
		C12,21,12.4,21.2,12.4,21.5z M15.2,21.2c-0.1,1,0.3,2.1-0.3,2.8c-0.4,0.4-1,0.6-1.5,0.5l-0.1-0.1c-0.2-1.1-0.3-2.1-0.5-3.2
		C13.7,21.1,14.4,21.1,15.2,21.2L15.2,21.2z M9,23L9,23L9,23L9,23z M117.3,16.7c0-0.8,0.6-1.4,1.4-1.4c0.8,0,1.4,0.5,1.4,1.4
		c0,0.8-0.6,1.4-1.4,1.4C117.9,18,117.3,17.4,117.3,16.7z M118.7,17.8c0.6,0,1.1-0.5,1.1-1.2c0-0.6-0.5-1.1-1.1-1.1
		c-0.6,0-1.1,0.5-1.1,1.1C117.5,17.3,118.1,17.8,118.7,17.8z M118.4,17.4h-0.2v-1.6h0.6c0.3,0,0.5,0.1,0.5,0.4
		c0,0.3-0.2,0.4-0.4,0.4l0.4,0.7H119l-0.4-0.7h-0.3V17.4l0.3-0.9c0.2,0,0.4,0,0.4-0.3c0-0.2-0.2-0.2-0.3-0.2h-0.3v0.5h0.3
		L118.4,17.4L118.4,17.4z"/>
</g>
<g>
	<g id="XMLID_557_" class="st7">
		<g id="XMLID_722_">
			<g id="XMLID_723_">
				<g id="XMLID_724_">
					<path id="XMLID_729_" class="st14" d="M27803.5,132.4c0-3.2,0-6.4,0-9.6c0-1.5,0-3.2,0-4.9c0-3.9,0-8.4,0-13.8c0-1.5,0-3,0-4.4
						c0-4,0-7.9,0-11.9c0-5.3,0-10.5,0-15.8c0-3.8,0-7.5,0-11.1c0-3.7,0-7.3,0-10.7c0-6.9,0-13,0-19s0-11.9,0-18.3
						c0-3.1,0-6.3,0-9.7c0-3.6,0-7.2,0-10.9c0-0.8,0,1,0,0.9c0,0.9,0,2.3,0,3.2c0,2.9,0,5.6,0,8.2c0,1.8,0,3.5,0,5.1
						c0,4.2,0,8.1,0,11.9c0,7.7,0,14.8,0,22.8c0,3.1,0,6.3,0,9.6c0,4.2,0,8.6,0,13.2c0,0-65535,22216.5,0,28.2c0-0.9,0-1.9,0-2.8
						c0,6.4,0,13.2,0,18.3c0,1.8,0,3.5,0,5.1c0,4.2,0,8.1,0,11.9c0,0.2,0,2.1,0,2.3C27803.5,130.1,27803.5,132.4,27803.5,132.4
						L27803.5,132.4z"/>
				</g>
			</g>
		</g>
	</g>
</g>
<g>
	<g id="XMLID_1525_" class="st16">
		<g id="XMLID_1556_">
			<g id="XMLID_1557_">
				<g id="XMLID_1558_">
					<path id="XMLID_1561_" class="st14" d="M27803.5,57.9c0-0.5,0-1.3,0-2.5c0,1.2,0,2.5,0,3.7c0,1.3,0,2.6,0,4c0,0.6,0,1,0,1.2
						c0,2,0,4.4,0,6.4l0,0c0-0.9,0-1.2,0-2.1c0-1.5,0-4.7,0-6.1C27803.5,60.2,27803.5,59.2,27803.5,57.9c0-1,0-1.8,0-2.5
						c0-0.9,0-1.4,0-1.6c0,0,0,3.5,0,3.7c0,2.4,0,4.7,0,6.4c0,1.7,0,2.7,0,3.6c0,0,0-3.4,0-3.7c0-7.4,0-15,0-23c0,1.2,0,2.5,0,3.7
						c0,3.9,0,7.4,0,10.6c0,2.2,0,5,0,8.4c0,0.1,0-2,0-1.9c0-0.3,0-1.6,0-1.9c0-3.5,0-7,0-10.9c0-1.5,0-3,0-4.7c0-2.3,0-4.9,0-7.7
						c0,1.2,0,2.4,0,3.7c0,1.5,0,2.9,0,4.3c0,2.8,0,5.1,0,7.1c0,0.1,0-1.3,0-1.5c0-0.5,0-1.9,0-2.2c0-8.5,0-16.6,0-24.6
						c0-0.3,0,0.9,0,0.9c0,0.5,0,2.2,0,2.6c0,0-65535,22257.1,0,11.9c0,0,0-3.4,0-3.7c0-3.3,0-6.9,0-10.7c0-3.7,0-7.5,0-11.6v3.6
						c0,2.9,0,3.9,0,6.3c0,2.8,0,4.5,0,6c0-0.1,0-0.2,0-0.4c0-1.5,0-2.9,0-4.4c0-2.2,0-3.6,0-5.1c0,0.1,0,1.8,0,1.9
						c0,0.3,0,1.6,0,1.9c0,1,0,1.9,0,2.9c0-0.1,0-0.3,0-0.4c0-0.6,0-1.4,0-2.5c0-2.2,0-5.4,0-9.7v1.5c0,0.6,0,1.7,0,2.2
						c0,4.1,0,8,0,11.6c0,3.8,0,7.4,0,10.7c0-1.2,0-2.4,0-3.7c0-0.7,0-1.7,0-3.2c0-2.1,0-5,0-8.5v3.6c0,8,0,16.1,0,24.6
						c0-1.2,0-2.4,0-3.7c0-3,0-6.8,0-11.5c0-0.1,0,1.3,0,1.5c0,0.5,0,1.8,0,2.2c0,4.5,0,8.7,0,12.6c0,3.8,0,7.3,0,10.9
						c0-1.3,0-2.5,0-3.8s0-2.5,0-3.8c0-1.6,0-3.1,0-4.6c0-0.9,0-1.7,0-2.5c0-2.4,0-5.1,0-8.1c0-0.1,0,2,0,1.9c0,0.4,0,1.6,0,1.8
						c0,8,0,15.6,0,23c0-1.2,0-2.5,0-3.7c0-0.9,0-1.9,0-3.6s0-3.9,0-6.4c0,1.2,0,2.5,0,3.7c0,0.7,0,1.7,0,4.2c0,1.6,0,3.3,0,6.2
						c0-1.1,0-2.3,0-3.4c0,4.7,0,5.4,0,1.9c0-3.9,0-7.6,0-11.1v1.9c0,0.3,0,1.6,0,1.9c0,1.1,0,2,0,2.5v-1.9
						C27803.5,59.6,27803.5,58,27803.5,57.9L27803.5,57.9z"/>
				</g>
			</g>
		</g>
	</g>
</g>
</svg>
