<?xml version="1.0" encoding="utf-8"?>
<!-- Generator: Adobe Illustrator 19.2.0, SVG Export Plug-In . SVG Version: 6.00 Build 0)  -->
<svg version="1.1" id="Слой_1" xmlns="http://www.w3.org/2000/svg" xmlns:xlink="http://www.w3.org/1999/xlink" x="0px" y="0px"
	 viewBox="0 0 120 70" style="enable-background:new 0 0 120 70;" xml:space="preserve">
<style type="text/css">
	.st0{fill:#FFFFFF;}
	.st1{fill:#2E0B01;}
	.st2{opacity:0.55;fill:#2E0B01;enable-background:new    ;}
	.st3{opacity:0.2;enable-background:new    ;}
	.st4{fill:#44A3BC;}
	.st5{fill:#CB242D;}
	.st6{fill:#DC5B2B;}
	.st7{opacity:0.5;}
	.st8{fill:#C5CB79;}
	.st9{fill:#E2001A;}
	.st10{fill:#B70718;}
	.st11{fill:#EFB886;}
	.st12{fill:#BBDBE8;}
	.st13{fill:#50542E;}
	.st14{opacity:0.1091;fill:#FFFFFF;enable-background:new    ;}
	.st15{opacity:0.5;fill:#CB242D;enable-background:new    ;}
	.st16{opacity:0.6;}
	.st17{fill:#EC9488;}
	.st18{fill:none;stroke:#50542E;stroke-linecap:round;stroke-miterlimit:10;}
	.st19{opacity:0.2;fill:#55721A;enable-background:new    ;}
	.st20{fill:#55721A;}
	.st21{fill:none;stroke:#FFFFFF;stroke-miterlimit:10;}
	.st22{fill:none;stroke:#C5CB79;stroke-width:2;stroke-miterlimit:10;}
	.st23{fill:#CDC09E;}
	.st24{opacity:0.1;fill:#44A3BC;}
	.st25{opacity:0.9;}
	.st26{opacity:0.9;fill:#44A3BC;enable-background:new    ;}
	.st27{opacity:0.1091;fill:#44A3BC;enable-background:new    ;}
	.st28{opacity:0.1091;fill:#55721A;enable-background:new    ;}
	.st29{opacity:0.4;}
	.st30{opacity:0.9;fill:#55721A;enable-background:new    ;}
	.st31{opacity:0.4;fill:#55721A;}
	.st32{fill:#D95929;}
	.st33{fill:#F68D1A;}
	.st34{fill:#FFC73B;}
	.st35{fill:#FABC14;}
	.st36{fill:#FCAD17;}
	.st37{fill:none;stroke:#FFFFFF;stroke-width:2;stroke-miterlimit:10;}
	.st38{fill:none;stroke:#44A3BC;stroke-width:20;stroke-miterlimit:10;}
	.st39{fill:none;stroke:#44A3BC;stroke-width:20;stroke-linejoin:round;stroke-miterlimit:10;}
	.st40{fill:none;}
	.st41{fill:#3B5998;}
	.st42{fill:none;stroke:#000000;stroke-width:2;stroke-miterlimit:10;}
	.st43{opacity:0.6;fill:#333333;}
</style>
<g>
	<path class="st1" d="M120,70v-3.2H0V70H120z M48.9,27.1H0.1v3.2h50.8C50.1,29.2,49.5,28.2,48.9,27.1L48.9,27.1z M71,27.1
		c-0.6,1.1-1.2,2.2-1.9,3.2h50.6v-3.2H71z M71.5,5c-3.9-0.3-19.1-0.2-22.9,0v5.2c0,9.7,0.9,19.2,11.5,24.1
		c10.5-4.9,11.5-14.4,11.5-24.1V7.1V5L71.5,5z"/>
	<path class="st1" d="M67.4,16.6c0.3-0.2,0.4-0.4,0.5-1c0.1-0.5-0.4-1.4-1.4-1.4c-0.7,0-1.2,0.4-1.5,0.7c-0.1,0.2-0.2,0.4-0.3,0.4
		c-0.5,0.9-0.5,2.5,0.7,4.3c0.8,1.1,1.2,2.1,0.9,2.6c-0.1,0.2-0.2,0.3-0.4,0.4c-0.3,0.1-0.5-0.2-0.6-0.4c-0.1-0.4-0.6-1.4-1-2
		c-0.8-1.2-0.9-2.6-0.7-5.4C63.9,8,59.8,8.2,58,8.5c0.1-0.6-0.8-0.7-1.3-1.4h-0.1c0,0.1,0.1,0.9,0.3,1c0,0-0.1,0-0.4-0.1
		c-0.4-0.1-1.2-0.4-2-1.1c-0.1-0.1-0.1-0.1-0.1-0.1c-0.1,0.1,0.6,1.3,1.2,1.7c0.1,0.1,0.1,0.1,0,0.2c-0.5,0.6-0.8,1.9-1.2,2.2
		c-0.1,0.1-0.2,0.2-0.3,0.5c-0.1,0.2,0,0.3,0.1,0.4c0.1,0.1,0.1,0.3,0.2,0.4c0.1,0.1,0.3-0.1,0.3-0.1s-0.2,0.2-0.1,0.4
		c0.1,0.1,0.2,0.1,0.2,0.1c0.1,0.1,0.4,0.1,0.5,0c0.1-0.1,0.5,0,0.6,0c0.6-0.1,0.9-0.1,1.2-0.1c0.3,0.1,0.6,0.1,0.6,0.1
		s-0.4,0.3-0.8,0.2c-0.1-0.1-0.3-0.1-0.4-0.1c-0.1,0-0.2,0-0.2,0.1v0.1c0.1,0.1,0.5,0.6,0.4,0.6c-0.1,0.1-0.2,0.1-0.3,0.1
		c-0.2,0-0.5-0.1-0.6-0.1c-0.2-0.1-0.4-0.2-0.5-0.1c-0.1,0-0.2,0.1-0.3,0.3c-0.1,0.2-0.2,0.4-0.4,0.5h-0.1c-0.1,0.1-0.8,0.4-0.9,0.5
		c-0.1,0.1-0.1,0.1-0.1,0.2s-0.1,0.1-0.1,0.2s-0.1,0.1-0.2,0.2h-0.1c-0.1,0.1-0.5,0.2-0.6,0.4c0,0-0.1,0.1-0.1,0.1
		c-0.1,0.1-0.1,0.1-0.1,0.2c-0.1,0.1-0.1,0.1,0,0.1c0.4,0.4,0.9,0.4,0.9,0.4s0-0.3,0.2-0.3c0,0,0.6,0.6,0.7,0.4
		c0.1-0.1-0.4-0.3,0-1.1c0,0,0.2-0.3,0.4-0.6c0-0.1,0.1-0.1,0.1-0.2c0.1-0.1,0.3-0.4,0.6-0.4c0.4,0,1.4,1,1.4,1.2
		c0,0.1-0.1,0.1-0.2,0.1h-0.2c-0.2-0.1-0.4-0.2-0.5-0.2c-0.1-0.1-0.4-0.2-0.5-0.1l-0.2,0.2c0,0.1-0.1,0.1,0,0.1
		c0,0.1,0.1,0.4,0.1,0.4c0,0.1,0,0.2-0.1,0.4c0,0-0.1,0.6-0.2,0.8c0,0-0.1,0.4-0.1,0.4c0,0,0.1,0.1,0.1,0.2c0,0.1,0,0.1-0.1,0.1
		c-0.1,0.1-0.5,0.6-0.4,0.8c0,0,0.1,0.2,1-0.1h0.1c0.1,0,0.1-0.1,0.1-0.3v-0.1V18h0.1c0.1,0,0.4-0.1,0.6-0.3
		c0.1-0.1,0.1-0.1,0.1-0.2c-0.4-0.1-0.6-0.1-0.6-0.9v-0.4v-0.1c0-0.1,0.2-0.2,0.4-0.2c0.9-0.1,1.2,1.1,1.2,1.1
		c0.2,0.8,1.3,1.1,1.4,1.2c0,0,0,0.2-1.1-0.2c-0.1,0-0.1-0.1-0.1-0.1c0,0,0.2,0.6,0.2,0.9c0,0.3,0.1,0.6,0.2,0.9
		c0.4,0.9,0.8,1.5,1.6,2c0.1,0,0.4-0.3,0.9-0.1c0.2,0.1,0.2,0.3,0.1,0.4c-0.4,0.5-0.6,1.2-0.4,1.5c0,0.1-0.1,0.3-0.2,0.1
		c-0.2-0.1-0.1-0.6-0.1-0.6s-0.2,0.1-0.2,0.2c-0.1,0.1-0.1,0-0.1-0.1c0-0.2,0.2-0.5,0.5-0.5c0,0,0.2-0.4,0.4-0.6
		c0-0.1,0.1-0.1-0.1-0.1c-0.5,0-0.8,0.4-0.9,0.7c-0.2,0.6,0.3,0.9,0.3,0.9s-0.2,1.2,0.9,1.5c0,0,0.2,0.6,1.2,1.1
		c1.8,0.9,1.5,2,1.5,2s-0.4,0.1-0.4,0.6c0,0.1,0.1,0.3-0.1,0.4c-0.1,0.1-0.1,0.1-0.1,0.1l-0.1,0.1C62.1,29.8,62,29.9,62,30
		c0,0.1,0.6,0.1,0.9,0.1c0,0,0.1,0,0.2-0.1c0.1-0.1,0.1-0.1,0.1-0.2v-0.1c0-0.1,0-0.3,0.3-0.3c0.4,0.1,0.5,0,0.6-0.1
		c0.1-0.1,0-0.2-0.1-0.3c-0.4-0.4-0.5-0.6-0.5-0.9c0-0.1,0.1-0.4,0.2-0.5l0.1-0.1l0.1-0.1c0.2-0.2,0.4-0.5,0.4-0.7
		c0-0.1-0.1-0.1-0.3-0.2c-0.1-0.1-0.3-0.1-0.3-0.3c0-0.2,0.1-0.4,0.2-0.4c0.8-0.6,1.1-1.4,1.2-1.9c0.1-0.2,0.1-0.4,0.1-0.4
		s0.6,0.4,1.2-0.1l0.1-0.1c0.1-0.1,0.3-0.3,0.4-0.5c0.1-0.4,0.4-1.5-0.6-3c0,0,0-0.1-0.1-0.1c-0.1-0.2-0.3-0.4-0.4-0.6
		c-1.2-1.4-1.2-3-0.8-4c0-0.1,0.1-0.2,0.2-0.3c0.2-0.3,0.6-0.6,1.2-0.6c1,0.1,1,0.9,1,0.9c0,0.4-0.2,0.9-0.5,1.1
		c-0.1,0-0.1,0.1-0.1,0.1c0,0-0.9,0-1.2,0.5c-0.1,0.1-0.1,0.2-0.1,0.4c0,0.7,0.5,1.1,0.7,1.4c0.1,0.2,0.4,0.7,0.4,0.8
		c0,0,0-0.4,0.6-0.8c0.4-0.2,0.8-1.2,0.2-1.8C67.3,17.1,67,16.8,67.4,16.6L67.4,16.6z M56.2,10.7c-0.1,0.1-0.2,0.1-0.4,0
		c-0.1,0-0.1-0.1-0.1-0.1l-0.2,0.2c0,0-0.2-0.1-0.1-0.1C55.6,10.6,56,10,56,10c0.1,0,0.2,0.2,0.2,0.2L56,10.4h0.2
		C56.3,10.5,56.3,10.6,56.2,10.7z M59.9,9.1c-0.2,0.2-0.3,0.4-0.4,0.9c-0.1,0.3-0.5,0.5-1,0.4l-0.4-0.1h0.6c0.2,0,0.6-0.3,0.7-0.8
		c0-0.1,0-0.1-0.1-0.2l-0.4-0.1C58.6,9,58,8.9,57.6,9.4c-0.1,0.1-0.1,0.1-0.2,0.1c-0.2-0.1-1.2-0.9-1.2-0.9c0.1,0.1,0.8,0.5,1.3,0.5
		c0.9-0.4,1.6-0.4,2.2-0.1C59.9,8.9,60.1,9,59.9,9.1L59.9,9.1z"/>
	<path class="st1" d="M59.1,23.7c-0.4-0.5-0.4-1.2,0-1.5c0.1-0.1,0-0.1-0.1-0.2c-0.3-0.2-0.7-0.6-1-1h-0.1c-0.2,0.1-0.6,0.1-0.9,0.5
		c-0.3,0.4-0.4,1.1,0.3,2.3c0.1,0.1,0.1,0.3-0.2,0.3c-0.1,0-0.2,0-0.4-0.1c-0.7-0.2-0.9-0.7-1.4-0.4c-0.1,0.1-0.4,0.1-0.5,0.2
		c-0.1,0.1-0.1,0.1-0.1,0.2c-0.1,0.1-0.1,0.1-0.2,0.2c-0.1,0-0.3,0.1-0.4,0.4c-0.1,0.1-0.1,0.2-0.2,0.3c0,0.1-0.1,0.1,0,0.2
		c0.7,0.4,0.9,0.4,1,0.3c0-0.1,0.1-0.1,0.1-0.2c0-0.1,0.1-0.1,0.2,0l0.3,0.3c0,0,0.1,0.1,0.1,0v-0.1c0-0.1,0-0.1,0.1-0.2
		c0-0.1,0.1-0.1,0.1-0.2c0-0.1,0-0.2,0.1-0.4c0,0,0-0.1,0.1-0.1c0.1-0.1,0.1-0.2,0.3-0.2c0.3-0.1,0.5,0.1,0.7,0.1
		c0.2,0,0.2,0.2,0.4,0.5c0.3,0.5,1.1,0.9,1.6,0.8c0.2-0.1,0.4-0.4,0.4-0.8c0-0.4,0-0.7,0.1-0.9c0-0.1,0.1-0.1,0.1-0.2
		C59.3,23.8,59.3,23.7,59.1,23.7L59.1,23.7z M7.7,38.4h8.7v14.9L5.2,58.8h10.9l6.5-3.2v-21H12.1L7.7,38.4z M41.3,41.1h-6.2v14.4
		l-3.2-2.2V41.1h-6.3v13.4l5,3.7l4.9-1.9l2.2,1.5h7.6l-4-3L41.3,41.1z M64,57.8h6.2V41.1H64V57.8z M111,40.7l-4.3,2v-1.7h-6.3v16.7
		h6.3V44.6l2.5,1.4v3.5h6.3v-5.8L111,40.7z M89,50.9h9v-7.2l-4-2.6H82.8V54l6.1,3.8h9.4L89,52V50.9z M89,43.9h1.1l1.9,1.2v2.3h-3
		V43.9L89,43.9z M51.7,42.7v-1.6h-6.3V65l6.3-2.7v-4.5h3.4l6.1-3.2v-10l-5.6-3.6L51.7,42.7L51.7,42.7z M55,53.4h-3.2v-9l3.2,2.1
		V53.4z M73.8,57.8H80V34.6h-6.2V57.8z M64,38.4h6.2v-3.8H64V38.4z"/>
	<path class="st1" d="M72.1,7.1V4.4h-0.3c-1.2-0.1-4.1-0.1-7.5-0.2l1.5-4c-1.2,0-2.1,0.7-2.8,1.9h-1.7C61.2,1.2,60.6,0.5,60,0
		c-0.6,0.5-1.1,1.3-1.3,2.1H57c-0.6-1.2-1.7-1.9-2.8-1.9l1.5,4c-3.4,0-6.3,0.1-7.5,0.2H48v2.7c-0.1,11-0.2,22.4,12,27.9l0.1,0.1
		l0.1-0.1C72.3,29.4,72.3,18.1,72.1,7.1L72.1,7.1z M60.1,34.3c-10.5-4.9-11.5-14.4-11.5-24.1V7.1V5c3.8-0.2,19-0.3,22.9,0v5.2
		C71.5,19.9,70.5,29.4,60.1,34.3z M114.1,55c-0.8,0-1.4,0.6-1.4,1.4s0.6,1.4,1.4,1.4s1.4-0.6,1.4-1.4S114.8,55,114.1,55z
		 M114.1,57.8c-0.7,0-1.3-0.6-1.3-1.3s0.6-1.3,1.3-1.3s1.3,0.6,1.3,1.3S114.8,57.8,114.1,57.8z"/>
	<path class="st1" d="M114.3,56.5c0.3-0.1,0.3-0.4,0.3-0.4c0-0.4-0.4-0.4-0.5-0.4h-0.6v1.6h0.2v-0.7h0.3c0.2,0,0.3,0.1,0.4,0.3
		c0,0.2,0.1,0.3,0.1,0.4h0.2c-0.1-0.1-0.1-0.3-0.1-0.5C114.6,56.5,114.4,56.5,114.3,56.5z M114.1,56.3h-0.4v-0.5h0.4
		c0.1,0,0.3,0,0.3,0.2C114.4,56.3,114.2,56.3,114.1,56.3L114.1,56.3z M66.2,14.8c1,0.1,1,0.9,1,0.9c0,0.3-0.1,0.6-0.2,0.8
		c0.3-0.1,0.5-0.6,0.5-1.1c0,0,0-0.9-1-0.9c-0.5-0.1-0.9,0.3-1.2,0.6C65.5,14.9,65.8,14.8,66.2,14.8L66.2,14.8z M58.6,18.3
		c-0.1-0.1-1.2-0.4-1.4-1.2c0,0-0.1-1.2-1.2-1.1c-0.1,0-0.4,0.1-0.4,0.2v0.1h0.1c0.9-0.1,1.2,1.1,1.2,1.1c0.1,0.4,0.4,0.6,0.6,0.8
		C58.6,18.5,58.6,18.3,58.6,18.3L58.6,18.3z M57.3,23.9c-0.6-1.2-0.6-1.9-0.3-2.3c-0.4,0.3-0.8,1,0,2.6v0.1
		C57.5,24.2,57.5,23.9,57.3,23.9L57.3,23.9z M56,10.4l0.2-0.2c0,0-0.1-0.2-0.2-0.2s-0.4,0.6-0.5,0.7c-0.1,0.1,0.1,0.1,0.1,0.1
		l0.2-0.2c0,0.1,0,0.1,0.1,0.1c0.1,0.1,0.3,0.1,0.4,0s0-0.2,0-0.3H56z M65.5,17.5c0-0.1,0.1-0.3,0.1-0.4c-0.2,0.1-0.4,0.4-0.4,0.6
		c0,0.7,0.5,1.1,0.7,1.4c0.1,0.2,0.3,0.6,0.4,0.7c0,0,0,0.1,0.1,0.1l0.2-0.2c0-0.1-0.2-0.6-0.4-0.8C66,18.6,65.5,18.2,65.5,17.5
		L65.5,17.5z M65.3,23.6c0,0,0,0.1-0.1,0.4c0.2,0.1,0.6,0.1,1-0.1c0.1-0.1,0.3-0.2,0.4-0.4l-0.1,0.1C65.8,23.9,65.3,23.6,65.3,23.6
		L65.3,23.6z M55.7,18v0.3c0.1-0.1,0.4-0.1,0.4-0.3l0.3-0.3C56.2,17.8,56,18,55.8,18H55.7z M54.4,18.6c-0.1-0.1,0.4-0.7,0.4-0.8
		c0.1-0.1,0.1-0.1,0.1-0.1c0,0-0.1-0.1-0.1-0.2c0-0.1,0.1-0.4,0.1-0.4c0.1-0.2,0.2-0.8,0.2-0.8c0.1-0.1,0.1-0.3,0.1-0.4
		c0,0,0-0.3-0.1-0.4v-0.1h-0.1c-0.1,0-0.3,0.2-0.2,0.4c0,0.1,0.1,0.4,0.1,0.4c0,0.1,0,0.2-0.1,0.4c0,0-0.1,0.6-0.2,0.8
		c0,0-0.1,0.4-0.1,0.4c0,0,0.1,0.1,0.1,0.2c0,0.1-0.1,0.1-0.1,0.1s-0.5,0.6-0.4,0.8c0,0,0.1,0.2,1-0.1c0,0,0.1,0,0.1-0.1
		c0,0,0.2-0.2,0.2-0.3h-0.1C54.6,18.8,54.4,18.6,54.4,18.6z M63.6,29.6c-0.2,0-0.3,0.1-0.3,0.3c0.4,0.1,0.6,0,0.6-0.1l0.2-0.2
		C64,29.6,63.8,29.6,63.6,29.6L63.6,29.6z M57.2,25c-0.1-0.3-0.1-0.4-0.4-0.5c-0.2,0-0.4-0.1-0.7-0.1c-0.1,0-0.2,0.1-0.3,0.2
		l-0.1,0.1h0.1c0.3-0.1,0.5,0.1,0.7,0.1c0.2,0.1,0.2,0.2,0.4,0.5c0.4,0.6,1.5,1.2,1.9,0.5C58.3,26,57.5,25.5,57.2,25z M63,30.2
		c-0.2,0-0.9,0-0.9-0.1c0-0.1,0.1-0.3,0.2-0.4c-0.4,0.3-0.5,0.6-0.4,0.7c0,0.1,0.6,0.1,0.9,0.1c0,0,0.1,0,0.3-0.1l0.2-0.3
		C63.1,30.2,63,30.2,63,30.2L63,30.2z M53.9,25.2c-0.1-0.1-0.1-0.1,0-0.2c0.1-0.1,0.1-0.2,0.2-0.3c-0.1,0.1-0.4,0.4-0.4,0.6
		c0,0.1-0.1,0.1,0,0.2c0.8,0.5,1,0.4,1,0.3l0.2-0.2C54.7,25.7,54.6,25.7,53.9,25.2L53.9,25.2z M63.7,27.8l0.1-0.1
		C63.8,27.7,63.8,27.8,63.7,27.8z"/>
	<path class="st1" d="M55.4,25.6c-0.1-0.1-0.2-0.1-0.3-0.3c-0.1-0.1-0.2-0.1-0.2,0c0,0.1-0.1,0.1-0.1,0.2l0.1,0.1l0.3,0.3
		c0,0,0.1,0.1,0.1,0l0.3-0.3C55.5,25.7,55.4,25.6,55.4,25.6L55.4,25.6z M59.8,8.9c-0.6-0.2-1.4-0.1-2.2,0.1c-0.5,0-1.2-0.5-1.3-0.5
		c-0.1-0.1,0.9,0.8,1.2,0.9c0.1,0.1,0.2,0,0.2-0.1c0.4-0.6,1-0.4,1.3-0.3l0.4,0.1c0.1,0.1,0.1,0.1,0.1,0.2c-0.1,0.5-0.5,0.8-0.7,0.8
		h-0.6l0.4,0.1c0.5,0.1,0.9-0.1,1-0.4c0.1-0.5,0.2-0.6,0.4-0.9C60.1,9,59.9,8.9,59.8,8.9L59.8,8.9z M57,13.6
		c0.1-0.1-0.3-0.5-0.4-0.6v-0.1l-0.3,0.3v0.1c0.1,0.1,0.3,0.3,0.4,0.4C56.8,13.7,56.9,13.6,57,13.6z M56.8,7.1l-0.3,0.3
		c0,0,0.1,0.4,0.1,0.6C56.8,8.1,57,8.1,57,8.1C56.8,7.9,56.6,7.1,56.8,7.1L56.8,7.1z"/>
	<path class="st1" d="M58,12.7c0,0-0.4,0-0.6-0.1c-0.3-0.1-0.6-0.1-1.2,0.1c-0.1,0-0.5-0.1-0.6,0c-0.1,0.1-0.3,0.1-0.5,0
		c0,0-0.1-0.1-0.2-0.1c-0.1-0.1,0.1-0.4,0.1-0.4s-0.2,0.1-0.3,0.1c-0.1,0-0.1-0.3-0.2-0.4c-0.1-0.1-0.2-0.1-0.1-0.4
		c0.1-0.3,0.2-0.4,0.3-0.5c0.4-0.3,0.6-1.7,1.2-2.2c0.1-0.1,0.1-0.1,0-0.2C55,8.1,54.2,7,54.4,6.9c0,0-0.2,0.3-0.3,0.3
		c-0.1,0.1,0.6,1.3,1.2,1.7c0.1,0.1,0.1,0.1,0,0.2c-0.5,0.6-0.8,1.9-1.2,2.2c-0.1,0.1-0.2,0.2-0.3,0.5c-0.1,0.2,0,0.3,0.1,0.4
		c0.1,0.1,0.1,0.3,0.2,0.4c0.1,0.1,0.3-0.1,0.3-0.1s-0.2,0.2-0.1,0.4c0.1,0.1,0.2,0.1,0.2,0.1c0.1,0.1,0.4,0.1,0.5,0
		c0.1-0.1,0.5,0,0.6,0c0.5-0.1,0.8-0.1,1-0.1c0.1,0,0.2,0,0.4,0.1C57.6,13.1,58,12.7,58,12.7z M53.7,16.2c-0.2,0-0.2,0.3-0.2,0.3
		s-0.6,0-0.9-0.4V16c0,0,0.1-0.1,0.1-0.2c-0.1,0.1-0.1,0.1-0.1,0.1c-0.1,0.1-0.1,0.3-0.2,0.3c-0.1,0.1-0.1,0.1,0,0.1
		c0.4,0.4,0.9,0.4,0.9,0.4l0.3-0.3c0,0,0.6,0.6,0.7,0.3l0.3-0.2C54.3,16.8,53.7,16.2,53.7,16.2L53.7,16.2z M56.9,15.4
		c0.1-0.1-1-1.2-1.4-1.2c-0.3,0-0.5,0.2-0.6,0.4c0.1-0.1,0.2-0.1,0.4-0.1c0.3,0,0.9,0.6,1.2,0.9h0.2C56.8,15.5,56.8,15.5,56.9,15.4
		L56.9,15.4z M66.2,22.2c0.3-0.6,0-1.5-0.9-2.6c-1.2-1.7-1.2-3.3-0.7-4.3c0.1-0.1,0.1-0.3,0.3-0.4c-0.3,0.3-0.5,0.6-0.6,0.7
		c-0.5,0.9-0.5,2.5,0.7,4.3c0.8,1.1,1.2,2.1,0.9,2.6c0,0.1-0.1,0.1-0.1,0.1C65.8,22.6,66,22.4,66.2,22.2L66.2,22.2z M62.7,28.8
		c0-0.5,0.4-0.6,0.4-0.6s0.3-1.1-1.5-2c-1-0.5-1.2-1.1-1.2-1.1c-1.2-0.3-0.9-1.5-0.9-1.5s-0.5-0.3-0.3-0.9c0.1-0.3,0.4-0.6,0.9-0.6
		c0.2,0,0.1,0.1,0.1,0.1c-0.1,0.2-0.4,0.6-0.4,0.6c-0.3,0-0.4,0.3-0.5,0.5c0,0.1,0.1,0.1,0.1,0.1l0.2-0.2c0,0-0.1,0.4,0.1,0.6
		c0.1,0.1,0.2-0.1,0.2-0.1c-0.2-0.4,0.1-1,0.4-1.5c0.1-0.1,0.1-0.4-0.1-0.4c-0.5-0.1-0.9,0.2-0.9,0.1c-0.7-0.5-1.2-1-1.6-2
		c-0.1-0.2-0.2-0.6-0.2-0.9c-0.1-0.4-0.2-0.9-0.2-0.9L57,18.4c0,0,0.2,0.6,0.2,0.9c0,0.3,0.1,0.6,0.2,0.9l0.4,0.9H58
		c0.3,0.4,0.7,0.8,1,1c0.1,0.1,0.1,0.1,0.1,0.2c-0.4,0.4-0.5,1.1,0,1.5c0.1,0.1,0.1,0.1,0,0.2c0,0-0.1,0.1-0.1,0.2
		c0,0.4,0.1,1,0.9,1.2c0,0,0.2,0.6,1.2,1.1c1.8,0.9,1.5,2,1.5,2s-0.4,0.1-0.4,0.6v0.3c0.1-0.1,0.1-0.1,0.1-0.1
		C62.7,29.1,62.7,29,62.7,28.8L62.7,28.8z"/>
</g>
<g>
	<g id="XMLID_557_" class="st7">
		<g id="XMLID_722_">
			<g id="XMLID_723_">
				<g id="XMLID_724_">
					<path id="XMLID_729_" class="st14" d="M27261.7,30.8c0-3.2,0-6.4,0-9.6c0-1.5,0-3.2,0-4.9c0-3.9,0-8.4,0-13.8c0-1.5,0-3,0-4.4
						c0-4,0-7.9,0-11.9c0-5.3,0-10.5,0-15.8c0-3.8,0-7.5,0-11.1c0-3.7,0-7.3,0-10.7c0-6.9,0-13,0-19s0-11.9,0-18.3
						c0-3.1,0-6.3,0-9.7c0-3.6,0-7.2,0-10.9c0-0.8,0,1,0,0.9c0,0.9,0,2.3,0,3.2c0,2.9,0,5.6,0,8.2c0,1.8,0,3.5,0,5.1
						c0,4.2,0,8.1,0,11.9c0,7.7,0,14.8,0,22.8c0,3.1,0,6.3,0,9.6c0,4.2,0,8.6,0,13.2c0,0-65535,22216.5,0,28.2c0-0.9,0-1.9,0-2.8
						c0,6.4,0,13.2,0,18.3c0,1.8,0,3.5,0,5.1c0,4.2,0,8.1,0,11.9c0,0.2,0,2.1,0,2.3C27261.7,28.5,27261.7,30.8,27261.7,30.8
						L27261.7,30.8z"/>
				</g>
			</g>
		</g>
	</g>
</g>
<g>
	<g id="XMLID_1525_" class="st16">
		<g id="XMLID_1556_">
			<g id="XMLID_1557_">
				<g id="XMLID_1558_">
					<path id="XMLID_1561_" class="st14" d="M27261.7-43.7c0-0.5,0-1.3,0-2.5c0,1.2,0,2.5,0,3.7c0,1.3,0,2.6,0,4c0,0.6,0,1,0,1.2
						c0,2,0,4.4,0,6.4l0,0c0-0.9,0-1.2,0-2.1c0-1.5,0-4.7,0-6.1C27261.7-41.4,27261.7-42.4,27261.7-43.7c0-1,0-1.8,0-2.5
						c0-0.9,0-1.4,0-1.6c0,0,0,3.5,0,3.7c0,2.4,0,4.7,0,6.4c0,1.7,0,2.7,0,3.6c0,0,0-3.4,0-3.7c0-7.4,0-15,0-23c0,1.2,0,2.5,0,3.7
						c0,3.9,0,7.4,0,10.6c0,2.2,0,5,0,8.4c0,0.1,0-2,0-1.9c0-0.3,0-1.6,0-1.9c0-3.5,0-7,0-10.9c0-1.5,0-3,0-4.7c0-2.3,0-4.9,0-7.7
						c0,1.2,0,2.4,0,3.7c0,1.5,0,2.9,0,4.3c0,2.8,0,5.1,0,7.1c0,0.1,0-1.3,0-1.5c0-0.5,0-1.9,0-2.2c0-8.5,0-16.6,0-24.6
						c0-0.3,0,0.9,0,0.9c0,0.5,0,2.2,0,2.6c0,0-65535,22257.1,0,11.9c0,0,0-3.4,0-3.7c0-3.3,0-6.9,0-10.7c0-3.7,0-7.5,0-11.6v3.6
						c0,2.9,0,3.9,0,6.3c0,2.8,0,4.5,0,6c0-0.1,0-0.2,0-0.4c0-1.5,0-2.9,0-4.4c0-2.2,0-3.6,0-5.1c0,0.1,0,1.8,0,1.9
						c0,0.3,0,1.6,0,1.9c0,1,0,1.9,0,2.9c0-0.1,0-0.3,0-0.4c0-0.6,0-1.4,0-2.5c0-2.2,0-5.4,0-9.7v1.5c0,0.6,0,1.7,0,2.2
						c0,4.1,0,8,0,11.6c0,3.8,0,7.4,0,10.7c0-1.2,0-2.4,0-3.7c0-0.7,0-1.7,0-3.2c0-2.1,0-5,0-8.5v3.6c0,8,0,16.1,0,24.6
						c0-1.2,0-2.4,0-3.7c0-3,0-6.8,0-11.5c0-0.1,0,1.3,0,1.5c0,0.5,0,1.8,0,2.2c0,4.5,0,8.7,0,12.6c0,3.8,0,7.3,0,10.9
						c0-1.3,0-2.5,0-3.8s0-2.5,0-3.8c0-1.6,0-3.1,0-4.6c0-0.9,0-1.7,0-2.5c0-2.4,0-5.1,0-8.1c0-0.1,0,2,0,1.9c0,0.4,0,1.6,0,1.8
						c0,8,0,15.6,0,23c0-1.2,0-2.5,0-3.7c0-0.9,0-1.9,0-3.6s0-3.9,0-6.4c0,1.2,0,2.5,0,3.7c0,0.7,0,1.7,0,4.2c0,1.6,0,3.3,0,6.2
						c0-1.1,0-2.3,0-3.4c0,4.7,0,5.4,0,1.9c0-3.9,0-7.6,0-11.1v1.9c0,0.3,0,1.6,0,1.9c0,1.1,0,2,0,2.5V-42
						C27261.7-42,27261.7-43.6,27261.7-43.7L27261.7-43.7z"/>
				</g>
			</g>
		</g>
	</g>
</g>
</svg>
