<?xml version="1.0" encoding="utf-8"?>
<!-- Generator: Adobe Illustrator 19.2.0, SVG Export Plug-In . SVG Version: 6.00 Build 0)  -->
<svg version="1.1" id="Слой_1" xmlns="http://www.w3.org/2000/svg" xmlns:xlink="http://www.w3.org/1999/xlink" x="0px" y="0px"
	 viewBox="0 0 120 155.7" style="enable-background:new 0 0 120 155.7;" xml:space="preserve">
<style type="text/css">
	.st0{fill:#FFFFFF;}
	.st1{fill:#2E0B01;}
	.st2{opacity:0.55;fill:#2E0B01;enable-background:new    ;}
	.st3{opacity:0.2;enable-background:new    ;}
	.st4{fill:#44A3BC;}
	.st5{fill:#CB242D;}
	.st6{fill:#DC5B2B;}
	.st7{opacity:0.5;}
	.st8{fill:#C5CB79;}
	.st9{fill:#E2001A;}
	.st10{fill:#B70718;}
	.st11{fill:#EFB886;}
	.st12{fill:#BBDBE8;}
	.st13{fill:#50542E;}
	.st14{opacity:0.1091;fill:#FFFFFF;enable-background:new    ;}
	.st15{opacity:0.5;fill:#CB242D;enable-background:new    ;}
	.st16{opacity:0.6;}
	.st17{fill:#EC9488;}
	.st18{fill:none;stroke:#50542E;stroke-linecap:round;stroke-miterlimit:10;}
	.st19{opacity:0.2;fill:#55721A;enable-background:new    ;}
	.st20{fill:#55721A;}
	.st21{fill:none;stroke:#FFFFFF;stroke-miterlimit:10;}
	.st22{fill:none;stroke:#C5CB79;stroke-width:2;stroke-miterlimit:10;}
	.st23{fill:#CDC09E;}
	.st24{opacity:0.1;fill:#44A3BC;}
	.st25{opacity:0.9;}
	.st26{opacity:0.9;fill:#44A3BC;enable-background:new    ;}
	.st27{opacity:0.1091;fill:#44A3BC;enable-background:new    ;}
	.st28{opacity:0.1091;fill:#55721A;enable-background:new    ;}
	.st29{opacity:0.4;}
	.st30{opacity:0.9;fill:#55721A;enable-background:new    ;}
	.st31{opacity:0.4;fill:#55721A;}
	.st32{fill:#D95929;}
	.st33{fill:#F68D1A;}
	.st34{fill:#FFC73B;}
	.st35{fill:#FABC14;}
	.st36{fill:#FCAD17;}
	.st37{fill:none;stroke:#FFFFFF;stroke-width:2;stroke-miterlimit:10;}
	.st38{fill:none;stroke:#44A3BC;stroke-width:20;stroke-miterlimit:10;}
	.st39{fill:none;stroke:#44A3BC;stroke-width:20;stroke-linejoin:round;stroke-miterlimit:10;}
	.st40{fill:none;}
	.st41{fill:#3B5998;}
	.st42{fill:none;stroke:#000000;stroke-width:2;stroke-miterlimit:10;}
	.st43{opacity:0.6;fill:#333333;}
</style>
<g>
	<path class="st1" d="M87.5,89c0,0-1.2,2.5-2.3,3.4c-1.2,0.9-2.3,0.9-2.6,0.9c-0.4,7.6-5.2,13.1-11.8,13.1c-3.3,0-5.8-1.9-5.8-5.6
		v-0.4c-1.7,2.7-5.7,7.4-9.3,7.4c-1.1,0-2.9-0.2-2.9-2.8c0-1.2,0.5-2.8,0.9-4.5c0.4-1.9,1.4-5,1.5-5.7v-0.2c0-0.4-0.2-0.7-0.7-0.7
		c-0.8,0-3.1,1.2-4.8,7.1c-0.5,1.8-1.6,4.8-2,6.1c-0.7,1.9-4.6,2.7-5.6,2.7c-0.8,0-1.2-0.2-1.2-0.7c0-0.1,0-0.2,0.1-0.3
		c0.4-1.3,1.7-4.8,2.3-6.9c0.4-1.1,2.2-5.9,2.2-6.4c0-0.2,0.1-0.3,0.1-0.4c0-0.4-0.1-0.5-0.5-0.5c-1.1,0-4.2,4.6-7.5,10.3
		c-2.7,4.6-6.1,7.7-8.9,8.2c-3.9,0.5-6.7-6.6-8.4-6.4c-0.4,1.7-0.8,3.3-1.2,5c-0.3,1.2-0.5,2.6-0.8,3.8l-0.3,1.5
		c0,0.1-0.1,0.3-0.2,0.5c-0.4,1.4-5.1,4.2-7.4,4.7c-0.6,0.2-0.7-0.2-0.8-0.4c-0.1-0.2,0-0.7,0-0.9c0.9-3.8,2-7.7,3.5-12.6
		c-1-0.2-1.9-0.3-1.9-1.7c0.1-1.7,1.9-3.4,3.6-3.8c0.8-2.7,1.4-5.2,2-6.9l0.2-0.5c-4.3,0.4-8.4,1.9-11.6,7c-0.3,0.4-0.5,0.7-0.9,0.8
		c-0.4,0.1-1-0.1-1.1-0.6c0-0.2,0-0.5,0.2-1c2.6-6.4,8.7-10.3,14.7-10.9c0.5-1.2,2.4-4.3,6.3-4.3c1.6,0,3.5,0.9,3.5,3
		c0,2.1-1.6,4.1-4.7,5.1c-0.8,2.4-1.2,4.6-2,7.6c0,0,0.9-0.4,1.3-0.7c3.4-2.8,7.2-8.3,9.5-11.6c4.1-5.6,6.6-7.8,16.1-8.8
		c0.6-0.1,1.2-0.1,1.8,0c0.4,0.1,0.5,0.4,0.5,0.9c0,0.4-0.4,0.9-1.2,1s-2.2,0.4-3.1,0.7c-3.2,1-6,2.7-8.8,7.3
		c-3.9,6.3-6.6,9.8-11.5,11.9c-0.7,0.4-0.7,0.3-1.2,0.4c0.4,0.1,0.6,0.3,1.1,0.5c1,0.6,1.9,1.7,2.9,2.4c1,0.8,1.5,0.6,1.9,0.5
		c1.6-0.5,3-2.2,5-5.3c1.4-2.2,3-4.7,4.9-7.2c1.2-1.5,4.8-5.5,8.5-5.5c1.7,0,2.5,0.6,2.5,1.9c0,0.4-0.4,1.8-0.7,2.7
		c1.7-2.5,4.8-5.3,8.4-5.3c1.9,0,2.7,1.2,2.7,2.4c0,0.9-0.9,3.9-1.2,5.3c-0.4,1.7-1.3,4.8-1.3,5.4c0,0.7,0.2,0.9,0.7,0.9
		c1.1,0,4.5-3.6,5.1-5.9c1.6-5.4,5.8-9,11.1-9c2.5,0,4.4,1.1,5.3,3.2c0.1,0.2,0.4,0.4,0.6,0.4c1.2-0.3,1.7-1.1,2.1-2.2
		c-0.9-0.5-1.5-1.5-1.4-2.9c0.1-1.9,1.2-3.7,3.4-3.5c1.7,0.2,2.2,1.3,2.2,2.2c0,0.3,0,0.5-0.1,0.9c3.5,0,6,0.2,6,2.7
		c0,0.9-0.5,3.1-0.9,4.2c-0.3,0.9-1.3,4.3-1.4,5.1c0,0.1-0.1,0.3-0.1,0.4c0,0.4,0.2,0.5,0.5,0.5c0.5,0,1-0.4,1.2-0.7
		c1.1-1.2,5-8.3,5.7-12.5c-1.2-0.4-1.9-1.4-1.9-2.7c0-2.3,1.3-4.3,3.3-4.3c1.5,0,2.6,0.8,2.6,2.3c0,0.3,0,0.4-0.1,0.7
		c5.1,0,7,0.4,7,2.9c0,1.5-0.6,3.7-1.1,5.2c-0.3,1.1-0.9,3.2-1.1,4.1c-0.1,0.4,0.2,0.9,0.6,0.9c0.4,0,0.9-0.3,1.3-0.7
		c1-0.8,1.9-1.8,2.7-2.8c0.2-0.3,0.6-0.5,0.9-0.5c0.5,0,1,0.4,1,0.9c0,0.1,0,0.2-0.1,0.4c-0.5,1.8-5.7,9.4-10.8,9.4
		c-1.2,0-2.5-1.1-2.5-2.8c0-0.9,0.6-3.3,1.3-5.3c0.6-1.9,1.7-4.9,1.9-5.8c0.2-1.2-1.2-1.2-2.3-1.2c-2.1,6.3-6.9,19.4-14.4,19.4
		c-0.6,0-2.8-0.1-2.8-2.7c0-1.5,0.9-3.5,1.7-5.7c0.4-1.2,1.5-5,1.5-5.8C88.8,89.3,88.1,89.1,87.5,89L87.5,89z M72.5,102.6
		c3,0,4-7,4-9.5c0-1.2-0.2-2.8-1.6-2.8c-3,0-4,7-4,9.5C70.9,100.9,71.1,102.6,72.5,102.6z"/>
	<path class="st1" d="M0,92.4C9.2,76.9,24.3,69,42.7,65.8c16.5-2.9,34.6-1.8,48.7-5.1c18.6-4.5,25-9.9,28.6-17.3
		c-3.4,13.6-17.2,22.8-39.4,26.4c-22,3.5-32.1,0.1-54.2,6.6c-9.8,2.9-14.4,5.8-19.2,9.3C3.2,88.6,0,92.4,0,92.4L0,92.4z"/>
	<path class="st1" d="M37.5,62.9c19.9-4.7,33.3-2.1,51.9-4.8c5.6-0.8,9.9-1.7,13.3-2.7V0H18.3v71C23.5,67.6,29.8,64.8,37.5,62.9
		L37.5,62.9z M91.4,62c2.2-0.5,4.3-1.2,6.2-1.8C95.7,60.9,93.7,61.5,91.4,62z M42.7,67.2c-0.9,0.2-1.7,0.4-2.6,0.4
		C41,67.4,41.9,67.4,42.7,67.2C42.8,67.2,42.8,67.2,42.7,67.2C42.8,67.2,42.8,67.2,42.7,67.2z M0,150c9.2-15.5,24.3-20.6,42.7-23.8
		c16.5-2.9,34.6-1.8,48.7-5.1c18.6-4.5,25-12.8,28.6-20.1c-6.3,6.3-9.6,10.5-30.9,13.8c-18.5,2.9-31.8,0.6-51.6,5.4
		C12.4,126.2,1.5,143.5,0,150L0,150z"/>
	<g>
		<path class="st1" d="M102.8,116v-0.2c-1.7,0.8-3.5,1.5-5.4,2.1C99.4,117.3,101.2,116.6,102.8,116L102.8,116z M80.6,127.4
			c-22,3.5-33.1,0.2-55.2,6.7c-2.8,0.8-5.1,1.6-7,2.4v19.2h0.1l0.1-0.1l1-0.6c1.6-1.1,4.4-2.3,7.5-3.3c2.3-0.7,4.4-1.3,6.6-1.9
			c1.5-0.4,3.7-0.8,6.6-1.2c2.9-0.5,5.1-0.8,6.6-0.9h0.6c0.2,0,0.4,0,1-0.1c0.3,0,0.6-0.1,0.9-0.1l0.8-0.1l0.8-0.1l0.8-0.1
			c0.4,0,1.1-0.1,2.2-0.1l1.5-0.1c1,0,2-0.1,3.1-0.1h5.2c0.9,0,1.5,0,2-0.1c0.4-0.1,0.8-0.1,0.9-0.1h0.5l1.4-0.1h0.6l0.7-0.1
			l1.8-0.2c0.7-0.1,1.6-0.2,2.7-0.3c5.1-0.5,8-1,12-1.8c4.3-0.9,8.3-1.9,11.7-3.1c1.6-0.5,2.5-0.9,4.7-1.8v-19.1
			C96.9,123.6,89.4,125.9,80.6,127.4L80.6,127.4z"/>
	</g>
</g>
<g>
	<g id="XMLID_557_" class="st7">
		<g id="XMLID_722_">
			<g id="XMLID_723_">
				<g id="XMLID_724_">
					<path id="XMLID_729_" class="st14" d="M27607.4-117.6c0-3.2,0-6.4,0-9.6c0-1.5,0-3.2,0-4.9c0-3.9,0-8.4,0-13.8c0-1.5,0-3,0-4.4
						c0-4,0-7.9,0-11.9c0-5.3,0-10.5,0-15.8c0-3.8,0-7.5,0-11.1c0-3.7,0-7.3,0-10.7c0-6.9,0-13,0-19s0-11.9,0-18.3
						c0-3.1,0-6.3,0-9.7c0-3.6,0-7.2,0-10.9c0-0.8,0,1,0,0.9c0,0.9,0,2.3,0,3.2c0,2.9,0,5.6,0,8.2c0,1.8,0,3.5,0,5.1
						c0,4.2,0,8.1,0,11.9c0,7.7,0,14.8,0,22.8c0,3.1,0,6.3,0,9.6c0,4.2,0,8.6,0,13.2c0,0-65535,22216.5,0,28.2c0-0.9,0-1.9,0-2.8
						c0,6.4,0,13.2,0,18.3c0,1.8,0,3.5,0,5.1c0,4.2,0,8.1,0,11.9c0,0.2,0,2.1,0,2.3C27607.4-119.9,27607.4-117.6,27607.4-117.6
						L27607.4-117.6z"/>
				</g>
			</g>
		</g>
	</g>
</g>
<g>
	<g id="XMLID_1525_" class="st16">
		<g id="XMLID_1556_">
			<g id="XMLID_1557_">
				<g id="XMLID_1558_">
					<path id="XMLID_1561_" class="st14" d="M27607.4-192.1c0-0.5,0-1.3,0-2.5c0,1.2,0,2.5,0,3.7c0,1.3,0,2.6,0,4c0,0.6,0,1,0,1.2
						c0,2,0,4.4,0,6.4l0,0c0-0.9,0-1.2,0-2.1c0-1.5,0-4.7,0-6.1C27607.4-189.8,27607.4-190.8,27607.4-192.1c0-1,0-1.8,0-2.5
						c0-0.9,0-1.4,0-1.6c0,0,0,3.5,0,3.7c0,2.4,0,4.7,0,6.4c0,1.7,0,2.7,0,3.6c0,0,0-3.4,0-3.7c0-7.4,0-15,0-23c0,1.2,0,2.5,0,3.7
						c0,3.9,0,7.4,0,10.6c0,2.2,0,5,0,8.4c0,0.1,0-2,0-1.9c0-0.3,0-1.6,0-1.9c0-3.5,0-7,0-10.9c0-1.5,0-3,0-4.7c0-2.3,0-4.9,0-7.7
						c0,1.2,0,2.4,0,3.7c0,1.5,0,2.9,0,4.3c0,2.8,0,5.1,0,7.1c0,0.1,0-1.3,0-1.5c0-0.5,0-1.9,0-2.2c0-8.5,0-16.6,0-24.6
						c0-0.3,0,0.9,0,0.9c0,0.5,0,2.2,0,2.6c0,0-65535,22257.1,0,11.9c0,0,0-3.4,0-3.7c0-3.3,0-6.9,0-10.7c0-3.7,0-7.5,0-11.6v3.6
						c0,2.9,0,3.9,0,6.3c0,2.8,0,4.5,0,6c0-0.1,0-0.2,0-0.4c0-1.5,0-2.9,0-4.4c0-2.2,0-3.6,0-5.1c0,0.1,0,1.8,0,1.9
						c0,0.3,0,1.6,0,1.9c0,1,0,1.9,0,2.9c0-0.1,0-0.3,0-0.4c0-0.6,0-1.4,0-2.5c0-2.2,0-5.4,0-9.7v1.5c0,0.6,0,1.7,0,2.2
						c0,4.1,0,8,0,11.6c0,3.8,0,7.4,0,10.7c0-1.2,0-2.4,0-3.7c0-0.7,0-1.7,0-3.2c0-2.1,0-5,0-8.5v3.6c0,8,0,16.1,0,24.6
						c0-1.2,0-2.4,0-3.7c0-3,0-6.8,0-11.5c0-0.1,0,1.3,0,1.5c0,0.5,0,1.8,0,2.2c0,4.5,0,8.7,0,12.6c0,3.8,0,7.3,0,10.9
						c0-1.3,0-2.5,0-3.8s0-2.5,0-3.8c0-1.6,0-3.1,0-4.6c0-0.9,0-1.7,0-2.5c0-2.4,0-5.1,0-8.1c0-0.1,0,2,0,1.9c0,0.4,0,1.6,0,1.8
						c0,8,0,15.6,0,23c0-1.2,0-2.5,0-3.7c0-0.9,0-1.9,0-3.6s0-3.9,0-6.4c0,1.2,0,2.5,0,3.7c0,0.7,0,1.7,0,4.2c0,1.6,0,3.3,0,6.2
						c0-1.1,0-2.3,0-3.4c0,4.7,0,5.4,0,1.9c0-3.9,0-7.6,0-11.1v1.9c0,0.3,0,1.6,0,1.9c0,1.1,0,2,0,2.5v-1.9
						C27607.4-190.4,27607.4-192,27607.4-192.1L27607.4-192.1z"/>
				</g>
			</g>
		</g>
	</g>
</g>
</svg>
