<?xml version="1.0" encoding="utf-8"?>
<!-- Generator: Adobe Illustrator 19.2.0, SVG Export Plug-In . SVG Version: 6.00 Build 0)  -->
<svg version="1.1" id="Слой_1" xmlns="http://www.w3.org/2000/svg" xmlns:xlink="http://www.w3.org/1999/xlink" x="0px" y="0px"
	 viewBox="0 0 120 84" style="enable-background:new 0 0 120 84;" xml:space="preserve">
<style type="text/css">
	.st0{fill:#FFFFFF;}
	.st1{fill:#2E0B01;}
	.st2{opacity:0.55;fill:#2E0B01;enable-background:new    ;}
	.st3{opacity:0.2;enable-background:new    ;}
	.st4{fill:#44A3BC;}
	.st5{fill:#CB242D;}
	.st6{fill:#DC5B2B;}
	.st7{opacity:0.5;}
	.st8{fill:#C5CB79;}
	.st9{fill:#E2001A;}
	.st10{fill:#B70718;}
	.st11{fill:#EFB886;}
	.st12{fill:#BBDBE8;}
	.st13{fill:#50542E;}
	.st14{opacity:0.1091;fill:#FFFFFF;enable-background:new    ;}
	.st15{opacity:0.5;fill:#CB242D;enable-background:new    ;}
	.st16{opacity:0.6;}
	.st17{fill:#EC9488;}
	.st18{fill:none;stroke:#50542E;stroke-linecap:round;stroke-miterlimit:10;}
	.st19{opacity:0.2;fill:#55721A;enable-background:new    ;}
	.st20{fill:#55721A;}
	.st21{fill:none;stroke:#FFFFFF;stroke-miterlimit:10;}
	.st22{fill:none;stroke:#C5CB79;stroke-width:2;stroke-miterlimit:10;}
	.st23{fill:#CDC09E;}
	.st24{opacity:0.1;fill:#44A3BC;}
	.st25{opacity:0.9;}
	.st26{opacity:0.9;fill:#44A3BC;enable-background:new    ;}
	.st27{opacity:0.1091;fill:#44A3BC;enable-background:new    ;}
	.st28{opacity:0.1091;fill:#55721A;enable-background:new    ;}
	.st29{opacity:0.4;}
	.st30{opacity:0.9;fill:#55721A;enable-background:new    ;}
	.st31{opacity:0.4;fill:#55721A;}
	.st32{fill:#D95929;}
	.st33{fill:#F68D1A;}
	.st34{fill:#FFC73B;}
	.st35{fill:#FABC14;}
	.st36{fill:#FCAD17;}
	.st37{fill:none;stroke:#FFFFFF;stroke-width:2;stroke-miterlimit:10;}
	.st38{fill:none;stroke:#44A3BC;stroke-width:20;stroke-miterlimit:10;}
	.st39{fill:none;stroke:#44A3BC;stroke-width:20;stroke-linejoin:round;stroke-miterlimit:10;}
	.st40{fill:none;}
	.st41{fill:#3B5998;}
	.st42{fill:none;stroke:#000000;stroke-width:2;stroke-miterlimit:10;}
	.st43{opacity:0.6;fill:#333333;}
</style>
<g>
	<g id="XMLID_557_" class="st7">
		<g id="XMLID_722_">
			<g id="XMLID_723_">
				<g id="XMLID_724_">
					<path id="XMLID_729_" class="st14" d="M27090.5-276.9c0-3.2,0-6.4,0-9.6c0-1.5,0-3.2,0-4.9c0-3.9,0-8.4,0-13.8c0-1.5,0-3,0-4.4
						c0-4,0-7.9,0-11.9c0-5.3,0-10.5,0-15.8c0-3.8,0-7.5,0-11.1c0-3.7,0-7.3,0-10.7c0-6.9,0-13,0-19s0-11.9,0-18.3
						c0-3.1,0-6.3,0-9.7c0-3.6,0-7.2,0-10.9c0-0.8,0,1,0,0.9c0,0.9,0,2.3,0,3.2c0,2.9,0,5.6,0,8.2c0,1.8,0,3.5,0,5.1
						c0,4.2,0,8.1,0,11.9c0,7.7,0,14.8,0,22.8c0,3.1,0,6.3,0,9.6c0,4.2,0,8.6,0,13.2c0,0-65535,22216.5,0,28.2c0-0.9,0-1.9,0-2.8
						c0,6.4,0,13.2,0,18.3c0,1.8,0,3.5,0,5.1c0,4.2,0,8.1,0,11.9c0,0.2,0,2.1,0,2.3C27090.5-279.2,27090.5-276.9,27090.5-276.9
						L27090.5-276.9z"/>
				</g>
			</g>
		</g>
	</g>
</g>
<g>
	<g id="XMLID_1525_" class="st16">
		<g id="XMLID_1556_">
			<g id="XMLID_1557_">
				<g id="XMLID_1558_">
					<path id="XMLID_1561_" class="st14" d="M27090.5-351.5c0-0.5,0-1.3,0-2.5c0,1.2,0,2.5,0,3.7c0,1.3,0,2.6,0,4c0,0.6,0,1,0,1.2
						c0,2,0,4.4,0,6.4l0,0c0-0.9,0-1.2,0-2.1c0-1.5,0-4.7,0-6.1c0-2.3,0-3.3,0-4.5c0-1.1,0-1.9,0-2.6c0-0.9,0-1.4,0-1.6
						c0,0,0,3.5,0,3.7c0,2.4,0,4.7,0,6.4c0,1.7,0,2.7,0,3.6c0,0,0-3.4,0-3.7c0-7.4,0-15,0-23c0,1.2,0,2.5,0,3.7c0,3.9,0,7.4,0,10.6
						c0,2.2,0,5,0,8.4c0,0.1,0-2,0-1.9c0-0.3,0-1.6,0-1.9c0-3.5,0-7,0-10.9c0-1.5,0-3,0-4.7c0-2.3,0-4.9,0-7.7c0,1.2,0,2.4,0,3.7
						c0,1.5,0,2.9,0,4.3c0,2.8,0,5.1,0,7.1c0,0.1,0-1.3,0-1.5c0-0.5,0-1.9,0-2.2c0-8.5,0-16.6,0-24.6c0-0.3,0,0.9,0,0.9
						c0,0.5,0,2.2,0,2.6c0,0-65535,22257,0,11.9c0,0,0-3.4,0-3.7c0-3.3,0-6.9,0-10.7c0-3.7,0-7.5,0-11.6v3.6c0,2.9,0,3.9,0,6.3
						c0,2.8,0,4.5,0,6c0-0.1,0-0.2,0-0.4c0-1.5,0-2.9,0-4.4c0-2.2,0-3.6,0-5.1c0,0.1,0,1.8,0,1.9c0,0.3,0,1.6,0,1.9c0,1,0,1.9,0,2.9
						c0-0.1,0-0.3,0-0.4c0-0.6,0-1.4,0-2.5c0-2.2,0-5.4,0-9.7v1.5c0,0.6,0,1.7,0,2.2c0,4.1,0,8,0,11.6c0,3.8,0,7.4,0,10.7
						c0-1.2,0-2.4,0-3.7c0-0.7,0-1.7,0-3.2c0-2.1,0-5,0-8.5v3.6c0,8,0,16.1,0,24.6c0-1.2,0-2.4,0-3.7c0-3,0-6.8,0-11.5
						c0-0.1,0,1.3,0,1.5c0,0.5,0,1.8,0,2.2c0,4.5,0,8.7,0,12.6c0,3.8,0,7.3,0,10.9c0-1.3,0-2.5,0-3.8c0-1.3,0-2.5,0-3.8
						c0-1.6,0-3.1,0-4.6c0-0.9,0-1.7,0-2.5c0-2.4,0-5.1,0-8.1c0-0.1,0,2,0,1.9c0,0.4,0,1.6,0,1.8c0,8,0,15.6,0,23c0-1.2,0-2.5,0-3.7
						c0-0.9,0-1.9,0-3.6c0-1.7,0-3.9,0-6.4c0,1.2,0,2.5,0,3.7c0,0.7,0,1.7,0,4.2c0,1.6,0,3.3,0,6.2c0-1.1,0-2.3,0-3.4
						c0,4.7,0,5.4,0,1.9c0-3.9,0-7.6,0-11.1v1.9c0,0.3,0,1.6,0,1.9c0,1.1,0,2,0,2.5v-1.9C27090.5-349.8,27090.5-351.4,27090.5-351.5
						L27090.5-351.5z"/>
				</g>
			</g>
		</g>
	</g>
</g>
<g>
	<path class="st1" d="M67.9,5.5l-0.8,2.8l1,0.3l0.8-3.9l-0.2-0.1L67.5,5L67.9,5.5z M72.9,5.6l-0.6,0.7c0.6-0.1,1,0,1.4,0.4l-1,0.8
		c0.5,0.2,0.8,0.6,0.9,1.1l-0.1,0.1c-0.3,0.4-0.6,0.6-1.1,0.6l-0.1-0.1C72,9,71.9,8.7,71.9,8.2l-0.8,0.6l0.8,0.9
		c0.4,0.4,0.8,0.5,1.3,0.3c1.2-0.5,1.4-1.2,0.6-2.2l1.3-1L72.9,5.6L72.9,5.6z M81.2,14.5c0.1,0.6,0.5,1,1.2,1.2
		c1.1,0.1,1.6-0.4,1.6-1.5c0-0.8-0.3-1.2-1-1.2l1.9-0.2c-0.8-0.9-1.7-1-2.8-0.3C81.3,12.9,81,13.6,81.2,14.5L81.2,14.5z M83.1,14.6
		c-0.2,0.2-0.3,0.3-0.6,0.3c-0.2,0-0.4-0.1-0.5-0.2c-0.1-0.1-0.2-0.3-0.2-0.5c0-0.3,0.1-0.4,0.3-0.6c0.2-0.2,0.4-0.3,0.6-0.3
		c0.2,0,0.3,0.1,0.5,0.2c0.1,0.1,0.2,0.3,0.2,0.5C83.3,14.2,83.2,14.4,83.1,14.6z M77.3,12.1c1,0.5,1.7,0.3,2.1-0.6
		c0.2-0.3,0.2-0.6,0.1-0.9c-0.2-0.6-0.6-1-1.3-1l1.7-0.5l-0.7-0.5c-1.3,0-2.1,0.6-2.6,1.9C76.4,11.2,76.6,11.7,77.3,12.1z
		 M78.5,10.3c0.1,0.1,0.2,0.3,0.3,0.4c0,0.2-0.1,0.4-0.2,0.6c-0.1,0.2-0.3,0.3-0.4,0.4c-0.3,0.1-0.4,0-0.6-0.1
		c-0.1-0.1-0.3-0.3-0.3-0.5c0-0.3,0-0.4,0.2-0.6c0.1-0.2,0.3-0.3,0.5-0.4L78.5,10.3L78.5,10.3z M75.5,15l0.2,0.1
		c2.4,1.9,3.3,3.5,2.8,4.7c-0.4,0.8-1.5,1.3-3.2,1.4c-1.9,0.1-4.1-0.3-6.8-1.2c-4-1.3-6.7-3-8-4.9v0.4c0.3,0.7,1.2,1.4,2.4,2.2
		l0.3,0.1c0.1,1.5,0.6,2.7,1.5,3.8l-0.4-1.2l0.8,0.7l-0.6-1l0.9,0.6l-1-1.3c0.4,0.3,0.8,0.5,1.1,0.7L64.4,19
		c0.4,0.2,0.8,0.3,1.2,0.4l-0.3-0.3c1.9,1,4,1.7,6.1,2.1l-2.8-0.1l1.8,0.6h-2.2l1.5,0.7l-2-0.1l1.5,0.6L67.4,23l1.2,0.6L67,23.4
		l0.5,0.4c-0.7-0.3-1.5-0.7-2.2-1.2c0.1,0.3,0.4,0.6,0.7,0.8c1.6,0.9,3.2,1.1,4.9,0.6l-0.3,0.8c-0.3,0.4-0.6,0.6-1,0.7
		c-1.2,0-2.5-0.2-3.7-0.6c-1.6-0.6-2.6-1.7-3-3.3l0.1,1L62.9,23c-0.4,0.9-0.3,1.7,0.4,2.4l-0.4-1.2l0.6,0.6l-0.3-1.1l1,1h0.1
		c-0.3-0.3-0.5-0.6-0.6-0.9l-0.1-0.3c0.8,1,2,1.7,3.3,2.1l-1.2-0.2c0.4,0.2,0.7,0.4,1.1,0.6c-0.2,0.2-0.5,0.3-1,0.1l-0.5-0.1
		l0.8,0.6c-0.2,0.1-0.4,0.2-0.6,0.1l-1-0.3c0.4,0.5,1,0.8,1.7,0.8c0.4,0.1,0.8,0,1.1-0.1l0.4-0.3h0.3c-0.3,1.2-1,1.8-2.2,1.8
		c-1.5-0.1-2.7-0.9-3.5-2.2c-0.6-0.9-0.6-1.8-0.4-2.8l-0.4,0.7l-0.1,0.4v0.3c0,1.1,0.8,2.2,2.5,3.3l0.2,0.1c0.3,0.1,0.1,0.1-0.3,0
		c-0.4-0.1-0.8-0.3-1.2-0.6l0.4,0.4c0.3,0.3,0.4,0.6,0.4,0.6s-0.3,0-0.6-0.1c-0.3-0.1-0.6-0.3-0.8-0.4c0.3,0.5,0.6,0.8,0.9,1
		c-0.3,0.2-0.8,0-1.5-0.6c0.3,0.5,0.5,0.8,0.8,1c-0.3,0.3-0.7,0-1.5-0.8l0.3,0.5c0.3,0.4,0.3,0.6,0.3,0.8c-0.1,0.1-0.5-0.1-1.3-0.8
		c0.3,0.6,0.5,1,0.6,1c-0.3,0.3-0.7,0-1.3-0.8c0.2,0.6,0.3,1,0.4,1.2c-0.2,0-0.4-0.1-0.6-0.4l-0.7-0.6c0.3,0.6,0.5,1,0.4,1.2
		c0,0.2-0.4-0.2-1.1-1c0,0.4,0.1,0.8,0.4,1.2c-0.4,0-0.8-0.4-1.2-1.2c-0.2,0-0.1,0.3,0.1,1v0.1H57c-0.3-0.2-0.4-0.5-0.7-1.1
		c-0.1-0.1-0.1-0.1-0.1,0l0.1,0.8l-0.1,0.1L55.3,29v1.2c-0.4-0.4-0.7-0.9-0.8-1.5l-0.1,1.2l-0.6-1.5l-0.1,1c-0.1,0-0.3-0.3-0.4-0.7
		l-0.1-0.4l-0.3,1l-0.4-1.3l-0.3,0.8c-0.2-0.1-0.3-0.2-0.3-0.4v-0.8l-0.4,0.9L51.3,27l-0.4,0.6v-1l-0.4,0.3h-0.3
		c-0.1,0.2-0.2,0.4-0.2,0.6v0.6c-1-0.4-1.2-1.2-0.8-2.2c0.3-0.5,0.6-1,1-1.3c-0.7,0.3-1.2,0.8-1.5,1.5c-0.6-0.4-1-1-1.3-1.7
		l-0.6-0.2c-0.2-0.2-0.3-0.4-0.4-0.6v-0.4l-1.2-4L45,19.1l0.9,3.8c0,0.4,0.1,0.7,0.3,1.1c0.6,1,1.2,2.1,1.9,3.1
		c0.4,1,1.2,1.8,2.2,2.3c0.4,0.2,0.7,0.4,1,0.7c-1.7-0.1-3.3-0.4-4.8-1c-0.6-0.3-1.1-0.1-1.5,0.3l2.1,0.2L46.7,30l0.7-0.1l0.5,0.3
		c-0.1,0.3-0.3,0.3-0.6,0.3h-1.1l1.8,0.4l0.3-0.3h-0.2c0.6-0.6,1.6-0.7,2.9-0.3l-0.2,0.1h0.5l0.3-0.1l0.4,0.3
		c-0.8,0.6-1.7,0.9-2.8,0.8c-2.2,0.2-4.5-0.1-6.7-0.8c1.3,0.6,2.8,1,4.2,1.1c2.1,0.2,3.9-0.1,5.6-1c3.7,2,7.4,1.9,11.4-0.3l0.3,0.2
		c4.2,2.2,9.1,1.8,14.8-1.5c1.3,1.8,3,2.3,5.1,1.5c0.6-0.2,1.1-0.5,1.5-0.9h13.7l0.6,1.1c0.3,0.6,0.6,1.7,1,3.1
		c0.4,1.7,0.8,3.1,1.3,4.2c1.6,4.1,4.6,8.9,9,14.2c0.2,0.2,0.2,0.4,0.1,0.6c-0.1,0.1-0.3,0.1-0.4-0.1c-0.3-0.3-1-0.7-2.2-1.2
		c-1.3-0.5-2.3-0.7-3.1-0.6c0.3,0.6,0.4,1.5,0.3,2.4c-0.2,1.5-0.1,2.6,0.3,3.2c-1.5,0.3-2.2,1.5-1.9,3.8c3-1,5.5-0.3,7.5,2.1
		c1.5,1.7,2.2,3.7,2.4,5.9c0.2,2.3-0.4,4.6-1.6,6.9c0.1-0.6,0.1-1.2,0.1-1.5c-0.2-1.3-0.3-2.4-0.2-3.5c0.1-1.5,0.4-2.6,1-3.2
		c-1-1.6-2.4-1.7-4.1-0.3c-1.5-1.7-3.4-2.2-5.5-1.7c0.6,0.6,0.9,1.2,0.9,2c-0.1,1.2,0,2.2,0.3,3c-1.2,0.3-2,1.2-2.2,2.6
		c-1-0.3-1.9-0.3-2.8,0.1c-0.8,0.4-1.4,0.9-1.8,1.7c-0.5,1-0.5,2.2-0.1,3.7H22.1c0.6-4.6-1.1-6.5-5.1-5.7c-0.2-1.4-0.9-2.2-2.1-2.5
		c0.3-1.2,0.4-2.2,0.4-3c0-0.8,0.3-1.4,0.8-2c-2.1-0.6-3.9,0-5.6,1.7c-1.8-1.4-3.2-1.3-4.2,0.2c0.6,0.8,1,1.9,1.1,3.3
		c0,0.8,0,1.8-0.2,3.1c-0.1,0.5,0,1.2,0.2,2.1c-1.3-2.6-1.9-4.9-1.8-7.1c0.1-2.2,1-4.2,2.7-6.1c1.9-2.2,4.4-2.9,7.4-1.9
		c0.3-2.2-0.4-3.5-1.9-3.7c0.4-1,0.6-2.1,0.4-3.1c-0.2-1.1-0.1-1.9,0.1-2.4c-0.9-0.1-1.9,0.1-3.1,0.5C10,52,9.4,52.3,9.1,52.7
		c-0.2,0.3-0.4,0.3-0.6,0.1c-0.1-0.2-0.1-0.4,0.1-0.6c4.3-5,7.2-9.8,8.9-14c0.4-1.1,0.8-2.6,1.3-4.3c0.4-1.5,0.8-2.5,1.1-3.1
		l0.4-0.9h14l-1-0.8H20.9l0.4-0.7c0.4-0.6,0.8-1.1,1.4-1.5l9.7-0.3c0.3,0,0.6-0.1,1-0.3h-9.9c-0.4-0.3-0.8-0.6-1.3-0.8
		c-1.5-0.7-2.9-0.6-4.4,0.2c-0.2-1.2-0.8-2.2-1.7-3c-0.5-0.4-1.1-0.7-1.7-0.9c-2.4-0.7-4.5-0.1-6.2,1.8c-1.1,1.2-1.5,2.6-1.2,4.2
		c0.1,0.8,0.4,1.5,0.8,2.1c1.1,1.7,2.7,2.2,4.7,1.5c0.3-0.1,0.6-0.3,0.9-0.4l0.9-0.6c0,0.6-0.1,1.3-0.3,2.1c-0.3,0.9-0.6,1.8-1,2.6
		c-0.1-0.3-0.3-0.4-0.4-0.6c-0.8-0.8-1.8-1.2-3-1.3c0.3,1,0.5,1.9,0.6,3c0.3,2.6-0.3,5-1.6,7.2c-0.4-0.6-0.9-1.1-1.5-1.4
		c-1.2-0.6-2.1-0.6-3.1,0.1c0.2,0.4,0.3,0.9,0.4,1.3v2.6C4.4,48,3.9,50,3,52c-2.4,4.9-3.3,10.1-2.8,15.5c0.3,4.2,1.7,7.8,4.2,11
		c2.2,3,5.1,4.7,8.7,5.3c2.6,0.5,4.9-0.1,6.7-1.6h80.3c2.4,1.5,5.1,2.1,8,1.4c3.7-0.9,6.7-3,8.7-6.2c2.8-4.5,3.8-9.4,3.1-14.7
		c-0.3-2.7-1.1-5.4-2.2-8c-1-2.3-1.7-4.6-2.2-7.1c-0.4-2-0.4-3.8,0-5.7c-0.2-0.1-0.4-0.2-0.6-0.2c-1.6-0.2-2.9,0.4-3.9,1.7
		c-2-3.1-2.2-6.5-0.9-10c-0.6,0-1.3,0.1-1.8,0.4c-0.7,0.3-1.3,0.8-1.7,1.5c-0.3-0.6-0.6-1.3-0.8-2.1c-0.3-0.9-0.4-1.8-0.4-2.7
		c0.9,0.9,2,1.3,3.3,1.3c1.2,0.1,2.1-0.3,2.9-1.2c0.6-0.6,1-1.3,1.1-2.2c0.3-2-0.2-3.7-1.6-5.1c-1.3-1.3-2.9-1.8-4.7-1.4
		c-2.4,0.3-3.8,1.7-4.4,3.9c-1.9-1.2-3.7-1.1-5.4,0.2H85.3c0.3,0.3,0.6,0.5,0.6,0.9c0.1,0.3,0.1,0.6,0,0.9c-0.1,0.6-0.4,1.2-1,1.7
		c-0.8,0.6-1.6,1-2.5,1c-0.4,0-0.9-0.1-1.3-0.3c-0.6-0.3-1.1-0.6-1.5-1l-1.1-1.2l0.1,0.4l-0.5,0.3h-0.1L78.1,29H78l-0.1,0.1
		l-0.1,0.1c-2.2,1.3-4.4,2-6.8,2.1l-3.1-0.1l-1.8-0.4c-0.4-0.1-0.7-0.2-1-0.3c-0.3-0.1-0.6-0.2-0.8-0.3l0.8-0.5
		c3.8,0,7.1-1.3,9.9-4.1v0.4l-0.6,0.6c0.4-0.1,0.8-0.4,0.8-0.9c0.1-0.7,0.5-1.2,1.1-1.5c0.1,0.8-0.2,1.4-0.8,1.9l0.6-0.4l0.3-0.4
		l0.1-0.1l0.1-0.3c0.1-0.3,0.1-0.6,0-1l-0.1-0.2c1.5-2.2,3.5-3.8,5.9-4.7L82.1,19c-1.2,0.4-2.2,0.9-3.1,1.6l-0.9,0.8
		c-1.5,1.3-3,2.8-4.5,4.2c-2.3,2.4-5.1,3.5-8.3,3.7l0.8-0.6l1-0.3c0.8-0.4,1.3-1,1.4-1.9c0.1-0.5,0.4-0.9,1-1
		c1.2-0.3,1.8-1.1,1.9-2.4l2.1-1.7c1,0,2.1-0.1,3.1-0.3c0.8-0.3,1.4-0.6,1.7-1.1c0.5-1.1,0.3-2.1-0.4-3.1
		C77.4,16.4,76.5,15.7,75.5,15L75.5,15z M70.3,23.7l-0.8,0.1c0.6-1.2,1.6-1.9,2.8-2.4l0.5,0.1C71.8,22.2,71,22.9,70.3,23.7z
		 M68.6,25.9L68,26.6c-0.3,0.4-0.7,0.5-1,0.4l0.7-0.9C67.9,25.8,68.3,25.7,68.6,25.9z M64.9,28.9l0.6,0.1c-2.3,2.1-5.1,3-8.1,2.8
		c-2.7-0.1-5-1.2-6.8-3.2l-0.1-0.4c2.6,2.4,5.6,3.4,9.2,3C61.6,30.9,63.4,30.2,64.9,28.9L64.9,28.9z M86.2,29.3l0.3-0.6
		c0.1-0.4,0.1-0.8,0-1.2l-0.1-0.4h11c0.3,0.4,0.8,1.2,1.4,2.2L86.2,29.3L86.2,29.3z M103.6,25c1.1-1.4,2.5-2,4.2-1.8
		c1.6,0.3,2.7,1.1,3.4,2.5c0.9,1.9,0.6,3.5-1.2,5c-0.6,0.6-1.5,0.8-2.4,0.6c-1.5-0.3-2.2-1.2-2.2-2.7c0-0.8,0.3-1.4,0.9-1.8
		c0.8-0.5,1.5-0.4,2,0.4c0.4,0.7,0.4,1.3,0,2.1l0.2,0.3l0.4,0.1c0.8-1,1-1.9,0.4-3c-0.4-0.8-1.1-1.2-1.9-1.2c-0.5,0.1-1,0.3-1.3,0.6
		c-1.3,1.2-1.9,2.6-1.6,4.4c0.1,1,0.3,2.1,0.5,3l1.3,5.6h0.6c0.1-1.1,0.4-2.1,0.8-3.1c0.3-0.5,0.6-0.8,1.2-1
		c-0.8,3.5-0.3,6.9,1.7,9.9c-0.1,0.9,0.1,1.7,0.5,2.6l0.4,0.1l0.2-0.1l0.1-0.2c-0.4-1.2-0.3-2.2,0.2-3.3c0.3-0.4,0.6-0.6,1-0.8
		c0.5-0.2,1-0.3,1.4-0.2c-0.4,3.7,0.1,7.1,1.6,10.5c1.9,4.2,2.8,8.5,2.9,13c0.1,5.3-1.7,9.8-5.3,13.5c-1.7,1.8-3.8,3-6.2,3.4
		c-2.5,0.4-4.7,0-6.7-1.4c-0.6-0.5-1.2-1.2-1.7-1.9c-1-1.8-0.8-3.5,0.4-5.1c0.3-0.4,0.6-0.6,1.1-0.7c1.2-0.4,2.1-0.1,2.9,0.8
		c1,1.1,1.2,2.4,0.5,3.7c-0.8-0.1-1.3-0.6-1.5-1.3l-0.7-1.8l-0.5,0.1c-0.2,1.5,0.4,2.8,1.8,3.5c1,0.6,2.1,0.6,3.3,0.3
		c0.8-0.4,1.4-1,1.5-1.9c0.3-1.2-0.1-2.2-1-3c-0.3-0.3-0.6-0.5-1-0.6c-0.7-0.2-1.5-0.3-2.2-0.2c0-1.3,0.6-2.1,2-2.3
		c0.4,0.6,1,0.8,1.6,0.8c0.2-0.1,0.3-0.2,0.4-0.4c-0.4-0.6-0.8-1.2-1.4-1.7c-0.3-0.2-0.4-0.4-0.6-0.8c-0.4-0.9-0.6-2-0.6-3.1
		c1.4,0.1,2.5,0.6,3.3,1.5c0.6,0.7,0.9,1.6,0.8,2.6l0.3,0.3h0.4c0.4-0.9,0.4-1.8-0.2-2.7c0.6-0.6,1.3-0.7,2-0.5l0.4,0.1
		c-0.6,1.7-0.8,3.5-0.6,5.3c0.4,2.9-0.5,5.3-2.7,7.1c1.7-0.6,3-1.7,3.9-3.2c2.2-3.5,2.6-7.1,1.2-11c-1.2-3-3.2-4.9-6.2-5.7
		c-0.9-0.3-1.8-0.4-2.8-0.3c0.1-1.3,0.9-1.9,2.4-1.7l1.7,0.4l0.3-0.6c-1-0.3-1.8-0.8-2.6-1.5l-0.2-0.4c-0.1-1.2-0.3-2.3-0.3-3.4
		c1.9-0.1,3.4,0.6,4.4,2.3c0.4,0.6,0.6,1.2,0.8,1.9l0.1,0.1l0.4-0.2l-0.6-2.6c0.8-0.8,1.6-1,2.6-0.5l0.3,0.2c-1,1.8-1.3,3.7-0.8,5.7
		c0.3,1.2,1,2.1,2.1,2.8c-0.1-1.8-0.4-3.5-1-5.2c-0.1-0.4-0.2-0.8-0.1-1.3c0.1-0.7,0.3-1.4,0.8-2.1c-0.8-1.5-2-1.9-3.6-1.3
		c-3.5-4.2-6.4-8.9-8.7-13.7c-0.8-1.8-1.5-3.7-1.9-5.6c-0.1-0.7-0.3-1.3-0.6-2.1c-0.7-1.7-1.7-3.2-3-4.5c1.3-0.6,2.6-0.5,3.8,0.4
		c-0.1,1.4,0.4,2.7,1.3,3.8l0.4-0.2c-0.4-1.2-0.6-2.4-0.5-3.8C102.8,26.2,103.1,25.5,103.6,25L103.6,25z M105.2,78.8
		c0.4-0.6,0.6-1.3,0.5-2.2s-0.3-1.5-0.8-2.1c1.6-0.3,2.4,0.3,2.5,2C107.3,78,106.6,78.8,105.2,78.8L105.2,78.8z M98.1,79.6
		c0.3,0.8,0.7,1.5,1.2,2.1H21c0.6-0.7,1-1.4,1.3-2.1H98.1z M13.5,22.7c1,0.1,1.8,0.6,2.4,1.3c1.7,1.9,1.9,4,0.6,6.2l0.4,0.3l0.4-0.1
		l0.3-0.3c0.6-1,0.8-2,0.8-3.1l0.4-0.3c1.2-0.8,2.3-0.9,3.6-0.3c-1.5,1.5-2.6,3.2-3.1,5.3c-0.5,1.8-1,3.5-1.7,5.3
		c-2.1,5.8-5.3,10.8-9.5,15.3l-1.1-0.1c-1.2-0.2-2.1,0.3-2.5,1.5c0.6,0.6,0.8,1.4,0.9,2.2c0.1,0.3,0,0.6-0.1,0.9
		c-0.6,1.8-0.9,3.7-0.9,5.5c0.6-0.4,1.2-1,1.5-1.8c1.2-2.4,1-4.6-0.3-6.9c0.6-0.6,1.2-0.7,2-0.4c0.4,0.1,0.6,0.3,0.8,0.6
		c0.1,0.1,0.1,0.3,0,0.4C7.8,55,7.6,55.9,8,56.8l0.6-0.2c0-0.6,0.3-1.2,0.6-1.8c1-1.5,2.4-2.4,4.4-2.5l0.1,3c0,0.4-0.1,0.8-0.5,1.1
		c-0.7,0.6-1.5,1-2.4,1.3l0.1,0.6l2.5-0.5c1.2,0.1,1.7,0.7,1.8,1.9c-1.9-0.1-3.6,0.2-5.2,1.1C9,61.3,8.2,62,7.6,62.7
		c-2.2,2.8-3,5.9-2.2,9.5c0.7,3.5,2.6,6.1,5.6,7.7c-1-0.8-1.7-1.8-2.2-3c-0.4-1.2-0.6-2.4-0.3-3.7c0.3-2.1,0.1-4-0.7-5.8l0.8-0.1
		c0.6,0,1.2,0.1,1.6,0.4l-0.1,0.4c-0.3,0.9-0.3,1.7-0.1,2.5l0.5-0.1c0.3-0.9,0.8-1.7,1.2-2.5c0.6-1.2,1.7-1.8,3.1-1.9l-0.2,1.8
		c-0.1,0.7-0.3,1.4-0.6,2.1c-0.1,0.3-0.3,0.4-0.6,0.5c-0.4,0.3-0.8,0.5-1.2,0.9l0.2,0.6c0.2,0,0.4,0,0.6-0.1
		c0.6-0.3,1.1-0.4,1.6-0.6c1.1,0.3,1.7,1,1.8,2.2c-1.2-0.3-2.3-0.1-3.2,0.7c-1.2,1-1.6,2.3-1,3.8c0.3,0.8,0.8,1.3,1.7,1.5
		c1.2,0.3,2.2,0.2,3.2-0.4c1.2-0.8,1.7-2,1.5-3.5l-0.6,0.1L18,76.3c-0.3,1.2-0.8,2-1.9,2.2c-0.5-0.9-0.6-1.8-0.2-2.8
		c0.6-1.4,1.5-2.1,3-2c1.5,0.2,2.4,1.1,2.6,2.6c0.4,2.1-0.2,3.8-1.9,5.3c-0.5,0.4-1.1,0.7-1.7,1c-3.3,1.2-6.4,0.8-9.3-1.1
		c-1.3-0.8-2.4-1.8-3.3-3c-1.9-2.4-3.1-5.1-3.8-8.1c-0.9-4-0.8-7.9,0.3-11.7c0.4-1.4,0.9-2.7,1.5-4c1.9-3.8,2.6-7.9,2-12.1h1.2
		c1.3,0.3,1.9,1,1.8,2.4l-0.1,2.1l0.6,0.1c0.3-0.4,0.4-0.9,0.5-1.5c0.1-0.6,0.3-1,0.5-1.5c1.7-3,2.1-6.2,1.2-9.7
		c1.8,0.8,2.5,2.1,2.1,4.1l0.4,0.2l0.3-0.4c0.1-0.3,0.1-0.4,0.1-0.6c-0.1-0.8,0.1-1.5,0.4-2.2c0.7-1.5,1.2-3,1.2-4.6
		c0.1-1.2,0.1-2.4-0.1-3.5c-0.2-1.2-0.8-2-1.7-2.4c-1-0.4-1.9-0.3-2.6,0.6c-1.2,1.2-1.2,2.4,0,3.4l0.4-0.3l-0.3-1.2
		c-0.1-1.1,0.3-1.7,1.3-1.8c0.6,0,1,0.2,1.3,0.6c0.8,1.2,0.8,2.3-0.1,3.4c-0.7,0.9-1.7,1.2-2.8,1c-1.3-0.3-2.2-1.1-2.6-2.3
		c-0.6-1.9-0.1-3.5,1.2-4.7C10.7,22.8,12,22.5,13.5,22.7L13.5,22.7z M14.6,76.5c-0.1,0.9,0.1,1.6,0.5,2.2c-1.5,0-2.3-0.7-2.2-2.2
		c0.1-1.7,0.9-2.4,2.6-2.2C14.9,75,14.6,75.7,14.6,76.5z"/>
	<path class="st1" d="M69.4,23.9l0.8-0.1c0.7-0.8,1.5-1.5,2.5-2.2l-0.5-0.1C71,21.9,70.1,22.8,69.4,23.9z M68,26.6l0.6-0.6
		c-0.3-0.2-0.6-0.1-0.9,0.1L67,26.9C67.3,27.1,67.6,26.9,68,26.6L68,26.6z M65.5,29l-0.6-0.1c-1.5,1.3-3.3,2.1-5.3,2.4
		c-3.5,0.4-6.5-0.6-9.2-3l0.1,0.4c1.8,2,4.1,3,6.8,3.2C60.4,32,63.2,31,65.5,29L65.5,29z M86.4,28.7l-0.3,0.6h12.6
		c-0.6-1.1-1-1.8-1.4-2.2h-11l0.1,0.4C86.5,27.9,86.5,28.4,86.4,28.7L86.4,28.7z"/>
	<path class="st1" d="M107.8,23.1c-1.7-0.2-3.1,0.4-4.2,1.8c-0.5,0.6-0.8,1.3-0.8,2.1c-0.1,1.3,0.1,2.6,0.5,3.8l-0.4,0.2
		c-0.9-1.2-1.3-2.4-1.3-3.8c-1.2-0.9-2.4-1-3.8-0.4c1.3,1.3,2.2,2.8,3,4.5c0.3,0.6,0.4,1.3,0.6,2.1c0.4,1.9,1,3.8,1.9,5.6
		c2.3,4.9,5.2,9.4,8.7,13.7c1.6-0.6,2.8-0.2,3.6,1.3c-0.5,0.6-0.8,1.3-0.8,2.1c0,0.4,0,0.9,0.1,1.3c0.6,1.7,0.9,3.5,1,5.2
		c-1.1-0.7-1.7-1.6-2.1-2.8c-0.5-2.1-0.3-3.9,0.8-5.7l-0.3-0.2c-1-0.5-1.9-0.3-2.6,0.5l0.6,2.6l-0.4,0.2l-0.1-0.1
		c-0.1-0.7-0.4-1.3-0.8-1.9c-1-1.6-2.5-2.4-4.4-2.3c0.1,1.2,0.3,2.3,0.3,3.4c0,0.2,0.1,0.3,0.2,0.4c0.7,0.7,1.5,1.2,2.6,1.5
		l-0.3,0.6l-1.7-0.4c-1.5-0.2-2.2,0.4-2.4,1.7c1-0.1,1.9,0.1,2.8,0.3c3,0.8,5.1,2.8,6.2,5.7c1.5,3.8,1.2,7.4-1.2,11
		c-1,1.5-2.2,2.6-3.9,3.2c2.2-1.9,3.1-4.2,2.7-7.1c-0.3-1.8-0.1-3.5,0.6-5.3l-0.4-0.1c-0.7-0.3-1.4-0.1-2,0.5
		c0.6,0.9,0.6,1.8,0.2,2.7h-0.4l-0.3-0.3c0-1-0.3-1.8-0.8-2.6c-0.8-1-1.9-1.5-3.3-1.5c0,1.1,0.2,2.1,0.6,3.1
		c0.1,0.3,0.3,0.6,0.6,0.8c0.6,0.4,1,1,1.4,1.7c-0.1,0.2-0.3,0.3-0.4,0.4c-0.6,0-1.2-0.3-1.6-0.8c-1.3,0.2-2,0.9-2,2.3
		c0.8-0.1,1.5,0,2.2,0.2c0.3,0.1,0.7,0.3,1,0.6c0.9,0.8,1.2,1.8,1,3c-0.2,0.9-0.7,1.5-1.5,1.9c-1.2,0.4-2.2,0.3-3.3-0.3
		c-1.4-0.8-2-2-1.8-3.5l0.5-0.1l0.7,1.8c0.3,0.7,0.8,1.2,1.5,1.3c0.6-1.4,0.5-2.6-0.5-3.7c-0.8-0.9-1.7-1.2-2.9-0.8
		c-0.4,0.1-0.8,0.3-1.1,0.7c-1.3,1.6-1.4,3.3-0.4,5.1c0.4,0.8,1,1.4,1.7,1.9c2,1.4,4.2,1.8,6.7,1.4c2.4-0.5,4.5-1.6,6.2-3.4
		c3.6-3.7,5.4-8.2,5.3-13.5c-0.1-4.5-1.1-8.9-2.9-13c-1.5-3.3-2.1-6.9-1.6-10.5c-0.4-0.1-1,0-1.4,0.2c-0.4,0.2-0.8,0.4-1,0.8
		c-0.6,1-0.6,2.1-0.2,3.3l-0.1,0.2l-0.2,0.1l-0.4-0.1c-0.4-0.8-0.6-1.7-0.5-2.6c-2-3-2.6-6.4-1.7-9.9c-0.6,0.1-1,0.4-1.2,1
		c-0.4,1-0.7,2-0.8,3.1h-0.6l-1.3-5.6c-0.2-1-0.4-2-0.5-3c-0.3-1.8,0.3-3.3,1.6-4.4c0.4-0.3,0.8-0.6,1.3-0.6c0.8,0,1.5,0.4,1.9,1.2
		c0.6,1,0.4,2.1-0.4,3l-0.4-0.1l-0.2-0.3c0.4-0.7,0.4-1.3,0-2.1c-0.5-0.8-1.2-0.9-2-0.4c-0.6,0.4-0.9,1-0.9,1.8
		c0,1.5,0.8,2.4,2.2,2.7c0.9,0.2,1.7,0,2.4-0.6c1.7-1.5,2.1-3.1,1.2-5C110.5,24.2,109.4,23.4,107.8,23.1L107.8,23.1z M105.2,25.3
		l0.5-0.2c-1.2,0.9-1.7,2-1.6,3.4C103.4,27.1,103.8,26,105.2,25.3z M110.3,25.9c0.3,0.4,0.4,0.8,0.6,1.2c0.2,1.2-0.4,2.1-1.7,3
		c0.8-0.8,1.3-1.6,1.4-2.4c0.1-0.7-0.3-1.5-1-2.4C109.8,25.3,110.1,25.5,110.3,25.9L110.3,25.9z M103.9,37.1c0.4,1,0.8,1.9,1.4,2.8
		c2.4,3.8,4.8,7.6,7.4,11.2c-2.3-2.6-4.4-5.3-6.4-8.1C105.3,41.2,104.4,39.3,103.9,37.1L103.9,37.1z M108,38.4l0.3,1.7
		c-0.6-1.2-0.6-2.4-0.2-3.6L108,38.4L108,38.4z M115.9,67.7l-0.1-0.3c-0.6-3.5-2.3-6.2-5.1-8.1l1.2,0.8
		C114.5,62.1,115.8,64.6,115.9,67.7L115.9,67.7z M113.5,44.1v1.5c-0.1,0.5,0,1.2,0.1,2.2C113.2,46.6,113.1,45.4,113.5,44.1z
		 M106.6,69.6l0.7,1c-0.9-0.4-1.4-1.2-1.3-2.5C106.1,68.7,106.4,69.2,106.6,69.6z M109.3,77.8c-0.6,2-1.7,3.3-3.3,4
		c5.4-0.8,8.9-3.8,10.5-9.2c-1.7,6.4-5.5,9.6-11.4,9.5c2.1-1.1,3.4-2.5,4-4.4c0.6-1.7,0.4-3.4-0.3-5.2
		C109.8,73.8,110,75.5,109.3,77.8L109.3,77.8z"/>
	<path class="st1" d="M105.7,25.1l-0.5,0.2c-1.3,0.8-1.7,1.8-1.1,3.2C103.9,27.1,104.4,25.9,105.7,25.1z M110.9,27.1
		c-0.1-0.4-0.3-0.8-0.6-1.2c-0.2-0.3-0.4-0.5-0.7-0.6c0.7,0.9,1,1.7,1,2.4c-0.1,0.8-0.6,1.6-1.4,2.4
		C110.5,29.2,111.1,28.2,110.9,27.1L110.9,27.1z M105.3,39.9c-0.6-0.9-1-1.8-1.4-2.8c0.4,2.2,1.3,4.2,2.5,5.9c1.9,2.8,4,5.5,6.4,8.1
		C110.2,47.5,107.7,43.8,105.3,39.9L105.3,39.9z M108.3,40.1l-0.3-1.7l0.1-1.9C107.7,37.7,107.8,38.9,108.3,40.1L108.3,40.1z
		 M115.9,67.5l0.1,0.3c-0.1-3.1-1.4-5.6-4-7.6l-1.2-0.8C113.6,61.3,115.3,64,115.9,67.5L115.9,67.5z M113.5,45.6v-1.5
		c-0.4,1.3-0.3,2.5,0.1,3.7C113.4,46.9,113.4,46.1,113.5,45.6z M107.3,70.6l-0.7-1c-0.3-0.4-0.5-0.9-0.6-1.5
		C105.9,69.4,106.4,70.2,107.3,70.6z M106,81.8c1.6-0.7,2.7-2.1,3.3-4c0.7-2.2,0.5-4-0.5-5.3c0.7,1.8,0.8,3.5,0.3,5.2
		c-0.6,1.9-1.9,3.3-4,4.4c5.8,0.1,9.6-3,11.4-9.5C114.8,77.9,111.4,81,106,81.8L106,81.8z"/>
	<path class="st1" d="M105.6,76.7c0.1,0.9-0.1,1.6-0.5,2.2c1.5-0.1,2.2-0.8,2.2-2.3c-0.1-1.6-0.9-2.2-2.5-2
		C105.3,75.1,105.5,75.8,105.6,76.7L105.6,76.7z M99.3,81.7c-0.5-0.6-0.9-1.2-1.2-2.1H22.3C22,80.3,21.6,81,21,81.7H99.3L99.3,81.7z
		 M15.9,24c-0.6-0.8-1.4-1.2-2.4-1.3c-1.5-0.3-2.8,0.1-3.8,1.2c-1.4,1.3-1.8,2.9-1.2,4.7c0.4,1.2,1.2,2.1,2.6,2.3
		c1.2,0.2,2.1-0.1,2.8-1c0.8-1.1,0.8-2.2,0.1-3.4c-0.3-0.5-0.8-0.7-1.3-0.6c-1,0.1-1.4,0.8-1.3,1.8l0.3,1.2L11,29.1
		c-1.2-1.1-1.2-2.2,0-3.4c0.8-0.8,1.7-1,2.6-0.6s1.6,1.2,1.7,2.4c0.2,1.2,0.3,2.3,0.1,3.5c-0.1,1.6-0.6,3.1-1.2,4.6
		c-0.3,0.7-0.5,1.4-0.4,2.2c0,0.2,0,0.4-0.1,0.6l-0.3,0.4L13,38.6c0.4-2-0.3-3.3-2.1-4.1c0.9,3.4,0.5,6.7-1.2,9.7
		c-0.3,0.5-0.4,1-0.5,1.5c-0.1,0.5-0.3,1-0.5,1.5l-0.6-0.1L8.3,45c0.1-1.3-0.5-2.1-1.8-2.4H5.3c0.6,4.2,0,8.2-2,12.1
		c-0.6,1.3-1.2,2.6-1.5,4c-1.2,3.8-1.2,7.8-0.3,11.7c0.7,3,2,5.6,3.8,8.1c0.9,1.2,2,2.2,3.3,3c3,1.9,6,2.2,9.3,1.1
		c0.6-0.3,1.2-0.6,1.7-1c1.7-1.5,2.2-3.2,1.9-5.3c-0.3-1.5-1.2-2.4-2.6-2.6c-1.4-0.1-2.4,0.6-3,2c-0.4,1-0.3,1.9,0.2,2.8
		c1.1-0.3,1.7-1,1.9-2.2l0.1-0.6l0.6-0.1c0.3,1.5-0.3,2.6-1.5,3.5c-1,0.6-2.1,0.8-3.2,0.4c-0.8-0.3-1.3-0.8-1.7-1.5
		c-0.6-1.5-0.3-2.8,1-3.8c0.9-0.8,2-1,3.2-0.7c-0.1-1.2-0.7-1.9-1.8-2.2c-0.5,0.2-1,0.4-1.6,0.6c-0.3,0.1-0.4,0.2-0.6,0.1l-0.2-0.6
		c0.3-0.3,0.7-0.6,1.2-0.9c0.3-0.1,0.4-0.3,0.6-0.5c0.3-0.6,0.6-1.3,0.6-2.1l0.2-1.8c-1.4,0.1-2.4,0.7-3.1,1.9
		c-0.4,0.8-0.8,1.6-1.2,2.5L10,70.7c-0.1-0.8-0.1-1.7,0.1-2.5l0.1-0.4c-0.5-0.3-1-0.4-1.6-0.4l-0.8,0.1c0.8,1.8,1.1,3.7,0.7,5.8
		c-0.3,1.3-0.1,2.6,0.3,3.7c0.5,1.2,1.2,2.2,2.2,3c-3.1-1.6-5-4.2-5.6-7.7c-0.7-3.5,0.1-6.7,2.2-9.5c0.6-0.8,1.3-1.4,2.2-1.9
		c1.7-0.9,3.4-1.2,5.2-1.1c-0.1-1.2-0.7-1.8-1.8-1.9l-2.5,0.5l-0.1-0.6c0.8-0.3,1.7-0.8,2.4-1.3c0.3-0.3,0.5-0.6,0.5-1.1l-0.1-3
		c-2,0.1-3.4,1-4.4,2.5c-0.3,0.6-0.6,1.2-0.6,1.8l-0.6,0.2c-0.3-1-0.2-1.9,0.3-2.6c0.1-0.1,0.1-0.3,0-0.4c-0.2-0.3-0.4-0.5-0.8-0.6
		c-0.8-0.3-1.5-0.1-2,0.4c1.3,2.2,1.5,4.6,0.3,6.9c-0.3,0.7-0.8,1.3-1.5,1.8c0-1.9,0.3-3.7,0.9-5.5c0.1-0.3,0.1-0.6,0.1-0.9
		c-0.1-0.8-0.3-1.5-0.9-2.2c0.5-1.2,1.3-1.8,2.5-1.5l1.1,0.1c4.2-4.4,7.4-9.5,9.5-15.3c0.6-1.7,1.2-3.5,1.7-5.3
		c0.6-2.1,1.6-3.8,3.1-5.3c-1.2-0.6-2.4-0.5-3.6,0.3l-0.4,0.3c0.1,1.2-0.2,2.1-0.8,3.1l-0.3,0.3l-0.4,0.1l-0.4-0.3
		C17.8,28,17.6,25.9,15.9,24L15.9,24z M16,25.9c0.4,0.8,0.3,1.5-0.1,2.1c0.3-0.3,0.2-1-0.3-1.8c-0.4-0.9-0.8-1.4-1.3-1.6
		C15.1,24.7,15.7,25.1,16,25.9z M10.6,29.6c-0.4-0.3-0.8-0.6-1.1-1.2c-0.8-1.5-0.5-2.6,0.8-3.7C9.1,26.5,9.1,28.1,10.6,29.6z
		 M12.1,38c0,0.8-0.2,1.3-0.5,1.6c0.2-0.4,0.3-1,0.3-1.8L11.8,36C12,36.7,12.1,37.4,12.1,38z M16,36.6l-1.3,3.8
		c-2.1,3.7-4.7,7.2-7.6,10.3l2-3c0.6-0.9,1.2-1.7,1.9-2.5C13.2,42.7,14.9,39.8,16,36.6z M6.4,45.4v-1.5c0.4,1.3,0.3,2.5-0.1,3.7
		C6.4,46.6,6.5,45.9,6.4,45.4z M13,70.4c0.1-0.3,0.3-0.7,0.6-1.2c0.3-0.4,0.5-0.8,0.6-1.3C14.3,69.2,13.9,70.1,13,70.4z M8.1,59.9
		l1.8-1.1c-3.1,2-4.9,4.8-5.6,8.4l-0.1,0.6C4.2,64.6,5.5,61.9,8.1,59.9L8.1,59.9z M13.9,81.5c-1.7-0.9-2.8-2.2-3.2-4.3
		c-0.6-2.2-0.3-3.9,0.8-5.1c-0.8,1.8-0.9,3.6-0.4,5.3c0.6,1.9,1.9,3.3,3.9,4.3C8.9,82.3,5,78.7,3.3,71C4.8,77.3,8.4,80.8,13.9,81.5
		L13.9,81.5z"/>
	<path class="st1" d="M15.9,28c0.4-0.6,0.5-1.3,0.1-2.1c-0.3-0.8-0.9-1.2-1.7-1.3c0.5,0.3,1,0.8,1.3,1.6
		C16.1,27.1,16.2,27.7,15.9,28z M9.5,28.4c0.3,0.5,0.6,0.9,1.1,1.2c-1.5-1.5-1.5-3.1-0.3-4.8C9,25.8,8.7,27,9.5,28.4L9.5,28.4z
		 M11.6,39.6c0.3-0.3,0.5-0.9,0.5-1.6c0-0.6-0.1-1.3-0.3-2l0.1,1.9C11.9,38.7,11.8,39.3,11.6,39.6L11.6,39.6z M14.8,40.5l1.3-3.8
		c-1.2,3.2-2.8,6.1-5.1,8.7l-1.9,2.5l-2,3C10.1,47.7,12.6,44.2,14.8,40.5z M6.4,43.8v1.5c0.1,0.6,0,1.3-0.1,2.2
		C6.7,46.4,6.7,45.2,6.4,43.8L6.4,43.8z M13.6,69.3c-0.3,0.4-0.5,0.8-0.6,1.2c0.8-0.4,1.3-1.2,1.3-2.5
		C14.1,68.5,13.9,68.9,13.6,69.3z M9.9,58.8l-1.8,1.1c-2.6,2.1-3.8,4.7-3.8,7.9l0.1-0.6C4.9,63.6,6.8,60.8,9.9,58.8L9.9,58.8z
		 M10.7,77.2c0.5,2.1,1.5,3.4,3.2,4.3c-5.5-0.6-9-4.2-10.6-10.6c1.7,7.7,5.6,11.4,11.7,10.8c-2.1-0.9-3.3-2.4-3.9-4.3
		c-0.5-1.7-0.3-3.5,0.4-5.3C10.4,73.3,10.1,75,10.7,77.2L10.7,77.2z"/>
	<path class="st1" d="M15.1,78.7c-0.4-0.6-0.6-1.3-0.5-2.2c0.1-0.8,0.3-1.5,0.8-2.1c-1.7-0.3-2.5,0.4-2.6,2.2
		C12.8,78.1,13.5,78.7,15.1,78.7z M79.2,21.1l0.7-0.6c1.1-0.8,2.2-1.2,3.5-1.5l-0.5-0.1c-1.5,0.1-3,0.6-4.3,1.4
		c-0.3,0.5-0.8,0.8-1.7,1.1c-1.6,1.2-3.2,2.5-4.6,3.9c-1.4,1.5-3.1,2.6-4.9,3.5l-1,0.3l-0.8,0.6c3.2-0.1,6-1.3,8.3-3.7
		c1.4-1.4,3-2.8,4.5-4.2L79.2,21.1L79.2,21.1z M74.7,24.1l3.8-3.1c-2.2,2.4-4.7,4.5-7.3,6.4L74.7,24.1L74.7,24.1z"/>
	<path class="st1" d="M78.5,21l-3.8,3.1l-3.5,3.3C73.8,25.5,76.2,23.4,78.5,21L78.5,21z"/>
	<path class="st1" d="M79.9,21.2c0.3-0.3,0.4-0.4,0.3-0.6l-3.4,3.4l0.1,0.2c0.1,0.4,0.1,0.7,0,1l-0.1,0.3l-0.1,0.1
		c-0.2,0.4-0.6,0.6-1,0.8c0.6-0.5,0.8-1.2,0.8-1.9c-0.6,0.3-1,0.8-1.1,1.5c-0.1,0.5-0.4,0.8-0.8,0.9l0.6-0.6V26
		c-2.8,2.8-6.1,4.1-9.9,4.1l-0.8,0.5c0.3,0.1,0.5,0.3,0.8,0.3c0.3,0.1,0.6,0.3,1,0.3l1.8,0.4l3.1,0.1c2.4-0.2,4.6-0.9,6.8-2.1
		l0.1-0.1l0.1-0.1h0.1l0.1-0.1h0.1l0.5-0.3l-0.1-0.4l1.1,1.2c0.4,0.4,0.9,0.7,1.5,1l0.1,0.1c0.4,0.2,0.8,0.3,1.2,0.3
		c0.9,0,1.7-0.3,2.5-1c0.5-0.4,0.8-1,1-1.7v-0.2c0.1-0.3,0-0.4-0.1-0.6c-0.3-0.6-0.8-1.3-1.3-1.8c-1.1-0.3-2.1-0.1-3.1,0.6
		c-0.9,0.6-1.9,1-3.1,1l-0.4,0.4l0.1-0.1l0.4-0.1l0.8-0.1c-0.3,0.3-0.6,0.6-1.1,0.6l-1,0.3l-0.2,0.1h-1.3L75,28.4l-0.8,0.4l0.4,0.2
		l0.3,0.1l2.1-0.2c-0.4,0.3-0.8,0.4-1.2,0.6L74.6,30L74,30l-0.8,0.1l0.2-0.1c-0.3-0.1-0.6-0.2-0.8-0.4l-0.1,0.1
		c-0.5,0.4-1,0.6-1.5,0.8c0.3,0.2,0.3,0.3,0.3,0.3l-0.4,0.1l-2.2-0.1l-1.9-0.1l1.5-0.3c0.8-0.1,1.5-0.2,2.2-0.4
		c1-0.3,1.9-0.7,2.6-1.4l-0.3,0.2c0.1,0,0.1,0,0.2-0.1l0.4-0.3v-0.1l0.3-0.3c0.3-0.3,0.5-0.4,0.8-0.5l-0.1,0.3c0,0.1,0,0.1,0.1,0.1
		l1.2-1l-0.2,0.4l0.2,0.1l0.3-0.3l0.3-0.4c0.3-0.3,0.4-0.4,0.4-0.1l0.3-0.1l0.2-0.1l0.3-0.2l0.1-0.1l0.4-0.4l0.1-0.1v0.3l1.2-1.1
		l-0.3,0.4h0.5l0.7-0.9v-0.1l0.3-0.3c1.3-1.2,2.7-2.4,4.1-3.5l0.5-0.6l-3.7,3c-0.4,0.4-1,0.6-1.5,0.6l3.8-3.6h-0.1
		c-1.4,1.1-2.8,2.2-4,3.5l-0.1,0.1V24l-0.6,0.8c0-0.3,0.1-0.6,0.2-0.9v-0.4c0-0.2,0.1-0.3,0.2-0.4c0.6-1,1.3-1.8,2.1-2.6l-3.2,2.9
		l-0.3,1.7l-0.4,0.3l0.1-0.3l0.3-1.2v-0.3l-0.1,0.1c0-0.1,0.1-0.3,0.2-0.4C78.6,22.5,79.2,21.8,79.9,21.2L79.9,21.2z M84.6,26.9v0.3
		c-1.3,0-2.6,0.3-3.8,0.8C81.9,27.3,83.2,27,84.6,26.9L84.6,26.9z M84.1,28.1l-0.6,0.3l-0.7-0.1h-0.1c-0.5,0.2-1,0.3-1.5,0.5
		l-1.2,0.3l-0.6-0.4c0.4-0.3,0.9-0.4,1.4-0.6l1-0.3c0.6-0.2,1.2-0.2,1.7,0l0.6,0.3L84.1,28.1L84.1,28.1z M84.9,28.5
		c-0.3,0.3-0.6,0.7-1,1l-0.3,0.3c0.6-0.6,1.2-1.3,1.4-2.1l0.2-1C85.5,27.3,85.3,27.9,84.9,28.5L84.9,28.5z M76.6,28.7h-0.3l0.6-0.3
		l0.8-0.1C77.4,28.5,77,28.7,76.6,28.7L76.6,28.7z"/>
	<path class="st1" d="M84.6,27.2v-0.3c-1.3,0-2.6,0.4-3.8,1C81.9,27.5,83.2,27.2,84.6,27.2L84.6,27.2z M84.1,28.1L84.1,28.1
		l-0.5-0.3c-0.9,0-1.8,0.1-2.6,0.4c-0.4,0.1-0.9,0.3-1.4,0.6l0.6,0.4l0.8-0.3l-0.8-0.2c1.1-0.6,2.2-0.8,3.4-0.8l-0.6,0.4l0.7,0.1
		L84.1,28.1L84.1,28.1z"/>
	<path class="st1" d="M80.8,28.9h0.4c0.5-0.1,1-0.3,1.5-0.5h0.1l0.6-0.4c-1.2,0-2.3,0.2-3.4,0.8L80.8,28.9z M85.1,27.6L85,27.9
		c-0.1,0.4-0.3,0.8-0.6,1.1l0.1-0.1l0.4-0.4c0.4-0.6,0.5-1.2,0.3-1.9L85.1,27.6z M76.3,28.7h0.3c0.4,0,0.8-0.2,1.1-0.4l-0.8,0.1
		L76.3,28.7L76.3,28.7z M79.6,23.2l0.1-0.6c-0.3,0.3-0.5,0.7-0.6,1.2c-0.1,0.3-0.1,0.6-0.2,0.9l0.6-0.8v-0.6L79.6,23.2L79.6,23.2z
		 M77.6,25.1L77.6,25.1l-0.1,0.3l0.4-0.3l0.2-1.7L77.6,25.1z"/>
	<path class="st1" d="M80.2,24.2l-0.8,1h-0.5l0.3-0.4L78,25.9v-0.3l-0.1,0.1l-0.5,0.5l-0.3,0.2l-0.2,0.1c-0.1,0.1-0.1,0.1-0.2,0.1
		h-0.1c-0.1-0.2-0.3-0.1-0.6,0.4c-0.1,0.3-0.3,0.4-0.6,0.5l-0.2-0.1l0.2-0.4l-1.2,1c0,0-0.1,0-0.1-0.1l0.1-0.3
		c-0.3,0.1-0.6,0.3-0.8,0.5l-0.3,0.3v0.1c-0.1,0.3-0.3,0.3-0.6,0.3l0.2-0.3c-0.8,0.6-1.7,1.2-2.6,1.4c-0.7,0.3-1.4,0.4-2.2,0.4
		l-1.5,0.3l1.9,0.1l-0.8-0.1l3.1-0.3c0.5-0.1,1-0.3,1.5-0.8l0.1-0.1c0.3,0.2,0.5,0.3,0.8,0.4l1.3-0.3l-0.6,0.3l0.5-0.1l1.2-0.3
		c0.4-0.2,0.8-0.4,1.2-0.6l-2.1,0.2l-0.3-0.1L74,28.7l0.8-0.4l0.9,0.2h1.3l0.2-0.1l0.6-0.3l-0.6-0.1h-0.8L76.1,28l0.6-0.6l1.2,0.4
		l0.3-0.1c0.1-0.3,0.4-0.5,0.8-0.6l-0.6,0.2c-0.4,0.3-0.8,0.3-1.2,0.3l-0.3-0.1l1-0.9l0.5-0.1l0.1-0.3c0.8-0.2,1.4-0.6,2-1l0.1-0.4
		l0.1-0.3l0.4-0.6C80.8,23.7,80.5,23.9,80.2,24.2L80.2,24.2z M73.7,29.4l-0.3-0.1c0.5-0.5,1-0.6,1.5-0.2l0.9-0.2l-0.9,0.3
		C74.7,29.4,74.2,29.5,73.7,29.4L73.7,29.4z"/>
	<path class="st1" d="M73.4,29.3l0.3,0.1c0.5,0.1,1,0,1.2-0.3h-0.1h0.1C74.4,28.7,73.9,28.8,73.4,29.3z"/>
	<path class="st1" d="M74.9,29.1L74.9,29.1L74.9,29.1l0.9-0.2L74.9,29.1z M75.2,21.3c1.7-0.1,2.8-0.6,3.2-1.4
		c0.6-1.3-0.3-2.9-2.8-4.7c-3.6-2.2-7.4-3.3-11.6-3.3c-0.9,0-1.7,0.2-2.6,0.5c-1.6,0.7-2,1.9-1.2,3.3h0.1v-0.4c1.3,2,3.9,3.7,8,4.9
		C71.1,21,73.3,21.4,75.2,21.3L75.2,21.3z M74.3,15.4c0.4,0.3,0.8,0.7,0.8,1.2c-0.2,0.3-0.4,0.5-0.6,0.6c-1.3,0.3-2.3-0.1-3-1.3
		c-0.1-0.2-0.3-0.3-0.4-0.3l1,0.3L71,15l0.8,0.2l-1.6-1l1.4,0.4l-1.7-0.9C71.5,13.9,72.9,14.5,74.3,15.4L74.3,15.4z M77.9,18.5
		c0.1,0.6-0.1,1.2-0.7,1.5c-0.7,0.4-1.7,0.6-3.1,0.5c-1.5-0.1-3.5-0.5-5.7-1.3c-2.2-0.8-4-1.6-5.1-2.4c-1.1-0.8-1.7-1.5-2-2.2
		c-0.2-0.6-0.1-1.2,0.4-1.6c0.4-0.4,1-0.6,1.7-0.6c-1.2,0.7-1.6,1.2-1.2,1.4c0.1,0,0.2-0.1,0.5-0.2c0.3-0.2,0.6-0.3,0.8-0.3v0.2
		c-1,0.6-1.3,0.9-0.9,1.1c0.8-0.3,1.2-0.4,1.2-0.4c-1,0.6-1.2,1-0.8,1.2c0.4-0.4,0.9-0.6,1.3-0.7c-0.8,0.7-1.1,1.1-0.8,1.2
		c0.7-0.4,1.2-0.6,1.2-0.6v0.1c-0.8,0.4-1,0.8-0.7,1c0.6-0.4,1-0.5,1-0.3c-0.7,0.4-0.8,0.7-0.5,0.9c0.6-0.3,0.9-0.4,1.1-0.4
		c-0.2,0.1-0.3,0.3-0.4,0.4c-0.1,0.3-0.1,0.3,0.1,0.3l0.8-0.1l-0.3,0.3c-0.3,0.1-0.3,0.3-0.1,0.4c0.2-0.1,0.4-0.1,0.7,0
		c0.5,0.6,0.8,0.4,0.7-0.9c1-0.3,1.9,0,2.9,0.6c-1.4-0.4-2.4-0.6-2.8-0.4c0,0.2,0.3,0.3,1,0.4c0.8,0.1,1.2,0.2,1.2,0.3
		c-1.3-0.2-2-0.2-1.9,0.1c1.9,0.1,3.2,0.6,4,1.8c0.2-0.3-0.1-0.6-0.7-1.2c0.2-0.1,0.8,0.3,1.7,1.3c0.3-0.2,0.1-0.6-0.6-1.3
		c0.1,0,0.5,0.3,1,0.8l0.8,0.7c0.3-0.2,0.1-0.6-0.6-1.5c0.2,0,0.4,0.2,0.8,0.7l0.6,0.7c0.4-0.1,0.2-0.6-0.6-1.6
		c0.4,0,0.8,0.5,1.4,1.6c0.3-0.4,0.1-1-0.6-1.8c0.3-0.1,0.8,0.5,1.3,1.7c0.4-0.4,0.2-1.2-0.8-2.1c0.6,0.1,1.1,0.7,1.4,1.8
		c0.4-0.4,0.2-1.2-0.8-2.2c0.5,0.1,1,0.7,1.4,1.8c0.3-0.6,0-1.3-0.8-2.2C77.3,17.4,77.7,17.9,77.9,18.5L77.9,18.5z M67.2,14.1
		l1.2,0.3l-2.2,0.1L66,14.1H67.2z M65.7,13.7l-0.1-0.3c1-0.3,2.1-0.2,3.1,0.2L65.7,13.7L65.7,13.7z M66.9,16.6v-0.4l1.5,0.1
		L66.9,16.6z M66.9,15.9l-0.3-0.3l2,0.1L66.9,15.9z M66.5,15.2l-0.2-0.4l2.1,0.2C67.8,14.9,67.1,15.1,66.5,15.2L66.5,15.2z M65.2,13
		l-0.3-0.5l2.6,0.3L65.2,13z M63.9,12.8c1.4,0.8,2.3,2.1,2.5,3.7l0.1,0.5C65,16,64.1,14.6,63.9,12.8z M66.5,19.2l-1.1-0.7
		c2,0.8,3.9,1.5,5.8,1.9L71,20.6c-1.9-0.1-3.7-0.7-5.5-1.6L66.5,19.2L66.5,19.2z"/>
	<path class="st1" d="M75.2,16.6c-0.1-0.5-0.4-0.9-0.8-1.2c-1.3-0.8-2.8-1.5-4.4-1.8l1.7,0.9L70.3,14l1.6,1l-0.8-0.2l1.1,0.8l-1-0.3
		c0.2,0.1,0.3,0.2,0.4,0.3c0.7,1.2,1.7,1.6,3,1.3C74.8,17.1,75,16.9,75.2,16.6L75.2,16.6z"/>
	<path class="st1" d="M77.2,20c0.6-0.4,0.8-0.9,0.7-1.5c-0.2-0.6-0.6-1.1-1.3-1.5c0.8,0.9,1.1,1.7,0.8,2.2c-0.4-1.1-0.9-1.7-1.4-1.8
		c0.9,1,1.2,1.7,0.8,2.2c-0.4-1.1-0.8-1.7-1.4-1.8c1,1,1.2,1.7,0.8,2.1c-0.6-1.2-1-1.7-1.3-1.7c0.6,0.8,0.8,1.4,0.6,1.8
		c-0.6-1.1-1-1.6-1.4-1.6c0.8,0.9,1,1.5,0.6,1.6l-0.6-0.7c-0.4-0.5-0.6-0.7-0.8-0.7c0.7,0.8,0.9,1.3,0.6,1.5l-0.8-0.7
		c-0.5-0.5-0.8-0.8-1-0.8c0.7,0.7,0.9,1.2,0.6,1.3c-0.9-1-1.5-1.5-1.7-1.3c0.6,0.5,0.9,0.9,0.7,1.2c-0.8-1.1-2.2-1.7-4-1.8
		c-0.1-0.3,0.6-0.3,1.9-0.1c-0.1-0.1-0.5-0.3-1.2-0.3c-0.6-0.1-1-0.3-1-0.4c0.4-0.2,1.3-0.1,2.8,0.4c-1-0.7-2-0.9-2.9-0.6
		c0,1.3-0.2,1.5-0.7,0.9c-0.3-0.1-0.5-0.1-0.7,0c-0.2-0.1-0.2-0.3,0.1-0.4l0.3-0.3l-0.8,0.1c-0.1,0-0.1-0.1-0.1-0.3
		c0.1-0.2,0.2-0.3,0.4-0.4c-0.2-0.1-0.6,0.1-1.1,0.4c-0.3-0.2-0.2-0.5,0.5-0.9c0-0.1-0.3,0-1,0.3c-0.3-0.3-0.1-0.6,0.7-1v-0.1
		c-0.1,0-0.5,0.2-1.2,0.6c-0.3-0.1,0-0.6,0.8-1.2c-0.4,0.1-0.8,0.3-1.3,0.7c-0.4-0.2-0.1-0.6,0.8-1.2c-0.1-0.1-0.5,0-1.2,0.4
		c-0.4-0.1-0.1-0.5,0.9-1.1v-0.2c-0.2,0-0.4,0.1-0.8,0.3c-0.3,0.1-0.4,0.2-0.5,0.2c-0.4-0.2,0-0.7,1.2-1.4c-0.7,0-1.3,0.3-1.7,0.6
		c-0.4,0.4-0.6,1-0.4,1.6c0.3,0.7,0.9,1.5,2,2.2c1.2,0.8,3,1.7,5.1,2.4c2.2,0.8,4.2,1.2,5.7,1.3C75.4,20.6,76.5,20.4,77.2,20
		L77.2,20z"/>
	<path class="st1" d="M68.4,14.4l-1.2-0.3H66l0.2,0.3L68.4,14.4z M65.5,13.3l0.1,0.3l3-0.1C67.6,13.2,66.6,13.1,65.5,13.3L65.5,13.3
		z M66.9,16.2v0.4l1.5-0.3L66.9,16.2z M66.7,15.6l0.3,0.3l1.7-0.3L66.7,15.6z M66.3,14.8l0.2,0.4c0.6-0.2,1.2-0.3,1.9-0.3L66.3,14.8
		z M64.9,12.4l0.3,0.5l2.2-0.2L64.9,12.4z M66.5,16.5c-0.3-1.6-1.1-2.8-2.5-3.7c0.2,1.8,1.1,3.2,2.6,4.2L66.5,16.5z M65.4,18.5
		l1.1,0.7l-1-0.3c1.7,0.9,3.5,1.5,5.5,1.6l0.3-0.1C69.4,20,67.4,19.4,65.4,18.5L65.4,18.5z M84.8,21.5l-4.2,2.6l-0.1,0.3l0.6-0.4
		C82.5,23.4,83.7,22.5,84.8,21.5z M83.8,23.8l-3.4,1c-0.6,0.4-1.2,0.8-2,1l-0.1,0.3l-0.5,0.1l-1,0.9l0.3,0.1c0.4,0.1,0.8,0,1.2-0.3
		c-0.1,0-0.2-0.1-0.2-0.1l1.3-0.6c-0.1,0-0.3-0.1-0.4-0.2l0.4-0.1v-0.2L83.8,23.8z M60.3,15.7c0.3,0.4,0.6,0.9,1,1.2l0.8,0.6
		l0.4,0.3h0.1C61.5,17.1,60.7,16.4,60.3,15.7z"/>
	<path class="st1" d="M65.1,19.2l0.3,0.3c-0.4-0.1-0.8-0.3-1.2-0.4l1.1,1.3c-0.3-0.3-0.7-0.5-1.1-0.7l1,1.3l-0.9-0.6l0.6,1L64,20.7
		l0.4,1.2c-0.9-1.1-1.4-2.4-1.5-3.8L62.6,18h-0.1L62.5,18v0.3l-0.3,0.4l0.1-0.5l-0.6,0.1l-0.2,0.9l0.6,0.7l0.6,0.3v0.3l-0.8-0.3
		L61.4,20v0.3c-0.8,0-1.2-0.4-1.1-1.2l0.4-0.3l-0.3,0.3l0.1,0.4h0.2c0.4-0.3,0.5-0.6,0.3-1.1l0.4-0.1c0.3-0.1,0.6-0.3,0.8-0.6
		l0.1-0.1L61.3,17l-0.1,0.1l0.3,0.2l-0.4,0.1l0.1-0.3C61.1,17.4,61,17.8,61,18l-0.1,0.6L59.7,18c-0.2,0.5-0.2,1.1,0.1,1.7
		c0.3,0.6,0.6,1.2,1.2,1.6h0.2v-0.3l-1-1l1.3,0.8V21h1.1l-0.2,0.2l-0.1,0.1H62v0.6l-0.2-0.1v-0.1c0-0.3-0.1-0.3-0.3-0.2
		c-0.1,0.1-0.3,0.3-0.4,0.3c0.1,0.3,0,0.3-0.3,0.1c0,0-0.1,0-0.1-0.1l-0.3-0.1c-0.3,0.5-0.3,1-0.1,1.5h0.1c-0.1-0.3-0.1-0.5,0.1-0.6
		l0.1,0.6l0.3,0.5l-0.3-0.2h-0.1l-0.7,0.6c0,0.5,0,0.6-0.1,0.6c-1.7-1.9-2.2-3.9-1.6-6.3c0.3,0.4,0.4,0.9,0.3,1.5
		c-0.1,0.6-0.1,1.1,0.1,1.5c0.7-1.9,0.6-3.4-0.1-4.5c-1.1-1.6-1.6-2.6-1.6-3l-0.3,0.3c-0.1-0.3-0.4-0.8-0.8-1.4
		c-1.8,0.3-3.5,0.9-5.1,1.9h-0.1v0.1h0.4c0,0.2-0.1,0.3-0.3,0.3c-0.4-0.1-0.6-0.3-0.6-0.6c0-0.1,0.2-0.3,0.5-0.3l0.3,0.1
		c-0.2-0.4-0.6-0.5-1.1-0.1c-0.3,0.3-0.4,0.5-0.3,0.8l0.1,0.1c0.2,0.1,0.3,0.3,0.4,0.4l0.3,0.1l-0.1,0.3c0.1,0.2,0.1,0.4-0.1,0.6
		L50,16.5l-0.8-1.2l-0.8-0.1l-0.1-0.1l-1.6,1.6h0.7l-0.3,0.1l-0.1,0.6c0.2-0.1,0.3,0.1,0.2,0.4l-0.1,0.6l0.4-0.2l-0.1,0.3h0.1
		c0.1,0.1,0.2,0.3,0.1,0.5l0.4,1.3l0.3-0.3h0.1c0.1,0.1,0.2,0.3,0.1,0.4l0.4,0.4l0.1-0.4c0.3,0.2,0.4,0.3,0.5,0.5l1.2,0.4l-0.3-0.3
		l-0.5-0.3c-0.5-1-0.7-2-0.6-3.1c0.1-0.3,0.3-0.6,0.6-0.9c0.2,0.4,0.1,0.8-0.3,1.2c0.6,2.1,2,3.1,4.3,3.1h0.1l0.3-0.1
		c0.1,0.3,0,0.3-0.1,0.4c-0.1,0-0.2-0.1-0.3-0.3c-0.1,0.1-0.1,0.1-0.3,0.1c0.1,0.3,0.1,0.4,0,0.4l-0.4-0.3l-1.5-0.2l-0.1,0.3v0.1
		c0.5,0.6,1.1,1.2,1.8,1.5l0.3,0.1l0.2-0.1L53,21.6l1.5,1.3l0.3-1c0.2,1.2-0.3,2.1-1.5,2.7l0.8-1.1l-1.1-0.4l-1,0.5l0.6-0.5L52,22.5
		l0.5,0.2l0.1-0.1c-0.3-0.3-0.5-0.6-0.5-1l-0.7-0.3l0.1,0.8l-0.5,0.1l0.4,1.2l-0.2,0.3l0.8,0.8l1,0.4c-0.1,0.3,0,0.6,0.4,0.8v-0.1
		l1.7-0.9c0.1-0.4,0.1-0.9-0.2-1.3c0.4,0.2,0.6,0.4,0.6,0.8c0.1,0.1,0.3,0.3,0.3,0.6c-0.2-0.1-0.3-0.1-0.4-0.2l-0.1,0.3l-0.2,1
		l0.8,0.3v-0.1l2-2.5l0.1,0.6l1,1.3l0.9-0.4c0-0.3,0.1-0.5,0.3-0.7c0.4-0.4,0.7-0.4,0.8-0.1h0.1l0.4-0.7c-0.3,1-0.1,1.9,0.4,2.8
		c0.8,1.3,2.1,2.1,3.5,2.2c1.2,0,2-0.6,2.2-1.8h-0.3l-0.4,0.3c-0.3,0.1-0.7,0.2-1.1,0.1c-0.7,0-1.3-0.3-1.7-0.8l1,0.3
		c0.3,0.1,0.4,0,0.6-0.1L65.1,26l0.5,0.1c0.4,0.1,0.8,0.1,1-0.1c-0.4-0.2-0.7-0.4-1.1-0.6l1.2,0.2c-1.3-0.3-2.4-1-3.3-2.1l0.1,0.3
		c0.1,0.3,0.3,0.6,0.6,0.9v0.1l1.1,0.8l-0.8-0.3l0.2,0.6l-0.7-0.3l0.3,0.6l-0.6-0.1l0.1,0.3l-0.8-0.2L64,25l0.1-0.1l-1-1l0.3,1.1
		l-0.6-0.6l0.4,1.2c-0.7-0.7-0.8-1.5-0.4-2.4l0.2-0.3h-0.1c-0.3-0.4-0.3-0.9,0-1.3v0.3c0.3,1.5,1.3,2.6,3,3.3
		c1.2,0.4,2.4,0.6,3.7,0.6c0.4-0.1,0.8-0.3,1-0.7l0.3-0.8c-1.7,0.4-3.4,0.2-4.9-0.6c-0.3-0.2-0.6-0.4-0.7-0.8
		c0.8,0.4,1.5,0.8,2.2,1.2l-0.5-0.4l1.7,0.2l-1.2-0.6l1.9,0.1l-1.5-0.6l2,0.1l-1.4-0.8l2.1,0.1l-1.8-0.6l2.8,0.1
		C69,20.8,67,20.1,65.1,19.2L65.1,19.2z M66.1,21l-0.3-0.4l0.9,0.6c-0.2,0.6-0.4,1.1-0.8,1.5l-0.7-0.2l0.1-0.3l-0.3-0.1l0.6-0.1
		l-0.6-0.4h0.7L65.2,21L66.1,21L66.1,21z M62.4,19.1l0.5-0.3l0.1,0.4l-0.9,0.6l-0.2-0.6L62.4,19.1L62.4,19.1z M60.6,18.9h0.2
		l-0.1,0.2L60.6,18.9L60.6,18.9z M63.2,20.1c-0.3,0.1-0.4,0-0.6-0.3L63.2,20.1z M62.4,21.6l0.1,0.3c0,0.3-0.1,0.4-0.3,0.5
		C62.1,22,62.2,21.8,62.4,21.6z M61.7,23.1 M64.1,23c-0.3-0.3-0.4-0.7-0.6-1.2c-0.1-0.4,0-0.6,0.3-0.4l0.8,1.3L64,22.3L64.1,23
		L64.1,23z M65.8,24.4l0.6,0.3c0.6,0.2,1.2,0.2,1.9,0L66.5,24c1.2,0.4,2.3,0.6,3.6,0.6h0.1c-0.8,0.6-1.7,0.8-2.8,0.6
		C66.9,25,66.3,24.8,65.8,24.4L65.8,24.4z M63.8,27.3c0.6,0.4,1.2,0.6,1.8,0.6l-1.4-1c1,0.6,2.1,0.9,3.2,0.7
		c-0.1,0.3-0.3,0.4-0.6,0.6c-1.3,0.4-2.5,0-3.4-1.1L63.8,27.3z M55.9,13.9h-0.4c-0.8-0.3-1.3-0.1-1.3,0.6c0.6,0.1,1.2,0.4,1.8,0.9
		c0.8,0.6,1.3,1.3,1.5,2.2c-0.7,1.2-0.8,3-0.1,5.1l-0.7,1.3l-0.2,0.5c-0.2-0.6-0.6-1.1-1.3-1.2l0.6-0.6v-1.5
		c-0.2,0.1-0.3,0.2-0.4,0.2c0.1,0.2,0.1,0.3,0,0.4L55,21.4c-0.2,0-0.3-0.1-0.4-0.3h0.1c-0.9-0.1-1.7-0.3-2.6-0.6
		c-0.2-0.1-0.4-0.2-0.6-0.3l3.8,0.6l0.4-0.3l-0.1-0.1l0.7-1.8l-0.4-0.5h-0.4c-0.1,0.1-0.2,0.2-0.4,0.3l-0.3,0.4
		c0.1,0.3,0.3,0.6,0.6,0.7L55,19.8c0,0.3-0.1,0.4-0.3,0.3c-0.2-0.1-0.2-0.3-0.1-0.6c-0.8,0.6-1.7,0.6-2.6,0.1
		c-0.9-0.5-1.3-1.3-1.3-2.4c0-0.8,0.3-1.5,0.9-1.9c0.3,0.2,0.2,0.4-0.1,0.6l-0.2,0.1c0.4,0.1,0.8,0,1.1-0.2l0.3-0.3l0.2,0.3
		l-0.4,0.5h-0.2l-0.4,0.3l-0.6-0.3l-0.1,1.5l1.1-0.8l0.4,0.3l0.5-0.6h0.2l0.7-0.8l0.1,0.4l-0.5,0.3h-0.2l-0.1,0.6l-0.8,0.1
		c-0.4,0.3-0.8,0.4-1.3,0.6l0.1,0.2c0.4,0.3,0.6,0.6,0.6,1v0.1l0.3-0.2c0.4,0,0.8,0.3,0.9,0.6l1.4-0.8c-0.4,0.1-0.8,0.3-1.2,0.4
		c0-0.5,0.3-0.8,0.8-1l0.3,0.1l0.3-0.4c0.1-0.1,0.1-0.2,0-0.3c-0.1-0.3-0.1-0.4,0.1-0.4l0.3-0.6l-0.3,0.1c-0.2,0.1-0.4,0.1-0.6,0.1
		l0.4-0.6l-0.1-0.5l0.4,0.1l-0.4-0.4c-0.1,0.3-0.3,0.3-0.4,0.1c-0.3-0.3-0.3-0.4-0.1-0.3l0.6-0.3l-0.8-0.3c-0.2,0.1-0.3,0.1-0.2-0.1
		C54.2,13.5,54.9,13.2,55.9,13.9L55.9,13.9z M49.5,16.3l0.2,0.5c-0.6-0.1-1.2,0-1.6,0.4l0.1-0.3L49.5,16.3z M52.7,15h-0.6
		c0.4-0.4,0.8-0.4,0.9-0.2C53.1,14.9,53,14.9,52.7,15z M56.2,18.4l-0.1,0.3l0.1,0.2L55.9,19l-0.1-0.5L56.2,18.4l-1.7-0.9
		c0.1,0.1,0.1,0.3,0.1,0.5h-0.4c-0.3,0.1-0.4,0.1-0.4,0.1V18c0.4-0.3,0.6-0.6,0.5-0.8l0.3,0.3L56.2,18.4L56.2,18.4z"/>
	<path class="st1" d="M65.9,20.6l0.3,0.4l-0.8-0.1l0.6,0.6h-0.7l0.6,0.4L65.1,22l0.3,0.1l-0.1,0.3l0.7,0.2c0.4-0.4,0.7-1,0.8-1.5
		L65.9,20.6L65.9,20.6z M62.9,18.8l-0.5,0.3l-0.4,0.2l0.2,0.6l0.9-0.6L62.9,18.8z M60.8,18.9h-0.2l0.1,0.1L60.8,18.9z M62.6,19.8
		c0.2,0.3,0.4,0.4,0.6,0.3L62.6,19.8z M62.5,21.7l-0.1-0.3c-0.3,0.3-0.3,0.5-0.2,0.7C62.4,22.2,62.6,22,62.5,21.7L62.5,21.7z
		 M61.7,23.2 M63.5,21.7c0.1,0.4,0.3,0.9,0.6,1.2L64,22.3l0.6,0.3l-0.8-1.3C63.5,21.2,63.5,21.3,63.5,21.7L63.5,21.7z M66.5,24.8
		l-0.6-0.3c0.4,0.3,1,0.6,1.5,0.7c1.1,0.3,2,0,2.8-0.6h-0.1c-1.2,0.1-2.4-0.1-3.6-0.6l1.9,0.8C67.8,25,67.1,25,66.5,24.8L66.5,24.8z
		 M65.6,27.9c-0.6,0.1-1.2-0.1-1.8-0.6l-0.4-0.3c1,1.1,2.1,1.5,3.4,1.1c0.3-0.1,0.5-0.3,0.6-0.6c-1.2,0.2-2.2,0-3.2-0.7L65.6,27.9
		L65.6,27.9z M55.4,13.9h0.4c-1.1-0.8-1.8-0.5-2.2,0.8c-0.1,0.2,0,0.2,0.2,0.1l0.3-0.3C54.2,13.9,54.6,13.7,55.4,13.9L55.4,13.9z
		 M54.8,15.2l-0.6,0.3c-0.2-0.1-0.1,0.1,0.1,0.3c0.2,0.2,0.3,0.2,0.4-0.1l0.3-0.1c0.3-0.1,0.4-0.1,0.3-0.3c-0.1-0.2-0.1-0.3-0.3-0.3
		L54.8,15.2L54.8,15.2z M54.8,16.1l0.1,0.5l-0.4,0.6c0.3,0,0.4,0,0.6-0.1l0.3-0.1l-0.3,0.6c-0.2,0-0.3,0.1-0.1,0.4
		c0.1,0.1,0,0.2,0,0.3l-0.3,0.4l-0.3-0.1c-0.6,0.1-0.8,0.5-0.8,1c0.4-0.1,0.8-0.3,1.2-0.4l0.3-0.3l0.3-0.4c0.2-0.1,0.3-0.1,0.4-0.3
		c0.4-0.9,0.3-1.7-0.4-2.5v0.6L54.8,16.1L54.8,16.1z M53.6,16.7h0.2l0.5-0.3L54.2,16l-0.7,0.8h-0.2l-0.5,0.6l-0.4-0.3l-1.1,0.8
		l0.1-1.5l0.6,0.3l0.4-0.3h0.2l0.4-0.5l-0.2-0.3L52.6,16c-0.3,0.2-0.6,0.3-1.1,0.2h-0.1c-0.1,0,0-0.3,0.3-0.8
		c-0.6,0.5-0.9,1.2-0.9,1.9c0,1,0.4,1.8,1.3,2.4l0.6,0.2c-0.6-0.2-1-0.7-1.3-1.5l-0.1-0.2c0.4-0.2,0.8-0.4,1.3-0.6l0.8-0.1
		L53.6,16.7L53.6,16.7z M51.6,20.1c0.2,0.1,0.4,0.3,0.6,0.3c0.8,0.3,1.7,0.6,2.6,0.6l0.3,0.3l0.3,0.4c0.1-0.1,0.1-0.3,0-0.4L55,21
		l0.4-0.2l-0.1-0.2L51.6,20.1z M56.9,18.9l0.4-1.2c0-0.1,0-0.1-0.1,0l-0.6,0.3L55.9,18l0.1,0.1l0.4,0.5l-0.7,1.8
		C56.3,20,56.7,19.5,56.9,18.9L56.9,18.9z"/>
	<path class="st1" d="M57.1,17.8h-0.3l-0.4,0.3L57.1,17.8z M54.9,19.5c-0.1,0.3-0.1,0.5,0.1,0.6c0.2,0,0.3-0.1,0.3-0.3
		C55.2,19.4,55.1,19.4,54.9,19.5L54.9,19.5z M55.8,20.4L55.8,20.4c0.6-0.3,0.9-0.8,1.2-1.5C56.7,19.5,56.3,20,55.8,20.4L55.8,20.4z
		 M55.9,21.6v1.2l-0.6,0.6c0.6,0.2,1.1,0.6,1.3,1.2l0.2-0.5l-0.5-0.9l0.1-0.2c0.3-0.6,0.2-1.2-0.1-1.9L55.9,21.6L55.9,21.6z
		 M49.7,16.8l-0.2-0.5l-1.3,0.6l-0.1,0.3C48.6,16.8,49.1,16.7,49.7,16.8L49.7,16.8z M56.1,18.7l0.1-0.3l-0.5,0.1l0.2,0.5l0.3-0.1
		L56.1,18.7z M54.6,18c0-0.2,0-0.4-0.1-0.5l-0.3-0.3c0.1,0.3-0.1,0.5-0.5,0.8v0.1c0.1,0.1,0.2,0,0.4-0.1H54.6L54.6,18z M62.6,18
		c-0.1-0.1-0.2-0.3-0.4-0.3c-0.2,0.3-0.4,0.4-0.8,0.6L61,18.3c0.3,0.4,0.2,0.8-0.3,1.1h-0.2L60.5,19l0.3-0.3L60.4,19
		c-0.1,0.8,0.3,1.2,1.1,1.2v-0.3l0.4,0.3l0.8,0.3v-0.3l-0.6-0.3c-0.3-0.2-0.6-0.3-0.7-0.3l-0.1,0.1l-0.1-0.1L61,19.5l0.4-0.2
		l0.1-0.2l0.2-0.9l0.6-0.1l-0.1,0.5l0.3-0.4L62.6,18L62.6,18z M61.3,17.1v0.1l-0.1,0.3l0.4-0.2L61.3,17.1z"/>
	<path class="st1" d="M61.3,19.8h0.1H61.3L61.3,19.8z M61.5,21l0.1-0.2L60.2,20l1,1v0.4l0.3-0.1c0.3-0.1,0.3,0,0.3,0.2v0.1l0.2,0.1
		v-0.6l0.4-0.1l0.2-0.2h-1.1L61.5,21L61.5,21z"/>
	<path class="st1" d="M61.5,20.8L61.5,21h0.1V20.8z M62.4,21.2L62,21.2L62.4,21.2L62.4,21.2z M62.9,21.6v-0.3
		c-0.2,0.4-0.2,0.9,0,1.3H63L62.9,21.6z M61.2,21.3L61,21.2L61.2,21.3z M60.7,21.8c0,0,0.1,0.1,0.1,0.1c0.3,0.2,0.4,0.1,0.3-0.1
		c-0.2-0.2-0.3-0.2-0.4-0.1L60.7,21.8z M60.5,22.6c-0.2,0.1-0.3,0.3-0.1,0.6c0,0.1,0,0.2,0.1,0.3l0.3,0.2l-0.3-0.5V22.6L60.5,22.6z"
		/>
	<path class="st1" d="M60.4,23.2h-0.1l0.1,0.3h0.1C60.4,23.4,60.4,23.4,60.4,23.2z M60.6,24.9l0.1-0.3l0.6-0.3
		c-0.2-0.4-0.4-0.3-0.8,0.1c-0.2,0.2-0.3,0.4-0.3,0.7L60.6,24.9L60.6,24.9z M61.3,25.1l0.1-0.3L61.2,25L61.3,25.1z"/>
	<path class="st1" d="M61.3,25.1L61.2,25L60,25.9c0.1-0.1,0.1,0,0.1,0.1c0,0.2-0.1,0.5-0.2,1c-0.1-0.4-0.1-0.7-0.1-0.9h-0.1
		l-0.4,1.3c-0.1-0.6,0-1,0.4-1.3l-0.8,0.3l0.3-0.1l-0.3,1.3l-0.1-0.7l-0.6,1V27l-0.6,0.9l0.1-0.8L57,28l0.2-1l-1,0.9l0.4-1.1
		l-1.9-0.3l-1,0.6l0.3-0.3L53.1,27l0.4-0.4l-0.9,0.1l0.4-0.4l-0.8,0.1l0.4-0.3h-0.8l0.4-0.3l-1.6,0.5c0.5-0.6,1.2-0.8,1.9-0.7
		l-0.1-0.3c-0.3-0.3-0.6-0.5-1.1-0.7h-0.1l-0.3-0.1l-0.6-0.1c-0.3,0-0.5,0.1-0.7,0.3c-0.2,0.1-0.4-0.1-0.6-0.6
		c-0.3-0.5-0.3-0.8-0.1-0.8h0.3l-0.1-0.5l-0.3-0.4l-1.5,0.2l0.6-0.5l0.1-0.1l-0.3-0.5c-0.1,0.3-0.2,0.3-0.4,0l-0.6-0.9L46.5,20
		L46.3,20l0.2,0.4l-0.1,0.3l0.1,0.4l0.3,0.1v0.3c0,0.1,0.1,0.2,0.1,0.2l-0.1,0.2c0.3,0.1,0.3,0.3,0.1,0.4l-0.3-0.1l-0.6-2.5
		l-0.3-1.1h0.1c-0.2-0.6-0.3-1-0.2-1.5c0-0.1,0.1-0.2,0.3-0.1h0.1v-0.4l-1-0.2c0.1,0,0.1,0,0.2-0.1l0.1-0.3l0.5,0.3l0.8-1.2l-1-0.6
		l-0.3-0.1l-0.1-0.2l-0.7,0.2c-0.3,0.1-0.5,0.3-0.6,0.5c-0.3,0.5-0.1,1.1,0.7,1.6l0.6,2.8l0.1-0.1l0.2,0.1l1.2,4v0.4
		c0.1,0.3,0.2,0.5,0.4,0.6l0.6,0.2c0.3,0.7,0.8,1.2,1.3,1.7c0.3-0.8,0.8-1.3,1.5-1.5c-0.4,0.4-0.8,0.8-1,1.3c-0.5,1-0.3,1.7,0.8,2.2
		v-0.6c0-0.3,0-0.5,0.2-0.6h0.3l0.4-0.3v1l0.4-0.6l0.2,1.3l0.4-0.9v0.8c0,0.3,0.1,0.3,0.3,0.4l0.3-0.8l0.4,1.3l0.3-1l0.1,0.4
		c0.1,0.5,0.3,0.7,0.4,0.7l0.1-1l0.6,1.5l0.1-1.2c0.1,0.6,0.3,1.1,0.8,1.5v-1.2l0.8,1.3l0.1-0.1l-0.1-0.8c0.1-0.1,0.1-0.1,0.1,0
		c0.3,0.6,0.4,0.9,0.7,1.1h0.2v-0.1c-0.3-0.6-0.3-1-0.1-1c0.4,0.8,0.8,1.2,1.2,1.2c-0.3-0.4-0.4-0.8-0.4-1.2c0.7,0.9,1.1,1.2,1.1,1
		c0.1-0.2-0.1-0.6-0.4-1.2l0.7,0.6c0.2,0.3,0.4,0.4,0.6,0.4c-0.1-0.1-0.3-0.5-0.4-1.2c0.6,0.8,1,1.2,1.3,0.8c-0.1-0.1-0.3-0.4-0.6-1
		c0.8,0.7,1.2,1,1.3,0.8c0-0.1-0.1-0.3-0.3-0.8L61,28.9c0.8,0.8,1.2,1,1.5,0.8c-0.3-0.2-0.6-0.5-0.8-1c0.6,0.6,1.2,0.8,1.5,0.6
		c-0.3-0.1-0.6-0.4-0.9-1c0.2,0.1,0.4,0.3,0.8,0.4c0.4,0.1,0.6,0.2,0.6,0.1s-0.1-0.3-0.4-0.6L63.1,28c0.4,0.3,0.8,0.4,1.2,0.6
		l0.1-0.1C62.2,27.3,61.3,26.2,61.3,25.1L61.3,25.1z M61,26.4l-0.2-0.6l0.3-0.6L61,26.4z M60.3,26c0-0.2,0.1-0.3,0.2-0.4
		c0.1-0.1,0.1-0.1,0.1,0.1v0.1l-0.1,0.9C60.4,26.4,60.3,26.2,60.3,26z M61.8,26.9l0.3,0.6c-2.6,1.6-5.4,1.8-8.2,0.5
		C56.7,28.7,59.3,28.3,61.8,26.9z M48.2,23.7h0.1l-0.3,0.7l0.6-0.3l-0.3,0.6l0.5-0.3l-0.1,0.8l0.3-0.1l-0.3,0.7
		c-0.6-0.3-1-0.8-1.2-1.7C47.7,24,48,23.9,48.2,23.7L48.2,23.7z M46.5,15.1c0,0.2-0.1,0.3-0.3,0.3h-0.4c-0.6,0.1-1,0-0.8-0.2
		c0.1-0.1,0.3-0.3,0.7-0.3L46.5,15.1L46.5,15.1z M50.4,25.9l0.3-0.4c0.4-0.4,0.8-0.6,1.2-0.4L50.4,25.9l-0.5-0.1l-0.2,0.9l0.4-0.2
		l-0.2,1.3c-0.6-0.6-0.6-1.3,0-2L50.4,25.9L50.4,25.9z"/>
	<path class="st1" d="M60.8,25.8l0.2,0.6l0.1-1.2L60.8,25.8z M60.5,25.5c-0.1,0.1-0.2,0.3-0.2,0.4c0,0.1,0.1,0.4,0.2,0.6l0.1-0.9
		v-0.1C60.6,25.5,60.6,25.5,60.5,25.5z M62.1,27.5l-0.3-0.6c-2.5,1.4-5.1,1.8-7.9,1.2C56.8,29.3,59.5,29.2,62.1,27.5z M48.4,23.8
		h-0.1c-0.3,0.1-0.5,0.3-0.6,0.6c0.3,0.8,0.6,1.4,1.2,1.7l0.3-0.7l-0.3,0.1l0.1-0.8L48.4,25l0.3-0.6l-0.6,0.3L48.4,23.8L48.4,23.8z
		 M46.2,15.4c0.2,0,0.3-0.1,0.3-0.3l-0.8-0.2h-0.1c-0.3,0.3-0.2,0.4,0.3,0.4L46.2,15.4L46.2,15.4z"/>
	<path class="st1" d="M45.6,15L45.6,15c-0.3,0-0.6,0.1-0.6,0.3c-0.1,0.2,0.2,0.3,0.8,0.2C45.4,15.4,45.3,15.3,45.6,15z M50.6,25.5
		l-0.3,0.4l1.5-0.8C51.5,25,51.1,25.1,50.6,25.5L50.6,25.5z M49.7,26.8l0.2-0.9c-0.6,0.7-0.6,1.3,0,2l0.2-1.3L49.7,26.8L49.7,26.8z
		 M64.1,24.8L64,25L64.1,24.8l0.1,0L64.1,24.8z"/>
	<path class="st1" d="M64.2,24.9L64,25l-1.2,1.3l0.8,0.2l-0.1-0.3l0.6,0.1l-0.3-0.5l0.8,0.3l-0.2-0.6l0.8,0.3L64.2,24.9z M67.6,30.5
		l0.8,0.1l2.2,0.1l0.4-0.1c0-0.1-0.1-0.2-0.3-0.3L67.6,30.5z M73.3,29.8l-0.2,0.1l0.8-0.1l0.6-0.3L73.3,29.8z M64.1,28.5l-0.2-0.1
		l-0.1,0.1C64.2,28.6,64.3,28.6,64.1,28.5L64.1,28.5z M66.9,39.8c-0.4,0.2-0.7,0.5-0.9,0.9c-0.1,0.6-0.3,1.2-0.3,1.7
		c-0.1,2.6-0.1,5.1-0.1,7.7l0.8,0.1v-7.7c0-1.1,0.4-1.8,1-2.1L66.9,39.8L66.9,39.8z M78.4,40.4L78,39.8c-0.4,0.2-0.6,0.4-0.8,0.8
		c-0.6,2.6-0.7,5.1-0.5,7.7l0.1,1.9l0.7,0.1v-7.7C77.4,41.4,77.8,40.7,78.4,40.4L78.4,40.4z M88.9,43.9l-0.1-0.1l-0.3-0.9L87.1,47
		h0.6L88.9,43.9z"/>
	<path class="st1" d="M88.9,43.8l0.1,0.1L87.7,47h2.5L88.9,43.8z M91.1,49.5L91,49.1h-4.6c-0.7,0.7-0.8,1.7-0.1,3h-4.2h0.1H71.3
		l0.6-0.2l0.1-0.6l0.3-1.6l-0.8-0.7L71.1,52h-11l0.8,0.8h10.7v-0.3l0.3,0.3h11v-0.2l0.1,0.2h4.2c-0.8-0.8-1-1.9-0.4-3.3H91.1
		L91.1,49.5z"/>
	<path class="st1" d="M90.7,52l0.6,0.8h7.3c-1.1-0.9-1.9-2-2.6-3.3l-4.5-9.8c1.4,3.8,3,7.4,4.7,11c0.3,0.5,0.6,0.9,1,1.2L90.7,52
		L90.7,52z M83.4,49.6l-0.7-0.7L82.2,52l0.8-0.1l0.1-1.3L83.4,49.6z M97.1,55c-0.3,0.3-0.4,0.6-0.4,1c0,0.4,0.1,0.8,0.4,1
		c0.3,0.3,0.6,0.3,1,0.4c0.4,0,0.7-0.1,1-0.4c0.3-0.3,0.4-0.6,0.4-1c0-0.4-0.1-0.8-0.4-1c-0.3-0.3-0.6-0.3-1-0.3
		C97.6,54.6,97.3,54.7,97.1,55z M97.3,56.8c-0.2-0.3-0.3-0.5-0.3-0.8c0-0.3,0.1-0.6,0.3-0.8c0.2-0.2,0.4-0.3,0.8-0.3
		c0.3,0,0.5,0.1,0.7,0.3c0.2,0.3,0.3,0.5,0.3,0.8c0,0.3-0.1,0.6-0.3,0.8C98.5,57,98.3,57,98,57.1C97.7,57.1,97.5,57,97.3,56.8z"/>
	<path class="st1" d="M97,55.9c0,0.3,0.1,0.6,0.3,0.8c0.2,0.2,0.4,0.3,0.8,0.3c0.3,0,0.5-0.1,0.7-0.3c0.2-0.3,0.3-0.5,0.3-0.8
		c0-0.3-0.1-0.6-0.3-0.8c-0.2-0.2-0.4-0.3-0.7-0.3c-0.3,0-0.6,0.1-0.8,0.3C97.1,55.4,97,55.6,97,55.9z M97.5,56.7v-1.5H98
		c0.4,0,0.6,0.1,0.6,0.4c0,0.3-0.1,0.4-0.4,0.4l0.4,0.6h-0.3L98,56.2h-0.2v0.6L97.5,56.7L97.5,56.7L97.5,56.7z"/>
	<path class="st1" d="M97.5,55.2v1.5h0.3v-0.6H98l0.3,0.6h0.3l-0.4-0.6c0.3,0,0.4-0.2,0.4-0.4c0-0.3-0.2-0.4-0.6-0.4L97.5,55.2
		L97.5,55.2L97.5,55.2z M97.8,55.4H98c0.2,0,0.3,0.1,0.3,0.2c0,0.1-0.1,0.2-0.3,0.2h-0.3V55.4L97.8,55.4z"/>
	<path class="st1" d="M98.1,55.4h-0.3v0.4h0.3c0.2,0,0.3-0.1,0.3-0.2C98.4,55.6,98.2,55.4,98.1,55.4L98.1,55.4z M96.6,61.1
		c-0.5-0.6-1-1.1-1.7-1.5c-1.2-0.8-2.4-0.9-3.5,0l0.2,0.9l0.3,0.4c0.1-1,0.6-1.3,1.7-1c1.4,0.4,2.6,1.2,3.7,2.4v-3.2l-0.6-0.8
		L96.6,61.1z M89.3,62.7l-1.2-0.9c0.1,1,1.1,2.1,2.8,3.3l1.8,1.3c0.5,0.4,0.8,0.7,0.8,0.9l0.1-0.3C92.4,65.4,91,64,89.3,62.7
		L89.3,62.7z M86.9,58l-0.4-0.6h-0.1l-0.3,0.1c-0.6,0.4-0.8,1-0.8,1.7c0,2.8,0.1,5.6,0.3,8.5c0,0.6,0.3,1.3,0.6,1.9h-5.8l0.8,0.8h6
		c-0.7-1-1.1-2.1-1.1-3.2c0-2.6,0-5.2,0.1-7.8C86.2,58.9,86.4,58.4,86.9,58L86.9,58z M64.1,57.5l0.1,1.2l0.3,2
		c-0.9-0.9-2.1-1.3-3.6-1.3v7.9c0,0.8,0.3,1.7,1.1,2.4h-6.2l0.6,0.8h6.9c-1.1-1.3-1.6-2.4-1.6-3.2v-7.1c0.8-0.1,2,0.3,3.5,1.2v-0.1
		l-0.3-3L64.1,57.5L64.1,57.5z M70.4,60.8c0.3-0.3,0.5-0.6,0.8-0.8c1.3-0.8,2.3-0.6,3.2,0.8c0.2,0.3,0.3,0.6,0.4,1
		c-0.1-0.6-0.4-1.1-0.7-1.6c-0.6-0.9-1.3-1.3-2.2-1.3c-0.8,0-1.6,0.4-2.2,1.3c-0.6,0.9-0.9,2-0.9,3.3s0.3,2.4,0.9,3.3
		c0.6,0.9,1.3,1.3,2.2,1.3c0.8,0,1.6-0.4,2.2-1.3c0.3-0.4,0.6-1,0.7-1.6c-0.3,1-0.9,1.9-1.7,2.5c-0.5,0.4-1,0.4-1.7,0.3
		c-0.9-0.4-1.5-1-1.8-2C69.2,64.1,69.4,62.4,70.4,60.8z"/>
	<path class="st1" d="M71.3,60c-0.3,0.2-0.6,0.4-0.8,0.8c-1.1,1.5-1.3,3.3-0.7,5.1c0.3,1,0.9,1.6,1.8,2c0.6,0.2,1.2,0.1,1.7-0.3
		c0.8-0.6,1.4-1.5,1.7-2.5c0.1-0.5,0.2-1.1,0.2-1.7c0-0.6-0.1-1.2-0.2-1.7c-0.1-0.3-0.3-0.7-0.4-1C73.6,59.5,72.5,59.2,71.3,60z"/>
	<path class="st1" d="M72,70.1c-2,0-3.7-0.6-5-2l-0.1-0.1c1.7,1.9,3.8,2.8,6.4,2.6c3-0.3,4.9-1.9,6-4.7c0.3-0.6,0.3-1.3,0.3-2
		c0-1.8-0.6-3.3-2-4.6c0.9,1.2,1.4,2.5,1.4,4c0,1.9-0.6,3.4-2,4.7C75.6,69.5,73.9,70.1,72,70.1L72,70.1z M53.5,60.7l0.5,0.5
		c0.4-0.4,1-0.7,1.7-0.9c0.6-0.2,1-0.3,1.3-0.1v-0.9l-1.2,0.2c-1,0.3-1.7,0.6-2.2,1.1L53.5,60.7z M32.7,41.8c-1.2-0.9-2.2-0.9-3.1,0
		v0.4c0.1,0.3,0.2,0.6,0.5,0.8c0.1-1,0.7-1.3,1.7-1c1.4,0.4,2.6,1.2,3.6,2.4v-3.1l-0.6-0.8v2.8C34,42.7,33.4,42.3,32.7,41.8
		L32.7,41.8z M35.7,50c0.4-0.9,0.3-1.7-0.3-2.5c0.1,0.4,0.1,0.8,0.1,1.2c-0.3,1.8-1.4,3-3.1,3.5c-2.2,0.6-4.2,0.3-6-0.9
		c1.2,1.5,2.8,2.1,4.7,1.9C33.2,53,34.8,52,35.7,50z"/>
	<path class="st1" d="M31.8,49.3c-0.3-0.7-0.8-1.3-1.4-1.7c-1.4-1-2.8-2.2-4.1-3.5c0.1,0.9,1.1,2.1,2.8,3.4l1.8,1.3
		c0.5,0.4,0.8,0.7,0.8,0.9L31.8,49.3L31.8,49.3z M59.3,40.6l-0.7-0.8l0.1,0.9L59,43c-1.7-1.2-3.7-1.7-6-1.3v2.5h0.9v-1.7
		c2.8-0.2,4.7,0.3,5.8,1.3L59.3,40.6L59.3,40.6z M57.8,45.2l-0.7-0.9l0.3,3c-0.8-0.6-2.3-0.9-4.4-0.9V50h0.3l0.6,0.1v-3l1.9,0.1
		c0.8,0.1,1.6,0.3,2.3,0.6L57.8,45.2z M59.5,49l-0.1,0.4L59.2,52H48l0.7,0.8h11.1l0.3-3.3L59.5,49z M39.5,41.7l-0.6,0.1
		C38,42,37,42.3,36.3,43l-0.1,0.2l0.5,0.4c0.4-0.4,1-0.7,1.6-0.9c0.6-0.2,1-0.3,1.3-0.1L39.5,41.7L39.5,41.7z M47.5,40.6l-0.8-0.8
		l0.1,0.4l0.3,2.7c-0.9-0.9-2.1-1.3-3.6-1.3v7.8c0,0.8,0.4,1.7,1.1,2.5h-6.2l0.6,0.8h6.9c-1.1-1.3-1.6-2.4-1.6-3.3v-7.1
		c0.8-0.1,2,0.3,3.5,1.2L47.5,40.6L47.5,40.6z"/>
	<path class="st1" d="M114.2,69c-0.2-2.2-1-4.2-2.4-5.9c-2.1-2.4-4.6-3.1-7.5-2.1c-0.3-2.2,0.4-3.5,1.9-3.8
		c-0.4-0.6-0.6-1.6-0.3-3.2c0.1-1,0-1.8-0.3-2.4c0.8-0.1,1.8,0.1,3.1,0.6c1.2,0.4,1.9,0.8,2.2,1.2c0.2,0.2,0.3,0.3,0.4,0.1
		c0.1-0.2,0.1-0.3-0.1-0.6c-4.4-5.3-7.4-10.1-9-14.2c-0.4-1.2-0.8-2.6-1.3-4.2c-0.4-1.5-0.7-2.6-1-3.1l-0.6-1.1H85.6
		c-0.4,0.4-0.8,0.7-1.5,0.9c-2.1,0.8-3.7,0.3-5.1-1.5c-5.6,3.2-10.6,3.7-14.8,1.4L64,30.8c-4,2.1-7.8,2.2-11.4,0.3
		c-1.7,0.8-3.5,1.2-5.6,1c-2.3-0.1-4.7-1-7.2-2.6c-0.8,0.9-1.7,1.4-2.6,1.5c-0.8,0.1-1.6-0.1-2.4-0.6c0.3,0.1,0.6,0.3,1,0.3
		c-0.4-0.1-0.8-0.3-1.2-0.5h-14l-0.4,0.9c-0.3,0.6-0.6,1.7-1.1,3.1c-0.5,1.8-1,3.2-1.3,4.3c-1.7,4.2-4.6,8.9-8.9,14
		c-0.3,0.2-0.3,0.4-0.1,0.6C9,53.2,9.2,53.2,9.4,53c0.3-0.3,1-0.6,2.1-1.1c1.2-0.4,2.2-0.6,3.1-0.5c-0.3,0.6-0.3,1.4-0.1,2.4
		c0.2,1,0,2.1-0.4,3.1c1.5,0.3,2.2,1.5,1.9,3.7c-3-1-5.5-0.3-7.4,1.9c-1.7,1.9-2.6,3.9-2.7,6.1c-0.1,2.1,0.4,4.5,1.8,7.1
		c-0.2-0.9-0.3-1.5-0.2-2.1c0.2-1.3,0.3-2.3,0.2-3.1c-0.1-1.4-0.4-2.5-1.1-3.3c1.1-1.5,2.4-1.6,4.2-0.2c1.6-1.7,3.5-2.2,5.6-1.7
		c-0.6,0.6-0.8,1.2-0.8,2c0,0.8-0.1,1.8-0.4,3c1.2,0.3,1.9,1.2,2.1,2.5c4-0.8,5.8,1.2,5.1,5.7H98c-0.4-1.5-0.3-2.7,0.1-3.7
		c0.4-0.8,1-1.3,1.8-1.7c0.9-0.4,1.9-0.4,2.8-0.1c0.3-1.4,1-2.3,2.2-2.6c-0.3-0.8-0.4-1.8-0.3-3c0-0.8-0.3-1.5-0.9-2
		c2.1-0.6,3.9,0,5.5,1.7c1.7-1.4,3.1-1.3,4.1,0.3c-0.6,0.6-0.9,1.7-1,3.2c-0.1,1,0,2.2,0.2,3.5c0,0.4,0,0.9-0.1,1.5
		C113.8,73.6,114.3,71.3,114.2,69L114.2,69z M58.5,39.7l0.2,1l-0.1-0.9l0.7,0.8l0.3,3.2c-1.2-1.1-3.1-1.5-5.8-1.3v1.6l3.2,0.1v0.1
		h0.1l0.7,0.9l0.3,2.7c-0.8-0.3-1.5-0.6-2.3-0.6l-1.9-0.1v3c2.1,0.3,3.9-0.2,5.6-1.3V49c0,0,0.1,0,0.1-0.1v0.1l0.6,0.5l-0.3,3.3
		H48.8l-0.7-0.8h-0.1L48,52h-0.1c0.8-0.9,1.1-1.7,1.1-2.5v-7.8c-0.1-0.7-0.4-1.3-1.2-2L58.5,39.7L58.5,39.7z M36.3,39.7h10.3v0.1
		l0.8,0.8l0.3,3.1c-1.5-1-2.7-1.4-3.5-1.2v7.1c0,0.9,0.5,2,1.6,3.3h-6.9l-0.6-0.8h-0.1l0.1-0.1h-0.1c0.8-0.8,1.2-1.6,1.2-2.5v-7
		c-0.3-0.1-0.7,0-1.3,0.1c-0.6,0.2-1.2,0.5-1.6,0.9l-0.5-0.4l0.1-0.2L36,43.1L36.3,39.7z M27.1,40.3c0.4-0.4,1-0.8,1.6-0.9
		c0.6-0.2,1.1-0.3,1.6-0.3c1.5-0.1,3,0.4,4.4,1.4v0.2l0.6,0.7v3.1c-1-1.2-2.2-2.1-3.6-2.4c-0.9-0.3-1.5,0-1.7,0.9
		c0.1,0.1,0.1,0.1,0.1,0.1c0.4,0.4,1.1,0.9,2.1,1.4c1.7,0.8,2.8,1.8,3.2,3c0.1,0.1,0.1,0.2,0.1,0.3c0.4,0.7,0.4,1.4,0.1,2.2
		c-0.9,2-2.5,3.1-4.8,3.2c-1.9,0.2-3.5-0.5-4.7-1.9l-0.1-3.1l0.2,0.2v-0.3c0.9,1,2,1.8,3.2,2.2c0.6,0.3,1.1,0.3,1.5,0
		c0.2-0.2,0.4-0.4,0.6-0.7c0-0.2-0.3-0.4-0.8-0.9l-1.8-1.3c-1.7-1.3-2.7-2.4-2.8-3.4C25.7,42.6,26.1,41.4,27.1,40.3L27.1,40.3z
		 M55,70.4c-1.9,0.3-3.6,0-5.2-0.8c-1-0.6-1.7-1.5-2.2-2.4c-0.8-1.5-1.7-2.4-2.5-2.4h-0.4c0.5,0,1.1,0.3,1.7,0.9
		c-0.3-0.2-0.7-0.3-1.2-0.2v2.2c0,0.9,0.4,1.9,1.2,2.8H33.9l-0.6-0.8c0.6-0.6,0.8-1.5,0.3-3l0.1,0.5h-4.2c-0.6,1.3-0.4,2.4,0.5,3.2
		h-4.4l-0.8-0.8c0.8-1,1.4-1.8,1.7-2.4l3.1-7.9c0.2-0.6,0.1-1.3-0.3-1.9h4.8v0.1l4.7,9.8L40,69c0.4-0.5,0.7-1.1,0.7-1.9v-7.9
		c-0.1-0.7-0.4-1.2-0.7-1.5c-0.1-0.1-0.1-0.1-0.3-0.2c-0.1-0.1-0.2-0.1-0.3-0.2H49c0.1,0,0.1,0,0.2,0.1c0.4,0.1,0.8,0.2,1.1,0.4
		c0.2,0.1,0.4,0.3,0.6,0.4l-0.1-0.1l0.1,0.1c0.7,0.4,1.2,1.1,1.4,1.9c0.4,1.9-0.3,3.3-2,4.1c0.3,0.1,0.6,0.4,0.8,0.7
		c1.4,2,3,3.8,4.8,5.5L55,70.4L55,70.4L55,70.4z M79.2,66.1c-1,2.8-3,4.4-6,4.7c-2.6,0.3-4.7-0.6-6.4-2.6c-1.3-1.3-2-2.8-2-4.6
		l0.2-1.6l0.1-0.5c-1.5-1-2.7-1.4-3.5-1.2v7.1c0,0.8,0.5,1.9,1.6,3.2h-6.9l-0.6-0.8c0.6-0.5,1-1.3,1-2.4c0.1-2.4,0.1-4.7,0.1-7.1
		c-0.3-0.1-0.8-0.1-1.3,0.1c-0.6,0.2-1.2,0.5-1.7,0.9l-0.5-0.5l0.3-3.3h0.1v-0.1h10.3l0.1,1.3l-0.1-1.2l0.8,0.8l0.3,3
		c0.3-0.9,0.9-1.8,1.7-2.5c0,0,0-0.1,0.1-0.1c1.3-1.3,3-1.9,5-1.9c1.9,0,3.6,0.6,5,1.9l0.6,0.7c0.3,0.3,0.4,0.6,0.6,0.9
		c0.8,1.1,1.2,2.3,1.3,3.8C79.6,64.7,79.5,65.4,79.2,66.1z M81.2,70.4l-0.8-0.8c0,0,0-0.1,0.1-0.1h-0.1c0.4-0.4,0.6-1,0.6-1.9
		c0.3-2.8,0.4-5.6,0.4-8.5c0-0.6-0.2-1.2-0.6-1.5c-0.1-0.1-0.3-0.2-0.4-0.3c-0.1,0-0.1-0.1-0.1-0.1h6.4l-0.1,0.1l0.4,0.6
		c-0.5,0.4-0.8,0.8-0.8,1.4c-0.1,2.6-0.1,5.2-0.1,7.8c0,1.2,0.3,2.2,1.1,3.2H81.2L81.2,70.4z M83.2,52.7l-0.1-0.2v0.2H72.4L72,52.3
		v0.3H61.1L60.4,52h-0.2c0.1-0.1,0.1-0.1,0.1-0.1c0.3-0.3,0.6-0.6,0.8-0.9c0.4-0.6,0.6-1.1,0.5-1.5v-7c0-1.4-0.4-2.4-1.2-2.8h0.3
		c-0.1-0.1-0.1-0.1-0.2-0.1h6.4v0.1l0.4,0.6c-0.6,0.3-1,1-1,2.1v7.7L65.6,50c2.2,0.6,4.1,0.2,6-1.2l0.8,0.7L72,51.1
		c0.5-0.6,0.7-1.2,0.6-1.7v-6.9c0-1.4-0.4-2.4-1.3-2.8h0.1c-0.1,0-0.1-0.1-0.1-0.1h6.5c-0.1,0-0.1,0.1-0.1,0.1h0.1l0.4,0.6
		c-0.6,0.3-1,1-1,2.1v7.7L76.7,50c2.1,0.6,4.1,0.2,6-1.2l0.7,0.7l-0.2,1c1.3-3,2.6-6,3.7-8.9c0.2-0.6,0.1-1.1-0.1-1.6
		c-0.1-0.1-0.1-0.2-0.2-0.3c0-0.1-0.1-0.1-0.1-0.1l4.9,0.1l4.5,9.8c0.6,1.3,1.4,2.4,2.6,3.3h-7.2L90.8,52h-0.2
		c0.6-0.5,0.8-1.3,0.5-2.5v-0.1h-4.2c-0.6,1.3-0.4,2.4,0.4,3.3L83.2,52.7L83.2,52.7z M96,68.9c-1.1,0.9-2.4,1.3-3.7,1.3
		c-0.4,0-0.9,0-1.3-0.1c-1-0.2-2-0.6-2.9-1.2L88,65.9l0.1,0.1v-0.1c1,1.1,2.2,1.9,3.6,2.2c0.2,0.1,0.4,0.1,0.6,0.1
		c0.6,0,1-0.3,1.3-0.8v-0.1c-0.1-0.2-0.3-0.4-0.8-0.8L91,65.1c-1.7-1.3-2.6-2.3-2.8-3.3l-0.1-0.1c-0.3-0.6-0.3-1.2-0.1-1.8
		c0.8-2.2,2.4-3.3,4.7-3.1h0.1c1.4,0.1,2.7,0.6,3.8,1.5l0.6,0.8v3.2c-1-1.2-2.2-2.1-3.7-2.4c-1-0.3-1.5,0-1.7,1l-0.3-0.4
		c0.4,0.6,1.2,1.2,2.4,1.8c1.8,0.9,2.9,1.9,3.3,3.1C97.6,66.8,97.3,68,96,68.9z M99,57c-0.3,0.3-0.6,0.3-1,0.4c-0.4,0-0.7-0.1-1-0.4
		c-0.3-0.3-0.4-0.6-0.4-1c0-0.4,0.1-0.8,0.4-1c0.3-0.3,0.6-0.3,1-0.3c0.4,0,0.7,0.1,1,0.3c0.3,0.3,0.4,0.6,0.4,1
		C99.4,56.3,99.3,56.7,99,57z"/>
	<path class="st1" d="M44.5,62.8l0.5,0.1l0.3-0.1v-2.9c1.2-0.1,1.9,0.1,2.4,0.4c-0.3-0.7-1-1.2-2-1.2l-1.2,0.1L44.5,62.8L44.5,62.8
		L44.5,62.8z"/>
	<path class="st1" d="M45.2,60v2.9l-0.3,0.1c1.9,0.1,2.8-0.5,2.8-1.8c0-1.2-0.7-1.9-2.2-1.9c1,0.1,1.7,0.5,2,1.2
		C47.2,60,46.4,59.9,45.2,60z M30.4,64.7l1.2-3.1l-0.4-1l-1.4,4H30.4z"/>
	<path class="st1" d="M31.6,61.6l-1.2,3.1h2.5L31.6,61.6z M50.8,58.3L50.3,58c0.6,0.4,1,1,1.3,1.8c0.1,0.4,0.1,0.8,0.1,1.2
		c-0.1,0.5-0.3,1-0.6,1.5c-0.3,0.6-0.8,1-1.4,1.3L49.1,64c1.4,1.5,2.8,3,3.9,4.6l1,1.1h-4.4c1.6,0.8,3.3,1.1,5.2,0.8h0.8
		C54,68.8,52.4,67,50.9,65c-0.3-0.3-0.5-0.6-0.8-0.7c1.8-0.8,2.5-2.2,2-4.1C52,59.3,51.6,58.6,50.8,58.3L50.8,58.3z M45.2,65.4
		c0.5-0.1,0.9,0,1.2,0.2c-0.6-0.6-1.2-0.9-1.7-0.9h-0.1c-0.4,1.6-0.3,3.2,0.7,4.7l0.2,0.2H33.4l0.6,0.8h12.5c-0.8-1-1.2-1.9-1.2-2.8
		L45.2,65.4L45.2,65.4z"/>
	<path class="st1" d="M38.6,67.9c0.3,0.6,0.6,1.1,1.1,1.5L40,69l-1.1-1.9l-4.7-9.8C35.6,61,37,64.5,38.6,67.9L38.6,67.9z M33.8,67.2
		l-0.1-0.5h-4.6c-0.7,0.7-0.8,1.7-0.1,3h-4.2l0.8,0.8H30c-0.9-0.8-1.1-1.9-0.5-3.2L33.8,67.2L33.8,67.2z M51.1,62.4
		c0.3-0.4,0.5-1,0.6-1.5c0.1-0.4,0.1-0.8-0.1-1.2l0.1,0.6C51.7,61.1,51.5,61.8,51.1,62.4L51.1,62.4z M80.3,26h0.3l-0.1-0.1L80.3,26z
		 M80.5,25.9l0.1,0.1l3.3-1l-3.3,0.8L80.5,25.9z"/>
	<path class="st1" d="M80.3,26l0.2-0.1l0.1-0.1l0.8-0.4l-1.7,0.6L79.4,26L79,26.2l0.4,0.2L80.3,26L80.3,26z"/>
	<path class="st1" d="M79.4,25.9V26l0.3-0.1L79.4,25.9z M78.5,27.4l-0.4,0.1L78,27.5l-0.3,0.1l-0.5,0.3l0.6,0.1h0.3
		c0.4-0.1,0.8-0.3,1.1-0.6L78.5,27.4L78.5,27.4z"/>
	<path class="st1" d="M77.2,27.9l0.5-0.3l-1.1-0.4l-0.6,0.6l0.3,0.1H77.2z M23,27.1c-0.6,0.4-1,0.9-1.4,1.5l-0.4,0.7h12.5l1,0.8
		c0.4,0.3,0.8,0.4,1.2,0.5c1.7,0.2,3.1-0.4,4.2-1.7l-0.3,0.4c2.5,1.5,4.9,2.4,7.2,2.6c-1.5-0.1-3-0.5-4.2-1.1
		c2.2,0.7,4.4,0.9,6.7,0.8c1.2,0,2.1-0.3,2.8-0.8l-0.4-0.3l-0.3,0.1h-0.5l-2.6,0.1L48.2,31l-1.8-0.4h1.1c0.3,0,0.5-0.1,0.6-0.3
		l-0.5-0.3L47,30.2l0.4-0.4l-2.1-0.2c0.4-0.4,0.9-0.6,1.5-0.3c1.5,0.6,3.1,0.9,4.8,1c-0.3-0.3-0.6-0.5-1-0.7c-1-0.5-1.8-1.3-2.2-2.3
		l-2-2l-3.1-3c-0.4-0.3-0.9-0.6-1.3-0.7c1.6,1.5,2.6,2.6,3.1,3.1c0.5,0.6,1.3,1.3,2.6,2.2c-1-0.3-2.1-1.2-3.5-2.8
		c-1.3-1.6-2.8-3-4.2-4.2c-1.5-0.9-3.1-1-4.6-0.2c1.1,0.1,2.2,0.4,3.1,1c0,0.3,0.2,0.6,0.4,0.8c0.8,0.6,1.4,1.3,1.7,2.2
		c0.2,0.3,0.3,0.5,0.3,0.8c0-0.1-0.3-0.3-0.6-0.6c-0.5-0.4-0.8-0.7-0.7-1l-0.4-0.4c0.3,0.4,0.5,0.9,0.5,1.4l-0.9-0.9
		c-1-1.1-2.1-2.1-3.3-2.8l3.4,3.3l0.8,0.7l-1.6-0.8l-4.2-3.3c1.5,1.3,3.1,2.8,4.5,4.4l-4.2-2.6l4.7,3.2c-1.7-0.1-3.3-0.6-4.7-1.5
		l0.4,0.3l4.9,2.1c-0.1,0.1-0.2,0.1-0.3,0.2l-3.9-1c0.8,0.4,1.7,0.7,2.6,0.9c1.2,0,2.1,0.4,2.7,1.2h-1.2c2.1,1.3,4.2,2.3,6.5,2.8
		l-0.9-0.1C43,29.8,40.9,29,39,27.8c-1.4-0.8-2.9-1.3-4.5-1.5v-0.2l-0.8,0.4c-0.3,0.3-0.6,0.3-1,0.3L23,27.1L23,27.1z M38.5,25h1.1
		l0.5,0.3v0.3L38.5,25z M40.9,23.4l0.2,0.1c-0.6-1-1.3-1.8-2.1-2.6c1.6,0.8,2.8,2.1,3.5,3.7l-0.3-0.1c0,0.9,0.4,1.5,1.2,1.6
		l-0.8-1.5l0.3,0.1l-0.6-0.9c0.6,0.3,1.1,0.8,1.3,1.5l-0.2-0.1c0.2,0.6,0.4,1.1,0.8,1.5l0.1,0.1l0.1-0.3l-0.6-1
		c0.6,0.3,1,0.8,1.1,1.5c0,0.5,0.3,0.7,0.8,0.6l-0.6-0.8L45,26.2c0.8,0.8,1.7,1.6,2.4,2.5l-1.9-0.4l0.5-0.1
		c-0.3-0.3-0.6-0.4-0.9-0.3c-0.2-0.1-0.3-0.1-0.4-0.2l-0.3-0.1l0.4-0.1l-0.3-0.4l-1.2-0.3c0.1-0.1,0-0.1-0.3-0.3l-1-0.4l0.5-0.1
		l-2-0.7l0.4-0.1l-1-0.6l2,0.6c-0.1-0.6-0.5-1.2-1.1-1.5L40.9,23.4L40.9,23.4z M44.2,28.2c-0.2-0.1-0.5-0.1-1,0.1
		c-0.7,0.3-1.2,0.3-1.3,0.1l1.2-0.4C43.5,27.8,44,27.8,44.2,28.2L44.2,28.2z M44,29.1L43.6,29c1.1-0.7,1.9-0.6,2.2,0.1
		c-0.4-0.2-0.8-0.3-1.1-0.3S44.2,28.9,44,29.1L44,29.1z M39.8,27.8c0.5-0.1,1-0.1,1.4,0.2l0.5,0.3C41.2,28.5,40.5,28.3,39.8,27.8z
		 M42.9,27.5l-1,0.1c-0.5,0.1-0.8,0-1.2-0.3l1.1-0.1C42.3,27.1,42.7,27.2,42.9,27.5L42.9,27.5z M41.5,28.6c0.5-0.1,1,0.1,1.5,0.4
		l-1.2-0.3L41.5,28.6z M41.6,26.4l-1.9,0.1l-0.4-0.1C40.2,25.9,40.9,25.9,41.6,26.4z M45.6,30c0.4,0.2,0.6,0.3,0.5,0.3
		C45,30,44.5,30,44.6,29.9L45.6,30z M42.9,29.3c0.5-0.1,1.1-0.1,1.7,0.2l0.2,0.1C44.1,29.8,43.4,29.7,42.9,29.3z M37.3,28.4l1.9,0.6
		c-1.1,0.4-2.1,0.3-3-0.4L36,28.4L37.3,28.4z M34.9,26.8h0.6c0.8,0.1,1.5,0.3,2.1,0.8L34.9,26.8L34.9,26.8z M33.7,26.6l0.3-0.3
		c-0.1,1.7,0.6,2.8,2.1,3.4l-0.3-0.1C34.5,29,33.7,28,33.7,26.6z M46.8,27.6l1,0.5l0.2,0.4l0.3,0.3l-0.5,0.1
		C47.7,28.5,47.4,28,46.8,27.6l2.4,1.4l0.5,0.3c-0.4,0-0.5-0.1-0.5-0.3L46.8,27.6z"/>
	<path class="st1" d="M39.6,25h-1.1l1.6,0.6v-0.3L39.6,25z M41.1,23.5l-0.2-0.1l0.1,0.4c0.6,0.3,1,0.8,1.1,1.5l-2-0.6l1,0.6
		l-0.4,0.1l2,0.7l-0.5,0.1l1,0.4c0.2,0.1,0.3,0.2,0.3,0.3l1.2,0.3l0.3,0.4l-0.4,0.1l0.3,0.1c0.1,0.1,0.3,0.1,0.4,0.2
		c0.4-0.1,0.6,0,0.9,0.3l-0.5,0.1l1.9,0.4c-0.8-0.9-1.6-1.7-2.4-2.5l0.3,0.6l0.6,0.8c-0.5,0.1-0.8-0.1-0.8-0.6
		c-0.1-0.7-0.4-1.2-1.1-1.5l0.6,1l-0.1,0.3l-0.1-0.1c-0.4-0.4-0.6-0.9-0.8-1.5l-0.6-0.6l-0.3-0.1l0.8,1.5c-0.8-0.2-1.2-0.7-1.2-1.6
		C41.8,24.2,41.4,23.9,41.1,23.5L41.1,23.5z"/>
	<path class="st1" d="M42.3,24.6l0.3,0.1C41.8,23,40.6,21.8,39,21c0.8,0.7,1.5,1.5,2.1,2.6C41.4,23.9,41.8,24.2,42.3,24.6L42.3,24.6
		z M42.3,23.9l0.6,0.9l0.6,0.6l0.2,0.1C43.5,24.8,43.1,24.2,42.3,23.9L42.3,23.9z M43.2,28.3c0.5-0.2,0.8-0.3,1-0.1
		c-0.3-0.3-0.7-0.4-1.2-0.3l-1.2,0.4C42,28.6,42.5,28.5,43.2,28.3L43.2,28.3z M43.6,29l0.4,0.1c0.2-0.2,0.4-0.3,0.8-0.3
		c0.3,0,0.6,0.1,1.1,0.3C45.5,28.4,44.7,28.3,43.6,29L43.6,29z M41.3,28c-0.4-0.3-1-0.3-1.4-0.2c0.6,0.5,1.3,0.7,1.9,0.5L41.3,28z
		 M41.9,27.6l1-0.1c-0.3-0.3-0.6-0.3-1-0.3l-1.1,0.1C41.1,27.6,41.4,27.7,41.9,27.6L41.9,27.6z M42.9,29c-0.4-0.3-1-0.5-1.5-0.4
		l0.3,0.2L42.9,29z M39.8,26.5l1.9-0.1c-0.7-0.4-1.5-0.4-2.3,0L39.8,26.5z M46.1,30.3c0.1-0.1-0.1-0.2-0.5-0.3l-1-0.1
		C44.5,30,45,30.1,46.1,30.3z M44.5,29.5c-0.6-0.3-1.2-0.3-1.7-0.2c0.6,0.4,1.2,0.5,1.9,0.3L44.5,29.5z M39.2,29.1l-1.9-0.6h-1.3
		l0.2,0.2C37.1,29.3,38.1,29.5,39.2,29.1L39.2,29.1z M35.5,26.8h-0.6l2.7,0.8C37,27.2,36.3,26.9,35.5,26.8L35.5,26.8z M34.1,26.2
		l-0.3,0.3c0,1.5,0.6,2.4,2.1,3l0.3,0.1C34.7,29,34,27.9,34.1,26.2L34.1,26.2z M47.8,28.2l-1-0.5c0.5,0.3,0.8,0.8,0.9,1.4l0.5-0.1
		L48,28.6L47.8,28.2z M49.7,29.4l-0.5-0.3C49.2,29.3,49.4,29.4,49.7,29.4z M56.7,13.8l-0.1-0.3c-0.2-0.4-0.4-0.6-0.9-0.7
		c0.4,0.6,0.7,1.1,0.8,1.4L56.7,13.8c0.1,0.4,0.6,1.4,1.7,3c0.8,1.2,0.8,2.6,0.1,4.5c-0.1-0.4-0.1-0.9-0.1-1.5s0-1.1-0.3-1.5
		c-0.6,2.4-0.1,4.4,1.6,6.3c0.1,0.1,0.1-0.1,0.1-0.6l-0.9-1.6l0.6-2.9L59,17.2c-0.1-0.4,0.3-0.9,1.1-1.3l-0.2-0.5l-1.1,1l-0.3-0.4
		c-0.7-0.7-1.2-1.5-1.5-2.5L56.7,13.8L56.7,13.8z"/>
	<path class="st1" d="M58.4,16l0.3,0.4l1.1-1l-0.3-0.5C59.3,15.1,58.8,15.4,58.4,16L58.4,16z M60.1,16c-0.8,0.4-1.2,0.9-1.1,1.3
		C58.9,16.9,59.3,16.4,60.1,16z M49.5,14.9l-0.8-0.1l-0.3,0.3l0.8,0.1l0.8,1.2l0.1-0.1c0.2-0.2,0.3-0.4,0.1-0.6L50,15.3
		C49.9,15.1,49.7,14.9,49.5,14.9L49.5,14.9z M47.2,16.7l0.2-0.1L47,16.6L47.2,16.7z"/>
	<path class="st1" d="M48.3,14.9l0.1,0.1l0.4-0.3L48.3,14.9z M46.6,16.4c0.3-0.5,0.4-1,0.3-1.5l-1.2-0.3l1,0.6l-0.8,1.2l-0.5-0.3
		l-0.1,0.3c-0.1,0-0.1,0.1-0.2,0.1l1,0.2V17c0.1,0.6,0.3,1.4,0.8,2.5c0.3,0.8,0.6,1.5,0.8,1.9l0.3,0.5l0.6,0.3l0.2,0.1l0.3,0.4
		l0.1,0.5c0.1,0.3,0.4,0.7,1.1,1.2l0.6,0.1l-0.1-0.1l-0.1-0.1c-0.6-0.3-0.9-0.8-1-1.3c-0.2-0.6-0.6-1-1.2-1.2
		c-0.9-1.6-1.6-3.3-2-5.1L46.6,16.4z M50.5,14.8v-0.1h-0.1L50.5,14.8z"/>
	<path class="st1" d="M50.4,14.7L50.4,14.7c0.1-0.3,0.3-0.4,0.6-0.4l-0.1-0.1l-0.3-0.1c-0.3,0.1-0.4,0.2-0.5,0.3
		c-0.1,0.3,0.1,0.6,0.6,0.6c0.2,0,0.3-0.1,0.3-0.3h-0.4L50.4,14.7L50.4,14.7z M50.3,20.8l0.5,0.3l0.6,0.1C50.2,20.1,49.7,19,50,18
		c0.3-0.4,0.4-0.8,0.3-1.2c-0.3,0.3-0.5,0.6-0.6,0.9C49.6,18.8,49.8,19.8,50.3,20.8L50.3,20.8z M47.6,18.3L47.6,18.3
		c-0.2,0.1-0.3,0.1-0.2,0.3c0,0.1,0.1,0.2,0.3,0.3C47.8,18.7,47.8,18.5,47.6,18.3L47.6,18.3z M48.8,20.3c0.1-0.2,0-0.3-0.1-0.4h-0.1
		l-0.1,0.3C48.6,20.7,48.7,20.7,48.8,20.3L48.8,20.3z M49.9,20.8c-0.1-0.2-0.3-0.3-0.5-0.5l-0.1,0.4l0.8,0.7L49.9,20.8L49.9,20.8z
		 M49.2,23.2h-0.3c-0.2,0-0.2,0.3,0.1,0.8c0.3,0.4,0.4,0.6,0.6,0.6c0.2-0.1,0.4-0.3,0.7-0.3C49.7,24,49.3,23.5,49.2,23.2z
		 M48.8,22.3l-0.2-0.1L47.9,22l-0.6,0.5L48.8,22.3z M46.8,21.5v-0.3l-0.3-0.1l-0.1-0.4l0.1-0.3L46.3,20l-0.2-0.3l0.6,2.5l0.3,0.1
		c0.2-0.1,0.1-0.3-0.1-0.4l0.1-0.2C46.8,21.6,46.8,21.6,46.8,21.5z M47.3,21.4c0.2,0.3,0.3,0.3,0.4,0c-0.3-0.4-0.5-1-0.8-1.9
		c-0.4-1.2-0.7-2-0.8-2.5H46c-0.1,1.2,0.2,2.4,0.8,3.5L47.3,21.4z M52.1,21.6c0,0.4,0.2,0.7,0.5,1l0.1,0.1c0.1,0.1,0,0.1-0.2,0.1
		L52,22.5l0.8,0.6l-0.6,0.5l1-0.5l1.1,0.4l-0.8,1.1c1.2-0.6,1.7-1.5,1.5-2.7l-0.3,1L53,21.6l1.3,1.5l-0.2,0.1l-0.3-0.1
		C53.2,22.8,52.6,22.3,52.1,21.6L52.1,21.6z"/>
	<path class="st1" d="M52.7,22.6L52.7,22.6l-0.2,0.1C52.7,22.8,52.8,22.8,52.7,22.6L52.7,22.6z M51.3,24.6c0.4,0.2,0.8,0.4,1.1,0.7
		l0.1,0.3c-0.7-0.1-1.4,0.1-1.9,0.7l1.6-0.5L51.7,26h0.8l-0.4,0.3l0.8-0.1l-0.4,0.4l0.9-0.1l-0.4,0.4l0.9-0.3l-0.3,0.3l1-0.6l-1.9-1
		c-0.1-0.6-0.5-1-1.2-1H51.3L51.3,24.6z M54.7,21.1l-0.3,0.1l-0.1,0.1c0.1,0.2,0.1,0.3,0.3,0.3C54.7,21.4,54.7,21.3,54.7,21.1z
		 M53.7,21.4l0.4,0.3c0.1,0,0.1-0.1,0-0.4l-0.7-0.1L53.7,21.4L53.7,21.4z"/>
	<path class="st1" d="M55.4,24.9l0.1-0.3l0.1-0.3c0-0.4-0.3-0.6-0.6-0.8c0.3,0.4,0.3,0.8,0.2,1.3l-1.7,0.9l0.5,0.1h0.4l0.1,0.2
		L55.4,24.9z M58.2,24.2l-0.1-0.6l-2,2.5l0.4,0.1c0.5-0.3,1-0.8,1.3-1.5L58.2,24.2z M45.2,14.3l0.1,0.2l0.3,0.1l1.2,0.3L45.2,14.3z
		 M38,23.4l0.1,0.2l1.6,0.8l-0.9-0.7L38,23.4z M45.9,18.5L45.9,18.5l0.2,1.1l0.1-0.3c0,0-0.1,0-0.1-0.1L45.9,18.5z M45.8,18.5h0.1
		H45.8z"/>
	<path class="st1" d="M46.1,19.6l0.2,0.4l0.1-0.1l-0.2-0.6L46.1,19.6z M46,19.3c0,0,0.1,0,0.1,0.1l-0.3-0.8L46,19.3L46,19.3z
		 M45.2,19.3L45.2,19.3l0.9,3.8L45.2,19.3z M40.3,23.9c0.4,0.3,0.6,0.5,0.6,0.6c0-0.3-0.1-0.6-0.3-0.8l-1.1-0.8
		C39.5,23.2,39.8,23.5,40.3,23.9z M43.2,22.2l3.1,3l1,1l-0.8-1.1c-1.7-2.3-4-4-6.7-5.3c1.4,1.2,2.8,2.6,4.2,4.2
		c1.4,1.6,2.6,2.5,3.5,2.8c-1.3-0.9-2.1-1.7-2.6-2.2c-0.5-0.6-1.5-1.7-3.1-3.1C42.3,21.6,42.7,21.9,43.2,22.2L43.2,22.2z M39.8,29.4
		l0.3-0.4c-1.2,1.3-2.6,1.9-4.2,1.7c-0.3,0-0.6-0.1-1-0.3c0.8,0.4,1.6,0.6,2.4,0.6C38.2,30.9,39.1,30.3,39.8,29.4z M45.1,30.3
		l0.9,0.1c-2.3-0.6-4.5-1.5-6.5-2.8c-1-0.8-2.1-1.3-3.3-1.6L34.5,26v0.2c1.5,0.3,3,0.8,4.5,1.5C40.9,28.9,42.9,29.8,45.1,30.3
		L45.1,30.3z M59.7,26L59.7,26L59.7,26l0.2,0.1l0.1-0.2v-0.1L59.7,26z M60,25.9L59.9,26c-0.1,0.2-0.1,0.5,0.1,0.9
		c0.1-0.4,0.2-0.8,0.2-1C60.1,25.8,60.1,25.7,60,25.9z M59.7,26c-0.4,0.3-0.6,0.7-0.4,1.3L59.7,26z M59.2,26.2L59,26.3l-2.3,0.5
		l-0.4,1.1l1-0.9L57,28l0.7-1l-0.1,0.8l0.6-0.9v0.8l0.6-1l0.1,0.7L59.2,26.2z M56.1,26.2L56.1,26.2l0.4,0.1L56.1,26.2z M53.4,25.6
		L53.4,25.6l0.5,0.1L53.4,25.6z M48.3,30.8h0.2l2.6-0.1l0.2-0.1C49.9,30,49,30.2,48.3,30.8L48.3,30.8z M43.8,6.5L42.7,7
		c0.3,0,0.4,0.1,0.5,0.4l1,2.6c0.1,0.3,0.1,0.5-0.1,0.6l1.2-0.4c-0.3,0-0.4-0.2-0.5-0.4L44,7.7l3.1,1.9L48,9.2
		c-0.3,0-0.4-0.2-0.5-0.4l-1-2.6c-0.1-0.3-0.1-0.5,0-0.6L45.4,6c0.2,0,0.3,0.1,0.4,0.4l0.7,1.9L43.8,6.5L43.8,6.5z M40.8,8l-1.1,0.6
		c0.2,0,0.4,0.1,0.6,0.4l1,1.7l-3.1-1.2l-1,0.6c0.3,0,0.4,0.1,0.6,0.4l1.4,2.4c0.1,0.3,0.1,0.4,0.1,0.6l1.1-0.6
		c-0.2,0-0.4-0.1-0.5-0.4l-1.2-2l3.4,1.4l0.8-0.5c-0.3,0-0.4-0.1-0.6-0.4l-1.4-2.4C40.7,8.3,40.7,8.1,40.8,8L40.8,8z M48.8,5.2
		c-0.3,0.5-0.4,1-0.3,1.7C48.7,7.5,49,8,49.4,8.3c0.4,0.3,1,0.4,1.6,0.3c0.6-0.1,1-0.4,1.3-0.9c0.3-0.5,0.4-1,0.3-1.7
		c-0.1-0.6-0.4-1.1-0.8-1.4c-0.4-0.3-1-0.4-1.6-0.3C49.6,4.4,49.1,4.7,48.8,5.2z M51.3,5.2c0.8,0.9,0.8,1.8,0.1,2.6
		C51.2,8,51,8.1,50.7,8.1C50,8,49.5,7.6,49.3,6.9c-0.1-0.6,0.1-1.2,0.5-1.5C50.4,4.8,50.8,4.8,51.3,5.2L51.3,5.2z M33.6,12.7
		l0.2,0.1l1.4,3.8l0.7-0.6L35.6,15l0.9-0.7l0.8,0.6l1.1-0.8c-1.3-0.5-2.5-1.2-3.6-2.2L33.6,12.7z M36,13.8l-0.7,0.6L34.8,13L36,13.8
		z"/>
	<path class="st1" d="M61.4,5.8l1,3.6l-3-2.1l-3.1,2.1l1.1-3.6l-3-2.2l3.7-0.1L59.4,0l1.2,3.5l3.7,0.1L61.4,5.8z"/>
	<path class="st1" d="M97.5,67.6c0.4-0.9,0.3-1.7-0.3-2.5c0.1,0.4,0.1,0.8,0.1,1.2c-0.3,1.8-1.4,3-3.1,3.5c-2.2,0.6-4.2,0.3-6-0.9
		c1.2,1.5,2.8,2.1,4.7,1.9C95.1,70.7,96.7,69.6,97.5,67.6L97.5,67.6z"/>
</g>
</svg>
