<?xml version="1.0" encoding="utf-8"?>
<!-- Generator: Adobe Illustrator 19.2.0, SVG Export Plug-In . SVG Version: 6.00 Build 0)  -->
<svg version="1.1" id="Слой_1" xmlns="http://www.w3.org/2000/svg" xmlns:xlink="http://www.w3.org/1999/xlink" x="0px" y="0px"
	 viewBox="0 0 120 132.7" style="enable-background:new 0 0 120 132.7;" xml:space="preserve">
<style type="text/css">
	.st0{fill:#FFFFFF;}
	.st1{fill:#2E0B01;}
	.st2{opacity:0.55;fill:#2E0B01;enable-background:new    ;}
	.st3{opacity:0.2;enable-background:new    ;}
	.st4{fill:#44A3BC;}
	.st5{fill:#CB242D;}
	.st6{fill:#DC5B2B;}
	.st7{opacity:0.5;}
	.st8{fill:#C5CB79;}
	.st9{fill:#E2001A;}
	.st10{fill:#B70718;}
	.st11{fill:#EFB886;}
	.st12{fill:#BBDBE8;}
	.st13{fill:#50542E;}
	.st14{opacity:0.1091;fill:#FFFFFF;enable-background:new    ;}
	.st15{opacity:0.5;fill:#CB242D;enable-background:new    ;}
	.st16{opacity:0.6;}
	.st17{fill:#EC9488;}
	.st18{fill:none;stroke:#50542E;stroke-linecap:round;stroke-miterlimit:10;}
	.st19{opacity:0.2;fill:#55721A;enable-background:new    ;}
	.st20{fill:#55721A;}
	.st21{fill:none;stroke:#FFFFFF;stroke-miterlimit:10;}
	.st22{fill:none;stroke:#C5CB79;stroke-width:2;stroke-miterlimit:10;}
	.st23{fill:#CDC09E;}
	.st24{opacity:0.1;fill:#44A3BC;}
	.st25{opacity:0.9;}
	.st26{opacity:0.9;fill:#44A3BC;enable-background:new    ;}
	.st27{opacity:0.1091;fill:#44A3BC;enable-background:new    ;}
	.st28{opacity:0.1091;fill:#55721A;enable-background:new    ;}
	.st29{opacity:0.4;}
	.st30{opacity:0.9;fill:#55721A;enable-background:new    ;}
	.st31{opacity:0.4;fill:#55721A;}
	.st32{fill:#D95929;}
	.st33{fill:#F68D1A;}
	.st34{fill:#FFC73B;}
	.st35{fill:#FABC14;}
	.st36{fill:#FCAD17;}
	.st37{fill:none;stroke:#FFFFFF;stroke-width:2;stroke-miterlimit:10;}
	.st38{fill:none;stroke:#44A3BC;stroke-width:20;stroke-miterlimit:10;}
	.st39{fill:none;stroke:#44A3BC;stroke-width:20;stroke-linejoin:round;stroke-miterlimit:10;}
	.st40{fill:none;}
	.st41{fill:#3B5998;}
	.st42{fill:none;stroke:#000000;stroke-width:2;stroke-miterlimit:10;}
	.st43{opacity:0.6;fill:#333333;}
</style>
<g>
	<g id="XMLID_557_" class="st7">
		<g id="XMLID_722_">
			<g id="XMLID_723_">
				<g id="XMLID_724_">
					<path id="XMLID_729_" class="st14" d="M26469.2,133.6c0-3.2,0-6.4,0-9.6c0-1.5,0-3.2,0-4.9c0-3.9,0-8.4,0-13.8c0-1.5,0-3,0-4.4
						c0-4,0-7.9,0-11.9c0-5.3,0-10.5,0-15.8c0-3.8,0-7.5,0-11.1c0-3.7,0-7.3,0-10.7c0-6.9,0-13,0-19s0-11.9,0-18.3
						c0-3.1,0-6.3,0-9.7c0-3.6,0-7.2,0-10.9c0-0.8,0,1,0,0.9c0,0.9,0,2.3,0,3.2c0,2.9,0,5.6,0,8.2c0,1.8,0,3.5,0,5.1
						c0,4.2,0,8.1,0,11.9c0,7.7,0,14.8,0,22.8c0,3.1,0,6.3,0,9.6c0,4.2,0,8.6,0,13.2c0,0-65535,22216.5,0,28.2c0-0.9,0-1.9,0-2.8
						c0,6.4,0,13.2,0,18.3c0,1.8,0,3.5,0,5.1c0,4.2,0,8.1,0,11.9c0,0.2,0,2.1,0,2.3C26469.2,131.3,26469.2,133.6,26469.2,133.6
						L26469.2,133.6z"/>
				</g>
			</g>
		</g>
	</g>
</g>
<g>
	<g id="XMLID_1525_" class="st16">
		<g id="XMLID_1556_">
			<g id="XMLID_1557_">
				<g id="XMLID_1558_">
					<path id="XMLID_1561_" class="st14" d="M26469.2,59c0-0.5,0-1.3,0-2.5c0,1.2,0,2.5,0,3.7c0,1.3,0,2.6,0,4c0,0.6,0,1,0,1.2
						c0,2,0,4.4,0,6.4l0,0c0-0.9,0-1.2,0-2.1c0-1.5,0-4.7,0-6.1C26469.2,61.3,26469.2,60.3,26469.2,59c0-1,0-1.8,0-2.5
						c0-0.9,0-1.4,0-1.6c0,0,0,3.5,0,3.7c0,2.4,0,4.7,0,6.4c0,1.7,0,2.7,0,3.6c0,0,0-3.4,0-3.7c0-7.4,0-15,0-23c0,1.2,0,2.5,0,3.7
						c0,3.9,0,7.4,0,10.6c0,2.2,0,5,0,8.4c0,0.1,0-2,0-1.9c0-0.3,0-1.6,0-1.9c0-3.5,0-7,0-10.9c0-1.5,0-3,0-4.7c0-2.3,0-4.9,0-7.7
						c0,1.2,0,2.4,0,3.7c0,1.5,0,2.9,0,4.3c0,2.8,0,5.1,0,7.1c0,0.1,0-1.3,0-1.5c0-0.5,0-1.9,0-2.2c0-8.5,0-16.6,0-24.6
						c0-0.3,0,0.9,0,0.9c0,0.5,0,2.2,0,2.6c0,0-65535,22257.1,0,11.9c0,0,0-3.4,0-3.7c0-3.3,0-6.9,0-10.7c0-3.7,0-7.5,0-11.6v3.6
						c0,2.9,0,3.9,0,6.3c0,2.8,0,4.5,0,6c0-0.1,0-0.2,0-0.4c0-1.5,0-2.9,0-4.4c0-2.2,0-3.6,0-5.1c0,0.1,0,1.8,0,1.9
						c0,0.3,0,1.6,0,1.9c0,1,0,1.9,0,2.9c0-0.1,0-0.3,0-0.4c0-0.6,0-1.4,0-2.5c0-2.2,0-5.4,0-9.7v1.5c0,0.6,0,1.7,0,2.2
						c0,4.1,0,8,0,11.6c0,3.8,0,7.4,0,10.7c0-1.2,0-2.4,0-3.7c0-0.7,0-1.7,0-3.2c0-2.1,0-5,0-8.5V28c0,8,0,16.1,0,24.6
						c0-1.2,0-2.4,0-3.7c0-3,0-6.8,0-11.5c0-0.1,0,1.3,0,1.5c0,0.5,0,1.8,0,2.2c0,4.5,0,8.7,0,12.6c0,3.8,0,7.3,0,10.9
						c0-1.3,0-2.5,0-3.8s0-2.5,0-3.8c0-1.6,0-3.1,0-4.6c0-0.9,0-1.7,0-2.5c0-2.4,0-5.1,0-8.1c0-0.1,0,2,0,1.9c0,0.4,0,1.6,0,1.8
						c0,8,0,15.6,0,23c0-1.2,0-2.5,0-3.7c0-0.9,0-1.9,0-3.6s0-3.9,0-6.4c0,1.2,0,2.5,0,3.7c0,0.7,0,1.7,0,4.2c0,1.6,0,3.3,0,6.2
						c0-1.1,0-2.3,0-3.4c0,4.7,0,5.4,0,1.9c0-3.9,0-7.6,0-11.1v1.9c0,0.3,0,1.6,0,1.9c0,1.1,0,2,0,2.5v-1.9
						C26469.2,60.7,26469.2,59.1,26469.2,59L26469.2,59z"/>
				</g>
			</g>
		</g>
	</g>
</g>
<g>
	<path class="st1" d="M96.6,27.2c0.5,3.5,5.7,8.1,7.1,8c0.9,0,1.3-4.6,1.3-8c0-2,0.1-3.6-0.9-4C102.5,26.6,98,27.3,96.6,27.2z
		 M97,25.6c3.8,0,7.3-3.1,7.3-5.7c0-1.2-0.6-2.2-2.1-2.5c0.2,0.3,0.3,0.6,0.3,1.2c0,2-3.1,4.2-6.4,4.2c-1.2,0-1.6,0.8-1.6,1.2
		C94.6,25.2,95.5,25.6,97,25.6z M96.1,21.5c-0.5,0-1.2,0-1.7-0.8c-0.3-0.7-0.2-1.7-0.8-2.2c0.7,0.2,1.2,0.2,1.8,0.2
		c1.7,0,3.2-1.2,4.4-1.2c0.8,0,1.1,0.5,1.1,1C100.9,20.1,97.7,21.5,96.1,21.5z M14.4,50.1c1.2,0,1-7.6,3-7.6c0.5,0,0.7,0.5,0.7,1.1
		c0,1.7-0.8,4.2-0.8,5.6c0,0.7,0.2,0.9,0.5,0.9c0.9,0,2.4-8.4,3.9-8.4c0.5,0,0.7,0.5,0.7,0.9c0,1.7-2.2,6.8-2.2,8.2
		c0,0.2,0.1,0.4,0.2,0.4c0.9,0,2.7-4,3.3-5.9c0.3-1,0.7-1.6,1.2-1.6c0.3,0,0.7,0.4,0.7,1.2c0,2-1.8,6.6-3.4,9.7
		c-1.2,2.4-3.1,5.9-3.1,7.8c0,1,0.2,2,1.6,3.2c-2.3-0.2-3.3-0.3-4.1-2.2c-3.9,7.8,7.2,7,3.4,13.9c-0.7-1.2-6.2-2.5-6.2-9.8
		c0-6.2,5.5-9.9,5.5-12.5c0-0.5-0.2-0.9-0.7-1.3c-1.2-1-1.2-1.9-2.2-1.9c-0.7,0-1.6,1.6-0.7,3.1c0.3,0.5,0.6,0.7,0.6,1.2
		c0,1-1.6,3.7-2.7,3.7s-2-2.8-2-7.4c0-4.1,0.9-8,2.1-8c0.3,0,0.4,0.2,0.4,0.5c0,0.5-0.2,1.4-0.2,3.1C13.7,50,14.1,50.1,14.4,50.1z
		 M70.4,14.3c0.6,0,0.7,1.4,0.8,2.2c0.1,0.4,0.2,0.5,0.3,0.5c0.4,0,1.2-1.7,1.6-1.7c0.7,0,2.6,1.9,5.6,1.9c4.4,0,8.6-3.1,8.6-8.6
		c0-5.3-3.7-8.4-8.9-8.4c-2.5,0-4.2,1.2-5.2,1.2c-0.6,0-1.5-1.4-1.9-1.4c-0.2,0-0.3,0.3-0.3,1c0,0.4,0,1.7-0.4,1.7
		c-0.9,0-4.3-2.5-4.3-1.6c0,0.8,2.2,3.4,2.2,4.1c0,0.7-2.2,1.2-2.2,1.7c0,0.8,2.4,0.9,2.4,2c0,1-2.5,1.8-2.5,2.6
		c0,0.7,2.5,0.2,2.5,0.9c0,0.7-1.8,3.3-1.8,4.1c0,0.2,0,0.2,0.2,0.2C67.8,16.6,69.9,14.3,70.4,14.3L70.4,14.3z M23.5,68.2
		c0-0.7,0.5-1.4,1.2-1.5c0.7-0.1,1.5,0.5,1.6,1.2c0.1,0.7-0.5,1.4-1.2,1.6C24.3,69.5,23.6,69,23.5,68.2z M19.4,69.4
		c0.2,1.2,1.3,2.2,2.7,2.1c0.5,0,0.9-0.2,1.2-0.3c0.3,1.2,1.2,1.9,2.6,1.7c1.3-0.1,2.3-1.2,2.2-2.6c0-0.3-0.1-0.6-0.2-0.8H28
		c1.2-0.2,2.2-1.3,2.2-2.6c-0.2-1.3-1.3-2.2-2.6-2.2c-0.5,0.1-0.9,0.2-1.2,0.5c-0.3-1.1-1.2-2-2.7-1.8c-1.2,0.1-2.2,1.3-2.2,2.7
		c0,0.2,0.1,0.5,0.2,0.7h-0.2C20.3,66.9,19.3,67.9,19.4,69.4L19.4,69.4z M100.9,2.3c0,0.5,0.4,0.9,0.9,0.9s0.9-0.4,0.9-0.9
		s-0.4-0.9-0.9-0.9S100.9,1.8,100.9,2.3z M80.5,37c0,0.8,0.7,1.6,1.6,1.6c0.8,0,1.6-0.7,1.6-1.6c0-0.8-0.7-1.6-1.6-1.6
		C81.1,35.5,80.5,36.1,80.5,37z M80.6,41.6c0,0.9,0.7,1.7,1.7,1.7c0.9,0,1.7-0.7,1.7-1.7c0-0.9-0.7-1.7-1.7-1.7
		C81.3,39.9,80.6,40.6,80.6,41.6z M75.3,44.7c0,1.4,1.2,2.5,2.5,2.5c1.4,0,2.5-1.2,2.5-2.5c0-1.4-1.2-2.5-2.5-2.5
		C76.4,42.2,75.3,43.3,75.3,44.7z M76.7,39.5c0,0.8,0.7,1.5,1.5,1.5c0.8,0,1.5-0.7,1.5-1.5S79,38,78.2,38
		C77.3,38,76.7,38.7,76.7,39.5z M71.9,42.4c0,0.8,0.7,1.5,1.5,1.5c0.8,0,1.5-0.7,1.5-1.5c0-0.8-0.7-1.5-1.5-1.5
		C72.5,41,71.9,41.7,71.9,42.4z M75.7,33.9c0,1.2,1.1,2.3,2.3,2.3s2.3-1.1,2.3-2.3s-1.1-2.3-2.3-2.3C76.7,31.6,75.7,32.6,75.7,33.9z
		 M78.4,29.4c0,0.7,0.7,1.4,1.4,1.4s1.4-0.7,1.4-1.4c0-0.7-0.7-1.4-1.4-1.4S78.4,28.7,78.4,29.4z M71.8,32.9c0,0.7,0.7,1.4,1.4,1.4
		c0.7,0,1.4-0.7,1.4-1.4c0-0.7-0.7-1.4-1.4-1.4C72.4,31.6,71.8,32.1,71.8,32.9z M71.6,37.7c0,1.2,1,2.2,2.2,2.2s2.2-1,2.2-2.2
		s-1-2.2-2.2-2.2S71.6,36.5,71.6,37.7z M67,40c0,1.2,0.9,2.1,2.1,2.1s2.1-0.9,2.1-2.1c0-1.2-0.9-2.1-2.1-2.1C68,38,67,38.9,67,40z
		 M68.2,34.9c0,0.8,0.7,1.5,1.5,1.5s1.5-0.7,1.5-1.5c0-0.8-0.7-1.5-1.5-1.5S68.2,34.1,68.2,34.9z M63.3,88.7c0,0.8,0.7,1.5,1.5,1.5
		c0.8,0,1.5-0.7,1.5-1.5c0-0.8-0.7-1.5-1.5-1.5C64,87.3,63.3,87.9,63.3,88.7z M24,28.2c0,0.8,0.7,1.5,1.5,1.5c0.8,0,1.5-0.7,1.5-1.5
		s-0.7-1.5-1.5-1.5C24.7,26.7,24,27.3,24,28.2z M22.1,24.9c0,0.8,0.7,1.5,1.5,1.5c0.8,0,1.5-0.7,1.5-1.5c0-0.8-0.7-1.5-1.5-1.5
		C22.8,23.4,22.1,24.1,22.1,24.9z M23.7,60.8c1.6,0,2.8-1.2,2.8-3.6v-3.7c0-1.4,0.1-3.1,1.1-4.1c-0.1,0.5-0.1,1-0.1,1.5
		c0,3.1,1.7,5.3,1.7,8.4c0,1.2-0.3,1.7-1.2,1.7c-0.8,0-0.7-0.7-0.9-0.7c-0.2,0-0.3,0.5-0.3,1c0,0.7,0.6,2,2.1,2
		c1.3,0,2.4-1.2,2.4-2.6c0-3.3-2.6-7-2.6-10.4c0-1.6,0.4-2.6,0.7-3.4c0,7.3,6.2,12.6,6.2,15.6c0,0.7-0.5,1.2-1.2,1.2
		c-0.8,0-1.2-0.7-1.2-1.2c0-0.2,0-0.3-0.2-0.3c-0.2,0-0.9,0.7-0.9,1.7c0,1.2,1,2.7,2.8,2.7c2.1,0,3.2-1.7,3.2-3.3
		c0-3.8-7.5-9.6-7.5-15.8c0-1.1,0.2-2.8,0.9-4.1c-4.8,3.1-6.3,7.2-6.3,10.9c0,3.1-0.1,4.7-1.7,4.7c-0.8,0-1.1-0.7-1.3-0.7
		c-0.2,0-0.3,0.7-0.3,0.8C21.7,60.1,22.7,60.8,23.7,60.8L23.7,60.8z M87,24.4c1.6,0,2.8-0.7,2.8-1.2c0-0.2-0.2-0.2-0.7-0.2
		c-0.5,0-1.4,0-3.2-0.3c-1.6-0.2-2.7-0.8-3.1-0.8c-0.2,0-0.2,0.1-0.2,0.2C82.5,22.9,84.4,24.4,87,24.4z M79.1,19.7
		c0.5-0.3,2.5,0.2,5.2-1.2c0.3-0.2,0.7-0.2,0.9-0.2c1.2,0,0.9,1.5,2.2,1.5c0.9,0,2.1-0.7,2.8-0.7c1.1,0,2.7,3.4,2.7,5.1
		c0,1.8-2.8,3-6.1,3c-4.9,0-7.8-4.2-7.8-7C78.8,19.8,79,19.8,79.1,19.7L79.1,19.7z M24.5,74.6c-1.2,0.3-3.1,2.2-3.1,5.2
		c0,3.6,3.8,9.1,10.2,9.1c5.3,0,6.6-3.7,6.6-6.2c0-5.6-3.4-9.4-7.8-9.4c-2.4,0-4.6,1.7-4.6,4.3c0,2.4,1.8,6,6.2,6
		c2.1,0,3.2-1.5,3.2-3.1c0-1.7-1.5-3.9-3.7-3.9c-0.7,0-1.2,0.4-1.2,1.2c0,0.9,1.2,1.7,2.7,1.7c0.3,0,0.7-0.1,0.8-0.2
		c0.1,0.1,0.1,0.3,0.1,0.4c0,0.8-0.8,1.3-2.1,1.3c-1.9,0-3.6-1.4-3.6-3.6c0-1.3,1.2-2.2,2.8-2.2c3.2,0,5.2,2.9,5.2,5.8
		c0,2.6-1.4,4.1-4.3,4.1C26,85.2,23.2,80,24.5,74.6L24.5,74.6z M20.8,34.9c-0.8,0.2-2.6,1.2-2.6,3.1c0,1.3,1,2.2,2.3,2.2
		c0.7,0,1.2-0.2,1.4-0.3c-1-1-1.4-2.1-1.4-3.1C20.6,35.8,20.7,35.3,20.8,34.9L20.8,34.9z M11.9,35.4V36c0,1.7,0.9,2.7,2.2,2.7
		c0.9,0,2-0.6,2.9-1.7C16.5,37,16,37,15.6,37C14.2,37,12.8,36.6,11.9,35.4z M10.6,38.7c0,2.8,0.8,4.1,2.3,4.1c1.2,0,2.7-0.8,4.6-2.5
		c-1.4,0.3-2.5,0.6-3.5,0.6C12.7,40.9,11.7,40.4,10.6,38.7L10.6,38.7z M66.2,96c1.7,0,1.7-0.2,2.2-0.2c0.6,0,0.6,0.3,0.6,0.6
		c0,0.8-1.8,1.8-5,1.8c-1.9,0-3-1-3.3-2.1c-1.8,1.2-4.6,2.2-7.4,2.2c-7.5,0-9.4-3.2-11.8-4.3c-1.8-0.8-4.6,0.7-8.4-3.5
		c0.5,0.1,1.2,0.2,1.7,0.2c3.4,0,5.1-1.7,5.1-4.3c0-0.3,0-0.7-0.1-1c1,0.4,3.4,2.2,3.9,5.2c0.1,0.3,1.6,0.7,2.5,0.7
		c1.3,0,3-0.6,3.2-2.7c4.4-0.3,7.4-3,8-6.2c1.6,0.5,3.4,1.9,3.8,2.7c0.6-0.2,1.3-0.3,2.2-0.3c1.2,0,2.5,0.2,4.1,0.7
		c0.1-0.5,0.2-1.1,0.9-1.1c1.1,0,0.8,1.2,1.2,1.9c0.2,0.3,1.1,0.6,1.1,1.3c0,0.7-0.6,0.9-0.9,0.9c-0.2,0-0.3,0-0.4-0.1
		c-0.7,0.2-0.7,5.6-3.8,5.6c-2.2,0-4.3-1.8-5.2-4.2c-0.2-0.7-0.8-1.2-1.3-1.2c-0.6,0-0.9,0.1-1.6,0.9c-2,2.2-5.2,4.1-9.3,4.1
		c-1.2,0-2.2-0.1-2.5-0.1c-0.2,0-0.2,0-0.2,0.1c0,0.2,1.2,1.2,4,1.2c6.5,0,8-3.6,9-3.6c0.2,0,0.6,0,0.8,0.6
		C60.8,95.2,64.2,96,66.2,96L66.2,96z M45.4,22.6c2.4,0,3.5,2.1,3.5,4.4c0,1-0.3,2.5-0.7,2.5c-0.5,0-0.4-0.8-0.5-1.6
		c-0.1-1-0.2-1.2-0.6-1.2c-0.7,0-1,1.5-1,2.8c0,0.8,0.2,1.8,0.8,1.8c0.3,0,0.7-0.2,0.9-0.4c-0.2,1.7-1.4,3.1-3.1,3.1
		c-3.2,0-4.4-3.7-4.8-6c-1.9,2.1-3.7,3.6-7,3.6c-3,0-4.3-2.2-4.3-4.3c0-0.7,0.2-2.2,1-2.2c0.9,0,0.1,3,1.9,3c0.4,0,1.2-0.3,1.7-1.6
		c0.2-0.7,0.4-1.5,0.4-2.2c0-1-0.2-1.6-0.9-1.6c-0.7,0-1.4,0.5-1.7,0.7c0.9-2.7,3-4,5.3-4c2.9,0,4.4,2.6,4.4,5.4
		c0,0.4,0,0.8-0.1,1.2C41.9,24.1,43.6,22.6,45.4,22.6L45.4,22.6z M36.3,0.8c0-0.2-1.1-0.4-2.6-0.4c-2.4,0-2.1,2-3.9,2
		c-1.9,0-1.4-2.1-3.8-2.1c-1.5,0-2.8,0.2-2.8,0.6c0,0.4,1.7,0.2,1.7,1.5s-3.7,1.7-3.7,2.4c0,0.2,0.3,0.3,0.7,0.3
		c0.8,0,2.1-0.3,3-0.3c0.5,0,1,0.1,1,0.6c0,0.9-2,2.6-2,3.3C23.9,8.9,24,9,24.2,9c0.7,0,2-1.9,3.1-1.9c1.9,0,0.7,4.1,1.7,4.1
		s0.7-4.1,2.2-4.1c1.2,0,2.2,2.8,3.1,2.8c0.2,0,0.4-0.2,0.4-0.4c0-0.7-1.1-2.3-1.1-3.4c0-0.7,0.4-0.9,1-0.9c0.8,0,2,0.5,2.6,0.5
		c0.2,0,0.4-0.1,0.4-0.3c0-0.9-3.2-1.8-3.2-3C34.5,1.3,36.3,1.3,36.3,0.8L36.3,0.8z M88.3,72.8c-0.7,0-5,5.6-7.7,5.6
		c-0.7,0-1.2-1.2-1.2-2.2c0-0.5,0.3-0.9,1.5-1.2c6.3-1.4,4.9-6.1,10.3-6.1c3,0,6.2,2,6.2,6.5c0,4.8-6.9,10.9-7.9,10.9
		c-0.8,0-1.7-1.2-1.7-2c0-0.2,0.1-0.6,0.8-0.9c3.5-1.4,5.6-4.6,5.6-6.2c0-0.3-0.2-0.7-0.7-0.7c-0.7,0-3.3,6-6.2,6
		c-2.1,0-4.1-1.8-4.1-2.7c0-1.5,5.9-4.1,5.9-6.2C89,72.8,88.7,72.8,88.3,72.8L88.3,72.8z M92.3,70.5c-0.5,0-1.1,0.4-1.1,1.4
		c0,1.1,0.8,1.8,1.3,2c0.2,0.2,0.7,0.3,1.1,0.3c1.1,0,1.9-0.3,1.9-1.2C95.5,71.8,93.9,70.5,92.3,70.5L92.3,70.5z M44.8,4.6
		c0,0.7,2.3,2.1,3.4,2.1c0.7,0,0.8-0.8,0.8-1.7c0-1.1-0.5-1.2-1.4-1.2C46.4,3.7,44.8,4.1,44.8,4.6z M48.7,11.8c0-2.2-6-6.2-6-7.9
		V3.7c0.4-1.2,5.4-2.1,5.4-3.1c0-0.5-0.9-0.5-1.3-0.5c-3.4,0-8.4,1.2-8.4,2.5s4.5,4.3,4.5,5.8c0,0.4-0.2,0.6-0.7,0.6
		c-1.2,0-4-1.5-5.2-1.5c-0.6,0-0.8,0.4-0.8,1c0,1.7,2.1,5.1,2.1,6c0,0.1,0,0.2-0.2,0.2c-0.7,0-3.7-3.6-4.9-3.6
		c-0.4,0-0.4,0.6-0.4,1.3v1.2c0,0.8,0,1.3-0.4,1.3c-0.9,0-1.4-2.7-2.3-2.7c-0.9,0-1.2,4.7-2.1,4.7c-1.1,0-0.2-5.2-1.2-5.2
		c-1.2,0-2.4,3.5-3.2,3.5c-0.3,0-0.3-0.3-0.3-0.6c0-1.1,0.7-2.8,0.7-3.8c0-0.5-0.2-0.8-0.6-0.8c-1.2,0-3.6,1.8-4.6,1.8
		c-0.2,0-0.3-0.1-0.3-0.2c0-0.9,4-3.6,4-4.9s-5.5-0.4-5.5-1.8c0-1.2,3.9-2.4,3.9-3.6c0-1.1-4.6-1.5-6.5-1.5C12.2,0,11,0.2,11,0.9
		c0,0.9,4.9,1.2,4.9,2.1s-5.1,3-5.1,4.2c0,1.1,7.1,0.1,7.1,1.2c0,1.2-6.2,6.6-6.2,8.4c0,0.4,0.3,0.6,0.7,0.6c1.9,0,6.8-3.6,8.2-3.6
		c0.5,0,0.5,0.6,0.5,1.1c0,0.9-0.3,2.4-0.3,3.5c0,0.8,0.2,1.4,0.9,1.4c1.3,0,2.6-2.3,3.5-2.3c1.2,0,0.5,6.8,2.2,6.8
		c1.5,0,2.2-7.3,3.1-7.3c0.9,0,1.7,2.2,2.6,2.2c1.1,0,0.6-3.7,1.7-3.7c1.2,0,5,4.4,6.5,4.4c0.5,0,0.7-0.4,0.7-0.9
		c0-1.9-2.7-6.3-2.7-7.7c0-0.3,0.1-0.5,0.5-0.5c1.4,0,5.6,2,7.5,2C48.2,12.6,48.7,12.3,48.7,11.8L48.7,11.8z M98.5,53.9
		c0.6-1.8,1.3-3.1,2.5-5.1c-1.2-0.6-4.4-1.9-4.4-4.1c0-2.5,3.1-4.5,3.8-4.5c0.3,0,0.3,0.2,0.3,0.7c0,1.3-0.7,3.4-0.7,4.6
		c0,1,0.7,2,1.2,2c0.7,0,2.3-2.2,2.3-4.3c0-3.9-3.4-5.1-4.5-5.1c-1,0-2.8,1.6-7,1.6c-7.9,0-9.6-7.8-9.6-11.2c0-0.2,0-0.2,0.1-0.2
		c0.2,0,0.9,0.9,3.4,0.9c1.2,0,2.5-0.3,4.3-0.3c4.4,0,6.3,3.1,9,6.9c1.7,1,5.6,2.7,5.6,7.3c0,4.1-4.3,6.4-5.4,10.8
		c1.7-0.2,2.7-3.1,4.4-3.1c0.9,0,1.2,0.7,1.2,1.8c0,1.6-0.9,4.1-2.7,5.6v-0.6c0-1-0.4-2.5-1.6-2.5c-1.8,0-2.4,2-3.4,3.6
		c-1.1-3.7-2.5-7.1-5.1-9.1c-2.6-2.1-7-0.9-7-4.7c0-1,0.7-2.5,0.7-3.6c0-0.4-0.1-0.7-0.3-1.1c3.5,1.3,2.2,3.6,4.4,6
		c1.3,1.6,5.1,3,7.2,9.3c0-0.2,0.1-0.7,0.1-1c0-5.4-7.1-10.7-7.8-12.9c4.1,0.5,4.9,1.5,6.9,7C97.2,49.6,98.5,52.5,98.5,53.9
		L98.5,53.9z M20.1,24c0.2-0.6,0.3-1.3,0.3-2.2c0-1.7-0.8-4.4-3.3-4.4c-1.4,0-2.5,1.2-2.5,2.5C14.7,22.9,17.5,24,20.1,24L20.1,24z
		 M16.9,33.2c-1.2,0-2.5-1.5-2.5-2.8c0-0.7,0.6-1.7,0.9-1.7c0.2,0,0.2,0.1,0.2,0.3c0.2,1.8,1.4,2.8,2.5,3.3c0.1,0.1,0.2,0.1,0.2,0.2
		C18.3,32.9,17.6,33.2,16.9,33.2z M21.2,29.8c0,0.5-0.3,1.2-0.9,1.2c-1.2,0-2.3-1.9-2.3-3.1c0-0.7,0.4-0.7,0.9-0.7
		c0.2,0,0.3,0,0.6,0.2c0.3,0.2,0.3,0.9,0.7,1.5C20.6,29.2,21.2,29.6,21.2,29.8L21.2,29.8z M20,26h-0.8c-1.2,0-2.8,0.2-4.2,1.2
		c-3.2,2.1-2.7,5.4-3.2,6.2c-0.1,0.1-0.1,0.2-0.1,0.4c0,0.3,0.3,0.7,0.7,0.7c0.3,0,0.5-0.1,0.7-0.1c0.9,0,1.8,0.7,3.3,0.7
		c0.8,0,1.8-0.2,3.1-0.9C22,32.8,23,29.6,23,29c0-0.7-0.6-0.6-1-1.2c-0.5-0.7-0.2-1.1-0.6-1.5C21.1,26,20.7,26,20,26L20,26z
		 M23.9,31.9c-0.8,0.9-1.7,2.6-1.7,4.2c0,2,1.2,3.6,3.1,3.6c1.8,0,2.7-1.6,2.7-3.1C27.9,34.1,25.7,32.4,23.9,31.9L23.9,31.9z
		 M16,24.9c0,0-1.1,0.8-2.4,0.8c-1.6,0-2.8-1.2-2.8-2.8c0-1.2,0.6-2.3,1.9-2.9v0.7C12.8,22.6,13.9,24.2,16,24.9L16,24.9z M81.1,46.1
		c0-0.7,0.7-1.3,1.4-1.3c0.8,0,1.4,0.7,1.4,1.3c0,0.8-0.7,1.4-1.4,1.4C81.7,47.6,81.1,47,81.1,46.1z M82,88.2c0.2,0,0.4,0.1,0.4,0.7
		c0,0.8-0.3,1.8-1.7,2.7c-0.9,0.7-2.2,1.2-4,1.2c0.3-0.9,0.5-1.8,0.5-2.7c0-0.3,0-0.5-0.1-0.8h0.5C80.6,89.2,81.8,88.2,82,88.2
		L82,88.2z M82.3,84.5c0.3-0.2,0.3-0.7,0.3-1.1v-0.8c0-1.1-1.6-1.7-3.8-1.7c-2.7,0-4.1,1.2-4.1,1.7v1.7c0,0.7,1.6,1.4,3.6,1.4
		C79.9,85.8,81.3,85.3,82.3,84.5L82.3,84.5z M84.2,84.9c-0.9,0.7-3.1,2.4-6.9,2.4c-2,0-2.8-0.7-3.1-0.7S73.4,87,73,87.5
		c-0.9,1-2,2.9-2,5c0,1.5,1.2,2.9,3.2,2.9c6.8,0,11.9-4.3,11.9-7.7C86.2,85.8,85,84.9,84.2,84.9L84.2,84.9z M85.4,54.2
		c0,0.9,0.3,2,1.2,2c0.7,0,1.4-1.2,1.4-2.5c0-1.5-0.2-2.6-0.2-3.1c0-0.2,0.1-0.3,0.2-0.3c0.6,0,1.1,1.6,1.7,1.6
		c0.7,0,1.7-1.2,2.1-1.2c0.1,0,0.2,0.2,0.2,0.2c0,0.6-0.8,1.7-0.8,2.2c0,0.4,2.2,0.5,2.2,0.8c0,0.6-2.2,0.6-3.3,1
		c-1,0.4-1.7,1-1.7,1.7s0.7,0.9,1.7,0.9c2.5,0,4.1-1.3,4.7-1.3c0.1,0,0.2,0.1,0.2,0.2c0,0.3-1.2,1.6-1.2,2.2c0,0.7,2.2,1.3,2.2,1.7
		c0,0.1-0.2,0.2-0.4,0.2c-0.4,0-1-0.1-1.5-0.1c-0.3,0-0.6,0-0.7,0.2c-0.2,0.3,0.1,2.2-0.4,2.2c-0.5,0-1.7-4.3-4.6-4.3
		c-0.4,0-0.7,0.3-0.7,0.9c0,1.5,1.4,3.1,2.8,4c0.6,0.4,1.7,0.8,1.7,1c0,0.4-2.3,0-2.3,0.7c0,0.7,0.3,1.7,0.3,2.2
		c0,0.2,0,0.4-0.2,0.4c-0.4,0-1.5-2-2-2c-0.4,0-1.4,1.2-1.8,1.2c-0.1,0-0.2-0.1-0.2-0.2c0-0.8,1.3-2.7,1.3-4.6
		c0-0.9-0.1-2.8-1.2-2.8c-0.9,0-1.8,1.4-2.3,2.8c-0.2,0.8-0.1,3.9-0.7,3.9c-0.6,0-0.4-2.1-1.2-2.1c-0.6,0-1.7,1-2.2,1
		c-0.1,0-0.2,0-0.2-0.1c0-0.4,1.1-1.8,1.1-2.2c0-0.6-2.4-0.7-2.4-1.1c0-0.2,0.9-0.4,1.8-0.6c1.8-0.3,4.6-1.7,4.6-3.6
		c0-2.2-2.1-3.1-3.4-3.9C80.8,53,80,52.6,80,52.4c0-0.3,0.9-0.3,1.2-0.3c0.6,0,1.1,0,1.1-0.5c0-0.3-0.1-1-0.1-1.5
		c0-0.3,0-0.7,0.2-0.7c0.6,0,1.3,1.8,1.7,1.8c0.6,0,1.4-1.5,1.9-1.5c0.2,0,0.2,0.1,0.2,0.4C86.2,51.4,85.4,52.9,85.4,54.2L85.4,54.2
		z M68,43.5c0.4,3.1,4.6,1.5,4.6,5.3c0,0.6-0.2,1.3-0.2,2.1c0,0.8,0.1,1.5,0.7,1.5s0.7-0.4,0.7-1s-0.2-1.3-0.2-1.7
		c0-1.2,0.9-1.6,1.5-1.6c1.4,0,2.5,1.4,4.6,1.4c-0.5,2.3-5.3,1.7-5.3,4.3c0,1.2,1.2,1.6,2.2,1.6c0.7,0,1-0.1,1-0.7
		c0-0.3-0.1-0.7-0.1-1c0-0.2,0.1-0.3,0.3-0.3c0.8,0,4.7,3,4.7,3.9c0,0.8-4.1,1.7-5.4,1.7c-0.3,0-0.4-0.2-0.4-0.4
		c0-0.2,0.7-1,0.7-1.5c0-0.3-0.6-0.6-2-0.6c-0.7,0-1.2,0.1-1.2,0.7c0,1,1.6,2.2,1.6,3.1c0,0.7-0.4,1.2-1.6,1.2c-1,0-2.5-0.7-2.5-2.1
		c0-1,1.1-2.1,1.1-2.7c0-0.2-0.2-0.5-0.6-0.5c-1.3,0-1.7,3.6-6.5,4c0.7-0.7,1.4-1.5,1.4-3.1c0-0.7-0.2-1.4-0.2-2.2
		c0-1.1,0.5-1.7,1.2-1.7c1.3,0,2,1.9,2.9,1.9c0.5,0,1-0.4,1-1.1c0-2.8-5.3-2.4-5.3-6.3C66.7,46.7,67.1,45.3,68,43.5L68,43.5z
		 M75,67.2c0,0.5,0.3,0.9,0.9,0.9s1-0.5,1-1.1c0-0.7-0.7-1.8-1.3-1.8c-0.3,0-0.2,0.4-0.2,0.9C75.2,66.5,75,67,75,67.2L75,67.2z
		 M73.1,62.4c3.8,0.7,5.9,3.6,5.9,6.3c0,1.9-1.2,3.6-3.2,3.6c-1.8,0-3.2-1.2-3.2-3.3c0-1.6,1.2-3.1,1.2-4.7
		C73.8,63.6,73.6,63,73.1,62.4L73.1,62.4z M68.2,68.6c0.3,0.3,0.5,0.7,0.5,1.1c0,0.6-0.2,1.2-0.2,1.7c0,0.9,0.7,1.7,1.6,1.7
		c1,0,1.7-0.8,1.7-1.7C71.8,69.9,70.4,68.6,68.2,68.6L68.2,68.6z M80.3,66.3c0.2,0.4,0.3,0.8,0.3,1.2c0,1-0.7,2-0.7,3.1
		c0,1.2,0.9,2.2,2.3,2.2c1.5,0,2.5-1.2,2.5-2.7C84.8,68.1,83,66.5,80.3,66.3z M69.1,64.3c1.7,0.2,2.1,0.8,2.1,1.2
		c0,0.8-0.7,1.1-1.4,1.1c-0.5,0-1.1-0.1-1.7-0.1c-0.8,0-1.6,0.2-2.2,0.9c0.5,0.1,1.2,0.4,1.2,1.2c0,2.2-5.9,0.3-5.9,5.8
		c0,2.9,3,6,7.5,6c2.3,0,3.8-0.7,3.8-1.7c0-0.7-1.2-0.2-1.2-0.8c0-0.2,0.4-0.7,0.4-1.2c0-0.2-0.2-0.5-0.4-0.5
		c-0.7,0-1.9,1.1-4.4,1.1c-2,0-3.9-1.2-3.9-2.7c0-0.3,0.2-0.5,0.3-0.5s0.5,0.2,0.7,0.2c0.2,0,0.2-0.2,0.2-0.6c0-0.4,0-1.6,0.7-1.6
		s2,2.6,7,2.6c1.7,0,5-0.3,6.1-1.4c0,4.1-3.1,9.3-9.8,9.3c-6.8,0-10.5-5.5-10.5-10.5c0-5.6,4.6-10.7,10.9-10.7c1.6,0,3,0.6,3,1.2
		C71.7,63.8,69.3,63.1,69.1,64.3L69.1,64.3z M42.6,26.9c0-0.7-0.2-0.7-0.3-0.7c-0.3,0-0.7,0.4-1.3,1.4c0.1,1.3,0.3,1.9,0.7,1.9
		C42,29.4,42.6,28.2,42.6,26.9z M37.6,28.4c0.4,0,0.9-0.4,1.9-1.5c0.1-0.5,0.1-0.9,0.1-1.5c0-0.7-0.3-1.6-0.7-1.6
		c-1.1,0-1.7,2.9-1.7,3.7C37.2,28,37.4,28.4,37.6,28.4z M43.6,31.7c0.9,0,1.9-3.5,1.9-5.7c0-0.5-0.1-1-0.3-1c-0.7,0-2.1,3.6-2.1,5.6
		C43.2,31.3,43.4,31.7,43.6,31.7z M34.7,29.7c1.2,0,2.7-6.7,2.7-7.9c0-0.3-0.1-0.5-0.3-0.5c-1.2,0-2.7,6.4-2.7,7.8
		C34.2,29.3,34.3,29.7,34.7,29.7L34.7,29.7z M38.6,32.4c-1.6,0-1.7,1.9-1.7,5.7c-1.2-2.5-3.1-5.2-5.4-5.2c-1.6,0-2.2,1-2.2,2.8
		c0,0.3,0,0.9,0.1,1.2c0.2-0.6,0.7-0.9,1.5-0.9c1.6,0,3.5,1.2,4.7,2.8c-1.4-0.2-2.8-0.5-4-0.5c-0.7,0-1.4,0.1-1.9,0.3
		c-1.1,0.5-2.5,2.1-2.5,4.4c0,0.3,0,0.7,0.1,1.2c1.2-2.8,4.6-4.1,6.9-4.1c0.4,0,0.7,0,1,0.1c-1.2,1-1.4,2.8-1.5,4
		c0,0.6-0.2,0.7-0.7,0.7c0,1.2,0.9,3,0.9,3.9c0,0.3-0.2,0.7-0.3,0.7c0,1.6,1.6,2.8,1.6,3.8c0,0.2-0.1,0.5-0.2,0.6
		c0.1,0.7,1.9,1.8,2.1,2.2c0.3,0.7,0.7,0.8,0.8,0.8c0.6,0,1.6-0.7,1.6-1.4c0-0.2-0.2-0.5-0.3-0.6c-0.7-0.5-1.1-1.6-1.3-2.3
		c-0.2,0-0.6-0.2-0.7-0.5c-0.2-0.5-0.2-2.2-0.5-3.1c-0.5-0.1-0.7-0.3-0.7-1.2c0-0.5,0.3-2.3,0.3-3c-0.2,0-0.5-0.2-0.5-0.6
		c0-1.2,1.2-2.1,1.5-3.6c2.1,1.6,2.6,3.1,2.6,4.5c0,0.7-0.1,1.4-0.2,2.1c1.6-0.7,3.8-1.9,3.8-4.2c0-1.3-0.7-2.8-4.7-3.4
		c1.2-0.5,2.9-0.7,4.2-0.7c2.3,0,3.7,0.7,4,2.4c0.5-0.7,0.8-1.6,0.8-2.3c0-1.8-1.5-3-3.4-3c-2.2,0-4.2,1.2-6.3,2.6
		c0.9-2,1.6-3.1,2.8-3.1c0.2,0,0.3,0,0.6,0.1C41.1,34,39.5,32.4,38.6,32.4L38.6,32.4z M15.3,9.6c0,0.7-2.8,3.1-3.7,3.1
		c-0.3,0-0.5-0.4-0.5-0.8c0-0.7,0.3-1.7,0.7-2.1c0.5-0.4,1.6-0.7,2.4-0.7C14.8,9.3,15.3,9.4,15.3,9.6L15.3,9.6z M100.2,58.7
		c1.8,0,3.3,2.4,3.3,5.1c0,3-1.4,6.2-3.9,8.4c0-5-6-3.4-6-7c0-1.6,1.1-2.6,2.4-2.6c1.2,0,2.1,0.3,2.7,1c-0.7-0.6-1-1.5-1-2.3
		C97.7,60.1,98.6,58.7,100.2,58.7L100.2,58.7z M73.1,21.4c-0.3-0.5-1.4-0.7-1.9-0.7c-1.6,0-2.7,1.2-2.9,2.2C68.1,22.5,68,22,68,21.5
		c0-1.6,1.1-3.6,3.7-3.6c2.3,0,3.2,1.2,3.6,1.2s0.7-0.3,1-0.3c0.4,0,0.4,0.7,0.4,1.1c0,1.5-0.7,4-2.3,4.9c-0.3-0.7-0.9-1.3-1.8-1.7
		c-0.2-0.1-0.3-0.3-0.3-0.6C72.3,22.1,72.6,21.6,73.1,21.4L73.1,21.4z M67.5,24c0.9,0.9,1.8,1.3,2.8,1.3c0.4,0,0.9-0.1,1.2-0.1
		c0.3,0,0.6,0.2,0.6,0.4c0,0.4-0.3,1.1-0.8,1.4c0.4,0.2,0.9,0.2,1.4,0.2c2.1,0,4.5-1.3,4.5-4.6c0.4,0.6,0.7,1.8,0.7,2.3
		c0,4-2.9,5.6-5.6,5.6c-1.7,0-2.7-0.6-2.8-0.6c-0.7,0-0.7,1.4-1.2,1.3c-0.8-0.2-1.6-2-1.6-4C66.6,26.2,66.9,24.9,67.5,24L67.5,24z
		 M42.2,13.4c0,1.2,4.6,7.5,5.5,7.5c0.7,0,1.2-1.2,1.2-2.4c0-0.3-0.1-0.6-0.2-0.8c-0.7-0.9-5.3-4.6-6.3-4.6
		C42.3,13.2,42.2,13.3,42.2,13.4L42.2,13.4z M94.9,10.4c0-2.6-6.2-3.2-6.2-3.8c0-0.5,3.5-1.2,5.3-1.3c-2.7-3.5-6.6-3.1-6.6-3.7
		c0-0.3,2.9-1.1,5.6-1.1c2.2,0,4.4,0.5,4.4,2.2c0,0.9-0.7,1.9-0.7,3.4c0,0.8,0.4,1.5,1.5,1.5c1.2,0,1.4-1.2,1.4-2.5
		c0-1.1-0.2-1.8-0.2-2.4c0-1.6,1.1-2.6,2.6-2.6c1.2,0,1.6,0.6,3.4,0.6c-1,0.6-1.3,1.7-1.3,2.2c0,1.6,1,2.6,1,5.7
		c0,5.8-5.4,7.8-12,7.8c-1.8,0-3.7-0.2-5.6-0.4C87,16,87,15.9,87,15.7c0-0.5,2.6-0.7,2.6-3.1c0-0.9-0.3-1.8-0.3-2.2
		c0-0.2,0.2-0.3,0.3-0.3c0.6,0,1.7,2.2,3.6,2.2C93.6,12.3,94.9,12.1,94.9,10.4L94.9,10.4z M101.1,6.7c0,3.2-2.4,5.7-6.6,6.5h1.3
		c5,0,6.8-2.2,6.8-4.1C102.6,8,102,7,101.1,6.7z M97.6,36.1c0-0.7-1.9-0.8-2.2-3c0-0.3-0.2-0.9-0.6-0.9c-0.7,0-0.2,2-0.9,2
		c-1.7,0-2.2-3.3-2.8-3.3c-0.2,0-0.3,0.1-0.3,0.6c0,0.4,0.1,0.7,0.1,1.2c0,0.5-0.1,0.8-0.6,0.8c-1,0-1.9-2.3-2.7-2.3
		c-0.2,0-0.3,0.1-0.3,0.3c0,0.4,0.7,1.2,0.7,1.7c0,0.9-2.4,0.4-2.4,1.2c0,0.3,0.3,0.4,0.7,0.4c0.7,0,2-0.3,2.6-0.3
		c0.3,0,0.9,0.1,0.9,0.6s-1.3,1.2-1.3,1.7c0,0.2,0.2,0.3,0.4,0.3c1,0,2.7-1.7,4-1.7c0.2,0,0.7,0.1,0.7,0.4c0,0.5-1.2,1.3-1.2,2
		c0,0.2,0.1,0.4,0.3,0.4c0.7,0,1.6-1.7,2.8-1.7c0.5,0,1.2,0.2,1.6,0.2C97.5,36.4,97.6,36.2,97.6,36.1L97.6,36.1z M71.4,8.2
		C71.4,7.8,70,7,70,6.6c0-0.1,0.1-0.1,0.2-0.1c0.4,0,1.1,0.2,1.7,0.2c0.5,0,0.6-2.1,0.9-2.1c0.2,0,0.7,1.9,1.1,1.9
		c0.5,0,1.3-0.6,1.7-0.6c0.1,0,0.2,0,0.2,0.1c0,0.2-0.9,1.2-0.9,1.6s2.1,0.7,2.1,1c0,0.3-2.1,0.3-2.1,0.7c0,0.2,0.7,1.2,0.7,1.6
		c0,0.1,0,0.1-0.1,0.1c-0.3,0-1.4-0.5-1.7-0.5c-0.4,0-1.1,1.5-1.4,1.5c-0.1,0-0.2-0.2-0.2-0.3l-0.1-1.5c0-0.2-0.1-0.3-0.2-0.3h-1.6
		c-0.2,0-0.2,0-0.2-0.1C70,9.5,71.4,8.5,71.4,8.2z M78.6,15.2c-2.6,0-4.2-1.2-4.2-1.9c0-0.3,0.2-0.6,0.5-0.6c0.8,0,2.6,1.2,3.1,1.2
		c0.2,0,0.2-0.1,0.2-0.3c0-0.7-0.7-1.7-0.7-2.3c0-0.2,0.1-0.2,0.3-0.2c1,0,2.5,0.4,3.2,0.4c0.2,0,0.3-0.2,0.3-0.3
		c0-0.8-2.4-2.4-2.4-2.8c0-0.4,3-1.1,3-1.8s-4-0.2-4-0.9c0-0.5,0.7-1.4,0.7-1.8c0-0.2-0.2-0.2-0.4-0.2c-0.3,0-2.1,0.7-2.8,0.7
		c-0.3,0-0.8-0.1-0.8-0.6c0-0.8,1.4-1.7,3.6-1.7c3.6,0,5.8,2.5,5.8,6.6C84.2,13.8,80.6,15.2,78.6,15.2L78.6,15.2z M53.8,78.4
		c0,0.3-0.1,0.7-0.4,1.1c-0.4-0.7-1.6-1.1-2.1-1.1c-3.7,0-2.3,5.5-6.4,5.5c-1.7,0-1.8-0.2-2.5-0.2c-0.2,0-0.4,0.1-0.4,0.3
		c0,0.9,1.3,3.3,5.1,3.3c3.7,0,7.4-2.3,7.4-5.1c0-0.5-0.1-1-0.3-1.5c0.2-0.2,0.5-0.3,0.8-0.3c0.6,0,0.9,0.7,1.5,0.7c0.6,0,1-0.4,1-1
		c0-0.5-0.2-0.8-0.7-1c0.3-0.2,0.5-0.6,0.5-1c0-0.7-0.4-1.2-1.2-1.2c-0.3,0-0.6,0.1-0.8,0.3c-0.1-0.7-0.4-1.2-1.2-1.2
		c-0.6,0-0.9,0.4-0.9,1C53.5,77.3,53.8,77.7,53.8,78.4L53.8,78.4z M44,79.8c-1.1,0-2.7-1.2-2.7-1.8c0-0.6,0.5-0.8,0.9-0.8
		c0.9,0,2.6,1.2,2.6,2.1C44.8,79.5,44.5,79.8,44,79.8L44,79.8z M33.8,71.6c2.9,0.7,4.4,2.3,4.6,4.1c0.3,1.8,0.7,3.2,1.3,4
		c0.9,1,2.7,1.9,4.3,1.9c1.3,0,2.4-0.4,2.4-1.7c0-1.3-1.8-4.3-4.4-4.3h-0.9c-0.3,0-0.8-0.1-1.1-0.3c-0.6-0.5-0.7-3.2-1.9-4.9
		c-1.2-1.8-2.5-2.3-4.3-2.3c-1.2,0-2.7,0.7-2.7,1.7C31.2,70.6,31.4,71,33.8,71.6L33.8,71.6z M52.1,67.1c0-1.7-3.4-1.7-3.4-4.1
		c0-0.7,0.4-1.7,1.2-2.8c0.3,1.9,1.1,2.9,2.7,3.5c3.2,1.2,3.7,3.1,3.7,5c0,3.3-2.3,7.4-8.2,7.4c-4.7,0-8.1-4.2-8.1-7.8
		c0-1,0.2-2.1,0.9-2.1c0.6,0,0.7,0.4,1.2,0.9c1.7,1.7,3.4,2.1,6,2.1C50.4,69,52.1,68.1,52.1,67.1L52.1,67.1z M52.3,69.8
		c-1.2,0.5-1.7,0.5-1.7,1.7c0,0.5-0.1,1.1-0.1,1.4c0,0.4,0.1,0.7,0.6,0.7c1.3,0,3.4-2.2,3.4-4.1c0-0.5-0.3-0.7-0.6-0.7
		C53.5,68.8,53.1,69.4,52.3,69.8z M40.6,51.3c0-2.3,5.6-3.6,5.6-6.5c0-0.5-0.2-1.3-0.5-1.9c1.9,1.1,3.4,2.8,3.4,4.3
		c0,2.5-2.7,3.7-2.7,5.3c0,1.8,2.8,2.2,2.8,4.4c0,1.8-2.7,4.1-2.7,6.5c0,1.8,1.3,3.4,3.3,3.6c-0.7,0.2-1.2,0.2-1.9,0.2
		c-3.7,0-7.5-3.1-7.5-6.6c0-1.8,0.7-3.4,1.9-4.5c1,0.9,2.1,1.5,2.7,1.5c0.6,0,0.8-0.3,0.8-0.7C46,55.4,40.6,54.2,40.6,51.3
		L40.6,51.3z M48.2,129.5c1,0,2.8-0.3,4.2-2.6c-0.8-1.7-1.4-5.4-1.4-6.6c-0.4-6.7,2.2-12.9,5-13.1c2.1-0.1,3.7,1.8,3.9,5
		c0.5,8.3-2.2,11.8-3.6,14.7c0.2,1.2,2.2,3.1,4.1,3.1c0.7,0,1.5-0.3,1.7-0.7c-0.2-0.5-0.2-1.1-0.2-2c0-4.8,3.1-8.9,5.8-8.9
		c2.2,0,3.4,2.8,3.4,4.7c0,2.2-1.8,4-4.6,5.7c0.5,0.5,1.4,0.8,2.2,0.8c3.9,0,6-4.7,7.5-9.1c0.2-0.8,0.7-2,1.7-2
		c1.7,0,2.3,10.9,5.1,10.9c1.2,0,2.2-2.4,2.2-4.2c0-1.4-0.5-1.5-0.5-3.5c0-2.2,1.2-4.1,2.7-4.1c1,0,1.3,1,1.3,2.2
		c0,4.4-3.1,12.6-7.9,12.6c-3.5,0-3.2-6-4.5-6c-1.4,0-3.3,6.1-10.1,6.1c-1.1,0-2.2-0.6-3.2-1.7c-1.7,1.1-3.1,1.6-4.6,1.6
		c-2.6,0-3.6-2.7-4.6-2.7c-1.2,0-2.7,2.7-6.7,2.7c-3.3,0-3.9-4.4-5.1-4.4c-1,0-2.7,4.4-4.3,4.4c-2.9,0-3.5-7.6-6-7.6
		c-2,0-8.3,7.8-10,7.6c-0.7-0.1-1-0.6-0.9-1.2c0.1-0.9,0.9-3.5,1.2-4.7c0.6-2.1,1.1-4.4,1.3-5.1c0.2-0.7,1.1-1.2,1.7-1.2
		c0.3,0,0.4,0.6,0.5,1.1c0.3,1.7,0.8,3.5,1.4,3.5c1,0,4.1-6.1,6-6.1c2.2,0,2.6,9.6,5.6,9.6c1,0,1.8-1.2,2.5-2.7
		c0.1-2.6,0.7-6.2,2.8-6.2c1.4,0,2.2,3.2,1.1,6C44.5,128.7,46.8,129.5,48.2,129.5z M99.5,123c0-1.7-1.6-4.1-3.9-4.1
		c-3.1,0-6.1,3.4-6.1,8c0,4.2,2.6,5.6,5.2,5.6c4.6,0,7.3-3.7,8.8-6.8c0.7,2.1,1.1,6.8,2.8,6.8c0.7,0,1.2-0.3,2-2.2
		c2.1-4.6,4.1-9.9,6.8-9.9c1,0,0.4,1.8,2.9,1.8c1.2,0,2-1,2-2.1c0-1.6-1.4-2.8-3.6-2.8c-6.5,0-7.9,9.7-8.9,9.7
		c-1.7,0-1.2-7.8-2.4-7.8c-1.1,0-1.7,1.3-1.8,1.9c-0.9,3.6-3.5,8.8-7.3,8.8c-0.9,0-2.5-0.3-2.5-1.2C93.5,127.8,99.5,127.6,99.5,123
		L99.5,123z M57.6,113.9c-0.1-1.9-0.6-2.8-1.7-2.7c-1.4,0.1-2,4.4-1.7,8.9c0.2,3,0.6,3.4,1,3.4C56,123.5,57.9,118.2,57.6,113.9z
		 M46.3,110c-0.1-1.1-1-1.8-2.2-1.8c-1.3,0-2.6,1.4-2.4,3.1c0,1,0.7,2.1,2.1,2.1C45.4,113.2,46.5,111.5,46.3,110z M67.8,124
		c0-1.2-0.7-2.2-1.4-2.2c-0.7,0-2.1,0.7-2.1,2.9c0,1.7,0.6,2.6,0.9,2.9C67.2,127,67.8,125.4,67.8,124z M94.7,121.6
		c1.4,0,1.8,1.7,1.5,2.7c-0.3,1-1.6,2.2-3.5,2.6C92.3,125.9,92.1,121.6,94.7,121.6z M0,122.7c-0.1-2.8,0.1-5.6,1.2-9.6
		c0.6-2.2,1.2-2.9,3.1-3.3c1.5-0.2,1.4,1.3,1.1,3.1c-0.7,4.1-1.1,6.1-0.8,10.8c0.2,5,2.6,6.9,5.1,6.9c3.7,0.1,5.4-3.1,6-7.5
		c0.6-3.6,0.2-5.3-0.2-6.4c-0.2-0.6-0.7-2-1-3.1c-0.2-2.7,1-3.8,2-4.2c1.2-0.3,1.7,0.2,2.2,1.7c0.7,2.2,0.7,5.1,0.5,9.2
		c-0.2,5.6-3.1,12.4-10.1,12.3C3,132.7,0.3,128.7,0,122.7L0,122.7z"/>
</g>
</svg>
