<svg id="Layer_1" xmlns="http://www.w3.org/2000/svg" viewBox="-429 218 70 84"><style>.st0{fill:#fff}</style><path class="st0" d="M-394.1 295.9c-.2 0-.4-.1-.6-.2-15.3-12.3-22.2-23.7-25.3-31.1-.8-1.8-1.5-3.7-1.9-5.6-.1-.6-.2-.9-.2-.9-.3-1.7-.5-3.6-.5-5.4 0-15.8 12.8-28.6 28.6-28.6s28.6 12.8 28.6 28.6c0 1.8-.2 3.6-.5 5.4 0 .2-.1.5-.2.9-.4 1.9-1.1 3.8-1.9 5.7-3.1 7.4-10.1 18.8-25.3 31-.4.1-.6.2-.8.2zm-26.1-38.1c0 .1.1.3.2.8.4 1.8 1 3.6 1.8 5.3 3 7.1 9.6 18 24.1 29.8 14.5-11.8 21.1-22.7 24.1-29.8.8-1.7 1.4-3.5 1.8-5.3.1-.5.2-.8.2-.8.3-1.7.5-3.4.5-5.1 0-14.6-11.9-26.6-26.6-26.6-14.6 0-26.6 11.9-26.6 26.6 0 1.7.2 3.4.5 5.1 0-.1 0-.1 0 0zm27.1 8.9c0-.6-.4-1-1-1-7 0-12.8-5.7-12.8-12.8 0-7 5.7-12.8 12.8-12.8 7 0 12.8 5.7 12.8 12.8 0 .6.4 1 1 1s1-.4 1-1c0-8.1-6.6-14.8-14.8-14.8-8.1 0-14.8 6.6-14.8 14.8 0 8.1 6.6 14.8 14.8 14.8.6 0 1-.4 1-1z"/></svg>