<svg id="Layer_1" xmlns="http://www.w3.org/2000/svg" viewBox="-429 218 70 99"><style>.st0{fill:#fff}</style><path class="st0" d="M-381.4 287.2h-.9c-.8 0-1.5-.7-1.5-1.5s.7-1.5 1.5-1.5c4.9.1 8.8-.6 11.5-2l1.4-.7c.9-.5 2-1.2 2.2-2.1.1-.5.1-1.5-1.1-3.8-1.4-2.7-2.9-4.4-4.5-5.2-1.4-.7-3-.6-4.7.3l-1.8.9c-2.7 1.4-5.5 1.2-7.9-.8-2.4-1.9-4.8-5.3-7.4-10.3-2.6-4.9-4-8.8-4.3-11.8-.2-1.9 0-3.3.5-4.4.6-1 1.7-1.9 3.4-2.8l1.9-1c1.7-.9 2.6-2.1 2.8-3.6.2-1.7-.3-3.9-1.7-6.6-1.2-2.3-2.1-2.9-2.6-3.1-.7-.3-1.9 0-3.4.8l-1.2.6c-2.7 1.4-5.3 4-7.7 7.8.4 3.9 1.4 8.1 2.7 12.3 1.4 4.4 3.4 9.1 5.9 13.8 2.5 4.7 5.1 8.9 7.9 12.5.7.9.8 1.1 1.2 1.5.4.5 1 1.2 2.5 2.9.5.6.4 1.6-.2 2.1-.6.5-1.6.4-2.1-.2-1.4-1.7-2-2.4-2.4-2.9-.4-.5-.6-.7-1.4-1.7-2.9-3.8-5.6-8.1-8.2-13-2.6-4.9-4.6-9.7-6.1-14.3-1.5-4.6-2.5-9.1-2.9-13.4 0-.3 0-.7.2-.9 2.8-4.4 5.8-7.6 9.1-9.3l1.2-.6c2.3-1.2 4.2-1.5 5.8-.9 1.5.6 2.9 2 4.2 4.5 1.7 3.3 2.4 6 2 8.4-.4 2.5-1.8 4.5-4.4 5.8l-1.9 1c-1.6.8-2 1.4-2.1 1.6-.1.2-.4.9-.2 2.6.3 2.6 1.6 6.2 4 10.7 2.4 4.6 4.6 7.7 6.7 9.4 1.5 1.2 2.9 1.3 4.6.4l1.8-.9c2.6-1.4 5.1-1.5 7.4-.3 2.2 1.1 4.1 3.2 5.8 6.5 1.2 2.4 1.7 4.3 1.3 5.8-.4 1.6-1.6 3-3.7 4.1l-1.4.7c-2.7 1.8-6.7 2.6-11.8 2.6z"/><path class="st0" d="M-422.4 310.7c-.7 0-1.3-.5-1.5-1.2-.5-2.7 1.8-4.8 3.3-5.6.1 0 .1-.1.2-.1 1.5-.6 5.8-2.4 7.6-4.4 0-.3-.1-.9-.3-1.5-.9-.4-1.7-1-2.6-1.7-3.8-2.9-7.1-7.5-5.3-10.6.3-.5.9-.9 1.6-.8 2.3.2 6.9 7.4 8.6 10.9 1.4.6 2.5.6 3.1.1 0-.1.2-.4 0-1.1 0-.1-.1-.3-.1-.4-3.8-2.6-8.1-7.7-8-10.3 0-.8.4-1.5 1.1-1.9.6-.3 2-1 5.7 4 .8 1.1 2.7 3.7 3.6 6.3.1.1.2.1.3.2.9.5 2.6 1.3 3.7.7 0-.1 0-.2.1-.4-1.7-1.3-3.5-3-4.3-3.9-2.8-3-4.2-5.4-4.1-7.3.1-2.4 1.4-3 2.1-3.1 3.4-.5 7.6 7.5 8.7 10.8.2.7.4 1.3.5 1.9.4.3.7.4.9.5 1.8-.1 5.3-1.3 7.4-4 2.1-2.7 2.1-5.3 1.4-6.2-.5-.7-.4-1.6.3-2.1s1.6-.4 2.1.3c1.5 2 1.5 6-1.4 9.8-2.6 3.4-7.1 5.2-9.9 5.2-.3 0-.6-.1-.9-.2-.3.6-.7 1-1.2 1.3-1 .6-2.6 1-4.9.1-.1.7-.4 1.4-.9 1.9-1 1.1-2.5 1.5-4.2 1.2.1.8-.1 1.5-.6 2.1-2.4 2.9-7.9 5-8.8 5.4-.5.3-1.9 1.4-1.7 2.3.2.8-.4 1.6-1.2 1.8h-.4zm15.7-28.7c.2 1.2 1.7 3.2 3.5 5-1.2-2.2-2.6-4.1-3.5-5z"/></svg>