<svg id="Layer_1" xmlns="http://www.w3.org/2000/svg" viewBox="-137 3 151 80"><style>.st0{fill:#cb242d}</style><path class="st0" d="M2 45.1c.3-.4.7-.8 1-1.3v-.3c-.3-1.1-2-1.7-2.8-2.3-2.4-1.7-5.9-2.8-8.7-3.6-3.1-.9-6.6-1.1-9.9-.5 3-3 5.5-6.5 7.2-10.3 1.9-4 1.7-7.9 1.4-12.2v-.7c0-.3-.3-.4-.5-.4-1.9.4-4 2.4-5.5 3.5-.9.6-1.7 1.2-2.4 1.8-.2 0-.3.1-.3.3-.4.4-.9.7-1.3 1.1-.1 0-.2.1-.3.2-.4.4-.8.7-1.3 1.1-4.1 3.6-6.5 8.3-9 13-.5-1.9.1-5.1 0-6.9-.1-2.5-.9-4.8-2-7.1-1-2.3-5-9.3-8-9.1-.2 0-.4.1-.5.3-.7 1.7-.9 3.8-.9 5.8-.3 2.7-.6 5.4-.3 8.2.2 1.5.4 3.5 1 5.1-6.3-3-13.8-3.6-20.3-1.5-.3.2-.5.4-.5.9 0 .2 0 .4.1.7.4.9.5 2 1 3s1.3 1.8 2.1 2.5c0 .1.1.2.2.2.4.3.7.6 1.1 1 1.2 1.1 2.8 1.7 4.2 2.4 1.1.6 2 1.2 3.2 1.2-1.7.6-3.4 1.3-5 1.9-3.3 1.3-8.6 2.9-11 5.7-.1 0-.2.1-.2.2-.1 2.1 3.4 3.7 5.1 4 4.2.8 7.7 1.1 11.8.5-.6.7-1.2 1.4-1.8 2-2.9 3.4-6.8 8.8-7 13.5 0 .2.2.2.3.2 0 .1.1.2.3.3 2.3.5 4.8.2 7.1-.4.2 0 .4-.1.7-.1 2.7-.6 5.1-2.2 7.3-3.6 1.3-.8 2.9-1.9 4.4-3.1.1 0 .2-.1.3-.2 1.7-1.4 3.2-3 4.2-4.7 0 .4 0 .8.1 1.2 0 1.9.2 3.8.7 5.6v.1c.3 2.2.6 4.7 1.5 6.7.1.3.3.6.5.9.1.2.2.4.3.5.5.8 1.2 1.6 1.9 2.2.3.1.7.2 1 .4.8.5 1.6.9 2.6 1.1h.6c.2.1.4.1.5.2.3-.1.7-.1 1-.3.1 0 .3-.1.3-.3.3-2.1.5-4.1.5-6 .1-1 .2-2 .1-2.9 0-.8.1-2-.1-2.9-.1-1.3-.2-2.6-.4-3.9 1.9 2.7 4.3 5.1 7.1 7.1 2.4 1.8 6.3 4.2 9.4 2.6.2-.1.3-.2.5-.3.2-.1.4-.2.5-.4.6-.8-1.2-4.1-1.5-4.8-1.1-3.2-2.2-6-4.1-8.9-1.8-2.7-4.1-5.1-6.6-7.2-.2-.2-.5-.4-.8-.7 2.9 1.1 6.6 1.4 9.5 1.6 4.5.2 7.1-1.8 10.4-3.9zm-10.1 3.1c.1-.2.3-.5.4-.7.2-.3.3-.6.4-.9.4 0 .8-.1 1.2-.1-.1.4-.9 1.2-.5 1.6-.5 0-1 .1-1.5.1zm7.2-1.9c-1.7 1.1-3.4 1.5-5.3 1.7.1-.2.2-.4.2-.5.2-.3.4-.6.4-1v-.1c.3 0 .6-.1.9-.1.6-.1 2.9-.3 4.8-.8-.3.3-.6.6-1 .8zm-6.7-7.4c.5.2 1 .3 1.4.5-.1 0-.1.1-.1.2 0 .3-.3.7-.1 1-.5-.2-1-.3-1.5-.4.3-.3.4-.8.3-1.3zm-1.5.2v-.6c.1 0 .2 0 .2.1.3.1.5.2.8.2v.1c.1.4-.3.8-.2 1.3-.3-.1-.7-.1-1-.2.1-.3.2-.7.2-.9zm-.7-.8c.1.4-.2 1-.2 1.5-.4-.1-.8-.1-1.2-.1.1-.2.1-.5 0-.7 0-.3 0-.6-.1-.9.6 0 1 .1 1.5.2zm-2-.3c-.1.4-.2 1.2 0 1.6h-.9c-.1-.2-.1-.4-.2-.6-.1-.3-.1-.7-.2-1.1.5 0 .9 0 1.3.1zm-1.9-.1c.1.4.1 1.1.3 1.7h-1c-.1-.1-.1-.3-.2-.4-.1-.5-.3-.9-.5-1.4.5 0 1 0 1.4.1zm.4-9.5c0 .1-.1.2-.1.2-.4.4-1.1.8-1.5 1.1-.6.5-1.2 1.2-1.7 1.8-.2.1-.3.2-.4.3 0 .1-.1.2-.2.3-.2.2-.3.4-.5.6l-.1.1c1.1-1.5 2.1-3 3-4.6.4-.6.7-1.2 1.1-1.8v.2l.3 1.5v.1c0 .2.1.2.1.2zm3-10.3v2.2c0 2.6-.9 4.8-2 7.1 0 .1-.1.1-.1.2 0-.2-.1-.2-.3-.2 0-.1 0-.3-.1-.4-.1-.5-.2-1-.4-1.4l.6-1.2v.1c.1.4.1.9.2 1.3 0 .2.4.2.5 0 .1-.7.1-1.7-.3-2.3.9-1.8 1.5-3.6 1.9-5.4zm-4.9-.3c.1.3.3.7.7.7.1 0 .2-.1.1-.2-.1-.3-.2-.5-.4-.8.5-.4 1-.7 1.5-1.1-.1.1-.1.3.1.4.2 0 .2.1.4 0 .1 0 .1-.2.1-.3l-.3-.3h-.1c.2-.2.4-.3.6-.5 2.9-2.2 1.6.8 1.2 2.8-.5 2.6-1.6 5.1-2.9 7.4-2.1 3.8-4.9 7.9-8.3 11l.1-.1c.1-.1 0-.3-.1-.4-.1-.1-.2-.1-.2-.1.2 0 0 0 0 0-.1 0-.1-.1-.2-.1-.3-.2-.5-.4-.8-.6l-.4-.4c.4-.3.7-.6 1.1-.9.2.3.4.5.6.8.2.2.4.4.6.5.1.1.3.1.4.1s.2 0 .3-.1l.1-.1.1-.1c.1-.1.1-.2 0-.3 0-.1-.2-.2-.3-.1h-.1c-.1 0-.1-.1-.1-.1-.2-.1-.4-.3-.6-.5s-.4-.4-.5-.6l.9-.9c.3.2.6.5 1 .6s.8-.1.9-.5c0-.1-.1-.3-.2-.2-.5.2-.9-.2-1.2-.4.9-1.1 1.8-2.2 2.6-3.3 1.8-2.3 4.3-6.4 4.7-9.3 0-.2-.2-.3-.4-.2-.5.2-.9.4-1.3.7 0-.1 0-.2-.1-.2-.4-.3-.4-.9-.6-1.3.3-.5.6-.8 1-1zm-9.6 17.9c.6.7 1.5 1.8 2.1 1.4-.4.4-.8.7-1.2 1.1-.1 0-.1-.1-.2-.1-.2-.2-.4-.4-.6-.5-.3-.3-.7-.7-.9-1l-.1-.1c.3-.3.6-.6.9-.8zm-1.7.4c.1-.1.2-.1.2-.2.4-.3.7-.6 1.1-.9v.1l.1.1c-.7.5-1.9 1.4-1.4.9zm4.5-7.2c-.3.3-.5.6-.8 1 .9-1.2 1.8-2.3 2.7-3.4-.6.7-1.2 1.6-1.9 2.4zm4.6-4.6c-1 1.6-2.3 3.2-3.2 4.2 1.1-1.3 2.1-2.8 3.2-4.2zm-1.9 4.2c.3-.4.7-.8 1.1-1.2-.5.8-1 1.5-1.6 2.3-1.1 1.4-2.1 2.7-3.2 3.8-.3-.2-.8.3-.5.6-.4.3-.8.7-1.2 1-.1 0-.1-.1-.2-.1 1.9-2.1 3.7-4.4 5.6-6.4zm2.4-9.5c.1.6.3 1.3.9 1.3-.4.2-.8.5-1.2.7l-.1-.1c-.1-.1-.1-.3-.1-.4l-.3-.6c0-.1-.1-.2-.1-.2.3-.3.6-.5.9-.7zm-1.5 1.2c.1.3.3.6.4.8.1.2.2.4.3.4-.3.2-.6.4-.8.7-.2-.1-.4-.3-.4-.3-.2-.2-.4-.5-.5-.7.2-.4.6-.7 1-.9zm-23.2 1.4c.1.8.2 1.7.3 2.4v.1c-.1 0-.2 0-.3.1 0 0-.1 0-.1.1.1-.9.1-1.8.1-2.7zm0 3.1c.1.1.1.1.3.1h.2c.1.4.2.8.2 1.2-.2-.1-.4-.1-.6 0-.1-.4-.1-.8-.1-1.3zm.5 3h-.2c-.1-.4-.1-.8-.2-1.2.1.1.3.1.4.1h.2c.1.4.2.8.4 1.2-.1-.1-.3-.1-.4-.1h-.2zm-17.1 8c-.3-.3-.5-.6-.8-.9-.5-.6-.9-1.3-1.2-2 .8.8 1.8 1.7 2.7 2.5-.1 0-.1.1-.2.1-.1.1-.3.2-.5.3zm1.6 1.4c-.1 0-.2-.1-.3-.1-.2-.2-.5-.4-.7-.6.2-.1.3-.2.4-.3.1-.1.1-.2.2-.2.6.5 1.1.9 1.3 1.1-.1 0-.2.1-.3.1-.1-.2-.3-.1-.6 0zm2 1c-.3-.2-.7-.3-1-.5.1 0 .2-.1.3-.1.1-.1.3-.2.4-.2l.9.6c-.2 0-.4.1-.6.2zm1.9.8c-.3-.1-.4-.1-.6-.2s-.4-.2-.5-.2c.1-.1.2-.2.3-.2.4.3.8.5 1.2.7-.2-.1-.3-.1-.4-.1zm2.6-.6c-.3.1-.5.3-.7.6-.1 0-.2.1-.3.1-3.4-1.6-6.3-4.7-8.9-7.4 3.1 2.6 6.8 4.4 10.5 6.1.6.3 1.2.5 1.8.7-.7.3-1.3.8-2 1.1.1-.1.3-.3.4-.5.2-.4-.3-.9-.8-.7zm-4.1 14.3c-.1.1-.1.3-.2.4-3.7.1-7.4-.1-10.2-2.7 3 1.6 7.5 1.3 10.8 1.4-.1.3-.2.6-.4.9zm2.2.3c0 .1 0 .1 0 0-.5.1-1 .1-1.5.1.2-.3.3-.8.4-1.1v-.1h1.6c-.3.3-.4.8-.5 1.1zm2.3-1.2c-.1.3-.2.5-.3.8 0 .1-.1.3-.1.4h-1.2c.1-.2.2-.3.2-.5.1-.2.1-.5.2-.7.5-.1.9-.2 1.4-.3-.1.1-.2.2-.2.3zm3.4 14.6c-1.1.8-2.5 1.2-3.8 1.5-.9.3-1.9.4-2.8.4 3.1-1.1 5.9-3.3 8.4-5.4-.3 1.5-.1 2.3-1.8 3.5zm3-2.7c0 .5-.2 1.1-.2 1.6-.3.2-.6.3-.8.5.5-.9.4-2.1.7-3 0-.1 0-.3-.1-.3.2-.1.3-.3.5-.4 0 .5 0 1-.1 1.6zm3.9-1.3c0-.2 0-.3-.1-.4h-.2c-.2-.4-.3-.9-.4-1.4-.1-.4-.7-.3-.7.1.1.7.1 1.5.6 2.1l.1.1c-.8.6-1.6 1.2-2.5 1.7v-.8c0-.7-.1-1.5-.2-2.2 1.1-.9 2.2-1.8 3.3-2.8.2.6.3 1.2.5 1.8.1.4.2.8.4 1.1-.3.3-.5.5-.8.7zm1.7-1.4l-.2.2c-.5-.8-.5-1.9-1.2-2.6.3-.3.6-.6.9-.8v.1c.3.7.3 2.1 1.1 2.5-.2.1-.4.3-.6.6zm1-1.4c-.2-.3-.3-.6-.4-1s-.2-.9-.7-1.2h-.1c.4-.4.9-.9 1.3-1.4.1.1.4.2.6 0 .2.3.4.6.5.9-.4 1-.8 1.8-1.2 2.7zm6.2 10.9c-.1-.1-.1-.3-.1-.4 0-.2-.1-.3-.1-.5 0-.4-.1-.8-.1-1.1 0-.1-.2-.2-.3-.1-.1-.4-.2-.7-.2-1 .3.7.7 1.4 1.2 2.1-.2.1-.3.6-.4 1zm1.1.5c0 .3-.1.6-.1.9 0-.3-.1-.6-.1-.9v-.7c.1.2.2.3.4.5-.2 0-.2 0-.2.2zm1.9 3.2s.1-.1.1-.2c0-.2-.2-.4-.2-.6v-.6c0-.4-.6-.4-.6 0v.9l-.5-.5c0-.3-.1-.7-.1-1 0-.4 0-.7-.1-1.1.1.2.2.3.4.5 1.3 1.6 3 2.4 4.5 3.5-1.2.3-2.4-.5-3.5-.9zm5-3.3c-.1 1.2-.3 2.3-.5 3.5v.4c0-.1-.2-.3-.5-.5-6.6-2.9-8.8-10.4-9-17.6-.1-1.2-.1-2.3.1-3.5v-.4V51v-.7c-.1-.1-.1-.3-.2-.3s-.1-.1-.2-.1c-.6 1.1-1.7 2-2.3 2.8-1 1.3-2.2 2.6-3.5 3.6-1 1-1.9 1.9-2.9 2.8-3.2 3-6.7 5.7-10.6 7.6h-.2c-.2 0-.3.1-.4.3-1 .4-1.9.8-3 1.1v-.3c0-.1-.1-.2-.2-.2h-.2c-.4-.1-.4.4-.3.6-.4.1-.7.2-1.1.3 1.5-4.7 4.7-9.6 7.9-13.3 2.7-3.2 6.3-5.5 9.4-8.4 0-.2 0-.5-.2-.6h-.1c-4.2 1.5-7.7 4.3-12.3 4.6-4.2.2-8.6-.5-12.6-1.7 3-2.3 7.2-3.5 10.7-5 3-1.3 6-2.1 9.1-2.6l.1-.1c1.5-.3 3.2-.8 4.7-.8.2 0 .5-.1.8-.1.1 0 .2 0 .3-.1.3-.1.3-.5-.1-.5h-.2c.2-.6.4-1.3.9-1.8.4 0 .9.1 1.3.1.1 0 .3.1.4.1-.6.4-.7 1.5-.8 2.1 0 .2-.1.5-.1.8-.6.1-1.1.2-1.7.4-.2.1-.4.2-.6.2-.2.1-.4.2-.7.2-2.1.7-4.1 1.5-6.3 2-1.9.4-3.7.9-5.5 1.5-2.5.4-5.5 1.3-5.6 2.9 0 .2.2.4.4.4 4.3.1 8.3-.3 12.5-1.2 2.3-.5 4.1-1.8 5.6-3.3.7-.4 1.3-.9 1.7-1.4 0 1 .2 2 .9 2.6.1.1.3 0 .3-.1 0-.6-.8-6.7.6-7 .5.1.9.2 1.4.3-1.7 2-2.5 5.3-1.1 7.6-.1.1-.3.2-.4.3-.8.4-1.4 1-2.1 1.6-1.9 1.9-4.4 3.4-6.5 5.1-2 1.7-4.7 4.8-5.7 7.5-.3.4-.5.7-.8 1.1-.1.2-.3.3-.4.5-.2.2-.4.3-.5.5-.2.2 0 .4.2.3 6.4-3.9 13.7-8.2 16.9-15.2 0-.3.1-.6.2-.9 0-.1.2-.1.3 0h.1V47c.3.3.7.6 1 .8.2.2.5.4.8.6.4.2.9.3 1.4.4.3.1.6.1 1 .1 0 .3.1.5.1.8 0 .5.2.9.4 1.3.1 2.2.3 4.4.6 6.6.6 4.2 2.3 7.2 4 10.9.2.4.7.2.8-.2.3-3 .3-5.9 0-8.8l.3-.9c.2-.5.4-.9.5-1.3s-.4-.5-.6-.2c-.1.3-.3.6-.4.9 0-.3-.1-.7-.1-1 .3-.5.6-1.1.7-1.7.9 3 1.8 5.9 2.1 9.1 0 2.3.1 4.3 0 6.4zm-25.6-18.6c-.2.3-.5.5-.7.8h-.4c.2-.6.2-1.4.5-1.7.1 0 .1-.1.1-.2.4-.1.7-.3 1.1-.4v.2c-.1.2-.1.4-.2.7-.1.2-.2.4-.2.6-.2-.1-.2 0-.2 0zm1.2-1.9c.2-.1.4-.2.5-.2.4-.2.8-.4 1.2-.5-.6.5-1.1 1-1.7 1.5v-.8zm1.6-13.2c.6.2 1.2.3 1.8.4-.5.2-.9.9-1 1.4-.4-.1-.7-.3-1.1-.4.4-.2.3-.8.4-1.2 0-.1 0-.2-.1-.2zm5.6-.9c-.3-.1-.7-.1-1-.2-2.1-.8-4.3-1.6-6.4-2.5 2.4.6 5.1 1.4 7.4 2.7zm-4.7-2.8h.4c.5.2.9.4 1.4.6.4.2.7.3 1.1.5-.5-.2-1.1-.4-1.6-.6s-.9-.4-1.3-.5zm.7 5.8c.2-.4.2-.9.6-1.3.1-.1.1-.3 0-.4.5.1 1 .2 1.5.2l-.1.1c-.3.5-.6 1.1-.8 1.6-.4 0-.8-.1-1.2-.2zm.5.8h-.8c0-.1-.1-.1-.1-.2l.1-.1c.2 0 .5.1.8.3zm2-1.7c.1-.2 0-.3-.1-.4.4.1.8.1 1.2.1-.5.5-.8 1.3-.9 1.8-.2 0-.5-.1-.7-.1.2-.4.3-.9.5-1.4zm-4.3.9c-.5.2-1.1.4-1.7.6.2-.2.4-.5.6-.7 0-.1.1-.1.1-.2.4.1.7.2 1 .3zm-.2 7.1c-1.8.7-3.8 1.1-6.1 1.4-1.2.1-2.4.2-3.5.3.2-.1.5-.2.8-.2s.6-.1.8-.1h.5c1-.1 2.1-.3 3.2-.6 1.4-.1 2.7-.3 3.8-.5.1-.2.3-.3.5-.3zm4.6 7.4c.5-.4 1.1-.8 1.8-1.3-1 1.1-2.1 2.2-3.3 3.3-1.8 1.6-3.8 2.9-5.8 4.2.4-.3.7-.7 1.1-1 1.9-1.9 4-3.6 6.2-5.2zm-3.2 1.2l.7-.7c1.1-1.1 2.3-2.1 3.6-3 0 0 0 .1.1.1-1.5 1.1-2.9 2.3-4.4 3.6zm13-8.9c0-.3.1-.7.3-1v-.1h.7c.1.3.1.7.3 1-.5.1-.9.1-1.3.1zm4.2 8.1v-.4c0-.5-.2-1.1-.4-1.7 1.2 3.5 1.6 7.5 1.7 11.3-.1-.9-.2-1.9-.4-2.8 0-.3-.4-.2-.4.1v.1c-.3-1.3-.6-2.6-.9-3.8.2.1.3 0 .5-.1.1.4.2.9.3 1.3 0 .1.3.1.3 0-.3-1.5-.5-2.7-.7-4zm.7-1.7c.1-.2.2-.3.3-.5.1.1.1.2.2.3v.1c0 .1.1.2.1.3l-.3.9c0 .1-.1.2-.1.2 0-.3-.1-.8-.2-1.3zm.6 2.7v-.2c.3-.2.5-.6.6-1 .1.2.1.4.2.6l-.1.1c-.1.4-.3.8-.5 1.2-.2-.2-.2-.4-.2-.7zm.1-5.7c-.3 0-.6.1-.7.4-.1.4-.1.7-.1 1-.1.2-.2.4-.2.6-.1-.4-.3-.9-.5-1.3.6-.7 1.1-1.6 1.5-2.6.2.3.4.6.6 1l-.6.9zm-1.7 0c-.2-.4-.3-.7-.5-1 .8-.3 1.4-.8 1.9-1.4-.5.7-1.1 1.5-1.4 2.4zm-.3-4.9c-.1-.1-.2-.1-.3-.2-.2-.1-.3-.3-.4-.5.2-.3.4-.5.5-.8.3.2.6.4.9.4-.2.4-.5.8-.7 1.1zm-.6.6c-.1.1-.3.2-.5.3-.2.1-.3.2-.5.2-.1-.1-.2-.2-.2-.4-.1-.2-.1-.4-.2-.6.2-.1.5-.2.6-.3h.1c.2.3.4.6.7.8zm10.2 18.3c-.7-.7-1.4-1.5-2.1-2.2.3.1.6.3 1 .4.1.1.3.1.4.1.7.2 1.5.3 2.2.4h.1c.4.3.7.7 1.1 1-.5.2-1 .2-1.6.1-.3 0-.9-.1-1.1.2zm7.1 5.3c-1.8-.9-3.6-2-5.1-3.4l-1.2-1.2c.4.1.8.1 1 0 .5 0 1.1-.2 1.3-.7.5.5 1.1 1 1.6 1.5.9.9 4.1 3.7 6.5 4.5-1.4 0-2.4.1-4.1-.7zm-6.6-19.8c1.9 1.5 3.5 3.2 5 5.1 3.3 4.2 4.4 8.6 6.5 13.4.8 1.8-3.5-.8-3.9-1.1-.7-.4-1.4-1-2.1-1.5.1-.1.1-.2.2-.4l.3-.9c.1-.4-.5-.6-.6-.2-.1.3-.2.5-.2.8 0 .1 0 .1-.1.2-.3-.3-.7-.6-1-.9.4-.3.6-.9.9-1.3.2-.3-.3-.7-.6-.3-.3.4-.5.8-.6 1.3-.7-.7-1.5-1.5-2.2-2.1-3.6-3.2-5.8-7.5-8.9-11.1.1-.3.2-.6.4-.9 1.1 1.4 2.5 2.6 3.6 3.7 3.1 3.1 6.2 6.3 9.7 8.9.3.2.7-.1.6-.5-1-4.5-4-8-7.7-10.8v-.7c0-.4.1-.7.1-1.1s-.6-.4-.6 0c0 .3-.2.8-.2 1.3-.3-.2-.6-.4-.9-.7.1-.3.1-.7.2-1 .1-.5.1-1.1-.3-1.5-.2-.2-.4 0-.4.2.1.6 0 1.2-.2 1.8-.3-.2-.7-.4-1-.6.1-.4.2-.8.3-1.1.1-.4.2-.9.2-1.3 1.1 1.1 2.4 2.4 3.5 3.3zm-4.9-1.4v.1c-.3-.2-.5-.3-.8-.5.3-.7.5-1.5.6-2.4l.1.1c.2.1.4.2.5.3.2.9-.1 1.7-.4 2.4zm.6 2.8h.7l1.2.9c2.1 1.8 3.3 3.9 4.8 6.1-1.4-1.3-2.7-2.6-4-3.9-.9-.9-2.1-2-3.1-3.1l.1-.1c0 .1.2.1.3.1zm8.3-4.7c-2-.3-4-.7-5.9-1.3-.8-.3-1.8-.6-2.6-.3-.2.1-.3.2-.3.4-.1 0-.1.1-.2.1.1-.6.1-1.1.1-1.7-.2-.1-.5-.1-.7-.2l-.3 1.5c-.2.4-.3.8-.6 1.2-.3.4-.6.6-1 .8.5-1.2.5-3.3-.3-4.4-.1-.7-.3-1.4-.6-2-.6-1.9-3.6-3.3-5.3-2.3-.4.2-.1.7.3.7 1-.2 2.3.2 3.2.6.4.2.6.4.8.8 0 .1.1.2.1.3.2.5.2 1.1.2 1.6 0 .6-.1 1.2-.3 1.8-.3-.1-.6-.1-.8-.3 0 0-.1-.1-.2-.1 0-.2.1-.3.1-.5 0-.3 0-.5-.1-.7-.1-.4-.2-.8-.4-1.1-.4-.7-1.6-1.4-2.5-1.1-.2-.1-.4-.1-.6 0-.3.1-.5.1-.7.3l-.3.3c-.5.5-.8 1.4-.8 2.2 0 .5.3 1.5.9 1.6h.1c.2.2.4.3.7.3.6 0 1.3-.5 1.7-1 .4-.6.4-1.1.2-1.8-.1-.2-.2-.5-.3-.7v-.2c.9.2 1.6 1.3 1.3 2.2-.2.7-.8 1.2-1.4 1.4-.6.2-1.1.1-1.6.4-.2.1-.2.3 0 .4.1.1.3.1.4.2-.1.2-.4.7-.5 1.1-.8-.1-1.6-.4-2.2-.9-1.8-1.7-.1-3.7.3-5.5 0-.3-.3-.4-.4-.2-.7 1.2-1.3 1.9-1.7 3.3-.1.2-.1.5-.1.7-.3.9-.3 1.9 0 2.8-1-2.4-.7-5 .9-7.2.3.1.7.1 1 .2.2 0 .3-.1.4-.3-.2-.4-.4-.7-.7-1-1.9-1.8-4.7-3.1-6.9-4-3.2-1.4-11.9-3.6-13.1-3.6-.4 0-.6.5-.4.8 2 2.4 4.7 4.1 7.5 5.4.6.3 1.2.5 1.8.7-.1 0-.1 0-.2.1-.1.2-.2.3-.2.5-.1.2-.2.3-.3.5v.1c-1.9-.8-3.7-1.7-5.1-2.4-1.9-1-3.8-1.9-5.6-3-1.4-.8-2.6-2-4-2.8 4.5-1 8.7-1.5 13.3-.4 4.3 1 8.2 3.5 12.1 5.5.3.2.7-.2.4-.5 0-.1 0-.2-.1-.3-2.5-2-3.9-5.3-4.7-8.2-1.2-4.4-.9-9.1-.2-13.6 0 0 3.4 3.1 3.7 3.5 2 2.4 3.5 5.3 4.4 8.2.8 2.6.7 5.4.7 8.1 0 1.1-.3 2.1.3 3 .1.1.3.1.4.2.1-.1.3-.2.4-.3v-.1c2.8-3.3 4.3-7.5 7.2-10.8 1-1.1 2-2.1 3.1-3 .1.2.2.3.3.4.1.2.4.5.7.6-4.2 3.6-6.9 8.7-8.9 13.8v.1c0 .1-.1.2-.1.3 0 .3.2.5.4.5.1.1.3.2.4.1.4-.2.7-.4 1-.6v.1c.3.5.7.9 1.1 1.3.1.1.3.4.6.6-.1.1-.3.2-.4.3-.2.2-.3.6 0 .7 0 0 0-.1.1-.1.3-.2.8-.3 1.2-.3 2.7-.8 5.4-1.3 8.1-1.5.1.6.3 1.1.4 1.7v.1c-.8.1-1.6.2-2.3.3-1.5.1-3 .4-4.5.6h-.3l-.9.3c-.3.1-.7.2-1 .2 0 .2.1.3.1.5.1 0 .1 0 .2.1 1 0 2 .2 3 .4 1.4.2 2.8.3 4.3.5.9 0 1.9-.1 2.9-.1 1.7 0 3.3-.1 5-.1.9 0 1.9 0 2.9.1.2 0 .3-.1.4-.2h1c.4 0 .7-.7.2-.9-.5-.2-1.1-.4-1.6-.6.2-.2.4-.7.4-1.1v-.1c1.2.5 2.3 1 3.5 1.5.5.2 5.8 2.4 2.9 3.2-5.3 1.3-10 2-14.9 1.3zm5 2l-.6-.3-.6-.6c.6 0 1.2 0 1.8-.1-.1.1-.2.3-.3.4-.2.3-.3.4-.3.6zM-32 36.4c-.2-3.3-.7-6.9-1.7-10.2-.2-.8-.5-1.7-.8-2.5-.8-2.2-1.6-5.2-3.4-6.7-.3-.2-.7-.1-.7.3.2 6.1 2.6 14.1 6.1 19.2.1.3.5.3.5-.1zm-3.3-7.8c.8 2 1.7 4 2.3 6.1.1.3.2.6.4.8-1.3-1.9-2-4.6-2.7-6.9zm1.1-1c.2.8.4 1.7.6 2.6-.8-2.3-1.9-4.5-2.6-6.8-.3-.9-.9-2.3-1.1-3.3 1.1 1.9 2 3.9 2.7 6 .1.5.3 1 .4 1.5zm-3-8.3s0-.1 0 0zm-.4-.7h-.1c0-.1 0-.1.1 0zm-60.6 28.8zm3.3 9.1h-.1c0-.1 0-.1.1 0 0-.1 0-.2.1-.2 0 0 0 .1-.1.2zm-1.3.6l-.1-.1h.1v.1zm-1-15.2h0zm-5.6.6s0 .1 0 0v0zm6.1-.2h-.1c0-.1.1-.2.1-.2v.2c.1 0 0 0 0 0zm9.1-12.9s0 .1 0 0v-.2c.1.1 0 .1 0 .2zm2.5-8.6v-.1c.1 0 .1 0 0 .1zm-7.3 11c-.1-.1-.1-.1 0-.2 0 .1.1.1 0 .2.1-.1.1 0 0 0zm5.4 2.8c.4-.2.8-.3 1.2-.5.4-.2.6-.4 1-.4h.1c1.2-.8 2.3-1.8 3.6-2.3 1.9-.7 3.8-1.4 5.6-2.2.3-.2.7.2.4.5-.7.7-1.5 1.2-2.4 1.1h-.1c-.9.4-1.8.7-2.7 1-1.6.6-2.9 1.9-4.5 2.4-.4.5-1.4.6-2 .8-.3 0-.5-.3-.2-.4zm-16.9-4.8c-2.8-3.1-6.7-4.4-10.2-6.5-.4-.2-.7.1-.7.5.3 2.1 2.3 5 4 6.2.2.2.4.3.7.4 0 .1.1.2.3.2 1.3.8 2.7 1.5 4.1 2.2.8.4 1.6.8 2.5.9.2-.2.7-.2 1-.3.1 0 .2 0 .3-.1.2-1-1.4-2.9-2-3.5zm-8.6-2.9c-.2-.2-.3-.5-.4-.7l.3-.3.1-.1v.1c.1.3.3.5.5.7-.2 0-.4.1-.5.3zm9.6 6.4l-.1.1h-.1c-2-.2-4.5-2.2-6.1-3.2-.1-.1-.2-.2-.4-.2v-.1c0-.1.1-.1.1-.2 0-.2.1-.3.1-.4.1 0 .1-.1.2-.2.7-.5 2.4 0 3.2.1.5.4.9.8 1.3 1.3.2 0 2.2 2.4 1.8 2.8zm98.8 13.8c0 .3-.2.7-.6.7-.1 0-.2-.1-.2-.2 0-.2.1-.3.1-.5.1-.4.8-.4.7 0zm-10.7 18.2c-.3 0-.5 0-.7-.2-.1-.1-.1-.2 0-.3.2-.2.5-.2.7-.2.4 0 .4.7 0 .7zm-41-12.6c-.1.2-.2.2-.4.3-.1 0-.2 0-.2-.1 0-.2 0-.3.1-.5.3-.4.8 0 .5.3zm39.5-.7c-.5-.4-.4-1.1-.5-1.7-.1-.4.5-.5.6-.1.1.6.2 1.2.2 1.7-.1.2-.2.2-.3.1zm-8 10.1c-.1.2-.1.4-.2.6-.1.1-.3.1-.3 0-.3-.5.2-1.3.5-1.7.2-.3.8 0 .6.3-.3.2-.5.5-.6.8zm-2.4 12.1c.1 0 .1 0 0 0zm-21.6-37c-.1-.2.1-.3.2-.5.2-.3.6 0 .4.3l-.2.2c-.1.2-.3.1-.4 0zm30.1-6c.1.1 0 .4-.1.4-.2 0-.4-.1-.6 0-.4 0-.4-.6 0-.6.2 0 .4 0 .7.2zm13.5 9.6c-.3-.3.2-.7.5-.4.2.3.1.7-.3.8-.1 0-.1-.1-.2-.1.1 0 .1-.2 0-.3zm-9.8 19.8c-.1.3-.4.9-.7 1-.1 0-.2 0-.2-.1-.2-.4.2-.8.3-1.1.1-.3.7-.2.6.2zm3.9 3.7c.1.3.3.6.3.9 0 .1-.1.2-.2.2-.5 0-.7-.5-.8-.9 0-.5.6-.6.7-.2zm1.3 1c.2.1.3.2.4.4.1.2-.1.3-.2.2-.1 0-.2-.1-.3-.1-.4 0-.2-.6.1-.5zm.7 1c-.5-.3 0-1 .5-.6.1.1.2.1.2.2.2.2.1.6-.2.6-.2-.1-.3-.1-.5-.2zm-15.2 5.9c.1.1.1.2 0 .3-.1.2-.4.3-.6.1-.1-.1-.1-.3-.1-.5 0-.4.7-.4.7.1zm.7-3.8c-.1.2-.2.3-.3.5 0 .2-.1.4-.1.6v1c0 .3-.6.3-.6 0-.1-.4.1-.9.2-1.3.1-.3.1-.9.4-1.1.2-.2.5.1.4.3zm-32.3-2.8c.1-.2.2-.4.4-.5.1 0 .3 0 .4.1.2.2 0 .5-.1.8-.2.6-1 .1-.7-.4zm.6 1.4c.2 0 .4 0 .6.2.1.1.1.1 0 .2-.2.2-.3.2-.6.2-.4 0-.4-.6 0-.6zm-2.4-36.1c.4-.1.8.1.9.5 0 .1-.1.2-.2.2-.2 0-.5 0-.7-.1-.2 0-.3-.5 0-.6zm2.2 1.5c.2 0 .3 0 .5.1.1.1.1.3 0 .4-.2.1-.3.1-.5.1-.4 0-.4-.6 0-.6zm-18 10c-2.9-2.5-7.4-4.3-11.6-5.3.9-.2 1.6-.4 2-.5 1.3-.2 2.6-.5 3.8-.9l.1-.1c.6-.2 1.1-.3 1.7-.5.1 0 .1-.1.2-.1l.1-.1c1.5-.7 2.8-1.7 3.6-3.2.3-1.4.6-2.8 1-4.2h-.1c-2.8-.4-5.5.9-7.9 2.1 1.1-1.5 1.7-3.7 2-5.3.6-2.7.8-5.9-.5-8.4-.7-1.4-1.7-4-3.2-5 0-.2 0-.4-.3-.5-3.2-1.2-8.7 5.1-10.4 7-1.7 1.9-2.9 4-3.5 6.3-.9-3.4-1.5-6.6-3.7-9.6-.9-1.2-4.1-4.9-6-4.2-1.4.5-1.3 7-1.2 8.3 0 .9.2 1.7.5 2.4.2 1 .5 1.9.8 2.9.2.5.3 1.1.6 1.7-1-.9-2.2-1.7-3.4-2.3-2.3-1.2-4.4-1.6-6.8-2.1-1.1-.2-3-.9-4.2-.4-.1.1-.2.3-.2.4.2 2.7 2.2 5.2 3.4 7.4 1.5 2.8 3.6 4.8 6.4 6.2.1.1.2.1.3.2.1.1.2.1.2.2-1.2.1-2.2.6-3.4 1.4-2.6 1.7-5.7 2.6-8.5 3.9-1.5.7-5.3 4.1-4.7 6.1.9.3 1.8 1 2.3 1.3l.6.3c1.5.1 3.2-.1 4.3-.3 3.5-.7 7.7-1.9 10.6-4.2-1 1.5-1.9 3.1-2.5 4.4-1 1.9-1.7 3.8-2.5 5.7-.5 1.1-1 1.9-.7 3.1.1.2.4.4.6.2.2-.2.4-.3.7-.5h.1c3-2.4 5.8-4.7 8-7.8.9-1.2 1.8-2.6 2.3-4 .1-.4.3-.9.4-1.3.3 1.1.3 2.2.3 3.4-.1.4-.1.8-.2 1.1v.8c-.3 2.9-.2 5.8.3 8.5.7 3.6 4.9 6.5 7.7 8.4.2.1.4.2.5.3.2.2.5 0 .6-.2 1.8-4.4 3.2-8.7 2.7-13.5-.1-1.2-.3-2.4-.6-3.5 1.1 2 2.4 3.8 4.7 4.9 3.7 1.9 9.1 3.8 13.5 2.7 1.8.2 3.7.1 4.2-.8 2-3.8-2.3-10.5-5-12.8zm-6-19.1c-.2.9-.4 1.7-.8 2.4-1.7 3.8-6.2 5.4-8.9 8.3-.1.1-.2.1-.3.2-.2-.6-.4-1.3-.9-1.7 2.6-1.5 4.6-3.9 6.2-6.5.2.4.5.9.9 1.2.1.1.3 0 .3-.2-.1-.6-.6-1-.9-1.6.1-.2.2-.4.4-.6 0-.1.1-.2.1-.2.1 0 .1 0 .2-.1.2-.2.8 0 1 0 .4.1.8.3 1.1.5.1 0 .2 0 .2-.1.1-.6-.7-1-1.4-1.2.4-.7.7-1.8.9-2.8.4 0 .8.2 1.3.2.1 0 .2-.1.2-.2-.1-.7-.8-.9-1.4-.9.1-.9 0-1.9-.3-2.6 0-.1.1-.1.1-.2.1-.1.2-.1.3-.2.4-.2.8-.2 1.2-.2.7 2 .8 4.3.5 6.5zm-11.7 8.4l-.9-.3.3-.6h.1c.2 0 .3 0 .5.1v.2c-.1.1-.1.4 0 .6zm-.5-3.1c-.3-.8-.2-1.7.3-2.4.1-.2-.2-.4-.3-.2-.7.9-.8 2-.5 3.1.1.3.3.6.6.8-.4-.1-1-.2-1.3-.3.2-1.4.5-2.7 1-4 1.1-1.1 2.4-2 3.4-.3.1.2.4.1.4-.2-.5-1.5-1.8-1.7-2.9-1.1.1-.2.3-.5.5-.7.7-.4 1.7-.6 2.3-.7.8.8 1.1 2.1 1.2 3 .1 1.1-.5 2.2-.8 3.3 0-.1-.1-.1-.2-.1.5-.9.8-1.9.8-2.8 0-.1-.2-.2-.2-.1-.6 1-.7 2.4-1.5 3.3-.3.2-.6.5-1 .6-.9-.1-1.5-.3-1.8-1.2zm-1.1 4.9c-.2.4-.3.8-.5 1.3-.1.4-.3.8-.4 1.2-.1-.2-.2-.4-.3-.5 0-.1-.1-.2-.1-.3.1-.2.2-.5.3-.8.1-.2.2-.4.3-.7.3-.1.5-.1.7-.2zm7.8-8.7c0 .3 0 .6-.1.9v.1c0 .1-.1.1-.1.2-.4.7-.9 1.3-1.4 1.9.3-.6.5-1.4.5-2.2.3-.6.5-1.4.7-2 0-.1.1-.2.1-.3.2.3.4.6.4 1v.1c-.1 0-.1.2-.1.3zm-1.4.1v-.1c-.1-.9-.4-1.7-1-2.3.5.1 1.1.3 1.5.6 0 .6-.3 1.2-.5 1.8zm-.8-4.3h-.3c.4-.3.8-.6 1.3-.8-.3.4-.5.7-1 .8zm-1.8 9.7c-.1.1-.3.2-.4.4-.4.4-.8.7-1.2.9 0-.2 0-.5-.1-.8.6 0 1.2-.2 1.7-.5zm7.1-12.7s.1 0 .1-.1c.1.8.2 1.6.1 2.4-.1 0-.3.1-.4.1.1-.6.1-1.3.1-1.9.1-.1.1-.3.1-.5zm.1 3.2s0 .1 0 0c-.1.6-.4 1.3-.5 1.9-.3.2-.5.6-.5.8h-.1c.3-.8.6-1.7.7-2.6.2 0 .3-.1.4-.1zm-24.2-1.2c-.7-2.9-.2-5.5.3-8.7.1-.6 3.5 2.2 3.2 1.9 1.8 1.5 2.9 3.5 3.7 5.7.3.7.5 1.4.7 2.2.3.9.5 1.7.7 2.6.2.5.4 1.1.6 1.5-.5 2.3-.4 4.7 0 7 0 .2.4.2.4-.1-.2-5.2.7-9.7 4-13.9 1.1-1.5 2.7-2.6 3.9-3.9.7-.8 3.3-2.8 4.9-3 0 .1.1.2.2.2 1.2.8 2.1 2.7 2.9 4 .1.2.2.4.2.6-.4-.1-1 .1-1.3.2-.2.1-.5.2-.7.4-.3-1.6-1-3.5-2.1-3.5.6 0 .6-.9 0-.9h-.1c-.3 0-.6.4-.4.7.8 1.4 1.3 2.8 1.6 4.3-3 .8-6.4 3-8.1 5.3-2.3 3.1-3.1 6.8-2.7 10.5v.2c-.1.1-.2.2-.2.3-.1 0-.2.1-.2.1-.1.1-.1.2 0 .3l-.3.6c-.5-.4-1.1-.7-1.8-.9-.2-.1-.3.3-.1.4.7.2 1.2.5 1.5 1-.1 0-.1.1-.1.2-.3.1-.6.3-1 .5-.2.1-.5.3-.7.4 0 0 0-.1-.1-.1-.1-.3-.5-.9-1-1.2 0-.1 0-.2.1-.3.1-.2.2-.4.2-.5.1 0 .3-.1.4-.2s.1-.2-.1-.2h-.3c.1-.5.2-1 .5-1.4.2-.3-.2-.5-.4-.2-.3.4-.6 1.1-.6 1.6h-1c.3-.6.5-1.2.7-1.7.4-.7.6-1.5.9-2.2.1-.3-.4-.5-.5-.1-.4.9-.7 1.7-1.2 2.5-.3.4-.5 1-.6 1.5-.1-.3-.3-.6-.4-.9.4-.8.7-1.8 1.1-2.6.2-.6.4-1.1.5-1.7.5-1.1.1-2.8-.2-3.7-.5-1.3-1.4-2.6-2.1-3.7-1-1.6-1.9-3.9-2.3-5.8-.1-.5-.9-.4-.9.1.1 2.9.3 6 1.3 8.7.2.5.5 1.3.9 2 0 0 0 .1-.1.1-.3.3-.5.7-.6 1.2-.1.3-.2.5-.2.8-1-1.3-1.6-2.9-2.1-4.3-.3-1.3-.9-2.7-.9-3.9zm9.5 16.6l.6-.3c.3-.2.7-.4 1-.7.3.5.3 1.2.3 1.8-.1.2-.3.4-.5.6-.4-.4-.9-.7-1.3-1h-.1c0-.1.1-.2.1-.2-.1 0-.1-.1-.1-.2zm-5.4-8.6c.2-.3.2-.6.2-1 0-.1 0-.3.1-.5.2.3.4.6.5.8-.2.3-.3.8-.4 1.2-.1.4-.2.8-.2 1.2-.1-.1-.2-.3-.3-.4-.1-.2-.1-.4-.2-.6l-.1-.1c.1-.2.2-.5.3-.8 0 0 .1.1.1.2zm-.6-6.3c-.1-.5-.2-1-.3-1.6.2-.1.4-.1.5-.2l.9 1.8c-.3-.2-.8-.2-1.1 0zm1.4 8.3c.2-.3.3-.7.3-1 .1-.2.1-.4.2-.7l.2.2c.1.1.2.3.3.4.1.1.3.2.5.1h.1c-.4.8-.9 1.7-1 2.6-.2-.4-.4-.8-.7-1.2 0-.1.1-.3.1-.4zM-122 45.8c-1.1.2-2.1.3-2.9.2-.1 0-.2 0-.2.1.5-.6 1.2-1.1 1.9-1.5.5-.4 1.1-.7 1.7-.9.1.1.2.1.4 0h.1c-.6.6-.9 1.4-1 2.1zm2.9-.9c-.8.3-1.6.5-2.4.7.3-1 1-1.7 1.5-2.6.5-.2 1-.4 1.5-.5-.4.7-.5 1.7-.6 2.4zm4.2-4.5c1.5-.3 3-.5 4.5-1.1.3-.1.5-.2.8-.3 0 .1.1.2.2.2-1 .4-2 .8-3 1.1-.7.2-1.5.4-2.2.5 0-.2-.1-.3-.3-.4zm10.8 5.7c-1 2-2.4 3.6-3.9 5.1.5-.6 1-1.2 1.4-1.7.9-1 1.9-2.4 2.7-3.8-.1.2-.2.3-.2.4zm2.7-5.6c-.6 0-1 .2-1.4.6-1 2-1.8 4.1-3 6.1-1.7 2.8-4.4 5.3-6.5 7.7-.8.9-.7.2-.4-.6 0-1 .9-2.9 1.2-3.5.8-2 1.9-3.9 3.2-5.6.3-.6.7-1.1 1.1-1.6 1-1.4 2.3-2.5 3.6-3.8-.1-.1-.2-.2-.4-.1-.5.2-1.1.5-1.5.9-.1-.1-.1-.1-.3-.1-3.3.6-6.3 2.4-9.5 3.3-.9.3-1.9.6-3.1 1 .1-.4.2-.7.3-1.1.2-.6.5-1 .8-1.5 2.3-.6 4.8-1 7-1.8s4.4-1.8 6.6-2.7c.3 0 .6-.1.9-.1s.5-.2.6-.3l.1-.1.1-.1c.1-.1.3-.1.4-.2.2-.1.2-.3.1-.4-2-1.2-5 .2-6.9 1.1-2.9 1.4-6.2 1.8-9.2 3-.1 0-.2.1-.4.1-.2.1-.4.2-.5.3-1.1.5-2.2 1.2-3.1 2.2-.7.2-1.3.5-1.9.9s-1.3.9-1.8 1.5c.4-2.8 5.4-5.2 7.2-5.9 3.3-1.3 6.2-3.3 9.6-4.3 0-.1 0-.1.1-.2.1-.2.2-.4.1-.6-.1-.1-.3-.3-.4-.3-.8-1-1.7-1.5-2.9-2.3-2-1.4-2.8-3.2-3.9-5.2-.7-1.3-3.9-5.6-.4-5.2 2.1.3 4.2.8 6.1 1.6-.1 0-.2.1-.2.3.1.4.2.7.3 1 .1.3.2.7.4.9.1.1.2 0 .2-.1.1-.3 0-.7-.1-1s-.3-.7-.4-1v-.1c2.3 1 4.4 2.4 6.1 4.2.3.4.6.8 1 1.1h.1l.9 1.2c0 .1.1.1.1.2s.1.1.1.1c.7 1 1.3 2.2 1.8 3.4-.1.1-.2.1-.3.2-.7.5-1.2 1.4-.8 2.2.1.2.3.1.3 0 .3-.8.8-1.5 1.6-1.7.5-.2 1-.2 1.4-.2-.1.1-.1.2-.2.3 0 .1 0 .1-.1.2-.2-.1-.4 0-.5.1-.2.2 0 .4.2.3h.1c-.7.5-.7 1.5-.6 2.2 0 .3.2.5.5.5.5 0 1.1 0 1.6-.2.1 0 .1-.1.2-.1l.3.3c.3.2.6.5.9.7h.1c-.1.1-.2.1-.3.2-.1.1-.1.1-.1.2-.8.4-1.8.4-2.8.3-.6-.3-1.2-.8-1.9-1-.1 0-.2.1-.2.2.1.3.3.5.5.7-.1-.1-.2-.2-.4 0-.2.3-.4.6-.6 1-.1.1-.2.3-.3.4-.1.1-.3.3-.5.3zM-97 56c-.2-.4-.4-.9-.5-1.4.3.3.6.4 1.1.5.8.1 1.8-.2 2.1-1 .1-.1-.1-.3-.3-.3-.5.2-.9.5-1.5.5-.6.1-1.2-.2-1.6-.7-.2-1-.3-2-.4-2.9 0-.8.2-1.5.9-1.9.2-.1 0-.5-.2-.4-.4.2-.6.5-.8.8V48c.4-.3.7-.9 1.1-1.3.2-.1.5-.1.8-.1.5.1 1.1.3 1.6.4h.1c1.3 4 2 8.6-2.4 9zm3.8-.5c-.1.4-.1.8-.2 1.2-.1-.1-.2-.1-.3-.1.1-.4.3-.7.5-1.1zm-.6 2.7c-.1.5-.3.9-.5 1.1 0-.4 0-.8.1-1.1 0 .1.2.1.4 0zM-96.3 46c0-.2-.1-.3-.3-.3-.2.1-.4.2-.5.3-.3.1-.5.2-.8.3.1-.1.1-.3.2-.4.3-.7.6-1.1 1.4-1.3h.1c.2 0 .4.1.6.2.2.6.5 1.1.7 1.8-.4-.2-.9-.5-1.4-.6zm-3.5-7.2c.2.3.5.4.8.6l-.1.1c-.1.6-.4 1.1-.8 1.5l-.1.1h-.1c-.1-.1-.2-.2-.4-.5l.3-.6c.2-.4.4-.8.4-1.2zm-.6 10.2c.1-.5.1-1 .1-1.5.2-1.8.3-3.5.2-5.2.4-.2.7-.6.9-.8.5-.6.8-1.3.5-2h.1c.3.2.7.4 1 .7h.1c-.1.1-.1.1-.1.2v.1s-.1 0-.1.1c-1.4 2.8-1.7 5.8-1.5 8.8-.1 1.6 0 3.2.3 4.8-.1 0-.1 0-.2.1-.2.2-.8.5-1.2.9-.4-2.1-.3-4.1-.1-6.2zm.3 7.5c0-.2-.1-.3-.1-.5.2-.1.4-.3.5-.4.3-.2.6-.4.9-.7.2.7.4 1.3.7 2-.5.5-1.1 1.2-1 1.8-.5-.7-.8-1.4-1-2.2zm2.4 4c-.4-.5-.9-.9-1.2-1.4 0 0 .1 0 .1-.1.2-.3.4-.6.5-.9.1-.2.3-.4.4-.6.3.5.6 1 1 1.4-.1 0-.1.1-.2.1-.2.4-.4.7-.5 1.1 0 .2-.1.3-.1.4zm27.5-5.9h-1.6c0-.8-.4-1.7-.9-2.5l2.1.6c.3.1.6-.2.5-.5-2.1-8.5-11-12.7-19-14.1-.5 0-1 0-1.5.2-.1 2.9 1.6 6.8 3.9 8.5 2 1.5 4 2.9 6.4 3.6 2.3.7 4.7 1 7.1 1.6l.6 1.5c.1.4.2.7.3 1.1-.6 0-1.2 0-1.7-.1.1-.7-.3-2-.4-2.4s-.6-.2-.6.2c.1.6.3 1.3.3 1.9v.2c-3.5-.3-7-1.1-9.9-2.7-2.6-1.4-4.1-3.5-5.4-5.7-.8-2-1.5-4.1-3-5.4-.1-.1-.2-.3-.3-.4 0-.1-.1-.1-.2-.1-.1.5 0 1 .1 1.4.3 1 .9 2 1.2 3 .7 2 1 4 1.3 6.1.4 2.9.2 5.6-.5 8.5-.1.5-1.7 5.6-2.3 5-.9-1.1-2.3-1.7-3.3-2.7l-.5-.5c.1-.2.2-.4.3-.7.2-.3.3-.7.4-1 .6.6 1.3 1.2 2.2 1.7.2.1.5 0 .6-.2.8-2.3 1.2-4.3 1.3-6.3 0 0 0-.1.1-.1v-.8-1.3-.1c0-1.4-.3-2.6-.7-3.9-.4-1.4-.9-2.8-1.6-4.3-.4-1.2-.8-2.7-1.6-3.6.7-.1 1.6-.5 2.1-.7.9-.5 1.4-1.7 1.4-2.9.1.1.2.1.3 0 .3-.5.3-1.2.6-1.8.2-.6.3-1.2.5-1.8.2-.1.4-.1.5-.2v1.3c0 .5-.1 1.3.4 1.6.2.1.4 0 .5-.2.1-.3-.1-.6-.1-1 0-.3 0-.7-.1-1-.1-.4-.1-.8-.2-1.2.1-.1.2-.1.4-.2l.1.1c.5.4.5 1.2.9 1.6-.2.1-.3.2-.5.4.1.4.6.4 1.1.4 1.3-1 2.6-1.9 4.1-2.7 1.6-1.1 3.5-1.9 5.3-2.7 1.9-.8 3.8-1.6 5.9-1.9h.2c.1.1.1.1.1.2h.1c-1.2 2.7-4.8 4.4-7.2 5.7-3.1 1.7-6.2 1.4-9.4 2-.1 0-.1 0-.1.1-.3 0-.5.3-.4.5 0 .2.1.4.3.5 3.6 0 7.4 1.5 10.6 2.7 1.9.7 3.5 1.7 4.9 3.1 1.6 1.2 2.6 2.8 3.8 4.6.8 1.9 3.5 7.7.2 7.8zm-2.8-6.7c.8 1.2 1.5 2.5 2 3.8-.1-.2-1-.4-2.1-.6.3-1.1.3-2.2.1-3.2zm-7.4-3c0 1-.6 1.7-1.5 2-.2.1-.4.1-.7.1-.8-.4-1.6-.7-2.2-1.4-.7-.8-.9-1.7-1.1-2.7 0-.1-.1-.1-.2 0-.1.8.1 1.9.6 2.8-.3 0-.7 0-.9-.2v-.1c-.2-.3-.3-.5-.5-.8v-.1c-.2-.5-.2-1.2-.1-1.8.3-.8 1.2-1.2 1.9-1.4.1 0 .2-.1.2-.2.1-.1.3-.2.5-.2.1 0 .2-.1.2-.2 1.2.3 2.4.7 3.5 1.3.8.4 1.6 1 2.2 1.7-.2-.2-.5-.3-.9-.2-.2 0-.2.4 0 .4 1 0 .9 1.6.8 2.3 0 .6-.4 1.1-.8 1.5-.6.7-1.5.6-2.3.9-.2.1-.1.3 0 .3 1.8.8 3.8-.7 3.8-2.7 0-.5-.1-1.3-.3-1.8l.6 1.2c.1 1.1.4 2.3-.4 3.2-.3.3-.7.7-1.1.9-.6 0-1.3-.1-1.9-.3-.5-.1-1-.3-1.6-.6 0-.3-.1-.5-.1-.8.3 0 .7 0 1-.2 1.1-.4 1.6-1.4 1.5-2.5.2-.7-.2-.7-.2-.4zm-2.5 3.1c-.2-.1-.5-.2-.7-.4.1-.1.1-.2.1-.4.2.1.3.2.5.2 0 .3.1.5.1.6zm-1.1-1.1c-.1.1-.2.2-.2.4-.2-.1-.4-.3-.5-.4l-.6-.6c.2 0 .3-.1.5-.2.2.4.5.6.8.8zm-3.3-5.1s0 .1-.1.1l.1-.1c-.1-.1-.1-.1 0-.1.1-.3.3-.6.5-.8.2-.2.4-.3.6-.4.1 0 .2-.1.3-.1.2 0 .4.1.5.1.2 0 .4 0 .5.1 0 0-.1 0-.1.1-.1 0-.1.1-.2.1-.7 0-1.7.3-2.1 1zm-7.2 11.7c-.1.2-.4.1-.4-.1.1-2.2.4-4.7-2.1-5.8-.2-.1-.2-.5.1-.4 2.5.9 3.8 4.1 2.4 6.3zm.9-30.8c-.2-.8.5-1.3.7-1.9.1-.3.7-.2.6.2-.1.3-.4.6-.5 1-.2.3-.2.7-.5.9-.1-.1-.3-.1-.3-.2zm1.9-.6c-.1-.3.1-.6.2-.9 0-.5.8-.5.8 0 0 .4-.2 1.1-.7 1-.2 0-.3 0-.3-.1zm2.6-5.2c.4-.5 1-.7 1.6-.6.3 0 .3.5 0 .6-.4.1-.7.4-1.1.7-.4.2-.7-.4-.5-.7zm1.7.7c.1-.5.7-.5 1-.9.2-.3.7.1.5.4-.3.4-.9.7-1.3.7-.1 0-.2-.1-.2-.2zm3.9 33c.4.2.9.5 1.3.6.3.1.7.2 1 .4.1.1.1.3 0 .3-.9.4-1.9-.5-2.6-.9-.4-.1 0-.6.3-.4zm5.1 1.1c.2.1.3 0 .5.1.2 0 .3.3.2.5-.2.3-.7.3-1 .2-.5-.3-.2-1 .3-.8zm-36.4-24.5c-.2.4-.8-.1-.5-.4.3-.2.7.1.5.4zm1.5 1.7c0 .1 0 .2-.1.2-.3 0-.4-.1-.6-.1-.4 0-.4-.7 0-.6s.6.2.7.5zm1.1 2c-.5.1-.5-.7 0-.6.4.2.4.5 0 .6zm3.7-5.6c-.1-.4.4-.5.6-.2.1.3.2.6.4.9.1.2-.1.4-.3.3-.5-.2-.6-.6-.7-1zm1.5 20.5c0 .4-.3.7-.4 1-.1.1-.1.3-.2.4-.1.2-.2.1-.3.3-.2.5-.5 1.2-.9 1.5-.1.1-.2 0-.2 0 .4-.9.9-1.9 1.3-2.8.1-.3.3-.5.6-.6 0 .1.1.2.1.2zm-.1-.7c.2-.4.5-.7.9-.7.1 0 .2.1.1.2-.2.4-.4.7-.7.9-.2.1-.5-.2-.3-.4zm1.3-1.1c.1-.3.4-.8.8-.6.1.1.1.2 0 .3-.2.2-.3.3-.4.5s-.5 0-.4-.2z"/></svg>