<svg id="Layer_1" xmlns="http://www.w3.org/2000/svg" viewBox="-267 -112.2 180 105"><style>.st0{opacity:.2}.st1{fill:#44a3bc}</style><path class="st0" d="M-131.3-21.2c-.5-.6-1.2-.8-1.8-1.2-.8-.7-1.5-1.4-2.2-2.2-1.2-1.5-2-3.4-3.2-4.8-.4-.4-1-.1-1 .4-.1 1.4.8 2.8 1.6 4-.4.8.2 1.9.9 2.5.6.5 1.4.9 2 1.3.9.5 1.6 1.1 2.5 1.6 1 .5 1.9-.8 1.2-1.6zM-111.3-28.2c-3-1-5.8-3.5-8-5.6-1.1-1.1-2.1-2.4-3.3-3.6-1.3-2-2.6-4-4.6-4.9-.8-.3-1.7.4-1.2 1.2 1 1.7 1.9 3.6 2.9 5.4 1.2 2.3 2.9 3.3 4.7 5 2.6 2.4 5.5 4.3 9.1 4.3 1.2 0 1.4-1.4.4-1.8zM-101.9-55.5l-.2-.2c-.1-.1-.4-.1-.5 0-.5.3-2.2.2-2.9.3-2.1.3-2.9.6-4.9.2-2-.4-5.1-.9-7-.1-.4.1-.6.5-.4.9 1.6 2.6 6.1 1.8 8.8 1.9 2.2 0 5.7-1 7.2-2.5.2-.2.1-.4-.1-.5zM-113.9-88.7c-.2-.6-1-.5-1.2 0-1.2 3.7-3 6.8-4.9 10.2-.9 1.6-1.6 3.2-2.6 4.7-1.1 1.6-2 3.2-2.4 5.1-.1.5.5 1.1 1 .8 1.8-1.3 3.1-2.9 4.2-4.6 2.1-2.3 3.2-6 4.3-8.6 0-.1.1-.2.1-.3 1.1-2.4 2.1-4.9 1.5-7.3zM-136.1-58.4c-1 .3-2.1.8-3.2.9-.5.1-.9 0-1.3-.3-.2-.2-.4-.3-.6-.5-.2.4-.2.3 0-.2.3-1.1-.3-1.6.8-2.3.5-.4 1.1-1 .9-1.7-.4-1.5-2.1-1.5-3.3-.8-.2-1.1-1.3-1.9-2.6-1.6-.9.2-2.3-.2-3.1-.5-1.4-.4-3-.4-4.5-.7-1.6-.3-3.2-.5-4.8-.6-1.4 0-2.6-.9-4-.8-.9.1-1.2 1.4-.3 1.6-.3-.1-.4-.2 0 .3l.1.1c-.7-.2-1.3-.3-1.8-.6-1.8-.9-3.4-2.1-5.1-3.1-1.2-.7-2.8-.8-3.9-1.7-.4-.3-1.3 0-1 .6 1.4 3.4 5.1 5.7 8.1 7.5 2.2 1.3 7.8 3.4 9.6.5.1-.1.1-.2.1-.4.6.1 1.3.2 1.9.4 1.8.5 3.8 1 5.9 1.3-.5 1.4-.6 2.9-.6 4.3 0 .2.1.5.2.7-.1.1-.2.2-.2.3-.4.3-.7.6-1.1.9-.7.6-1.5 1.2-2.2 1.8-.8.8-1.9 2.2-1.1 3.3 1 1.2 3-.1 3.9-.8.7-.6 1.7-1 2.4-1.6.2-.2.3-.2.6-.4s.6-.4.7-.7c.1-.1.1-.2.1-.3.7-.6.9-1.7.4-2.5 0-.1.1-.2.1-.3.8 1.4 2.7 2.5 4 2.9 2.4.6 4.6-.6 6.3-2.2 1.4-1.2.2-3.2-1.4-2.8z"/><path class="st0" d="M-125.6-46.5c-.9-2-3.1-3.4-4.6-4.9-1.1-1.1-3-4.1-4.9-3-.4.2-.7.8-.5 1.2 0 .1.1.1.1.2-.7.4-1 1.2-.6 2 1.7 3 3.1 8.2 3 11.5 0 4-.1 8.6 1.3 12.4.3.7 1.2.7 1.4 0 1.5-4.2 2.5-9.8 1.2-14.2-.4-1.3-.7-3-1-4.7.2.2.4.4.5.6.7.8 1.6 1.3 2.7 1.2 1.4-.1 1.9-1.2 1.4-2.3zM-123.4-52.2c-2.5-2.1-5.3-4.6-7.6-6-1.2-.7-2.8.4-2.4 1.8.7 2.2 4 4.4 6 5.3 1.4.7 3.1 1.8 4.3 2.8.8.6 1.8.6 2.5 1.2.3.2.7 0 .8-.3.5-2.3-2.2-3.6-3.6-4.8zM-123.5-76.3c-.8 1.3-2.1 2.2-3 3.4-.9 1.1-1.8 1.9-2.8 2.8-.7.6-1.4 1.3-1.9 2.1-.4.6-1 1-1.5 1.5.1-.1-1.2.9-.5.6-.6.3-1 1.2-.7 1.8l.1.2c.3.9 1.1 1.2 1.8 1 .7 0 1.3-.6 1.5-1.2.3-.7 1.2-1.3 1.6-1.9.6-1.1 1.5-2.2 2.4-3.1 1.8-1.7 3-4.4 4.1-6.6.2-.7-.7-1.2-1.1-.6zM-157.6-51.6c-2.3 1-4.2 2.1-6.7 2.6-1.1.2-1.5.6-1.9 1.1-3.1 0-6.3-.8-9.3-1.5-.9-.5-1.9-.8-2.7-1.1-.5-.2-1 .3-.6.8-.6.4-.8 1.4.1 1.8 1 .6 1.8.7 2.8.7 3 .7 6.3 1.5 9.5 1.6.3.2.6.2 1 0 3.5-.1 6.9-1.1 9.4-4.2.8-1-.3-2.4-1.6-1.8zM-142.6-42.8c1.1-2.2-2.1-4.1-3.3-1.9-.3.5-.6 1-.9 1.4-1.4 1.9-3.4 3.5-5 5l-.1.1c-.3.2-.5.4-.8.6-1 .7-2.5 1.7-3.2 2.9-.2.1-.3.2-.4.4l-.2.2c-.7.6-1.5 1.1-2.2 1.5-.7.3-1.4.6-2 .9-.5.2-.7.7-.7 1.2-1.1.5-2.2 1-3 1.6-.6.5-.3 1.6.6 1.3 1.2-.4 2.5-.9 3.8-1.6.1 0 .2 0 .4-.1 1.7-.6 3.4-1.3 4.9-2.1.4.1.9.1 1.4-.2 1.2-.7 2.3-1.8 2.9-3.1l.2-.2c.9-.7 1.8-1.3 2.1-1.6 1.6-1.6 3.3-3.1 4.5-4.9.1-.2.2-.3.4-.5s.4-.6.6-.9zM-150.7-79.6c0-1.5-.2-2.8-.8-4.1-.1-.2-.4-.1-.5.1-.5 1.5-.3 3.5-.3 5.1 0 1.5.2 3 1.3 4.1.3.3.8.1.8-.3-.2-1.7-.4-3.2-.5-4.9zM-206.1-70.1c1.4-1.6 2.9-2.8 3.7-4.9 1-2.4 2.7-4.1 3-6.8.1-.6-.7-.8-1.1-.5-1.4 1.3-2.7 2.7-4 4-1.4 1.4-1.9 3.5-3.7 4.5-1.2.7-2.4 2.1-3.5 3-1.5 1.3-3.3.7-4.6 2.3-.4-.5-.8-.9-1.4-1.3-.4-.3-.9-.5-1.4-.7.6-.8.9-2 .9-2.9 0-1.1-.2-2.3-.3-3.4-.1-1.2.3-2.7-.5-3.7-.3-.4-.8-.6-1.3-.3-1.2.6-1.6 2.3-1.8 3.5 0 .2 0 .5-.1.7l-.2-.2c-1-.9-2.3-2.3-3.7-2.4-.8-.4-2.2-.8-2.1.3 0 .7.4 1.5.8 1.9.2.2.6.2.7.5.3.4.7.9 1 1.3.6.7 1.8 1.6 2.1 2.6.4 1.1.6 2.1 1.7 2.6.3.1.5.2.7.3v.3c.3 1 1.2 1.6 1.6 2.5.1.4.3 1.1.3 1.5 0 0-1.4.7-1.7 1-.2.3-.4.6-.4 1-.1 0-.1-.1-.2-.1-.1-.1-.2-.1-.3-.1 0-.4-.2-.7-.4-1-1.6-1.9-4.3-.2-5.2 1.5-.5.8-.7 1.7-1 2.5-.2.5-.3 1.1-.5 1.6-.1.4-.1 1.2-.4 1.5-.4.5 0 1.3.7 1.1.7-.2 1-.6 1.5-1.1.6-.8 1.2-1.4 1.6-2.3.3-.6.7-1.3 1.2-1.8 0 0 .1 0 .1-.1.3.4.5.6.4 1.3-.1.8-.2 1.5-.1 2.3.2 1.5.4 3.2.9 4.6.1.3.6.3.7 0 .2-.6.3-1.3.7-1.8.4-.4.7-.9.8-1.4.4-1.2.6-2.5.7-3.8 0-.4 0-.9-.1-1.3 1.2.7 2.9.4 3.9-.6.8-.7 1.2-1.6 1.2-2.5.3.2.6.4.8.5 0 .5-.1 1.1-.1 1.6 0 1.1.2 2.1.5 3.1.6 2 1.6 4.5 3.6 5.4.4.2 1-.2 1-.6.4-2.2-.7-3.7-1.5-5.7-.5-1.3-.3-2.6-.4-3.8.8 0 1.7 0 2.4-.1 1.5-.2 3.3.4 4.3-.9.2-.2.1-.6 0-.8-.7-1.3-2.5-1.4-3.8-1.3-.2 0-.3 0-.5.1 1.3-.7 2.1-1.8 2.8-2.7zM-220.4-42c-1.2-1.7-1.8-3.9-2.2-5.9-.1-.6-1.1-.6-1.2 0-.5 2.6-.5 4.4.7 6.8.9 1.8 2.4 4.3 4.6 4.4.5 0 .8-.5.7-.9-.3-1.7-1.7-3.1-2.6-4.4zM-232.8-61.4c-1.2-.4-2.1-.3-3.4 0-.8.2-1.4.5-2.2.7-.1-.1-.2-.1-.4-.1l-1.2.3c-.3.1-.5.2-.8.3-.2.1-.4.2-.6.2-1-.5-2.4-.4-3.3-.2-.7.2-1.4.4-2 .6.5-.2 1-.3 1.2-.4.8-.3 1.6-.5 2.2-1.2.3-.4.4-1 0-1.4-1.5-1.5-4.8-.3-6.2.9-1 .9-4.2 2.9-3.1 4.7l-.1.1c-.6.6-.5 1.7.3 2.2 2.3 1.3 5.3.5 7.7.2 1.6-.2 3.4-1.4 4.8-2.8 2.6-.7 5.3-.9 7.4-3.1.3-.3.1-.8-.3-1zM-232-53.2c-2.9 2.3-4.6 5.8-7.4 8.1-.3.3-.3.8 0 1.1.1.2.4.3.6.3 1.8.5 3-1.4 4.1-2.6 1.8-1.9 3-3.7 3.6-6.4.4-.6-.4-.9-.9-.5zM-188.6-50.5c-.2-.7-.4-1.3-.8-2-.8-1.7-3.2-.4-2.8 1.2.3 1.6 1.3 2.9 2 4.3-2-.1-6.5-1.3-7.2-1.4-2.5-.4-4.8-1.7-7.3-1.8-.6 0-.6.7-.1.9 2.4 1 4.3 2.5 6.8 3.3 2.6.8 5.5 1.6 8.3 1.8 4.6.4 2.3-3.6 1.1-6.3zM-223.8-85.8c-.2-.6-.3-1.2-.4-1.7-.3-1-1.8-1.1-2.1 0-.2.7-.1 1.5.1 2.2.2.8.4 1.5.9 2.1.5.6 1.4.3 1.6-.4.3-.9.1-1.5-.1-2.2zM-236.1-77.6c-.1-.2-.2-.4-.4-.6-.1-.2-.2-.3-.3-.4-.1-.1-.1-.1 0 0-.1-.1-.2-.3-.3-.4-.3-.4-.7-.7-1.1-.9-.6-.3-1.6.2-1.2 1 .3.6.5 1.3 1 1.8.6.7 1.4 1 2.2.5.2-.3.2-.7.1-1z"/><path class="st1" d="M-99.8-57.5l1.2-1.5v-.4c-.4-1.3-2.5-2.1-3.5-2.8-3-2.1-7.2-3.3-10.6-4.3-3.8-1.1-8-1.2-12-.5 3.7-3.6 6.6-8 8.8-12.6 2.2-4.8 2-9.6 1.6-14.8v-.8c0-.3-.3-.5-.6-.5-2.3.5-4.8 2.9-6.7 4.2-1.1.8-2 1.5-2.9 2.3-.2 0-.4.1-.4.3-.5.4-1.1.9-1.6 1.4-.1 0-.3.1-.3.3-.5.4-1 .9-1.5 1.4-4.9 4.4-7.9 10.1-10.9 15.8-.7-2.3.1-6.2 0-8.4-.2-3-1.2-5.9-2.4-8.6-1.3-2.8-6.1-11.3-9.7-11-.3 0-.4.2-.5.4-.8 2.1-1.1 4.6-1.1 7.1-.3 3.3-.7 6.6-.3 9.9.2 1.8.5 4.3 1.3 6.2-7.7-3.6-16.8-4.3-24.7-1.7-.4.3-.7.5-.6 1.1 0 .3.1.5.1.8.5 1.1.7 2.5 1.2 3.6.6 1.2 1.5 2.1 2.5 3 .1.1.1.2.3.2.4.4.9.8 1.3 1.2 1.5 1.3 3.4 2.1 5.1 3 1.4.7 2.4 1.4 3.9 1.5-2.1.7-4.2 1.6-6 2.3-3.9 1.6-10.5 3.6-13.3 6.9-.1 0-.2.1-.2.2-.1 2.5 4.2 4.5 6.2 4.9 5.1 1 9.3 1.3 14.4.5-.8.8-1.5 1.7-2.1 2.5-3.5 4.2-8.3 10.8-8.4 16.4 0 .2.2.3.4.2 0 .2.2.3.3.3 2.8.6 5.8.2 8.7-.6.3 0 .5-.1.8-.1 3.2-.8 6.2-2.6 8.9-4.4 1.6-1 3.5-2.3 5.4-3.8.2 0 .3-.2.4-.3 2-1.7 3.9-3.6 5.1-5.7 0 .5.1 1 .1 1.5 0 2.3.3 4.6.9 6.8v.1c.3 2.7.8 5.7 1.9 8.2.2.4.4.7.6 1.1.1.3.2.5.4.6.6.9 1.5 1.9 2.4 2.7.4.2.8.3 1.2.5 1 .6 2 1 3.1 1.3.2 0 .4.1.8 0 .2.1.4.2.7.2l1.2-.3c.2 0 .3-.2.4-.4.4-2.5.6-5 .6-7.3.1-1.2.2-2.4.2-3.6 0-.9.2-2.4-.2-3.5-.1-1.5-.2-3.1-.5-4.7 2.4 3.3 5.3 6.2 8.6 8.6 2.9 2.1 7.7 5 11.4 3.1.2-.1.4-.2.6-.4.2-.1.4-.3.6-.5.7-.9-1.5-4.9-1.8-5.9-1.3-3.9-2.7-7.3-5-10.8-2.3-3.3-5-6.1-8.1-8.7-.3-.2-.6-.5-1-.8 3.5 1.3 8 1.7 11.5 1.9 4.7.2 7.8-2.3 11.8-4.8zm-12.3 3.8c.2-.3.3-.6.5-.8.2-.3.4-.7.5-1.1.5 0 1-.1 1.5-.1-.1.5-1.1 1.5-.6 1.9-.7.1-1.3.1-1.9.1zm8.8-2.3c-2 1.4-4.1 1.9-6.4 2.1.1-.2.2-.5.3-.6.2-.4.5-.7.5-1.2v-.2c.4 0 .7-.1 1.1-.1.8-.1 3.5-.4 5.9-1-.5.4-1 .7-1.4 1zm-8.2-8.9c.6.2 1.2.4 1.7.6-.1 0-.2.1-.2.3 0 .4-.4.8-.2 1.2-.6-.2-1.2-.4-1.8-.5.5-.5.6-1.1.5-1.6zm-1.8.2v-.7c.1 0 .2 0 .3.1.3.1.7.2 1 .3v.1c.1.5-.4 1-.3 1.5-.4-.1-.8-.2-1.2-.2.1-.4.1-.8.2-1.1zm-.9-1c.1.5-.2 1.3-.2 1.8-.5-.1-1-.1-1.5-.2.1-.3.1-.6 0-.8 0-.4 0-.7-.1-1.1.7.1 1.3.2 1.8.3zm-2.4-.3c-.2.5-.3 1.5.1 2h-1.1c-.1-.2-.2-.5-.2-.8-.1-.4-.2-.9-.3-1.3.5 0 1 0 1.5.1zm-2.3-.2c.1.5.2 1.4.4 2.1h-1.2c-.1-.2-.2-.3-.2-.5-.2-.6-.4-1.1-.6-1.6h1.6zm.4-11.5c-.1.1-.1.2-.2.3-.5.5-1.3 1-1.8 1.4-.8.6-1.5 1.4-2.1 2.2-.2.1-.4.2-.5.4-.1.1-.1.3-.2.4-.2.3-.4.5-.6.7l-.1.1c1.3-1.8 2.6-3.7 3.7-5.6.4-.7.9-1.5 1.3-2.3 0 .1 0 .2.1.2.2.6.3 1.2.4 1.8v.1c-.1.2 0 .3 0 .3zm3.6-12.6v2.7c0 3.2-1 5.8-2.4 8.7 0 .1-.1.2-.1.2 0-.2-.2-.3-.3-.3 0-.2-.1-.3-.1-.5-.1-.6-.2-1.2-.5-1.7.3-.5.5-1 .7-1.5v.2c.1.5.2 1 .3 1.6 0 .3.5.3.6 0 .1-.8.1-2.1-.4-2.8 1-2.2 1.7-4.4 2.2-6.6zm-6-.3c.2.4.4.8.8.8.1 0 .2-.1.1-.3-.1-.3-.3-.6-.4-.9.6-.4 1.2-.9 1.8-1.3-.1.2-.1.4.2.5.2 0 .2.2.5.1.1 0 .1-.2.1-.3-.1-.2-.2-.3-.4-.3h-.2c.2-.2.5-.4.7-.6 3.5-2.7 1.9.9 1.4 3.4-.6 3.1-1.9 6.3-3.5 9-2.6 4.6-6 9.6-10 13.4l.1-.1c.1-.2.1-.4-.1-.5-.1-.1-.2-.1-.3-.1h-.1c-.1 0-.2-.1-.2-.1-.3-.2-.6-.5-.9-.7-.2-.1-.4-.3-.5-.5.5-.4.9-.8 1.3-1.2.3.3.5.7.8.9.2.2.5.5.8.6.1.1.3.1.5.1.1 0 .3 0 .4-.1l.1-.1s.1-.1.1-.2c.1-.1.1-.3 0-.4 0-.1-.2-.2-.3-.1h-.1c-.1 0-.1-.1-.2-.1-.3-.2-.5-.4-.7-.6-.2-.2-.4-.5-.7-.7l1.1-1.1c.4.3.7.6 1.2.7.5.2 1-.1 1.1-.6 0-.1-.1-.3-.3-.3-.6.2-1.1-.2-1.5-.5 1.1-1.3 2.1-2.6 3.2-4 2.2-2.8 5.2-7.8 5.7-11.4 0-.3-.3-.4-.5-.3-.6.3-1.1.5-1.6.8 0-.1 0-.2-.1-.3-.5-.4-.5-1.1-.7-1.6.5-.4.9-.7 1.3-1zm-11.5 21.8c.7.9 1.9 2.2 2.5 1.8-.5.4-1 .9-1.5 1.3-.1 0-.2-.1-.3-.2-.3-.2-.5-.4-.7-.7-.4-.4-.8-.8-1.1-1.2l-.1-.1 1.2-.9zm-2.1.5c.1-.1.2-.1.3-.2.4-.4.9-.8 1.3-1.2v.1l.1.1c-.8.7-2.4 1.9-1.7 1.2zm5.4-8.8c-.3.4-.6.8-1 1.2 1-1.4 2.1-2.8 3.3-4.1-.7.9-1.5 1.9-2.3 2.9zm5.7-5.5c-1.2 2-2.8 3.9-3.9 5.1 1.3-1.7 2.5-3.5 3.9-5.1zm-2.4 5c.4-.4.9-1 1.3-1.5-.6 1-1.2 1.9-1.9 2.8-1.3 1.7-2.5 3.2-3.9 4.6h-.1c-.4-.3-.9.3-.6.7-.5.4-.9.8-1.4 1.2-.1 0-.2-.1-.3-.1 2.4-2.4 4.6-5.2 6.9-7.7zm2.9-11.5c.2.7.3 1.6 1.1 1.6-.5.3-.9.6-1.4.9l-.1-.1c-.1-.1-.1-.3-.2-.5-.1-.3-.3-.5-.4-.8 0-.1-.1-.2-.1-.3.4-.3.7-.6 1.1-.8zm-1.9 1.4c.1.4.3.7.5 1 .1.2.2.4.4.5-.4.3-.7.5-1 .8-.2-.2-.4-.3-.5-.4-.3-.3-.4-.6-.6-.9.3-.3.8-.7 1.2-1zm-28.1 1.9c.1 1 .3 2 .4 3v.2c-.1 0-.2 0-.3.1-.1 0-.1.1-.1.1-.1-1.2 0-2.3 0-3.4zm0 3.8c.1.1.2.1.3.1.1 0 .1 0 .2-.1h.1c.1.5.2.9.3 1.4-.2-.1-.5-.1-.8 0-.1-.4-.1-.9-.1-1.4zm.6 3.6c-.1 0-.1 0-.2.1-.1-.5-.2-1-.2-1.5.2.1.3.1.5.1h.3c.1.5.3 1 .5 1.5-.1-.1-.3-.2-.5-.1-.1-.1-.2-.1-.4-.1zm-20.7 9.8c-.3-.4-.7-.7-1-1.1-.6-.8-1.1-1.6-1.4-2.4 1 1 2.2 2.1 3.3 3-.1 0-.2.1-.3.1-.1.2-.4.3-.6.4zm1.9 1.7c-.1-.1-.2-.1-.3-.2-.3-.2-.6-.5-.9-.8.2-.1.4-.3.5-.4.1-.1.2-.2.2-.3.7.6 1.3 1.1 1.6 1.3-.1 0-.3.1-.4.1-.1.1-.4.2-.7.3zm2.5 1.1c-.4-.2-.8-.4-1.3-.6.1 0 .2-.1.3-.1.2-.1.3-.2.5-.3.4.2.7.5 1.1.7l-.6.3zm2.3 1h-.1l-.6-.3c-.2-.1-.4-.2-.7-.3l.3-.3 1.5.9h-.4zm3.2-.6c-.3.2-.6.4-.8.7-.1 0-.3.1-.4.1-4.1-2-7.7-5.6-10.8-8.9 3.7 3.2 8.3 5.4 12.8 7.4.7.3 1.4.6 2.2.9-.8.4-1.6 1-2.5 1.3.2-.2.4-.3.5-.6.2-.6-.5-1.2-1-.9zm-5 17.3c-.1.1-.2.3-.2.5-4.5.1-9.1-.1-12.4-3.3 3.6 2 9.2 1.5 13.2 1.7-.2.4-.4.8-.6 1.1zm2.6.4c-.6.1-1.2.1-1.8.1.2-.4.3-.9.4-1.4v-.1h1.9c-.2.4-.3.9-.5 1.4zm2.9-1.5c-.1.3-.2.7-.3 1 0 .1-.1.3-.2.5h-1.4c.1-.2.2-.4.2-.7.1-.3.1-.6.2-.9.6-.1 1.1-.2 1.6-.4 0 .2-.1.4-.1.5zm4.2 17.8c-1.3 1-3 1.4-4.6 1.9-1.1.3-2.3.5-3.4.6 3.7-1.4 7.1-4.1 10.2-6.6-.4 1.5-.2 2.6-2.2 4.1zm3.7-3.4c0 .6-.3 1.3-.3 1.9-.3.2-.7.4-1 .6.6-1.1.5-2.6.9-3.7.1-.2 0-.3-.1-.4.2-.2.4-.3.6-.5 0 .8-.1 1.4-.1 2.1zm4.7-1.6c0-.2 0-.4-.2-.4h-.3c-.2-.5-.3-1.1-.5-1.7-.1-.4-.9-.4-.8.1.1.9.2 1.8.7 2.6 0 .1.1.1.1.1l-3 2.1v-.9c0-.9-.2-1.8-.3-2.7h.1c1.4-1.1 2.7-2.2 4-3.4.3.7.4 1.4.6 2.1.1.4.3.9.5 1.3-.3.3-.6.6-.9.8zm2-1.7l-.2.2c-.6-1-.6-2.3-1.4-3.2.4-.3.7-.7 1.1-1v.1c.3.9.3 2.6 1.3 3-.4.3-.6.6-.8.9zm1.2-1.7c-.2-.4-.4-.7-.5-1.2-.2-.5-.3-1.1-.8-1.4h-.2c.5-.5 1-1.1 1.5-1.7.2.2.4.2.7 0 .2.4.4.7.7 1.1-.4 1.1-.9 2.2-1.4 3.2zm7.6 13.3c-.1-.2-.1-.3-.2-.5 0-.2-.1-.4-.1-.6 0-.5-.1-.9-.2-1.4 0-.1-.2-.2-.3-.2-.1-.4-.2-.9-.3-1.3.4.9.9 1.7 1.4 2.5 0 .3-.2.9-.3 1.5zm1.3.5c-.1.4-.1.8-.2 1.1 0-.4-.1-.7-.1-1.1v-.9c.1.2.3.4.4.6 0 .1-.1.1-.1.3zm2.3 3.9s.1-.1.1-.2c0-.2-.2-.4-.2-.7v-.7c0-.5-.7-.5-.8 0 0 .4 0 .7.1 1.1l-.6-.6c0-.4-.1-.8-.1-1.2 0-.4 0-.9-.1-1.3.1.2.3.4.4.6 1.6 1.9 3.6 2.9 5.5 4.3-1.5.2-2.8-.8-4.3-1.3zm6.1-4l-.6 4.2v.5c-.1-.2-.2-.4-.7-.6-8-3.5-10.8-12.7-11-21.4-.1-1.4-.1-2.8.1-4.2v-.5c0-.7 0-1.4-.1-2v-.9c-.1-.2-.2-.3-.3-.4-.1-.1-.1-.1-.2-.1-.7 1.3-2.1 2.5-2.8 3.4-1.2 1.6-2.6 3.2-4.3 4.4-1.2 1.2-2.3 2.3-3.5 3.4-3.8 3.7-8.1 7-12.9 9.3h-.2c-.2 0-.4.1-.4.3-1.2.5-2.4 1-3.6 1.4v-.4c0-.1-.1-.2-.2-.2h-.2c-.5-.1-.5.5-.3.8-.4.1-.9.2-1.3.4 1.8-5.8 5.7-11.7 9.5-16.2 3.3-3.9 7.6-6.7 11.3-10.2 0-.2 0-.6-.2-.8h-.1c-5 1.9-9.4 5.3-15 5.6-5.2.3-10.4-.6-15.4-2 3.7-2.9 8.7-4.3 12.9-6.1 3.7-1.5 7.3-2.5 11.1-3.1l.1-.1c1.9-.4 3.8-1 5.8-1 .3-.1.6-.1.9-.2v-.1c.1 0 .2-.1.3-.1.3-.1.3-.6-.1-.6h-.3c.2-.8.5-1.6 1-2.2.5.1 1 .1 1.6.2.2.1.4.1.5.2-.7.5-.9 1.9-1 2.6-.1.3-.1.6-.2 1-.7.1-1.4.3-2 .5-.2.1-.5.2-.7.3-.3.1-.5.2-.8.3-2.5.9-5 1.9-7.7 2.4-2.3.5-4.5 1.1-6.7 1.9-3.1.5-6.7 1.6-6.8 3.5 0 .3.2.4.5.5 5.2.1 10.1-.4 15.1-1.5 2.8-.6 4.9-2.2 6.9-4 .8-.5 1.5-1.1 2-1.7 0 1.2.2 2.4 1 3.2.2.1.4 0 .4-.2 0-.7-1.1-8.1.7-8.5.6.1 1.1.3 1.7.4-2.1 2.5-3 6.4-1.3 9.3-.2.1-.3.2-.4.4-1 .5-1.7 1.2-2.5 2-2.3 2.4-5.3 4.1-7.9 6.3-2.4 2-5.7 5.8-6.9 9.1-.3.4-.6.9-.9 1.3-.2.2-.3.4-.5.6l-.6.6c-.2.2.1.5.3.4 7.8-4.8 16.6-10 20.4-18.5.1-.4.1-.7.2-1 0-.2.3-.2.4 0h.1v-.2c.4.4.8.7 1.3.9.3.2.6.5.9.7.5.3 1.1.3 1.7.4.3.1.8.1 1.2.1 0 .3.1.7.1 1 .1.6.2 1.1.5 1.6.1 2.7.4 5.4.8 8 .8 5.1 2.9 8.7 4.9 13.3.2.5.9.2 1-.3.4-3.6.3-7.2-.1-10.7.2-.3.3-.7.4-1.1.2-.5.4-1.1.6-1.6.1-.4-.5-.6-.7-.2-.1.3-.3.7-.5 1.1-.1-.4-.1-.8-.2-1.3.3-.7.7-1.4.9-2.1 1.2 3.6 2.2 7.1 2.6 11.1.5 2.4.6 4.9.4 7.4zm-31.1-22.5l-.9.9h-.5c.2-.7.2-1.7.6-2.1.1-.1.1-.1.1-.2.4-.2.9-.3 1.3-.5v.2c-.1.3-.2.5-.2.8-.1.2-.2.4-.3.7-.2.1-.2.1-.1.2zm1.4-2.3l.6-.3c.5-.2.9-.4 1.4-.6-.7.6-1.4 1.2-2 1.8v-.9zm1.9-16.1c.7.2 1.4.4 2.1.5-.6.2-1.1 1.1-1.2 1.8-.4-.2-.9-.3-1.3-.5.5-.2.4-1 .5-1.5 0-.1 0-.3-.1-.3zm6.7-1.1c-.4-.1-.8-.2-1.2-.2-2.6-1-5.2-1.9-7.8-3 3 .7 6.3 1.6 9 3.2zm-5.7-3.4h.4c.6.2 1.1.4 1.7.7.5.2.9.4 1.4.6-.7-.3-1.3-.5-2-.7-.5-.3-1-.4-1.5-.6zm.9 7.1c.3-.5.3-1.1.7-1.6.1-.1.1-.3 0-.4l1.8.3-.1.1c-.4.6-.7 1.3-1 2-.5-.1-.9-.3-1.4-.4zm.6.9h-1c0-.1-.1-.2-.2-.2 0-.1.1-.1.1-.2.4.1.7.2 1.1.4zm2.5-2.1c.1-.2 0-.4-.1-.5.5.1 1 .1 1.5.2-.6.6-.9 1.6-1.1 2.2-.3 0-.6-.1-.9-.1l.6-1.8zm-5.2 1.2c-.7.3-1.3.5-2 .7.3-.3.5-.6.7-.9.1-.1.1-.2.1-.2.3.2.7.3 1.2.4zm-.3 8.6c-2.2.9-4.6 1.4-7.4 1.7-1.4.2-2.9.3-4.3.3l.9-.3c.3 0 .7-.1 1-.1.1.1.3.1.4 0h.1c1.3-.2 2.6-.4 3.8-.7 1.7-.2 3.3-.3 4.6-.7.4-.1.7-.1.9-.2zm5.6 8.9c.6-.5 1.4-1 2.1-1.6-1.3 1.4-2.5 2.7-4 4-2.2 1.9-4.7 3.5-7.1 5.1.4-.4.9-.8 1.3-1.2 2.5-2.2 5.1-4.2 7.7-6.3zm-3.8 1.5l.9-.9c1.3-1.4 2.8-2.5 4.3-3.7 0 0 0 .1.1.1-1.8 1.5-3.6 3-5.3 4.5zm15.7-10.8c.1-.4.1-.9.3-1.2v-.1h.9c.1.4.2.9.4 1.2-.6.1-1.1.1-1.6.1zm5.1 9.8v-.5c0-.7-.2-1.4-.5-2.1 1.5 4.3 2 9.2 2.1 13.7-.2-1.1-.3-2.3-.4-3.4-.1-.3-.5-.2-.5.1v.1c-.4-1.6-.8-3.1-1.2-4.7.2.1.4 0 .6-.1.1.5.3 1.1.4 1.6.1.2.4.2.3 0-.2-1.6-.5-3.2-.8-4.7zm.9-2c.1-.2.3-.4.4-.6.1.1.1.2.2.3v.1c0 .1.1.3.1.4-.1.4-.2.7-.4 1.1 0 .1-.1.2-.1.3.1-.5 0-1.1-.2-1.6zm.7 3.3v-.3c.4-.2.6-.7.7-1.2.1.2.2.5.2.7-.1 0-.1.1-.1.2-.1.5-.4 1-.6 1.5-.1-.3-.1-.6-.2-.9zm.2-7c-.3 0-.7.2-.8.5-.1.4-.2.8-.1 1.2-.1.2-.2.5-.3.7-.2-.5-.4-1.1-.6-1.6.7-.9 1.3-2 1.8-3.1.2.4.4.8.7 1.2-.2.3-.5.7-.7 1.1zm-2.2 0l-.6-1.2c.9-.4 1.7-1 2.3-1.7-.6.9-1.2 1.8-1.7 2.9zm-.4-6c-.1-.1-.2-.1-.3-.2-.2-.1-.4-.4-.5-.6.2-.3.4-.7.6-1 .3.3.7.4 1.1.4-.3.6-.5 1-.9 1.4zm-.6.7c-.2.1-.4.3-.6.4l-.6.3c-.1-.1-.2-.3-.3-.5-.1-.2-.2-.5-.3-.7.3-.1.5-.2.8-.4 0 0 .1 0 .1-.1.2.5.5.8.9 1zm12.5 22.2c-.9-.9-1.7-1.8-2.6-2.7.4.2.8.3 1.2.5.2.1.3.2.5.1.9.3 1.8.4 2.7.4h.1c.4.4.9.8 1.3 1.3-.6.2-1.3.2-1.9.1-.4.1-1.1 0-1.3.3zm8.5 6.4c-2.2-1.1-4.4-2.5-6.3-4.2-.5-.5-1-.9-1.5-1.4.4.1.9.1 1.2 0 .6 0 1.3-.2 1.6-.8.6.6 1.3 1.2 1.9 1.8 1.1 1.1 5 4.5 7.9 5.4-1.5.1-2.7.3-4.8-.8zm-8.1-24c2.3 1.9 4.2 3.8 6.1 6.2 4 5.1 5.4 10.5 7.9 16.3 1 2.2-4.2-1-4.8-1.3-.9-.5-1.7-1.2-2.6-1.9.1-.1.1-.3.2-.4.1-.4.2-.8.3-1.1.2-.5-.6-.7-.8-.2-.1.3-.2.6-.3 1 0 .1 0 .2-.1.3-.4-.4-.8-.7-1.2-1.1.5-.4.7-1 1.1-1.6.3-.4-.4-.8-.7-.4-.3.5-.6 1-.8 1.6-.9-.9-1.8-1.8-2.7-2.6-4.4-3.8-7.1-9.1-10.9-13.4.1-.4.3-.8.4-1.1 1.3 1.7 3 3.2 4.3 4.5 3.8 3.7 7.5 7.6 11.8 10.8.4.3.8-.2.7-.6-1.2-5.4-4.9-9.7-9.3-13.1v-.8c0-.4.1-.9.2-1.3 0-.5-.7-.5-.7 0 0 .4-.2 1-.2 1.6-.4-.3-.7-.5-1.1-.8.1-.4.2-.8.2-1.2.1-.6.1-1.3-.4-1.8-.2-.2-.5 0-.5.3.1.8 0 1.4-.2 2.1-.4-.3-.8-.5-1.2-.8.1-.5.2-1 .3-1.3.1-.5.2-1 .2-1.6 1.9 1 3.5 2.6 4.8 3.7zm-5.9-1.6v.1c-.3-.2-.6-.4-.9-.5.3-.9.6-1.9.8-2.9 0 .1.1.1.2.1.2.1.4.2.7.4-.1 1-.5 1.9-.8 2.8zm.7 3.4h.8c.5.4 1 .7 1.4 1.1 2.5 2.1 4.1 4.8 5.8 7.4-1.7-1.5-3.3-3.1-4.9-4.7-1.1-1.1-2.5-2.4-3.8-3.8.1 0 .1-.1.1-.1.3 0 .5.1.6.1zm10.2-5.8c-2.4-.4-4.9-.9-7.2-1.6-1-.3-2.1-.7-3.2-.3-.2.1-.3.3-.4.5-.1 0-.2.1-.2.1.1-.7.1-1.4.1-2.1-.3-.1-.6-.2-.9-.2l-.3 1.8c-.2.5-.4 1-.7 1.4-.3.5-.8.7-1.2 1 .6-1.5.6-4-.3-5.4-.2-.8-.4-1.7-.8-2.5-.7-2.3-4.4-4-6.5-2.8-.4.3-.1.9.3.8 1.3-.3 2.8.2 3.9.7.4.2.7.5.9.9 0 .1.1.2.1.4.2.6.2 1.3.2 1.9 0 .8-.1 1.5-.3 2.2-.3-.1-.7-.1-1-.3-.1-.1-.1-.1-.2-.1 0-.2.1-.4.1-.6 0-.3 0-.6-.1-.9-.1-.5-.3-.9-.5-1.3-.5-.8-2-1.7-3-1.3-.2-.1-.5-.1-.7 0-.3.1-.6.2-.9.4-.1.1-.2.2-.3.4-.6.7-1 1.8-1 2.7 0 .6.3 1.8 1.1 2h.1c.2.2.5.4.8.4.8.1 1.6-.6 2-1.2.5-.7.5-1.4.2-2.2-.1-.3-.2-.6-.4-.9v-.2c1.1.3 1.9 1.6 1.6 2.7-.2.9-1 1.5-1.8 1.7-.7.2-1.4.1-2 .5-.2.1-.2.4 0 .5.2.1.4.2.5.2-.2.2-.5.8-.6 1.4-1-.1-1.9-.5-2.6-1.1-2.2-2.1-.1-4.5.3-6.7.1-.3-.4-.5-.5-.2-.8 1.4-1.6 2.4-2 4-.1.3-.1.6-.1.9-.3 1.1-.4 2.3 0 3.4-1.2-3-.9-6.1 1.1-8.7.4.1.8.1 1.3.2.3 0 .4-.2.4-.4-.2-.5-.5-.9-.9-1.3-2.3-2.2-5.7-3.7-8.4-4.9-3.9-1.6-14.5-4.3-16-4.3-.5 0-.8.6-.4 1 2.5 2.9 5.8 4.9 9.2 6.5.7.3 1.5.6 2.2.8-.1 0-.1 0-.2.1l-.3.6c-.1.2-.3.4-.4.7v.1c-2.3-.9-4.5-2.1-6.2-2.9-2.3-1.1-4.6-2.3-6.8-3.6-1.7-1-3.2-2.5-4.9-3.3 5.4-1.2 10.5-1.9 16.1-.6 5.3 1.2 10 4.2 14.7 6.6.4.2.8-.3.5-.6 0-.1-.1-.2-.2-.3-3.1-2.4-4.7-6.4-5.7-10-1.5-5.4-1.1-11.1-.4-16.5 0 0 4.1 3.8 4.5 4.2 2.5 2.9 4.3 6.4 5.4 10 1 3.1.9 6.6.9 9.9 0 1.3-.3 2.5.3 3.6.2.1.3.2.5.3.2-.1.3-.2.5-.3v-.1c3.4-4 5.2-9.1 8.7-13.1 1.2-1.4 2.4-2.6 3.8-3.7.1.2.2.4.3.5.2.3.5.6.8.8-5.1 4.4-8.4 10.6-10.7 16.8v.2c-.1.1-.1.2-.1.3-.1.3.2.6.5.6.1.1.3.2.5.1.4-.2.8-.4 1.2-.7v.1c.4.6.9 1.1 1.3 1.6.2.2.4.5.7.7-.2.1-.3.3-.5.4-.3.2-.3.7 0 .9l.1-.1c.4-.3.9-.4 1.4-.4 3.3-1 6.5-1.7 9.8-1.8.1.7.3 1.4.5 2v.2c-.9.1-1.9.2-2.8.4-1.8.2-3.6.5-5.5.8h-.4c-.4.1-.8.2-1.2.4-.4.1-.8.3-1.2.3 0 .2.1.4.1.6.1 0 .2 0 .2.1 1.2 0 2.4.2 3.6.4 1.7.3 3.4.4 5.2.6 1.1 0 2.3-.1 3.5-.1 2 0 4.1-.1 6.1-.2 1.2 0 2.3 0 3.5.1.2 0 .4-.1.5-.2h1.2c.5 0 .8-.8.3-1.1-.7-.3-1.3-.5-2-.8.3-.3.4-.9.5-1.3v-.1l4.2 1.8c.6.2 7.1 2.9 3.6 3.9-5.4 1.1-11.2 2.1-17 1.2zm6 2.4c-.2-.1-.5-.2-.7-.4-.3-.2-.5-.4-.8-.7.7 0 1.4 0 2.2-.1-.1.2-.2.4-.3.5-.2.3-.3.5-.4.7zm-28.5-13.5c-.3-4-.9-8.3-2.1-12.4l-.9-3c-.9-2.6-2-6.3-4.2-8.1-.3-.3-.9-.1-.9.4.3 7.4 3.2 17.1 7.4 23.3.2.3.8.3.7-.2zm-4-9.4c1 2.4 2 4.8 2.9 7.4.1.4.2.7.4 1-1.6-2.4-2.5-5.6-3.3-8.4zm1.3-1.3c.3 1 .5 2.1.7 3.1-1-2.7-2.4-5.4-3.2-8.2-.3-1.1-1.1-2.8-1.3-4 1.4 2.3 2.4 4.7 3.3 7.3.2.6.3 1.2.5 1.8zm-3.7-10.1zm-.5-.8h-.1c0-.1 0-.1.1 0zm-73.5 35.2zm4.1 11.1h-.1l.2-.2s-.1.1-.1.2zm-1.6.8c-.1-.1-.1-.2-.1-.2h.1v.2zm-1.2-18.5h.1-.1zm-6.9.8v0zm7.4-.3h-.2c0-.1.1-.2.1-.3.1.1.1.2.1.3.1 0 .1 0 0 0zm11-15.7s0-.1.1-.2c0 0-.1.1-.1.2zm3.1-10.5c-.1 0-.1 0 0 0v-.1.1zm-8.9 13.4s0-.1 0 0c-.1-.1-.1-.2-.1-.2.1 0 .1.1.2.1l-.1.1zm6.5 3.3c.5-.2.9-.4 1.4-.6.4-.2.8-.5 1.2-.5h.1c1.4-1 2.8-2.2 4.4-2.8 2.3-.9 4.6-1.7 6.8-2.8.4-.2.8.3.5.6-.8.9-1.8 1.4-3 1.4h-.1c-1.1.4-2.2.9-3.3 1.3-2 .7-3.5 2.4-5.5 2.9-.5.6-1.7.7-2.4.9-.2.2-.4-.2-.1-.4zm-20.5-5.7c-3.4-3.8-8.2-5.4-12.5-7.9-.4-.3-.8.2-.8.6.4 2.6 2.8 6 4.9 7.6.3.2.5.4.8.5 0 .2.2.2.3.2 1.6 1 3.3 1.8 5 2.7 1 .5 1.9 1 3 1.1.3-.2.9-.2 1.2-.3.1 0 .3-.1.4-.1.4-1.4-1.6-3.6-2.3-4.4zm-10.4-3.5c-.2-.3-.4-.5-.5-.8l.4-.4.1-.1v.1c.1.3.3.6.6.8-.3 0-.5.2-.6.4zm11.7 7.7c-.1.1-.1.1-.1.2h-.1c-2.4-.2-5.5-2.6-7.5-3.9-.1-.1-.3-.2-.4-.3v-.1c0-.1.1-.2.1-.3 0-.2.1-.4.2-.5.1-.1.2-.1.2-.2.9-.6 2.9-.1 3.9.1.6.5 1.1 1 1.6 1.5.1.1 2.5 3.1 2.1 3.5zM-107.2-55c-.1.4-.2.8-.7.8-.1 0-.3-.1-.2-.2 0-.2.1-.4.1-.6.1-.6.9-.5.8 0zm-13 22.1c-.3 0-.7 0-.9-.2-.1-.1-.1-.2 0-.3.2-.3.6-.2.9-.2.5-.1.5.7 0 .7zM-170-48c-.2.2-.2.3-.5.4-.1 0-.2-.1-.2-.2 0-.3 0-.4.2-.6.3-.4.8 0 .5.4zm48-1c-.6-.5-.5-1.4-.6-2.1-.1-.4.6-.6.7-.2.1.7.3 1.4.3 2.1-.1.3-.3.3-.4.2zm-9.7 12.2c-.1.2-.1.5-.3.7-.1.1-.3.2-.4 0-.4-.7.2-1.5.6-2.1.3-.4 1 0 .7.4-.3.4-.5.7-.6 1zm-2.8 14.8s0 .1 0 0c-.1.1-.1 0 0 0zM-161-66.8c-.1-.2.1-.4.2-.6.3-.3.7 0 .5.4-.1.1-.1.2-.2.3-.1.1-.3 0-.5-.1zm36.5-7.4c.1.1 0 .5-.2.4-.2 0-.5-.1-.7 0-.5 0-.5-.7 0-.7.3 0 .7 0 .9.3zm16.6 11.6c-.3-.4.3-.9.6-.4.2.3.1.9-.3 1-.1 0-.2-.1-.2-.1-.1-.3-.1-.4-.1-.5zm-11.9 24.1c-.2.4-.4 1.1-.9 1.3-.1 0-.2 0-.2-.1-.3-.4.2-1 .4-1.4.1-.5.9-.3.7.2zm4.8 4.4c.1.4.4.7.4 1.1 0 .1-.1.2-.2.2-.6 0-.8-.6-1-1.1-.1-.5.6-.7.8-.2zm1.6 1.2c.3.1.4.2.5.5.1.2-.1.4-.3.3-.1-.1-.2-.1-.3-.2-.5 0-.3-.7.1-.6zm.8 1.2c-.6-.4.1-1.2.6-.7.1.1.2.1.3.2.2.2.1.8-.3.7-.2 0-.4-.1-.6-.2zm-18.4 7.3c.1.1.1.3 0 .4-.1.2-.5.3-.7.1-.2-.2-.2-.4-.2-.6 0-.5.8-.5.9.1zm.8-4.6c-.1.2-.3.4-.3.6-.1.2-.1.5-.1.7v1.2c-.1.4-.7.4-.8 0-.1-.5.1-1 .2-1.5.1-.4.1-1 .5-1.3.2-.4.6 0 .5.3zm-39.3-3.2c.1-.3.2-.5.5-.6.2-.1.4 0 .5.1.3.3.1.7-.1 1-.3.6-1.2.1-.9-.5zm.7 1.6c.3 0 .5 0 .7.3.1.1.1.2 0 .2-.2.2-.4.2-.7.3-.5 0-.5-.8 0-.8zm-3-43.8c.5-.1.9.1 1 .6 0 .1-.1.3-.2.3-.3 0-.6 0-.8-.1-.3-.2-.4-.8 0-.8zm2.6 1.7c.2 0 .4 0 .6.1.2.1.2.4 0 .5-.2.1-.4.1-.6.1-.5.1-.5-.7 0-.7zM-191-60.4c-3.5-3-9-5.2-14.1-6.3 1.1-.3 2-.5 2.4-.6 1.6-.3 3.1-.7 4.6-1.1 0 0 .1-.1.2-.1.7-.2 1.3-.4 2-.6.1-.1.2-.1.2-.2.1 0 .1-.1.2-.1 1.8-.9 3.3-2.1 4.3-3.9.3-1.7.7-3.4 1.2-5.1h-.1c-3.4-.4-6.6 1.1-9.6 2.5 1.3-1.9 2-4.5 2.5-6.5.7-3.3.9-7.2-.6-10.3-.8-1.7-2.1-4.8-3.9-6.1.1-.2 0-.5-.3-.6-3.9-1.5-10.5 6.3-12.6 8.6-2.1 2.3-3.5 4.9-4.2 7.7-1.2-4.1-1.8-8.1-4.5-11.7-1.1-1.5-5-5.9-7.3-5.1-1.8.7-1.5 8.5-1.5 10 0 1.1.3 2 .7 3 .2 1.2.7 2.3 1 3.5.2.7.4 1.4.7 2.1-1.3-1.1-2.6-2-4.1-2.8-2.8-1.4-5.3-1.9-8.3-2.5-1.3-.3-3.7-1.1-5.1-.5-.2.1-.3.3-.3.5.3 3.2 2.7 6.3 4.2 9 1.9 3.4 4.4 5.8 7.8 7.6.1.1.2.1.3.2.1.1.2.1.3.2-1.5.2-2.7.8-4.1 1.7-3.2 2.1-6.9 3.2-10.4 4.8-1.8.8-6.4 5-5.7 7.5 1 .4 2.1 1.2 2.8 1.6.2.1.4.2.7.4 1.9.2 3.9-.1 5.3-.4 4.3-.8 9.3-2.4 12.8-5.2-1.2 1.8-2.3 3.8-3.1 5.4-1.2 2.3-2.1 4.7-3.1 7-.6 1.3-1.1 2.3-.8 3.8.1.3.4.5.7.3.3-.2.5-.4.8-.6.1 0 .1 0 .2-.1 3.7-2.9 7-5.7 9.7-9.6 1.1-1.5 2.1-3.1 2.8-4.9.2-.5.3-1 .5-1.6.4 1.3.4 2.7.4 4.1-.1.5-.2 1-.2 1.4v1c-.3 3.5-.2 7.1.4 10.3.8 4.3 6 7.9 9.5 10.1.2.1.4.3.6.4.3.2.6 0 .7-.3 2.1-5.4 3.8-10.6 3.2-16.4-.1-1.4-.4-2.9-.7-4.3 1.3 2.4 3 4.6 5.7 5.9 4.5 2.3 11.1 4.6 16.4 3.2 2.2.2 4.5.2 5-1 2.4-4.5-2.9-12.5-6.2-15.3zm-7.4-23.2c-.2 1.1-.5 2-.9 2.9-2 4.7-7.5 6.6-10.8 10.1-.1.1-.2.2-.3.2-.2-.7-.5-1.6-1.1-2.1 3.1-1.8 5.6-4.8 7.5-8 .3.5.7 1 1.1 1.4.2.2.4 0 .4-.2-.1-.7-.7-1.3-1.1-1.9.1-.3.3-.5.4-.8.1-.1.1-.2.1-.3.1 0 .2 0 .3-.1.2-.3.9-.1 1.2 0 .5.2.9.4 1.4.5.1 0 .2-.1.2-.2.1-.7-.8-1.2-1.7-1.4.4-.9.9-2.1 1.1-3.4.5 0 1 .3 1.6.3.1 0 .2-.1.2-.2-.1-.8-1-1-1.7-1 .1-1.1 0-2.3-.4-3.2 0-.1.1-.1.1-.2.1-.1.2-.2.4-.2.5-.2.9-.2 1.4-.3.8 2.7 1 5.4.6 8.1zm-14.2 10.2c-.4-.1-.7-.3-1.1-.4.1-.2.3-.5.4-.7h.2c.2 0 .4.1.6.1 0 .1 0 .2-.1.3 0 .2-.1.5 0 .7zm-.6-3.7c-.4-1-.2-2.1.4-2.9.2-.2-.2-.5-.3-.3-.8 1-1 2.5-.5 3.7.1.4.4.7.7 1-.5-.1-1.2-.2-1.6-.4.2-1.7.6-3.3 1.3-4.9 1.3-1.3 3-2.4 4.1-.4.1.2.5.1.4-.2-.6-1.8-2.2-2-3.6-1.4.2-.3.4-.6.6-.8.8-.5 2-.7 2.8-.8.9.9 1.4 2.5 1.5 3.7.1 1.3-.5 2.7-1 4 0-.1-.1-.2-.2-.2.6-1 1-2.3 1-3.4 0-.2-.2-.2-.3-.1-.7 1.3-.9 2.9-1.8 4.1-.4.3-.8.6-1.2.8-1.2-.2-1.9-.4-2.3-1.5zm-1.3 6c-.3.5-.4 1-.6 1.5-.2.5-.4 1-.5 1.5-.1-.2-.2-.5-.3-.7 0-.1-.1-.3-.2-.4.1-.3.2-.6.4-.9.1-.3.3-.5.4-.8.3-.1.6-.1.8-.2zm9.4-10.6c0 .4 0 .8-.1 1.1v.1c0 .1-.1.2-.2.2-.5.8-1.1 1.6-1.7 2.3.4-.7.6-1.7.6-2.6.4-.8.6-1.6.9-2.5 0-.1.1-.3.1-.4.3.3.5.7.5 1.2v.1c-.1.1-.1.3-.1.5zm-1.6.1v-.1c-.1-1.1-.5-2.1-1.2-2.8.7.1 1.3.3 1.9.7-.2.7-.5 1.4-.7 2.2zm-1-5.2h-.4c.5-.4 1-.8 1.5-1-.2.4-.6.8-1.1 1zm-2.2 11.8c-.2.1-.3.3-.5.4-.5.4-1 .8-1.5 1.1 0-.3 0-.6-.1-.9.8-.1 1.5-.3 2.1-.6zm8.5-15.5c.1 0 .1 0 .2-.1.2 1 .2 2 .1 3-.2 0-.3.1-.5.1.1-.8.1-1.5.2-2.3.1-.2.1-.4 0-.7zm.2 3.9c-.1.8-.5 1.5-.6 2.3-.3.2-.6.7-.6 1h-.2c.4-1 .7-2.1.9-3.2.2 0 .4-.1.5-.1zm-29.4-1.4c-.9-3.5-.2-6.7.3-10.6.1-.7 4.3 2.6 3.9 2.3 2.2 1.9 3.5 4.3 4.5 6.9.3.8.6 1.8.8 2.7.3 1 .6 2.1.9 3.2.2.7.5 1.3.8 1.9-.5 2.8-.5 5.7.1 8.6.1.3.5.2.5-.1-.3-6.3.8-11.7 4.8-16.9 1.4-1.8 3.2-3.2 4.8-4.8.9-.9 4-3.4 6-3.7 0 .1.1.2.2.3 1.5 1 2.5 3.3 3.5 4.8.1.2.2.5.3.8-.5-.1-1.2.1-1.5.2-.3.1-.5.3-.8.5-.4-2-1.2-4.3-2.5-4.3.7 0 .7-1.1 0-1.1h-.1c-.4 0-.7.5-.5.8 1 1.7 1.6 3.4 1.9 5.2-3.6.9-7.8 3.7-9.8 6.5-2.8 3.8-3.8 8.2-3.2 12.8v.2c-.1.1-.2.2-.3.4-.1.1-.2.1-.3.2-.2.1-.1.3 0 .4-.1.2-.2.4-.3.7-.6-.5-1.3-.9-2.2-1.1-.3-.1-.4.4-.1.4.8.2 1.4.6 1.8 1.2-.1 0-.1.1-.1.2-.4.1-.8.3-1.2.6-.3.2-.6.3-.9.5l-.1-.1c-.2-.3-.7-1-1.2-1.5 0-.1.1-.2.1-.3.1-.2.2-.4.3-.7.2-.1.3-.1.5-.2.1-.1.1-.3-.1-.3h-.3c.1-.6.2-1.2.6-1.7.2-.3-.3-.6-.5-.3-.4.5-.7 1.3-.8 2h-1.3l.9-2.1c.4-.9.8-1.8 1.1-2.7.1-.4-.5-.6-.6-.2-.4 1.1-.9 2.1-1.5 3.1-.3.5-.7 1.2-.7 1.8-.2-.4-.3-.8-.5-1.1.5-1 .9-2.1 1.3-3.2.3-.7.5-1.3.6-2 .6-1.3.1-3.4-.3-4.6-.6-1.6-1.7-3.1-2.6-4.5-1.2-1.9-2.3-4.8-2.8-7-.2-.6-1.1-.5-1.1.2.1 3.5.4 7.3 1.6 10.6.2.7.6 1.6 1.1 2.5 0 0 0 .1-.1.1-.4.4-.6.9-.7 1.4-.1.3-.2.7-.2 1-1.2-1.5-1.9-3.5-2.6-5.2-.7-1.5-1.4-3.2-1.4-4.7zm11.6 20.2c.2-.1.5-.2.7-.4.4-.2.8-.5 1.2-.8.4.6.4 1.5.3 2.2-.1.3-.4.5-.6.8-.4-.5-1.1-.8-1.6-1.2h-.1c0-.1.1-.2.1-.3v-.3zm-6.6-10.5c.2-.4.2-.8.3-1.2 0-.2 0-.4.1-.6.2.3.4.7.7 1-.3.4-.4.9-.5 1.4-.1.4-.3.9-.3 1.4-.1-.2-.2-.3-.3-.5-.1-.2-.2-.5-.3-.7-.1 0-.1-.1-.1-.2.2-.3.3-.6.4-1-.1.2 0 .3 0 .4zm-.8-7.6c-.2-.6-.3-1.3-.4-1.9l.6-.3c.4.7.7 1.4 1.2 2.1-.4-.2-.9-.1-1.4.1zm1.8 10.1c.2-.3.3-.9.4-1.2.1-.3.2-.5.3-.8.1.1.2.2.3.2.1.2.2.3.3.4.1.2.4.2.6.1h.1c-.5.9-1.1 2.1-1.2 3.2-.3-.5-.5-1-.8-1.5-.1-.1 0-.3 0-.4zm-26 19.7c-1.3.3-2.5.4-3.6.3-.1 0-.2 0-.3.1h-.1c.6-.8 1.5-1.3 2.2-1.9.6-.5 1.3-.8 2.1-1.1.1.1.3.1.5 0 0 0 .1 0 .1-.1-.4.9-.8 1.9-.9 2.7zm3.6-1c-1 .3-2 .6-2.9.9.3-1.2 1.2-2.1 1.8-3.1.6-.2 1.2-.5 1.8-.7-.5.8-.6 2-.7 2.9zm5.1-5.6c1.8-.4 3.7-.7 5.4-1.4.3-.1.6-.3 1-.4 0 .1.1.2.3.3-1.2.5-2.4 1-3.7 1.4-.9.3-1.8.5-2.7.7 0-.3-.1-.4-.3-.6zm13.1 7c-1.2 2.4-2.9 4.4-4.8 6.2.6-.7 1.2-1.4 1.7-2.1 1-1.2 2.3-2.9 3.2-4.6 0 .1 0 .3-.1.5zm3.2-6.9c-.7 0-1.2.3-1.7.7-1.2 2.5-2.2 5-3.6 7.4-2 3.4-5.3 6.5-7.9 9.4-1 1.1-.9.3-.5-.8 0-1.2 1.1-3.6 1.4-4.3 1-2.4 2.3-4.8 3.9-6.8.4-.7.9-1.3 1.3-2 1.2-1.7 2.8-3.1 4.3-4.6-.1-.1-.3-.2-.5-.1-.7.3-1.3.6-1.9 1.1-.1-.1-.2-.1-.3-.1-4 .8-7.6 2.9-11.5 4.1-1.1.3-2.4.8-3.7 1.3.1-.4.2-.9.3-1.3.2-.7.6-1.2 1-1.8 2.8-.8 5.8-1.2 8.5-2.2 2.7-1 5.3-2.2 8-3.3.3 0 .7-.1 1.1-.1.3 0 .6-.2.7-.4l.1-.1.1-.1v-.1c.2-.1.3-.1.5-.2s.3-.4.1-.5c-2.5-1.5-6.1.2-8.4 1.3-3.6 1.7-7.6 2.2-11.1 3.7-.1 0-.3.1-.4.1-.2.1-.4.2-.7.3-1.4.7-2.6 1.5-3.8 2.7v.1c-.8.2-1.5.6-2.3 1.1-.8.5-1.6 1.1-2.2 1.8.4-3.4 6.6-6.3 8.7-7.2 4-1.6 7.5-4 11.6-5.3 0-.1.1-.2.1-.2.2-.2.2-.5.1-.8-.1-.2-.3-.3-.5-.4-1-1.2-2.1-1.9-3.5-2.8-2.5-1.7-3.5-3.9-4.8-6.4-.9-1.6-4.7-6.8-.5-6.3 2.6.3 5.1 1 7.4 2-.1 0-.2.1-.2.3.1.4.2.8.4 1.3.1.4.2.8.5 1.1.1.1.2 0 .3-.1.1-.4 0-.8-.2-1.2-.2-.4-.3-.8-.4-1.2v-.1c2.8 1.2 5.3 2.9 7.5 5 .4.5.7 1 1.2 1.3h.1c.4.5.8.9 1.1 1.4 0 .1.1.2.1.2 0 .1.1.1.1.1.8 1.3 1.6 2.6 2.2 4.1-.1.1-.3.1-.4.2-.8.6-1.5 1.7-1 2.7.1.2.4.1.4-.1.4-1 1-1.8 2-2.1.6-.2 1.2-.2 1.7-.3-.1.1-.1.2-.2.3 0 .1-.1.1-.1.2-.2-.1-.5-.1-.7.1-.2.2.1.5.3.4h.2c-.8.6-.8 1.8-.8 2.7 0 .3.3.6.6.6.6 0 1.3 0 1.9-.3.1 0 .2-.1.2-.1.1.1.3.2.4.3.4.3.7.6 1.1.8l.1.1c-.1.1-.2.2-.3.2-.1.1-.1.2-.1.3-1 .5-2.2.5-3.4.4-.7-.4-1.4-.9-2.3-1.2-.1-.1-.3.1-.2.2.1.4.3.7.6.9-.1-.1-.3-.2-.4 0-.3.3-.5.8-.7 1.2-.1.2-.2.4-.3.5-.2.6-.3.9-.7.9zm5.6 18.9c-.2-.5-.4-1.1-.6-1.8.4.3.8.5 1.3.6 1 .1 2.1-.3 2.5-1.2.1-.2-.1-.4-.3-.3-.6.2-1.1.6-1.8.7-.8.1-1.5-.3-2-.9-.2-1.2-.4-2.4-.5-3.5.1-.9.2-1.8 1.1-2.3.3-.2 0-.6-.3-.4-.4.2-.8.6-1 1 0-.5-.1-1-.1-1.5.5-.4.9-1 1.3-1.6.3-.1.6-.2.9-.1.6.1 1.3.4 1.9.5h.1c1.8 4.6 2.8 10.2-2.5 10.8zm4.5-.7c-.1.4-.2.9-.3 1.4-.1-.1-.3-.1-.4-.1.2-.4.4-.8.7-1.3zm-.8 3.2c-.2.6-.4 1.1-.6 1.4 0-.5 0-1 .1-1.4.2.2.4.2.5 0zm-2.9-14.8c0-.2-.1-.4-.4-.3-.2.1-.4.2-.7.4-.3.1-.6.2-.9.4.1-.2.2-.3.2-.5.4-.9.7-1.3 1.7-1.6h.1c.2 0 .5.1.7.3.3.7.6 1.4.8 2.1-.4-.2-.9-.6-1.5-.8zm-4.4-8.6c.3.3.6.5 1 .7l-.1.1c-.2.7-.5 1.3-1 1.8l-.1.1h-.1c-.1-.2-.2-.3-.5-.6.1-.2.3-.5.4-.8.2-.3.4-.8.4-1.3zm-.7 12.3c.1-.6.1-1.2.2-1.8.2-2.1.4-4.3.3-6.3.4-.2.9-.7 1.1-1 .6-.7.9-1.6.6-2.4h.1c.4.2.8.5 1.2.8h.1c-.1.1-.1.2-.1.3v.1l-.1.1c-1.7 3.4-2 7-1.8 10.7-.1 2 0 3.9.3 5.8-.1 0-.1 0-.2.1-.2.2-1 .6-1.5 1.1-.5-2.4-.4-4.9-.2-7.5zm.4 9.2c-.1-.2-.1-.4-.1-.6.2-.2.5-.4.6-.5.3-.3.8-.5 1.1-.8.2.8.5 1.6.8 2.4-.6.6-1.3 1.4-1.2 2.2-.5-.9-.9-1.8-1.2-2.7zm3 4.8c-.5-.6-1-1.1-1.5-1.7.1 0 .1 0 .2-.1.3-.3.5-.7.7-1.1.2-.3.3-.5.5-.7.3.6.7 1.2 1.2 1.7-.1 0-.2.1-.2.2-.2.5-.4.9-.7 1.3-.1.2-.2.3-.2.4zm33.4-7.3h-1.9c.1-1-.5-2.1-1.1-3 .9.2 1.7.4 2.6.7.4.1.7-.3.6-.6-2.6-10.3-13.4-15.4-23.2-17.1-.6 0-1.3 0-1.9.3-.2 3.5 1.9 8.2 4.7 10.3 2.4 1.8 4.9 3.5 7.8 4.4 2.8.9 5.7 1.2 8.6 1.9.3.6.5 1.2.7 1.8.2.4.3.9.4 1.3-.7 0-1.4 0-2.1-.1.2-.9-.4-2.4-.5-2.9-.1-.5-.8-.3-.7.2.1.8.4 1.5.4 2.3v.3c-4.2-.3-8.5-1.3-12.1-3.2-3.2-1.7-5-4.2-6.6-7-1-2.5-1.9-5-3.6-6.6-.1-.2-.2-.3-.3-.5-.1-.1-.1-.1-.2-.1-.1.5 0 1.2.2 1.7.4 1.2 1.1 2.4 1.5 3.6.8 2.4 1.3 4.9 1.6 7.4.6 3.6.3 6.8-.6 10.3-.1.6-2.1 6.8-2.7 6.1-1.1-1.3-2.8-2.1-4.1-3.3l-.6-.6c.2-.3.3-.5.4-.8.2-.4.4-.8.5-1.2.7.8 1.6 1.5 2.6 2.1.3.2.6 0 .7-.3 1-2.7 1.4-5.3 1.5-7.7 0 0 0-.1.1-.1v-1c0-.5 0-1-.1-1.5v-.1c0-1.7-.4-3.2-.9-4.7-.5-1.7-1.1-3.4-1.9-5.2-.5-1.5-1-3.2-2-4.3.9-.1 1.9-.6 2.5-.9 1.1-.6 1.7-2.1 1.7-3.5.1.1.2.1.3 0 .4-.6.4-1.5.7-2.2.3-.7.3-1.5.6-2.2.2-.1.4-.2.7-.3.1.5 0 1.1 0 1.6 0 .6-.1 1.6.5 2 .2.1.5 0 .6-.2.1-.4-.1-.8-.1-1.2 0-.4 0-.8-.1-1.2-.1-.4-.1-.9-.2-1.4.1-.1.3-.1.4-.2 0 0 0 .1.1.1.7.5.6 1.4 1.1 2-.2.1-.4.3-.6.4.2.5.8.5 1.4.5 1.6-1.2 3.2-2.4 4.9-3.2 1.9-1.4 4.2-2.3 6.4-3.3 2.3-1 4.6-2 7.1-2.3h.2c.1.1.1.2.1.3h.2c-1.5 3.2-5.8 5.3-8.7 6.9-3.7 2-7.5 1.7-11.5 2.4-.1 0-.1.1-.2.1-.3 0-.6.3-.5.7l.3.6c4.3 0 9 1.7 12.9 3.2 2.3.9 4.3 2.1 6 3.7 1.9 1.5 3.2 3.4 4.6 5.6 1.5 2 4.8 9.1.8 9.2zm-3.5-8.1c1 1.5 1.8 3 2.4 4.6-.1-.3-1.2-.5-2.5-.8.4-1.3.4-2.6.1-3.8zm-8.9-3.7c0 1.2-.7 2-1.8 2.4-.3.1-.5.1-.8.1-1-.5-1.9-.8-2.7-1.7-.8-.9-1.1-2.1-1.4-3.3 0-.1-.2-.1-.2 0-.2 1 .2 2.3.8 3.3-.4 0-.8 0-1.1-.3v-.2c-.2-.3-.4-.7-.6-1v-.2c-.2-.7-.2-1.4-.2-2.2.4-1 1.4-1.5 2.4-1.7.2 0 .2-.2.2-.3.2-.1.4-.2.6-.2.2 0 .2-.1.2-.2 1.4.4 2.9.9 4.3 1.5 1 .5 1.9 1.2 2.6 2.1-.3-.2-.6-.3-1-.3-.3 0-.2.5.1.5 1.2-.1 1.1 1.9 1 2.7 0 .7-.5 1.3-.9 1.9-.7.9-1.9.7-2.8 1.1-.2.1-.2.3 0 .4 2.2.9 4.6-.9 4.6-3.3 0-.7-.1-1.6-.4-2.2.3.5.5.9.8 1.4.2 1.3.5 2.8-.4 3.9-.3.4-.8.8-1.3 1.1-.8 0-1.5-.1-2.3-.3-.6-.2-1.2-.4-1.9-.7 0-.3-.1-.6-.1-.9.4 0 .8-.1 1.2-.2 1.3-.5 1.9-1.8 1.9-3.1-.3-.4-.8-.4-.8-.1zm-3.1 3.9c-.3-.1-.6-.3-.9-.5.1-.1.1-.3.1-.4.2.1.4.2.7.2 0 .3.1.5.1.7zm-1.4-1.4c-.1.1-.2.3-.2.4-.2-.2-.4-.3-.7-.5-.3-.2-.5-.4-.7-.7.2 0 .4-.1.6-.2.3.5.6.8 1 1zm-3.9-6.2s0 .1-.1.1v-.3c.1-.4.3-.7.6-1 .2-.2.5-.4.7-.5.1-.1.2-.1.3-.2.2 0 .5.1.7.1.2 0 .4.1.6.1 0 0-.1 0-.1.1-.1.1-.2.1-.2.1-.9.3-2 .7-2.5 1.5zm-8.7 14.3c-.1.2-.5.1-.5-.1.1-2.7.5-5.7-2.6-7-.3-.1-.2-.6.1-.5 3 1 4.7 4.8 3 7.6zm.9-37.5c-.2-.9.5-1.5.9-2.3.2-.4.9-.2.7.2-.2.4-.5.8-.6 1.2-.2.4-.2.9-.6 1.1-.2 0-.4-.1-.4-.2zm2.3-.7c-.1-.4.2-.7.2-1.1 0-.6.9-.6.9 0 0 .5-.2 1.3-.9 1.2-.1 0-.2 0-.2-.1zm3.1-6.3c.5-.6 1.2-.9 1.9-.8.4.1.3.6 0 .7-.5.1-.9.5-1.3.8-.5.4-.9-.3-.6-.7zm2.1.8c.1-.6.9-.6 1.2-1.1.3-.3.8.1.6.4-.4.5-1 .8-1.6.9-.1.1-.2-.1-.2-.2zm4.9 40.1c.5.3 1 .6 1.6.8.4.2.9.3 1.3.5.1.1.2.3 0 .4-1.1.5-2.3-.5-3.2-1-.5-.3-.1-1 .3-.7zm6.1 1.3c.2.1.4 0 .6.1.3 0 .4.3.2.6-.3.4-.8.4-1.2.2-.5-.3-.2-1.1.4-.9zm-44.3-29.5c-.3.5-1-.1-.6-.4.4-.4.8 0 .6.4zm1.9 2c0 .1 0 .3-.1.3-.3.1-.5-.1-.8-.1-.5 0-.5-.8 0-.8.4 0 .7.2.9.6zm1.2 2.5c-.6.2-.6-.8 0-.7.6.1.6.5 0 .7zm4.5-7c-.1-.4.5-.6.7-.2.1.4.3.8.4 1.1.1.2-.1.5-.3.3-.4-.2-.6-.6-.8-1.2zm2 25c0 .5-.3.8-.5 1.3-.1.2-.2.3-.2.5-.1.2-.3.1-.3.4-.2.7-.6 1.4-1.1 1.9-.1.1-.2.1-.3 0 .5-1.1 1-2.3 1.5-3.5.2-.3.3-.7.8-.7 0 0 .1 0 .1.1zm-.2-.8c.3-.5.6-.8 1.2-.9.1 0 .2.1.2.2-.2.5-.5.8-.9 1.1-.3.2-.6-.2-.5-.4zm1.7-1.4c.1-.4.5-1 .9-.7.1.1.1.2 0 .3-.2.2-.3.3-.5.6-.1.2-.6.1-.4-.2z"/></svg>