<svg id="Layer_1" xmlns="http://www.w3.org/2000/svg" viewBox="0 0 303.3 112"><style>.st0{opacity:.5}.st1{fill:#c5cb79}</style><g id="XMLID_4744_" class="st0"><g id="XMLID_4688_"><g id="XMLID_57_"><path id="XMLID_61_" class="st1" d="M5.5 102.8c17.8-40.1 52.9-71 95.2-83 46.7-13.2 94.1-1.4 134 24.6 23.3 15.2 43.8 34.2 63.2 54-.8-.8.5-3.9 0-5-9.7-22.3-15.8-46-18.1-70.2.2 1.6-.2 3.3 0 5 2.2 24.3 8.3 47.9 18.1 70.2v-5C264.1 59.1 225.7 25.9 178 13.8c-44.7-11.4-93.6-1-129.5 28C30 56.8 15.2 76 5.6 97.8c-.7 1.4.5 3.6-.1 5z"/></g></g><g id="XMLID_4695_"><g id="XMLID_52_"><path id="XMLID_56_" class="st1" d="M298.2 96.2C263.3 79 224.8 64 186.2 78.4c.9-.3 2-.4 2.9-.8 35.7-13.3 74.3 3.6 106.2 19.3.7.5 2.2-1 2.9-.7z"/></g></g></g></svg>