<svg id="Layer_1" xmlns="http://www.w3.org/2000/svg" viewBox="0 0 478.7 228"><style>.st0{opacity:.5}.st1{fill:#c5cb79}</style><g id="XMLID_4766_" class="st0"><g id="XMLID_4751_"><g id="XMLID_145_"><path id="XMLID_149_" class="st1" d="M467 18.1c-35.1 47.6-84.8 82.5-138.9 105.5-61.7 26.2-129.2 38.2-195.7 43.7-40.1 3.3-81.6 4.1-120.9-5-2.9-.7-7.2-1.1-9.5-1.6 68.1 15.7 138.1 11.2 206.5.2 67.4-10.9 134.4-30.9 191.6-69 29.4-19.6 55.8-43.7 76.8-72.2-.9 1.2-9-2.9-9.9-1.6z"/></g></g><g id="XMLID_4758_"><g id="XMLID_85_"><path id="XMLID_143_" class="st1" d="M4 164.1c35.7-1.8 68-19.9 92-45.9-2.2 2.4-5.5 3.9-7.7 6.4-2.8 3.1-5.8 6-8.9 8.8 3.1-2.8-.5.3-1.2.9-2.1 1.5-4.2 3-6.4 4.4-5.8 3.7-11.9 6.9-18.3 9.6-13.2 5.6-27.3 8.8-41.7 9.5-2.8 0-5.1 6.1-7.8 6.3z"/></g></g><g id="XMLID_4765_"><g id="XMLID_78_"><path id="XMLID_83_" class="st1" d="M9.2 167.1c10.3-.9 20.7 7.8 26.9 15.1 8 9.3 12.9 20.6 17.7 31.7-1.3-3-1.3-6.6-2.6-9.6-4.8-11.1-9.7-22.5-17.7-31.7-6.2-7.3-16.6-16-26.9-15.1.4-.1 1.9 9.7 2.6 9.6z"/></g></g></g></svg>