<svg id="svg2" xmlns="http://www.w3.org/2000/svg" viewBox="-283 195 392 171"><style>.st0{fill:#fff}.st1{fill:#e2001a}.st2{fill:#b70718}</style><path class="st0" d="M-87 237.2c-110.1 0-196 28.8-196 64.4S-197.1 366-87 366s196-28.8 196-64.4-85.9-64.4-196-64.4zm0 126.5c-104.3 0-188.8-27.8-188.8-62.1s84.5-62.1 188.8-62.1 188.8 27.8 188.8 62.1S17.3 363.7-87 363.7z"/><g id="g8523" transform="translate(431.26 819.286)"><path id="path8525" class="st0" d="M-518.4-553.9c-.5 1-1.1 2-2.1 2.8-1.6 1.3-3.6 1.9-5.9 1.5-1.7-.2-3.8-1.1-5.4-2.4-1.3-1-2.1-1.1-2.7-.7-.8.5-1.7.5-2.5.1-2.8-1.6-5.7-3.9-6.9-5.4-1-1.3-2.1-2.2-2.8-2.4-.8-.3-1.4-.3-2.1-.2-1.2 0-2.6 0-4.8-1.1-3-1.5-3.9-3.2-4.5-4.6-.4-.8-.5-3-1.5-3.8-3.2-2.5-4.9-5.9-4.1-10.6.1-.6-.1-1.1-.2-1.4-.1-.2-.3-.5-.3-.5-.1-.3-.2-.6-.2-.8 0-.6.3-1.1.7-1.4.9-.6 2.2-.2 3.3.4.8.4.4 0 .2-.4-.3-.3-.5-.6-.7-1-.8-1.2-1.1-2.5-1.3-3.7-.2-.9-.4-1.7-.7-2.5-.2-.4-.3-.8-.3-1.1 0-.7.3-1.1.6-1.3.6-.5 1.3-.5 1.9-.3-.2-.3-.3-.5-.5-.9-.5-1.3-.8-2.7-.8-4.3 0-1.3.2-2.6.5-3.9.3-1.1 1-1.4 1.4-1.4.4-.1 1.2-.1 1.9.8.1.2.3.4.4.6v-1.3c.1-1.9.5-3.7 1.2-5.4.3-.7.8-1.8 2.1-1.8 1.3.1 1.7 1.3 1.9 1.9.1.3.2.7.3 1.1.4-.9.8-1.7 1.4-2.4 1.6-2 3.1-2.8 4.3-3.3l.3-.2c1.2-.6 1.9-.3 2.4 0 .4.3.7.8.7 1.6 0 .2 0 .4-.1.6-.2.7-.4 1.5-.8 2.4.6-.3 1.1-.1 1.4 0 .4.2 1.1.7 1.1 1.9 0 .2 0 .4-.1.6-.2 1.4-.6 3.8-2.4 5.9.2 0 .4.1.6.2.8.5.9 1.2.9 1.7v.3c0 .6-.2 1.5-.5 2.4-.1.3.2.4.4.2.7-.7 1.7-.7 1.8-.7 2.1.1 4.7-.8 5.6-1.2.7-.3 1.5-.2 2-.1 0 0 .7.2.9.3.5-.3.9-.7 1.3-1-.5-.2-1-.5-1.4-.8-.9-.7-1-1.5-1-1.9l-.1-.7-.1-1.3c0-.1.1-.3.1-.4-.5-.8-1-1.5-1.6-2.3-.5-.7-1.2-1.3-1.8-2l-.1-.1c-1.1.2-2.4-.2-3.4-1-.5-.4-.8-.8-1.1-1.3-.4-.7-.6-1.5-.5-2.2.1-.7.3-1.3.8-1.8.3-.4.8-.7 1.2-.9.8-.3 1.7-.3 2.5 0 .2.1.4.2.5.2.3-.7.8-1.3 1.5-1.7l.7-.3c.5-.1 1-.1 1.5 0 0-.3 0-.5.1-.7.3-1.5 1.2-2.6 2.5-3 1.6-.5 3.4.5 4.4 2.1.6-.7 1.5-1.1 2.4-1.1.6 0 1.1.2 1.6.4.4-2.1 1.9-3.7 3.8-3.7s3.5 1.5 3.8 3.7c.5-.3 1-.4 1.6-.4.9 0 1.8.4 2.4 1.1 1-1.7 2.7-2.6 4.4-2.1 1.3.4 2.2 1.5 2.5 3 .1.2.1.5.1.7.5-.1 1-.1 1.5 0l.7.3c.7.4 1.2 1 1.5 1.7.2-.1.3-.2.5-.2.9-.3 1.8-.3 2.5 0 .5.2.9.5 1.2.9.4.5.7 1.1.8 1.8.1.7-.1 1.5-.5 2.2-.3.5-.6 1-1.1 1.3-1 .8-2.2 1.2-3.4 1l-.1.1c-.7.6-1.3 1.3-1.8 2-.6.7-1.1 1.5-1.6 2.3 0 .1.1.3.1.4l-.1 1.3-.1.7c0 .5-.2 1.3-1 1.9-.4.3-.8.5-1.4.8.4.4.9.7 1.4 1 .2-.1.9-.3.9-.3.5-.1 1.3-.2 2 .1 1 .4 3.5 1.3 5.6 1.2.1 0 1.1 0 1.8.7.2.2.4.1.4-.2-.3-1-.4-1.8-.5-2.4v-.3c0-.5.1-1.3.9-1.7.2-.1.4-.2.6-.2-1.7-2.2-2.2-4.5-2.4-5.9 0-.2-.1-.4-.1-.6 0-1.2.7-1.7 1.1-1.9.3-.1.8-.2 1.4 0-.4-.9-.7-1.6-.8-2.4-.1-.2-.1-.5-.1-.6 0-.8.4-1.3.7-1.6.4-.3 1.2-.6 2.4 0l.3.2c1.1.6 2.7 1.4 4.3 3.3.6.7 1 1.5 1.4 2.4.1-.4.2-.7.3-1.1.2-.6.6-1.8 1.9-1.9 1.3-.1 1.8 1.1 2.1 1.8.7 1.7 1.1 3.5 1.2 5.4v1.3c.2-.2.3-.4.4-.6.7-.9 1.5-.9 1.9-.8.4.1 1.1.4 1.4 1.4.4 1.3.6 2.6.6 3.9 0 1.5-.3 3-.8 4.3-.1.3-.3.6-.5.9.6-.2 1.3-.2 1.9.3.3.2.6.7.6 1.3 0 .3-.1.7-.3 1.1-.4.8-.6 1.6-.7 2.5-.3 1.2-.6 2.4-1.3 3.7-.3.4-.5.7-.7 1-.3.3-.6.8.2.4 1.1-.6 2.5-1 3.3-.4.4.3.7.8.7 1.4 0 .3-.1.5-.2.8 0 0-.2.3-.3.5-.1.2-.3.7-.2 1.4.8 4.7-.9 8.1-4.1 10.6-1 .7-1.1 2.9-1.5 3.8-.6 1.4-1.6 3.1-4.5 4.6-2.1 1.1-3.6 1.1-4.8 1.1-.8 0-1.3 0-2.1.2-.7.2-1.8 1.1-2.8 2.4-1.2 1.5-4.1 3.9-6.9 5.4-.8.4-1.7.5-2.5-.1-.6-.4-1.4-.3-2.7.7-1.6 1.3-3.7 2.1-5.4 2.4-2.3.3-4.3-.2-5.9-1.5-.8-.9-1.5-1.8-1.9-2.8"/></g><g id="g8539" transform="translate(430.14 822.877)"><path id="path8541" class="st0" d="M-536.1-617.7c.7.6.9 1.6.4 2.1-.1.2-.3.3-.5.3.5-.6.3-1.5-.5-2.1-.5-.5-1.2-.6-1.7-.5.6-.5 1.6-.4 2.3.2"/></g><g id="g8543" transform="translate(430.387 822.941)"><path id="path8545" class="st0" d="M-532.2-618.9c.1-.1.1-.3.1-.4 0-.4-.3-.7-.8-.7s-.8.3-.8.7c0 .2.1.3.1.4.1.2.4.3.6.3.4 0 .7-.1.8-.3"/></g><g id="g8547" transform="translate(430.611 823.162)"><path id="path8549" class="st0" d="M-528.7-622.8c-.3-.2-.7-.3-1.1-.2-.1 0-.3.1-.4.2l-.2.2c0-.1 0-.1.1-.2.2-.5.5-.8.9-.9.6-.2 1.4.2 1.8.9.1.2.2.4.3.7.2.5.1 1 0 1.5l-.3.6c.1-.2.1-.4.1-.6 0-.2 0-.5-.1-.7-.3-.7-.6-1.2-1.1-1.5z"/></g><g id="g8551" transform="translate(432.239 822.941)"><path id="path8553" class="st0" d="M-503-618.9c.1-.1.1-.2.1-.3 0-.4-.3-.7-.8-.7-.4 0-.7.3-.7.7 0 .1 0 .2.1.3.1.2.4.4.7.4.2 0 .5-.1.6-.4"/></g><g id="g8555" transform="translate(431.587 823.162)"><path id="path8557" class="st0" d="M-513.3-622.8c.1 0 .2-.1.3-.1.1 0 .2 0 .3.1.3.1.5.4.5.7 0 .4-.3.7-.8.7s-.8-.3-.8-.7c0-.3.2-.6.5-.7"/></g><g id="g8559" transform="translate(431.98 823.036)"><path id="path8561" class="st0" d="M-507.1-620.6c.1-.2.2-.4.3-.7.2-.5.2-1 .1-1.4-.2-.5-.5-.9-.9-1-.6-.2-1.2.2-1.7.8.3-.2.7-.2 1-.1.2.1.4.2.6.4.4.5.6 1.3.4 2.1 0 .1 0 .2-.1.3 0 .1 0 .1-.1.2.2-.2.3-.4.4-.6z"/></g><g id="g8563" transform="translate(431.35 823.162)"><path id="path8565" class="st0" d="M-517-622.8c.1-.2.1-.4.1-.7 0-1.2-.7-2.2-1.6-2.2-.5 0-1 .3-1.3.9.2-.1.5-.2.7-.2.9 0 1.7 1 1.8 2.3v.2c0 .2 0 .5-.1.7.2-.3.3-.7.4-1"/></g><g id="g8567" transform="translate(432.507 822.783)"><path id="path8569" class="st0" d="M-498.8-616.1c.3-.4.4-.9.3-1.3-.1-.2-.1-.3-.2-.4-.5-.5-1.4-.5-2.1 0 .5-.1 1.1 0 1.4.3.3.4.3.9.1 1.3-.1.3-.3.5-.6.8l-.1.1c.3-.1.6-.2.9-.5.1 0 .2-.1.3-.3z"/></g><g id="g8571" transform="translate(430.978 823.162)"><path id="path8573" class="st0" d="M-522.9-622.8c-.1-.1-.2-.1-.4-.1-.1 0-.3 0-.4.1-.2.1-.4.4-.4.6 0 .4.3.7.8.7.4 0 .7-.3.7-.7.1-.2-.1-.5-.3-.6"/></g><g id="g8611" transform="translate(432.137 822.642)"><path id="path8613" class="st0" d="M-504.6-613.6c-3-1.4-8-2.5-13.6-2.5-7.2 0-12 1.8-14.8 3.8 3.1-1.5 7.4-2.6 13.2-2.6 5.9 0 11 1.2 14 2.7.4-.5.8-.9 1.2-1.4"/></g><g id="g8631" transform="translate(433.142 820.589)"><path id="path8633" class="st0" d="M-488.8-577.1c.2.7-.6.7-1 .9-.4.2-.8.9-1 .8-.4-.1-.4-1.5.9-2.1.7-.2 1.1.1 1.1.4"/></g><g id="g8635" transform="translate(432.6 819.826)"><path id="path8637" class="st0" d="M-497.3-563.5c.8.1 1.3.8 1 1.2-.3.4-.8-.3-1.3-.3s-.9.3-1.2-.1c-.3-.4.5-.9 1.5-.8"/></g><g id="g8643" transform="translate(429.272 822.061)"><path id="path8645" class="st0" d="M-549.8-603.2c-.7-.5-1.9-.8-1.9 0 0 .6.7.3 1.2.7.5.4.7 1.2 1.3 1 .5-.2 0-1.3-.6-1.7"/></g><g id="g8647" transform="translate(429.285 821.402)"><path id="path8649" class="st0" d="M-549.6-591.5c-.4-.9-1.5-.9-1.6-.6-.1.3.4.5.7 1 .3.6.2 1.1.4 1.2.3.1 1-.6.5-1.6"/></g><g id="g8651" transform="translate(428.9 820.793)"><path id="path8653" class="st0" d="M-555.7-580.7c.4.3.8.1 1-.3.2-.4.9-.2 1-.3.2-.5-1.2-1.1-1.9-.4-.2.3-.3.8-.1 1"/></g><g id="g8655" transform="translate(429.38 820.589)"><path id="path8657" class="st0" d="M-548.1-577.1c-.2.7.6.7 1 .9.4.2.8.9.9.8.4-.1.4-1.5-.9-2.1-.6-.2-.9.1-1 .4"/></g><g id="g8659" transform="translate(429.922 819.826)"><path id="path8661" class="st0" d="M-539.6-563.5c-.8.1-1.3.8-1 1.2.3.4.8-.3 1.3-.3s.9.3 1.2-.1c.3-.4-.5-.9-1.5-.8"/></g><g id="g8675" transform="translate(430.357 820.175)"><path id="path8677" class="st1" d="M-532.7-569.7v-5.2l-2-.9s-.4.6-1 1.4c-.7.9-1.6 1.9-1.9 2.8-.6 1.8-.4 4.1 2.1 6.6 0 0-.3-1.1.6-2.3.7-.9 1.5-1.1 2.2-2.4"/></g><g id="g8691" transform="translate(431.688 819.69)"><path id="path8693" class="st2" d="M-511.7-561.1c-1.9-.3-3.1-.1-3.6-.1v.1c1.1.2 3.5.8 5.1 2 .7.5 1.1 1.2 1.1 1.9.1.6-.2 1.2-.4 1.5 1 .4 2.6.4 3.6-.2.5-.3.8-.8.8-1.4-.1-2.1-4.1-3.5-6.6-3.8"/></g><g id="g8695" transform="translate(432.343 820.455)"><path id="path8697" class="st1" d="M-501.4-574.7c-.6-.7-1-1.4-1-1.4l-2 .9v5.2c.8 1.3 1.6 1.5 2.1 2.3.9 1.3.6 2.4.6 2.4 2.6-2.5 2.8-4.8 2.1-6.6-.2-.9-1.1-1.9-1.8-2.8"/></g><g id="g8699" transform="translate(432.207 819.88)"><path id="path8701" class="st2" d="M-503.5-564.5c-.6.6-1.2 1-2.3 1l1.2 1s.7-.2 1.5-.8.9-2.2.2-3.2c0-.1.2 1.1-.6 2"/></g><g id="g8707" transform="translate(431.379 819.613)"><path id="path8709" class="st1" d="M-516.6-559.7c0-.3.2-.8.4-1 .2-.2.2-.5-.1-.6-.1-.1-.8-.4-2.3-.4-1.4 0-2.2.3-2.3.4-.2.2-.2.4-.1.6.2.2.4.8.4 1 0 .3.5.4.6.4.1 0 .7.1 1.4.1s1.3-.1 1.4-.1c.2-.1.7-.2.6-.4"/></g><g id="g8711" transform="translate(430.706 819.367)"><path id="path8713" class="st2" d="M-527.2-555.4c-.2-.4-.5-.9-.4-1.6.1-.7.4-1.3 1.1-1.9 1.5-1.2 3.9-1.8 5.1-2v-.1c-.5-.1-1.6-.2-3.6.1-2.5.3-6.5 1.7-6.5 3.8 0 .6.3 1 .8 1.4.9.7 2.5.7 3.5.3"/></g><g id="g8715" transform="translate(430.315 819.88)"><path id="path8717" class="st2" d="M-533.3-564.5c-.9-.9-.7-2.1-.7-2.1-.7 1-.6 2.6.2 3.2s1.5.8 1.5.8l1.2-1c-1 .1-1.7-.2-2.2-.9"/></g><g id="g8719" transform="translate(430.764 819.914)"><path id="path8721" class="st1" d="M-526.3-565.1c3 0 4.2 1.9 4.5 2.6.1.1 0 .2-.1.1-.4-.2-1.8-1-3.1-1.3-1.4-.3-2.6 0-2.8.2-.2.1 1.1.1 2.1.4.6.1 1.2.5 1.4.6.6.3.1.5.1.5s-2.8.1-4.3.1-3.1-.2-3.1-.2.4-.5 1-1c.9-.9 2.7-2 4.3-2"/></g><g id="g8723" transform="translate(431.1 819.585)"><path id="path8725" class="st1" d="M-521-559.2c-.3 1-1.1 3.1-2.4 4.2-.7.6-1.5 1-2.4 1.1-.4.1-.5.2 0 .2 1 .1 1.9-.1 2.7-.5 1.8-1.1 2.7-3.4 3-4.3.2-.5.4-.3.4.3-.1 1-.6 3.4-2.2 4.8-1 .9-2.3 1.2-3.9 1-1.4-.2-3.1-1-4.3-2 1.1.2 2.4.1 3.2-.3.1-.1.3-.1.4-.2h.1c.6-.4 1.4-1 2.2-1.6 1.2-1 2.3-2 3.1-2.8 0-.3.2-.2.1.1"/></g><g id="g8727" transform="translate(432.013 819.803)"><path id="path8729" class="st1" d="M-506.6-563.1l1 1s-1.5.3-3.1.3c-1.5 0-4.3-.2-4.3-.2s-.5-.2.1-.5c.2-.1.8-.5 1.4-.6 1.1-.2 2.3-.2 2.1-.4-.2-.2-1.5-.5-2.8-.2-1.3.3-2.6 1.1-3.1 1.3-.2.1-.2 0-.1-.1.4-.7 1.5-2.5 4.5-2.5 1.7 0 3.5 1.1 4.3 1.9"/></g><g id="g8731" transform="translate(431.435 819.598)"><path id="path8733" class="st1" d="M-515.7-559.5c.8.8 2 1.9 3.1 2.8.8.7 1.6 1.2 2.2 1.6h.1c.2.1.3.2.4.2.9.4 2.1.5 3.2.3-1.2 1-2.9 1.8-4.3 2-1.6.2-2.9-.1-3.9-1-1.6-1.4-2.1-3.8-2.2-4.8-.1-.5.2-.7.4-.3.3 1 1.2 3.2 3 4.3.8.5 1.7.6 2.7.5.4 0 .4-.2 0-.2-.9-.1-1.7-.5-2.4-1.1-1.3-1.2-2.1-3.2-2.4-4.2-.2-.1 0-.2.1-.1"/></g><path class="st0" d="M-214.2 301.2h-5.3v21.1h4.4c5 0 9.4-3.6 9.4-11.4 0-6.3-3.3-9.7-8.5-9.7zM-131.8 283.1h-4v17.7h4c4.4 0 6.8-5.1 6.8-9.2.1-3.8-1.6-8.5-6.8-8.5zM-50.4 282.2c-6.4 0-8.2 6.9-8.2 19.5s1.8 19.5 8.2 19.5c6.4 0 8.2-6.9 8.2-19.5s-1.8-19.5-8.2-19.5zM-206.7 287.7c0-5.1-3.2-8.1-8.4-8.1h-4.4v18h4.6c4.5 0 8.2-3.3 8.2-9.9z"/><path class="st0" d="M-88.4 241.5c-101.4 0-183.6 26.6-183.6 59.4s82.2 59.4 183.6 59.4 183.6-26.6 183.6-59.4c-.1-32.8-82.2-59.4-183.6-59.4zm-122 84.3h-25.3v-2.4c2.1-.1 3.8-1.8 3.8-3.9v-37.1c0-2.1-1.7-3.9-3.8-3.9V276h27.6c7.7 0 12.5 3.8 12.5 11.1 0 6.7-5.6 10.9-10.3 11.6-.4.1-.5.7 0 .7 7.9.8 12.1 4.5 12.1 11.9-.1 10.7-8.7 14.5-16.6 14.5zm53.9-13v10.5h-33.4v-2c2.1-.1 3.8-1.8 3.8-3.9V286c0-2.1-1.7-3.8-3.8-3.9v-2h32.7v8.5h-2.2c0-2.9-2.4-5.3-5.3-5.3h-9.5v16.4h6.4c1 0 2.3-.7 3.1-3.5h2v10.1h-2c-.2-.6-.4-1.1-.6-1.6-.3-.3-.8-.4-1.2-.4h-6.1v16h6c4.1 0 7.4-3.3 7.4-7.4V311h2.7v1.8zm49.4 10.5h-9.8c-4.9 0-6.9-1.6-8.5-5s-4.5-8.6-5.4-10.6c-1-2.3-2.3-3.7-3.5-3.7h-1.5v13.4c0 2.1 1.7 3.9 3.8 4v1.9h-19.5v-1.9c2.1-.1 3.8-1.8 3.8-3.9v-31.7c-.1-2-1.7-3.6-3.7-3.7v-2h25.1c7.7 0 11.8 3.8 11.8 11.1 0 6.7-4.9 10.5-10.2 11.2-.4.1-.5.7 0 .8 1.9.1 2.8 0 3.5.3.8.4 1.3 1.5 2.9 4.7.7 1.4 3 6.2 3.9 8.1 1.8 3.8 2.8 5.2 7.2 5.2v1.8zm33.4-30.8h-2.5c.4-3.2-.4-9.3-4.7-9.3h-4v34.2c0 2.1 1.6 3.9 3.7 4v2h-19.4v-2c2.1-.1 3.8-1.8 3.8-3.9v-34.3h-3.9c-4.3 0-5.1 6-4.7 9.3h-2.4L-110 280h38.3l-2 12.5zm23.3 31.5c-11.2 0-20.7-8.1-20.7-22.4 0-14.3 9.4-22.2 20.7-22.2 11.2 0 20.7 8 20.7 22.2 0 14.3-9.4 22.4-20.7 22.4zm55.1-.7h-30.8v-2c2.1-.1 3.8-1.8 3.8-3.9v-31.5c0-2.1-1.7-3.9-3.8-3.9v-2h19.5v2c-2.1.1-3.8 1.8-3.8 3.9v34.3h4.9c4.1 0 7.4-3.3 7.5-7.4V311h2.7v12.3zm35.4 0H9.7v-2c2.1-.1 3.8-1.8 3.8-3.9v-31.5c0-2.1-1.7-3.9-3.8-3.9v-2h19.5v2c-2.1.1-3.8 1.8-3.8 3.9v34.3h4.5c4.1 0 7.4-3.3 7.4-7.4V311H40v12.3zM64.3 282c-2.1.1-3.8 1.8-3.8 3.9V317c0 2.1 1.7 3.8 3.8 3.9v2.4H44.8v-2.4c2.1-.1 3.8-1.8 3.8-3.9v-31.1c0-2.1-1.7-3.9-3.8-3.9v-2h19.5v2z"/></svg>