<?xml version="1.0" encoding="iso-8859-1"?>
<!-- Generator: Adobe Illustrator 17.1.0, SVG Export Plug-In . SVG Version: 6.00 Build 0)  -->
<!DOCTYPE svg PUBLIC "-//W3C//DTD SVG 1.1//EN" "http://www.w3.org/Graphics/SVG/1.1/DTD/svg11.dtd">
<svg version="1.1" id="Capa_1" xmlns="http://www.w3.org/2000/svg" xmlns:xlink="http://www.w3.org/1999/xlink" x="0px" y="0px"
	 viewBox="0 0 453.46 453.46" style="enable-background:new 0 0 453.46 453.46;" xml:space="preserve">
<path style="fill:#cb242d;" d="M383.86,291.393c-1.876-1.878-4.421-2.933-7.075-2.933H260.897h-5.377c-2.665,0-5.219,1.063-7.097,2.955l-52.706,53.005
	c-1.86,1.873-2.987,4.406-2.987,7.045v4.995v86.989c0,5.523,4.644,10.011,10.167,10.011h173.722c5.519,0,9.994-4.476,10-9.994
	l0.167-144.991C386.788,295.82,385.736,293.271,383.86,291.393z M250.73,317.31v29.15h-28.773L250.73,317.31z M366.63,433.46h-153.9
	v-67h48.166c5.523,0,9.833-4.477,9.833-10v-48h96.043L366.63,433.46z M290.73,394.46h-27v0.136c-5,0-9.826,4.409-9.826,9.932
	c0,5.523,4.651,9.932,10.174,9.932h36.457c0,0,0,0,0,0h34.317c5.523,0,9.877-4.204,9.877-9.727v-60.018
	c0-3.368-1.634-6.51-4.449-8.359c-2.815-1.848-6.342-2.155-9.432-0.818l-34.205,14.858c-3.659,1.584-5.914,5.19-5.914,9.177V394.46z
	 M310.73,366.141l14-6.199v34.518h-14V366.141z M110.075,281.629L88.697,397.041l64.951-0.001c5.522,0,10,4.477,10,10
	c0,5.522-4.477,10-10,10l-76.973,0.001c-2.971,0-5.788-1.321-7.688-3.605s-2.686-5.295-2.145-8.216L90.41,277.987
	c5.77-31.162,29.941-54.362,64.658-62.06c18.083-4.012,37.679-3.328,55.178,1.921c19.114,5.734,34.656,16.391,44.946,30.818
	c3.207,4.497,2.162,10.741-2.335,13.948c-4.495,3.207-10.74,2.163-13.948-2.335c-15.395-21.585-48.093-31.795-79.511-24.827
	C146.614,238.287,116.217,248.461,110.075,281.629z M144.001,183.06c10.718,6.368,22.735,9.551,34.753,9.551
	s24.035-3.184,34.753-9.551c25.498-15.148,39.325-45.114,37.937-82.213c-0.895-23.913-12.311-43.801-32.146-56.002
	c-0.173-0.106-0.352-0.195-0.528-0.29c0.731-2.139,1.188-4.376,1.318-6.702c0.731-13.132-5.344-24.576-16.669-31.397
	c-14.292-8.608-35.039-8.608-49.331,0c-11.325,6.821-17.4,18.265-16.669,31.398c0.13,2.326,0.588,4.563,1.319,6.703
	c-0.176,0.095-0.355,0.183-0.528,0.289c-11.342,6.977-19.925,16.471-25.368,27.79c-0.03,0.067-0.066,0.132-0.094,0.199
	c-4.016,8.425-6.302,17.852-6.683,28.01C104.676,137.946,118.503,167.911,144.001,183.06z M151.294,59.551
	c1.837,1.138,8.531,3.815,9.804,3.815c3.927,0,7.653-2.328,9.246-6.183c2.109-5.104-0.319-10.952-5.423-13.062
	c-3.325-1.374-7.332-3.77-7.533-7.381c-0.323-5.81,1.973-10.112,7.02-13.152c8.045-4.846,20.647-4.846,28.692,0
	c5.047,3.04,7.343,7.342,7.02,13.151c-0.202,3.614-4.207,6.009-7.53,7.381c-5.105,2.108-7.535,7.955-5.427,13.06
	c2.108,5.105,7.956,7.533,13.06,5.427c2.158-0.891,4.155-1.917,5.994-3.057c0.708,0.898,11.032,8.265,14.862,12.966
	c-12.326,4.941-26.969,7.828-42.325,8.241c-15.353-0.414-29.995-3.299-42.321-8.24C140.261,67.817,150.585,60.449,151.294,59.551z
	 M126.05,101.594c0.151-4.033,0.685-7.722,1.513-11.098c14.928,6.203,32.597,9.801,50.938,10.262
	c0.083,0.002,0.167,0.003,0.251,0.003s0.168-0.001,0.251-0.003c18.344-0.462,36.014-4.06,50.941-10.263
	c0.828,3.376,1.361,7.066,1.512,11.099c1.106,29.554-9.16,52.98-28.166,64.271c-15.136,8.992-33.94,8.992-49.076,0
	C135.21,154.574,124.944,131.148,126.05,101.594z"/>
<g>
</g>
<g>
</g>
<g>
</g>
<g>
</g>
<g>
</g>
<g>
</g>
<g>
</g>
<g>
</g>
<g>
</g>
<g>
</g>
<g>
</g>
<g>
</g>
<g>
</g>
<g>
</g>
<g>
</g>
</svg>
