<?xml version="1.0" encoding="iso-8859-1"?>
<!-- Generator: Adobe Illustrator 17.1.0, SVG Export Plug-In . SVG Version: 6.00 Build 0)  -->
<!DOCTYPE svg PUBLIC "-//W3C//DTD SVG 1.1//EN" "http://www.w3.org/Graphics/SVG/1.1/DTD/svg11.dtd">
<svg version="1.1" id="Capa_1" xmlns="http://www.w3.org/2000/svg" xmlns:xlink="http://www.w3.org/1999/xlink" x="0px" y="0px"
	 viewBox="0 0 424.661 424.661" style="enable-background:new 0 0 424.661 424.661;" xml:space="preserve">
<path style="fill:#cb242d;" d="M145.793,373.661c0,5.523-4.477,10-10,10H43.722c-2.971,0-5.788-1.321-7.688-3.605c-1.899-2.284-2.686-5.295-2.145-8.216
	l23.567-127.233c6.697-36.158,38.392-61.429,80.746-64.382c19.813-1.381,39.71,2.562,56.036,11.103
	c18.49,9.673,31.522,24.546,37.69,43.012c0.623,1.864,1.183,3.793,1.663,5.732c1.329,5.36-1.939,10.784-7.3,12.112
	c-5.359,1.325-10.783-1.939-12.112-7.3c-0.354-1.426-0.765-2.841-1.221-4.207c-10.285-30.794-44.251-42.529-73.366-40.501
	c-25.034,1.745-56.416,15.382-62.471,48.073L55.745,363.661h80.049C141.316,363.661,145.793,368.138,145.793,373.661z
	 M96.482,138.018c-11.37-11.804-24.635-33.626-23.253-70.552c1.569-42.011,34.078-63.725,65.838-67.303
	c2.174-0.245,11.989-0.21,14.394,0.081c31.538,3.813,63.588,25.516,65.149,67.223c1.381,36.926-11.884,58.749-23.255,70.552
	c-13.183,13.686-30.739,21.223-49.437,21.223C127.222,159.241,109.665,151.704,96.482,138.018z M103.606,39.142
	c12.324,4.938,26.963,7.822,42.313,8.235c15.351-0.413,29.989-3.297,42.312-8.235c-10.161-12.529-26.362-18.817-42.312-19.459
	C129.968,20.325,113.766,26.613,103.606,39.142z M110.886,124.143c9.378,9.736,21.819,15.098,35.032,15.098
	s25.654-5.362,35.033-15.098c12.446-12.921,18.558-32.261,17.672-55.93c-0.148-3.95-0.675-7.644-1.527-11.092
	c-14.925,6.2-32.59,9.795-50.927,10.256c-0.083,0.002-0.167,0.003-0.251,0.003s-0.168-0.001-0.251-0.003
	c-18.337-0.461-36.001-4.057-50.926-10.256c-0.851,3.448-1.379,7.141-1.526,11.091C92.33,91.882,98.44,111.222,110.886,124.143z
	 M349.872,404.661H165.432c-5.522,0-10,4.477-10,10s4.478,10,10,10h184.439c5.522,0,10-4.477,10-10S355.394,404.661,349.872,404.661
	z M170.331,273.287v103.276c0,5.523,4.354,10.098,9.877,10.098h154.886c5.522,0,10.237-4.575,10.237-10.098v-16.409
	c0-5.523-4.478-10-10-10s-10,4.477-10,10v6.506h-135v-83h56.798c5.522,0,10-4.477,10-10s-4.478-10-10-10h-66.921
	C174.685,263.661,170.331,267.764,170.331,273.287z M390.939,273.661c0,5.523-4.478,10-10,10h-10.61
	c-0.784,2-1.876,5.198-3.25,7.651l7.513,7.322c3.905,3.905,3.913,10.237,0.007,14.142c-1.953,1.953-4.497,2.929-7.057,2.929
	s-5.089-0.976-7.042-2.929l-7.45-7.509c-2.453,1.374-4.72,2.47-7.72,3.254v10.611c0,5.523-4.478,10-10,10s-10-4.477-10-10v-10.611
	c-3-0.784-5.503-1.875-7.956-3.249l-7.628,7.516c-1.953,1.952-4.512,2.94-7.071,2.94s-5.118-0.953-7.071-2.905
	c-3.905-3.905-3.905-10.191,0-14.096l7.511-7.418c-1.373-2.453-2.469-5.65-3.253-7.65h-10.613c-5.523,0-10.001-4.477-10.001-10
	s4.477-10,9.999-10h10.614c0.784-3,1.887-5.572,3.261-8.026l-7.502-7.694c-3.905-3.905-3.892-10.236,0.013-14.142
	c3.905-3.906,10.265-3.907,14.172-0.002l7.57,7.509c2.453-1.374,4.956-2.47,7.956-3.254v-10.611c0-5.523,4.478-10,10-10
	s10,4.477,10,10v10.611c3,0.784,5.268,1.893,7.721,3.267l7.387-7.496c3.904-3.906,10.236-3.884,14.143,0.021
	c3.905,3.905,3.906,10.283,0.002,14.189l-7.508,7.604c1.374,2.454,2.47,5.025,3.254,8.025h10.609
	C386.461,263.661,390.939,268.138,390.939,273.661z M351.728,273.286c0-9.172-7.462-16.634-16.633-16.634
	s-16.633,7.462-16.633,16.634c0,9.172,7.462,16.634,16.633,16.634S351.728,282.459,351.728,273.286z"/>
<g>
</g>
<g>
</g>
<g>
</g>
<g>
</g>
<g>
</g>
<g>
</g>
<g>
</g>
<g>
</g>
<g>
</g>
<g>
</g>
<g>
</g>
<g>
</g>
<g>
</g>
<g>
</g>
<g>
</g>
</svg>
