<?xml version="1.0" encoding="iso-8859-1"?>
<!-- Generator: Adobe Illustrator 17.1.0, SVG Export Plug-In . SVG Version: 6.00 Build 0)  -->
<!DOCTYPE svg PUBLIC "-//W3C//DTD SVG 1.1//EN" "http://www.w3.org/Graphics/SVG/1.1/DTD/svg11.dtd">
<svg version="1.1" id="Capa_1" xmlns="http://www.w3.org/2000/svg" xmlns:xlink="http://www.w3.org/1999/xlink" x="0px" y="0px"
	 viewBox="0 0 409.985 409.985" style="enable-background:new 0 0 409.985 409.985;" xml:space="preserve">
<path style="fill:#cb242d;" d="M141.013,159.565c18.697,0,36.254-7.537,49.437-21.222c11.371-11.804,24.636-33.626,23.255-70.553
	c-0.022-0.582-0.074-1.144-0.108-1.718c0.001-0.418-0.027-0.835-0.078-1.251c-3.17-42.866-39.244-63.659-72.155-64.813
	c-0.234-0.009-0.467-0.009-0.701,0c-13.759,0.483-28.072,4.4-40.305,11.923c-0.689,0.336-1.326,0.75-1.909,1.224
	C81.709,24.172,69.28,42.214,68.324,67.79c-1.382,36.926,11.882,58.749,23.253,70.552
	C104.76,152.028,122.317,159.565,141.013,159.565z M141.013,20.007c23.489,0.946,47.514,14.141,51.991,41.482
	c-12.813,8.585-29.056,10.659-43.563,5.261c-16.526-6.147-28.463-20.793-33.439-40.692
	C123.758,22.343,132.421,20.353,141.013,20.007z M88.311,68.537c0.455-12.186,4.491-21.955,10.706-29.451
	c7.707,22.278,22.978,38.792,43.451,46.409c7.639,2.841,15.61,4.228,23.549,4.228c9.324,0,18.592-1.931,27.2-5.654
	c-1.76,16.64-7.573,30.434-17.171,40.398c-9.379,9.736-21.82,15.098-35.033,15.098c-13.212,0-25.653-5.362-35.031-15.098
	C93.535,111.546,87.425,92.206,88.311,68.537z M376.168,281.988c-3.059-1.795-6.609-1.834-9.706-0.105l-46.412,26.058v-17.328
	c0-5.523-4.883-9.628-10.405-9.628H185.05c-5.522,0-10,4.105-10,9.628v109.194c0,5.523,4.478,10.178,10,10.178h124.595
	c5.522,0,10.405-4.655,10.405-10.178v-17.328l46.441,26.058c1.517,0.847,3.096,1.27,4.776,1.27c1.75,0,3.392-0.459,4.952-1.375
	c3.06-1.796,4.831-5.078,4.831-8.625V290.613C381.05,287.065,379.228,283.783,376.168,281.988z M195.05,389.985v-89h105v24.1
	c0,0.014,0,0.027,0,0.04v40.171c0,0.013,0,0.026,0,0.04v24.649H195.05z M361.05,382.765l-41-23.196v-28.72l41-23.196V382.765z
	 M141.006,373.985c0,5.523-4.477,10-10,10H38.935c-2.971,0-5.788-1.321-7.688-3.605c-1.899-2.284-2.686-5.295-2.145-8.216
	L52.67,244.931c6.696-36.157,38.391-61.429,80.744-64.382c19.806-1.381,39.71,2.562,56.037,11.103
	c18.49,9.673,31.523,24.546,37.691,43.012c0.624,1.87,1.185,3.8,1.663,5.737c1.326,5.361-1.944,10.782-7.306,12.108
	c-5.366,1.325-10.783-1.945-12.108-7.307c-0.352-1.42-0.762-2.834-1.219-4.201c-10.285-30.795-44.267-42.528-73.367-40.501
	c-25.034,1.746-56.416,15.383-62.47,48.072L50.957,363.985h80.049C136.529,363.985,141.006,368.462,141.006,373.985z"/>
<g>
</g>
<g>
</g>
<g>
</g>
<g>
</g>
<g>
</g>
<g>
</g>
<g>
</g>
<g>
</g>
<g>
</g>
<g>
</g>
<g>
</g>
<g>
</g>
<g>
</g>
<g>
</g>
<g>
</g>
</svg>
