<svg id="Layer_1" xmlns="http://www.w3.org/2000/svg" viewBox="-137 -22.7 150.3 129.7"><style>.st0{opacity:.2;enable-background:new}.st1{fill:#cb242d}</style><g id="XMLID_2_"><path id="XMLID_92_" class="st0" d="M-9.1 31.5c-3.7 10.6-6 21.9-8.3 32.9-1.2 5.6-2.7 11.2-4.2 16.8-1.1 4.2-2.7 8.4-2.5 12.8 0 1.2 1.5 1.5 2.1.6 2.2-3.3 3.9-8.6 3.6-12.6 0-.2-.2-.5-.4-.6 1.4-5.4 2.6-10.9 4.1-16.3 1.7-5.9 2.4-11.9 3.8-17.8 1.2-5.1 2.5-10.2 3.6-15.3.4-1.3-1.4-1.7-1.8-.5z"/><path id="XMLID_91_" class="st0" d="M0 24.4c-.4-.2-.9-.3-1.3-.4-.7-.4-1.5-.7-2.3-.9-2.6-.7-5.6-1.3-8.1-.3-1.7-.1-3.2.2-3.8 2.4-.2.8.2 1.6.8 2 .1.8.4 1.6.8 2.4.3.4.8.7 1.4.6.1 0 .2-.1.2-.1.7-.3 1-1 .7-1.6.1-1 .6-1.6 1.3-2h1.1c.8 0 1.8 0 2.8.1 0 .5 0 1 .1 1.4.1.3.3.6.6.8.7.4 1.7.1 1.9-.8.1-.3.1-.6.1-.9.2 0 .3.1.5.1 2.2 1.2 3.5 3 1.9 4.7-1.4 1.5.3 3.7 2.1 2.8 2.7-1.4 4.6-1.3 4.8-4.9.2-2.9-3.4-4.6-5.6-5.4z"/><path id="XMLID_90_" class="st0" d="M3.2 35.3C.7 39.8-2.8 44-4.4 49c-.8 2.4-2.1 4.5-3 6.8-1.2 3.2-1.5 6.4-2.3 9.7-1.6 6.6-3.8 13.2-5 19.9-.6 3-1 6-1.7 8.9-.3 1.2-.7 2.3-.2 3.4-.6.6-2 .2-3.1-.1-.2-.2-.5-.4-1-.4h-.5c-1.4-.1-2 2.1-.7 2.7 1.9.9 2.7 1.6 4.9 1 2.1-.6 3.6-1.4 3.6-3.7 0-.5-.2-.8-.5-1.1.1-1.3 1.1-4.1 1.2-4.5.7-2.8 1-5.8 1.6-8.6 1.3-6.1 3.5-12 5-18.1 1.3-5.4 2.5-10.7 4.9-15.7C-.1 46.9.7 44.4 1.6 42c.4-.9.9-1.8 1.3-2.7.7-1.9.6-1.5.2-3.3.1.4.7.4.8 0v-.2c.3-.7-.4-1.1-.7-.5z"/><path id="XMLID_89_" class="st0" d="M-28.2 28.5H-28.5c-1.3-.2-2.5-.3-3.7.4-1.8.9-1.1 3.3.5 3.9.3.1.5.2.8.2 0 .5-.1 1-.1 1.4-.2 1.3-.5 2.2-1.9 2.4-.7.1-.7.2-1.3-.4-.4-.3-.6-.7-1.1-.9-.4-.2-.9-.2-1.3.1-.2.2-.3.3-.4.5-2.4-.9-5-.7-7.6-1.4-4.2-1.2-9.1-1.2-13.5-1.2-7.6 0-15.8.1-23.3-.8-7.7-1-15.6-2.2-23.3-2.6-4.2-.2-8.1.1-12.3-.5-2.2-.3-7-.1-9-1.7-.5-2.1.3-3.9-.8-5.9-.2-.3-.6-.4-.9-.2-1.7 1-1.9 3.1-1.9 4.9 0 1.6.6 5.9 2.9 5.8h.2c2.6 1.6 6.6 2.1 8.7 2.5 8.6 1.8 17.7 2.4 26.4 3.2 8.8.8 17.3 1.2 26.2.9 4.1-.2 8.3.3 12.4 0 5.3-.4 10.8-1.2 16-.4h.2l.6.6c1.1 1.1 3.4 1.7 5 1.2 1.8-.5 3.3-1.8 3.9-3.7.3-.9.4-1.8.6-2.7.4-.1.7-.3 1-.6 1.7-1.9.3-5.7-2.7-5z"/><path id="XMLID_88_" class="st0" d="M-34.4 30.2c-.1-.7-.8-1.3-1.5-.9-1.2.7-1.9 1.7-2.3 3-.3.9 0 2.6.9 3.1.4.2.9.1 1.2-.2.2-.2.3-.4.4-.7-.2.6.3-.5.3-.7.4-1.1 1.2-2.3 1-3.6z"/><path id="XMLID_87_" class="st0" d="M-12.1-.6c0-.2 0-.3-.1-.5-.4-2.4-3.3-2.6-5.2-2.2-1.6.4-1.3 2.4 0 2.9.3.1.5.1.7.2.2.3.4.7.5 1-.1.1-.2.1-.2.2-.7.8-1.6 2.7-2.8 2.7-.7 0-1.8.8-2.1.8-.7.2-1.2.9-1.2 1.6 0 .8-.1 1.7-.4 2.5-.2 0-.3.1-.5.2-.8.4-1.4 1.4-1.7 2.4-.6.9-1.3 1.8-1.9 2-2 .8-1.2 3.9.9 3.3.8-.2 1.5-.5 2.1-.9.3.2.7.2 1.2.2 2.3 0 3.2-1.7 4.9-3 1-.7 1.8-1.4 2.7-2.2.5-.5 1.3-2.6 1.2-2.6 1-.6 1.3-1.7 1.1-2.7.7-.9 1.2-2 1.3-3.6.2-.8 0-1.6-.5-2.3z"/><path id="XMLID_86_" class="st0" d="M-30 12.9C-38.1 5.2-50.1 3.2-60.7 1c-6.6-1.4-12.9-3.3-19.5-4.6-2.9-.6-10.6.8-12-2.9-.4-1-2-1.2-2.3 0-.7 2.8 2.4 3.9 3.8 5.7 1 1.3 4.8 1.4 6.3 1.6 4 .7 7.9 1.4 11.9 2.2 3.6.7 7 2 10.5 2.8 3.1.8 6.1 1.1 9.3 1.7 3.4.7 6.7 2.3 10.1 2.9 1.2.2 2.3.5 3.5.8 1.3.6 2.6 1.3 3.8 2 1.2.7 2.3 1.4 3.8 1 .1 0 .1-.1.2-.1s.2.1.2.1c.9.5 1.9-.6 1.1-1.3z"/><path id="XMLID_85_" class="st0" d="M-24.5 1.4c-5.9-5.6-16.3-5.5-23.8-7.2-6-1.4-11.8-3.6-17.7-5.1-5.6-1.4-12-3.5-17.8-3.5-1.3 0-1.6 2-.3 2.2 10.8 2.2 21.4 5.7 32.2 8.1 9 2 17.4 3.5 25.5 7.9 1.5.9 3.2-1.2 1.9-2.4z"/><path id="XMLID_3_" class="st1" d="M-14.7 90.4c-.2 1.3-.2 2.9-.7 4.1-.1.3-.6.4-.7 0-.5-1.6.5-3.5.7-5.1.1-.9.1-2 .8-2.7.2-.2.4 0 .3.2-.6 1.1-.3 2.4-.4 3.5zm2.4-15.6c-1.1 2.6-1.4 5.5-2 8.2-.1.3.4.5.5.1.7-2.7 1.4-5.4 1.8-8.2.1-.1-.2-.3-.3-.1zm-.2 6.8c-1.8 3.2-2.2 8.3-1.9 11.8 0 .3.4.4.5.1.2-.8.3-1.6.4-2.4-.1-1.2.1-2.5.5-3.8.2-1.7.5-3.4.9-5.1.1 0 .1-.1.1-.2v-.2c.1-.2-.3-.5-.5-.2zm10.1-42.9c-1 2-1.8 4.3-2.2 6.5 0 .3.3.4.4.2C-3 43.5-2.7 41-1.8 39c.1-.4-.5-.7-.6-.3zm1.8.9c-1.2 2.6-2.8 5.1-3.1 8.1 0 .1.1.2.2.3 1.3-2.9 2.8-5.8 4-8.7.1-.3.2-.5.3-.8.1-.2.2-.4.3-.7.1-.1.1-.2.2-.2l.2-.2c.1-.3.2-.5.4-.8h-.1c-1.3-.2-2 2-2.4 3zm-18.8 3.1c1.3-3 2-6.5 2.7-9.7.1-.5-.6-.7-.8-.2-.9 3.2-2.2 6.4-2.5 9.7 0 .3.5.4.6.2zm1.8-2.5c-.7.2-.7 1.5-.9 2-.4 1.8-.9 3.7-.9 5.6 0 .3.4.3.5.1.5-1.3.9-2.8 1-4.2.1-.6.1-2.6.5-3.1.2-.2 0-.5-.2-.4zm-14.1 52.6c.1.7-.7 1.8-.1 2.4.1.1.3.1.4 0 .3-.3.4-.8.4-1.2.1-.5.2-.9.1-1.4-.2-.3-.9-.2-.8.2zm-86.5-61.2c5.5.7 11.3 1.8 16.8 1.7-.4-.2-.8-.3-1.2-.5-5.2-.7-10.4-1.1-15.6-1.7-.4-.1-.3.4 0 .5zm21.7 3.2c-.4-.1-.9-.2-1.3-.1h-.1c-1.9 0-3.8-.1-5.7-.3-.5 0-.5.7 0 .8 2 .2 4.2.5 6.2 0 .3 0 .6 0 .8-.1.1.1.2.1.2-.1v-.1s0-.1-.1-.1zm-3.9-2.8c1-.1 2 .2 2.9 0 .2 0 .2-.3 0-.4-1-.3-2-.5-3-.3-.4 0-.3.7.1.7zm51.6 3.8c-2.8-.1-5.8-.2-8.7-.1-.3 0-.3.5 0 .5 2.9.3 5.8.5 8.7-.1.3 0 .2-.3 0-.3zm.5 1.7c1.3.1 3.1 0 4.4-.5.2-.1.2-.3 0-.3-1.3-.5-3 0-4.4.2-.4 0-.4.6 0 .6zm54.5-4.7c-.2 3.1-1.5 6.1-3 9.1C.9 48.4-2 54.7-4.1 61.2c-3.2 9.8-5.2 20-7 30.1-.4 2.4-.5 4.6-.6 7 0 .6-.7 1-1.1 1.3-2.2 1.3-5.7 1.9-8.2 1.7-.8-.1-2.4-.7-2.4-1.7V99c-.3.4-.9.5-1.9.8-5.6 1.3-10.3-.3-10.4-5.9 1.6-2.5 2.8-5.4 3.8-8.1 1.2-3 2.4-6 2.7-9.2v-.2h.1c1.5-5.9 2.7-11.8 4-17.7 1.4-6.2 2.4-12.4 3.7-18.7 1-4.7 2.6-9.3 3.6-14 .1-1.2.5-2.4 1.6-3.1.6-.3 1.4-.6 2.1-.8 4.1-2 11-.8 14.4.9 3.2 1.7 8.5 5.9 5.9 9.8zm-36.9 52.6l.3.3c.4-1 .7-2 .8-2.9l-.1-.1c-.3.9-.6 1.8-1 2.7zm-.8 2c.1.1.2.3.3.4.1-.4.3-.8.4-1.1l-.3-.3c-.1.4-.2.7-.4 1zm13.1-19.6c.3-1.3.5-2.6.8-3.9-1 .3-2.1.4-3-.1-.2-.1-.1-.3.1-.3 1.1 0 2.2 0 3.2-.5.2-.7.3-1.5.5-2.2-.7.3-1.4.5-2 .3-.2-.1-.2-.3-.1-.4.5-.5 1.2-.6 1.8-.9l.6-.3c.2-1.1.5-2.2.7-3.3-.9.6-2 1.1-3.1.8-.1 0-.1-.2 0-.2 1.1-.3 2.2-.6 3.1-1.4.1 0 .1-.1.2-.1.7-3.1 1.4-6.3 2-9.4.7-3.6 2.1-6.9 3.1-10.4.4-1.2 1.3-2.9 1.7-4.4-1.4.5-3 .6-3.9.3-2.1-.7-3.9-2.1-4.5-3.7-.4 4.8-2.8 9.8-3.6 14.4-1 6.3-2.5 12.5-3.7 18.8-1 5.6-2.2 11.5-3.8 17.3.2.2.5.4.8.4.5 0 .5.8 0 .8-.4 0-.8-.1-1.1-.3-.3.9-.5 1.8-.8 2.7l.2.2c.2-.1.4 0 .4.2v.1c.4.3.8.5 1.4.2.4-.2.8.4.4.7-.6.3-1.3.3-1.9.1-.2 1-.5 2-.8 3 .7.4 1.4.3 2.3.2.5-.1.7.6.2.7-.9.2-2 .4-2.8 0-.2.5-.3 1-.5 1.4.9 1.2 2 2.4 3.2 1.8.4-.2.8.4.4.6-1.1.6-2.2.1-3.1-.6-.3-.2-.5-.5-.8-.8-.7 2.2-1.5 4.4-2.2 6.6-.1.2-.4.2-.4-.1-.1-2.3 1.2-4.5 1.9-6.7.1-.2.1-.3.2-.5-.1-.2-.2-.3-.3-.5-.8 1.8-1.6 3.5-2.6 5.2 0 .1-.1.2-.2.4 0 .1-.1.1-.1.2.2 5 5.2 5.4 9.7 4.5.2 0 .4-1.2.6-2.6 0-.2 0-.3.1-.4.3-2 .5-4.3.5-4.6 1.3-7.9 3.7-15.5 5.2-23.3zm8.9-39.4h-.3c-.3 0-.5-.2-.6-.5l-.2-.2c-.2.5-.3 1-.5 1.5-.1.3-.2.7-.3 1 1.7.3 2.3-.3 1.9-1.8zm-13.4 67.8c-.1 0-.3-.1-.5-.1v1.7c.1-.6.3-1.1.5-1.6zm1.7-3.9c1.6-6.5 2.9-13.2 4.2-19.8-.4-.2-.7-.4-.9-.6-.3-.4.2-.8.6-.7.2 0 .4.1.5.2.7-3.7 1.4-7.3 2.2-10.9 1.3-5.9 2.8-11.7 4-17.7.8-3.9 1.8-8.2 3.3-12 0-.1-.1-.1-.1-.2-.2.1-.4.2-.7.3-.1 1.6-1.2 3.7-1.6 5-1.7 5.1-2.9 10-4 15.2-.5 2.1-.9 4.2-1.4 6.4-.4 1.3-.9 2.7-.9 4.1-1.5 6.8-3.1 13.6-4.8 20.4-1.1 4.3-2.3 8.8-2.6 13.3H-22.6c.5-1.2 1-2.2 1.4-3zM4.4 34.4c-.4.2-.8.3-1.2.4-1.5 1.2-3.6 1.2-5.6.6-1.6-.5-3.1-1.4-3.9-2.9-.1-.2-.2-.3-.3-.5-2.4 10.1-4.8 20.2-6.9 30.4-.6 3-1.2 6.1-1.8 9.1.1 0 .3-.1.4-.1.4-.3.8.3.5.7-.3.3-.7.5-1.2.5-.1.5-.2 1.1-.3 1.6h.1c.1 0 .2.1.3.1.4-.2.8.5.4.8-.3.2-.7.3-1.1.1-.1.5-.2 1-.3 1.4.2-.1.5-.1.7-.1.6 0 .6 1 0 1h-.9c-.5 2.6-1 5.2-1.6 7.8.1 1.8-.8 3.9-1.3 5.4-.7 2-2.4 6.3-.9 8.4.5.2 1.1.3 1.9.2 1.3-.1 2.6-.7 3.8-1.1 2.3-.6 1.1-1.6 1.2-3 .2-1.5.4-3.1.6-4.6.2-.8.4-1.6.4-2.5.7-4 1.7-8 2.6-11.9-.1.1-.1.3-.2.4-.2.3-.8.3-.9-.1s.1-.8.4-1.1c.3-.3.7-.1.8.2.1-.3.1-.6.2-.8.1-.5.1-1 .2-1.5-.3.3-.7.4-1.2.5-.9.1-1.1-1.4-.2-1.6.7-.2 1.2-1 1.5-1.8-.4 0-.8-.1-1-.4-.1-.1-.1-.2 0-.3.2-.2.4-.4.7-.5.2-.1.4-.2.6-.2 0-.1.1-.1.1-.2 0-.2.1-.5.1-.7H-10c-.4 0-.7-.3-.8-.7 0-.2.1-.3.3-.2.2.1.5-.2.8-.2.4 0 .8-.2 1.1-.3.1-.4.2-.9.3-1.3 0-.1.1-.2.1-.3-.9-.2-1.8 0-2.7-.3-.3-.1-.6-.2-.8-.4-.1-.1-.3-.4-.2-.4-.2 0-.2-.3 0-.3H-11.6c.3.3 1.3.1 1.7.1h1c.1-.1.1-.2.1-.2.3-.4.6-.8.7-1.3.2-.6.4-1.3.5-1.9.1-.2.1-.4.2-.6-1.5.7-3.3 1.2-4.3 0-.1-.1 0-.4.2-.3 1.6.5 3.1 0 4.6-.7.2-.2.4-.4.7-.6.1-.5.3-.9.4-1.4-1.6 1.2-4 1.7-5.7 1.3-.2 0-.2-.4 0-.4 1.3-.3 2.7-.3 4-1 .7-.4 1.6-.9 2.2-1.6.2-.7.4-1.4.7-2.1v-.1c0-.1 0-.2.1-.3.4-1.2.8-2.4 1.3-3.6.5-1.1 1-2.2 1.5-3.2s1-2.1 1.4-3.1l3.6-6.9c.6-.1.9-.8 1.1-1.4zm-8.6-4.9c-.1-.1-.2-.2-.3 0v.4c-.4.8-.1 1.6.5 2.2.2-.1.4-.2.6-.4.3-.3.5-.6.7-.9h-.1c0-.1-.1-.2-.3-.2-.1 0-.1-.1-.2-.1-.1-.1-.2-.1-.2-.2v.1c-.4-.3-.6-.6-.7-.9zm.1-1c.2.3.5.3.8.5.1.4.3.6.7.8.6.2.9-.5.7-.9s-.6-.5-1-.4c-.3-.1-.8-.4-1.1-.2-.1 0-.2.1-.1.2zm9.5 1.9c.3-1-.2-1.9-1-2.5C2.5 25.7 0 24-2.8 23.3c-2.9-.7-6.5-1.1-9.5-.3-3 .9-3.6 6.4-.1 6.9h.1c.1-.5.3-.9.5-1.3.2-.5.3-1 .5-1.4.1-.1.2-.3.4-.4 0-.3.2-.6.5-.7.1 0 .1-.1.2-.1.1-.2.3-.3.5-.4.2-.1.4-.1.5 0 1.2-.4 2.8-.1 3.4 1 .2.3.2.5.3.8 1.3-.4 2.9-.2 3.9.8.1.1.2.2.3.4.1 0 .1.1.2.2.1 0 .1.1.1.1.2.3.4.6.4 1.1v.2c.1.1.1.2.1.3.1.5-.4 1.2-.6 1.7-.2.4-.3.8-.4 1.2.7 1.3 4.5.2 5.3-.2 1.3-.9 1.7-1.8 1.6-2.8zM-35 40.6c-3.5-.3-7.1-.6-10.7-.8-3.6 0-7.1.1-10.6.1H-60c-5.6.3-11.3.4-16.9.1h-4.7c-2.3 0-4.6-.1-7-.2-.7-.4-1.5-.9-2.2-1.3.7.4 1.5.9 2.2 1.3-4.8-.2-9.7-.6-14.4-1.1-2.6 0-5.2-.2-7.7-.5-2.1-.3-4.2-.8-6.3-1.3-1.6-.2-3.2-.6-4.7-1-.4-.1-.7-.1-1.1-.2-1-.3-2-.5-3-.9 0 0-.7-.4-1.3-.5v-.1c-2.7-2.3-4.2-5.2-3-8.8.7-2.1 2.3-5.5 4.7-6.1.1-.1.3-.2.5-.1h.8c1-.1 2.1.2 3.1.6.7.3 1.5.5 2.2.6.1 0 .2 0 .3.1.7 0 1.4.1 2 .2 4.5.7 9 1.5 13.4 2.2 2.7.4 5.4.9 8.1 1.3l5.7.6c11.6 1 23.4 2.1 34.9 1.6.1 0 .2 0 .2.1 2.3-.1 4.6-.3 7-.4 3.6-.2 7.4.2 11.1-.2.1-.1.2-.1.4 0 .6-.1 1.2-.1 1.8-.3 1.9-.4 4.6-1.4 6.5-.7.7 0 1.4.3 1.7 1v.3c.2.5.1 1.2-.5 1.3-.1 0-.2 0-.2-.1h-.2c-.9-.3-1.8-.2-2.8-.3-.6 0-1.2-.1-1.8.1-.1 0-.1.1-.2.1.9.1 1.9.2 2.8.2.8.1 2 0 2.5.8 2.4.8 2.1 4.1 1.3 6.1-1 2.7-4.5 7-7.7 6.9-.9-.1-1.8-.3-2.5-.7zm2.2-12.4c-.2.1-.4.3-.6.5.6.1 1.2.3 1.7.4l1.8-.6c-1-.2-2-.4-2.9-.3zm1.7 5.8c-.4.2-.7.6-1 .8-.1.1-.4.5-.2.7.6.6 1.8-.5 1.8-1.2-.1-.3-.4-.5-.6-.3zm-2-7.3c-.1.1-.3.1-.4.2 0 .1 0 .1.1.2h.1c.2-.2.5-.3.7-.5.5-.3 1.3-.7 2.1-1.1-.9.2-1.7.4-2.6.6.2.2.2.5 0 .6zm-1.2 2.7c-.4.4-.8.9-1.2 1.4h.4c.2 0 .4.1.6.1.4-.5.9-.9 1.5-1.2-.5 0-.9 0-1.3-.3 0 .1 0 0 0 0zm-1 2.5c-.2 0-.5-.1-.7-.2-.4.8-.6 1.8-.7 2.8.7.1 1.3.3 2 .5-1-.7-1.3-1.9-.6-3.1zm-1.9-.3c.3-.8.7-1.5 1.2-2.2-.1 0-.2-.1-.2-.2.1-.6.5-1.1.9-1.6.1-.2.3-.3.4-.5v-.2h-.5c-.2 0-.4 0-.7-.1-.3.5-.9.9-1.2 1.1-.4.3-.9.6-1.3 1-.4.3-.6.7-1 1-.1.1-.4.1-.4-.1-.4-.9.6-1.8 1.2-2.2.4-.3.8-.5 1.2-.8h-.8c-4.2-.2-8.2.1-12.3.4h-.8c0 .3 0 .6-.2.8v.4c0 .2 0 .4-.1.5-.1.3-.3.6-.5.7-.1.1-.3 0-.3-.2 0-.5.1-1 .1-1.4 0-.2.1-.3.2-.4 0-.1.1-.2.1-.3-.6 0-1.2.1-1.8.1-.5.7-.9 1.4-1.1 2.3-.3.8-.5 1.6-1 2.3-.1.2-.4 0-.4-.2 0-1.3.5-3.2 1.5-4.4h-.3c-1.3.6-2.5 1.2-3.5 2.5-.2.3-.7.1-.6-.3.3-1 .9-1.6 1.7-2.1-7.3.3-14.6.3-21.9-.5-3.5-.4-7-.8-10.4-1.3-5.5-.5-11.1-1-16.6-1.9-4.3-.7-8.5-1.6-12.8-2.1-2.2-.2-4.1-.7-5.9-1.8-2 1.5-3.5 3.7-3.9 6.3-.2 1.4-.2 2.3.2 3.2.3.5.6.9.9 1.4.2.1.3.2.4.4l.5.5c.3.3.7.6 1.1.8 2.1.6 5.3 1.2 6.1 1.4 1.9.5 3.9 1.3 5.8 1.6 4 .5 8.3 1.5 12.3 1.4h3.6c-.1-.2 0-.5.3-.5 1.2 0 2.3-.1 3.4-.3.3 0 .7 0 1 .1.2.1.2.3 0 .4-.3.1-.7.2-1.1.1-.4.1-.8.1-1.1.2 1 0 2 .1 2.9.1.3 0 .8 0 1.1.1l4.2.3c-.5-1-.3-2.3 0-3.4.3-1 .7-2.6 1.7-3.2.3-.2.6.3.3.5-.8.5-1 2-1.2 2.9-.3 1.2-.1 2.2.2 3.3h.1c-.1-.3-.2-.7-.2-1 .1-1.2.5-2.2 1.2-3.2.2-.3.7 0 .5.3-.5.7-.8 1.6-.8 2.5 0 .7.1 1.1.4 1.5.6.1 1.2.1 1.8.2-.1-.1-.2-.1-.2-.2-.1-.3 0-.4.1-.7.3-.4 1 0 .7.4-.1.2 0 .4-.3.5 1.1.1 2.3.2 3.4.3 4.9.5 9.9.4 14.9.2h.7c1.1 0 2.2-.1 3.2-.1.4 0 .8-.1 1.2-.2.7-.1 1.4-.2 2.1-.1.6-.5 1.9-.5 2.9-.5 1.2-.3 2.8.2 3.8.3.6.1 1.3.1 1.9.2 2.8-.1 5.7-.2 8.5-.1-.7-.8-.9-2.1-.7-3.3-2.1.1-4.1-.5-6.2-.1-.3.1-.4-.4-.1-.4 2.1-.4 4.3-.2 6.4.2.2-1 .6-1.9 1.2-2.4.3-.2.7.1.4.4-.6.7-.7 1.9-.7 2.8 0 1 .4 1.8.7 2.8h.4c-.1-.3 0-.6.1-.8.1-.3.5-.3.6 0l.3.9c.3 0 .7.1 1 .1-.4-.7-.5-1.7-.6-2.3-.2-1.5-.1-3.2.6-4.5-.1.5 0 .5.1.4zm1.1 6.3c1.3-.3 2.8-.2 4-.2.8 0 1.8.2 2.7 0 0 0-.1-.1-.1-.2-.1-.1-.1-.3 0-.4-.8 0-1.6.1-2.4.1-1.4.1-2.9.2-4.3-.2-.2-.1-.2-.4 0-.4 1.5-.5 3.3-.4 4.9-.4 1.3 0 2.6-.1 3.9.2 1.1-1.3 2.1-3 2.1-4.6-.1-2.9-3.2-2.6-5.2-1.8-.3.1-.6.3-.9.4.6.3 1.5.7 1.6.7.4-.1.6.1.8.4.7 1.9-1.6 5.1-3.8 4.5-.1 0-.3-.1-.4-.1 0 .1-.1.2-.2.2-1.1.3-2.2-.2-3.3-.5 0 .9.2 1.6.6 2.3zm.8 1.1c.3.1.7.2 1 .3h.9c.8 0 1.7.2 2.5-.1.1-.1.2-.2.3-.4h-1.1c-1.2 0-2.5.2-3.8.2.1-.1.2-.1.2 0zm-90.2-11.9c.3 0 .3-.4 0-.5-.7-.1-1.1.5-1.2 1.1v-.4c.1-1.2.3-2.5 1.2-3.3.2-.2-.1-.5-.3-.4-1 .6-1.6 1.5-1.9 2.7-.3.9-.7 2.7-.1 3.6.2.3.6.3.8 0 .1-.1.1-.2.1-.3.1.8.4 1.7 1.1 2.1.1.1.3 0 .3-.2.1-.3-1.1-4.4 0-4.4zm18.7 7.1c-5.8-.4-11.5-.2-17.1-1.9-.1 0-.2 0-.3.1-.2-.5-.3-1.1-.4-1.6s-.9-.3-.8.2c.2.8.2 1.9 1.2 2 .1 0 .1 0 .1-.1 5.5 1.9 11.4 2 17.2 1.6.3 0 .3-.3.1-.3zm65.6-4.4c-.2.8-.9 1.4-1.3 2.2-.3.6-.3 1.4-.1 2 .1.2.3.2.4 0 .3-.8.2-1.6.6-2.3.3-.6.7-1.1.8-1.8.2-.3-.3-.4-.4-.1zm-45.2.1c-1.1.7-2.5 2.4-1.9 3.8.1.1.3.1.4 0 .3-.5.4-1.1.6-1.6.3-.7.7-1.2 1.3-1.7.3-.2-.1-.7-.4-.5zm5.3 7.7c-.4 0-.4.6 0 .6.2 0 .3 0 .4-.2.1-.1.1-.2 0-.3-.1-.1-.2-.1-.4-.1zm13.6-5.2c-.2.7-.7 2.1.2 2.4.3.1.5-.2.4-.5-.3-.5 0-1.2.2-1.7.2-.4-.6-.7-.8-.2zm3.7.7c-.3.5-1.1 1.4-.6 2 .1.1.2.1.3 0 .2-.2.3-.5.4-.7.2-.3.4-.6.5-.9.3-.4-.4-.8-.6-.4zm2.8 0c-.5.4-1.3 1.5-.8 2.2.1.1.2.2.3 0 .2-.2.2-.5.3-.8.1-.4.3-.7.5-1.1.3-.1 0-.5-.3-.3zm37.9-20.4c-.8-.2-1.5-.4-2.3-.2-.5.1-.3.7.1.8.9.1 1.7.3 2.5.6.6.2 1.3.4 1.8 0 .2-.1.2-.3 0-.4-.6-.5-1.5-.6-2.1-.8zm2.1-1.1c-.2 0-.3 0-.5-.1l-.6-.3c-.4-.2-.8-.5-1.3-.5-.4 0-.5.6-.1.7.5.1.9.6 1.4.9.4.2 1.2.3 1.3-.3.1-.2 0-.4-.2-.4zm1-.8s0-.1 0 0c-.1-.1-.1 0 0 0zM-41.1-3.4c.4 0 .4-.5.1-.6 0 0 .1-.3.1-.4.1-.2.3-.3.5-.4.3-.2.6-.3.8-.7.1-.2 0-.4-.2-.4-.7 0-1.4.3-1.8.9s-.3 1.6.5 1.6zm4.2 0c.5-.3 1.1-.3 1.5-.6.2-.1.2-.3 0-.4-.6-.5-1.8-.2-2.1.6-.1.3.3.6.6.4zm6.3 3.9c.1 0 .2 0 .3-.1.2-.4.2-.8.4-1.1.2-.4.4-.7.4-1.2 0-.3-.5-.5-.6-.2-.3.4-.7.8-.8 1.3-.3.4-.3 1.2.3 1.3zm2.1.9c.1 0 .2-.1.2-.1.2-.3.2-.7.3-1 .2-.3.4-.6.6-1 .2-.3-.3-.7-.5-.4-.4.4-.8.7-1 1.2-.3.5-.2 1.2.4 1.3zm-5.2 8.1c.3-1.2.3-2.3.9-3.4.7-1.4 2.3-1.7 3.7-2.2.2-.1.1-.4-.1-.3-1.5.3-3.3.4-4.2 1.9-.8 1.3-.9 2.7-.7 4.2.1 0 .4 0 .4-.2zM-94.6-4.9v-.2c-.2-1.8.3-3.6 1.4-4.8 1.8-1.8 4.7-3.7 7.4-3.6-.5-1.1 1.3-2.2 2.4-2.7 1.2-.4 3.4-1.5 4.6-.4l.1.1c1.2.5 2.4 1 3.7 1.5.7.2 1.5.4 2.2.8 9 3 18.6 4.3 28 6 6.1 1.1 12.9 3 19.1 3 4.1 0 7.9-.3 11.8.6.5.1 1 .2 1.5.4.3.1.5.2.8.3.2.1.2.2.2.3 4.9 3.3 2.5 8.9-1.7 13.3-.3.4-.6.9-1 1.3-1.1 1.5-2.6 2.8-4.3 3.7-1.4.8-3 1.7-4.7 1.7-.6 0-1.1.1-1.7.1-1.9.2-3.7.2-5-.3-.5 0-.9-.2-1.3-.4-.2-.1-.3-.3-.6-.4-.1 0-.1-.1 0-.1-6.6-2.8-13.6-5-20.7-6.9-4-.8-8-1.5-12-2.4-5.6-1.2-11.1-3.1-16.8-4.2-2.6-.5-5.2-1-7.8-1.6-.8-.2-1.7-.3-2.5-.4-.1 0-.2-.1-.3-.1-.2 0-.4-.1-.7-.1-.2 0-.3-.1-.4-.2-.1 0-.2-.1-.3-.2-.1-.1-.1-.2-.2-.3-.1-.1-.1-.2-.1-.3-.6-1-1-2.2-1.1-3.5zm67.1 17.6c0-.1.1-.1 0 0-.2-.2-.5-.4-.8-.6-.1 0-.2-.1-.2-.1-.2 1-.2 2.1 1 .7zm2.1-5.1v.2c0 .3-.2.5-.5.5-.6 0-1 .3-1.4.7.1.1.3.2.4.2.4.1.7.3 1.1.4.3.1.7.2 1 .4 1.4-1.4 2.5-3 2-4.7-.5-.1-1-.4-1.3-.7-1.4-.2-2.6.7-3.7 1.9.7.1 1.4.3 2.1.6.2.1.4.2.3.5zm-2.5 2.3c.3.2.7.4 1 .5.3.2.8.3 1.2.4l.6-.6c-.4 0-.8-.2-1.2-.4-.3-.1-.6-.2-.8-.3l-.3-.3c-.3.3-.4.5-.5.7zm-.2.6c-.1.3-.2.5-.2.8.5.2 1 .5 1.5.7l.5-.5c-.3-.1-.5-.2-.7-.3-.4-.3-.8-.5-1.1-.7zm2.2 4.3c-.5-.3-1-.5-1.3-.6-.1 0-.1-.1-.2-.1-.3.2-.7.5-1.1.5.9.2 1.7.3 2.6.2zm8.6-17l.1.1c.6.2 1.1.6 1.4 1.5.8 2.8-3.7 6-6.3 5.9.7 1.6-.4 3.5-1.5 4.7-1 1.2-2 2.5-3.1 3.5 1 .1 1.9.7 2.9 1 1.6-.3 3.1-.8 4.4-1l.9-.6c1.3-1.3 2.5-2.8 3.6-4.3-.4-.1-.9-.2-1.3-.4-.9-.4-1.9-.8-2.7-1.4-.3-.2-.1-.6.2-.5.9.2 1.8.7 2.7.9.5.2 1.1.2 1.7.4.4-.5.7-1 1-1.5 0 0 0-.1.1-.1h-.2c-.8-.2-1.7-.5-2.4-.8-.4-.2 0-.7.3-.6.5.2 1.1.4 1.6.5h.3c.2-.1.3-.2.5-.3.2 0 .3-.1.5-.2 0 0 0-.1.1-.1-.4-.1-.7-.3-1.1-.4-.5-.2-.3-.9.2-.7.4.1.7.3 1.1.4.9-2.9.7-6.5-3.2-6.4-.4.2-1.1.3-1.8.4zm-.5 3.3c-1 .3-1.7.6-2.6 0h-.1c-.5 0-1-.3-1.4-.6-.1-.1-.3-.2-.4-.3-.7 1-.5 2.2.8 3.8.8-.3 1.6-.6 2.4-1.1 1.1-.4 1.6-1 1.3-1.8zm-3.9-1.4c.3.1.5.3.7.5.2-.7.7-1.3 1.3-1.7h-.1c-.5.3-.9.6-1.4.9-.2 0-.4.1-.5.3-.1 0 0 0 0 0zm3.2.4c-.2-.2-.4-.4-.7-.6-.5.4.1.5.7.6zM-45-4.2c-.1.1-.2.2-.3.2 3.2.8 6.3 1.7 9.4 2.6 3.2.9 5.8 2.3 8.6 3.6-.4-.8-.2-1.7.2-2.5.2-.3.7-.1.6.3-.3.7-.2 1.5-.5 2.2 0 .1-.1.1-.1.1l2.4 1.2c-.2-.8 0-1.8.4-2.6.1-.3.2-.7.3-1 .3-.8 1-1.3 1.7-1.7 1-.7 2-1 3.1-1.4.1 0 .2-.1.2-.1.1-.1.3-.2.4-.2-3.6-.1-7.2 0-10.8-.6-4.2-.7-8.4-1.5-12.6-2.2-.6.3-1.2.4-1.8.7-.6.1-.9.6-1.2 1.4zm-1.8-2c-.8.3-1.3.6-1.9 1.2 0 0-.1 0-.1.1 1.1.3 2.2.5 3.4.8-.1 0-.1-.1-.1-.2-.3-.9.1-1.7.7-2.2-.1 0-.1-.1-.1-.1-.7.2-1.3.2-1.9.4zm-38.1-7.1c.2 0 .4.1.6.1h.1c.2.1.4.1.6.2 2.5 0 13 3.1 14.3 3.3 5.7 1.3 11.4 2.7 17.1 3.9 1 .2 1.9.4 2.9.7-.6-1 .8-1.9 1.5-2.2.1 0 .2-.1.3-.1-.3 0-.6-.1-.9-.1-6.8-1-13.4-2-20-4.1-2.9-.9-5.8-1.4-8.4-2.7-1.1-.4-2.5-.8-3.2-1.6-.7-.1-1.9.4-2.4.6-.2.1-.4.2-.7.3.9.4 1.8.8 2.7 1.1 1.7.5 3.4 1 5.1 1.6.2.1.2.4 0 .3-2.1-.2-3.9-.9-5.9-1.3-1.2-.2-2.5.3-3.4-.7-.3.2-.4.4-.3.7zm-8.6 7.5c.1 0 .1.1.2.1.2.3.3.7.4 1 0-.9.1-1.8.4-2.6.5-1.7 1.9-2.3 3.5-2.8.1 0 .2.1.1.2-.6.5-1 .9-1.6 1.3-1.1.7-1.4 1.8-1.4 3-.1 1.1.2 1.9.6 2.9.1.1.7 1.2.2 1.1.4 0 .7 0 1.1.1-.2-.5-.4-.9-.4-1.2-.2-1.4.3-3.1 1.4-4.1.3-.2.6.1.4.4-.7.9-.9 2.4-.7 3.5.1.5.3 1.1.7 1.4.1.1.2.1.3.2 4.2.4 8.4 1.3 12.6 2.4-.5-.7-.7-1.6-.5-2.4.2-1.4 1.2-2 2.2-2.6.3-.2.5.3.3.4-.7.5-1.7 1.1-1.9 2-.3 1.2.3 1.9.8 2.8.7.2 1.3.4 2 .5-.2-.4-.4-.9-.4-1.3 0-1.5.7-2.9 2.1-3.4.3-.1.5.4.2.5-.9.5-1.3 1.7-1.2 2.7.1.8.5 1.3 1.1 1.7.5.1 1 .4 1.5.5.4.1 1 .2 1.5.3-.1-.8.2-1.6.5-2.2.2-.4.8-.1.7.3-.1.5-.2 1.1-.1 1.6.1.3.2.7.3 1 1.4.4 2.8.8 4.1 1.1 6.1 1.6 12.8 2.7 18.8 5-.3-.8-.1-1.8.5-2.3.2-.2.6 0 .5.3-.2.5-.2 1.1 0 1.6l.3.9c.4.2.8.3 1.1.5-.1-.2-.2-.3-.2-.5-.2-.6-.3-1.9.7-1.8.3 0 .4.4.1.5-.5.3.7 1.9 1.1 2.5.1.1.3.1.4.2.2 0 .3.1.5.1-.2-.5-.1-1.1 0-1.7.1-.5.8-.5.8 0 .1.5 0 1.2.3 1.6.2.2.5.4.7.7.7.2 1.4.5 2 .7-.4-.5-.6-1.1-.9-1.6-.3-.4.3-.7.6-.3.5.6.9 1.4 1 2.2 1 .4 1.9.9 2.7 1.5-.4-.8-.5-1.8-.2-3.2.5-2.4 2.8-6.8 5.6-8l-1.5-.6h-.1c-.9-.3-1.9-.7-2.8-.9-.7-.1-1.4.1-2.1.1-1.2.4-2.3 1.5-3.2 2.3-1.1 1.1-1.9 2.2-2 3.8 0 .2-.3.3-.4.1-1.6-2.3 1.8-5.4 4.5-6.4-1.2-.4-2.2-1.1-3.3-1.6-.4-.2-.3-.8.1-.8.2 0 .3-.1.5-.1-.9-.3-1.8-.6-2.8-.8-5.6-1.4-11.2-3-16.9-4.3-5.6-1.3-11.2-2.5-16.8-3.9-3.3-.8-7.1-1.4-10.3-2.6-.1 0-.2.1-.3 0-1.4-.3-2.7-.6-4.1-.1 2.1.1 5.2 1.5 6.4 1.8C-74.7-9-67.8-8.2-61.5-6c.1 0 .1.2 0 .1-5.5-1.5-11.2-2-16.8-2.8-2.6-.4-5.3-.7-7.8-1.6-.4-.1-2.3-1-2.9-1.1-.1 0-.2-.1-.2-.2-.9.4-1.8 1-2.5 1.6-1.3 1.5-1.8 2.8-1.8 4.2zm24.5.7c5.9.9 12 2.1 17.7 3.9 2.5.8 5.1 1.5 7.7 2.1 1.7.4 3.3 1.4 5 1 .1 0 .2-.3 0-.3-4.3-2.1-9.6-2.5-14.2-4C-57.9-4-63.7-5.1-69-5.5c-.2.1-.2.4 0 .4zm-27.2 38.9h-.8c-.3 0-.8-.1-1.1.1-.1.1-.1.2-.1.3.1.4.6.4.9.4.4 0 .8-.2 1.1-.4.2-.1.2-.4 0-.4zm2.1.4c-.4 0-.7-.1-1 .2-.1 0 0 .1 0 .2.3.2.7 0 1 0 .3 0 .3-.3 0-.4zm3 2c-.1 0-.2-.1-.3-.1-.2 0-.4 0-.6-.1-.4 0-.8-.2-1.2.1-.1.1-.1.2 0 .3.3.2.6.2.9.2h1.2c.2 0 .3-.3 0-.4zm-8.8-3c.4 0 .9-.1 1.3-.1.2 0 .2-.4 0-.4-.4 0-.9-.1-1.3-.1-.3 0-.7 0-1 .2-.1.1-.1.2 0 .3.3.2.7.2 1 .1zm34.6-30.9c-.3-.1-.5.4-.1.5.6.2 1.3.3 1.9 0 .1-.1.1-.2 0-.3-.6-.1-1.2 0-1.8-.2zm.8-1.1c-.3 0-.3.5 0 .5.4 0 .8 0 1.1-.1.1-.1.1-.2 0-.3-.3-.2-.7-.1-1.1-.1zm4.6 2.6c-.5-.1-1.1-.2-1.6-.5-.3-.2-.5.3-.3.4.8.6 2.1.7 3 .8.1 0 .2-.2.1-.3-.3-.1-.8-.3-1.2-.4zm4.4 1.6c-.4-.1-.9-.2-1.3-.1-.2 0-.2.3 0 .4.8.3 1.9.7 2.8.5.1 0 .2-.2 0-.3-.4-.3-1-.4-1.5-.5zm-.7-1.2c.1 0 .2-.2 0-.3-.5-.3-1.1-.4-1.7-.3-.2 0-.2.4 0 .4.5.2 1.1.4 1.7.2zm3 1.1c-.2 0-.2.4 0 .4s.3 0 .5-.1c.1-.1.1-.2 0-.3-.2-.1-.3-.1-.5 0zm-5.3-13.4c.3.1.4-.4.1-.4h-.5c-.1 0-.1.2 0 .2.1.1.3.2.4.2zm-3.7-.8c.3.1.4-.4.1-.4-.2-.1-.4-.1-.6-.1-.1 0-.2.1-.1.2.1.2.3.2.6.3zm41 11c-.2-.3-.8 0-.5.3.3.5.8.8 1.4.6.1 0 .1-.2 0-.2-.3-.2-.7-.4-.9-.7zm1.8.8c.2 0 .3 0 .4-.2.1-.1.1-.3 0-.4s-.3-.2-.4-.2c-.5.1-.5.8 0 .8z"/></g></svg>