<svg id="Layer_1" xmlns="http://www.w3.org/2000/svg" viewBox="0 0 112.7 71.6"><style>.st0{opacity:.2}.st1{fill:#dc5b2b}</style><g id="XMLID_2_"><path id="XMLID_49_" class="st0" d="M29 55.9h-.5c-.3 0-.3.4 0 .4h.5c.2-.1.2-.4 0-.4z"/><path id="XMLID_48_" class="st0" d="M58.6 56.9c-1.7 2.4-14.3-1.7-17.2-2.3-3.1-.6-7-1.2-9.4 1.3-.3.3-.2.9.3 1.1 2.3.7 4.7.3 7.1.9 2.7.6 5.5 1.2 8.2 1.8 4.1.9 10 3.4 13.4.1.5-.2.9-.6.9-1.1v-.2c.4-2.3-2-3.4-3.3-1.6z"/><path id="XMLID_47_" class="st0" d="M87.9 50.9c-1.4-1.9-4-2.4-6-3.5-2.8-1.6-5.7-2.6-9-2.7-3.8-.1-7.4-1.4-11-2.7-1.9-.7-4.1-.9-5.4-2.5-.2-.2-.4-.3-.7-.4-.4-.2-.9-.2-1.3 0-.2.1-.4.3-.5.4-.6.4-.7 1-.4 1.6.1.1.1.3.2.4.1.2.2.3.4.3 0 .1.4.5.8 1 .8.8 2 1.6 3.1 1.9 3.8 1.2 7.4 2.4 11.2 3.4 3.8 1 7.1.4 10.8 2.4 2 1.1 4.8 3.1 7.1 2.4.7-.2 1.3-1.3.7-2z"/><path id="XMLID_46_" class="st0" d="M71.5 7.1c.1-2.6-3.7-2.5-4 0-.3 2.3-7.1 3.9-8.9 4.7-2.7 1.1-5.1 2.3-7 4.7-3.2 4-1 9.9 1.5 13.7.4.6 1.5.8 1.9 0 1-1.9-.3-3.7-.2-5.8.1-1.4-1.5-3.8-.3-5.1 1.4-1.5 3.2-3.1 5.3-3.6C64 14.5 70 12.7 71.3 8c.1-.2.1-.6.2-.9z"/><path id="XMLID_45_" class="st0" d="M48 16c-1.1-.6-2-1.3-3.2-1.7-1.4-.5-2.8-.7-4.2-1.1-1.2-.3-3.2-.1-3.8 1.1-.3.5.3.9.7.7.6-.3 3.1.7 3.7.9.8.2 1.6.3 2.4.7 1.1.5 2.1 1.1 3.1 1.7.7.4 1.7 0 1.9-.8v-.4c.1-.4-.2-.9-.6-1.1z"/><path id="XMLID_44_" class="st0" d="M81.5 36.6c-1 0-1.5 1-1.7 1.9-.1.7-.3 1.2-.6 1.8-.4.8-.7 1.8-1.3 2.5-1 1.1.5 2.6 1.6 1.6.1-.1.2-.2.2-.3 0 0 0-.1.1-.1.7-1 1.1-2.1 1.5-3.2.2-.5.4-1 .4-1.6 0-.2 0-1.2-.1-1.2.8-.3.7-1.4-.1-1.4z"/><path id="XMLID_43_" class="st0" d="M35.3 45.9c-.2-1.6-.3-2.9-.9-4.3-.2-.8-1.4-.9-1.8 0-.4 1.1-.1 2.4-.1 3.5 0 1.3.1 2.5 1 3.5.3.3.8.4 1.1.3 1.3-.5.8-2 .7-3z"/><path id="XMLID_42_" class="st0" d="M27.7 56.7c-3.1.3-5.6-.1-8.2-1.3-.2-.1-.5-.2-.7-.3-1.7-.9-2.6-3.6-4-5 .2-.2.3-.5.3-.8v-.4c.1.4 0-.2-.1-.3-.1-.3-.3-.7-.5-.9-.8-.7-2.2-.2-2.3.8-.1.2-.1.4-.1.7 0 .2-.1.2 0 0-.1.1-.1.2-.2.2-.2.1-.3.2-.4.4-.1 0-.1.1-.2.1-.3.2-.3.6 0 .9.2.1.4.2.6.2h.1c1.7 2.9 2.4 6 5.6 7.6.1.1.3.1.4.2 1.5 1.6 3.6 2.9 5.3 4.1.8.5 2.3.8 3.1.2.9-.7 1.5-2.6 2.3-2.9 1.7-.7.9-3.7-1-3.5z"/><path id="XMLID_41_" class="st0" d="M48.2 27.3c-2 1.8-5.8 2.2-6.7 4.9-.1.2-.1.4-.1.7-2 .6-4.4-.5-6.4.2-.4.2-.7.7-.4 1.1 0 .1.1.1.1.2.1.1.2.2.3.2 2.4 2 6.4 3.1 9.3 1.5 2.7-1.5 6.6-3.5 7.4-6.7.6-2.1-1.9-3.4-3.5-2.1z"/><path id="XMLID_40_" class="st0" d="M101.2 50.5c.1-.5-.1-1-.4-1.5-1.2-1.7-3.5-1.1-3.9.9-.2.2-.5.5-.8.7-.6.6-1.3 1.1-2 1.6-1.9 1.4-3.9 1.2-6.2 1.2-.6-.1-1.2.2-1.6.6-.4-.2-.9-.4-1.4-.7-2.1-1.3-4.2 1.6-2.6 3.4.8.9 1.8 1.3 2.9 1.8.2 0 .3.1.5.1.6.3 1.2.5 2 .6 2.5.5 4.7-.7 7.1-1.2 2.4-.5 4.2-1.8 6-3.4.6-.5 1-1.3 1-2.1.2-.9-.4-1.4-.6-2z"/><path id="XMLID_3_" class="st1" d="M101 48.4c-1.8-2.3-3.2-4.9-5.1-7.1-2.3-2.7-5.8-4.7-9.3-3.8.3-1.5.4-2.9-.6-3.5-1.6-1-4.3 1.7-5.3 2.6-.4.4-.8.8-1.2 1.3-.9.9-1.5 2.1-2.6 2.9-1.5 1-3 1.3-4.8 1-.7-.1-1.2-.2-1.9-.2-.1-.1-.2-.1-.3-.2-.6-.1-1.2-.1-1.8-.2-4.5-.9-8.9-2.5-13.5-3.2-.9 0-1.7.3-2.6.5l-.1.1c-1.5 1.2-1.5 3.7.1 4.7 2.4 2.5 6.1 3.2 9.4 4 4.9 1.2 9.9 2 14.8 2.7.5 2.5 1.3 4.9 2.2 7.2.6 1.5 1.5 4 2.9 4.9.3.2.6.1.9-.1.6-.6.7-1.6.7-2.6 2.3 1.2 6.1.9 8.2.9 2.4.1 4.6-1.5 6.4-2.8 1.4-1 5.2-2.8 5.6-4.8.5-1.9-1-2.8-2.1-4.3zm-15.5-5.2c.6-2 3.1-3.4 5.3-3.1 3.1.4 5.9 3.7 7.3 6.5-.1.5-.2 1-.3 1.3 0 .1-.1.2-.1.2-1 .9-1.8 2.1-3.1 2.8-1.5.8-3.1 1-4.7 1.3-.3-1.1-1.6-2.2-2.3-2.8-.5-.5-1.1-.9-1.7-1.3-.2-.1-2.1-1-2.5-1.1.8-1 1.3-2.2 1.7-3.4.1-.2.2-.3.4-.4zm-27.8-.7c0 .1 0 .3-.1.4-1-.3-2-.7-2.8-1.2-.5-.3-1.2-.8-1.3-1.5.1-.1.2-.2.5-.3.8-.2 1.7-.4 2.5-.2.3.1.7.2 1 .3.4.8.3 1.7.2 2.5zm2.5.3v.2c-.1 0-.1 0-.2-.1 0 0-.1 0-.1.1-.3.1-.6.1-1 0 .2-.9.2-1.8-.1-2.6.1 0 .1 0 .2.1.2.1.5.1.8.2.4.4.7 1 .7 1.6-.1.2-.2.4-.3.5zm5.2 1.7c-1-.3-2.5-.6-3.9-1.1 0-.7-.1-1.4-.3-1.9 1.3.3 2.5.5 3.7.7.4.6.6 1.2.6 1.9-.1.1-.1.3-.1.4zm1.7.3h-.3c0-.4 0-.8-.1-1.1-.1-.5-.2-.9-.4-1.3.5.1.9.2 1.3.2.3.1.6.1.9.2 0 .1 0 .1.1.2.2.3.2 1.2.3 2-.6 0-1.2-.1-1.8-.2zm3.1.4c-.1-.2-.1-.4-.2-.6-.1-.5-.2-1-.4-1.5l3 .6c0 .1.1.2.1.3.5.5.7 1.1.8 1.7-1-.3-2.1-.4-3.3-.5zm4.7.5c-.1-.7-.3-1.3-.7-1.9.8.1 1.6 0 2.3 0v-.2h.1c.2-.1.4-.2.5-.3.2 0 .3-.1.5-.2s.4-.3.6-.4c0 0 0-.1-.1-.1H78c.6-1.4 1.5-2.8 2.4-4 .5-.6 2.5-2.6 3.7-3.1.5 1.4-.5 3.7-.9 5-.4 1.3-1 2.6-1.7 3.7-.6 1-1.4 1.5-1.7 2.8-.2 1 .9 1.6 1.7 1l.1-.1c.1 0 .2.1.3.1.3.3.7.3 1.1.5 1.4.5 2.6 1.3 3.7 2.3.4.3.7.7 1 1-.3 0-.5.1-.8.2-.2.1-.3.1-.5.2-.4-.1-.7-.2-.8-.2-.4-.1-.8-.2-1.1-.3-.1 0-.2-.1-.3-.1 0-.1 0-.2-.1-.2-1.1-.5-2.2-1-3.2-1.6-.2-.2-.4-.3-.6-.5-.5-.4-.9-.9-1.5-1.2-.3-.2-.8-.6-1.1-.4l-.1.1c-.1-.1-.2-.1-.3-.2-.2-.6-.5-1.3-.6-1.9-.1-.6-1-.4-.9.3.1.4.2.7.3 1.1-.1-.1-.3-.1-.4-.2h-.1c-.3-.2-.6-.3-.9-.4.2-.5.2-.6.2-.8zm24.5 8.9c-.2-.4-.7-.8-1-1.2-.3-.4-.9 0-.6.4.2.3.5.7.7 1 .1.1.1.3.1.4-.8.6-1.8 1.2-2.7 1.7.3-1.1.3-2.4-.6-3.3-.2-.2-.5 0-.5.2-.1 1 .2 1.7-.1 2.7-.2.4-.4.9-.6 1.3-.1 0-.1.1-.2.1v-.1c-.8.5-1.7.9-2.6 1.1.5-.6.9-1.3 1.1-2 .2-.8.2-2-.5-2.5-.2-.1-.5.1-.4.4.3.6-.1 1.7-.4 2.3-.4.8-1.1 1.3-1.7 2-.7 0-1.5-.2-2.1-.4-1.9-.7-4.2-2.2-4.4-4.4 0-.1-.1-.1-.1-.2.3.1.5.2.7.2.8.3 1.7.5 2.6.4.2 0 .3.1.5 0 .4 0 1-.2 1.5-.4.3-.1.6-.3.9-.4.4-.1.7-.3.9-.7 2.4.2 5.8-.6 7.7-2.4 0 0 .1 0 .1-.1 0 0 .1-.1.1-.2.7-.7 1.1-1.6 1.2-2.5.6.9 1.3 1.8 1.9 2.5.9 1.2 0 2.7-1.5 4.1zM54 38.5h-.2c.1-.1.2-.1.2 0 0-.1 0-.1 0 0zm19.4 9.3c.2 0 .3.1.5.2-.4-.1-.7-.2-1.1-.2h.6zm-37.7-2.4zm-20.9 6.7c.1 1.2.5 2.4.7 3.6.1.3-.3.4-.5.2-1.1-1.6-1.2-3.5-1.3-5.4v-.1c.3.7.7 1.2 1.1 1.7zm47.3 6c-.2-.7-.5-1.5-1.1-1.9-.2-.2-.5-.2-.8-.1-.8-.6-1.8-.8-2.8-.6-3.7-.8-7.4-1.3-11.1-2.1-2-.4-4-1-5.9-1.5-1.2-.3-1.8-.8-2.7-1.1 0-.1-.1-.2-.1-.4.5-2-.2-4.5-.8-6.3-.5-1.4-1.8-4.7-3.7-4.7-1 0-1.5 1-1.8 2.1-.2-.3-.6-.6-.9-.7-1.3-.5-3.3-.6-5-.1h-.3c-.2-.1-.4 0-.5.1-1.1.2-2.1.5-3 .9-2.8 1.4-5.2 3.2-8 4.6-.9.4-3.9 1.3-3.9 2.8.2 4.1 4.1 9.5 7.3 11.9 1.6 1.2 5.6 2.9 8.3 2.8-.4.9-.8 1.9-.4 2.8.1.2.4.4.6.4 1.8-.2 3.5-2.1 4.7-3.2 1.3-1.2 2.6-2.5 3.8-4 .1 0 .2 0 .3-.1.4-.8 1.4-1.1 2.8-1.1 4.2 1.2 8.5 2.2 12.7 3.2 1.9.4 4.1.9 6.1.9.9.1 1.7 0 2.4-.2.6-.1 1.2-.3 1.7-.5 1.8-.2 2.6-2.2 2.1-3.9zm-35.9 3.7c0 .1-.1.1-.1.2H26c-.8.5-2.1.3-3.4-.2.8 0 1.6 0 2.3-.3.2-.1.3-.2.5-.3.6-.3 1.1-.7 1.7-1-.3.6-.6 1.1-.9 1.6zm2.7-6.7c-.1-.3-.2-.6-.4-.8-.1-.1-.2-.3-.3-.5.3 0 .6 0 1 .1.1.4.1.8.2 1.2h-.5zm-.9-2.8c-.8.1-1.6.2-2.4.4-1.2.3-2.9.7-3.8 1.7l-2.1-1.5c-.8-.4-1.6-1-2.1-1.5-1-1-2.1-2.5-1.9-4-.2.1-.3.1-.5.2-.5 3.2 3.2 6.7 6.2 7.7-.1 1.7 4.3 2.1 7.4 2.1-.4.5-.8.7-1.4.9-1.1.4-3.3 1.1-4-.3-.2-.4-.6-.2-.7.1v.2c0 .2.1.5.2.7-.2.2-.2.6.1.7-.5 0-.9-.1-1.4-.2-.1 0-.2-.1-.3-.1.1 0 .1-.1.1-.2-.3-.7-.5-1.4-.5-2.2 0-.6-.9-.6-.9 0 0 1 .1 1.7.9 2.3-1-.4-2.1-1.2-2.9-1.8-.1-.3-.2-.6-.3-1.1-.1-.9-.1-1.9.2-2.8.2-.5-.6-.7-.8-.2-.5 1.2-.6 2.7-.3 3.9 0 .2.1.3.2.5-1.2-1-2.3-2.1-3.2-3.5-.6-1-2.1-3.6-1.9-5.1.3-.4.7-.8 1.2-1.1 1-.9 2.2-1.5 3.4-2.1 1.5-.7 2.9-1.7 4.4-2.4.6-.3 1.2-.5 1.8-.5.5-.2 1-.3 1.5-.5 1.7.7 2.9 2.1 3.9 3.6 1.3 1.9.7 4 1.4 6.1H28zm-.3 2.9c-1.3 0-2.5 0-3.5-.5.4-.1.8-.2.9-.3.6-.2 1.3-.3 1.9-.4l.3.3c.1.1.2.4.3.5 0 .1 0 .2.1.4zm2.7-.2c-.1-.4-.1-.7-.3-1.1.2 0 .4-.1.5-.1h.1c.4.4.5.8.7 1.2h-1zm9.3-.4c0 .6-.3 1.3-.7 1.8-1.6 0-3.2-.1-4.7-.8h-.1c-.5-.3-1-.4-1.6-.5-.2-.6-.6-1.1-1-1.5.2-.2.3-.4.1-.7-1.3-3.4.2-7.5.9-10.8.1-.5.3-.7.5-.7 1.2 2 .9 5 .9 7.2.1.4.3.8.5 1.1 0 .1.1.1.1.2s.1.1.1.2c1.1 1.6 3 2.5 4.9 3.2.1.5.1 1.1.1 1.3zm5.5 2c0 .3-.1.5-.2.7-1.5-.5-3-.9-4.6-.9h-.1c.3-.6.4-1.3.4-1.9 0-.3 0-.6-.1-1 1.1.3 2.2.6 3.1.8.4.1.7.2 1.1.2.4.7.4 1.7.4 2.1zm4 1.1c0 .4-.2.8-.3 1.1-.5-.2-1-.4-1.5-.7-.4-.1-.9-.3-1.3-.4.3-.9.3-2-.1-2.8.9.2 1.9.4 2.8.6.5.6.5 1.4.4 2.2zm4.3.9c0 .8-.5 1.2-1 1.6l-.9-.3c-.6-.2-1.2-.4-1.8-.7.1-.4.2-.8.3-1.1.1-.7.1-1.5-.1-2.2 0-.1-.1-.2-.2-.3.8.1 1.6.3 2.4.4.1 0 .3 0 .4.1.2.3.3.5.4.6.5.7.6 1.3.5 1.9zm4 1.1c-.2.4-.5.9-.7 1.3l-.1.1c-.9-.1-1.9-.3-2.7-.5.4-.6.7-1.5.7-1.9.1-.6-.2-1.6-.7-2.4 1 .1 2 .2 3.1.3.5 1 .9 2 .4 3.1zm2.5.4s-.3.5-.4.5c-.2.1-.4.2-.5.3-.3.1-.7.1-1.1.1.4-.5.6-1.2.7-1.7.1-.6 0-1.7-.5-2.5.3.1.5.1.8.2.2 0 .5-.1.7-.1.5.4.7 1.1.8 1.8.1.4-.2 1-.5 1.4zM46 32.5c.8 1.2-.7 2.4-1.8 2.3-1.3-.1-2-1.3-1.7-2.5.1-.4.7-.3.7.1 0 .7.5 1.2 1.2 1.2s.9-.6 1.3-1.1c-.1-.2.1-.2.3 0zm27.2-23c-.1-1.1-.5-2.3-1.2-3.2-.7-.9-2.2-2.3-3.2-1.2-2.4-.6-6.6 1.3-8.2 2.2-3.9 2.2-9 4.2-11.3 8.3-1.9-1.3-3.9-2.5-6.3-2.8-1.3-.1-2.5-.1-3.7-.1-1 0-1.9.9-2.9.6-.6-.2-1.2.6-.9 1.1.7 1.1 1.4 2.1 2.2 3-1.5.9-2.5 2.3-3.1 4.1-.8 2-1.1 4.3-1.4 6.5-.1.4-.1 3.9.1 5.6 0 .2.1.5.1.7 0 .1.1.2.1.1h-.1v.2c.1.4.1.7.1 1.1 4 1.7 7.8 2.6 11.9.8 2.5-1.1 6.5-2.7 7.3-5.7.7.8 1.6 1.4 2.7 1.6.5.1.9-.2 1-.7.2-2.3.2-4.8.2-7.1 0-1.9-.2-2.9-.9-4.5.1-.2 0-.4-.1-.6-.2-.2-.3-.3-.6-.3h-.2c4.3-4.3 11.6-4.4 17.3-5.4.3.1.7-.1 1.1-.4.8-1.1.4-2.9 0-3.9zm-38.4 25c-.8-3.8-.1-7.2.7-10.9v-.1c1.2-1.4 2.8-2.5 4.7-2.6.4.1.7.1 1.1.1.4 0 .9.2 1.3.4-.4.1-.8.3-1.1.5-.1.1-.2.2-.4.3-1.3.7-2.4 2-3.1 3-1 1.2-2 3-1.6 4.6.6.3 1.2.4 1.9.7l.6.3c.7.1 1.5.1 2.3.1-.6 1.3-1.9 3.2-1.8 4.8-1.5-.2-3-.6-4.6-1.2zm13.6-1.3c-.9.5-1.9.9-2.8 1.3-1.7.8-3.4 1.1-5 1.1.1-.2.1-.5.2-.8.2-.8.6-1.6.9-2.4.2-.5.4-1.3.8-1.9.2-.1.5-.1.7-.2.4-.1.7-.1 1.1-.2.4.6 1 1.1 1.6 1.3-.1.3 0 .6.4.6.5.1 1 .1 1.4-.2.4-.3.6-.7.8-1.1.1-.1 0-.2 0-.3.1-.4.2-.8.1-1.2.3.4.6.7 1 .9-.2.8-.6 1.6-.9 2.5-.2.3-.2.5-.3.6zm-3.6-3.1c.9-.2 1.7-.5 2.5-.9.1.3.1.5.1.8-.2 1.2-1.8.8-2.6.1zm5-1.3v.3c-.4-.2-.7-.5-1-.9.4-.3.9-.6 1.3-1-.1.6-.3 1.3-.3 1.6zm6.1-14.5c-.3.2-.7.4-1 .6-1.2.8-3.3 2.5-3.3 4.2 0 1.1.4 1.7.9 2.6 1.3 2.5 1.3 4.5 1.4 6.9.2.3.4.7.6 1.1.1.2 0 .5-.3.5-1.6-.2-2.1-2-2.4-3.3-.2-1-.4-2-.7-3-.1-.1-.2-.3-.2-.4-.5-.8-1.7-.6-2 .3-1.4 4.3-6.7 4.8-10.6 5h-.4s0-.1.1-.1c0-.1-.1-.1-.1-.2.1-.4.2-.9.3-1.3.1-.1.1-.3.2-.4.8-2.8 4.7-5 7.6-4.7.1-.1.3-.1.4-.2.5-.2.6-.8.4-1.1 0-.3-.1-.5-.3-.7-.6-.3-1.2-.5-2-.7-1.5-.4-3.1-.7-4.4-1.6-.5-.3-.9-.9-1.1-1.4-.5-.5-.8-1-.6-1.9.3-1.2 2.2-1.2 3.1-1.1 2.9.3 5.3 1.5 6.9 3.6.2.1.4.1.6.1.4.1.7-.2.8-.4 1.2-1.2 2.4-2.2 3.6-3.1.6-.7 1.2-1.2 1.9-1.8.7.4.8 1.6.6 2.5zm4.5-2c-1 .3-2.1.8-3 1.2-.1-1.1-.6-2-1.3-2.4 1.1-.8 2.3-1.5 3.5-2 .1.1.3.2.4.3.4.5.5 1 .7 1.6 0 .5-.2.9-.3 1.3zm3.7-1.2c0 .1-.1.2-.1.3-.5.1-1 .2-1.6.4 0-.7-.4-1.5-1-1.9-.2-.4-.5-.9-.9-1.1 1.1-.5 2.2-.9 3.2-1.2.3.4.4 1.1.5 1.5h-.1c.1 0 .1.1.2.1.1.6 0 1.3-.2 1.9zm4.6-.4c-.9 0-1.7.1-2.6.3 0-.8-.3-1.8-.9-2.3h-.1c-.2-.4-.4-.9-.6-1.3 0-.1-.1-.1-.1-.2.8-.2 1.6-.4 2.5-.6l.1-.1h.2c.6.5 1 1 1.3 1.9.2.4.2.8.2 1.3v1zm1.5-2.1c.1.5.1 1.1-.1 1.5 0-.4 0-.7-.1-1.1v-.3c-.1-.4-.2-.7-.3-1.1-.2-.4-.4-.7-.6-.9.5.1 1 .4 1.5.8.1.1.2.3.4.4-.3.3-.5.5-.8.7z"/></g></svg>