<svg id="Layer_1" xmlns="http://www.w3.org/2000/svg" viewBox="-79 150 800 262"><style>.st0{fill:#fff}</style><g id="g3"><path id="path5" class="st0" d="M228.2 378.6c-29.8-19.2-70.2-22.5-135.3-4.5-69.5 16.3-92.6 26.8-123 5.8-11.7-10.3-15.9-27-12.8-50.9 7.3-39 26.9-76.6 61.7-118.2 19.4-21.7 37.5-40.3 61.3-47.7 18.2-4.7 16.5 9.7 14.3 11.7-2.3 0-6.2.4-9.3 2.3-2.5 1.9-9.2 8.1-9.6 16.3-.5 12.7 12.6 10 18.2 3.1 6.1-7.8 15.1-22.8 8-36.8-3-5-8.1-8.4-14.5-9.6-21.8-1.2-42.1 9.1-60.8 20.6-41 28.5-73.8 67.9-92.3 111.1-10.7 26.1-20.4 63.4-5.9 93.7 11.2 21.1 34.5 32.3 62.3 29.9 19.5-2 43-8.3 58.9-12.1 15.8-3.8 97-31.7 123.6 16.8 0 0 8.9-17.2 31-17.6 18.2-1.7 44.5 5.3 63.6 19.3-6.2-9.4-24.3-23.5-39.4-33.2z"/><path id="path7" class="st0" d="M101.2 215.7c-15.2-10-45.7 9.1-70.1 41.7-22.3 29.3-32 63.3-21.5 79 15.6 18.5 44.6-8.4 56.9-22.8l1.6-1.7c8.4-9 14.9-19.8 21.1-30.2 0 0 5.8-9.5 6-10 3.6-.7 7.8-1.7 12.7-3.1-.1.2-18.5 31.2-16.6 46.5.6 4.7.1 21.8 16.9 27 22.3 3.7 40.1-13.5 55.8-28.9 0 0 2.7-2.6 4.2-4-.4 1.5-.9 3.6-.9 3.6-6.5 22.7 2.3 27.4 7.8 29.2 16.6 4.8 36.5-19.3 36.6-19.3-.5 7.6-2 13.9 6 19 7.6 2.7 15.2-1.4 21.1-5.3 21-14.8 37.9-37.9 51.5-57.9h-8.7c-.1 0-21.5 31-35.4 37.7 0 0-2.5 1.3-4 .3-1.8-1.5-1.1-4.7 0-7 .1-.1 53.6-93 53.6-93h-25.3s-2.8 4.5-3 4.8c-.2-.1-.6-.9-.9-1.3-15.7-21.7-51.1 11.7-77.8 50.3-10.3 14.9-23.4 31.6-36.9 43.7 0 0-20.1 18.4-28.7 5.2-3.1-5.6-2.2-13.7-.4-19 10-28.5 27.2-54.3 46.8-69.9 5.5-4.3 11.6-5.6 14.5-3.7 2.8 1.7 3.3 5.9 1.5 8.7-4.6-.1-8.2 1.2-11.2 4.3-5.9 6.1-7.9 12.1-6 17.6 9.1 12.9 27.1-12.6 26.2-28.1-.3-5.6-3.3-10.8-7.7-13.4-6.6-4-16.7-2.9-23.2.2-8.7 3.3-22.5 14.8-30.6 23.7-10.1 11.2-27.6 23.6-33 22.2 1.8-4.7 16.5-34.8 1.1-46.1zM223 260.2c4.9-6.8 19.2-25 22.7-28.1 11.7-10.3 16.4-5.8 16.8-2.6-11 19.6-23.9 42.1-36 62.3 0-.1-3.8 5.8-3.8 5.8-5.4 8.2-10.8 15.2-19.6 20.1-1.3.4-3.3.5-4.7-.5-1.7-1.1-2.3-2.9-2.1-4.8.5-6.3 7-25.5 26.7-52.2zM85.5 272s-.2.7-.3.9l-11 17.9c-6.6 8.9-14.9 20-25.3 25.3-3.1 1-7.3 1.7-9.5-1-4.6-5.5-2.2-13.1-.3-19.2l.7-2.2c5.5-14.9 14.2-28.1 22.7-40.3.1-.1.3-.1.4-.1 0 .1.1.1.1.2 5.3 10.2 15.3 15 22.8 17.2 0 0 .1.1.1.2s-.1.4-.4 1.1zm10.4-21.1c0 .1-4.9 11.3-4.9 11.3-.7.6-1.8.3-3.1 0l-2.2-.4c-6.8-2.1-12-6.7-13.6-12.1C70 239.1 79 230.9 83 227.9c3.8-2.6 9.7-4 13.2-1.3 2.1 2.5 2.9 5.7 2.9 9.2 0 4.7-1.5 10.1-3.2 15.1z"/><path id="path9" class="st0" d="M415.5 284.8c-2.4-5.3-8.2-8.6-14.4-8.3-20 1.8-39.6 18.3-49.9 41.9-5.4 12.1-8.3 22.2-10.3 38.1 6.2-7.2 18.9-19 33.3-25.4 0 0 2-15.3 12-28.9 3.8-5.6 11.4-14.7 19.9-12.3 7.4 2.5 4.8 23.1-5.1 43-7.3 14.6-18.5 29.3-29.8 39.4-10 8.5-24.8 18.7-37.7 10.8-8.2-4.8-12.3-14.9-11.4-28 3.9-37 20.7-68.4 44.8-104.3 24.8-33.3 52.2-67.5 89.1-85.7 7.5-3.8 14.5-4.7 20.5-2.3 0 0-34.6 19-51.1 54.2-4.2 8.9-10 21-4.2 31.7 3.1 5.6 8.5 6 12.9 5.7 20.2-4.7 33.3-23.6 44-40.8 6.2-13.1 11.7-26.1 11.7-40.6 0-1.8-.1-4.1-.2-5.9 9.7-5.1 29.5 4 29.5 4 15.5 5.1 48.4 30.4 59.6 35.2 5.4-6.3 14.3-15.8 19.4-20.6l-7.3-4.5c-11.6-7.1-23.9-13.8-36-20.5-27.5-15-49.8-9.7-61.2-5.6-4.5 1.6-8.6 3-8.6 3-8.4-9.2-22.3-8.3-32.5-5.9-36.7 10.5-70.8 36.2-107.3 80.8-27.2 35-43.8 65.2-52.7 95-6.8 20.1-8.9 49.5 7.8 67 14.2 14.9 33 11.6 46.4 6.3 28.8-14.2 54.7-44.8 67.6-80 3.1-10.4 6.5-25.2 1.2-36.5zm66.3-110.3C478 218.3 444 244 435.5 246c-5.1 1-13.8-1.2-6-19.6 11.4-24.7 31-45.7 51.9-56.5.5 1.8.5 3 .4 4.6z"/><path id="path11" class="st0" d="M683.6 180.1c-18.3 10.4-37.3 17.1-60.2 14.8-6.4 7.2-12.6 14.6-18.3 22.2 32.2 8.2 66.4-10 85.5-27.4 20.2-17.5 30.5-39.5 30.5-39.5s-15.2 17.2-37.5 29.9z"/><path id="polygon13" class="st0" d="M337.7 216.5h-24l-13.5 22h24z"/><path id="path15" class="st0" d="M623.2 380.6c-2.6 1.8-6.2.4-4.9-3.6 3.4-10.2 16.8-31.1 16.8-31.1l37.4-66.3H647c-1.2 2-3.8 6.6-3.8 6.6-1.2-2-4.7-6.4-6.2-7.3-6.3-4-15.4-2.1-21.8 1.5-27.5 16.1-47.6 47.9-63.5 72.7 0 0-16.7 27.6-25.9 29.6-7.2.6-6.5-9.2-6.2-11.4 2.8-16.4 9.3-32 15.8-46.1 13.3-9.2 28.5-21.3 42.3-34.5 29.9-28.6 55.2-61 58.9-68.3 0 0-4 .8-8.7 1-23 32.1-70.2 78.8-84.5 85.8 6.3-15.2 47.2-87.9 82-122.7l5.5-5.3c8.5-8.3 17.2-16.8 24.1-18.2.7-.1 1.7 0 2.5 1.7.3 6.4-2.1 11.2-4.8 16.6l-3.9 7.9s5.5-1 9-2.2c4.2-7.8 8.8-16.6 7.1-27.1-.6-3.4-3-5.9-6.2-6.5-10.4-2-21.7 5.7-30.8 11.9l-.4.2c-46.8 36.7-86.3 89.5-120.9 161.7-2.5 1.9-12.2 4.2-13.8 3.1 3.4-7 7.7-16.5 9.9-26.7.4-2.9.7-5.9.7-8.9 0-6.3-1.5-12.2-7.2-16.3-6.6-3.3-14.8-1.8-20.3.7-24.7 10.2-43.2 35.6-56.5 56.4-7.2 13.3-14.3 27.4-16.3 43.7-1.4 12.7 1.4 20.9 8.7 25 7.4 3.8 16.8-.1 20.5-2.1 25-13.2 42.5-39.6 56.3-63.7.5-.1 8.1-.3 13.8-1.8.1 0 .1 0 .2.1-.3 1.1-3.3 9.9-3.3 9.9-8.7 25.6-12.8 43-4.5 53.4 11.8 14.6 31.3-.5 47.2-20.4-3.4 23.9 9 27.6 18.4 25.8 10.8-2.9 22.9-14.5 28.5-20.4-1.8 7-1.3 19.4 8.5 20.6 6.8 1.2 11.8-2.4 17.6-5.6 21-11.4 46.1-49.5 52.6-60.5h-8.5c-9.3 14-21 32.4-35.9 41.1zM435 378c-1.3-2-1.8-4.1-1.8-6.5-.3-14.4 15.2-40 26.1-54 4.6 10 14.9 16.4 21.2 19.1-7.8 17.3-34.4 54.3-45.5 41.4zm49.8-49.1c-.7.5-13.8-3.9-16.3-16-2.1-10.4 5-18.5 11.9-22.6 3-2.3 7.5-3.1 10.7-2 3 2.1 3.9 5.7 3.9 9.7 0 2.4-.3 4.9-.6 7.2 0 0-.1.4-.1.5-2.1 8.2-5.4 16.1-9.5 23.2zm104.6 44.5l-2.5 2.2c-3.5 3.1-7.1 6.5-11.5 4.8-1.2-.4-2.1-2-2.3-3.3-.2-9 3.9-17.3 7.8-25.5l1-2.1c11.3-18.9 24.5-41.1 43.8-56.6 3.3-2.3 6.8-4.3 10.5-2.8.9.8 1.9 2.2 1.9 3.6 0 .4-.4 1.6-.6 2-5.4 8.7-10.5 17.9-15.5 26.6-9.8 17.5-19.9 35.4-32.6 51.1z"/></g></svg>