<svg id="Layer_1" xmlns="http://www.w3.org/2000/svg" viewBox="0 0 90.7 40"><style>.st0{opacity:.6}.st1{fill:#c5cb79}</style><g id="XMLID_4781_" class="st0"><g id="XMLID_4787_"><g id="XMLID_154_"><path id="XMLID_158_" class="st1" d="M14.5 6.9l-1.5.3c-.2 0 0 5 0 5 24.5 2.4 49 3.4 73.6 3 .1 0 0-5 0-5-24.6.4-49.1-.6-73.6-3v5l1.5-.3c.4-.1-.3-5 0-5z"/></g></g><g id="XMLID_4824_"><g id="XMLID_81_"><path id="XMLID_152_" class="st1" d="M6 26l-1.5.3c-.2 0 0 5 0 5 24.5 2.4 49 3.4 73.6 3 .1 0 0-5 0-5-24.6.4-49.1-.6-73.6-3v5L6 31c.4-.1-.3-4.9 0-5z"/></g></g></g></svg>