<svg id="Layer_1" xmlns="http://www.w3.org/2000/svg" viewBox="-383 184.2 192.8 112"><style>.st0{fill:#fff}</style><path class="st0" d="M-203.4 290v-4.4h-166.4v4.4zM-302 230.6h-67.7v4.4h70.4c-1-1.5-1.8-2.9-2.7-4.4zM-271.3 230.6c-.8 1.5-1.6 3-2.7 4.4h70.2v-4.4h-67.5zM-270.6 200c-5.4-.4-26.5-.3-31.8 0v7.2c0 13.4 1.3 26.6 15.9 33.4 14.6-6.8 15.9-20 15.9-33.4v-4.4-2.8z"/><path class="st0" d="M-276.4 216c.4-.3.6-.5.7-1.4.1-.7-.6-2-2-1.9-1 0-1.7.5-2.1 1-.2.3-.3.5-.4.6-.7 1.3-.7 3.5 1 5.9 1.1 1.5 1.6 2.9 1.2 3.6-.2.3-.3.4-.5.5-.4.2-.7-.3-.8-.5-.1-.6-.8-2-1.4-2.8-1.1-1.7-1.2-3.6-1-7.5.5-9.4-5.2-9.1-7.7-8.7.2-.8-1.1-1-1.8-2h-.1c0 .1.2 1.2.4 1.4 0 0-.2 0-.6-.1-.6-.2-1.7-.6-2.8-1.5-.1-.1-.2-.1-.2-.1-.1.1.9 1.8 1.7 2.4.1.1.1.2 0 .3-.7.8-1.1 2.6-1.6 3-.2.1-.3.3-.4.7-.1.3 0 .4.2.5.2.1.1.4.3.5.1.1.4-.1.4-.1s-.3.3-.1.5c.1.1.3.2.3.2.2.1.5.1.7 0 .2-.1.7 0 .9 0 .9-.2 1.3-.2 1.7-.1s.9.1.9.1-.6.4-1.1.3c-.2-.1-.4-.1-.6-.1-.2 0-.3 0-.3.1v.1c.2.1.7.8.6.9s-.3.1-.4.1c-.3 0-.7-.1-.8-.2-.3-.2-.5-.3-.7-.2-.2 0-.3.2-.4.4-.2.3-.3.6-.6.7h-.1c-.2.1-1.1.6-1.2.7-.1.1-.2.2-.2.3 0 .1-.1.2-.1.3 0 .1-.1.2-.3.3h-.1c-.2.1-.7.3-.9.5 0 0-.1.1-.1.2-.1.1-.1.2-.2.3-.1.1-.1.1 0 .2.5.5 1.2.5 1.2.5s0-.4.3-.4c0 0 .8.8 1 .5.1-.2-.5-.4 0-1.5 0 0 .3-.4.5-.8 0-.1.1-.2.2-.3.2-.2.4-.5.8-.5.5 0 2 1.4 1.9 1.6 0 .1-.1.1-.3.1h-.3c-.3-.1-.6-.3-.7-.3-.1-.1-.5-.3-.7-.2l-.3.3c0 .1-.1.1 0 .2 0 .1.1.5.1.5 0 .1 0 .3-.1.5 0 0-.2.8-.3 1.1 0 0-.2.5-.2.6 0 0 .1.2.1.3 0 .1 0 .1-.2.2-.1.1-.7.9-.6 1.1 0 0 .2.3 1.4-.1h.1c.1 0 .1-.1.1-.4v-.1-.3h.2c.2 0 .6-.2.8-.4.1-.1.2-.2.1-.3-.6-.1-.8-.2-.9-1.2v-.5-.1c0-.2.3-.3.5-.3 1.3-.1 1.6 1.5 1.6 1.5.3 1.1 1.8 1.5 1.9 1.7 0 0 0 .3-1.5-.3-.1 0-.1-.1-.2-.1 0 0 .3.8.3 1.3 0 .4.2.9.3 1.2.5 1.3 1.1 2.1 2.2 2.8.1 0 .6-.4 1.3-.2.3.1.3.4.2.5-.5.7-.9 1.6-.6 2.1 0 .1-.1.4-.3.2-.3-.2-.1-.8-.1-.8s-.3.2-.3.3c-.1.2-.2 0-.2-.1 0-.3.3-.7.7-.7 0 0 .3-.6.5-.9 0-.1.2-.2-.2-.2-.7 0-1.1.5-1.3 1-.3.9.4 1.2.4 1.2s-.3 1.6 1.3 2.1c0 0 .3.8 1.7 1.5 2.5 1.3 2.1 2.8 2.1 2.8s-.5.2-.5.9c0 .2.1.4-.1.6-.1.1-.2.1-.2.2l-.2.2c-.2.3-.3.5-.3.6 0 .2.9.2 1.2.2 0 0 .2 0 .3-.1s.1-.2.1-.3v-.1c0-.1 0-.4.4-.4.5.1.7 0 .8-.1.2-.1 0-.3-.1-.4-.5-.5-.7-.9-.7-1.3 0-.2.1-.5.3-.7l.2-.2.1-.1c.3-.3.6-.7.6-1 0-.1-.2-.2-.4-.3-.2-.1-.4-.2-.4-.4 0-.3.1-.5.3-.6 1.1-.8 1.5-2 1.6-2.7.1-.3.1-.5.1-.5s.8.5 1.7-.1l.1-.1c.2-.2.4-.4.6-.7.2-.5.5-2.1-.9-4.2 0 0 0-.1-.1-.1-.2-.3-.4-.5-.6-.8-1.7-1.9-1.7-4.2-1.1-5.5 0-.1.2-.3.3-.4.3-.4.9-.9 1.6-.8 1.4.1 1.4 1.3 1.4 1.3 0 .6-.3 1.2-.7 1.5-.1 0-.1.1-.2.1 0 0-1.2 0-1.6.7-.1.2-.1.3-.1.6 0 1 .7 1.5 1 2 .2.3.5 1 .6 1.1 0 0 0-.6.8-1.1.5-.3 1.1-1.6.3-2.5-.2.1-.6-.3-.1-.6zm-15.5-8.2c-.1.1-.3.1-.5 0-.1 0-.1-.1-.1-.1l-.3.3s-.3-.1-.1-.2c.2-.1.7-1 .7-1 .1 0 .3.3.3.3l-.3.3h.3c.1.1.1.3 0 .4zm5.1-2.2c-.3.3-.4.5-.6 1.2-.2.4-.7.7-1.4.6l-.5-.1h.8c.3 0 .9-.4 1-1.1 0-.1 0-.2-.1-.3l-.5-.2c-.4-.2-1.3-.4-1.8.4-.1.1-.1.2-.3.1-.3-.1-1.7-1.3-1.6-1.3.1.1 1.1.7 1.8.7 1.3-.5 2.2-.5 3.1-.2.1 0 .4.1.1.2z"/><path class="st0" d="M-287.8 225.9c-.6-.7-.5-1.6 0-2.1.1-.1 0-.2-.1-.3-.4-.3-1-.9-1.4-1.4h-.2c-.3.1-.9.2-1.2.7-.4.6-.5 1.5.4 3.2.1.1.1.4-.3.4-.1 0-.3 0-.5-.1-1-.3-1.2-1-2-.5-.2.2-.5.1-.7.3-.1.1-.1.1-.2.3-.1.2-.2.2-.3.3-.1 0-.4.2-.6.6-.1.1-.2.3-.3.4 0 .1-.1.2 0 .3 1 .6 1.3.5 1.4.4 0-.1.1-.1.1-.3 0-.2.2-.1.3 0l.4.4s.1.1.2 0v-.1c0-.1 0-.2.1-.3 0-.1.1-.2.1-.3 0-.1 0-.3.1-.5 0 0 0-.1.1-.1.1-.1.2-.3.4-.3.4-.1.7.1 1 .1.3 0 .3.3.5.7.4.7 1.5 1.3 2.2 1.1.3-.1.5-.5.5-1.1 0-.5 0-1 .1-1.3 0-.1.1-.2.1-.3 0-.1 0-.2-.2-.2zM-359.1 246.3h12v20.6l-15.5 7.7h15.1l9-4.5V241H-353zM-312.5 250h-8.6v19.9l-4.5-3.1V250h-8.7v18.6l7 5.1 6.8-2.7 3 2.1h10.6l-5.6-4.1zM-281 273.1h8.6V250h-8.6zM-215.9 249.5l-6 2.8V250h-8.7v23.1h8.7v-18.3l3.5 1.9v4.8h8.8v-8.1zM-246.4 263.6h12.5v-10l-5.5-3.6H-255v17.9l8.5 5.2h13.1l-13-8v-1.5zm0-9.7h1.5l2.6 1.7v3.2h-4.1v-4.9zM-298.1 252.2V250h-8.7v33.2l8.7-3.8v-6.3h4.7l8.4-4.5v-13.9l-7.8-5-5.3 2.5zm4.5 14.8h-4.4v-12.5l4.4 2.9v9.6zM-267.5 273.1h8.6V241h-8.6zM-281 246.3h8.6V241h-8.6z"/><path class="st0" d="M-269.8 202.8v-3.7h-.4c-1.7-.1-5.7-.2-10.4-.3l2.1-5.5c-1.6 0-2.9 1-3.9 2.6h-2.3c-.3-1.2-1-2.2-1.9-2.9-.9.7-1.5 1.8-1.8 2.9h-2.3c-.9-1.6-2.3-2.6-3.9-2.6l2.1 5.5c-4.7 0-8.8.1-10.4.3h-.4v3.7c-.2 15.2-.3 31 16.6 38.7l.2.1.2-.1c16.8-7.7 16.8-23.4 16.5-38.7zm-16.7 37.8c-14.6-6.8-15.9-20-15.9-33.4v-4.4-2.8c5.2-.3 26.3-.4 31.8 0v7.2c0 13.4-1.4 26.6-15.9 33.4zM-211.6 269.3c-1.1 0-2 .9-2 2s.9 2 2 2 2-.9 2-2-1-2-2-2zm0 3.8c-1 0-1.8-.8-1.8-1.8s.8-1.8 1.8-1.8 1.8.8 1.8 1.8-.8 1.8-1.8 1.8z"/><path class="st0" d="M-211.3 271.3c.4-.1.4-.5.4-.5 0-.5-.6-.5-.7-.5h-.8v2.2h.3v-1h.4c.3 0 .4.1.5.4 0 .3.1.4.1.6h.3c-.1-.2-.1-.4-.1-.7 0-.4-.2-.5-.4-.5zm-.3-.2h-.5v-.7h.5c.2 0 .4 0 .4.3.1.4-.2.4-.4.4zM-278 213.5c1.4.1 1.4 1.3 1.4 1.3 0 .4-.1.8-.3 1.1.4-.2.7-.9.7-1.5 0 0 0-1.2-1.4-1.3-.7-.1-1.3.4-1.6.8.2-.2.7-.4 1.2-.4zM-288.5 218.4c-.1-.1-1.6-.6-1.9-1.7 0 0-.2-1.6-1.6-1.5-.2 0-.5.1-.5.3v.1h.1c1.3-.1 1.6 1.5 1.6 1.5.1.5.5.8.8 1.1 1.5.5 1.5.2 1.5.2zM-290.3 226.1c-.9-1.7-.8-2.7-.4-3.2-.6.4-1.1 1.4 0 3.6v.1c.6-.1.6-.4.4-.5zM-292.1 207.4l.3-.3s-.2-.3-.3-.3-.5.9-.7 1c-.2.1.1.2.1.2l.3-.3c0 .1 0 .1.1.1.2.1.4.1.5 0 .1-.1 0-.3 0-.4h-.3zM-279 217.3c0-.2.1-.4.1-.6-.3.2-.5.5-.5.9 0 1 .7 1.5 1 2 .2.3.4.8.5 1 0 0 0 .1.1.1l.3-.3c0-.1-.3-.8-.6-1.1-.2-.5-.9-1-.9-2zM-279.3 225.7s0 .2-.1.5c.3.1.8.2 1.4-.2.2-.1.4-.3.5-.5l-.1.1c-.9.6-1.7.1-1.7.1zM-292.6 217.9v.4c.2-.1.5-.2.6-.4l.4-.4c-.2.2-.6.4-.8.4h-.2zM-294.4 218.8c-.1-.2.5-1 .6-1.1s.2-.1.2-.2c0 0-.1-.2-.1-.3 0-.1.2-.6.2-.6.1-.3.3-1.1.3-1.1.1-.2.1-.4.1-.5 0 0 0-.4-.1-.5v-.2h-.1c-.1 0-.4.3-.3.5 0 .1.1.5.1.5 0 .1 0 .3-.1.5 0 0-.2.8-.3 1.1 0 0-.2.5-.2.6 0 0 .1.2.1.3 0 .1-.1.1-.2.2s-.7.9-.6 1.1c0 0 .2.3 1.4-.1 0 0 .1 0 .1-.1 0 0 .3-.3.3-.4h-.1c-1 .6-1.3.3-1.3.3zM-281.6 234c-.3 0-.4.2-.4.4.5.1.8 0 .8-.1l.3-.3c-.1 0-.4.1-.7 0zM-290.5 227.7c-.2-.4-.2-.6-.5-.7-.3 0-.5-.2-1-.1-.2 0-.3.1-.4.3l-.1.1h.1c.4-.1.7.1 1 .1.3.1.3.3.5.7.5.8 2.1 1.7 2.6.7-.7.3-1.8-.4-2.2-1.1zM-282.5 234.9c-.3 0-1.2 0-1.2-.2 0-.1.1-.4.3-.6-.5.4-.7.8-.6 1 0 .2.9.2 1.2.2 0 0 .2 0 .4-.1l.3-.4c-.2.1-.4.1-.4.1zM-295.1 228c-.1-.1-.1-.2 0-.3.1-.2.2-.3.3-.4-.2.2-.5.5-.6.8 0 .1-.1.2 0 .3 1.1.7 1.4.5 1.4.4l.3-.3c-.2.1-.4.2-1.4-.5zM-281.4 231.5l.2-.2c-.1.1-.1.2-.2.2z"/><path class="st0" d="M-293 228.5c-.1-.1-.3-.2-.4-.4-.1-.1-.3-.2-.3 0 0 .1-.1.2-.1.3l.1.1.4.4s.1.1.2 0l.4-.4c-.2.1-.3 0-.3 0zM-286.9 205.4c-.9-.3-1.9-.2-3.1.2-.7 0-1.7-.7-1.8-.7-.1-.1 1.3 1.1 1.6 1.3.2.1.3 0 .3-.1.5-.8 1.4-.6 1.8-.4l.5.2c.1.1.1.2.1.3-.1.7-.7 1.1-1 1.1h-.8l.5.1c.7.1 1.2-.2 1.4-.6.2-.7.3-.9.6-1.2.3-.1 0-.2-.1-.2zM-290.8 211.8c.1-.1-.4-.7-.6-.9v-.1l-.4.4v.1c.1.1.4.4.5.6.3.1.4 0 .5-.1zM-291.1 202.8l-.4.4s.1.5.2.9c.3.1.6.1.6.1-.3-.2-.6-1.3-.4-1.4z"/><path class="st0" d="M-289.4 210.6s-.6 0-.9-.1c-.4-.1-.8-.2-1.7.1-.2 0-.7-.1-.9 0-.2.1-.4.1-.7 0 0 0-.2-.1-.3-.2-.2-.2.1-.5.1-.5s-.3.1-.4.1c-.2 0-.1-.4-.3-.5-.1-.1-.3-.2-.2-.5.1-.4.3-.6.4-.7.5-.4.9-2.3 1.6-3 .1-.1.1-.2 0-.3-.8-.7-1.9-2.3-1.7-2.4 0 0-.3.4-.4.4-.1.1.9 1.8 1.7 2.4.1.1.1.2 0 .3-.7.8-1.1 2.6-1.6 3-.2.1-.3.3-.4.7-.1.3 0 .4.2.5s.1.4.3.5c.1.1.4-.1.4-.1s-.3.3-.1.5c.1.1.3.2.3.2.2.1.5.1.7 0s.7 0 .9 0c.7-.2 1.1-.2 1.4-.2.1 0 .3 0 .6.1.5.2 1-.3 1-.3zM-295.3 215.5c-.3 0-.3.4-.3.4s-.8 0-1.2-.5v-.2s.1-.2.2-.3c-.1.1-.2.1-.2.2-.1.1-.2.4-.3.4-.1.1-.1.1 0 .2.5.5 1.2.5 1.2.5l.4-.4s.8.8 1 .4l.4-.3c-.4.4-1.2-.4-1.2-.4zM-290.9 214.4c.1-.2-1.4-1.6-1.9-1.6-.4 0-.7.3-.8.5.1-.1.3-.1.5-.2.4 0 1.3.8 1.7 1.2h.3c.1.2.1.2.2.1zM-278 223.8c.4-.8 0-2.1-1.2-3.6-1.7-2.4-1.7-4.6-1-5.9.1-.1.2-.4.4-.6-.4.4-.7.8-.8 1-.7 1.3-.7 3.5 1 5.9 1.1 1.5 1.6 2.9 1.2 3.6 0 .1-.1.1-.1.2 0-.1.2-.3.5-.6zM-282.9 233c0-.7.5-.9.5-.9s.4-1.5-2.1-2.8c-1.4-.7-1.7-1.5-1.7-1.5-1.6-.4-1.3-2.1-1.3-2.1s-.7-.4-.4-1.2c.2-.4.5-.9 1.3-.9.3 0 .2.1.2.2-.2.3-.5.9-.5.9-.4 0-.6.4-.7.7 0 .1.1.2.2.1l.3-.3s-.1.6.1.8c.2.2.3-.1.3-.2-.3-.5.1-1.4.6-2.1.1-.1.1-.5-.2-.5-.7-.1-1.2.3-1.3.2-1-.7-1.7-1.4-2.2-2.8-.1-.3-.3-.8-.3-1.2-.1-.6-.3-1.3-.3-1.3l-.4.4s.3.8.3 1.3c0 .4.2.9.3 1.2l.6 1.2h.2c.4.5 1 1.1 1.4 1.4.1.1.2.2.1.3-.5.6-.7 1.5 0 2.1.1.1.1.1 0 .3 0 0-.1.1-.1.3 0 .5.2 1.4 1.3 1.7 0 0 .3.8 1.7 1.5 2.5 1.3 2.1 2.8 2.1 2.8s-.5.2-.5.9v.4c.1-.1.2-.1.2-.2.4-.3.3-.5.3-.7z"/></svg>