<svg id="Layer_1" xmlns="http://www.w3.org/2000/svg" viewBox="-383 184.2 156 192.8"><style>.st0{fill:#fff}</style><path class="st0" d="M-275 292.5s-1.3 2.8-2.6 3.8-2.6 1-2.9 1c-.4 8.6-5.9 14.8-13.3 14.8-3.7 0-6.5-2.2-6.5-6.3v-.5c-1.9 3.1-6.4 8.3-10.5 8.4-1.2 0-3.3-.2-3.3-3.2 0-1.3.6-3.2 1-5.1.5-2.1 1.6-5.6 1.7-6.4v-.2c0-.5-.2-.8-.8-.8-.9 0-3.5 1.4-5.4 8-.6 2-1.8 5.4-2.3 6.9-.8 2.1-5.2 3-6.3 3-.9 0-1.4-.2-1.4-.8 0-.1 0-.2.1-.3.4-1.5 1.9-5.4 2.6-7.8.4-1.2 2.5-6.7 2.5-7.2 0-.2.1-.3.1-.5 0-.4-.1-.6-.6-.6-1.2 0-4.7 5.2-8.5 11.6-3.1 5.2-6.9 8.7-10 9.2-4.4.6-7.6-7.5-9.5-7.2-.4 1.9-.9 3.7-1.3 5.6-.3 1.4-.6 2.9-.9 4.3l-.3 1.7c0 .1-.1.3-.2.6-.4 1.6-5.7 4.7-8.4 5.3-.7.2-.8-.2-.9-.5-.1-.2 0-.8 0-1 1-4.3 2.3-8.7 3.9-14.2-1.1-.2-2.2-.3-2.1-1.9.1-1.9 2.1-3.8 4.1-4.3.9-3.1 1.6-5.9 2.3-7.8l.2-.6c-4.9.4-9.5 2.1-13.1 7.9-.3.5-.6.8-1 .9s-1.1-.1-1.2-.7c0-.2 0-.6.2-1.1 2.9-7.2 9.8-11.6 16.6-12.3.6-1.4 2.7-4.9 7.1-4.9 1.8 0 4 1 4 3.4s-1.8 4.6-5.3 5.7c-.9 2.7-1.4 5.2-2.3 8.6 0 0 1-.4 1.5-.8 3.8-3.2 8.1-9.4 10.7-13.1 4.6-6.3 7.4-8.8 18.2-9.9.7-.1 1.4-.1 2 0 .4.1.6.4.6 1 0 .5-.5 1-1.3 1.1-.8.1-2.5.5-3.5.8-3.6 1.1-6.8 3.1-9.9 8.2-4.4 7.1-7.5 11.1-13 13.4-.8.4-.8.3-1.3.5.4.1.7.3 1.2.6 1.1.7 2.2 1.9 3.3 2.7 1.1.9 1.7.7 2.2.6 1.8-.6 3.4-2.5 5.6-6 1.6-2.5 3.4-5.3 5.5-8.1 1.3-1.7 5.4-6.2 9.6-6.2 1.9 0 2.8.7 2.8 2.1 0 .4-.4 2-.8 3.1 1.9-2.8 5.4-6 9.5-6 2.2 0 3 1.4 3 2.7 0 1-1 4.4-1.4 6-.5 1.9-1.5 5.4-1.5 6.1 0 .8.2 1 .8 1 1.2 0 5.1-4.1 5.8-6.7 1.8-6.1 6.6-10.1 12.5-10.1 2.8 0 5 1.2 6 3.6.1.2.4.5.7.5 1.3-.3 1.9-1.2 2.4-2.5-1-.6-1.7-1.7-1.6-3.3.1-2.2 1.4-4.2 3.8-4 1.9.2 2.5 1.5 2.5 2.5 0 .3 0 .6-.1 1 4 0 6.8.2 6.8 3.1 0 1-.6 3.5-1 4.7-.3 1-1.5 4.9-1.6 5.7 0 .1-.1.3-.1.4 0 .4.2.6.6.6.6 0 1.1-.5 1.4-.8 1.2-1.4 5.6-9.4 6.4-14.1-1.3-.4-2.1-1.6-2.1-3.1 0-2.6 1.5-4.9 3.7-4.9 1.7 0 2.9.9 2.9 2.6 0 .3 0 .5-.1.8 5.8 0 7.9.5 7.9 3.3 0 1.7-.7 4.2-1.2 5.9-.3 1.2-1 3.6-1.2 4.6-.1.5.2 1 .7 1 .4 0 1-.3 1.5-.8 1.1-.9 2.1-2 3-3.2.2-.3.7-.6 1-.6.6 0 1.1.5 1.1 1 0 .1 0 .2-.1.4-.6 2-6.4 10.6-12.2 10.6-1.4 0-2.8-1.2-2.8-3.2 0-1 .7-3.7 1.5-6 .7-2.1 1.9-5.5 2.1-6.5.2-1.3-1.4-1.4-2.6-1.4-2.4 7.1-7.8 21.9-16.3 21.9-.7 0-3.2-.1-3.2-3.1 0-1.7 1-3.9 1.9-6.4.4-1.3 1.7-5.6 1.7-6.5.5-.9-.3-1.2-1-1.3zm-16.9 15.4c3.4 0 4.5-7.9 4.5-10.7 0-1.3-.2-3.2-1.8-3.2-3.4 0-4.5 7.9-4.5 10.7 0 1.3.2 3.2 1.8 3.2z"/><path class="st0" d="M-373.7 296.4c10.4-17.5 27.4-26.4 48.2-30.1 18.6-3.3 39-2 54.9-5.8 21-5.1 28.2-11.2 32.3-19.5-3.8 15.3-19.4 25.7-44.4 29.8-24.8 4-36.2.1-61.2 7.5-11.1 3.3-16.3 6.5-21.7 10.5-4.5 3.3-8.1 7.6-8.1 7.6z"/><path class="st0" d="M-331.4 263.1c22.4-5.3 37.6-2.4 58.6-5.4 6.3-.9 11.2-1.9 15-3.1v-62.5h-95.3v80.1c5.9-3.8 13-7 21.7-9.1zM-270.6 262.1c2.5-.6 4.9-1.3 7-2-2.1.7-4.4 1.4-7 2zM-325.5 267.9c-1 .2-1.9.4-2.9.5 1-.2 2-.3 2.9-.5.1 0 .1 0 0 0 .1 0 .1 0 0 0zM-373.7 361.4c10.4-17.5 27.4-23.2 48.2-26.9 18.6-3.3 39-2 54.9-5.8 21-5.1 28.2-14.4 32.3-22.7-7.1 7.1-10.8 11.8-34.9 15.6-20.9 3.3-35.9.7-58.2 6.1-28.3 6.8-40.6 26.3-42.3 33.7z"/><g><path class="st0" d="M-257.7 323v-.2c-1.9.9-3.9 1.7-6.1 2.4 2.3-.7 4.3-1.5 6.1-2.2zM-282.7 335.8c-24.8 4-37.4.2-62.3 7.6-3.2.9-5.8 1.8-7.9 2.7v21.7h.1l.1-.1 1.1-.7c1.8-1.2 5-2.6 8.5-3.7 2.6-.8 5-1.5 7.4-2.1 1.7-.4 4.2-.9 7.4-1.4 3.3-.6 5.8-.9 7.5-1h.7c.2 0 .5 0 1.1-.1.3 0 .7-.1 1-.1l.9-.1.9-.1.9-.1c.5 0 1.2-.1 2.5-.1l1.7-.1c1.1 0 2.3-.1 3.5-.1h5.9c1 0 1.7 0 2.3-.1.5-.1.9-.1 1-.1h.6l1.6-.1h.7l.8-.1 2-.2c.8-.1 1.8-.2 3-.3 5.8-.6 9-1.1 13.5-2 4.9-1 9.4-2.2 13.2-3.5 1.8-.6 2.8-1 5.3-2v-21.5c-6.7 3.5-15.1 6.1-25 7.7z"/></g></svg>