<svg id="Layer_1" xmlns="http://www.w3.org/2000/svg" viewBox="0 0 125 106.3"><style>.st0{opacity:.2}.st1{fill:#fff}</style><g id="XMLID_2_"><path id="XMLID_78_" class="st0" d="M73.9 7.6c-.3-.4-.9-.4-1.2 0-.9 1.4-1.1 2.7-1.2 4.4-.2 2.6-.8 5-1.9 7.4-1.3 2.9-3.6 4.8-2.7 8.4.2.6 1 1 1.5.6 2.6-1.6 4.3-5.6 5.5-8.4 1.7-3.7 2.4-9 0-12.4z"/><g id="XMLID_74_"><path id="XMLID_76_" class="st0" d="M98.4 55.4c-2.4-1-5.3-1-7.9-1.5-3.3-.6-6.8-2-9.8-3.4-3-1.5-5-3.4-7.1-5.9-.8-.9-1.5-1.6-2.3-2.2-.5-.4-1-.9-1.5-1.2-.2-.1-.4-.2-.5-.2-.6-.4-1.2-.7-1.9-1.1-1.1-.6-2.5.7-1.8 1.8.1.2.3.4.4.6.6 1.8 2 3.3 3 4.9v.4c.1 1 .1 2 .6 2.8.3.5 2.5 1.6 2.5 1.7 0 .5.2 1 .5 1.3-.1-.2 0-.2.2.2.1.2.1.4.2.6.4 1.2 2.1 1.5 2.8.7l.8.8c.6.6 1.2 1.3 1.9 1.9.8.7 1.8.4 2.3-.2.9.7 2.4.8 3.1 1.5.7.6 1.9.5 2.4-.2.1 0 .1.1.2.1.5.5 1.4.8 2.1 1.2 1.1.6 2.4-.4 2-1.6 0-.1 0-.2-.1-.2.1.1.2.2.3.2.5.2 2.1.5 2.5.8 1.2.7 2.4-.6 1.9-1.7h.1c.9.9.9.8 2.6.6 1.7-.2 1.9-2.2.5-2.7z"/><path id="XMLID_75_" class="st0" d="M72.7 53.4l-.2-.2c.1.1.1.2.2.2 0 .1 0 .1 0 0 0 .1 0 .1 0 0z"/></g><path id="XMLID_73_" class="st0" d="M119.2 46.8c-.6-1.1-1.9-2.2-3.2-2.4-1.3-2.1-2.5-4.3-4.6-5.8-2.4-1.8-5.2-2.9-7.8-4.5-2.1-1.2-3.8-2.2-6.3-2.1h-.1c-.2-.1-.3-.2-.5-.2.2-.7-.6-1.2-1.1-1.3-.8-.2-1.6 0-2.5-.1-.4-.2-.8-.3-1.2-.4-.8-.2-1.8-.2-2.6-.5 0-.2-.1-.3-.1-.5-.2-.3-.7-.4-.9-.1-.8 0-1.3.9-.7 1.5 1.3 1.4 3.8 1.4 5.5 2.2 1 .5 2.1.7 3.1 1.2.2.3.5.6 1 .6.2 0 .3.1.5.1.8.4 1.6.8 2.6 1 .2 0 .3 0 .4-.1 3 1.1 6 2.9 8.4 4.4 2.2 1.3 4.2 4.3 5.1 6.6.6 1.5.1 2.8.8 4.3.4.8 1.8.8 2.2 0 .7-1.2 2.8-2.5 2-3.9z"/><path id="XMLID_72_" class="st0" d="M68.9 64.1c-.3-.2-.6-.5-.8-.7.4 0 .7-.3.9-.7.8-.4 1-1.7.3-2.3-.3-.3-.8-.7-1.3-1.1-.2-.3-.5-.7-.7-1 1 .1 2-.7 1.7-1.8-.4-1.5-1.7-2-2.9-2.6.4-.4.6-1.1.3-1.8-.4-.9-1.2-1.7-2-2.3-1.6-1-2.4-2.9-3.7-4.3-.7-.7-1.8-.4-2.2.4h-.6c-1.3-.3-4.5-.8-4.9-.7-.8.1-1.6.8-1.3 1.7v.2c-.6.2-1.1.6-1.4 1.1-1.2.2-2.9.4-3.5 1.7-.3.6-.2 1 .2 1.5-.6-.7-2.7-.1-3.4-.1-1.9.1-3 1.3-4.2 2.6-.4.5-.4 1.1 0 1.6v.1c-1.6.6-3 1.1-4.3 1.2-.8.1-.9 1.4 0 1.3 5.3-.3 10.4-4 15.8-3.5 3.3.3 6 .9 8.5 3.4.9.9 1.1 2.4 1.2 3.7-.7 5.8-2 11.4-7.3 15.4-2.6 2-5.8 3.6-8.2 5.9-1.5 1.4-2.3 3.4-3.9 4.7-.1.1 0 .3.2.3 2.3-.5 3.3-2.3 5.1-3.8.8.3 1.3.5 2.1.3.4-.1.7-.5.7-.9 0-.7 1.5-1 2.9-1.4.1.2.4.3.7.1l.9-.6c.4.5 1.3.6 1.8-.1.9-1.3 2.1-2.4 2.8-3.9.4-.2.8-.2 1.2 0 .3.2.7.1 1.1 0 0 .2-.1.4-.1.6-.1.7 1 .8 1.2.2.2-.8.4-1.5.6-2.3l.3-1.2c.6-.6 1-1.2 1.4-2h.3c.6.3 1.4.1 1.6-.7.1-.2.1-.3.1-.5v-.1c.1-1.5.3-3.3.7-4.9.1.1.3.2.4.3.5.2 1.1.2 1.5-.2.4-.5.6-.7.8-1.2.1-.5 0-1.2-.6-1.6z"/><path id="XMLID_71_" class="st0" d="M61.4 36.4c-1.9-3.5-3.5-5.4-2.9-9.8.6-4.1 3-7.7 2.2-11.9-.1-.6-1-.6-1.2-.2-2.7 4.7-4.6 9.5-5.2 14.9-.1 1.2.1 2.5.5 3.8-1.4-2.2-3.7-4.1-5.4-5.2-8.1-5.3-21.9-6.3-30.5-1.3-2.3.7-4.3 1.8-5.8 3.4-.1.1-.1.3-.1.4-2.1 1.2-4.9 2.7-6.2 4.9C6.5 36 4 38.3 5 38c-.6.2-.9.9-.6 1.4 0 .1.1.1.1.2.3.3.6.4.9.4h.1c.4 0 .7-.2.9-.5 0 .1 1.2-.6 1.6-.8 1-.6 2.1-2.6 2.5-2.9.8-.6 1.6-.9 2.4-1.6 5-4 11.6-4.4 17.6-5.5 1.8.1 3.6.3 5.5.7 3.6.7 7.3 1.6 10.6 3.1 1.5.6 6.8 4.2 4.2 6.1-.4.3-.8.9-.6 1.4 0 .1.1.2.1.2.3.7 1 1.1 1.7.7.1-.1.2-.1.4-.2-.2.7.4.1.9-.6 1.2-.9 2.5-2.1 2.5-3.2 0-.3 0-.6-.1-.9 1.3 2.3 3.1 4.3 5.1 5 .7.3 1.5-.4 1.5-1.1.1-1.6-.1-2-.9-3.5z"/><path id="XMLID_3_" class="st1" d="M57.3 71.1c0 .3-.4.2-.4-.1-.2-3.7-.1-7.5-3-10.3-1.9-1.8-4-3.5-6.3-4.9-.1 0-.1-.1-.1-.2-1.7 1.9-3.3 4.4-4.6 6.8 1.4.3 2.2 1.9 2.9 3.2 1.2 2.3 1.4 4.4 1.6 6.9 0 .2-.3.3-.4.1-.5-1.8-.5-3.8-1.4-5.5-.7-1.5-1.4-3.5-3-4.2-1.1 2.1-2.1 4.1-2.9 5.6-.4.8-.8 1.7-1.2 2.5 2.4 1.9 2.5 5.4 2.2 8.3 0 .2-.3.2-.3 0-.2-2.8 0-5.8-2-8-2.2 5-3.8 10-5.3 15.3-.1.3-.5.2-.5-.1.6-5 2.1-10 4.2-14.6-3 1.8-6.2 2.8-8.1 6-.2.3-.6 0-.4-.2 1.8-3 5.1-5.1 8.4-6 .1 0 .2.1.2.2 1.1-2.5 2.4-4.9 3.8-7.2 2.1-3.5 6.2-12.3 11-12.1.1 0 .1.2 0 .2-1.4.4-2.8 1.4-4 2.8h.1c6.3 3.3 10.9 7.9 9.5 15.5zm63.1-23.4c-2.5 2.1-5.4 4.2-8.6 6h-.3c-.7.1-1.4.2-2 .5-.3.2-.4.6-.1.8h-.1c-.2.3-.6.5-1 .5h-.2c-.2.1-.5.2-.7.3-.4-.1-.7-.2-1.2-.2s-.9.2-1.2.5c-.1.2-.1.4 0 .6 0 0-.1 0-.1.1-.2.2-.6.4-1 .4-.9-.1-1.8-.3-2.8-.2-.3 0-.5.3-.4.6.1.2.2.4.3.5-.4.1-.8.3-1.3.4-1.1-.1-2.2-.2-3.2-.4-.2 0-.5.1-.4.4.1.3.2.6.4.7-.2 0-.5.1-.7.1-.2-.1-.5-.1-.7-.2-1.2-.3-2.3-.6-3.5-.6-.3 0-.4.3-.4.5 0 .3.1.5.2.7h-.1c-.1 0-.1.1-.2.1-.4.1-1.1.2-1.9.1-.2-.1-.5-.2-.7-.3-.7-.3-1.3-.7-2.1-.8-.2 0-.3.1-.3.3 0 .1.1.3.1.4h-.1c-.4-.1-.8-.1-1.2-.2h-.1c-.5-.1-.9-.2-1.4-.3-.2-.1-.3-.2-.5-.3-.5-.3-1.1-.7-1.7-.9-.2-.1-.4.1-.3.3 0 .1.1.2.1.3-.1 0-.1 0-.2-.1-.2.4-.9.5-1.2.1-.4-.5-1-.8-1.6-1.1h-.1c-.5-.7-1.1-1.4-1.8-2-.2-.2-.7-.2-.8.2 0 .2-.1.4-.1.6-.2.2-.6.4-.9.2-.4-.5-.9-1-1.4-1.5-.3-.4-.7-.7-1-1.1-.3-.4-.9-1-1.1-1.5v-.1l-.1-.1h-.1-.1s-.1 0-.1.1V52.4c-.2.6-1.2.6-1.2-.1 0-.6-.3-1.2-.6-1.7-.8-.9-1.5-2-1.9-3.2-.3-.9-.4-2-.7-3.1-.8-1.3-1.6-2.6-2.9-3.4-.5-.2-1-.4-1.7-.2-.8.3-1.3.8-1.8 1.4 0 .2-.1.4-.1.6-.1.5.2.9.5 1.4.1.1.1.2.2.3.5.4.8.9 1.2 1.5.1.1.2.2.2.4.7.2 1.3.4 1.7.9.2.3.3.7-.1.9-.1 0-.2.1-.3.1.1.1.1.2.2.3.4.3.8.5 1.1.8.9.6 1.9 1.3 2.6 2.1.7.8.1 1.3-.7 1.7 0 .1.1.2.1.2.2.1.5.2.7.3.9.4 1.7.8 2.4 1.5.2.2.3.4.3.6v.4s0 .1-.1.1v.1l-.1.1c-.3.3-.8.6-1.3.8h-.2c-.1 0-.2.2-.1.3.2.3.3.7.5 1 .2.4.5.8.9 1 .2.1.3.3.5.4.1.2.3.4.4.6.3.3.6.7.8 1.2.1.2 0 .4-.1.5-.3.3-.8.5-1.2.6v.4c.4.2.5.6.7.9.2.3.4.6.5 1 .1.5.2 1.3-.3 1.6-.5.4-1.4.2-2 .3-.3.1-.7.1-1 .2h-.1-.1-.1c0 .1 0 .1.1.2-.1.2-.1.3-.2.5v.9c0 .7.1 1.5 0 2.2v.3c-.2.6-.4 1.1-.7 1.7 0 .3-.1.6-.2.8-.1.1-.2.3-.3.3h-.3c-.2.1-.5.1-.8-.1-.2-.2-.6-.3-.9-.4l-.5.5-.3.9c-.4 1.2-1.2 2.3-1.6 3.2-.3.5-1.1.5-1.3 0-.2-.4-.6-.6-1-.7-.7.5-1.4.9-2.1 1.4-.1.1-.1.2-.1.4-.3.7-.5 1.7-1 2.1-.5.4-.9.4-1.5.2-.5-.2-1-.2-1.5-.3-.8.4-1.7.9-2.5 1.3-.4.7-.7 1.5-1.3 1.9-.8.5-1.8.2-2.7.2l-.6.3c-.1.6-.9 2-1.3 2.2-1.3.6-2.7.7-4.1 1-.1 0-.3 0-.4-.1H40c.1.2.1.4-.1.5-2.4 1.2-4 3.1-6 4.8-2.1 1.8-3.7 4-4.6 6.6v.1c.1.6-.7.8-.9.2-1-2.6-1.1-5.6-1.9-8.4-.8-3-1.5-5.9-1.6-9 0-1.1-.1-2.3-.1-3.4-.2 0-.4-.1-.6-.2-.7-.7-.3-2.5.5-2.8 0-.1.1-.1.1-.2.1-1.8.2-3.6.5-5.4-.1-.3-.3-.7-.5-.9-.5-.4-.6-1-.2-1.5.3-.3.6-.5.9-.6l.3-.3.5-.5c.5-1.3 1.1-2.5 1.8-3.7-.1-.1-.2-.1-.3-.2-.4-.1-.8-.5-.8-1 0-.2 0-.4.1-.6.1-.5.5-.7 1-.8.4 0 .9-.3 1.3-.5s.8-.3 1.2-.4c.1 0 .2-.1.3-.1l1.8-1.8v-.3c.2-1.6 2.4-2.6 4.1-2.8.7-.5 1.4-.9 2.2-1.4h-.1c-.8-.2-.6-1.3.2-1.3.2 0 .4-.1.6-.1 0-.1.1-.1.2-.1.3-.1.5-.1.8-.2.4-.2.9-.5 1.3-.6.8-.3 1.6-.5 2.4-.6.3-.2.6-.4 1-.7-.4-.2-.5-.7-.2-1 .9-1 2.2-1.2 3.5-1.4.1 0 .2-.1.4-.1.5-.4 1.1-.7 1.6-1-.1-.2-.1-.3-.2-.5-.2-.3-.1-.6.1-.8 1-1.2 2.9-1 4.4-.9.2-.1.5-.1.7-.2.4-.1.8-.1 1.2-.3.4-.2.8-.5 1.2-.7.2-.6.3-1.3.7-1.8 0 0 0-.1.1-.1.1-.3.2-.6.2-1 0-.2.3-.1.3 0v.3l.1-.1c-.3-.6-.6-1.3-.9-2.1-.4.8-1.4.8-2.3.8-.5 0-.9 0-1.4.1-.7.4-1.4.8-1.9 1.2-.2.1-.2.3-.3.5-.4.3-.7.7-.9 1.1-.2.2-.4.4-.7.5h-.3c-.1 0-.2.1-.2.2-.2-.4-.7-.8-.9-1-.3-.4-.9-.2-1.2.2-.6 1-.6 2.3-1 3.3-.1.2-.1.3-.1.4 0 0 0 .1-.1.1-.3.4-1 .5-1.6.4-.1.1-.2.1-.2.2-.1-.2-.1-.4-.2-.5-.2-.4-.9-.5-1.2-.2-.5.5-.8 1.2-1.1 1.9-.2.5-.5 1-.6 1.5-.3.3-.7.5-1 .7-.1.1-.3.1-.4.1 0-.4-.2-.7-.3-1.1-.1-.4-.6-.5-.9-.2-.8.7-1.5 1.5-2.2 2.2l-.3.3c-1.6.3-3.3.2-4.9-.2.4-.8-.6-1.6-1.3-1.1-.4.2-.8.3-1.1.6-1.1-.3-2.2-.7-3.2-1.1-.8-.4-1.7-.7-2.5-1.1.1-.4 0-.9-.5-1-.6-.1-1.1-.4-1.7-.4-.3 0-.7 0-1 .1-.6-.3-1.3-.5-1.9-.7-.2 0-.3-.1-.4-.2-1.2-.4-2.5-.9-3.8-1.2-2.6-.7-5.6-1.1-8-2.4-2-1.1-3.3-2.6-1.5-4.6 3.8-4.1 7.7-8.7 12.8-11.3C22.9 24 28.9 23.2 34 23c5.7-.3 10.8-.1 15.5 3.4 1.8 1.3 3.2 3.1 4.5 4.8-.6-1.6-.9-3.1-.8-4.2.6-5.1 4.2-10.9 6.9-15.2.2-.3.6-.3.8 0 .3.5.6 1.1.9 1.7-.1.8-.3 1.8.3 2.4.1.1.2.1.3 0l.1-.1v.2c.1.1.1.2.2.3v.3c0 .5-.4 2.1.5 2.1.2 0 .3 0 .4-.1.1.1.2.2.4.3-.2.4-.6 2.1.2 2.1.2 0 .3-.1.5-.2.2.6.3 1.3.4 1.9-.2.3-.3.6-.4.8-.1.2.1.4.3.3.1-.1.2-.1.3-.2.3 1.8.4 3.7.2 5.5-.2 1.6-.5 3.5-1 5.3.1-.1.2-.3.3-.4.3-.6.7-1.1.9-1.8.2-.5.3-1 .5-1.5s.4-1 .6-1.6c0-.9.1-2.2.2-3.2.2-4.2.4-8.1 1.9-12.2 1-2.7 4-5.8 4.4-8.5.1-.4.7-.4.9-.1 6.1 10.4-1.6 19.9-8.1 28.2-.1.1-.1.2-.2.3-.2.3-.4.6-.7.8 0 .1-.1.1-.1.2l-.1.1c-.4.5-.8 1.1-1.2 1.6-.5 1.3-1.1 2.5-1.9 3.5h.1c.1-.1.1-.1.3-.1.6 0 1.2 0 1.8-.1.5-1 1.1-1.9 1.7-2.7.2-.6.4-1.1.7-1.5.6-.9 1.2-2 2.2-2.6.4-.2.7 0 .9.3 0 0 .1 0 .1-.1 0 0 .1.1.2 0 .3-.1.5-.3.6-.6l.1-.1c.1-.2.2-.3.3-.5.2-.6.6-1.3 1.1-1.7.3-.3.8-.6 1.3-.4v.6c0 .3.4.3.6.2.1 0 .2-.1.3-.1 0-.1.1-.1.1-.2.1-.2.2-.3.3-.5.2-.2.3-.4.5-.6.1-.2.3-.3.4-.5.4-.3 1-.5 1.4-.1 0 .1-.1.2-.1.3-.2.5.2 1.1.7.7l2.1-1.5c.1 0 .1 0 .2-.1.4-.1.9-.1 1.2.2.1.1.2.3.2.4h.6c.4 0 .7-.1 1.1-.1.7-.4 1.5-.7 2.2-.6.3 0 .5.2.7.5 0 .2.1.3.3.5.4.3 1 .1 1.5 0 .8-.2 1.4-.6 2-1 .5-.2 1.1-.2 1.4.2.2.2.3.5.4.7v.2c-.1.3.1.7.5.7.9 0 1.7-.2 2.5-.4.3-.1.5-.1.8-.2h.4c.6.1 1.1.6 1.4 1.1 0 0 .1 0 .1.1-.1.2-.1.5.1.6.9.5 2.1.3 3.3 0 .6.2 1 .7 1.4 1.3 0 .1 0 .2-.1.3 0 .2 0 .5.2.6.5.3 1.1.4 1.7.4.5.3 1.1.7 1.6 1v.2c.2.5.6.6 1 .5 5.3 3.5 10.2 7.9 14.3 11.7 0 .2.1.7-.2.9zM71.3 24.6l-1.8.9v.1c.2.1.2.4 0 .4h-.1c-.1 0-.2 0-.3-.1-.2.4-.3.8-.5 1.1.1 0 .1-.1.2-.1.2-.2.4-.4.7-.6.2-.1.4 0 .5.1.4-.5.8-1.1 1.1-1.6.1 0 .2-.1.2-.2zm-3.4-1.5v-.2c0-.1.2-.1.2 0 .1.3.3.6.5.9l.3.6c.1-.3.3-.7.4-1-.2-.2-.4-.5-.6-.7-.2-.3-.4-.5-.4-.9 0-.1.1-.2.2-.1.4.3.7.7 1 1.1.1-.2.1-.4.2-.6.9-3.3.4-6.6 1.3-9.8.1-.4.7-.3.7.1-.3 3.2-.1 6.1-.9 9.1.2-.1.3-.1.5-.2.5-.3.9-.7 1.4-1 .2-.2.4.2.2.4-.5.3-.9.7-1.4 1-.3.2-.5.3-.8.3l-.6 1.8c-.1.2-.2.3-.2.5.1-.1.2-.1.3-.2.6-.2 1.2-.5 1.7-.8h.2c1.9-3.2 3.3-6.6 3-10.4-.1-1.5-1.4-4.8-1.1-6.4-.3 1.6-2.4 2.9-3.1 4.4-1.3 2.9-2.7 6.7-2.8 9.9-.2.8-.2 1.5-.2 2.2zm-.2 3.8c.3-.6.6-1.1.8-1.7-.2-.2-.3-.4-.4-.6l-.3-.9c0 1 0 2.1-.1 3.2zm-.6 3.6c.7-.9 1.3-1.8 2-2.7-.3.2-.6.3-.9.2-.1.1-.1.2-.2.4-.3.7-.6 1.2-.8 1.5 0 .1 0 .4-.1.6zm-15 9.1c.5-.8 1.8-1.5 2.5-1.7.6-.2 1.3-.3 2-.4-13.2-6.6-26.4-4.5-39.7 1.2-.3.1-.5-.2-.3-.4 6.1-4.3 14.1-6.5 22-6.4-1.1-1.4-2.1-2.8-3.3-4-2-1.9-3.7-2.8-6.4-2.6-.4 0-.4-.5 0-.6 2.4-.2 4 .2 5.8 1.8 1.7 1.6 3.1 3.4 4.3 5.4 5.8.1 11.6 1.5 16.5 4.2-1.7-2-3-4.3-4.7-6.3-1-1.1-2-2-3.1-2.8.7 1.4 1.2 2.8 1.5 4.3 0 .2-.2.3-.3.1-.7-1.6-1.2-3.3-2-4.9-1.8-1.1-3.7-1.7-5.7-2.1 1.9 2.1 3.5 4.9 3.5 7.7 0 .2-.2.2-.3 0-.8-3-1.8-5.7-4-7.8-2.1-.3-4.3-.3-6.6-.1-5.4.4-11.8 1-16.6 3.9-3.8 2.4-7.3 6.2-10.3 9.5-3 3.3 7.1 5.3 8.2 5.6 1.9.5 3.9 1 5.7 1.7 1.1.5 2.4 1.1 3.6 1.6.3 0 .6 0 .7-.4.4-.7 1.4-.1 1 .6-.1.2-.2.3-.3.4.6.3 1.3.6 1.9.8.5-.2 1.1-.3 1.7-.2.5.1.7.7.4 1 .3.1.7.2 1 .3h.1c.6-.1 1.3-.5 2-.5.3 0 .4.3.3.5-.1.1-.2.3-.3.4 1 .2 2.1.2 3.1.1 0-.1 0-.1-.1-.2-.3-1 1.1-1.4 1.5-.5.7-.2 1.1-.5 1.6-1.1.4-.5.8-.9 1.5-1 .4-.1.9.2.9.7v.1c.2-.1.4-.2.5-.4.6-.7 1-1.5 1.5-2.4.1-.1.2-.2.4-.2.1-.2.3-.3.6-.4.2 0 .8.1 1.2.2.1-.1.2-.1.2-.2v.2c.1.2.3.2.3 0 .1-.2.3-.5.3-.8 0-.1 0-.2.1-.2 0-.1.1-.3.1-.4 0-.2.1-.3.1-.5.2-.6.5-1.1.6-1.6.1-.2.2-.4.4-.6.1-.1-.1 0 .3 0h.4c.4.1.8 0 1.1-.1l.9.3c.1 0 .1.1.2.1 0 0 0-.1.1-.1.7-.1 1-.5 1.4-.8zm7.4 6c-.2-.1-.3-.2-.5-.3-.1.2-.2.3-.3.5-.1.6.7 1.3 1.1 1.6.5.5 1.1 1 1.4 1.6.1.2-.1.3-.3.2-.7-.7-1.5-1.2-2.1-1.9-.2-.2-.4-.5-.6-.8-.8 1.3-2 2.5-3.2 3.4.7.4 1.4 1.2 1.8 1.4 1.4.9 2.8 1.8 3.7 3.3 1.7 2.9 1.8 6.4 1 9.6 0 .2-.4.2-.3 0 .1-3 .5-6.6-1.3-9.2-1.2-1.6-2.8-2.7-4.5-3.7l-.9-.9c-.2.1-.4-.1-.4-.3-.3 0-.3-.4 0-.4h.2c.9-1.4 2.2-2.5 3.1-3.8-.1 0-.2 0-.2.1-.3.1-.7.2-1.2.3 0-.3-.1-.3-.2-.3-1-.2-1.9-.5-2.9-.4-.1 0-.3.1-.3.2-.4 0-.6.5-.3.8.1.1.4.4.5.7-.7.5-1.5 1-2.2 1.5-.4-.1-.7-.1-1.1-.1-.7 0-1.5.2-2.1.7-.6.6-.3 1.2.2 1.5 0 .1.1.2.2.3-.2.1-.4.1-.5 0-.6.4-1.3.8-1.9 1.1-.4.7-1.3.7-2.1.8-.6 0-1.2.1-1.8.1-.4.4-.6 1-.4 1.6-.1 0-.1.1-.2.1-1 .6-2.1 1.3-3.1 1.9-.9.3-1.9.6-2.8.9-.2 0-.3.2-.3.4-.1.1-.2.2-.2.3.1.2.2.4.2.7l.3.3c0 .3-.2.6-.5.8-.1.1-.2.3-.4.3-.3.1-.6.4-.9.5-.2.1-.4.2-.5.3l-.3.3c-.9.3-1.7.7-2.5 1.3-.2.1-.2.4 0 .5.2.2.5.3.8.3-.9 1.2-1.6 2.5-2.2 3.9-.2.7-.9 1.1-1.3 1.6-.1.1-.2.2-.4.3v.3c.1.4.4.7.8.9.1.3.1.7-.1 1.1-.1.1-.1.2-.2.3-.1.6-.2 1.3-.3 1.9.2.8.3 1.6 0 2.3-.4.7-.6 1.4-1 2.1l-.5.5c0 .1.1.2.2.2.3.2.6.2 1 .2-.1 6.6 1.3 13.4 2.7 19.7.1-.4.3-.9.5-1.3.4-.8 1-1.6 1.7-2.4 1.2-1.5 2.5-2.8 4-4 1-1 2.2-2.1 3.4-2.5.6-.4 1.2-.8 1.9-1.2 0-.1.1-.1.2-.1.9.1 1.7.2 2.5-.1 1.1-.4 1.3-1.1 1.3-2 .1 0 .1-.1.2-.1.1-.2.1-.4.2-.7.1-.3.4-.5.8-.4h.4c.6.2 1.3.2 2 .1s1.1-.7 1.5-1.2c.5-.5 1-1 1.6-1.4.5-.3 1-.6 1.6-.9.1-.1.2-.2.4-.2 0 0 .1 0 .1-.1.3.1.6.3.9.3.8.2 1.3-.3 1.7-.9.1-.2.3-.8.3-1.4.1-.1.1-.2.2-.3.1 0 .2.1.3.1.5 0 .9-.3 1.1-.7.1-.1.2-.3.2-.4v.1c0-.1 0-.2.1-.3.3-.5.9-.6 1.4-.5l.5.5c.6.4 1 .4 1.4-.2.5-.6.9-1.3 1.2-2 .1-.1.1-.2.1-.3.1-.6.3-1.1.5-1.6.1-.2.3-.3.4-.3.6 0 1 .3 1.6.5.2 0 .4 0 .6-.2.2-1.7.2-3.4.5-5.1 0-.4 0-.8.4-1.1.5-.3 1-.3 1.6-.3h.6c.3-.4.4-.9.1-1.4-.1-.3-.4-.5-.6-.6-.1-.1-.3-.2-.4-.2l-.1-.1c-.3.1-.3 0-.3-.1-.2-.3-.2-.5-.1-.8.2-.3.7-.5 1-.7.1-.1.2-.2.3-.2v-.4c-.1-.4-.4-.7-.8-1v-.2c-.6-.7-1.2-1.5-1.5-2.3-.3-.1-.4-.5-.3-.8.1 0 .2-.1.3-.1.1 0 .2-.1.3-.1.3-.1.5-.2.8-.4.1-.1.3-.2.4-.4.2-.2.2-.4.2-.6-.2-.1-.3-.3-.5-.4-1-.6-2.5-.8-3.2-1.8-.2-.1-.3-.3-.3-.4.2-.2.5-.3.7-.5.4-.2.6-.9.2-1.2-1-.8-2-1.5-2.9-2.4-.3 0-.6-.3-.6-.2 0-.3.2-.6.2-.9 0-.3-.2-.5-.4-.6H61.5h-.1c-1-.4-1.5-1.2-1.9-2zm3.2-11c-.2.4-.5.8-.8 1.2-.2.3-.7.8-.7 1.3 0 .2-.1.4-.2.5 0 .2-.1.3-.1.5s0 .3-.1.4c1.1-1.1 2.9-6.2 2.9-6 .3-1.4.5-2.9.5-4.4-.1-.2-.2-.5-.3-.7-.2-.4.1-.7.4-.8v-1 .2c0 .1-.1.2-.2.2-.5 0-.6-.4-.6-.8 0-.5.8-.6.9-.1v-.7c-.5.3-1.3-.3-.9-.8.2-.3.4-.4.6-.6h.1c-.1-.4-.1-.8-.2-1.1 0-.1 0-.2-.1-.3-.2 0-.5 0-.6-.3-.3-.3-.3-.5-.3-.8 0-.1.2-.6.2-.6 0-.1-.1-.2-.1-.2v-.1c-.3.2-.8.2-1.1-.2-.4-.7-.1-1.4.2-2.1 0-.1-.1-.1-.1-.2-.3.5-1.2.5-1.4-.2-.2-.6 0-1.3-.1-1.9 0-.4-.2-.9-.3-1.3-.2-.2-.4-.3-.5 0-1 2.2-1.9 4.4-3 6.6-2.2 4.5-3.1 8.3-.5 12.9.6 1.1 1.3 2.5 2.1 3.8-.8-2.4-1.3-5-1.3-7.3 0-4.2 2-7.7 3.3-11.6.2-.6 1.1-.3.9.3-.7 2.7-2.4 5.3-2.9 8.1-.4 2-.2 3.8.1 5.6.3-.5.6-.9.9-1.4.6-.8 1-1.7 1.5-2.5.1-.2.5 0 .4.2-.9 1.5-1.7 2.9-2.7 4.3.2.9.4 1.9.7 2.8.3-.4.7-.8 1-1.2.5-.7.9-1.5 1.4-2.2.2-.3.6 0 .4.3-.8 1.2-1.4 2.9-2.6 3.8.2.7.3 1.4.5 2.1.1.3.2.5.3.6-.1-.2-.2-.4-.1-.7-.1-.1-.1-.4.1-.4.1-.3.2-.6.3-.8 0 0 0-.1.1-.1v-.1c.1-.3.3-.6.5-.8.4-.5.8-1 1.3-1.4.1-.4.3-.2.2 0zm52.3 8.9c-1.9-2-4.1-3.7-6.4-5.2-.7-.4-1.4-.9-2-1.3.1-.2 0-.5-.2-.6-.4-.3-.9-.5-1.3-.3-1.5-.9-3-1.8-4.5-2.6 0-.4-.2-.8-.3-1.2-.2-.4-.4-.5-.9-.5-.6.1-1.1.1-1.7.3-.1 0-.1.1-.2.1-.2 0-.3.1-.4.2-.1.1-.3 0-.4-.1-.1.1-.3.1-.4 0-.4-.2-.5-.5-.6-.9-.1-.5-.3-.9-.7-1.1-.5-.3-1.2-.1-1.7.1-.1 0-.2.1-.3.2-.5.1-1 .2-1.5.2-.2 0-.3-.1-.3-.2-.1 0-.2 0-.3-.1-.1-.1-.2-.1-.3-.2-.1-.4-.3-.7-.4-1-.1-.2-.4-.3-.6-.3-.9.2-1.7.5-2.6.9-.3.1-.6.3-.9.5-.1 0-.1-.1-.1-.1-.3.1-.7-.1-.9-.4 0-.1-.1-.2-.1-.3h-.1c-.1-.1-.1-.3-.2-.4-.1-.2-.4-.3-.6-.2-.8.3-1.6.6-2.3 1h-.7-.2c-.2 0-.4 0-.5-.2h-.2c-.1-.2-.2-.3-.3-.5-.1-.2-.4-.2-.5-.1l-1.2.9c-.1 0-.3.1-.4.1-.3.1-.5.2-.8.2-.1 0-.2.1-.2.1-.2-.2-.4-.4-.6-.5-.4-.3-1-.1-1.1.4-.1.3-.3.6-.5.9v.1h-.1l-.3.3c0 .1-.1.1-.2.1 0 .4-.5.6-.8.3l-.1-.1c-.1 0-.1.1-.2.1-.2-.2-.5-.5-.7-.6-.3-.2-.7-.2-.8.2-.2.5-.4 1.1-.5 1.6h-.1c-.3.5-.6.9-.9 1.3-.2.4-.6.6-1.1.3l-.1.1c-.1-.1-.2-.2-.3-.4-.2-.4-.8-.3-.9.1-.1.3-.2.7-.3 1-.1.1-.2.1-.2.2-.1.7-.4 1.5-.8 2.1-.1.2-.2.3-.3.4-.1.1-.1.2-.2.3 0 .1 0 .1.1.1 0-.1.1-.1.1-.2 0 .1-.1.1-.1.1-.1.1-.3.1-.4.1-.1.1-.1.2-.2.3.6 0 1.2-.1 1.8-.2.1-.2.2-.5.4-.6.9-.7 1.4-1.4 1.4-2.7 0-.3.5-.3.5 0 0 1.1-.5 2.3-1.3 3.2 1.6-.2 3.2-.3 4.8-.5 1.6-3.4 5.7-5.6 9.2-6.3.2 0 .2.2.1.3-3.1 1.1-6.9 3-8.6 6 2.4-.3 4.9-.6 7.3-.9 1.5-1.2 3.2-2 5-2.5.1 0 .2.2.1.2-1.4.7-2.8 1.3-4.1 2.2 3.1-.3 6.3-.5 9.3-.5.3-.8 1.5-1.1 2.2-1.4.1-.1.2.1.1.2-.4.4-1.3.7-1.7 1.2 6.5.3 12.8 1.9 18.4 6.6.2.2-.1.4-.3.3-7.9-4.5-16.3-6.4-25.4-5.7-1.3.1-2.5.3-3.8.4-.7 1.7 1.3 4.7 2.2 6.1 1.1 1.7 2.5 3.1 3.9 4.5.1.1 0 .3-.2.2-2.4-1.8-4.1-3.9-5.4-6.6-.5-1-1.4-2.9-.9-4.2-2.3.3-4.6.7-6.9 1.1.3.3.4.7.6 1.2.5 1.4.9 2.7 1.5 4 1.2 2.3 2.6 4.3 4.4 6.1.1.1 0 .4-.2.3-1.8-1.2-3.2-2.8-4.2-4.7-.6-1.1-1.2-2.1-1.5-3.3-.3-1-.5-2.6-1.1-3.4v-.1c-1.6.2-3.1.4-4.7.5.1.1.1.2.2.3.7 1.2 1.5 2.4 1.8 3.8.1.2-.3.5-.4.3-.5-.7-.9-1.4-1.3-2.1-.3-.6-.7-1.6-1.2-2.2h-2.5c1.4.7 2.1 2 2.6 3.7.2.5.4 1 .5 1.5.3.8.6 1.5 1 2.3.2.9.4 1.7.7 2.5.1.4.7.4.8 0 .1-.3.1-.6.1-.9 0 0 .1 0 .1.1.7.6 1.1 1.5 1.5 2.3.1.2.3.4.5.7.4.7.9 1.5 1.6 1.9.1.1.3 0 .2-.2 0-.1 0-.1-.1-.2l.1.1v-.4c.1-.1.1-.2.2-.3.1-.1.2-.4.3-.6.1-.1.2-.1.3-.2.4-.1.6.2.7.5v.8c.8.5 1.5 1 2.2 1.7.5.5 1 .7 1.6 1 .1-.4.3-.8.6-1 .1-.1.3-.1.5 0s.3.3.3.4c.6.5 1.2 1 1.9 1.4.6.3 1.3.5 2 .6 0-.6.2-1.1.8-1.2l.6.6c0 .1 0 .3.1.4.3.2.6.4 1 .4h.1c.6.4 1.3.6 2 .6.3 0 .5-.3.4-.6h.1c-.1-.7 0-1.3.8-1.5.2 0 .4 0 .5.2.1.1.1.3.2.5.6.2 1.3.2 1.9.2.3 0 .7.2 1.1.2H94.8v-.2-.2c-.2-.1-.2-.4 0-.5h.1c0-.1.1-.2.2-.3.2-.2.5-.2.8 0 .1 0 .1.1.1.1 1.1 0 2.2.2 3.2-.2-.1-.5 0-1 .5-1.3.1-.1.3-.1.4 0 .2.1.3.3.4.4.7-.2 1.5-.3 2.3-.2h1c.2-.1.3-.1.5-.2 0-.1-.1-.1-.1-.3v-.7c.1-.6.9-.6 1.2-.2.1.2.2.3.2.5.4-.6 1.2-.5 1.9-.7.2 0 .3-.1.5-.1.1 0 .2-.1.3-.1v-.2c.1-.5.4-.7.8-.8.2 0 .3.1.4.2 0 .1 0 .1.1.2 2.5-1.2 4.8-2.6 7-4 3.7-2 .5-3.1-1.6-5.4zm-28.8-14v.1s0-.1.1-.1h-.1zm-10.5.4c.1 0 .2-.1.3-.1 0-.1 0-.1-.1-.2l-.1.1s0 .1-.1.2zm-3.4 1.4c.1-.1.2-.1.4-.2V31h-.1l-.3.3zm-30.7 31c-4.2.4-8.3 1.7-10.6 5.5-.1.2.2.3.3.2 2.5-3.6 6.4-4.5 10.4-5.4 0-.1 0-.3-.1-.3zm3.1-5.7c-2.9.6-5.2 2.4-7.7 3.8-.1.1 0 .3.1.3 1-.3 2.1-1 3.1-1.6 1.5-.8 3.1-1.4 4.7-2.2.1 0 0-.3-.2-.3zm47.1-11.1c-1.1-1.9-2.5-3.4-2.6-5.8 0-.2-.3-.2-.3 0 0 2.3 1.3 4.2 2.7 5.9.1.1.2 0 .2-.1zm12.3.5c-1.6-.9-2.9-2.1-4-3.6-.2-.3-.7 0-.5.3 1.2 1.5 2.5 2.9 4.3 3.6.3 0 .3-.2.2-.3zm-58-10.4c-.2 1.7-2.2 3.7-3.4 4.7-1.4 1.4-3.1 2.4-4.7 3.6-.1.1 0 .3.1.2 2.1-1.2 4-2.5 5.7-4.2 1.1-1.1 2.5-2.8 2.6-4.3.1-.3-.3-.2-.3 0zm-6.8-.6c-.6 1.8-1.7 3.3-3 4.6-1.1 1.1-2.6 1.7-4 2.4-.2.1-.1.4.1.4 3.5-.6 6.4-3.9 7.3-7.3.1-.3-.3-.4-.4-.1zm-7 1c-1.3 1.8-3.2 2.5-4.9 3.7-.1.1-.1.4.1.3 2.1-.6 4-2 5.3-3.8.2-.2-.3-.5-.5-.2zM22 31.5c-.2-.3-.4-.6-.7-.8-.2-.3-.7.1-.4.4.3.3.5.6.9.7.2.1.3-.1.2-.3zm47.2-11v-.2c0-.2-.4-.2-.4 0v.2c-.2.4.5.4.4 0zm-40.1 81c-.2 0-.5-.1-.6-.4-.6-1.6-.9-3.3-1.2-5-.2-1.1-.4-2.3-.7-3.4-.8-3.1-1.5-6-1.6-9v-.4c0-1 0-1.9-.1-2.9-.2 0-.4-.1-.6-.3-.4-.4-.5-1-.4-1.7.1-.6.5-1.1.9-1.3 0 0 0-.1.1-.1.1-2 .2-3.7.5-5.3 0 0 0-.1-.1-.1-.1-.3-.2-.5-.4-.7-.3-.2-.5-.5-.5-.8 0-.3.1-.6.3-.9.3-.3.6-.5 1-.7l.3-.3.3-.3.2-.2c.5-1.3 1.1-2.5 1.8-3.6-.1 0-.1-.1-.2-.2-.6-.2-.9-.6-.9-1.1 0-.2 0-.4.1-.6.1-.5.5-.8 1.1-.8.3 0 .6-.2.9-.3.1-.1.2-.1.4-.2l.2-.1c.3-.1.7-.3 1-.4h.1c.1 0 .1-.1.2-.1l1.8-1.8v-.3c.3-1.7 2.6-2.7 4.2-2.9.6-.4 1.2-.8 1.9-1.2-.3-.1-.4-.4-.4-.7 0-.4.3-.7.8-.8.2 0 .3 0 .5-.1 0-.1.1-.1.2-.2.3-.1.5-.1.8-.2.1-.1.2-.1.3-.2.3-.2.6-.3 1-.5.6-.2 1.4-.4 2.1-.6l.4-.1c.3-.2.6-.4.8-.5-.1-.1-.2-.3-.3-.5 0-.2 0-.5.2-.7.9-1 2.2-1.3 3.6-1.5H49.4c.5-.3 1-.7 1.5-1-.1-.1-.1-.3-.2-.4-.2-.3-.1-.7.1-1 .6-.7 1.5-1 2.9-1 .6 0 1.1.1 1.6.1.2-.1.4-.1.6-.2.2-.1.4-.1.5-.1.2 0 .5-.1.7-.2.1-.1.3-.2.4-.3.2-.1.5-.3.7-.4.1-.6.3-1.2.7-1.8.1-.3.2-.6.2-.9 0-.1.1-.2.3-.2 0-.1-.2-.6-.4-1.1-.7.1-1.6.1-2.3.1h-.4c-.5 0-.9.1-1.3.1-.7.3-1.3.7-1.8 1.2-.1.1-.2.2-.2.4-.4.4-.7.7-.9 1.1-.3.3-.5.4-.8.5H51s-.1 0-.1.1l-.2.1-.1-.1c-.1-.3-.4-.6-.6-.8l-.2-.2c-.1-.1-.3-.2-.4-.2-.2 0-.5.1-.6.3-.4.6-.5 1.3-.6 2-.1.5-.2.9-.3 1.4 0 .1-.1.2-.1.4v.1l-.1.1c-.5.4-1.1.6-1.8.6l-.3.3-.1-.2c-.1-.2-.1-.4-.2-.5-.1-.2-.3-.3-.5-.3s-.4.1-.5.2c-.5.5-.8 1.2-1.1 1.8l-.2.1c-.2.4-.4.9-.5 1.3-.4.3-.7.5-1 .7-.1.1-.3.1-.5.1h-.1v-.1c0-.3-.1-.6-.2-1v-.1c-.1-.3-.5-.4-.7-.2l-1.1 1.1-1.1 1.1-.3.3c-1.4.2-3.1.2-5-.2h-.2l.1-.2c.1-.3.1-.5 0-.6-.2-.4-.8-.6-1.1-.3-.2.1-.3.2-.5.2-.2.1-.5.2-.7.4H30c-1.1-.3-2.2-.7-3.2-1.2-.8-.4-1.7-.7-2.5-1.1l-.3.2v-.1c.1-.2.1-.4 0-.6l-.3-.3c-.1 0-.3-.1-.4-.1-.4-.1-.8-.2-1.3-.3h-.2c-.3 0-.5 0-.7.1H21v-.1c-.5-.2-1.1-.4-1.6-.6h-.5c-.1 0-.3-.1-.4-.2-1.5-.5-2.6-.9-3.7-1.2-.8-.2-1.6-.4-2.5-.6-1.9-.4-3.9-.9-5.5-1.8-1.4-.8-2.2-1.6-2.4-2.5-.1-.7.2-1.5.9-2.3.4-.4.7-.8 1.1-1.2 3.5-3.8 7.2-7.8 11.8-10.2 3.8-1.9 8.9-3 15.8-3.3 1.2-.1 2.2-.1 3.1-.1 3.8 0 8.3.4 12.4 3.5 1.6 1.2 2.9 2.7 4.1 4.2-.4-1.4-.6-2.6-.5-3.5.6-4.9 3.8-10.4 6.9-15.2.1-.2.3-.3.5-.3s.4.1.5.3c.3.5.6 1 .9 1.7-.1.7-.3 1.8.2 2.3 0 0 .1.1.1 0l.1-.1.2-.2.1.3v.1c0 .1.1.2.2.3V16.6c-.1.5-.2 1.2.1 1.6.1.1.2.1.3.1.1 0 .2 0 .3-.1l.1-.1.1.1.3.3.1.1-.1.3c-.2.3-.4 1.3-.2 1.7.1.1.1.2.3.2.2 0 .3 0 .4-.2l.2-.1v.2c.1.6.3 1.2.4 1.9v.1c-.2.2-.3.5-.4.7v.2h.1c.1-.1.2-.1.3-.2l.2-.1v.2c.3 2 .3 3.8.2 5.6-.1 1.1-.3 2.7-.8 4.6.1-.1.1-.2.2-.4.2-.4.4-.7.6-1.1.2-.5.3-1 .6-1.5l.6-1.5c0-.6.1-1.2.1-1.9 0-.4.1-.9.1-1.2v-.5c.2-4 .4-7.8 1.8-11.7.4-1.2 1.3-2.4 2.1-3.6C71.9 8.7 73 7 73.2 5.5c0-.3.3-.5.6-.5.2 0 .4.1.6.3 6.1 10.4-1.4 19.8-8 28.1l-.4.1c-.1.1-.1.2-.2.3-.2.3-.4.6-.7.8v.1s0 .1-.1.1l-.1.1c-.4.5-.8 1-1.2 1.6-.5 1.3-1 2.3-1.6 3.2.5 0 1.1 0 1.7-.1.5-1 1.1-1.9 1.6-2.7.2-.5.4-1.1.7-1.5.1-.1.2-.3.2-.4.5-.9 1.1-1.7 2-2.3.3-.2.8-.1 1 .2l.1-.1.1.1.1.1v-.1c.2-.1.4-.3.6-.5h.1c.1-.1.2-.3.2-.4.3-.8.7-1.4 1.1-1.7.2-.1.7-.5 1.2-.5h.4v.7c0 .1.2.2.2.2.1 0 .1 0 .2-.1l.1-.1v.1c.1 0 .1 0 .2-.1 0 0 0-.1.1-.1.1-.2.2-.3.3-.5l.1-.2c.1-.2.2-.3.4-.5.1-.2.3-.3.4-.5.2-.1.5-.3.9-.3.3 0 .5.1.7.3l.1.1-.1.2c0 .1 0 .1-.1.2s0 .3 0 .5c.1.2.3.2.5.1.7-.4 1.3-.9 2.1-1.5h.2c.6-.1 1 0 1.3.3.1.1.2.2.2.4h.8c.3 0 .6-.1.8-.1.7-.4 1.5-.7 2.3-.6.3 0 .6.2.8.5v.1c0 .1.1.2.2.4.1.1.3.1.6.1s.6-.1.8-.1c.7-.2 1.3-.5 1.9-1 .8-.2 1.3-.1 1.6.3.2.2.3.5.5.7v.2c0 .2 0 .3.1.4.1.1.2.1.3.1.9 0 1.7-.2 2.5-.4h.2c.2 0 .4-.1.6-.1h.4c.5.1 1.1.5 1.5 1.1l.2.1-.1.1v-.1c0 .1.1.1.1.2.7.4 1.8.4 3.2 0 .6.2 1.1.8 1.5 1.3V32.5c0 .1 0 .3.2.4.5.3 1.1.4 1.6.4h.1c.5.3.9.6 1.4.9l.3.2v.2c.1.3.3.4.5.4h.5c5.5 3.6 10.5 8.2 14.3 11.7.1.1.2.3.2.5s-.1.4-.2.5c-2.5 2.2-5.4 4.2-8.6 6H111.8c-.2 0-.3.1-.5.1-.5.1-1 .2-1.5.4-.1.1-.2.2-.2.3 0 .1 0 .2.1.3l.1.1-.2.1c-.2.3-.6.5-1 .6h-.2c-.1.1-.2.1-.4.2-.1 0-.2.1-.3.1-.3-.1-.7-.2-1.1-.2-.5 0-.9.2-1 .5-.1.1-.1.3 0 .5l.1.1h-.1-.1-.1c-.3.3-.7.4-1.1.4h-.1c-.2 0-.4-.1-.6-.1-.5-.1-1.1-.1-1.6-.1h-.5c-.1 0-.2.1-.3.2v.2c.1.1.1.2.2.3 0 .1.1.1.1.2l.1.1-.5.1c-.3.1-.6.2-1 .3-.4 0-.7-.1-1.1-.1-.7-.1-1.4-.2-2.2-.3-.1 0-.2 0-.2.1v.2c.1.3.2.5.4.7l.2.2H97c-.1 0-.2 0-.3.1-.2 0-.3.1-.5.1l-.3-.1c-.1 0-.3-.1-.4-.1-1.2-.3-2.3-.5-3.4-.6-.1 0-.1 0-.2.1s-.1.2-.1.3c0 .3.1.5.2.7l.1.2h-.2c-.1 0-.1.1-.2.1-.3.1-.7.2-1.2.2h-.7c-.2-.1-.3-.1-.5-.2h-1c-.6-.3-1.1-.5-1.7-.7h-.1V59.6c0 .1 0 .2.1.3v.2h-.2-.1c-.3 0-.6-.1-.9-.1l-.4-.1c-.4-.1-.8-.2-1.2-.2l-.2-.1c-.1-.1-.2-.1-.3-.2l-.3-.2c-.5-.3-1.1-.7-1.6-.9h-.1v.1c0 .1 0 .1.1.2v.1l.1.2-.4.1H81c-.1.2-.4.3-.7.3-.3 0-.5-.1-.6-.3-.4-.4-.8-.7-1.3-.9-.1-.1-.2-.1-.3-.2H78c-.5-.8-1.1-1.4-1.7-2-.1-.1-.2-.1-.3-.1-.1 0-.3.1-.3.2 0 .2-.1.4-.1.6-.3.3-.7.4-1 .2-.3-.4-.7-.8-1-1.1l-.3-.3c-.4-.4-.7-.7-1-1.1l-.2-.2c-.3-.4-.8-.9-.9-1.3v-.1.4c-.1.4-.4.5-.7.5-.3 0-.7-.2-.7-.7 0-.5-.2-1-.5-1.6-1-1.1-1.6-2.2-1.9-3.2-.1-.5-.2-1-.4-1.6l-.3-1.5c-.1-.1-.2-.3-.3-.4-.7-1.1-1.4-2.2-2.5-2.9-.3-.1-.6-.3-1-.3-.2 0-.4 0-.5.1-.6.2-1.2.7-1.8 1.3v.2c0 .1 0 .2-.1.4 0 .4.1.7.4 1.1l.3.5c.4.4.8.8 1.2 1.5.1.1.2.2.2.3.6.2 1.3.4 1.7.9.2.2.2.5.2.7 0 .2-.2.3-.3.4 0 0-.1 0-.1.1l.1.2c.1.1.3.2.4.3.2.2.5.3.7.5.1.1.3.2.4.3.8.5 1.6 1.1 2.2 1.8.3.3.4.6.3.9-.1.4-.5.7-.9.9l.1.1.6.3c1.1.4 1.8.9 2.4 1.6.2.2.3.4.4.7v.5s0 .1-.1.1c0 0 0 .1-.1.1 0 0 0 .1-.1.1-.3.4-.9.7-1.3.8h-.1-.1v.1c.1.2.2.4.3.7.1.1.1.3.2.4.2.4.6.8.8 1 .1.1.3.3.5.4.1.2.3.4.4.6.4.4.7.8.8 1.2.1.2 0 .5-.2.7-.3.3-.7.4-1.2.6v.3c.4.2.5.6.7.9.3.3.4.6.5 1 .1.5.2 1.4-.4 1.7-.4.3-.9.3-1.4.3h-.6c-.2 0-.4.1-.6.1-.2 0-.3.1-.5.1h-.1l-.1.1c-.1.2-.1.3-.1.5V72.1c-.2.6-.4 1.1-.7 1.7 0 .2-.1.5-.2.8-.1.1-.2.4-.4.4h-.3c-.3.1-.6 0-.9-.2-.1-.1-.3-.2-.5-.2-.1 0-.2-.1-.3-.1l-.5.5-.3.9c-.2.8-.7 1.6-1.1 2.3-.2.3-.4.7-.5 1-.1.3-.4.5-.8.5-.3 0-.6-.2-.8-.5-.2-.4-.5-.5-.8-.6-.6.4-1.3.9-2.1 1.3 0 .1-.1.2-.1.3-.1.1-.1.3-.2.5-.2.6-.4 1.3-.9 1.7-.5.4-1 .5-1.6.2-.3-.1-.6-.2-.9-.2-.2 0-.3 0-.5-.1-.7.4-1.5.8-2.5 1.3 0 .1-.1.2-.1.2-.3.6-.6 1.3-1.2 1.6-.4.2-.8.3-1.3.3-.3 0-.7 0-1-.1h-.4l-.5.3c-.2.7-.9 2-1.3 2.3-1.3.3-2.3.5-3.3.6-.4.1-.8.1-1.2.2h-.3v.2c0 .1-.1.2-.2.3-1.7.8-3 2-4.3 3.3-.5.5-1.1 1-1.7 1.5-2.1 1.7-3.6 3.9-4.6 6.5 0 .2 0 .4-.1.5-.1.1-.3.2-.5.2zm24.6-56.7c-1.3 0-2.2.3-2.7.9-.1.2-.2.4-.1.7.1.1.2.3.3.5v.1h-.1c-.5.3-1.1.6-1.6 1h-.1c-.1 0-.2 0-.2.1-1.3.2-2.5.5-3.4 1.4-.1.1-.2.3-.1.5 0 .2.1.3.3.4l.2.1-.2.1c-.3.2-.6.4-1 .7l-.4.1c-.7.2-1.4.3-2 .6-.3.1-.6.3-1 .4-.1.1-.2.1-.4.2-.3.1-.5.2-.8.2 0 0-.1 0-.1.1v.1H39.5c-.3 0-.5.3-.5.5s.1.5.4.5h.1l.3.1-.3.2c-.8.5-1.5.9-2.2 1.4h-.1c-1.8.2-3.8 1.2-4 2.7v.4l-.1.1-1.8 1.8c-.1 0-.1.1-.2.1H31c-.4.1-.7.2-1 .4l-.2.1c-.1 0-.2.1-.4.2-.3.1-.6.3-.9.3-.5 0-.8.3-.9.7 0 .2 0 .3-.1.5 0 .6.5.8.7.9l.2.2.1.1-.1.1c-.7 1.1-1.3 2.3-1.8 3.7l-.2.2-.3.3-.3.3c-.4.2-.7.3-.9.6-.2.2-.3.5-.2.7 0 .2.2.5.4.6.2.2.3.5.5.8l.1.2c-.3 1.6-.5 3.4-.5 5.4 0 .1-.1.1-.1.2v.1H25c-.4.1-.7.5-.8 1.1-.1.6 0 1.2.3 1.5.1.1.3.2.5.2h.1v.1c0 1 0 2 .1 3v.4c.1 3 .8 5.8 1.6 9 .3 1.1.5 2.3.7 3.4.3 1.7.6 3.4 1.2 4.9.1.2.3.2.3.2.1 0 .2 0 .3-.1.1-.1.1-.2.1-.3v-.1c1-2.6 2.6-4.9 4.7-6.6.6-.5 1.1-1 1.7-1.5 1.4-1.3 2.7-2.5 4.4-3.3.1 0 .1-.1.1-.1V89l-.1-.1.2-.1h.1c.1.1.2.1.3.1.4-.1.8-.2 1.3-.2 1-.2 1.9-.3 2.8-.7.3-.2 1.1-1.5 1.2-2.1v-.1l.7-.3h.5c.3 0 .7.1 1 .1.5 0 .9-.1 1.2-.3.5-.3.8-.9 1.1-1.5 0-.1.1-.2.1-.3 1-.5 1.8-.9 2.5-1.3.2 0 .3.1.5.1.3 0 .7.1 1 .3.5.2.9.2 1.3-.2.4-.3.6-1 .8-1.6.1-.2.1-.3.2-.5 0-.1.1-.2.1-.4.8-.5 1.5-.9 2.1-1.4h.1c.4.1.8.3 1 .8.1.2.3.3.6.3.2 0 .4-.1.6-.3.1-.3.3-.6.5-1 .4-.7.9-1.5 1.1-2.3l.3-.9.5-.5.1-.1h.1c.1.1.2.1.3.1l.6.3c.2.2.4.2.7.1h.3c.1 0 .2-.2.2-.3.1-.3.2-.6.2-.8.3-.5.5-1.1.6-1.6v-.1-.1-1.5-.7-.5-.4c0-.2.1-.4.1-.5l-.1-.3h.5c.2 0 .3-.1.5-.1s.4-.1.6-.1c.2 0 .4 0 .7-.1.5 0 .9 0 1.3-.3s.3-1 .2-1.5c0-.3-.2-.6-.4-.9v-.1c-.1-.3-.2-.6-.6-.8h-.1v-.1-.5h.1c.5-.1.9-.3 1.2-.5.1-.1.1-.3.1-.4-.1-.4-.4-.7-.8-1.1-.1-.2-.2-.3-.3-.5-.1-.1-.3-.2-.4-.4-.3-.2-.7-.6-.9-1.1-.1-.1-.1-.3-.2-.4l-.3-.6c-.1-.1-.1-.2 0-.3 0-.1.1-.2.2-.2h.2c.4-.2 1-.4 1.3-.8v-.1-.1-.1-.1-.1-.1-.1c0-.2-.1-.4-.3-.5-.5-.6-1.3-1.1-2.3-1.5-.2-.1-.5-.2-.7-.3l-.2-.4.1-.1c.5-.2.8-.5.9-.8.1-.2 0-.4-.2-.7-.6-.7-1.4-1.2-2.1-1.8-.2-.1-.3-.2-.4-.3-.2-.2-.5-.3-.7-.5-.1-.1-.3-.2-.4-.3l-.3-.4.2-.1c.1 0 .1-.1.2-.1.1-.1.2-.1.2-.3 0-.2 0-.3-.1-.5-.4-.5-1-.7-1.6-.9v-.1c-.1-.1-.1-.2-.2-.3-.5-.7-.8-1.1-1.2-1.5l-.3-.5c-.2-.4-.5-.8-.4-1.3 0-.1 0-.2.1-.4v-.2c.6-.7 1.2-1.2 1.9-1.4.2-.1.4-.1.6-.1.4 0 .7.1 1.1.3 1.1.7 1.9 1.8 2.6 3 .1.1.2.3.3.4l.3 1.5c.1.6.2 1.1.4 1.6.3 1 .9 2 1.8 3.1.3.5.6 1.1.6 1.8 0 .3.3.5.5.5s.4-.1.5-.3V53s0-.1.1-.1c0 0 .1-.1.2-.1h.2c.1 0 .1.1.1.1l.1.1v.1c.1.4.5.8.8 1.2.1.1.1.2.2.2.3.4.6.7 1 1.1l.3.3c.4.3.7.7 1 1.1.2.1.5 0 .7-.1 0-.2 0-.4.1-.6 0-.3.3-.4.5-.4s.3.1.4.2c.6.6 1.2 1.2 1.8 2 .1.1.2.1.3.2.5.3 1 .5 1.4 1 .1.1.3.2.4.2.2 0 .4-.1.5-.3v-.1h.1V59c0-.1 0-.2.1-.3.1-.1.3-.2.4-.1.6.2 1.2.6 1.7.9l.3.2c.1.1.2.1.3.2h.2c.4.1.8.2 1.2.2l.5.1c.3 0 .5.1.8.1V60c0-.1 0-.2.1-.3.1-.1.2-.2.4-.1.6.2 1.2.4 1.8.7l.2-.3c.2.1.3.1.5.2.7.1 1.4 0 1.8-.1.1 0 .1-.1.2-.1-.1-.2-.1-.4-.1-.6 0-.2 0-.4.1-.5.1-.1.2-.2.4-.2 1.2 0 2.3.3 3.5.6.1 0 .3.1.4.1l.3.1c.1 0 .3-.1.4-.1h.1l-.3-.6c0-.1 0-.3.1-.4.1-.1.3-.2.5-.2l2.1.3c.4 0 .7.1 1.1.1l.9-.3.2-.1v-.1c-.1-.1-.1-.2-.2-.3-.1-.2-.1-.3 0-.5s.3-.3.5-.3h.5c.6 0 1.1.1 1.7.1.2 0 .4.1.6.1v.1-.1c.4 0 .7-.2 1-.4-.1-.3-.1-.5 0-.6.2-.4.7-.6 1.2-.6s.9.1 1.2.2c.1 0 .2-.1.3-.1.1-.1.2-.1.4-.2h.2c.4-.1.7-.2.9-.5-.1-.1-.1-.3-.1-.4 0-.2.2-.4.3-.5.5-.3 1-.4 1.6-.4.2 0 .3-.1.5-.1H112.1c3.1-1.8 6-3.8 8.5-6 .1-.1.1-.2.1-.3 0-.1 0-.3-.1-.4-3.7-3.6-8.7-8.1-14.2-11.7-.5.1-.9-.1-1.1-.6v-.1l-.2-.1c-.4-.3-.9-.6-1.4-.8-.6 0-1.2-.1-1.7-.4-.2-.1-.4-.4-.3-.7v-.2c-.3-.4-.7-1-1.3-1.2-1.4.4-2.6.4-3.3 0-.1-.1-.2-.2-.2-.3v-.3c-.3-.6-.8-1-1.3-1.1h-.3c-.2 0-.4.1-.6.1h-.2c-.8.2-1.6.4-2.5.4-.2 0-.4-.1-.5-.2-.1-.2-.2-.4-.2-.6V29c-.1-.2-.3-.5-.4-.7-.2-.3-.6-.4-1.3-.2-.7.5-1.3.8-2 1-.2.1-.6.1-.9.1-.3 0-.5-.1-.7-.2-.2-.2-.3-.4-.3-.5-.2-.2-.4-.4-.6-.4-.7-.1-1.5.2-2.2.6-.3 0-.6 0-.8.1h-.2c-.1.1-.2.1-.4 0h-.4v-.1c0-.1-.1-.3-.2-.3-.3-.3-.6-.3-1.1-.2h-.1c-.7.6-1.4 1.1-2.1 1.5-.3.2-.7.1-.9-.2-.1-.2-.2-.5-.1-.7 0-.1 0-.1.1-.2-.3-.2-.7-.2-1.2.1-.1.2-.3.3-.4.5-.1.1-.2.3-.4.4l-.1.1c-.1.1-.2.3-.2.5 0 .1-.1.1-.1.2h-.1c-.1 0-.2.1-.3.1l-.1.1h-.2c-.2 0-.4-.1-.5-.4 0-.2-.1-.4 0-.6-.3 0-.7.1-1.1.4-.4.3-.8.9-1.1 1.6-.1.2-.2.3-.3.5l-.1.1h-.1c-.1.2-.3.5-.7.6h-.2l-.1.1-.1-.1c-.2-.3-.5-.4-.8-.2-.8.5-1.4 1.4-1.9 2.2-.1.1-.2.3-.2.4-.3.4-.5.9-.7 1.5-.6.8-1.1 1.7-1.7 2.7v.1h-.1c-.7 0-1.3.1-1.8.1-.1 0-.1 0-.2.1l-.5.1.2-.3c.7-.9 1.3-2.1 1.8-3.5.4-.5.8-1 1.2-1.6h.1s0-.1.1-.1v-.1c.2-.3.5-.6.7-.9.1-.1.1-.2.2-.3l.2-.3c6.6-8.3 14-17.6 7.9-27.8-.1-.1-.2-.2-.3-.2-.1 0-.3.1-.3.2-.2 1.5-1.4 3.3-2.4 4.9-.8 1.2-1.6 2.5-2 3.6C67.4 17.2 67.2 21 67 25v.5c0 .4-.1.8-.1 1.3-.1.7-.1 1.4-.1 1.9l-.6 1.5c-.2.5-.4 1-.5 1.5-.1.4-.4.8-.6 1.2l-.3.6-.7 1 .2-.7c.6-2.2.9-4.1 1-5.3.2-1.7.1-3.4-.2-5.3l-.1.1c-.1.1-.3.1-.4-.1-.1-.1-.1-.2 0-.3v-.1c.1-.2.2-.5.4-.7-.1-.6-.2-1.1-.3-1.6-.4.5-.5.5-.6.5-.2 0-.4-.1-.5-.3-.3-.5-.1-1.4.1-1.9-.1-.1-.2-.1-.2-.2-.1.1-.3.1-.4.1-.2 0-.3-.1-.5-.2-.2-.2-.2-.6-.2-1-.3.6-.6 1.3-.2 1.9.1.2.3.3.5.3.1 0 .3-.1.4-.1l.1-.1.1.3v.2l-.1.1.1.1c0 .1-.1.5-.2.6 0 .3 0 .5.1.7.1.2.3.2.5.2h.1v.1c0 .1.1.2.1.3.1.4.2.8.2 1.1v.1l-.1-.2-.1.1c-.2.1-.4.3-.5.5-.1.2-.1.3 0 .4.1.3.5.4.7.2l.2-.1V25.1h-.2c0-.3-.4-.3-.6-.2 0 .1-.1.1-.1.2 0 .7.4.7.5.7.1 0 .1 0 .2-.1v-.2h.3v1.1h-.1c-.1 0-.2.1-.3.2-.1.1-.1.2 0 .4 0 .1.1.2.1.2.1.2.1.3.2.5-.1 1.5-.3 3-.5 4.4h-.1l.1.1-.2.4c-.5 1.3-1.8 4.7-2.7 5.6l-.3.3.3.3h-.4l-.1.1V39l-.3-.2c-.2-.1-.3-.3-.3-.7-.1-.8-.3-1.5-.5-2.1v-.1h.1c.8-.6 1.3-1.5 1.8-2.5.3-.5.5-.9.8-1.3V32c0-.1-.2-.1-.3 0-.3.4-.5.8-.8 1.2-.2.3-.4.6-.6 1-.2.3-.5.6-.7.8l-.3.3-.2.2-.2-.8c-.2-.7-.4-1.5-.5-2.3v-.1c1-1.4 1.8-2.7 2.7-4.3v-.1c0-.1-.1-.1-.2 0-.2.3-.3.6-.5.9-.3.6-.6 1.1-1 1.7-.1.1-.2.2-.3.4-.2.3-.5.7-.7 1l-.2.3-.1-.3c-.3-1.4-.5-3.4-.1-5.7.3-1.5.9-3.1 1.6-4.5.5-1.2 1-2.4 1.3-3.6v-.3c-.1-.1-.2-.1-.3-.1-.1 0-.3 0-.3.2-.3 1-.7 1.9-1.1 2.9-1.1 2.9-2.2 5.6-2.2 8.7 0 2.7.7 5.4 1.2 7.3l.3.9-.2-.7c-.5-.8-.9-1.6-1.4-2.5-.2-.5-.5-.9-.7-1.3-2.6-4.6-1.7-8.5.5-13 .6-1.2 1.2-2.5 1.7-3.7.4-1 .9-1.9 1.3-2.9.1-.2.2-.3.3-.3.1 0 .3.1.4.2 0 .2.1.4.1.6.1.2.1.5.2.7v.7c0 .4 0 .8.1 1.2.1.3.4.5.6.5.2 0 .4-.1.6-.3l.1-.2.2.4c0-.2 0-.4.1-.6v-.3-.2c-.1-.1-.1-.2-.2-.3-.1.1-.3 0-.4-.1-.6-.6-.5-1.7-.3-2.5-.3-.6-.6-1.1-.9-1.6-.1-.2-.4-.2-.6 0-3.1 4.8-6.3 10.3-6.9 15.1-.1 1.1.1 2.5.7 4.2l.3.8-.5-.7c-1.3-1.7-2.7-3.5-4.5-4.8-4-3.1-8.5-3.5-12.3-3.5-.9 0-1.9 0-3.1.1-6.8.3-11.9 1.4-15.7 3.3-4.6 2.3-8.2 6.3-11.7 10.1-.4.4-.7.8-1.1 1.2-.7.7-.9 1.4-.8 2.1.1.8.9 1.6 2.3 2.4 1.6.9 3.5 1.3 5.4 1.7.9.2 1.7.4 2.6.6 1.1.3 2.3.7 3.8 1.2.1.1.2.1.4.1l.3.1c.5.2 1.1.4 1.6.6.2-.1.4-.1.7-.1h.3c.5 0 .9.2 1.3.3.1 0 .3.1.4.1.2.1.4.2.5.4.1.2.1.4.1.7.8.3 1.6.7 2.4 1 1 .4 2.1.8 3.1 1.1.2-.1.4-.2.7-.3.1-.1.3-.1.4-.2.1-.1.3-.1.5-.1.4 0 .8.2 1 .6.1.2.2.5.1.7 1.8.3 3.3.3 4.7.1l.3-.3 1.1-1.1c.4-.4.8-.8 1.1-1.2.1-.1.3-.2.5-.2.3 0 .6.2.7.5v.1c.1.3.2.6.2.9.1 0 .2 0 .3-.1.3-.2.6-.4 1-.6.1-.4.3-.9.5-1.3l.1-.1c.3-.7.6-1.4 1.2-1.9.2-.2.4-.2.6-.2.3 0 .6.2.7.4 0 .1.1.2.2.4l.1-.1c.7 0 1.2-.1 1.6-.5 0-.1 0-.3.1-.4.2-.4.2-.9.3-1.3.1-.7.3-1.4.7-2 .2-.3.5-.4.8-.4.2 0 .4.1.6.3 0 .1.1.1.2.2.2.2.4.4.6.7l.1-.1h.3c.2-.1.4-.2.6-.4.2-.4.5-.7.9-1.1.1-.2.2-.4.3-.5.5-.4 1.2-.9 1.9-1.2.5-.1.9-.1 1.4-.2h.4c.7 0 1.6 0 2.3-.2h.1v.1c.3.8.6 1.5.9 2.1v.1l.3.2s-.1 0-.1.1l-.2.2v-.4-.2s0-.1-.1-.1c-.1.4-.2.7-.2 1v.1c-.4.5-.6 1.2-.7 1.8v.1h-.1c-.3.1-.5.3-.7.4-.1.1-.3.2-.4.3-.3.1-.5.2-.8.2-.2 0-.3 0-.5.1s-.5.2-.7.2h-1.8zm6.6-7.1c-.1 0-.1.1-.1.1v.1h.1v.1c0 .2 0 .4.1.6l.2.2.1-.3c0-.1 0-.2.1-.3v-.1c0-.2.1-.4.1-.5.1-.2.1-.3.2-.5 0-.4.3-.8.6-1.1.1-.1.1-.2.2-.2l.1-.1c.3-.4.5-.7.7-1.1v-.1h-.1c-.4.4-.9.8-1.3 1.4-.2.2-.3.5-.4.8V37c0 .1-.1.2-.1.3-.3 0-.3.2-.5.4zm2.2-2.5c-.1.2-.2.4-.4.5l-.1.2c0 .1-.1.1-.2.2-.2.3-.5.7-.6 1 0 .2-.1.4-.2.6 0 .1-.1.3-.1.4.6-.7 1.1-1.8 1.6-2.9zm-2.8.8l.3 1.5s.1 0 .1-.1c.1-.2.1-.3.2-.5 0-.1.1-.2.1-.3 0 0 0-.1.1-.1v-.1c.1-.3.3-.6.5-.9.5-.6.9-1.1 1.4-1.5.1-.1.3-.1.4.1v.1c.3-.6.5-1.1.6-1.5.1-.2.1-.4.2-.4.3-1.4.5-2.9.5-4.3-.1-.1-.2-.3-.2-.5 0-.1-.1-.2-.1-.2-.1-.2-.1-.4 0-.6.1-.1.2-.3.4-.3V26H64c-.3 0-.7-.2-.7-1 0-.2 0-.3.1-.4.2-.2.5-.2.7-.1v-.1c-.3.1-.8-.1-.9-.4-.1-.2-.1-.5 0-.7.2-.2.3-.4.6-.5l.1-.1c0-.3-.1-.7-.2-1v-.2c-.3 0-.5-.1-.6-.4-.1-.3-.2-.5-.1-.9 0 0 .1-.4.2-.6v-.1c-.1.1-.3.1-.4.1-.3 0-.5-.2-.7-.4-.4-.7-.1-1.4.1-2-.2.2-.5.2-.8.2.1 0 .1.1.1.1.1.1.1.3.1.5-.3 1.2-.8 2.4-1.3 3.6-.6 1.4-1.3 2.9-1.5 4.5-.4 2.1-.2 3.9.1 5.3.2-.3.4-.5.5-.8.1-.1.2-.2.2-.4.4-.5.7-1.1 1-1.7.2-.3.3-.6.5-.9.1-.2.5-.2.6 0 .1.1.1.2 0 .3-.9 1.5-1.7 2.9-2.7 4.2.2.7.3 1.4.5 2.2l.1.3c0-.1.1-.1.1-.2.2-.3.5-.5.7-.8l.6-.9c.2-.4.5-.8.8-1.3.2-.2.6-.2.7 0 .1.1 0 .2 0 .4-.3.4-.5.8-.8 1.3-.6 1.3-1.2 2.3-2 2.9zm.4-22.3s-.1 0-.1.1c-.5 1-.9 1.9-1.3 2.9-.5 1.2-1.1 2.5-1.7 3.7-2.2 4.5-3.1 8.2-.5 12.7.2.4.5.9.7 1.3.3.5.6 1.1.9 1.6-.5-1.8-1-4.1-1-6.4 0-3.2 1.1-5.9 2.3-8.8.4-.9.7-1.9 1.1-2.8.1-.3.3-.4.6-.4h.1c-.2-.1-.4-.3-.4-.5-.1-.4-.1-.8-.1-1.2v-.7c0-.2-.1-.5-.1-.7 0-.2-.1-.4-.1-.6-.3-.2-.4-.2-.4-.2zM29.2 99.6L29 99c-1.5-6.6-2.8-13.1-2.7-19.6-.4 0-.7-.1-.9-.2-.1-.1-.2-.2-.2-.3v-.1c.2-.2.4-.5.5-.5.3-.4.5-.9.7-1.3.1-.2.2-.5.3-.7.3-.5.3-1.2 0-2.2.1-.7.2-1.4.3-1.9.1-.1.2-.2.2-.3.1-.3.1-.6.1-1-.4-.2-.7-.5-.8-.9v-.4c.1-.1.2-.2.4-.3l.3-.3c.4-.4.9-.7 1-1.2.5-1.3 1.2-2.5 2.1-3.8-.3-.1-.5-.2-.7-.3-.1-.1-.2-.2-.2-.4 0-.1.1-.3.2-.3.7-.5 1.6-1 2.5-1.3l.1-.1.1-.1c.2-.1.4-.2.5-.3.1-.1.2-.1.3-.2.2-.2.4-.3.7-.4.1 0 .3-.1.4-.2.3-.2.4-.4.4-.6l-.3-.3c-.1-.3-.1-.5-.2-.6 0-.1.1-.3.2-.3 0-.2.2-.4.4-.4.6-.1 1.2-.3 1.8-.5.3-.1.7-.2 1-.3 1-.7 2-1.3 3.1-1.9h.1c-.1-.6 0-1.2.5-1.6.3 0 .5 0 .8-.1.3 0 .7-.1 1.1-.1.7 0 1.6 0 2-.7h.1c.6-.4 1.3-.7 1.9-1.1h.5s-.1-.1-.1-.2c-.4-.3-.6-.6-.6-.9 0-.3.1-.6.4-.8.6-.5 1.4-.6 2.1-.7.4 0 .7 0 1.1.1.5-.4 1.1-.7 1.6-1.1.2-.1.3-.2.5-.3-.1-.2-.3-.4-.4-.5-.2-.2-.2-.5-.1-.7.1-.2.3-.3.5-.3.1-.1.2-.2.4-.2h.4c.7 0 1.4.1 2 .3.2 0 .4.1.5.1.1 0 .2 0 .2.1.4-.1.8-.2 1.1-.3.1 0 .1 0 .2-.1l.4-.1-.2.3c-.5.7-1 1.3-1.5 1.9-.5.6-1.1 1.2-1.6 1.9v.1H54.2c-.1 0-.1.1-.1.1s0 .1.1.1h.1v.2c.1.1.1.1.2 0h.1l.1.1.5.5.4.4c1.8 1.1 3.4 2.1 4.6 3.8 1.7 2.3 1.5 5.5 1.4 8.3v1h.1c.6-2.5.9-6.2-1-9.5-.7-1.3-2-2.2-3.3-3l-.4-.2c-.2-.1-.4-.3-.7-.5-.4-.3-.8-.6-1.1-.9l-.2-.1.2-.1c1.2-.9 2.3-2 3.2-3.3l.1-.2.1.2c.1.3.3.6.5.8l1.2 1.2c.3.2.6.5.8.7h.1c-.2-.5-.6-.9-1.1-1.2-.1-.1-.2-.2-.4-.3l-.1-.1c-.4-.4-1-1-1-1.5v-.1c0-.1.1-.1.1-.2.1-.1.1-.2.1-.3l.1-.1.1.1c.2.1.3.2.5.3h.1c.3.6.9 1.5 1.8 1.8H61.7c.3.1.5.4.5.7 0 .2-.1.4-.1.5 0 .1-.1.2-.1.3.1 0 .2.1.3.2l.2.2c.5.4.9.7 1.4 1.1.5.4 1 .8 1.6 1.2.2.2.3.4.3.7 0 .3-.2.6-.5.8-.2.1-.3.2-.5.4l-.1.1c0 .1.1.2.3.3.4.6 1.2.9 1.9 1.2.4.2.8.3 1.2.5.1.1.3.2.4.3l.2.1v.1c0 .3-.1.5-.2.7l-.4.4c-.3.1-.5.3-.8.4h-.1c-.1 0-.1 0-.2.1-.1 0-.1 0-.2.1-.1.2 0 .5.2.6.4.8 1 1.6 1.5 2.2v.1c.3.3.7.6.8 1v.5c-.1.1-.2.1-.3.2h-.1c-.1.1-.2.1-.3.2-.3.1-.6.3-.7.5-.1.2 0 .5.1.7 0 .1 0 .2.1.2l.1.1c.1.1.3.1.4.2.2.1.5.3.7.7.3.5.2 1-.2 1.5h-1c-.4 0-.8 0-1.2.3-.3.2-.3.6-.3 1-.2 1-.3 2-.4 3 0 .7-.1 1.4-.2 2.1-.2.1-.4.2-.7.2h-.1c-.2-.1-.3-.1-.5-.2-.3-.2-.6-.3-1-.3-.1 0-.3.1-.4.2-.2.5-.4 1-.5 1.6v.1c0 .1-.1.2-.1.2-.3.7-.7 1.4-1.2 2-.5.6-.9.7-1.6.2-.2-.1-.3-.3-.5-.5-.6-.1-1 0-1.2.4 0 .1-.1.1-.1.2v.1l-.1.1c0 .1-.1.2-.2.3-.3.5-.8.8-1.2.7-.1 0-.2 0-.3-.1l-.1.2c0 .6-.2 1.2-.3 1.4-.4.8-1.1 1.2-1.8 1-.3-.1-.6-.2-.8-.3h-.1c-.2.1-.3.1-.4.2-.5.3-1.1.6-1.6.9l-.1.1c-.5.4-1 .8-1.5 1.3l-.2.2c-.4.4-.8.9-1.4 1-.7.1-1.3.1-2-.1h-.4c-.3-.1-.5.1-.6.4 0-.5 0-.3-.1-.1l-.2.1c0 .8-.2 1.6-1.4 2-.4.1-.8.2-1.4.2-.4 0-.8 0-1.1-.1 0 0-.1 0-.1.1-.6.4-1.2.7-1.9 1.2-1.2.4-2.4 1.5-3.3 2.5-1.5 1.3-2.8 2.6-4 4-.8.8-1.3 1.6-1.7 2.3-.2.4-.4.8-.5 1.2l-.1.7zm-2.7-20.5v.1c-.1 6.4 1.2 12.7 2.6 19.2.1-.3.2-.5.3-.8.4-.8 1-1.5 1.7-2.4 1.2-1.4 2.5-2.7 4-4 1-1 2.1-2.1 3.4-2.5.7-.4 1.3-.8 1.8-1.2l.1-.1h.2c.3 0 .7.1 1.1.1.5 0 .9-.1 1.3-.2 1-.4 1.2-1 1.3-1.9v-.1l.2-.1c.1-.2.1-.4.2-.6.1-.4.5-.6.9-.5h.4c.6.2 1.3.2 1.9.1.5-.1.9-.5 1.3-.9l.2-.2c.5-.5 1-1 1.6-1.4l.1-.1 1.5-.9c.1-.1.3-.2.4-.3l.1-.1h.1c.3.1.6.3.9.3h.3c.7 0 1.1-.6 1.2-.9.1-.2.3-.8.3-1.3v-.1l.2-.4h.4c.5 0 .9-.4 1-.6.1-.1.1-.2.2-.4l.1-.4v.1c.3-.5.9-.6 1.5-.5l.1.1c.2.2.3.3.5.4.5.4.8.4 1.2-.1.5-.6.9-1.2 1.2-2 0-.1.1-.2.1-.2v-.1c.1-.6.3-1.1.5-1.6.1-.2.4-.3.6-.3.5 0 .8.2 1.1.3.2.1.3.2.5.2s.3 0 .4-.1c.1-.7.1-1.3.2-2 .1-1 .1-2.1.4-3 0-.3 0-.9.4-1.2.5-.3 1-.3 1.4-.3h.8c.3-.4.3-.8.1-1.2-.1-.2-.3-.4-.6-.6-.1-.1-.3-.2-.4-.2l.2.2c-.1-.1-.2-.2-.2-.4-.2-.3-.2-.6-.1-.9.2-.3.5-.4.8-.6.1-.1.2-.1.3-.2h.1c.1 0 .2-.1.2-.1v-.3c-.1-.4-.4-.7-.7-.9v-.1-.1c-.5-.6-1.1-1.4-1.5-2.2-.3-.2-.4-.6-.3-1v-.1h.1c.1 0 .2-.1.3-.1.1 0 .1 0 .2-.1.2-.1.5-.2.7-.4.1-.1.3-.2.4-.3.1-.1.2-.3.2-.4l-.1-.1c-.1-.1-.2-.2-.4-.2-.3-.2-.7-.4-1.2-.5-.8-.3-1.5-.6-2-1.3-.2-.1-.3-.3-.4-.5v-.1l.2-.2c.2-.1.4-.3.5-.4.2-.1.3-.3.3-.6 0-.2-.1-.4-.2-.5l-1.5-1.2c-.5-.4-.9-.7-1.4-1.1l-.2-.2-.2-.2-.2.4v-.6c0-.1.1-.3.1-.5s.1-.3.1-.5-.2-.4-.3-.5h-.4l-.1-.1c-1-.3-1.5-1.2-1.9-1.9-.1-.1-.2-.2-.4-.2 0 .1-.1.1-.1.2l-.1.1c-.1.4.5 1 .9 1.4l.1.1c.1.1.2.2.4.3.4.4.8.8 1.1 1.3v.3c-.1.2-.3.2-.4.1-.3-.3-.5-.5-.8-.7-.4-.4-.9-.8-1.3-1.2-.2-.2-.3-.4-.5-.7-.8 1.2-1.8 2.3-3 3.1.4.2.7.5 1 .8.3.2.5.4.6.5l.4.2c1.3.8 2.6 1.7 3.4 3.1 1.9 3.4 1.6 7.2 1 9.7 0 .1-.1.2-.3.2-.1 0-.2 0-.2-.1-.1-.1-.1-.1-.1-.2v-1c.1-2.7.3-5.8-1.3-8.1-1.1-1.6-2.7-2.6-4.5-3.7-.1 0-.2-.2-.5-.5l-.4-.4c-.1 0-.3 0-.4-.1.3.2.2.2.2.1-.1-.1-.2-.2-.2-.3 0-.2.1-.3.3-.3h.1c.5-.7 1-1.3 1.5-1.9.5-.5.9-1 1.3-1.6-.3.1-.6.2-1.1.3h-.1l-.1-.1s-.1-.1-.2-.1c-.2 0-.4-.1-.5-.1-.8-.2-1.6-.3-2.4-.3-.1 0-.2.1-.3.1h-.1c-.2 0-.2.1-.3.2-.1.1 0 .3.1.4.1.1.4.4.5.7v.1l-.1.1c-.2.1-.4.3-.6.4-.5.4-1.1.7-1.6 1.1h-.1c-.3-.1-.7-.1-1.1-.1-.7 0-1.4.1-2 .6-.2.2-.3.4-.3.6 0 .3.2.5.5.7 0 .1.1.2.1.2l.1.1-.2.1c-.2.1-.4.1-.6 0-.6.4-1.2.7-1.8 1.1-.4.7-1.4.8-2.1.8-.4 0-.7 0-1 .1-.3 0-.5 0-.8.1-.4.4-.5.9-.3 1.4v.1h-.1c-.1 0-.1.1-.2.1-1.1.6-2.1 1.3-3.1 1.9-.3.1-.7.2-1 .3-.6.2-1.2.4-1.8.5-.2 0-.2.2-.2.2v.1h-.1c-.1 0-.1.1-.1.2.1.2.1.4.2.6l.3.3v.1c0 .4-.2.7-.6.9-.1.2-.3.3-.5.3s-.4.2-.6.3c-.1.1-.2.1-.3.2-.2.1-.3.2-.5.3l-.1.1c-.1 0-.1.1-.1.2-.9.3-1.8.8-2.5 1.3-.1 0-.1.1-.1.1 0 .1 0 .1.1.2.2.1.4.2.8.3h.2l-.1.2c-.9 1.3-1.6 2.6-2.2 3.9-.2.5-.6.9-1 1.3l-.3.3-.3.3v.2c.1.3.4.6.7.8h.1v.1c.1.4 0 .7-.1 1.1 0 .1-.1.2-.2.4-.1.6-.2 1.2-.3 1.9.2 1 .2 1.8-.1 2.3-.1.2-.2.5-.3.7-.2.5-.4.9-.7 1.4 0 0-.2.3-.4.5l.1.1c.2.1.6.2.9.2l.4.4zm6.4 7.8c-.1 0-.2 0-.3-.1-.1-.1-.1-.2-.1-.3.5-4.5 1.9-9.3 4.1-14.3-.6.3-1.1.6-1.7.9-2.4 1.2-4.6 2.4-6.1 4.9-.1.2-.5.2-.6 0-.1-.1-.1-.2 0-.4 1.7-2.8 4.9-5.1 8.5-6.1h.2c1.1-2.4 2.3-4.7 3.7-7 .3-.5.6-1 .9-1.7 2.2-3.9 5.8-10.5 10-10.5h.2c.1 0 .2.1.2.2s-.1.2-.2.2c-1.2.4-2.5 1.2-3.8 2.6 4.8 2.7 11 7.2 9.5 15.8 0 .2-.2.3-.3.3-.2 0-.4-.1-.4-.3v-.8c-.1-3.4-.3-6.9-2.9-9.5-2-2-4.1-3.6-6.3-4.8 0 0-.1 0-.1-.1-1.4 1.6-2.9 3.7-4.4 6.5 1.4.4 2.2 2 2.8 3.2 1.1 2.3 1.4 4.3 1.7 7 0 .1 0 .2-.1.2-.1.1-.1.1-.2.1s-.3-.1-.3-.2c-.2-.7-.3-1.5-.5-2.2-.2-1.1-.4-2.3-.9-3.3-.1-.3-.3-.5-.4-.8-.6-1.3-1.2-2.7-2.5-3.3-.9 1.6-1.7 3.3-2.3 4.6-.2.3-.3.6-.5.9-.4.7-.7 1.5-1.1 2.4 1.8 1.6 2.6 4.3 2.2 8.3 0 .4-.6.4-.6 0 0-.5-.1-1.1-.1-1.6-.1-2.2-.2-4.5-1.7-6.2-2.1 4.7-3.6 9.4-5.2 15.1 0 .2-.2.3-.4.3zm4-14.7c-2.2 5-3.6 9.8-4.1 14.3v.1h.1s.1 0 .1-.1c1.6-5.7 3.1-10.5 5.3-15.3l.1-.2.1.1c1.7 1.8 1.8 4.2 1.9 6.5 0 .5.1 1.1.1 1.6 0 .1.1.1.1 0 .4-4-.3-6.7-2.2-8.2l-.1-.1v-.1c.4-.9.8-1.8 1.2-2.5.1-.3.3-.6.5-.9.7-1.3 1.5-3 2.4-4.7l.1-.1h.1c1.4.6 2.1 2.1 2.7 3.4.1.3.3.6.4.8.5 1.1.7 2.2.9 3.3.1.7.2 1.5.5 2.2h.2c-.3-2.7-.5-4.7-1.6-6.9-.6-1.2-1.4-2.8-2.8-3.1h-.2l.1-.1c1.6-2.9 3.2-5.2 4.7-6.8l.2-.2c1.4-1.4 2.6-2.3 3.9-2.7-4 0-7.6 6.5-9.8 10.3-.4.6-.7 1.2-.9 1.7-1.4 2.4-2.7 4.8-3.8 7.2l-.2.5zm0-.4c-3.5.9-6.7 3.2-8.4 6v.1c0 .1.2.1.2 0 1.5-2.5 3.8-3.7 6.2-5 .6-.3 1.3-.7 2-1.1zm10.7-16.2v.2c2.2 1.3 4.3 2.9 6.3 4.9 2.7 2.6 2.9 6.2 3 9.6v.8c0 .1.1.1.1.1.1 0 .1 0 .1-.1 1.1-6.5-1.8-11.3-9.4-15.5h-.1zM31 68.2c-.1 0-.2-.1-.3-.1v-.3c2-3.2 5.5-5 10.7-5.5.1 0 .2.1.2.2s-.1.2-.2.3c-3.9.9-7.9 1.8-10.3 5.4.1-.1 0 0-.1 0zm10.6-5.8c-5.1.5-8.6 2.3-10.5 5.4 0 0 0 .1.1 0 2.4-3.6 6.4-4.5 10.4-5.4zM37 60.8c-.1 0-.2-.1-.3-.2 0-.1 0-.2.1-.3.7-.4 1.3-.8 2-1.1 1.8-1.1 3.6-2.2 5.8-2.7.2 0 .3.1.4.2 0 .1 0 .3-.1.3-.7.4-1.5.7-2.2 1-.8.4-1.7.7-2.5 1.2-.2.1-.4.2-.7.4-.7.5-1.5 1-2.5 1.2.1 0 .1 0 0 0zm7.7-4c-2.1.5-3.9 1.6-5.7 2.6-.6.4-1.3.8-2 1.2.8-.2 1.6-.7 2.4-1.2.2-.1.4-.3.7-.4.8-.4 1.7-.8 2.5-1.2.7-.3 1.5-.6 2.1-1 .1 0 .1 0 0 0 .1 0 .1 0 0 0zm44.8 2.6c-.6 0-1.2-.2-1.9-.6h-.1c-.4-.1-.8-.3-1-.5v-.1-.4c-.2-.2-.4-.3-.5-.5-.4.1-.6.4-.7 1v.1h-.1c-.7-.1-1.3-.3-2-.6-.6-.3-1.1-.7-1.7-1.1l-.3-.3c-.1-.2-.2-.3-.3-.4-.1-.1-.2 0-.3 0-.3.2-.5.6-.6.9v.2l-.1-.1c-.1-.1-.2-.1-.3-.2-.4-.2-.9-.5-1.3-.9-.6-.5-1.3-1.1-2.2-1.6H76v-.1-.8c0-.2-.2-.5-.5-.4-.1 0-.2.1-.3.1l-.3.6c-.1.1-.1.2-.2.3v.5l-.1-.1s0 .1-.1.1c-.1.1-.2.1-.4.1-.6-.4-1.1-1-1.6-2-.1-.2-.3-.4-.4-.6-.1-.2-.3-.5-.4-.7-.3-.6-.6-1.1-1.1-1.5 0 .2 0 .4-.1.7-.1.2-.2.4-.5.4s-.5-.2-.6-.4c-.3-.8-.5-1.6-.7-2.5-.4-.8-.8-1.5-1-2.3-.1-.5-.2-1-.5-1.5-.5-1.9-1.3-3-2.5-3.6l-.1-.1.1-.2h2.7c.4.4.7 1.1 1 1.6l.3.6c.4.7.8 1.4 1.3 2.1.1.1.1 0 .2 0v-.1c-.3-1.2-.9-2.2-1.5-3.3-.1-.2-.2-.3-.3-.5l-.3-.4h.2c1.5-.1 3-.3 4.7-.5h.1v.1c.5.6.7 1.6.9 2.4.1.4.2.7.2 1 .3 1.2.9 2.2 1.5 3.3 1.2 2.1 2.5 3.6 4.2 4.7h.1v-.1c-1.8-1.9-3.2-3.9-4.4-6.2-.6-1.1-.9-2.3-1.3-3.4-.1-.2-.1-.4-.2-.7 0-.1-.1-.2-.1-.3-.1-.4-.2-.7-.4-.9l-.2.3h.3c1.1-.2 2.1-.3 3.2-.5 1.2-.2 2.5-.4 3.7-.6h.2l-.1.1c-.3.9 0 2.3.9 4.1 1.4 2.7 3.1 4.8 5.4 6.5-1.4-1.3-2.8-2.8-4-4.6l-.1-.1c-.9-1.4-2.8-4.3-2.1-6v-.1h.1c1.1-.2 2.4-.3 3.8-.4 1.3-.1 2.6-.2 3.8-.2 7.7 0 14.9 2 21.6 5.8 0 0 .1 0 .1-.1v-.1c-5-4.1-10.8-6.2-18.4-6.5h-.2l.1-.2c.2-.3.7-.6 1.1-.8.3-.1.5-.3.6-.4-.1 0-.2.1-.3.1-.7.3-1.6.6-1.9 1.3v.1h-1.5c-2.4 0-4.9.1-8 .5l-.5.1.4-.3c1.1-.7 2.3-1.3 3.5-1.9l.6-.3c-1.8.5-3.5 1.3-5 2.5-1.9.2-3.9.5-5.7.7l-1.8.2.1-.2c1.4-2.4 4.2-4.4 8.7-6.1-3.1.7-7.4 2.7-9.1 6.3v.1h-.1c-1.6.2-3.2.4-4.8.5h-.3l.2-.2c.8-1 1.2-2.1 1.2-3.1v-.1H69s-.1 0-.1.1c-.1 1.3-.6 2.1-1.5 2.7-.1.1-.2.3-.3.4 0 .1-.1.1-.1.2v.1h-.1c-.2 0-.4 0-.6.1-.4 0-.8.1-1.2.1h-.2l.1-.2s0-.1.1-.1c0-.1.1-.1.1-.2l.1-.1h.2V39c.1-.1.1-.1.1-.2 0 0 0-.1.1-.1 0-.1.1-.2.2-.3l.1-.1c.3-.6.6-1.3.7-2.1 0-.1.1-.2.2-.3.1-.2.1-.5.2-.7l.1-.3c.1-.3.3-.5.6-.5.2 0 .4.1.6.3.1.1.1.2.2.2l.1.1c.3.3.7.1.9-.2v-.1c.2-.3.3-.5.5-.7.1-.2.3-.4.4-.6l.1-.1c.1-.4.2-.7.3-1.1.1-.2.1-.4.2-.6.1-.3.4-.5.7-.4l.2-.3c.1-.1.2-.2.2-.3h.1l.1-.1V30.8h-.1c-.1 0-.2.1-.2.1l-.4.2c.1 0 .1.1.2.1l.6.6h.2l.1.1v.1c.3.2.6.1.6-.2v-.1h.1l.3-.3c.1-.1.1-.3.2-.4.1-.2.2-.3.3-.5.1-.3.3-.5.7-.6l.1-.2.1-.1.1-.1s.1 0 .1-.1l.1-.1.1.2s0 .1.1.1v.1l.2.3c.1 0 .2.1.3.1.2.1.4.3.6.5h.2c.2 0 .4-.1.7-.2.1 0 .2-.1.3-.1h.2c.2-.2.5-.4.8-.6.1-.1.2-.2.4-.3.1-.1.2-.1.3-.1.2 0 .3.1.4.2.1.1.1.2.2.4h.2c.1.1.3.1.4.1.1 0 .1 0 .2-.1l.1-.1h.7c.8-.4 1.6-.7 2.3-1 .2-.1.6 0 .7.3.1.1.1.2.2.3h.1l.1.1c0 .1.1.2.1.2.1.3.4.4.6.4h.2v.1c.2-.2.5-.3.8-.5.9-.4 1.7-.7 2.6-.9h.2c.3 0 .5.1.6.4.1.3.3.7.4 1 .1.1.2.1.3.2.1 0 .1 0 .2.1h.1v.2h.1l.5-.1c.3-.1.7-.1 1-.2h.1c.1 0 .1-.1.2-.1.4-.2.8-.3 1.2-.3.2 0 .5.1.7.2.4.2.7.6.8 1.1v.1c.1.4.2.7.6.8h.3l.2-.1v.2c0 .1.1.1.2.1.1-.1.2-.1.4-.2 0 0 .1-.1.2-.1.4-.2.9-.2 1.3-.3.1 0 .3 0 .4-.1.5-.1.8.1 1 .6.2.4.3.8.3 1.1 1.3.7 2.7 1.5 4.4 2.6.4-.1.9 0 1.4.4.2.1.3.4.2.6.7.4 1.3.8 2 1.3 2.6 1.7 4.7 3.4 6.4 5.2.4.5.9.9 1.4 1.2 1.1.9 2 1.7 1.9 2.6 0 .7-.6 1.4-1.9 2.3-2.2 1.5-4.5 2.8-7 4l-.1.1v-.1c0-.1 0-.1-.1-.2 0-.1-.1-.1-.2-.1-.4.1-.6.3-.7.7v.2h-.1c-.1 0-.1.1-.2.1l-.2.1h-.1c-.1 0-.3.1-.4.1-.2 0-.4.1-.5.1-.5.1-1 .2-1.3.6l-.1.2-.1-.2c-.1-.2-.1-.3-.2-.5s-.3-.2-.5-.2-.4.1-.5.4c0 .3-.1.4 0 .7 0 .1 0 .1.1.2v.2h-.1c-.1 0-.2.1-.3.1l-.2.1H102.8c-.7 0-1.4.1-2 .2h-.1v-.1c-.1-.1-.1-.3-.3-.4h-.2c-.4.2-.5.6-.4 1.2v.1h-.1c-.4.1-.8.2-1.4.2H96.4l-.1-.1s0-.1-.1-.1c-.2-.2-.5-.2-.6 0-.1.1-.1.2-.2.3v.1h-.1c-.1 0-.1.1-.1.1 0 .1 0 .1.1.1h.1v.6l-.2.1h-.1c-.2 0-.4-.1-.5-.1-.2-.1-.3-.1-.5-.1h-.3c-.6 0-1.1-.1-1.7-.2H92V58c-.1-.2-.1-.3-.2-.4-.1-.1-.2-.1-.3-.1h-.1c-.6.1-.8.5-.7 1.4v.1h-.1c0 .1 0 .2-.1.3-.1.1-.3.2-.4.2-.5-.1-.5-.1-.6-.1zm-1.9-.9h.1c.7.4 1.3.6 1.9.6.1 0 .2 0 .3-.1.1-.1.1-.2.1-.3v-.2h.1c0-.5 0-1.3.9-1.5.3 0 .5.1.6.3.1.1.1.2.2.4.6.1 1.2.2 1.8.2.2 0 .4.1.6.1.2 0 .3.1.5.1h.1V58v-.2c-.1-.1-.2-.2-.2-.3 0-.1.1-.3.3-.3.1-.1.1-.2.2-.3.2-.3.6-.3.9 0v.1h1.8c.5 0 .9-.1 1.2-.2-.1-.6.1-1 .5-1.3.1-.1.4-.1.5 0 .2.1.3.3.4.4.6-.1 1.2-.2 1.9-.2h1.3c.1 0 .1 0 .2-.1 0-.1 0-.1-.1-.2v-.7c.1-.4.4-.6.7-.6.3 0 .6.1.7.4.1.1.1.2.1.3.4-.3.8-.4 1.3-.5.2 0 .4-.1.5-.1.1 0 .3-.1.4-.1h.1s.1 0 .1-.1h.1v-.1c.1-.5.4-.8.9-.9.2-.1.4.1.5.3v.1c2.4-1.2 4.7-2.5 6.8-3.9 1.1-.8 1.7-1.4 1.8-2.1.1-.8-.8-1.6-1.8-2.4-.5-.4-.9-.8-1.4-1.3-1.7-1.8-3.8-3.5-6.4-5.1-.7-.4-1.4-.9-2-1.3l-.1-.1.1-.1c.1-.1 0-.3-.1-.4-.4-.3-.9-.4-1.2-.3h-.1c-1.7-1.1-3.2-1.9-4.5-2.6h-.1v-.1c0-.3-.1-.7-.3-1.1-.1-.3-.4-.5-.7-.4-.1 0-.3 0-.4.1-.4.1-.8.1-1.2.3l-.1.1h-.1c-.1 0-.2.1-.3.2-.2.2-.4.1-.5-.1-.1 0-.3 0-.4-.1-.4-.2-.6-.6-.7-.9l-.1-.1c-.1-.5-.3-.8-.6-1-.1-.1-.3-.1-.5-.1-.4 0-.7.1-1.1.3-.1 0-.1.1-.2.1 0 0-.1 0-.1.1-.3 0-.6.1-1 .2l-.5.1c-.1 0-.2 0-.3-.1l-.1-.1c-.1 0-.1 0-.2-.1s-.2-.1-.3-.2c-.1-.4-.3-.7-.4-1-.1-.2-.3-.2-.5-.2-.8.2-1.7.5-2.6.9-.4.1-.6.3-.8.5l-.1.1h-.1c-.1 0-.1-.1-.2-.1-.4 0-.7-.2-.9-.5 0-.1-.1-.2-.1-.2h-.1v-.1c-.1-.1-.1-.3-.2-.4-.1-.1-.3-.2-.4-.2-.7.3-1.5.6-2.3 1H81c-.1.1-.2.1-.3.1-.2 0-.4 0-.6-.1H80h-.2v-.1c-.1-.2-.2-.3-.3-.5 0 0 0-.1-.1-.1s-.1 0-.2.1-.2.2-.4.3c-.3.2-.5.4-.8.6H77.7c-.1 0-.2 0-.3.1-.3.1-.5.2-.8.2h-.1H76.2c-.2-.2-.4-.3-.6-.5-.1-.1-.2-.1-.4-.1s-.5.1-.6.4c0 .2-.2.4-.3.6-.1.1-.1.2-.2.3v.1H74c-.1.1-.2.2-.3.2 0 .1-.1.1-.2.1-.1.3-.3.5-.6.5-.1 0-.3-.1-.4-.2h-.2l-.1-.1c-.2-.2-.4-.4-.7-.6-.1-.1-.2-.1-.3-.1-.2 0-.3.1-.3.2-.1.2-.1.4-.2.6-.1.3-.2.7-.3 1h.6c-.1.2-.3.4-.4.6-.2.2-.3.5-.5.7-.1.3-.4.5-.7.5-.1 0-.3 0-.4-.1l-.1.1-.1-.1c-.1-.1-.2-.2-.3-.4-.1-.1-.2-.2-.4-.2s-.3.1-.4.3l-.1.3c-.1.3-.1.5-.2.8v.1c-.1 0-.1.1-.1.2-.1.8-.4 1.5-.8 2.2l-.1.1v.1l-.2.5v.1c0 .1-.1.1-.1.2l-.1.1c.2 0 .4 0 .6-.1.2 0 .4 0 .6-.1 0 0 0-.1.1-.1.1-.2.2-.4.4-.5.9-.8 1.3-1.5 1.4-2.6 0-.4.4-.4.6-.2.1.1.1.1.1.2 0 1-.4 2.1-1.1 3 1.5-.2 3-.3 4.4-.5 1.7-3.6 6-5.7 9.2-6.3.1 0 .3.1.3.2s0 .2-.2.3c-4.3 1.6-7 3.4-8.4 5.7l1.3-.2c1.9-.2 3.8-.5 5.7-.7 1.5-1.2 3.2-2 5-2.5h.1c.1 0 .2.1.2.2s0 .2-.1.3l-.6.3c-1.1.5-2.1 1-3.1 1.6 2.9-.3 5.2-.4 7.5-.4h1.3c.4-.7 1.3-1 2-1.3.1 0 .2-.1.3-.1.1-.1.3 0 .3.2 0 .1 0 .2-.1.3-.2.2-.4.3-.7.5-.3.2-.6.3-.8.6 7.5.3 13.3 2.4 18.3 6.6.1.1.1.2.1.3-.1.2-.3.3-.5.2-6.7-3.8-13.9-5.8-21.5-5.8-1.2 0-2.5.1-3.8.2-1.3.1-2.6.3-3.7.4-.6 1.6 1.2 4.4 2.1 5.7l.1.1c1.1 1.7 2.6 3.2 3.9 4.5.1.1.1.2.1.3-.1.2-.3.2-.4.1-2.3-1.7-4-3.8-5.4-6.6-.9-1.8-1.2-3.2-1-4.1-1.2.2-2.4.4-3.5.5-1 .2-2 .3-2.9.5.2.2.3.5.3.8 0 .1.1.2.1.3.1.2.1.4.2.7.4 1.1.7 2.3 1.3 3.4 1.2 2.3 2.6 4.3 4.4 6.1.1.1.1.2.1.3-.1.2-.3.2-.4.1-1.7-1.1-3.1-2.6-4.3-4.8-.6-1.1-1.2-2.1-1.5-3.3-.1-.3-.2-.7-.3-1-.2-.8-.4-1.8-.8-2.4-1.6.2-3 .4-4.4.5l.1.1c.1.2.2.3.3.5.6 1 1.2 2.1 1.5 3.3 0 .1 0 .2-.1.3-.1.2-.4.2-.6 0-.5-.7-.9-1.4-1.4-2.1l-.3-.6c-.2-.5-.5-1.1-.9-1.5h-1.9c1.1.7 1.8 1.8 2.2 3.5.2.5.4 1 .5 1.5.3.7.6 1.5 1 2.2.2.8.4 1.7.7 2.5.1.1.2.2.3.2.1 0 .2 0 .2-.2.1-.3.1-.5.1-.8v-.2l.2.1s.1 0 .1.1c.5.5.9 1.1 1.2 1.7.1.2.2.5.4.7.1.2.3.4.4.6.5.9 1 1.5 1.6 1.9v-.2l-.3-.8.2.2v-.1c.1-.1.1-.2.2-.3 0-.1.2-.3.3-.6.1-.1.2-.1.4-.2h.2c.4 0 .6.3.6.6v.7c.9.5 1.6 1.1 2.1 1.6.4.4.8.6 1.2.8.1 0 .1.1.2.1.1-.3.3-.7.6-.9.2-.1.4-.1.6 0 .2.1.3.3.4.4l.2.2c.5.4 1 .8 1.6 1.1.6.3 1.2.4 1.8.5.1-.8.5-1.1.9-1.1h.1v.1c.2.2.3.4.6.5 0 .1 0 .3.1.4.4.3.7.4 1.1.5zm-52.5-8.6c-.7 0-1.5-.1-2.2-.2h-.2l.1-.2c.1-.2.2-.3.3-.4v-.2c0-.1-.1-.1-.2-.1-.4 0-.9.1-1.3.3-.2.1-.4.2-.6.2h-.1c-.4-.1-.7-.2-1-.3l-.2-.1.2-.1c.1-.1.1-.3.1-.4-.1-.2-.2-.3-.4-.4-.6-.1-1.1 0-1.6.2h-.2c-.6-.2-1.2-.5-1.9-.8l-.1-.1.1-.1c.1-.1.2-.3.3-.4.1-.2.1-.3 0-.5-.2-.2-.4-.3-.6-.3-.1 0-.3 0-.4.2-.2.4-.5.4-.8.4h-.1l-.6-.3c-1.1-.5-2.1-1-3-1.4-1.8-.7-3.7-1.2-5.5-1.7H15c-.1 0-.2 0-.3-.1-5.1-1.2-8-2.5-8.4-4-.2-.6 0-1.1.5-1.7l.6-.6c2.9-3.1 6.2-6.7 9.8-8.9 4.8-3 11.4-3.5 16.6-3.9 2.5-.2 4.7-.2 6.7.1 2.2 2.3 3.2 5.1 4 7.9 0-2.5-1.3-5.3-3.5-7.6l-.3-.3.4.1c2.1.4 4 1.1 5.8 2.1.5 1 .9 2 1.2 2.9.2.7.5 1.3.8 2-.2-1.3-.7-2.7-1.5-4.3l-.2-.4.4.3c1.2.8 2.2 1.7 3.2 2.8.9 1 1.7 2.1 2.4 3.2.7 1 1.5 2.1 2.3 3.1l.5.5-.6-.3c-4.8-2.6-10.5-4-16.5-4.2l.1.1v-.1c-1.5-2.3-2.8-4-4.3-5.4-1.4-1.3-2.8-1.9-4.6-1.9-.3 0-.7 0-1.1.1-.1 0-.2.1-.2.2 0 0 0 .1.1.1h.8c2.4 0 4 1.1 5.7 2.7 1 .9 1.8 2.1 2.6 3.1.2.3.5.6.7.9l.2.2h-.8c-7.9 0-15.5 2.3-21.4 6.4-.1 0-.1.1-.1.1 0 .1.1.1.2.1 8.3-3.6 15.7-5.3 22.5-5.3 6.1 0 11.7 1.3 17.3 4.1l.4.2-.4.1c-.7.1-1.4.2-2 .4-.7.2-2 .9-2.4 1.7l-1.1 1.1-.1.1v.1h-.1s-.1 0-.1-.1c-.3-.1-.6-.2-.8-.3-.4.1-.8.1-1.2.1H48.2c-.1.1-.2.3-.3.6-.1.4-.3.8-.4 1.1-.1.2-.1.3-.2.5-.1.1-.1.3-.1.5 0 .1-.1.3-.1.4v.4c-.1.2-.2.5-.3.7-.1.2-.5.2-.6-.1l-.1.1H46c-.2 0-.3-.1-.5-.1-.3-.1-.6-.1-.7-.1-.2 0-.4.1-.5.3v.1h-.1c-.1 0-.1 0-.2.1l-.1.2c-.4.8-.8 1.6-1.4 2.2-.2.1-.3.2-.4.3l-.4.2v-.3c0-.1 0-.3-.1-.3-.1-.2-.4-.2-.6-.2-.6.1-1 .5-1.4 1-.5.6-1 1-1.7 1.1h-.1v-.1c-.1-.3-.4-.4-.7-.4-.2 0-.5.1-.6.3-.1.2-.1.3-.1.6v.1l.1.2h-.2c-.5-.2-.8-.2-1.2-.2zm-1.9-.4c.9.1 1.8.2 2.7.1-.1-.3-.1-.6.1-.8.2-.2.5-.4.8-.4.3 0 .6.2.8.4.6-.2 1-.5 1.5-1 .4-.5.8-.9 1.5-1.1.3-.1.7.1.9.3.1.1.2.2.2.4.1-.1.2-.2.3-.2.5-.6.9-1.4 1.3-2.2l.2-.4c.1-.1.2-.1.3-.1.2-.2.4-.3.7-.3.2 0 .5 0 .8.1.1 0 .3.1.4.1l.3-.2.1.2v.1c0 .1.1.1.1 0 .1-.2.2-.5.3-.7v-.2c0-.1.1-.3.1-.4 0-.2.1-.3.1-.5.1-.2.1-.3.2-.5.2-.4.3-.7.4-1.1.1-.3.3-.5.4-.7v-.1h.8c.4.1.7 0 1.1-.1l.9.3h.1c.4-.5.7-.9 1.1-1.2.5-.8 1.8-1.5 2.6-1.8.5-.2 1.1-.3 1.6-.4-5.4-2.6-10.9-3.9-16.8-3.9-6.8 0-14.1 1.7-22.4 5.3-.2.1-.5 0-.5-.2s0-.3.2-.4c5.9-4.1 13.6-6.4 21.6-6.4h.2c-.2-.2-.4-.5-.6-.7-.8-1.1-1.6-2.2-2.6-3.1-1.7-1.6-3.2-2.6-5.6-2.6h-.7c-.2 0-.4-.2-.4-.4v-.2c-3.9.5-8 1.4-11.3 3.4-3.6 2.2-6.8 5.7-9.7 8.9l-.3.8c-.5.5-.6 1-.5 1.5.4 1.4 3.2 2.7 8.3 3.8.2 0 .3.1.4.1h.2c1.8.5 3.7.9 5.5 1.7 1 .4 2 .9 3 1.4l.5.3c.3 0 .5 0 .6-.3.1-.2.3-.4.6-.4.2 0 .5.1.6.4.1.2.1.5 0 .7-.1.1-.1.2-.2.3.6.3 1.2.5 1.7.7.5-.2 1.1-.3 1.7-.2.3 0 .6.3.6.5.1.2 0 .4 0 .5.2.1.5.2.8.2.2 0 .4-.1.6-.2.5-.2.9-.3 1.4-.3.2 0 .3.1.4.3.1.1.1.3 0 .4.1.3.1.4 0 .5zm11.5-17.3c3.7.6 7.2 1.8 10.4 3.4-.7-.8-1.3-1.7-1.9-2.6-.8-1.1-1.5-2.2-2.4-3.2-.8-1-1.7-1.8-2.7-2.5.6 1.4 1.1 2.7 1.3 3.9 0 .1 0 .2-.1.2-.1.2-.4.1-.5 0-.3-.7-.5-1.3-.8-2-.4-1-.7-1.9-1.2-2.9-1.6-1-3.3-1.6-5.3-2 2.1 2.3 3.3 5 3.3 7.5 0 .1 0 .2-.1.2.1 0 0 0 0 0zm-5.5-.5c1.7 0 3.5.2 5.2.4V32c-.7-2.7-1.7-5.5-3.9-7.7-2-.3-4.1-.3-6.6-.1-.9.1-1.8.1-2.7.2 1.4.2 2.6.8 3.8 1.9 1.4 1.4 2.7 3.1 4.2 5.4zm64.9 14.7c-.1 0-.1 0 0 0-2.1-.7-3.4-2.2-4.5-3.6-.1-.1-.1-.2 0-.4s.5-.3.7-.1c1.1 1.5 2.4 2.7 3.9 3.6.1.1.1.2.1.3 0 .1-.1.2-.2.2zm-4.2-4c-.1 0-.1 0-.2.1v.1c1 1.3 2.3 2.8 4.2 3.5-1.5-.9-2.8-2.1-4-3.6.1-.1.1-.1 0-.1zm-8.2 3.4c-.1 0-.1 0-.2-.1-1.4-1.7-2.7-3.5-2.7-6 0-.1 0-.2.1-.2.1-.1.1-.1.2-.1.2 0 .3.1.3.3.1 1.8.9 3.1 1.8 4.6.2.4.5.7.7 1.1v.2l-.2.2zM89 39.7c0 2.4 1.2 4.2 2.6 5.8-.2-.4-.4-.7-.7-1.1-.9-1.4-1.7-2.8-1.9-4.7.1 0 0 0 0 0zm-51 4.6c-.1 0-.2-.1-.2-.2s0-.2.1-.3c.4-.3.9-.7 1.4-1 1.1-.8 2.3-1.7 3.4-2.6.9-.9 3.1-2.9 3.4-4.7 0-.3.4-.4.6-.2 0 0 .1.1.1.2-.2 1.7-1.9 3.7-2.7 4.4-1.6 1.6-3.5 3-5.8 4.2-.2.2-.3.2-.3.2zm8.3-8.8s-.1 0 0 0c-.3 1.7-2 3.5-3.5 4.9-1 1-2.2 1.8-3.4 2.6-.4.3-.9.6-1.3 1 2.2-1.2 4.1-2.6 5.7-4.2.6-.7 2.4-2.6 2.5-4.3 0 .1 0 .1 0 0zm-13.9 7c-.2 0-.3-.1-.3-.3 0-.1 0-.3.2-.3.3-.2.7-.4 1-.5 1-.5 2.1-1 2.9-1.9 1.5-1.6 2.5-3.1 3-4.6 0-.1.2-.2.3-.2.1 0 .2.1.3.1.1.1.1.2 0 .3-.9 3.2-3.7 6.7-7.4 7.4zm7.1-7.6c-.1 0-.1.1 0 0-.6 1.6-1.6 3.1-3.1 4.7-.8.9-1.9 1.4-3 1.9-.3.2-.7.3-1 .5v.1s0 .1.1.1c3.6-.7 6.3-4.1 7.2-7.2-.1 0-.1 0-.2-.1.1.1 0 0 0 0zm-12 5.3c-.1 0-.2-.1-.3-.2 0-.1 0-.3.1-.3.6-.4 1.2-.8 1.7-1.2 1.2-.7 2.3-1.4 3.1-2.6.2-.2.6-.2.7.1.1.1 0 .3 0 .4-1.2 1.8-3.2 3.2-5.3 3.8zm5-4.2c-.1 0-.1 0-.1.1-.9 1.2-2 1.9-3.2 2.6-.6.4-1.2.7-1.7 1.1v.1c2-.6 3.9-2 5.2-3.7v-.1s-.1-.1-.2-.1zm-10.7-4c-.4-.1-.6-.3-.9-.6l-.2-.2c-.1-.1-.2-.3-.1-.4.1-.3.5-.4.7-.1.1.1.2.2.2.3.1.2.3.4.4.5.1.1.1.2.1.3.1.1 0 .2-.2.2zm-.7-1.3c-.1 0-.1.1-.2.1v.2l.2.2c.2.2.4.4.7.5v-.1c-.2-.2-.3-.4-.4-.5 0-.1-.1-.2-.3-.4.1 0 .1 0 0 0zm45.7.4l.2-.6c.1-.2.1-.4.2-.6.2-.3.5-.8.8-1.5l.2-.5.1.1c.2.1.4.1.7-.2l.6-.4-.4.6c-.7.9-1.3 1.8-2 2.7l-.4.4zm.6-1.2c.4-.5.9-1.1 1.3-1.7h-.4l-.1.2c-.3.6-.6 1.1-.8 1.5zm18.8 0l-.2-.5h.5l-.2.2v.1l-.1.2zm-18.7-2.4l.1-.6c.1-1.1.1-2.2.1-3.2h.2c0 .3.2.6.3.9.1.2.2.4.4.6l.1.1v.1c-.2.5-.5 1.1-.8 1.7l-.4.4zm.5-3.1c0 .6 0 1.2-.1 1.8.2-.4.4-.7.5-1.1-.1-.2-.3-.4-.4-.6v-.1zm.3 3.1l.8-1.8.1.2.1.1h.2c.1 0 .1-.1.1-.1s0-.1-.1-.1h-.1v-.1-.2l.1-.1c.3-.2.7-.4 1-.5.3-.1.5-.3.8-.4l.5-.3-.3.4-.1.1c0 .1-.1.1-.1.2-.3.4-.6.8-.8 1.2l-.5.6-.1-.1c0-.1-.2-.1-.3-.1-.2.1-.4.3-.6.4l-.1.1c-.1.1-.1.1-.2.1l-.4.4zm.9-1.3l-.2.5c.2-.1.3-.3.5-.4.2-.1.4-.1.5 0l.2-.3c.3-.4.5-.7.8-1.1-.1.1-.2.1-.4.2-.3.1-.6.3-.9.5.1.1.2.2.1.3 0 .2-.1.3-.3.3h-.1-.2zm-.3-1.4l-.1-.2c0-.1-.1-.2-.1-.3 0-.1-.1-.2-.1-.3l-.1-.2c-.1-.2-.2-.4-.3-.7v.2H68c0-.7 0-1.4.1-2.1.2-3.6 1.8-7.8 2.8-10 .3-.7.9-1.3 1.5-1.9.7-.8 1.5-1.6 1.6-2.5h.2c-.2 1 .2 2.5.6 3.9.2.9.5 1.8.5 2.4.2 3.4-.7 6.7-3 10.5v.1h-.1-.1c-.5.3-1 .5-1.7.8-.1 0-.2.1-.3.1l-.3.2.1-.3c0-.1.1-.1.1-.2s.1-.2.1-.3c.2-.5.4-1.1.6-1.8v-.1h.1c.2-.1.5-.2.7-.3.3-.2.5-.4.8-.6.2-.2.4-.3.6-.5v-.1c0-.1-.1-.1-.1-.1-.2.2-.4.3-.7.5-.2.2-.5.4-.7.5-.2.1-.3.2-.5.3l-.2.1.1-.3c.5-2 .6-3.8.7-5.8 0-1.1.1-2.1.2-3.3v-.1c-.1-.1-.3-.1-.4.1-.4 1.6-.5 3.2-.6 4.8-.1 1.6-.2 3.3-.7 5 0 .2-.1.3-.2.5l-.1.4-.2-.3c-.3-.4-.5-.7-.9-1 0 .3.2.6.4.8.1.1.2.3.3.4l.3.3v.2c-.1.4-.3.7-.4 1l-.3.2zm1.8-2.6c-.2.7-.4 1.3-.6 1.8 0 .1-.1.1-.1.2.7-.3 1.2-.5 1.7-.8h.2c2.2-3.7 3.2-7 3-10.3 0-.6-.3-1.5-.5-2.4-.3-1.1-.6-2.3-.7-3.2-.3.6-.9 1.2-1.4 1.8-.6.6-1.1 1.2-1.4 1.8-1 2.2-2.7 6.3-2.8 9.9 0 .6 0 1.1-.1 1.7.1 0 .2 0 .3.1.1.2.2.4.3.7l.1.2c.1.1.1.2.1.3.1-.2.2-.4.3-.7-.1-.1-.1-.2-.2-.2-.1-.1-.2-.3-.3-.4-.2-.2-.4-.5-.5-.9 0-.1 0-.1.1-.2s.3-.1.4 0c.4.3.6.6.9.9 0-.1.1-.3.1-.4.5-1.7.6-3.3.7-4.9.1-1.6.2-3.2.6-4.8.1-.2.2-.3.5-.3.1 0 .3.1.4.1.1.1.1.2.1.3-.1 1.1-.2 2.2-.2 3.3-.1 1.9-.2 3.7-.6 5.6.1 0 .1-.1.2-.1.2-.2.5-.4.7-.5.2-.2.4-.3.7-.5.2-.1.4 0 .5.2 0 .2 0 .3-.1.4-.2.1-.4.3-.6.4-.3.2-.5.4-.8.6-.5.2-.7.2-1 .3zM69 20.9c-.1 0-.2 0-.3-.1-.1-.1-.1-.2-.1-.3v-.2c0-.1.2-.2.3-.2.2 0 .3.1.3.2v.2c0 .1 0 .2-.1.3.1.1 0 .1-.1.1zm0-.6c-.1 0-.1 0 0 0l-.1.2v.1c0 .1.2.1.2 0v-.1l-.1-.2z"/></g></svg>