<svg id="Layer_1" xmlns="http://www.w3.org/2000/svg" viewBox="-289 111.4 379.7 338.6"><style>.st0{opacity:.5}.st1{fill:#fff}</style><g class="st0"><path class="st1" d="M-276.8 406.4h9.5c5.1 0 8.7 2.3 8.7 6.7 0 2.2-1 4.4-3 5.5v.1c3 .9 4 3.5 4 5.8 0 5.6-4.7 7.7-9.8 7.7h-9.5v-25.8zm9.5 10c1.6 0 2.3-1.2 2.3-2.4s-.7-2.2-2.4-2.2h-3.1v4.6h3.2zm.5 10.3c1.8 0 2.7-1.3 2.7-2.7 0-1.4-.9-2.6-2.7-2.6h-3.8v5.3h3.8zM-253.8 413.6h6v3.1c0 .6-.1 1.2-.1 1.2h.1c.8-2.5 3.1-4.6 5.9-4.6.4 0 .7.1.7.1v6.1s-.5-.1-1.3-.1c-1.5 0-3.9.5-4.8 3.2-.2.7-.3 1.5-.3 2.5v7h-6.2v-18.5zM-229 420.6h.3v-.3c0-1.5-1.2-2.1-2.7-2.1-2.3 0-5 1.8-5 1.8l-2.2-4.4s3.2-2.4 7.8-2.4c5.2 0 8.4 2.8 8.4 7.6v11.4h-5.7V431c0-.6.1-1.2.1-1.2h-.1s-1.4 2.7-5.3 2.7c-3.5 0-6.3-2.3-6.3-6-.1-5.3 7.8-5.9 10.7-5.9zm-2.7 7.2c1.6 0 3.1-1.8 3.1-3.3v-.4h-.6c-2 0-4.2.6-4.2 2.1-.1.9.4 1.6 1.7 1.6zM-218.2 413.6h6v1.6c0 .6-.1 1.2-.1 1.2h.1c.9-1.4 2.6-3.2 5.9-3.2 3.7 0 6.7 1.7 6.7 6.9v12h-6.2v-10.9c0-1.7-.7-2.4-2.1-2.4-1.9 0-3.1 1.1-3.7 2.7-.3.7-.4 1.5-.4 2.4v8.2h-6.2v-18.5zM-188.1 413.2c3.7 0 4.9 1.5 4.9 1.5h.1V406.5h6.2v25.7h-5.8V431v-1h-.1s-1.5 2.7-5.4 2.7c-5 0-8.4-4-8.4-9.7 0-6 3.6-9.8 8.5-9.8zm1.4 14.2c1.9 0 3.6-1.4 3.6-4.6 0-2.2-1.2-4.4-3.6-4.4-1.9 0-3.6 1.6-3.6 4.4 0 2.8 1.5 4.6 3.6 4.6zM-171.1 425.7s2.1 1.9 4.7 1.9c.9 0 1.8-.3 1.8-.9 0-1.6-8.7-1.8-8.7-7.8 0-3.5 3.3-5.7 7.6-5.7s6.5 2.1 6.5 2.1l-2.1 4.4s-1.8-1.5-4.4-1.5c-.9 0-1.8.3-1.8.9 0 1.4 8.7 1.6 8.7 7.6 0 3.2-2.8 5.9-7.6 5.9-4.6 0-7.4-2.7-7.4-2.7l2.7-4.2zM-147.2 413.6h6.2v18.5h-6.2v-18.5zm.1-7.2h6.1v4.9h-6.1v-4.9zM-136.3 413.6h6v1.6c0 .6-.1 1.2-.1 1.2h.1c.9-1.4 2.6-3.2 5.9-3.2 3.7 0 6.7 1.7 6.7 6.9v12h-6.2v-10.9c0-1.7-.7-2.4-2.1-2.4-1.9 0-3.1 1.1-3.7 2.7-.3.7-.4 1.5-.4 2.4v8.2h-6.2v-18.5zM-103.1 406.4h6.8l3.7 10.9c.6 1.7 1.3 4.2 1.3 4.2h.1s.7-2.6 1.3-4.2l3.7-10.9h6.8l2.1 25.7h-6.3l-.8-11.6c-.1-1.9 0-4.3 0-4.3h-.1s-.9 2.7-1.4 4.3l-2.7 7.5H-94l-2.7-7.5c-.6-1.6-1.4-4.3-1.4-4.3h-.1s.1 2.4 0 4.3l-.8 11.6h-6.3l2.2-25.7zM-63.6 413.2c5.9 0 10.5 3.9 10.5 9.8 0 5.8-4.7 9.6-10.5 9.6s-10.5-3.9-10.5-9.6c0-5.9 4.7-9.8 10.5-9.8zm.1 14.2c2.3 0 4.2-1.7 4.2-4.5s-1.9-4.6-4.2-4.6-4.2 1.8-4.2 4.6c-.1 2.8 1.9 4.5 4.2 4.5zM-52.2 413.6h6.6l2.9 9.9c.4 1.2.7 3.2.7 3.2h.1s.3-2 .7-3.2l2.8-9.9h6.6l-6.3 18.5h-7.6l-6.5-18.5zM-21.2 413.2c5.5 0 8.6 3.8 8.6 9 0 .6-.1 1.9-.1 1.9h-11.7c.5 2.3 2.3 3.3 4.3 3.3 2.7 0 5.1-1.9 5.1-1.9l2.3 4.4s-3 2.7-7.9 2.7c-6.6 0-10.2-4.8-10.2-9.7-.1-5.5 3.6-9.7 9.6-9.7zm2.3 7.3c0-1.4-1-2.7-2.4-2.7-1.8 0-2.7 1.3-3 2.7h5.4zM-9.3 413.6h6v1.6c0 .6-.1 1.2-.1 1.2h.1c.9-1.3 2.6-3.2 5.5-3.2 2.3 0 4.2 1 5.2 3.1h.1c1-1.5 3.2-3.1 5.9-3.1 3.4 0 6 1.8 6 6.9v12h-6.2v-11c0-1.4-.3-2.3-1.4-2.3-2 0-3 1.4-3.4 3.5-.1.6-.1 1.4-.1 2.2v7.7H1.9v-11c0-1.4-.3-2.3-1.4-2.3-1.9 0-3 1.4-3.4 3.3-.1.7-.2 1.5-.2 2.3v7.7h-6.2v-18.6zM32.1 413.2c5.5 0 8.6 3.8 8.6 9 0 .6-.1 1.9-.1 1.9H28.8c.5 2.3 2.3 3.3 4.3 3.3 2.7 0 5.1-1.9 5.1-1.9l2.3 4.4s-3 2.7-7.9 2.7c-6.6 0-10.2-4.8-10.2-9.7 0-5.5 3.7-9.7 9.7-9.7zm2.3 7.3c0-1.4-1-2.7-2.4-2.7-1.8 0-2.7 1.3-3 2.7h5.4zM44 413.6h6v1.6c0 .6-.1 1.2-.1 1.2h.1c.9-1.4 2.6-3.2 5.9-3.2 3.7 0 6.7 1.7 6.7 6.9v12h-6.2v-10.9c0-1.7-.7-2.4-2.1-2.4-1.9 0-3.1 1.1-3.7 2.7-.3.7-.4 1.5-.4 2.4v8.2H44v-18.5zM67.9 418.8h-2.4v-4.9H68v-5.3h6v5.3h4v4.9h-3.9v5.7c0 2.1 2.1 2.4 3.3 2.4h.8v5.4s-.7.1-1.7.1c-3 0-8.7-.8-8.7-7v-6.6z"/></g><g id="XMLID_147_"><path id="XMLID_148_" class="st1" d="M-274 360.3s11.4 10.4 24 10.4c5.1 0 10.5-2 10.5-8 0-11.9-45.2-11.5-45.2-42.4 0-18.5 15.6-30.7 35.5-30.7 21.6 0 32.3 11.4 32.3 11.4l-10.4 20.1s-10.1-8.8-22.2-8.8c-5.1 0-10.7 2.2-10.7 7.9 0 12.6 45.2 10.4 45.2 42.1 0 16.7-12.8 31.2-35.4 31.2-23.6 0-36.6-14.3-36.6-14.3l13-18.9z"/><path id="XMLID_150_" class="st1" d="M-200.7 291.3h41.7c19.5 0 32.7 14.3 32.7 34.5s-13.2 34.8-32.7 34.8h-17.1v31h-24.6V291.3zm36.6 48.3c8.6 0 12.8-5.8 12.8-13.8s-4.2-13.5-12.4-13.5h-12.5v27.2l12.1.1z"/><path id="XMLID_153_" class="st1" d="M-115.2 291.3h24.6v100.4h-24.6V291.3z"/><path id="XMLID_155_" class="st1" d="M-25.8 289.6c24.8 0 37.6 14.2 37.6 14.2L.4 322.3s-11.2-10.2-25.1-10.2c-19.2 0-28.4 14.2-28.4 28.6 0 14.9 9.8 30.2 28.4 30.2 15.2 0 26.7-12.4 26.7-12.4l12.6 18S.4 393.3-25.8 393.3c-31.4 0-52.6-22.3-52.6-52.1 0-29.2 22.5-51.6 52.6-51.6z"/><path id="XMLID_157_" class="st1" d="M23.8 291.3h62.9v21.1H48.4v18.3H79v21.1H48.4v19h40.3v21.1H23.8V291.3z"/></g><path id="XMLID_471_" class="st1" d="M25.8 247.9v-.3.3z"/><path id="XMLID_470_" class="st1" d="M2.7 251.8l.2-.2c-.2.1-.2.1-.2.2z"/><path id="XMLID_469_" class="st1" d="M39 243.3c0 .1 0 .1 0 0 .2 0 .5-.1.9-.3l-.9.3z"/><path id="XMLID_468_" class="st1" d="M-47.3 253.1h.3-.3z"/><path id="XMLID_467_" class="st1" d="M-17.6 253.7c-.1.1-.2.2-.4.2.2 0 .3 0 .4-.2z"/><path id="XMLID_466_" class="st1" d="M48.6 244.6l-.6-.1c.1.1.3.2.6.1z"/><path id="XMLID_465_" class="st1" d="M58.6 232.6c-.1 0 0 0 0 0z"/><path id="XMLID_464_" class="st1" d="M53.8 236.3c-.1.1-.1.3-.2.4.1-.1.3-.2.2-.4z"/><path id="XMLID_463_" class="st1" d="M53.5 236.9c0-.1 0-.1.1-.2-.1.1-.1.2-.1.2z"/><path id="XMLID_462_" class="st1" d="M-213.2 190.4c-.3-.3-.7-.3-1.2-.4l1.2.4z"/><path id="XMLID_461_" class="st1" d="M-92.2 248l.1-.1c-.1 0-.1.1-.1.1z"/><path id="XMLID_460_" class="st1" d="M-216 192.4l-.2-.3c0 .2.1.2.2.3z"/><path id="XMLID_459_" class="st1" d="M42 249.6c-.2.5-1.3.5-1.1.8.4-.2 1.1-.3 1.1-.8z"/><path id="XMLID_458_" class="st1" d="M-104.8 260.3h-.3.3z"/><path id="XMLID_457_" class="st1" d="M-216 192.4l.2.3c0-.1 0-.1.1-.2-.2 0-.3 0-.3-.1z"/><path id="XMLID_456_" class="st1" d="M-137.4 235.3h.1-.1z"/><path id="XMLID_455_" class="st1" d="M-139.5 233.9c.2 0 .3 0 .5.1-.2-.2-.4-.2-.5-.1z"/><path id="XMLID_454_" class="st1" d="M-214.4 189.9l-.7-.2c.2.1.4.2.7.2z"/><path id="XMLID_453_" class="st1" d="M-164.1 223.3c.1 0 .2.1.2.1 0-.1-.1-.1-.2-.1z"/><path id="XMLID_452_" class="st1" d="M-15.7 253.7c.1 0 .2 0 .2.1 0-.1 0-.2-.2-.1z"/><path id="XMLID_451_" class="st1" d="M-34.2 265z"/><path id="XMLID_450_" class="st1" d="M-33.2 264.5c-.3-.1-.8.2-1 .5.3 0 .6-.1 1-.5z"/><path id="XMLID_449_" class="st1" d="M-36.4 264.8h.1-.1z"/><path id="XMLID_448_" class="st1" d="M-15.5 264.6z"/><path id="XMLID_447_" class="st1" d="M-19.7 265c-.1-.1-.2-.1-.3-.2.1.1.2.2.3.2z"/><path id="XMLID_446_" class="st1" d="M-46.7 265.8z"/><path id="XMLID_445_" class="st1" d="M-86 265.1c3.9.4 9.1.3 13 1 .9-.7 2.2-.6 3.4-.6v1.1l1.1-.2c.4.4-.8.1-.1.6l.5-.6c0 .4 2.6.5.8 1.1l2 .2 2 .2c.9.1.6-.8 1.6-.5.2.3-.4.2-.3.6 2.9 1 3.6-1.8 6.3-1.2l-.2.1c.5-.3 1.4-.2 1.4-.3-.3-1.1-.5.5-1.3-.1.1-.9 1.1-.4 1.1-1.1.6.4 1-.1 1.6-.2.9.6 2.3.3 3 1 .5-.3 1-1.1 2-1.1.7.7-.2.7.8 1l.2-.5c.8.1.7.2.6.5.9 0 .7-.7 1.8-.3l-.6.5c.8-.2 1.1-.1 2.2 0 0 .3-.5.3-.8.2.6.8 1-.3 1.4-.2-.1-.2-.9-.3-.5-.8.5.1 1.2-.7 1.6-.1l-.6.5c1.2-.4.6-.6 1.9-.4-.1 0 0 .2-.1.3.8-.7 1.9 0 3.2 0l-.2.1c.5-.2.8-.6 1-.6-.7-.3-.5-.4-.6-.9.9.8 1.4-1 2.9-.5 0 .3-.4.7-.8.4-.5.9-.6 1.6-1.5 2.1.6-.2 1.2-.3 1.1 0l.2-.8h.9c.1-.5-.7-.8.1-1.2.9-.3.5.8.6.5 1.2-.4.5-.9 1.7-.7-.1.1-.3.2-.5.1.9.3 2.1-.2 2.4.8-.1.2-.1.5-.5.4v-.2c-.9.7.8-.2.5.7-.1-.5 1.1-.4 1.7-.4l-.2-.6c1.7-1.9-.1 1.2 1.7.9 1.1-.5-.4-.1.2-.6.8.1 1.1.6 2.2.3.3.2 1 .5 1.1 1.2.7-.3 2.1.2 2.5-.5-1.2-.5-1.1.8-2.6 0l.3-.7c1 0 2.1-.4 2.8-.2-.1-.1-.2-.3-.1-.4 1.3-.3 1.7-1 3-.9.2.6-.6.5-1.1.6.9.4.9 0 2.2 0 .1.5-.9 0-1 .6l1.4-.3v.1c.1-.9 1.1 0 2-.4 2.1-.2 2.3-1.4 3.4-2.2.3.2.5.4.3.7-.6-.3-.4 0-.6.2.7-.2 1.6.7 1.3 1.1 1.1-.4-.5-.4.2-.8l1.6-.1c-.2-.4-.8-.5 0-.9.7-.2 1-.2 1.9-.2-.1.2.4.6-.3.7.4.1 1.1.1 1.3-.4-1-.3 1.5-.6.7-1.2l1 .3c-.2 0-.2.3-.5.3.4.6.8-.3 1.1-.4.4.1 1.2 0 1.4.3.3-.2 1-.2 1.2.1.4-.2 0-.4.1-.7l1.5-.2c.1.4.4 1.4.2 1.6.5-.4 0-1.1.9-1.2-.4.8 1.3.4.7 1.3.6.5 2 .2 2.8-.2.4-.7-.9-.2-1-.8 2.2-.6 2-2.3 3.7-2.3l-.5-.1c.9-.5.8-.4 1.3-1.1-.1.8 1.5 1.7 3.2 1.2.1-.4-1.1-.5-.9-1.1l1.1-.3c.1 0 0 .2-.1.3.9-.5 2 .5 2.1-.4l1.2.8-.5-.4c.1-.4 1.1-.7 1.3-1 1-.7 1.5-.5 2.2-.2-.3-.2-.9-.8-.1-1.1.3 1.2 2 0 2.1.5.3-.1 1.1.1 1-.4l.1.7c-.2-1 1.1-1.4 2-1.8.2 1.4 1-.4 1.9.6-.1-1 1.6-.9 1.5-1.8.7-.3.9.6 1.2.8l.2-.5c.5.3 2-.1 2.9-.2l.5-1.1.4.2c0-.3.6-.6.1-.8l.4-.1c-.3-.9.5-.5 1.2-1.2.2.1.3.3.1.5.4-.2.4.3.8.5-.4-.1.8-2.2-.4-2.1-.2-.3.3-.8.8-.9l.6.7.1-1c.6-.4 1.1 0 1.6-.2-.5.3-.5 2 .9 1.3-.7.4-.8 1-1.1 1.3.3-.1.5-.1.2.4 1-.7.1-.6 1.2-1.2.3.7.7.8 1.7.6l-.9-.2v-.2c-.3 0-.4 0-.6-.3.2-.1.8-1.4 1.2-1.1-.8-.3-.4-.7 0-1.1.4-.4.9-.8.4-.9 0-.3.7-.7.9-.4-.6.9 1 .4 1.1.9.2-.4-.9-.1-.6-.6.5-.3 1.1-.1 1.5 0l-.1.2s.2 0 .5-.1c.2 0 .5-.1.5-.1-.1-.4-1.1-.1-.4-.7.3 0 .9-.6 1-.3-.1.6.5 1.1 0 1.6.5-.3 2.1-1.4 1.1-1.6l.6-.3c-.5 0-1.9.1-.7-.7l.1.1.5-1 .6.1c-.1-.2-.1-.4.2-.6.2.1.5 0 .7.3.9-.6.6-.9.5-1.1.4-.4.7-.4.7.1.7-.4 1.8-1.3 2.5-1.4.6-1-.3 0-.1-.8.8.2 1.6-.3 2.3-1 .4-.4.7-.8 1-1.2.3-.4.6-.9.9-1.3-1.2-.4.2-.5-.3-1.4 0 .6 1.8-.8 1 .7l.5-.9c.9-.2-.7 1.6.7 1.3.3-.5.4-1.1.5-1.6 0-.3.1-.5.2-.8.1-.3.3-.5.5-.8.4.8.3-1 .9-.3.1.4-.2.7-.3 1.1l.3-.1c1.6-2.2-.4-1.1-.2-2.6.6-1.4 1.1-.8 1.5-.8.1-.1.3-.3.3-.6.1-.3.1-.6.1-.9.2 1.2-1.2 1.5-1.4.9.6-.1.8-.7.8-1.3s-.1-1.2-.2-1.4c-.8.9-.9 1.2-1.1 1.6-.1.3-.3.6-1.2 1.3.1.4.9.7 0 1.6 0-.8-.4-.2-.6-.1.5 0-.3.8-.3 1.2-.5.1-.6-1.2-1.3-.3l.8.8c-.4.3-.6-.6-.9.3-.2-.8-.8-.4-.2-1.5-1.6.6-.9 2.1-1.4 3.3 0-.1-.1-.2-.1-.4.1.4-.3.7-.5 1-.7.4 0-.8-.3-.9 0 0-.2.2-.4.5l-.4.4h-.1c-.1.3-.3.6-.6.5 0-.5-.1-.9-.2-1.2l-.4 1.4c-.2-.4-1.2.2-.7-.6l-.2.2c-.1.1-.3.3-.4.5-.3.3-.7.6-.7.6l-.6-.5c-.2.4-.2.5.3.2-.5.3-1.4 2.8-2 1.4-.8 1.4-1.4 1.4-2.7 2.7.8-1.3-1.8.1-.7-1-.9.1-.6.9-1.1 1.4-.7 0-.8-.7-.4-1.3l-.5.7-.1-.1-.4.7c-.8 0-.5-.6-1.2-.3l.2.7-.6-.1c.3.2 0 .5-.5.8l-.1-.1-.5.4c.4-.7-.6.1-.5-.4-.5.2-.5.2-1.4.8l.4.3c-1 .9-.3-.6-1.3-.2l.3.4c-1.7-.2-2.2 1.5-3.4 1.4.6-.4.2-.9.2-.7-.8.6-2.4 1-3.1 2-.6-.6-.8-.8-1.9-.7-.7.3-.8.4-.9.9-.8 0-1.9.8-2.1.3 0 .5-.7.1-.9.6l-.2-.2.2.5c-1.6-.7-1.9 1.3-3.5.7l.2-.2-.5.4c-.1-.2 0-.4 0-.7 0 0-.6.2-1.2.3-.6.2-1.2.3-1.2.3l.6.3c-.5.2-.7.8-1.4.6.8-1-.8.2-1.1-.4l.5-.3c-.7.2-.7.2-.5.7-.9.4-.9-.8-1.6 0l.6-.1c.3.3-.1.8-.5.9-.1-.1-.5-.2-.2-.4-.7.4-1.9.4-2.2.7-.4-.1-.4-.5-.2-.6-1.5.8-.7.1-2.2.9v-.3l-.5.5-1.3-.6.4.3c-.5.2-.8.4-1.5.4l.2-.5c-1.4.5-1.9-.4-3.2.5-.1-.1.1-.2.2-.3-1.2.9-1.1-.6-2.3.5.1-.2-.1-.3-.1-.5l-.6.4-.1-.6-.3.9-.5-.5-.2.3c-.8-1-1.6 0-2.6-.7l.3.7c-1 .9-2.3.9-3.7.8-1.4-.1-2.8-.4-4.1.1v-.6l-1 .8c-.7-.4.3-.5.1-.8-1.2.4-.4.9-1.8 1.2-.8-.3.2-.5.5-.7-1.3.4-3.2 1-4.1.7 0 .1-.1.2 0 .2-.9.3-2 .2-3 .3 0-.3.2-.3.5-.4-.3 0-.8-.2-1.1.1l.3-.5c-.7 0-2.1.5-2.3-.1.1.2.1.7-.5.7-.4-.9-1.7.5-2.8.1.1-.2.9-.3.6-.3-.5-.2-1 .2-1.4.5l.1-.4-2.4.6c-.4-.9-2.3.2-2.1-.4-.9 0 .7.4-.3.5-.3-.4-1 .2-.9-.4l.1-.1-.8.1.5-.6c-.6.1-1.1.7-1.1 1.2-.6-.3-1.5 0-1.8-.5l.2-.1c-1.7.2-2.9-1.6-4.2-.6-.1-.1-.1-.2.1-.2h-1.1l.3-.4-1.8.7v-.3c-1.2-.1-3 0-4.5.1l.2-.1c-1.6.4-1.6-.3-2.8 0 0-.1.1-.1.1-.1h-1.1l.2-.3c-.8.6-2.2-.9-1.8-.4-.5.3-1.3.6-1.4.9-1.2 0-.3-.4-1-.7-.8-.1-1 .4-2.2.1v-.3c-.5 0-.9.2-1.6.2l.2-.1c-1.3.5-1.5-1-2.5.3-.5-.3-1.5-.1-1.4-.7-1.5.3-2.7.3-4.3.5-.2-1-.3 0-1.2-.6v.5c-2.1-.2-4.5-1.6-6.8-1.7v-.5l-.5.5c-2.5-.5-5.7-1.2-7.7-1.5-.7.2-1.8.6-2.8.3l.1-.1c-1.9 0-3.8-.1-5.7-.7.2-.2 0-.4.2-.5-.6.5-1.2-.2-1.6-.3l.4.5c-.6.4-1.4-.2-1.6-.6l-1 .4c0-.1-.1-.2-.1-.2l-.2.2-.3-.8c-.2.1-1.4 0-1.9.6 0-.2-.8-.6-.2-.6l-1.6-.4-1.6-.4.4.3c0 .5-1.1.6-1.5.3.7-.3.2-.7 0-1.2-.5.2.3.5 0 .8-.6.2-1.8.2-2.1-.1l.4-.1c-.8 0-.9-.9-1.7-1.1-.8.3-1.1-.2-1.2.7-1 0-.2-.7-.5-.8-.5.3-1.8-.3-1.9-.8-.8 1.2-2.4-1.1-2.9 0l-.6-.8c-.1.3-.4.9-1.1.8-.5-.5-.2-.9-.3-1.3l-.7 1c-3.1-2-7.8-2.5-11.2-4.6-1.7-.3-3.9-.5-5.8-1.2l.3-.1s-.4-.2-.9-.5c-.4-.2-.9-.5-.9-.5l1.2.9c-.5 0-.8.1-1.2-.1-1.9-1.2-4.5-2.6-7.2-3.1-2.1.6-.7-1.5-2.6-1.2.2-.1.3-.2.5-.3-1.8-.2-2.8-.4-4.8-.4.7-1.1-1.1-.4-.7-1l-.3.4c-.3-.4-1.1-.9-.8-1.2l-1 .3.1-.5c-.9-.5-3.2-1-3.3-2.2-2.7-.3-6.3-2.3-9.1-3.9-.6.2-1.5-.2-2.2-.5l-.4-.9c-.8-.2-1.8.1-2.3-.5 0-.1.1-.1.1-.1-.7-.2-1.2-.9-2.1-.7-.7-.4-1.3-1.1-.8-1.5-.6.9-1.5-1-1.5-1s-.6-.4-1.6-1-2.5-1.6-4.2-2.7c-3.5-2.3-8.2-5.5-13.1-8.9-9.9-6.8-20.1-15.2-25.9-17-.6.1-1.6-.4-1.7.3-.7-.4-.3-1.3-.8-1 .5 1-1.2.7-.9 1.9l-.6-.4c-.4.2.9.3.3.7l.8-.5c.3.5.3.8.2 1.2.6.1 1.8-.6 2.2.6l-.3-.2c.7.7 0 .9 0 1.1l.5-.5.2.9c-.2-.7-1.5-.8-1.1-.5.6 1-.1-.4.7.2.4.3 0 .6-.3.8l.7.7c-.3.3-.4-.5-.5.1 0 0 .3.1.6.3l.6.2c-.6 1 1.4.5 1 1.7-.8-.4-.2.3-.6.5l1.7 1.4c0 .3-.7-.1-.4 0 .1.5.7.3.8.4-.1.4 1.2 1.1.7 1.6.8 1.4 1.1-.3 1.9.9-.2.5-.9-.6-.7.1l1.2.8c-.2.1-.7.4-1-.1 2.5 3 2.7 6.2 5.9 8 .1.7-.5.1-1 .1 2.5 1 2.2 3.2 4 4.5l.3-.3c1.7 3 5.3 4.5 7.9 7l-.2-.5c.6-.1 1.3.3 1.9.5-.1.2-.9.6.1 1-.1-.3-.4-.6-.1-.7.9 1.3 2.8 2.8 5 4.3s4.6 3 6.6 4.5c6 3.1 12.2 7.2 18.4 9.8-.9-.4-.1-1.2.5-.7 1.1 2.6 3.4 1.2 4.9 3.2 1.9.5 3.5 1.5 5.1 2.3s3.2 1.5 5.2 1.5l-.1.5c.4.4.7.1 1.2.3l-.1.1c1.2.7 2.9.7 3.5 1.2l.2-.5c.8.2.2.6 1.1.5l-.1.3 1.1-.2c-.4 1 2.1.8 2.5 1.5 1 .1 3 .3 4.4 1 .1.6 1.9 1.2 3 1.8 1.2.3 2.6.6 4 1 1.5.4 3 .8 4.4 1.3l.1-.7.8.2c0 .1 0 .2-.1.3.4.9 1.8.2 2.3.9-.2-.7-.5-.2-.9-.4-.5-.5.2-1 1-.4l-.1.1.7-.2c-.1.5.4.9.3 1.4 2.5.5 4.5.1 7 .9-.4.5 1.9.3 1.1 1.2 1.6 0-.1-.9.8-1.4.4.1 1-.1.9.3-.3.2.2.7-.2.7l1.1.1c.1.1-.2.2-.3.2 2.3-.1 3.6 1.5 5.7 1.3.2-.3-.7-.3-.5-.6 2.1-.4 1.6 1 3.5.8l-.5.4c.6-.2 1-.6 1.9 0 .1.6-.9.3-1.4.5.7.2 2.4.3 1.9-.3.8-.1 1 .5 1.4.8 0-.1-.7-.5-.2-.7 1 .5 2.7.8 4 1.1 0 .1 0 .4-.1.4 1.6-.4 1.2.9 2.7 1z"/><path id="XMLID_444_" class="st1" d="M-15 264.6h-.5c0 .1 0 .3-.2.5l.7-.5z"/><path id="XMLID_443_" class="st1" d="M-40.4 265.3c-.1 0-.1.1-.2.2.2-.1.2-.1.2-.2z"/><path id="XMLID_442_" class="st1" d="M-46.6 266.3c.4-.1.1-.3-.2-.4.1 0 .1.2.2.4z"/><path id="XMLID_441_" class="st1" d="M-.9 261.4c-.1.1-.1.2-.1.3.1-.2.1-.3.1-.3z"/><path id="XMLID_440_" class="st1" d="M37.9 251.5h-.2.2z"/><path id="XMLID_439_" class="st1" d="M35.4 251.5c-.1 0-.2.1-.4.2.2 0 .3-.1.4-.2z"/><path id="XMLID_438_" class="st1" d="M-10.4 262.8c-.1 0-.3.1-.4.2.2 0 .3-.1.4-.2z"/><path id="XMLID_437_" class="st1" d="M34.6 252l-.5.1v.1l.5-.2z"/><path id="XMLID_436_" class="st1" d="M38.5 251.2c-.2.1-.5.2-.7.2.4.1.6 0 .7-.2z"/><path id="XMLID_435_" class="st1" d="M13.3 258c-.4.3-.2.2 0 0z"/><path id="XMLID_434_" class="st1" d="M32.7 253.9l-.2.2.2-.2z"/><path id="XMLID_433_" class="st1" d="M40.9 250.4c-.1.1-.2.1-.2.2.1 0 .2 0 .2-.2 0 .1 0 .1 0 0z"/><path id="XMLID_432_" class="st1" d="M21.6 256.8c.1-.3.1-.4.1-.5-.2.1-.3.2-.1.5z"/><g><path id="XMLID_431_" class="st1" d="M-153.9 189c0 .1-.1.1-.1.3.1-.2.1-.3.1-.3z"/><path id="XMLID_430_" class="st1" d="M-134.2 193.7l-.3.1c.2 0 .2 0 .3-.1z"/><path id="XMLID_429_" class="st1" d="M-165.9 187.1c-.2-.1-.4-.1-.8-.2l.8.2z"/><path id="XMLID_428_" class="st1" d="M-93.2 206.6l-.3-.1c.1 0 .2.1.3.1z"/><path id="XMLID_427_" class="st1" d="M-117.3 198.2c.1-.1.2-.1.4-.1-.2-.1-.3-.1-.4.1z"/><path id="XMLID_426_" class="st1" d="M-172.1 181l.3.4c0-.2-.1-.4-.3-.4z"/><path id="XMLID_425_" class="st1" d="M-184.7 182.4s0 .1 0 0c0 .1 0 0 0 0z"/><path id="XMLID_424_" class="st1" d="M-179.8 184c.1 0 .2-.1.4-.2-.2 0-.4 0-.4.2z"/><path id="XMLID_423_" class="st1" d="M-179.3 183.7l-.2.1c.1 0 .2 0 .2-.1z"/><path id="XMLID_422_" class="st1" d="M60.7 231.5c.3-.3.3-.7.3-1.2l-.3 1.2z"/><path id="XMLID_421_" class="st1" d="M-56.7 220.5l-.1.1c.1 0 .1 0 .1-.1z"/><path id="XMLID_420_" class="st1" d="M58.4 228.9l.2-.1s-.1 0-.2.1z"/><path id="XMLID_419_" class="st1" d="M-165.4 180.3c.4-.4 1.1.2 1.1-.2-.3 0-.9-.4-1.1.2z"/><path id="XMLID_418_" class="st1" d="M-43.4 210.2l.2.1c-.1 0-.2-.1-.2-.1z"/><path id="XMLID_417_" class="st1" d="M58.4 228.9l-.3.2c.1 0 .1 0 .2.1.1-.2.1-.3.1-.3z"/><path id="XMLID_416_" class="st1" d="M-18.5 236.3h-.1.1z"/><path id="XMLID_415_" class="st1" d="M-16.6 237.7c-.2 0-.3 0-.5-.1.2.2.3.2.5.1z"/><path id="XMLID_414_" class="st1" d="M61 230.4l.2-.7c-.2.2-.2.4-.2.7z"/><path id="XMLID_413_" class="st1" d="M6.7 244.8h-.2.2z"/><path id="XMLID_412_" class="st1" d="M-118.8 197.5s-.1-.1-.2-.1c0 .1 0 .2.2.1z"/><path id="XMLID_411_" class="st1" d="M-100.4 191.9v.1-.1z"/><path id="XMLID_410_" class="st1" d="M-101.4 192.2c.2.2.7 0 1-.2-.3-.1-.6-.1-1 .2z"/><path id="XMLID_409_" class="st1" d="M-98.7 192.7s0-.1 0 0c0-.1 0 0 0 0z"/><path id="XMLID_408_" class="st1" d="M-115.6 187.2z"/><path id="XMLID_407_" class="st1" d="M-112.1 188c0 .1.1.2.2.2l-.2-.2z"/><path id="XMLID_406_" class="st1" d="M-90 194.3z"/><path id="XMLID_405_" class="st1" d="M-58 203c-3.2-1-7.5-1.8-10.4-3.2-1 .5-1.9.2-3-.1l.3-1h-.9c-.2-.4.7.1.2-.5l-.5.5c.1-.4-2-1-.4-1.2l-3.2-1.2c-.7-.3-.7.7-1.4.1-.1-.3.4-.1.4-.5-2.1-1.6-3.4 1-5.4-.3l.2-.1c-.5.1-1.2-.1-1.2 0-.1 1.1.6-.4 1.1.4-.4.8-1 .2-1.2.8-.4-.5-.9-.1-1.3-.2-.6-.8-1.8-.8-2.2-1.7-.5.1-1.2.8-2 .6-.4-.9.3-.6-.4-1.1l-.3.5c-.6-.3-.5-.4-.4-.6-.7-.3-.8.5-1.6-.1l.6-.3c-.7 0-.9-.2-1.8-.5.1-.3.5-.1.7 0-.3-.9-.9.1-1.2-.1 0 .2.6.5.1.9-.4-.2-1.2.4-1.3-.3l.6-.3c-1.1.1-.7.5-1.7-.1.1 0 .1-.2.1-.2-.9.4-1.6-.4-2.6-.8l.2-.1c-.5 0-.8.4-1 .3.5.5.3.6.2 1.1-.5-1-1.4.6-2.5-.3.1-.3.5-.5.8-.1.7-.7.9-1.4 1.8-1.6-.5.1-1.1 0-.9-.3l-.4.7c-.3-.1-.5-.2-.7-.2-.3.5.3 1-.4 1.1-.8 0-.2-.9-.4-.6-1.1 0-.7.7-1.6.2.1 0 .3-.1.4 0-.6-.5-1.8-.4-1.7-1.4.2-.2.3-.5.5-.3l-.1.1c1-.5-.7 0-.2-.8-.1.5-1.1.1-1.5-.1v.6c-2 1.3.4-1.1-1.1-1.3-1 .1.3.3-.4.5-.6-.3-.7-.9-1.7-.9-.2-.3-.6-.8-.5-1.4-.6.1-1.6-.8-2.1-.2.8.8 1.1-.4 2 .7l-.5.5c-.8-.2-1.9-.2-2.3-.6.1.2.1.3 0 .4-1.2 0-1.7.5-2.7 0 0-.6.6-.4 1.1-.3-.6-.6-.7-.2-1.8-.7.1-.5.7.2 1-.3l-1.2-.1v-.1c-.4.8-.9-.3-1.7-.2-1.8-.4-2.3.7-3.4 1.1-.2-.3-.2-.5-.1-.7.3.5.3.2.5 0-.6-.1-1.1-1.2-.7-1.4-1 0 .2.5-.4.7l-1.3-.4c.1.5.5.7-.3.9-.6 0-.8-.1-1.6-.3.2-.2-.1-.7.5-.6-.3-.2-.9-.4-1.2 0 .7.6-1.4.1-1 .9l-.7-.6c.2 0 .3-.2.5-.1-.1-.7-.7 0-1 0-.3-.2-1-.4-1-.7-.3.1-.9-.1-.9-.5-.4.1-.1.4-.3.6l-1.3-.3c0-.4.1-1.4.3-1.5-.6.2-.4 1.1-1.1.9.6-.6-.9-.8-.1-1.5-.3-.6-1.5-.8-2.3-.8-.5.5.7.5.5 1-1.9-.1-2.3 1.5-3.6.9l.3.2c-.9.2-.8.1-1.4.5.4-.7-.6-2.1-2.1-2.2-.2.3.7.8.4 1.4h-1c-.1-.1.1-.2.2-.2-.9.1-1.4-1.2-1.8-.4l-.7-1.2.3.5c-.2.3-1.1.3-1.3.4-1 .3-1.3-.1-1.8-.6.1.3.4 1.1-.3 1.1.2-1.2-1.5-.7-1.4-1.3-.3 0-.8-.5-.9 0l.1-.7c-.2 1-1.3.8-2.2.9.4-1.4-1 0-1.2-1.3-.3.9-1.6.2-1.8 1-.7 0-.5-.9-.6-1.2l-.3.3c-.3-.5-1.5-.7-2.2-1.1l-.8.8-.2-.4c-.1.2-.7.3-.4.6l-.4-.1c-.1.9-.5.2-1.3.5-.2-.2-.1-.4.1-.5-.4 0-.2-.5-.3-.8.2.3-1.5 1.6-.5 2 0 .4-.6.6-.9.4l-.2-.8-.5.8c-.6.1-.8-.5-1.2-.6.5 0 1.2-1.5-.1-1.6.7-.1 1-.5 1.4-.6-.3-.1-.4-.1.1-.5-1 .2-.4.5-1.3.5.1-.7-.1-1-1-1.3l.6.6c0 .1-.1.2-.1.2.2.1.3.2.3.5-.2 0-1.2.8-1.3.4.9 1.2-1.7.8-1.2 1.5-.1.2-.8.2-.8-.2.8-.5-.5-.9-.4-1.4-.3.2.6.6.2.8-.5 0-.8-.5-1-.7l.2-.1-.7-.4c-.1.4.7.7 0 .8-.2-.2-.9 0-.8-.3.3-.5.1-1.2.7-1.3-.5 0-2 0-1.4.8l-.6-.1c.3.3 1.3 1 .2 1v-.1l-.8.5-.3-.4c0 .2-.1.4-.4.3-.1-.2-.3-.3-.3-.6-.9 0-.8.4-.9.6-.5 0-.7-.1-.4-.6-.7-.1-1.8-.1-2.2-.5-.9.3.2.2-.3.7-.7-1.3-2.9-.5-4.3-.4.4 1.1-.4.1-.7 1.2.3-.4-1.4-.9-.1-1.2l-.8.1c-.5-.6 1.3-.5.5-1.3-.9 0-1.4 1.3-2.4.9.3-.8-.8.3-.5-.6.2-.3.5-.2.8-.3l-.2-.2c-1.9-.2-.5 1-1.5 1.5-1.1.1-.9-.6-1-1-.2-.2-.8 0-1.1.2.7-.5 1.3.5 1 1-.5-.9-1.7 0-2 .3 1.7.9 1.1 0 2.7 1 .2-.3.2-1.1 1.1-.8-.6.4 0 .5.2.6-.2-.5.6-.2.9-.4.3.4-.5 1.1.4 1.3l.2-1.1c.4.2-.1.8.6.5-.4.6.1.9-.9 1.1 1.2.9 1.9-.5 2.9-.9-.1.1-.1.2-.2.3.2-.3.6-.3.9-.3.6.3-.5.5-.3.8h1v.1c.3-.2.5-.2.6 0-.3.4-.4.7-.6 1l1.1-.8c-.1.4.9.6.1.9 0 0 .4 0 .8-.1.4 0 .8-.1.8-.1l.1.8c.4-.1.4-.3-.1-.4.5.2 2.4-1.2 2.1.2 1.3-.6 1.7-.3 3.2-.6-1.2.6 1.3 1 0 1.2.7.4.9-.4 1.5-.5.5.4.2 1.1-.3 1.3l.7-.3v.1l.6-.4c.6.4.1.8.7.9l.2-.7.4.4c-.1-.3.2-.4.7-.5v.1l.6-.1c-.6.4.5.2.2.6.5.1.5.1 1.4 0l-.1-.5c1.2-.3 0 .7.9.8v-.5c1.3 1 2.3-.3 3.2.3-.6.1-.5.7-.5.5.9-.1 2.2.2 3.1-.4.2.8.3 1 1.2 1.5.7 0 .8 0 1-.5.6.3 1.8.1 1.8.6.2-.4.6.2.9-.2v.2-.5c1 1.3 2-.4 3 .7l-.2.1.5-.1c0 .2-.2.4-.2.6l2.2.4-.4-.5c.5 0 .8-.4 1.3-.1-1 .7.7.1.8.8l-.5.1c.6 0 .6 0 .7-.5.9-.1.4 1.1 1.3.6l-.5-.1c-.1-.3.3-.7.7-.6.1.1.3.4 0 .4.7-.1 1.6.3 1.9.2.3.2.2.6-.1.7 1.5-.2.6.2 2.1 0l-.1.3.5-.3.6.7-.2-.4c.5 0 .8-.1 1.3.1l-.3.4c1.3 0 1.4 1 2.7.6.1.1-.1.2-.3.2 1.3-.5.7.9 2 .3-.1.1 0 .3-.1.5l.6-.2-.2.6.6-.8.2.7.3-.2c.3 1.2 1.3.5 1.9 1.5v-.8c2.2-1.2 4.1 1.8 6.6 1.6l-.2.6 1.1-.5c.4.6-.4.4-.3.8 1.1-.1.6-.8 1.8-.6.5.5-.3.4-.6.5 1.2 0 2.9 0 3.6.6 0-.1.1-.2.1-.2.8-.1 1.7.4 2.5.6-.1.3-.3.3-.5.3.3.1.6.4.9.2l-.4.4c.6.3 1.9.1 1.9.7 0-.2.1-.7.7-.5.1 1 1.5 0 2.3.7-.2.2-.8.1-.6.1.4.3.9 0 1.3-.1l-.2.3 2.1.1c0 1 1.9.4 1.6 1 .7.2-.5-.6.4-.4.1.4.9.1.7.6h-.1l.6.1-.6.4c.6 0 1.1-.4 1.3-.8.4.5 1.2.4 1.3 1l-.2.1c1.5.2 1.9 2.3 3.3 1.6.1.1 0 .2-.2.2l.9.3-.3.4 1.6-.2-.1.3c.9.4 2.5.7 3.7 1.1l-.2.1c1.5 0 1.2.7 2.3.7l-.1.1.9.3-.3.2c.9-.4 1.6 1.4 1.4.8.5-.1 1.2-.3 1.4-.6 1 .3.1.4.6.9.7.3 1-.2 1.8.4l-.1.3c.5.1.8 0 1.4.2l-.2.1c1.2-.2.9 1.3 2.2.3.3.4 1.2.5.9 1 1.4.1 2.4.3 3.7.5-.1 1 .3 0 .8.8l.1-.5c1.8.6 3.3 2.5 5.3 3.1l-.1.5.6-.4c2 1 4.5 2.2 6.2 2.9.6 0 1.7-.3 2.5.2h-.1c1.6.3 3.2.7 4.7 1.7-.2.2-.1.4-.3.4.6-.4 1 .4 1.3.5l-.3-.5c.6-.3 1.1.4 1.2.9l.9-.2c0 .1.1.2 0 .3l.2-.2.1.8c.2-.1 1.3.2 1.8-.3 0 .2.6.7 0 .6l2.6 1.3-.3-.4c.1-.5 1.1-.5 1.4-.1-.7.2-.3.7-.2 1.1.5-.1-.1-.6.2-.7.6-.1 1.6.1 1.8.4l-.4.1c.7.1.6 1 1.2 1.2.7-.2 1 .4 1.2-.5.9.2.1.7.3.9.5-.2 1.5.5 1.5 1 .9-1 1.9 1.3 2.5.4l.4.9c.1-.3.5-.8 1.1-.7.4.5.1.9.1 1.3l.8-.9c2.4 2.3 6.5 3.1 9.2 5.3 1.5.4 3.5.6 5 1.4l-.2.1 1.5.9-1-1c.4 0 .8-.1 1.1.1 1.6 1.2 3.8 2.6 6.3 3 1.9-.6.6 1.4 2.3 1.1-.2.1-.3.2-.4.3 1.7.2 2.6.3 4.3.1-.6 1.1 1 .3.6.9l.3-.4c.2.4 1 .8.7 1.1l.9-.4-.1.5c.9.4 2.9.6 3.1 1.8 2.5 0 6 1.4 8.8 2.4.5-.3 1.4-.1 2.1.1l.5.8c.7 0 1.6-.6 2.2 0 0 .1-.1.1-.1.1.7 0 1.3.5 2.1.1.8.2 1.4.7 1.1 1.2.3-1 1.6.5 1.6.5s.2 0 .4.1c.3.1.7.2 1.3.3 1.1.3 2.7.7 4.8 1 2 .4 4.5.7 7.2.9 2.8.1 5.8.2 9-.2s6.5-1.1 9.6-2.2c3.1-1.2 6-2.7 8.5-4.5 4.9-3.6 7.7-7.8 8.3-10.6-.1-.6.2-1.5-.5-1.7.3-.7 1.2-.3.9-.8-.9.5-.8-1.1-1.9-.8l.3-.5c-.2-.3-.2.9-.6.3l.6.8c-.4.3-.8.3-1.1.2 0 .6.8 1.7-.4 2.1l.2-.3c-.6.7-.8 0-1.1 0l.1-.1-.9.2c.6-.2.7-1.4.4-1-.9.5.4 0-.1.6-.3.4-.6-.1-.8-.3l-.6.6c-.3-.3.4-.4-.1-.5 0 0-.1.3-.2.5-.1.3-.2.5-.2.5-.9-.7-.5 1.2-1.6.7.4-.7-.3-.2-.4-.6 0 0-.3.3-.7.6-.4.3-.7.6-.7.6-.2 0 .2-.6 0-.4-.5 0-.3.6-.4.7-.3-.2-1.1.8-1.5.2-1.3.2.1 1.1-1.1 1.3-.4-.3.7-.6 0-.7l-.9.8c0-.2-.2-.7.2-.9-1.5.5-2.9.4-4.2.3-1.3-.1-2.4-.2-3.5.6-.5-.4.2-.4.3-.9-1.6 1.3-2.9-.4-4.4 0l.1.4c-.6-.2-1.2-.4-1.8-.4h-1.8c-1.3.1-2.6.2-3.9-.1l.3.3c-.4.4-.9.5-1.4.7-.1-.2.3-1-.4-.8.2.2.5.3.4.6-.6-.3-1.3-.5-2.1-.7-.8-.2-1.7-.3-2.7-.5-1.9-.3-4.1-.8-5.9-1.4-5.2-.6-10.5-3.1-15.6-4.5.8.2.1 1.2-.4.7-1-2.3-2.9-.6-4.1-2.4-3.2-.5-5.2-3-8.5-2.7l.1-.5c-.3-.4-.6-.1-1-.2l.1-.1c-.9-.6-2.4-.6-2.9-1l-.3.5c-.6-.2-.1-.6-.9-.5l.1-.3-.9.2c.5-.9-1.7-.8-2-1.4-.9-.1-2.5-.3-3.6-1 0-.6-1.5-1.2-2.3-1.8-1.9-.6-4.5-1.5-6.7-2.7l-.2.6-.6-.2c.1-.1 0-.2.1-.3-.2-.9-1.5-.4-1.8-1 .1.7.4.3.7.4.4.5-.4.9-.9.3l.1-.1-.6.1c.2-.5-.2-.9 0-1.4-2-.7-3.7-.4-5.7-1.5.4-.5-1.5-.5-.7-1.3-1.4-.2-.1.9-1 1.3-.3-.2-.8 0-.7-.4.3-.2 0-.7.3-.7l-.9-.3c0-.1.2-.2.3-.2-1.9-.1-2.7-1.9-4.5-1.9-.3.3.6.3.3.6-1.8.1-1.1-1.2-2.7-1.3l.5-.4c-.6.1-1 .5-1.6-.2.1-.6.8-.2 1.3-.3-.5-.2-1.9-.6-1.7 0-.7-.1-.7-.7-1-.9-.1.1.4.6 0 .7-.7-.7-2-1.2-3.1-1.6.1-.1.1-.4.2-.4-1.4 1.7-.8.5-2.1.2z"/><path id="XMLID_404_" class="st1" d="M-116 187l.4.2c0-.1.1-.3.3-.4l-.7.2z"/><path id="XMLID_403_" class="st1" d="M-95.3 193.2c.1 0 .1-.1.2-.1-.1 0-.2.1-.2.1z"/><path id="XMLID_402_" class="st1" d="M-90 193.8c-.4 0-.1.3 0 .5 0-.1.1-.3 0-.5z"/><path id="XMLID_401_" class="st1" d="M-128.3 185.8c.1 0 .2-.1.2-.2-.1.1-.2.1-.2.2z"/><path id="XMLID_400_" class="st1" d="M-161.6 180.6l.1.1c0-.1-.1-.1-.1-.1z"/><path id="XMLID_399_" class="st1" d="M-159.9 181.6h.4c-.1-.1-.3 0-.4 0z"/><path id="XMLID_398_" class="st1" d="M-120.2 187.4c.1 0 .3 0 .4-.1-.2-.1-.3 0-.4.1z"/><path id="XMLID_397_" class="st1" d="M-159.1 181.5l.5.1v-.1h-.5z"/><path id="XMLID_396_" class="st1" d="M-162.2 180.4c.2 0 .4.1.6.1-.3-.1-.5-.1-.6-.1z"/><path id="XMLID_395_" class="st1" d="M-140.6 184.3s.1 0 0 0c.5-.2.2-.1 0 0z"/><path id="XMLID_394_" class="st1" d="M-156.9 180.7l.2-.1-.2.1z"/><path id="XMLID_393_" class="st1" d="M-164.3 180c.1 0 .2 0 .2-.1-.1 0-.2-.1-.3-.1.1.1.2.2.1.2z"/><path id="XMLID_392_" class="st1" d="M-147.4 182.4c-.2.2-.2.3-.3.5.2-.1.3-.1.3-.5z"/></g><g><path id="XMLID_391_" class="st1" d="M-220 208.9h0z"/><path id="XMLID_390_" class="st1" d="M-219.8 208.9c-.1.2-.8.8.6.7-.1-.2-.1-.5-.6-.7z"/><path id="XMLID_389_" class="st1" d="M-221.9 209.4c.4-.2-.3-.1-.5-.2l.5.2z"/><path id="XMLID_388_" class="st1" d="M-221 209.1l.6-.1h-.6z"/><path id="XMLID_387_" class="st1" d="M-217.7 195.3c.2 0 .5 0 .8-.1l-.8.1z"/><path id="XMLID_386_" class="st1" d="M-220.2 195c-.1 0-.1-.1-.2-.1 0 .1 0 .1.2.1z"/><path id="XMLID_385_" class="st1" d="M-217.9 195.8z"/><path id="XMLID_384_" class="st1" d="M-218.9 202.7c.4 0 .8.1 1 .1.4-.2-.5-.1-1-.1z"/><path id="XMLID_383_" class="st1" d="M-227.9 193.4c-.2 0-.4 0-.4.1l.4-.1z"/><path id="XMLID_382_" class="st1" d="M-227.3 196c.2 0 .4-.1.6-.1h-.1l-.5.1z"/><path id="XMLID_381_" class="st1" d="M-218.7 196.4l.2.1c.1-.1.1-.1-.2-.1z"/><path id="XMLID_380_" class="st1" d="M-229.1 192.8h-.9c.2.1.6.1.9 0z"/><path id="XMLID_379_" class="st1" d="M-220.4 194.9z"/><path id="XMLID_378_" class="st1" d="M-226.7 196.8c-.1 0-.1-.1-.2-.1-.2.1 0 .1.2.1z"/><path id="XMLID_377_" class="st1" d="M-218.9 202.7h-.3.3z"/><path id="XMLID_376_" class="st1" d="M-219.1 208.1c0-.1-.3-.1-.6 0h.6z"/><path id="XMLID_375_" class="st1" d="M-218.9 192c.1 0 .2-.1.4-.1-.2 0-.3.1-.4.1z"/><path id="XMLID_374_" class="st1" d="M-217.9 192.3z"/><path id="XMLID_373_" class="st1" d="M-218.2 207.8c1-.1.1-.1.1-.2.1.1-.6.2-.1.2z"/><path id="XMLID_372_" class="st1" d="M-219.9 207.4c.3 0 .5 0 .6.1 0 0-.1 0-.6-.1z"/><path id="XMLID_371_" class="st1" d="M-219.4 207.9c.2-.1.2-.3.1-.3 0 0-.4.1-.1.3z"/><path id="XMLID_370_" class="st1" d="M-219.5 206c.5-.5 1.1-.1 1.6-.1-.2-.2-1-.1-1.9-.1.6 0 .3.2.3.2z"/><path id="XMLID_369_" class="st1" d="M-220.3 205.5c.1-.1.2-.1.1-.1l-.1.1z"/><path id="XMLID_368_" class="st1" d="M-219.7 205.1c-.2-.1-.8-.1-1.4 0-.5.2.6.2.8.3.1-.1 0-.2.6-.3z"/><path id="XMLID_367_" class="st1" d="M-217 200.5c.1 0 .1.1.5 0v-.2c-.3-.1-.5.1-.5.2z"/><path id="XMLID_366_" class="st1" d="M-219.6 199.9l.6.1c-.1-.2.9-.2.7-.3l-1.3.2z"/><path id="XMLID_365_" class="st1" d="M-225.5 201h.1c0 .1 0 0-.1 0z"/><path id="XMLID_364_" class="st1" d="M-217.9 198.9l1.4-.1c-.3-.1-1.4.1-1.4.1z"/><path id="XMLID_363_" class="st1" d="M-217 198l.5.1-.5-.3z"/><path id="XMLID_362_" class="st1" d="M-217.8 197.3l.3-.1-.4-.1z"/><path id="XMLID_361_" class="st1" d="M-194 191.3s0-.1.1-.2h-.1v.2z"/><path id="XMLID_360_" class="st1" d="M-186.6 187.9c0-.1.1-.1.1-.2-.1.1-.1.1-.1.2z"/><path id="XMLID_359_" class="st1" d="M-193.8 191.9c0-.1.1-.2.1-.4-.2.3-.3.5-.1.4z"/><path id="XMLID_358_" class="st1" d="M-188.5 189.1c0-.1.1-.2.1-.3-.1.1-.1.2-.1.3z"/><path id="XMLID_357_" class="st1" d="M-185 188.9c0-.1.1-.2.1-.2l-.1.1v.1z"/><path id="XMLID_356_" class="st1" d="M-204.9 178l.1-.2s-.1.1-.1.2z"/><path id="XMLID_355_" class="st1" d="M-184.9 189.3l-.1-.4c-.1.4-.4.9-.7 1.1.2-.2.5-.2.8-.7z"/><path id="XMLID_354_" class="st1" d="M-216.2 186.7z"/><path id="XMLID_353_" class="st1" d="M-215.9 186l-.3.7.3-.3c.4-.5.2-.5 0-.4z"/><path id="XMLID_352_" class="st1" d="M-215.8 186.5c-.3.5-1.1 1.2-1.2 1.7.5.4 1.6-1.6 2-1.1l.1-.7c-.6.8-1.1 1.1-1.4 1l.4-.6c.2-.1.3-.3.4-.4s-.3.4-.3.1z"/><path id="XMLID_351_" class="st1" d="M-215.4 186.4z"/><path id="XMLID_350_" class="st1" d="M-176.9 175.8l-.1-.1c0 .1 0 .1.1.1z"/><path id="XMLID_349_" class="st1" d="M-176.9 175.8c.3.5.8.5 1.1.5-.1-1.5-.8-.7-1.1-.5z"/><path id="XMLID_348_" class="st1" d="M-176.6 173.7l-.4-.4c.2.1.2.8.4.4z"/><path id="XMLID_347_" class="st1" d="M-176.9 174.6h-.2l.2.6z"/><path id="XMLID_346_" class="st1" d="M-196.3 179.2v.8c.1-.3.1-.5 0-.8z"/><path id="XMLID_345_" class="st1" d="M-197 176.8c-.1-.1-.1-.2-.2-.2 0 .1.1.1.2.2z"/><path id="XMLID_344_" class="st1" d="M-195.6 179.1l.2-.1c-.1 0-.2 0-.2.1z"/><path id="XMLID_343_" class="st1" d="M-185.4 178.4c-.1-.2-.2-.6-.3-1 0 .5 0 1.4.3 1z"/><path id="XMLID_342_" class="st1" d="M-200.8 169.3l.1-.4c-.2 0-.1.2-.1.4z"/><path id="XMLID_341_" class="st1" d="M-197.1 170.1v-.5.5z"/><path id="XMLID_340_" class="st1" d="M-194.7 178.4l-.1-.3c0 .3 0 .4.1.3z"/><path id="XMLID_339_" class="st1" d="M-202.1 167.3c0 .4.1.7.1.9.1-.3 0-.7-.1-.9z"/><path id="XMLID_338_" class="st1" d="M-197.2 176.6z"/><path id="XMLID_337_" class="st1" d="M-195.9 169.9c.1.1.1.2.2.2-.1-.2-.2-.3-.2-.2z"/><path id="XMLID_336_" class="st1" d="M-185.9 177c0 .1.1.2.1.3 0-.1 0-.3-.1-.3z"/><path id="XMLID_335_" class="st1" d="M-178.1 176.6c0-.3-.1-.5-.2-.6.1.3.1.6.2.6z"/><path class="st1" d="M-177.5 174.6c-.8-.4-.7-2.3-1.4-1.5l.1.4c-.4.9-.8-.6-1.2-.6.1-.2.1-.7.1-.9-.8.9-1.6.2-2.5.7l-.2-1.2-.1.9c-.4.4-.1-1-.3-1.2v.3c-.5-1.1-.3.8-.6.5.1 1 .5.4.4 1.7-.5-1.1-1.3-.5-1.3-2.7-1 .9-2.1-.6-2.9-.8-.1.4.1.3 0 .6-.3-1.3-1.1.9-1-.3-.2.3-.3 1.1-.3 1.5-.2-.6-.4-.8-.7-1l.2.3v.2l-.2-.5v-.1c-.6-.4-1.4-.1-1.9-1.3.3.8-.1 1.4 0 1.8-.2-1.8-.9-1.9-1.5-1.7 0 .4-.1.7 0 1l-.3-.8v.5c-.6.3-1.2-1.7-1.6-.9.2.2.2.6.2 1.2-.4-.1-.8-.1-1.3-.7v.4c-.1.2-.3-.3-.4-.5l-.1.9c-.2-.4-.6 0-.9-.7-.2 1-.7-1-1.1-.5-.1-.2.3 1.1-.1 1 0-2-.5-.1-.4-2.2l-.2.8v-1.1c-.4 2-.4-.9-.8-.3 0 .2.1.3 0 .5-.2-.2-.5-.4-.2-.9-.2 0-1-.5-.7.6 0-.6.3-.1.4.1-.1.9-.4.5-.5 1.5 0-.1 0-.3-.1-.4l-.1.6c-.4-1-.8-.3-1.1-1.6 0 .3-.1.5-.2.4v-1.1h-.4l.1 1.7c-.5.3-.8-1.6-1.2-1.9-.2 1.9-.7-.8-1.2.9l.3.5c-.6-.4-.8.8-1.4.1.5-.6.5-.2 1.4-1.8-.8.8-1.3-1.1-2 0 0 .5.2.8 0 1.2-.1-1-.7 0-.5-1.1-.2.4-.3 1.5-.4 1.6l-.7-1.4v.2c-1.3 2.6-2.3-1.9-3.5-.8v.6l-.2-.9c.2.6-.1.8-.2 1.3l-.7-1.3c0 .5 0 1.8.2 1.5-.3.6-.6-.7-.9-.8l.1.5-.3-.5v.8c-.4-.4-1 .4-1.1-.8v1.2l-.4-1 .2.8c-.5.2-1.3-.7-1.4-.7v.5c-.1.2-.2-.1-.2-.2v.7c-.8-.2-1.1 1.3-1.9.6-.2.2.1.2.1.6-.2.5-.4 0-.5-.3 0 1.1.4.8.1 1.6-.1-.3-.1 0-.1.2l-.2.2-.1-1c-.2.2-.1 1.1-.4.9-.3-.6.5-1.5-.1-1.8-.3.1-.7 3.1-1.2 2.4-.3.4-.2 1.1-.2 1.5l-.3.3c-.1.1-.2.2-.3.4-.2.3-.5.5-.7.8h-.2c.1-.1.2-.4.3-.3-.6-.7-.4-2.2-1.2-2.1.1-.4.2-.2.3-.4-.6.2-.3-1-.7-1.1v.2c-.1-1.1-.9-.9-1.3-1.6v.2c-.2.2-.4.1-.5.2.1-.1.4-.5.2-.5 0 .1 0 .2-.1.4 0-.5-.3-.8-.7-1.1-.4-.4-.8-.7-1.1-1.1-.6-.3-1.1-.7-1.5-1.2-.5-.5-.9-1-1.5-1.3.2.1-.4.6-.4.4.5-1.2-.7-.3-.4-1.2-.8-.2-.6-1.4-1.8-1.2l.2-.3c0-.2-.2 0-.3-.1l.1-.1c-.1-.3-.6-.2-.6-.4l-.3.3c-.1-.1.2-.3-.1-.2l.1-.1-.4.1c.5-.5-.3-.3-.1-.7-.2-.1-.7-.1-.8-.4.2-.3-.1-.6-.1-.8-.4-.3-.9-.7-1.2-1.2l-.3.3-.2-.1.1-.1c.3-.4-.4-.2-.2-.5-.2.3 0 .1.1.2-.1.2-.5.4-.4.2l.1-.1-.3.1c.2-.2.3-.4.5-.7-.4-.3-1.1-.2-1.3-.7.3-.2-.3-.2.2-.6-.4-.1-.4.4-.8.6 0-.1-.3 0-.1-.2.1-.1.3-.3.4-.3l-.2-.1s.1-.1.2-.1c-.6-.1-.2-.9-.7-.9-.2.1 0 .2-.2.3-.6 0 .1-.5-.4-.6l.3-.2c-.3.1-.5.2-.4-.1.3-.3.4-.1.6-.1-.1-.1-.4-.3-.6 0-.2 0 0-.3.1-.4-.1.1-.1.3-.3.3 0-.3-.2-.6-.3-.8l.2-.2c-.5.2.2-.4-.1-.5-.6-.5-1.6-1-2-1.7-.5.2-.7 0-.9-.1l.5-.4h-.3c.1-.2.2 0 .3-.2l-.4.2c.2-.2-.2-.5.4-.5l-.4-.8c-.1-.2-.5.3-.5 0 .1-.2.2 0 .3-.2.1-.8-1.5.2-1.5-.4h.1c-.2 0-.3-.1-.4-.1-.5.5.4-.1.1.2-.5.3-.4 0-.7.3.1-.2-.2-.1-.3-.2.2-.4-.2-.4.1-.8-.2 0-.7.3-.9.1.3-.4.4-.2.4-.5l-.3.2c0-.2 0-.2.2-.3-.1-.2-.5.1-.4-.2l.3-.1c-.1 0-.1-.1-.2-.3.2-.1.2 0 .2.1.3-.4-.3-.1-.3-.1-.1.1-.1.3-.4.4 0-.1-.5.1-.2-.2l.3-.1c-.4 0-.4.1-.5-.2 0 0 .1-.1.2-.1-.5.1-.2-.3-.4-.5h.1c-.2 0-.4.1-.4 0-.1.2-.2.2-.5.4.4-.5-.7.1-.6-.3.2-.1.4-.2.3 0 .5-.2 1-.5 1.3-.5-.2 0-.3-.1-.1-.2l-.5.3c0-.1-.1-.1-.1-.2-.3.2-.4.4-.7.4-.2-.1.4-.4.2-.3-.3-.1-.5.2-.5-.1h.1c.1-.3-.3-.3.2-.7.1-.1.3-.2.3-.1l-.1.1c.5-.1-.2-.1.3-.3-.3.2-.3-.1-.4-.2l-.3.2c-1.2.3.7-.4.4-.6-.3-.1 0 .1-.4.2 0-.2.2-.4 0-.5.1-.1.2-.4.6-.6-.2 0 0-.5-.5-.3-.2.4.5 0 .2.5l-.4.2c-.1-.2-.4-.3-.3-.5 0 .1-.1.1-.1.2-.3-.2-.7 0-.7-.3.3-.2.3-.1.4 0 .2-.3-.1-.2-.1-.5.3-.2.1.2.4 0l-.2-.2h.1c-.5.3-.1-.2-.3-.3-.2-.4-.9 0-1.4 0 .1-.1.2-.2.4-.3-.2.2 0 .1.1.1-.3-.1.2-.6.4-.6-.3-.1-.2.2-.4.2l-.1-.3c-.2.2-.2.3-.5.3-.1-.1-.1-.2-.2-.3.1 0 .4-.3.4-.1.1-.1 0-.3-.3-.2-.1.3-.4-.2-.7.2l.1-.3h.2c.4-.3-.2-.1-.3-.1 0-.1 0-.3.1-.4-.1 0-.1-.2.1-.3-.1 0-.3.1-.4.2l-.1-.3c.2-.1.8-.5.9-.5-.3 0-.7.3-.7.1.5-.1.2-.4.8-.5.3-.3.1-.5-.1-.6-.4.1-.1.3-.5.4-.3-.3-1.3.1-1.3-.3v.2c-.3-.1-.2-.1-.6-.1.5-.2 1.1-.8.8-1-.2.1-.3.4-.7.5l-.2-.2h.2c-.2-.1.4-.6-.1-.4l.6-.5-.2.2c-.2.1-.4-.1-.5-.1-.3-.1-.2-.3 0-.5-.2.1-.5.4-.7.3.7-.3.1-.5.5-.6 0-.1.1-.3-.2-.2l.5-.2c-.6.3-.7 0-.9-.1.9-.3-.2-.2.6-.6-.6.2-.4-.2-.9-.1-.1-.1.5-.3.6-.5h-.2c.2-.2.2-.5.3-.7h-.6l.2-.1c-.1 0-.3-.1-.4.1v-.1c-.6.2-.2-.1-.5-.1.1-.1.2-.1.3-.1 0-.1.3-.2.5-.3-.1.1-1.1.1-1.3.4-.2.1-.4 0-.4-.1l.5-.2-.6.1c-.1-.1.2-.3.2-.4.1.1 1.1-.1 1-.4.1.1.4.1.6.1 0-.1 0-.1.3-.1-.2-.2-.3 0-.5-.1.5-.1.6-.3.7-.5l-.3.2h-.1c0 .1-.1.1-.3.2 0 0-.7 0-.4-.2-.6.5-.7-.2-1.1.1-.1 0-.2-.1 0-.2.4.1.5-.3.8-.4-.2 0-.3.2-.5.2-.1-.1.2-.3.3-.4h.1l.2-.2c-.2 0-.3.3-.5.2.1-.1-.1-.2.1-.2.3 0 .7-.2.9-.1-.1-.1-.2-.4-.6-.1v-.1c-.2.1-.5.5-.6.2h.1l-.4-.1.2-.1h-.2c.1-.1.2-.1.4-.2-.1-.2-.3-.1-.5-.1-.1-.1 0-.2.3-.2 0-.2-.1-.4.1-.6-.3-.1-.1.1-.4 0 .8-.4.2-.7 0-1-.7.2-.1-.1-.8 0 .2 0 .5-.4.8-.2l-.1-.2c.4-.2.4.2.9-.1-.1-.2-.9-.2-.6-.4.5 0-.2-.1.4-.2.2 0 .1.1.2.1l.1-.1c.1-.4-.6 0-1-.2-.1-.2.4-.3.6-.3.1-.1 0-.2-.2-.2.3.1-.3.3-.6.3.6-.2 0-.4-.3-.4-.6.4 0 .3-.6.7.2 0 .7-.1.5.2-.3-.1-.3.1-.4.1.3-.1.1.1.3.2-.2.1-.7 0-.8.2l.7-.1c-.1.1-.5.1-.3.2-.4 0-.6.1-.7-.1-.6.4.4.4.7.6h-.2c.2 0 .2.1.3.2-.1.2-.3-.1-.5 0l.1.2c.1 0 .2.1 0 .2h-.7l.6.2c-.2 0-.4.3-.6.2l.2.4-.5.2c.1.1.2.1.2-.1-.1.2 1 .4 0 .6.5.2.4.4.7.7-.5-.2-.5.5-.7.2-.2.2.4.1.5.2-.2.2-.6.3-.9.2l.3.1h-.1l.3.1c-.2.2-.5.2-.5.4l.4-.1-.2.2c.2-.1.3 0 .4.1h-.1l.1.1c-.3-.1 0 .2-.4.2 0 .1 0 .1.2.3l.3-.1c.3.2-.4.2-.4.4l.3-.1c-.4.5.5.4.2.8-.1-.1-.5.1-.4 0 .2.2.2.5.7.6-.4.3-.6.3-.7.6.1.2.1.2.4.1-.1.2.3.4-.1.6.3-.1 0 .2.3.2l-.1.1.3-.1c-.6.6.6.3.1.8h-.1l.2.1c-.1.1-.2.1-.4.1l.2.6.2-.2c.1.1.4 0 .3.3-.6 0 .1.2-.3.4l-.2-.1c.1.1.1.1.4 0 .2.1-.5.4-.1.4v-.1c.2-.1.5-.1.5-.1s-.1.2-.2.1c.2.1.1.4.3.4-.1.1-.3.2-.4.2.4.2 0 .2.4.4l-.2.1h.3l-.3.3.2-.2c.1.1.2.1.2.3l-.3.1c.3.2-.3.6.3.7h-.2c.5.1-.4.4.3.5-.1 0-.2.1-.3.1h.2l-.4.2.6-.2-.5.1h.2c-.6.5 0 .4-.4.9l.4-.3c1.1 0 .1 1.3.8 1.6l-.3.2h.5c-.2.3-.3.1-.5.2.3.1.6-.2.8 0-.1.3-.3.1-.4.1.3.2.7.4.6.7 0 0 .1 0 .1-.1.3.1.2.4.4.6-.2.1-.2.1-.3 0 0 .1 0 .2.2.2l-.3.1c0 .2.5.3.1.5.1-.1.4-.2.4-.1-.5.4.4.2.3.6-.1 0-.3-.1-.2 0-.1.2.2.1.4.1l-.2.1.6.3c-.5.4.3.4 0 .6.1.2.1-.3.3-.1-.2.2.2.1-.1.3h-.1l.1.1-.4.1c.2.1.5 0 .8-.2-.1.2.2.3-.1.5h-.1c.3.2-.5 1.1.2 1l-.1.1.1.2-.3.1.6.1-.2.1c.1.3.4.6.6.8h-.1c.5.1 0 .4.4.5h-.1l.1.2-.2.1c.4-.1-.2.7.1.4.2 0 .5 0 .7-.1.2.2-.2.2-.2.4.1.2.4 0 .4.3l-.2.1c.1.1.3.1.4.2h-.1c.5 0-.3.6.6.3-.1.2.2.3-.2.5.4.1.7.3 1 .5-.5.4.1 0-.1.4l.3-.2c.3.4 0 1.3.4 1.7l-.3.2.4-.1c.2.6.6 1.2.9 1.6.2 0 .7-.1.8.2h-.1c.4.2.8.5 1 .9-.1.4-.2.5-.3.5.4-.2.2.2.2.3l.1-.3c.3-.1.2.2.1.5l.4-.1s0 .1-.1.1l.2-.1-.3.4c.1 0 .4.1.8-.1-.1.1-.1.3-.2.3l.4.7v-.2c.3-.2.6-.2.5 0-.3.1-.4.3-.5.5.2 0 .2-.3.3-.4.3-.1.5.1.5.2h-.2c.2 0-.2.5 0 .6.3-.1.2.2.6-.2.2.1-.2.3-.2.4.3-.1.4.2.2.5.7-.5.2.7.8.2l-.2.4c.1-.1.5-.4.7-.3-.1.2-.3.5-.5.6l.6-.4c0 1.1 1.1 1.5 1.3 2.6.4.2 1 .3 1.3.7h-.1l.2.5v-.5h.3c.2.6.4 1.3 1.1 1.5.9-.3-.3.7.4.5-.1 0-.2.1-.2.2.5.1.8.1 1.4.1-.6.6.2.2-.1.5l.3-.2c-.1.2.1.4-.1.6l.4-.2-.2.3c.2.2.8.3.4.9.8 0 1.5.7 2 1.3.3-.2.5 0 .6.1l-.1.4c.2 0 .7-.3.7 0l-.1.1c.2 0 .2.3.6.1.2.1.2.4-.1.7.4-.5.3.3.3.3s1.9 1.9 4.8 3.4c.6.3 1.2.6 1.9.8-.7.3-1.9.6-2 .7.3.4 1.1-.3 1.7-.2.2.2-.7.2-.9.4l1.4-.1h.1c.2.2-1.3.2-.7.3-.8.3-.5 0-1.6.1.3 0 .8.1.3.3-.4.1-.5-.2-.6 0 .8.5-.7.9-.4 1.4l-.7.1c.2 0 .5 0 .2.1h-.5c0 .1 1 .5.8.9l-.8-.1 1 .2-1.4.3c1.2-.1.5.4.9.7l-.8.1.5.1h-.5c.1.2 1.4.2.8.5.2-.2-1 0-1.5.1l1.4.3c-.5.1-.7.4-1.3.3l.9.1-.6.1c-1 1 3.5 1.1 1 2.3h-.2l1.5.3c-.1.1-1.2.3-1.6.5 1.1-.2.2.3 1.2.2-.4.2-.8.1-1.2.2-1 .6.9.7.2 1.4 1.5-.8 1.1-.7 1.7-1.2.7.3-.4.6 0 1l-.5-.1c-1.6.5 1 .5-.8.9.3.2 2.2.2 2 .5h-1.9v.3l1.1-.2c.1.1-.1.2-.4.2 1.3 0 .6.4 1.7.5l-.5.2h.4c-1 .2-.6.4-1.5.5-.2-.1-.8-.2-.2-.3-1.2-.1-.6.4-.6.5.5-.2.7-.1.9 0h-.5c-.6.4 2.3 0 .3.5l1.1-.1-.7.3c2.1-.3.2.3 2.2 0 .1.2-1.2.2-1 .2-.4.3 1.6.4.6.7.8.1.3.4.8.5l-.9.2c.2.1.7.1.6.2h-.4c.6.3.7.5.8.8-.6.1-1 .1-1.2 0-.8.4 1.3.5 1 1h-.5l.8.1c-.3 0-.6.1-1 .1-.1.4 0 .9 1.8.8-.5 0-1 .3-1.8.2 1.3.2 1.1.7 1.5 1.1h.1l.5.1h-.2l-.3-.1c.2.1.5.3 1 .3-.3.1-1.1.2-1.4.4 1.1-.2-.9.7.4.7-.3.1-.2-.1-.6.1.3.5 1.8 1.1 1 1.9 2.2-.3 1.7.3 2.8.5-1.3.3-.7-.1-1.7 0 .3.1-1.6.3-.5.5-.2 0-.4.1-.4 0-.1.2 1.6-.3 1.2.1l-.9.2h1.2c-.5.7.3 1.1-.5 1.8.2 0 .6-.1.9-.2 0 .2 1.6.3.7.7h-.4c-.7.6 1.2.3 1.6.8.1-.1-.6-.3.4-.5.7-.1.6.2.1.4l1.2-.2c-.8 0-.7-.2-1.1-.3h.6c-.4-.1-.4-.3-.8-.4l-.1.3c-1.2.1 0-.5-.5-.5 1.1-.2 1 0 1.9-.3.3-.5-1.2-.1-2.3-.3l-.4.1c-.2-.1-1.4 0-.6-.4.8-.1.8 0 1.1.1.4-.1-1.4 0-.6-.3 1.1 0 1.5.2 1.6.5.3-.1.7-.1 1.1-.2-1-.5-2.5-1-1.9-1.8 1.5.1 0-.2 1.5-.3-1.1.1-.1-.2-.6-.4 1.1-.2.9.2 1.7 0-.3-.3-2.5-.4-2.1-1 .5 0 .5.1.8 0-.4-.2-3.1-.2-1.4-.7.7 0 1.4.1 2 .2 0 0 .1-.1.4-.2h.8c.2-.4-1.8 0-2.9 0l1.1-.4c.6-.5-.1-.8-1.7-.8 0-.1 0-.4 1-.4 1.5 0 2.4-.1 2.5.3-1 .2-1.2-.1-1.2 0 .2.1-.5.6.4.5l-.2-.4c1.5-.2.1.2.9.1 1.2-.3-.2-.3.5-.6h.1c-.3-.3 0-.3-.7-.5-1.3.3-.7.3-1.3.6-.1-.5-2.8-.9-.5-1.8l1.2.1c.2-.2-1.1-.4.6-.7-.5.3.5.1.8.1h-.1c.1 0 .3.1.5 0-1 0-1.3-.3-1.9-.4.4 0 .9-.2 1.2-.3-.3-.2-.8.1-1.3.2-.1-.1-1.1-.1-.2-.3.7-.3.8.1 1.5 0l-1.2-.3h.2c-.3 0-.5-.1-.3-.2.6-.2.8 0 .6.1.9-.5-2.1-.2-.3-.8l-.6-.1c.2 0 .5-.1.5-.1l-.6-.1c-.6-.2 1.3-.3 1.6-.4.2-.1.7-.3.9-.2l-.9-.2c-1.1 0-1.5-.4-3.5-.1.1-.1.5-.2.8-.2-.2-.2 1.6-.2 1.2-.5.4-.1.3 0 .5 0 0-.1-.1-.1-.3-.1.2 0 .5-.1.8-.2-.8.1-.6-.1-.5-.2l1.3-.1c-.6 0-.8 0-.6-.2h.8c-.3-.2-1.7.3-1.1-.2l-.7.4c-.3-.3-1.9.1-2.7 0-1.3-.2.9-1-1.7-.8.8-.2 1.1-.2 1.8-.4.4.2.7.2 1.9.2 1.3.2-3.1.6-1.1.8 1.1-.2 1-.3.5-.4.9-.2 1.5-.1 2 0-.5-.2.6-.8.4-.9-.5 0-1.2-.1-.9-.3-.7.1-1.3-.2-2.7.1-.4-.2 1.9-.5.3-.5 1.2-.1.8-.3 1.9-.4-1 .3.7.3 1.5.4l.6-.5c-.3.2-1.1.1-1.2.1l1-.2c-2.4.3 1.6-1-1.2-.8.2.1-.7.4.6.2-.7.4-1.8.2-2.6.5-1-.2.4-1.1-1.4-1.2.8 0 .7.2 1.7 0 .3-.2-.2-.3-.9-.4.1-.1.2-.1.3-.2.1 0 .2 0 .3-.1h-.2c.4-.1.1-.1 0-.2l.1-.1c.1 0 .2-.1.5-.1-.1.2-.2.4-.3.5.2 0 .4-.1.7-.4.1-.9.9-.4 1.2-1.4.3.3-.2 1-.3 1.6-.2.2-.7.2-.7.8.9-.6.8-1.2 1.8-2v-.4c.7-1 .5 0 .7-.2-.1.3-.4.2-.8.9 0 .4.6-.2.4.2-.6.6-.3.4-.9.9.4.3-.6.8-.6 1.4.2-.1.6-.7.6-.4.5-.8.6-1 .4-1.3.9-1 .2.5.8 0-.1-.2.1-.2-.2-.2.6-.9.7-1.1 1.5-1.8-.4.1-1.1 1-1.2.6.6-1 .8-.5 1.7-1.7.6-.5.5.2.3.7.8-.6 1.1-.4 2.1-1.3-.1.5 1.1-.2 1.2.3-.3.6.1.6-.5 1.1.2-.2.5-.1.8-.6-.2.2-.1 0-.2 0l.5-.6c0 .4.8-.3.6.2-.3.6-.5.1-.9.8.9-.9 1.8-.8 1.6-.3 0 .2-.6 1-.6 1.2l.3.1c-.2.3-.4.6-.6 1 0 .3.2 0 .4-.1-.1.7-.8 1.3-1.3 1.7v-.4c-.4.3-.4 0-.9.8.1 0 .4-.3.5-.5l-.2.5c.3-.3.7-.2 1.1-.8-.1.5.5.2.3.8.2-.5.5-.6.8-1.1l-.1-.3c.3 0 .8-.3.7.2-.3.3-.4.5-.6.9.3-.6.8-.4 1-1.2-.2.1-.4.2-.4 0 .5-.8.8-.8 1.2-1.2.3-.1.7-.2 1-.3 0 .3-.7 1.2-.1.8.3-.9 1.1-1.1 1.8-1.8-.1.5.8-.4.4.3-.3.2-.5 0-1 .5-.4.5-1 1.5-1.5 1.6.1.5.5-.3.9-.5h-.2c.2-.2.4-.7.5-.6.2.5-.2 1.1-.4 2 .2-.4.6-.7.7-.7-.1.7-.9 1.2-1.4 2.1.5-.5.5-.2.8-.6.1.1-.1.2-.2.5.4-.4.7-.6.8-.5-.2.2-.5.6-.5.4 0 .3-.6 1.2-1 1.6v-.5c-.5.5 1.3-2 .8-1.5-.2.1 0 .5-.2.6-.4.6-.2.3-.1.4.1.2-.1.8-.3 1.2 1-.7-.6 0 .4-.7.6-.6.8-.3 1.1-.3.4-.9.8-1.1 1.2-1.2-.2-.2.6-1-.1-.7l.5-.6c.1.1.1.5.2.6-.2.1-.2.3-.3.4h.6l-.3.4c.2.2.1.9.4.8-.2 0 .2-.7.5-.8.3-.2.6-.4.7-.3-.5.8 0 1-.9 1.6.6-.1.6-.3 1.2-.5h-.4c.4-.6 1.3-1.4 1.4-1.9.5-.2 1.1-1.3 1.5-1.2-.1.4-.9 1.1-1.2 1.1.1.1-.1.5.3.2-.3.5-.8.7-.9.9.1.2.2-.3.5-.4.8-.4-.5 1.1 0 .9-.1 0 0-.3.2-.5.3.3.6-.4 1.1-.5-.5.9-1.2 1.8-1.1 2.1l-.1-.1c-.2.5-.3.7-.2.8 1-.4 2.4-1.3 3.4-1.6l-.3.1c.2-.3.4-.2.6-.6l-.2.5c.5-.6.2-.8.7-1.3v.1-.3c.1.4 1.1-.6.5.5-.5-.2-1.4 1.7-2.1 1.7.4-.1-.4.7-.6 1 0 .2.4-.4.4-.1-.3.4-.9.6-1 1 .5-.7.5-.4 1-.9 0 .3-.3.4-.4.7.1 0 .3-.3.3-.1l-.3.4c-.2.8.6-.6.8-.1.4-.5.2-.5 0-.5.8-1.3 1.4-1 2.4-2.3.5 0-.5.4-.5 1-.5.9-.9.7-1.4 1.3l.1.4c-.9 1-.8.5-1.6 1.5.2.2.3-.1.8-.3.3-1.1.6-.6 1.2-1.7 0 .4-.3.6 0 .7-.3.1-.7.9-.9.7.4.1.5-.1.8 0 .7-.7.4-1.2 1.2-1.5.1.1-.1.3-.2.3 0 .5.6-1 1.1-1.2.2 0 0 .3-.2.5.5-.3.8-.9 1-.9v-.1c.2-.2.9-1.3 1.2-1.2.2.1-.2.5-.4.8.3-.2.3.1.2.5.1-.2.2-.3.3-.3.4-.1-.3.7-.3.9.1.6 1-1.4 1.4-1.2l-.3-.6c.3-.3.7-.9.6-1-.4.5-.9.9-1 .7.4-.7.9-.4 1.2-1.3 0 .2.3.1.3.2-.6.6.3.4-.5 1 .6.2.3.7 1.1.5-.3.4-1.4 1.3-1.4.8l.3-.4c-.6.2-.1.6-.6 1.2 1.1-.8.4 1.1 1.1 1 .2-.4.4-.5.7-.9-.2 0-.3.1-.1-.4.4-.5.4-.2.7-.5.4-.5-.1-.1 0-.4.4-.2.4-.2.8-.6-.2.5-.4.7-.7 1.2.3.4 1-.6 1.2-.2-.1-.2-.3.6-.4.3l.1.1c-.9.6-1.3.2-2.2 1.5.3.1 1-.5 1.3-.4l-.2.2c.2.2.2-.3.4-.5.6-.3-.6 1.4.2.7l-.1-.4c.6-.4 0-.1.7-.9.8-.4 1 .4 1.9.1.2-.5.2-.6 0-.7.9-1.1.9-.9 1.5-1.9l-.2-.2 1-1c.1 0 .1.1.1.3.5-.6.2.4.6-.2h-.2c.3-.6.5-.4.7-.5.4-.8-.4-.2-.7-.4-.3.4-1.1 1-.9 1.3-.3.4-.6.6-.7.5.2-.2.7-1.3 1.1-1.4-.6.3-.1-.1-.5 0 .3-.3-.4-.3.3-1.2-.4.3-1 1.4-1.3 1.2-.4.7-.2 1-.9 1.5l.5-.3c0 .4-.5.6-.5 1.1 0-.1-.5.1-.1-.3-.9 1.4-.9.4-1.6 1.4.2-.4.2-.5 0-.5.3-.3.5-.8.8-.9 0 .2.2.1.1.4.9-1.4 0-.7-.1-1.1 0 .1-.1.3-.3.4 0-.3-.1-.8.4-1.3l-.8-.4c.2-.3.2-.1.3-.1l-.4-.3c.2-.5.5-.3.8-.7l-.3-.2.3-.4c-.3.2-.7.1-.3-.6-.5 0-1.5 1.3-1.4.4.5-.7.4-.1.8-.4.1-.3-.5 0-.1-.7-.6.2-1.5 1.4-2.1 1.9-.3-.1.4-.6.5-.8 0-.1-1.1 1.1-.5.1-.5.4-1 .9-1 1.3-.1-.1-.6.1-.8.4.9-.9.1-.5.7-1.3-.1-.3-.3-.9-1.3 0l.9-1-.3-.1c.3-.8.7-.5.9-.5-.2-.3-.5-.4-.8-.6-.1.3-.3.5-.5.8-.4.4-.3-.1-.5 0 .2-.3.4-.5.5-.5l-.4-.3c.5-.7.4-.7.9-1l-.3.1c-.1-.3.4-.5.6-.7l-.2-.4c-.4.3-.4.6-.7.7.2-.8-.4-.9-.6-1.3l-.2.8c-.1-.3-.8.8-1.2 1.2-.1-.2-.4-.4-.3-.8.6-.4 1.1-1.2 1.3-1.8-.3-.4-1.1.9-1.6 1.1 1.2-1.2.1-.6.7-1.3-.5-.3-1.3-.2-1.8-.6-.1.2-.1.5-.4.6-.3.1 0-.5.2-.8-.3-.1-.8.3-1.1.6.2-.1.1.1-.2.5-.3-.1.4-.9-.3-.4.5-.8.5-.2 1-.9-.2-.2-.5 0-.9.2.3-.5.2 0 .4-.5-.6.1-1.3.3-1.7.3l.4-.6c-.2-.1-.4 0-.7.2.1-.3.2-.4.4-.4v.1c.3.1.9-1 1.3-.5-.1-.5-.4-1.1-.3-2 .2.5.4.5.5-.5-.6-2-.3 2.4-.9 1.2-.1-1.2-.3-1.5-.6-1.9.2-.7.1-1 .2-1.8.3 2.6 1 .3 1.5 1.6.2.8 0 2.4.5 2.7l-.5.8c.5-.7.1.8.5 1.1l-.1-.8c.2-.2.3 0 .4.6l-.2-1.3c.1-.2.4-.3.4.5 0-.3.1-.6.1-.8 0 .2.1.4.2.3-.1-.2-.2-.1-.1-.5.6.3.2-1.4.5-1.3 0-.3.1-.7.2-.8-.1 2 .6 2.3.8 3.5l.5.8c-.1-.2 0-.7.2-.9.2-.3-.1-2.2.3-1.6l.2.6v-.5l.2.6c.5-1.9.7 1.1 1.2.2-.1.2-.3 0-.2-.6.1-.2.2 0 .3.3v-.2l.8 1.3c0-.7-.5-.8-.3-1.5.2-.9.4.1.5.1 0 .5-.3 1-.1 1.3 0-.3.3-.8.2-1.2.3.6.7.9.9 1.9.1-.2 0-.5-.1-.5v.2c-.2-.3 0-1.4-.3-.8 0-1.8.5-.5.8-.7l-.4-1.2c.9-2.4 1.9.3 2.7.3-.3.5-.4 0-.5 1.4.5.7.4.4.9.7v-.1c.3-.7.6.7.8-.5-.1-.8-.4.7-.3-.8l.6.1c-.2-.9-.6-.1-.9-.4-.2.1.3.2.2 1.2-.6-.1-.7-1.1-.9-2.5-.1-1.1.3-1.1.4-1.1.3 1.6.8 2.4 1.5 1.7l.4-1.1c.3 1.1.1 3.1.6 2.9l-.1-.8c.1-.3.2-.4.3-.4-.2-.6-.4-1.4-.6-2 .4-1.8.8.9 1.3 1.3 0-.2-.2-.3-.2-.8.7-.4 1.3 1.7 1.8 2 .2-.8-.4-.5-.3-1.7.3.5.6-.5.6.5-.1-1.5.6-.1.2-1.5 1-.6 2 .8 2.9 1.7V176c-.3 0-.8-.4-.9-1.5.2-.8.5 1.1.6.6-.1-.4-.3-.4-.3-1.1.3-.8.4.4.6.5l-.1.4c.6 1.1.2 2.7.9 2.3.3-.9 0-.8.1-1.9.1.5.7-.8.8.4l-.4.1c.3.3.5.3.7.7 0-.2 0-.5-.1-.6.2.4.5.3.6 1.1l.1-1.2c-.2.5-.6.6-.6-.1-.3-1.7.1-1 .3-1.1zm-43.6 16.6h.6l-.7.2.1-.2zm-.6-3.3l-.1.1c-.1 0-.1-.1.1-.1zm-.3.3c0 .1-.1.1-.1.2-.2 0-.5.1-.5 0 .1-.1.3-.1.6-.2zm-2.2-3c-.1 0-.2.1-.2.1.1-.1.1-.1.2-.1zm-3.9-2.2c.2.1.5 0-.1.3-.3-.1-.2-.2.1-.3zm-1.7-.1c.2.1 1.7-.2 1 .2-.2-.1-1.7.1-1-.2zm1.4 5.4c1.3-.1 0 .2.6.2h.2-.2c-.5 0-1.7.1-.6-.2zm0 4.3c-.1.1-.1.1 0 0l-.1-.1c.7-.1.2.1.1.1zm1.4-.6c-.8.1-.9-.1-1.5-.1.1-.1.8-.1 1.3-.1.1-.1 0-.1-.2-.1 1.6-.2-.5.2.4.3zm-.3-4c-.1.1-.8 0-.5-.2.6-.1.4.2 1.1 0l.1-.1c-.2.2 1.5-.2.7.2l.1-.1c-.3.1-1.2-.1-1.5.2zm1.2 2.1c1.8-.2.1-.3 0-.4.3.1 2.1 0 1.2.4l-.5-.1-.1.1h-.6zm.5 7.9l-.2.1c0-.1 0-.1.2-.1l.5-.4c1.4-.1 0 .2-.5.4zm.6 2.1h-.4c-.2 0-.4.1-.5 0h.5c.4-.1.8-.3.4 0zm.7-.2c-.4 0-.6-.3.1-.4.1-.1 0 .2-.1.4zm3.1 3.7l-.4.2-.1-.1.5-.1zm-.4 2.1l.1.2-1 .1.9-.3zm.2-4c.1 0 .2-.1.3-.1 0 0-.1.1-.3.1-.5.2-.8.7-.6.9-.5.2-1.4 0-1.8 0 3.1-.4-.2-.3.9-.6.3 0 .2.1.7.1.3-.1.4-.2.1-.3h-.4.4c.3 0 .5-.1.7-.1zm1.6-2.9l-1.3-.2h.7l-.6-.1c.8-.1 1.8 0 1.2.3zm-1-.8l.5.3h-1l.7-.1-.2-.2zm-.6.9c.1 0 .2 0 .3.1-.1-.1-.2-.1-.3-.1-.3 0-.6.2-1 .1.4-.1.7-.1 1-.1zm-.7-1.1l-1 .2c.1-.1 1-.2.4-.3-.7.1-2.3.3-1.8 0 1.1 0 1.7-.1 2.4.1zm-1-5.5c-.3 0 .1-.1-.2-.1-.7.1-.6.1-.6 0-.1 0-.1 0-.1-.1l.1.1c.3.1 1.4-.1.8.1zm.6-.5c-.4 0 .4-.5-1-.3 1.6-.4 1.3.1 1 .3zm1.2-2.3l.5.1h-.2l-.5-.1h.2zm1.3-1.6c-.2.2-.3.4-.5.6-.8.1-.8.3-.8.4-.1.1-.1.2-.2.3-.6-.1-1.3-.1-1.8-.2l1.3-.1c-.6-.1-.4-.1-.2-.2v.1c.2.5 1.2-.9 1.3-.6.2-.3.1-.3 0-.4.4-.3.5-.8.8-1-.4.8-.1 1 .1 1.1zm3.7-19.4c.3-.7.2.8.4 1-.3.7-.2-.9-.4-1zm.4 1.6c.1-.3.2-.4.4-.2-.3.7-.3.5-.4.2zm7 1.2l.1-.2c.1-.8-.2-.5-.2-1.1.2-.3.5.3.4.5-.3.4.1 1.2-.1 1.6l.2-.1c-.3.8-.2-1-.4-.7zm1-1.4c-.2-.6-.3.8-.4-.5.2-1.2.3 0 .4.5v0zm6 3.4c.1 0 .2-.1.1.6.1.3.2-.1.2.2-.2.7-.1-.4-.3-.8 0 0-.1 0-.1-.1.1 0 .1.1.1.1zm-.1-4.4c0-.1.1-.1.1.1l-.1-.1c-.1.1-.2.6-.2-.1l.2.1zm-3.3 2.5v.7l-.1.1.2.5c-.4.9-.6-.8-.7-1.1.2 0 .6 1.7.6-.2zm-1.2 5.8c-.1 0-.1.1-.2.1l.2-.1c0-.1 0 0 0 0zm3.3 1.2c.1-1-.9.8-1.2.5 1.2-1.6-.4-.5-.4-.9l-.2.2c-.7.5-.5-.3-.3-.8-.2-.3-.6-.5-1.2-.3v-.1l.1-.1h-.1c.2-1.1.5.7.6-.8-.2.3-.6-.1-.7.8-.4.1-.3-.4-.8-.1.1-.1.3-.3.3-.4-.1-.2-.2-.3-.3-.4 0-.4 0-.9.2-1 .1 0 0 .5 0 .6.5.4.3-1.1.7 0v-1.3c.5.9 1 3.2 1.5 2.6 0-1-.3-.9-.4-1.7.6 1.8 1.5.3 2 1.3 0 .7.1 1.3.2 1.9zm-2-2.1v-.2l.3.5v.2l-.3-.5zm2-6.3c.1.2.1.2.2.1 0-.5-.2-1.1 0-1.3.1.5.4.7.3 1.4-.3-.7-.5 1.4-.5-.2zm.6 7l-.1-.6.2-.2-.1.8zm-.1-3.1c0 1.5.6.6.6 1-.3.3-.9.6-.6-1zm2.1 5.3c-.2-.1-.7.1-.9.1.3-.3.2 0 .4-.2-.1-.1-.3-.1-.6 0-.2-.8-.5-2-.7-1.1-.1-1.1.3-.7.2-1.9.4 1.7.3-.7.7-.3-.3 1.4.4 2 .3 2.7.2-.3.4.3.6.7zm6.3-7.6l.5-.5c0-.1.1-.2.2-.2l-.2.2c-.2.5-.3 2-.5.5zm.8 3c-.3-.6-.3-1.2-.6-2.4.4-.5.4 1.1.3 1.8.2.6.2-.2.3-.4v1zm1.1 1.8l-.6-.4.6.3v-.7.8zm.2-.8l.3.6-.2-.7.5 1.3c-.3.7-.6-.3-.6-1.2zm.5-.4c-.1-.2-.1-.6-.1-1 .2.4 0 .7.1 1 .1.1.1.3.2.3-.1-.1-.2-.2-.2-.3zm.3-2.8c.1-.7.5-.5.6-.2-.2.1-.7.3-.6.2zm.7-1.3l-.1-.5c.1.1.1.3.1.5l.1.4c-.4.5-.2 0-.1-.4zm4.2 3.2c-.3-.2-.9.1-1.1.7 0 .2 0 .3-.1.3 0-.1.1-.2.1-.3v-.7c0-.1-.1-.2-.1-.4 0 0 .1.2.1.4.1.2.3.1.4-.2 0-.5-.2-.4-.3-.7.3-1.1.8 2.2.7-.9.1.4.4 1.2.3 1.8zm1.7.7l.1-.5.2.1-.3.4zm2.9-.7l.2-.9.1 1-.3-.1z"/><path id="XMLID_284_" class="st1" d="M-201.2 178.5c0 .1-.1.2-.1.4.1-.2.1-.3.1-.4z"/><path id="XMLID_283_" class="st1" d="M-200.6 179.4z"/><path id="XMLID_282_" class="st1" d="M-178.5 177.7c.1 0 .3.8.2-.2-.1-.5-.1.2-.2.2z"/><path id="XMLID_281_" class="st1" d="M-178.8 176.5c-.1-.1-.2-.3-.3-.6.1.5.2.6.3.6z"/><path id="XMLID_280_" class="st1" d="M-178.8 176.5c.1.1.3.1.4-.1-.2-.3-.3 0-.4.1z"/><path id="XMLID_279_" class="st1" d="M-181 176.4s-.3.3-.4-.3c.2.9.1 1.7.5 1.9-.1-.5-.7-1.1-.1-1.6z"/><path id="XMLID_278_" class="st1" d="M-182.2 175.7s.1 0 .2-.1c-.1.1-.1.1-.2.1z"/><path id="XMLID_277_" class="st1" d="M-182.7 175c.1.5.1 1.2.3 1.4 0-.7.1-.6.2-.6-.1-.2-.3-1.3-.5-.8z"/><path id="XMLID_276_" class="st1" d="M-188.8 179.9h.3c0-.4-.1-.4-.1-.5-.1.1-.3.2-.2.5z"/><path id="XMLID_275_" class="st1" d="M-189.8 177.5l-.2-.6v1.3c.1.2 0-.8.2-.7z"/><path id="XMLID_274_" class="st1" d="M-189.4 170.9c0 .1 0 .1.1.1l-.1-.1z"/><path id="XMLID_273_" class="st1" d="M-190.9 180.2l-.1-1.4c-.1-.1-.2 1 .1 1.4z"/><path id="XMLID_272_" class="st1" d="M-192 180.1l-.1-.4h-.3z"/><path id="XMLID_271_" class="st1" d="M-193.4 179.2l.1-.3h-.4z"/><path id="XMLID_270_" class="st1" d="M-260.2 134.5v-.2.2z"/><path id="XMLID_269_" class="st1" d="M-256.4 147.4h.2c-.1-.1-.1-.1-.2 0z"/><path id="XMLID_268_" class="st1" d="M-257 131.9l-.2.1c.1 0 .2-.1.2-.1z"/><path id="XMLID_267_" class="st1" d="M-259.5 130.6s.1 0 .1.1c0-.1 0-.1-.1-.1z"/><path id="XMLID_266_" class="st1" d="M-255.9 133.2c.3 0 0 .3.3.2-.1-.1 0-.3-.3-.2z"/><path id="XMLID_265_" class="st1" d="M-239.9 169.9z"/><path id="XMLID_264_" class="st1" d="M-239.7 170.6h-.1c0 .1 0 .1.1 0z"/><path id="XMLID_263_" class="st1" d="M-256.5 146.9s-.1 0 0 0z"/><path id="XMLID_262_" class="st1" d="M-248.6 146.9z"/><path id="XMLID_261_" class="st1" d="M-249 146.9c0 .1.2.1.4 0-.1 0-.1-.1-.4 0z"/><path id="XMLID_260_" class="st1" d="M-250.3 143.5z"/><path id="XMLID_259_" class="st1" d="M-246.7 148.7h-.1.1z"/><path id="XMLID_258_" class="st1" d="M-250.3 143.4v.1c.1 0 .2-.1.3-.1h-.3z"/><path id="XMLID_257_" class="st1" d="M-246.5 148.5c-.1 0-.2.1-.2.2l.2-.2z"/><path id="XMLID_256_" class="st1" d="M-256.1 134.6c.1 0 .1 0 0 0 .1 0 .1 0 0 0z"/><path id="XMLID_255_" class="st1" d="M-251.4 143h-.2.2z"/><path id="XMLID_254_" class="st1" d="M-255.9 134.7c.1.1.1.1 0 0z"/><path id="XMLID_253_" class="st1" d="M-255.6 133.8v.1-.1z"/><path id="XMLID_252_" class="st1" d="M-254.4 138.9c.2 0 .1 0 0 0z"/><path id="XMLID_251_" class="st1" d="M-255.1 134.9h.1z"/><path id="XMLID_161_" class="st1" d="M-255.6 133.3s0 .1 0 0h.1-.1z"/><path id="XMLID_160_" class="st1" d="M-254.5 137.1c-.1 0-.2.1-.3.1 0 .1 0 .1.3-.1z"/></g></svg>