<svg id="Layer_1" xmlns="http://www.w3.org/2000/svg" viewBox="-444 244 71 74"><style>.st0{fill:#ec9488}</style><path class="st0" d="M-380.2 267.1c-2.6-5.3-6.9-9.6-11.9-12.6-4.9-3-10.6-4.6-16-4.6-2.6 0-5.9.4-9.4 1.3-2.6.7-5.3 1.7-7.9 3.1-3.9 2.1-7.6 5.2-10.3 9.5-2.7 4.3-4.4 9.8-4.4 16.7v.2c0 5.9 1.1 10.8 2.9 14.9 1.4 3.1 3.2 5.7 5.3 7.8 3.2 3.2 7.1 5.4 11.2 6.8 4.1 1.4 8.5 2 12.7 2 5.4 0 10.5-1 14.6-2.5 2.1-.8 3.9-1.7 5.4-2.7 1.5-1.1 2.7-2.2 3.4-3.6.4-.7.1-1.5-.6-1.9s-1.5-.1-1.9.6c-.4.8-1.2 1.7-2.5 2.6-1.9 1.3-4.6 2.5-7.8 3.4s-6.9 1.4-10.6 1.4c-3.5 0-7.1-.4-10.5-1.4-2.6-.7-5-1.8-7.2-3.2-3.3-2.1-6.2-5-8.3-8.9-2.1-3.9-3.3-8.9-3.3-15.1v-.2c0-5.7 1.2-10.2 3.2-13.9 1.5-2.7 3.4-4.9 5.5-6.8 3.2-2.7 7-4.5 10.7-5.6s7.2-1.5 9.9-1.5c3.3 0 6.6.7 9.9 1.9 4.9 1.9 9.4 5.1 12.7 9.3 3.3 4.2 5.3 9.3 5.3 15.2 0 2.5-.4 5.1-1.2 7.9-.3 1.1-1.1 2.2-2 3.1-.5.4-1 .8-1.5 1s-1 .3-1.5.3c-.7 0-1.4-.2-2.2-.8l-.8-.8c-.5-.7-1-1.6-1.4-2.7-.7-1.6-1.2-3.6-1.6-5.4-.2-1-.4-2-.4-2.9v-.3c0-.8 0-1.5-.1-2.2-.1-.7-.7-1.3-1.4-1.3s-1.3.6-1.4 1.3v.6c0 .6 0 1.2.1 2 0 1.5-.2 3.2-.6 4.8-.7 2.7-1.9 5.4-3.9 7.4-1 1-2.2 1.8-3.6 2.4-1.4.6-3.1.9-5 .9-2.2 0-4.1-.3-5.7-.9-1.2-.4-2.3-1-3.2-1.7-1.4-1.1-2.4-2.4-3.2-4.1s-1.2-3.6-1.3-5.9v-.9c0-1.6.2-3.1.6-4.3.6-1.9 1.6-3.6 3.1-5s3.4-2.6 6-3.5c.8-.3 2.1-.5 3.5-.5 2.2 0 4.7.4 7 1.4 1.1.5 2.2 1 3.1 1.8.9.7 1.7 1.5 2.2 2.5.4.7 1.3.9 1.9.5.7-.4.9-1.3.5-1.9-.8-1.3-1.8-2.4-2.9-3.2-1.7-1.3-3.7-2.2-5.8-2.8s-4.1-.9-6-.9c-1.7 0-3.2.2-4.5.7-1.9.7-3.5 1.5-4.9 2.5-2.1 1.5-3.8 3.3-4.9 5.5-1.1 2.2-1.6 4.7-1.6 7.4v1.1c.1 2.3.5 4.4 1.3 6.2 1.1 2.8 3 5.1 5.6 6.7 2.6 1.5 5.7 2.3 9.4 2.3 3 0 5.6-.7 7.7-1.9 1.6-.9 2.9-2.1 4-3.4 1.4-1.7 2.3-3.6 3-5.6.1.5.3.9.5 1.4.4 1.1.9 2.1 1.4 3 .6.9 1.2 1.7 2 2.3 1.2.9 2.5 1.3 3.8 1.3.9 0 1.9-.2 2.7-.6 1.2-.5 2.3-1.4 3.2-2.4s1.5-2.2 1.9-3.4c.9-3 1.3-5.9 1.3-8.7-.5-5-1.5-9-3.3-12.5z"/></svg>