<?xml version="1.0" encoding="iso-8859-1"?>
<!-- Generator: Adobe Illustrator 19.0.0, SVG Export Plug-In . SVG Version: 6.00 Build 0)  -->
<svg version="1.1" id="Layer_1" xmlns="http://www.w3.org/2000/svg" xmlns:xlink="http://www.w3.org/1999/xlink" x="0px" y="0px"
	 viewBox="0 0 512 512" style="enable-background:new 0 0 512 512;" xml:space="preserve">
<g>
	<g>
		<path style="fill: #48a5bd;" d="M256,0C157.193,0,76.8,80.384,76.8,179.2c0,64.068,34.671,123.238,89.6,155.042V486.4c0,14.14,11.46,25.6,25.6,25.6h128
			c14.14,0,25.6-11.46,25.6-25.6V334.242c54.929-31.804,89.6-90.974,89.6-155.042C435.2,80.384,354.807,0,256,0z M320,486.4H192
			v-51.2h128V486.4z M320,318.703V409.6h-51.2V228.582c22.016-5.726,38.4-25.591,38.4-49.382c0-28.228-22.972-51.2-51.2-51.2
			s-51.2,22.972-51.2,51.2c0,23.791,16.384,43.657,38.4,49.382V409.6H192v-90.897c-52.838-24.294-89.6-77.542-89.6-139.503
			c0-84.83,68.77-153.6,153.6-153.6s153.6,68.77,153.6,153.6C409.6,241.161,372.838,294.409,320,318.703z M256,204.8
			c-14.14,0-25.6-11.46-25.6-25.6s11.46-25.6,25.6-25.6c14.14,0,25.6,11.46,25.6,25.6S270.14,204.8,256,204.8z"/>
	</g>
</g>
<g>
</g>
<g>
</g>
<g>
</g>
<g>
</g>
<g>
</g>
<g>
</g>
<g>
</g>
<g>
</g>
<g>
</g>
<g>
</g>
<g>
</g>
<g>
</g>
<g>
</g>
<g>
</g>
<g>
</g>
</svg>
