<svg id="Layer_1" xmlns="http://www.w3.org/2000/svg" viewBox="0 0 334 322"><style>.st0{opacity:.5}.st1,.st2{fill:#fff}.st2{opacity:.1091}</style><g id="XMLID_1005_" class="st0"><g id="XMLID_70_"><g id="XMLID_685_"><path id="XMLID_689_" class="st1" d="M107.8 164.1c-12.1-5.3-25.2-7.9-38.4-7.3-1.5.1-2.9.2-4.4.3-.7.1-4.6 1-5.2.7.8.4-.7-2.3-.9-2.5-1-.9-2.7-1.4-4-1.9-3-1.2-6.2-1.9-9.4-2.2h-5.3c-.5-.9 2.2-2.5 2.6-2.8-.9.3-1.9.5-2.8.8.8-.1 1.7-.1 2.5-.2.4 0 2.7-1 2.9-.8-1.4-1.7-3.5-5-.2-6.1-.9.3-1.9.5-2.8.8 3.5-.2 6.9.1 10.2-1.1 7.7-2.6 1.9-12.9 8.9-15.4-.9.3-2 .4-2.9.8-7 2.5-1 12.7-8.6 15.3.9-.3 1.9-.5 2.8-.8-4.1.7-16.8-.9-10.3 7.2 1-.3 1.9-.5 2.9-.8-1.9-.2-5 .3-6.6 1.6-3.1 2.4-.1 2 2 2 1.8 0 3.5.2 5.2.6 4.3.8 7.6 2.5 11 4.9.4.4.3.9-.2 1.3 1.2-.2 2.3-.4 3.5-.5 2.3-.3 4.6-.5 7-.6 4.1-.1 8.2 0 12.2.5 8.7 1 17.2 3.4 25.2 6.9.9.4 2.4-1 3.1-.7z"/></g></g><g id="XMLID_69_"><g id="XMLID_679_"><path id="XMLID_683_" class="st1" d="M60.6 121.7c.7.6 1.5 1 2.4 1.1.3 0 2.9-.7 2.9-.8 0-1.4.1-2.8.1-4.2 0 .3-2.9.5-2.9.8 0 1.4-.1 2.8-.1 4.2 1-.3 1.9-.5 2.9-.8-.9-.1-1.7-.5-2.4-1.1-.1-.1-1.3.3-1.5.4-.1.1-1.3.5-1.4.4z"/></g></g><g id="XMLID_68_"><g id="XMLID_640_"><path id="XMLID_661_" class="st1" d="M63.8 113c.4 1.6 1.6 1.3 2.7 2.2 1.1.8 1.5 1.7 2.1 2.9 1.5 3.4 3 6 6.1 8.2.2.2 2.9-.9 2.9-.8-1.4-4.5-2.3-8.9-2.7-13.6 0 .2-2.9.5-2.9.8-.4 2.7 2.6 2.3 4.3 1.7.9-.3 1.2-.2 2-1 1.3-1.2.9-7.4 2.1-7.7-.7.2-1.5.4-2.2.6 1.9 1.7 3.2 1.5 5.4.9 3.6-1.1 4.4-4.7 7.5-6.3-1 .3-1.9.5-2.9.8 6 2-1.9 18.9-2.8 22.5-1.5 5.5-.2 15 7.6 14.1 2.7-.3 6.4-1.5 4.3-4.7-2.2-3.5-4-5.6-4.5-10-.3-3.1-1.1-9 1.7-10.9-.8.2-1.6.4-2.5.7 4.1-1 8.7-.6 10.1-5.6-1 .3-1.9.5-2.9.8-.3 4.5 6.3.2 7.1-1.2-.4.6-2.5.1-2.9.8-.7 1.2-1.2 1.7-2.4 2.4 1-.3 1.9-.5 2.9-.8-1.4-.2-1.9-.5-1.8-2 0 .3-2.8.4-2.9.8-.6 2.3-1.8 3.6-4.1 4.4 1-.3 1.9-.5 2.9-.8-3.1.4-7.3.4-8.1 4-.8 3.8-.4 8.9.8 12.6 1 3 7.5 7.9 2.2 9.7.9-.3 1.9-.5 2.8-.8-5.8.3-8.7-5.6-8.2-10.7.7-7.1 4.8-13.2 5.3-20.5.2-3.2 0-5.8-3.4-5-3.8.9-4.5 5.1-8.1 6.4 1-.3 1.9-.5 2.9-.8-2.7 0-3.1-2.1-5.8-.8-3.3 1.6-.7 6.4-4.2 8.7 1-.3 1.9-.5 2.9-.8-1.5 0-2.5-.6-2.2-2.2-1 .3-1.9.5-2.9.8.4 4.7 1.3 9.1 2.7 13.6 1-.3 1.9-.5 2.9-.8-3.2-2.3-4.5-4.8-6.1-8.2-.6-1.3-.9-2.1-2.1-2.9-1.2-.8-2.4-.6-2.7-2.2 0-.1-2.9.6-2.9.7z"/></g></g><g id="XMLID_67_"><g id="XMLID_611_"><path id="XMLID_629_" class="st1" d="M108.7 110.5c-.3 2.5-.6 5-.8 7.5 0-.3 2.6-.4 2.9-.8 2.9-4.1 6.7-7 11.4-8.8-1 .3-1.9.5-2.9.8-4.4 5-8 10.6-10.8 16.6.2-.4 2.4-.6 2.9-.8 3.2-1.5 6.4-2.9 9.5-4.4-1 .3-1.9.5-2.9.8-2.5 6.3-5.2 12.7-7.6 19-2.1 5.5-3.1 11.3 1.7 15.6 8.1 7.4 20.7 2.7 29.9.4 21.4-5.4 42.6-11.2 63.7-17.4-.7.2-1.9.5-2.8.7-12 3.5-24 6.9-36.1 10.2-7.1 1.9-14.2 3.8-21.4 5.6-5.5 1.4-11.1 3.1-16.7 3.6-7.1.6-16.3-2.3-17.2-10.6-.5-4.6 1.9-9.2 3.6-13.3 1.9-4.8 3.9-9.7 5.8-14.5-.1.4-2.5.6-2.9.8-3.2 1.5-6.4 2.9-9.5 4.4 1-.3 1.9-.5 2.9-.8 2.8-6.1 6.4-11.6 10.8-16.6-.4.5-2.3.5-2.9.8-4.7 1.8-8.4 4.7-11.4 8.8 1-.3 1.9-.5 2.9-.8.3-2.5.6-5 .8-7.5-.1.3-2.9.3-2.9.7z"/></g></g><g id="XMLID_66_"><g id="XMLID_363_"><path id="XMLID_609_" class="st1" d="M121.8 159.8c6.9.6 13.5-1.3 20.1-3 7.1-1.8 14.2-3.7 21.3-5.6 15.8-4.3 31.5-8.8 47.1-13.6-.7.2-1.9.5-2.8.7-12 3.7-24.1 7.2-36.3 10.6-8.4 2.3-16.9 4.6-25.4 6.8-6.9 1.8-13.9 3.9-21.1 3.3-1 0-2 .9-2.9.8z"/></g></g><g id="XMLID_690_"><g id="XMLID_357_"><path id="XMLID_361_" class="st1" d="M201.1 142.3c1.1-6.6 6.9-8.2 12.9-8.3 1.1 0 3.3.1 4.3-.6 3.5-2.6-2.3-3.8-4.1-4.1-4.7-.7-7.5-4.9-6.1-9.5-.9.3-1.9.5-2.8.8 1.9-.4 3.7-.8 5.6-1.2.3-.1 2.8-.6 2.8-.8.1-1.3.1-2.6.2-4 .1-2.1-.3-1.9 1.7-2.8 3.7-1.7 4.8 0 7 2.4 3.3 3.5 7.2 6.1 11.6 8.1.7.3 2.2-1.1 2.9-.8-8-4-6.5-15.9 2.7-16.9 1.9-.2 4.3-.2 6.3.2 2.1.5 3.5 2.1 4.9 3.8 2.7 3.3 3.4 7.4-.7 9.8.9-.2 1.8-.5 2.7-.7-3.3.8 0-.9 1.3-1.3 1.4-.3 3-.3 4.4-.4 2-.1 4.1.2 6.1 0 1-.1 2-.4 3-.7 7.3-2.2 14.2-9.1 20-13.9 7.6-6.3 14.7-13 21.5-20.2 3.6-3.8 7-7.7 10.3-11.7 3-3.6 6.1-7.2 6.7-12-1 .3-1.9.5-2.9.8.7 3.5 2 6.7 4.5 9.4.7.7 1.4 1.4 2.2 2-.9.8-1.9 1.6-2.8 2.4-1.4 1.2-2.8 2.4-4.1 3.6-6.6 5.8-13.1 11.8-19.3 18.1-5.8 5.8-11.2 11.9-16.8 17.7-5.3 5.5-11.9 12.1-19.7 13.7-.3.1-2.7.9-2.8.8 1.2 1.3 1.9 2.3 2.6 3.9 1-.3 1.9-.5 2.9-.8-1.5.1-3 .1-4.5.2-.3 0-2.9.6-2.9.8-.1 1.7 0 2.6.5 4.2 1-.3 1.9-.5 2.9-.8-7.5.7-14.6 3.5-19.7 9.2 1-.3 1.9-.5 2.9-.8-4.1-.3-9.3 2-8.4 6.9 1-.3 1.9-.5 2.9-.8-1.7 0-3.4.1-5.1.1-.3 0-2.9.8-2.9.8.8 2.6 1 5 .7 7.7 1-.3 1.9-.5 2.9-.8-4.4-1.4-8.8-1.8-13.4-1.4-.3 0-2.9.6-2.9.8-.2 1.3-.3 2.6-.5 4 1-.3 1.9-.5 2.9-.8-2-.2-4-.6-5.9-1.4-.9-.4-1.8-.8-2.7-1.4-1.3-.3-1.6-1-1-2-.7-3.6-.6-6-4.2-8.1-.2-.1-2.7.6-2.9.8-3.2 3.4-4.3 7.5-3.3 12 0-.1 2.7-.6 2.9-.8 1.4-1.2 2.5-2.1 4.4-2.7-.9.3-1.9.5-2.8.8 3.8-.1 6.3 3.3 9.5 4.7 3.3 1.5 6.9 2.2 10.5 2.1 2.4-.1 3.9-.9 2.9 2.3-.2.8-2.6 3-2.6 3.1.1.7 7.5 0 7.9.7.9 1.7-1.3 2.8-2.5 3.3 1-.3 1.9-.5 2.9-.8-1.9.3-4 .4-5.9 1.1-5.3 2-2.3 7.1.5 10.2 1-.3 1.9-.5 2.9-.8-3.1-.2-6.2-.4-9.2-.6-1 .3-1.9.5-2.9.8 6.8.3 12.2 4.7 13.9 11.3 1-.3 1.9-.5 2.9-.8-3.1-.3-6.2-.7-9.3-1-.3 0-2.9.6-2.9.8-.4 3.5-2.3 5.7-5.5 7.1.9-.3 1.9-.5 2.8-.8-5.5 1.1-9.7-3.2-9.2-8.6 0 .4-2.7.4-2.9.8-2.6 4.4 3.5 7.9 6.5 10 2.1 1.5 4.2 2.9 6.2 4.4l3.9 2.7c1.3.9 3.3 1.3 1 2.1.9-.3 1.9-.5 2.8-.8-4 .9-7.3 0-10.3-2.6-.4-.3-2.7 1.1-2.9.8 1.5 2.1 2.8 4.2 3.9 6.5s2.4 3.9-.5 5c1-.3 1.9-.5 2.9-.8-2.2.3-3.7-.2-5.1-1.8-.3-.3-2.7 1.1-2.9.8 2.3 3.2 2.8 6.6 1.7 10.3 1-.3 1.9-.5 2.9-.8-5-.2-8.9-3-10.7-7.8 0 0-2.9.6-2.9.8-1.3 5.9-1 11.5.8 17.2 1-.3 1.9-.5 2.9-.8-2.5-.2-3.8-1.2-4.6-3.5 0 0-2.7.6-2.9.8-1.7 1.8-3.5 3.2-6.1 3.4-3.4.3-3-1.2-3.2-4.1 0 .2-2.7.5-2.9.8-1.5 2.5-4.2 6.1-7.2 7.1-4.9 1.6-4.4-4.6-3-7.8-1 .3-1.9.5-2.9.8.1 2.1-.5 3.1-2.3 4.1 1-.3 1.9-.5 2.9-.8-.2-1.8-.4-3.7-.7-5.5-.3-2.1.3-3.5-1.8-3.7-.4 0-.9.2-1.3.3-3 .7-5.3 1.9-5.7 5.3 1-.3 1.9-.5 2.9-.8-1.6-.1-3.6 0-5.1-.5-1.4.4-2 .1-1.8-1.1-.1-.9-.1-1.8-.2-2.7 0-.6-.1-5.1-.4-5.5-.4-.4-2.7-.1-3.4 0-2 .2-4.1 1-6 1.6.9-.3 1.9-.5 2.8-.8-.1-.8.1-1.7.4-2.4.3-.8.8-1.4 1.5-1.9-.1-.3-4.8.5-5.5.3-2.3.5-2.5.2-.5-.8.9-.6 1.7-1.3 2.5-2 1.2-1.1 2.4-2.2 3.4-3.5 1.4-1.6 2.7-3.4 3.8-5.2.6-.9 1.1-1.9 1.6-2.8-.5-.1-1-.2-1.5-.2-1.5-.9-4-1.1-5.7-1.9-1.6-.8-3.1-1.7-4.5-2.8-2.7-2.2-.5-2.4 2.4-3.4 1.5-.5 3-.8 4.4-1.4 2.5-1.1 5-2.9 5.2-5.8.5-5.1-3.7-2.7-7-3.1-3.2-.4-2.8-.8-.3-2.1 2.1-1.1 5.2-1.5 7.5-2.2h.1c-.7-3-5.8-1.1-6.7-5.1-1.2-5.6 4.4-7.2 8.8-7.3.3 0 2.9-.7 2.9-.8-.1-2.8-1-4.7-3-6.6-1 .3-1.9.5-2.9.8l19.8.6c3.3.1 6.5.3 9.7-.5 8-2 9.1-8.5 8.6-16 0 .1-2.6.6-2.9.8-20.5 14.8-46.9 12.9-70.6 17.9-6.7 1.4-13.5 3.2-19.8 6-.8.3-7.4 3.2-7.2 3.7.1.3 6.9 1.6 7.8 1.9 4.8 1.7 9.1 4.5 10.4 9.7 0 0 2.7-.7 2.9-.8.6-.2 1.2-.5 1.8-.7-.9.2-1.8.5-2.7.7 2.5-.3 4.8.3 6.7 1.9 2.8 2.5 1.3 4.8 2.7 7.8 1.2 2.4 11.8 5.6 7 9.5 1-.3 1.9-.5 2.9-.8-3.4-.4-6.9.3-10.1 1.4-1.6.6-3.9 1.5-5 2.9-1.2 1.5-.9.7.5 1.7.9.6 2 1 3 1.5 2.2 1.2 4.2 2.6 6.1 4.2.8.7 1.7 1.5 2.4 2.3 1.1 1.1 2.3 1.5.6 2.5.9-.2 1.8-.5 2.7-.7-2.1.5-3.1.2-4.8-.7-.2-.1-2.9.9-2.9.8.8 3.2.5 5.8-1.2 8.7 1-.3 1.9-.5 2.9-.8-2.4-1.2-4.9-2.4-7.3-3.6-.2-.1-2.9.9-2.9.8.5 2.4 1.1 4.8 1.6 7.3 1-.3 1.9-.5 2.9-.8-2.9-.4-5.4-1.4-7.6-3.3-2.4-2.2-2.6-4.7-4.3-7.1.2-1.6-.4-2-2-1.2-.6.1-1.2.2-1.7.2-.1 0-.3.1-.4.1-.6.1-1.7.2-2.2.6-4.1 2.9 1.6 8.1 3.9 9.9 4 3.2 8.3 9.5.9 12.1 1-.3 1.9-.5 2.9-.8-2.9.2-4.9-1-6.1-3.8-1 .3-1.9.5-2.9.8 2.1 2.9 1.5 6.4-1.7 8.1.5-.1 1-.3 1.4-.4l-1.2.3c.5-.1 1-.2 1.5-.4-2.3.1-3.8-.5-5.2-2.3-.2-.2-2.9.9-2.9.8.8 2.7-.1 4.7-2.5 6.2.9-.2 1.8-.5 2.7-.7-3.7.9-6.1-2.2-5.6-5.5-.1.4-2.6.4-2.9.8-4.8 7-4 17.7-12.8 21.5.8-.2 1.6-.4 2.5-.7-2.9.8-3 .6-3.4-1.7-.3-1.5-.1-3.2-.1-4.7-.1-3.1.3-6.5-.3-9.5-.5-2.7-1.9-4.5-4.6-4.1-2.9.4-2.8 1.7-2.6 4.6.2 4.7 2.1 12.2-3.1 14.7.9-.3 1.9-.5 2.8-.8-6.2 1.5-9.1-5.9-3.8-9.2-.8.5-2 .4-2.9.8-3.5 1.4-8.6 2.3-11.2-1.2-2.5-3.3-.4-7.7 3.3-8.9-.9.3-1.9.5-2.8.8-1 .5-5.7 2.5-6.7 1.5-.8-.7-.4-2.7-.2-3.5.9-2.6 3.7-4 6-5-.9.3-1.9.5-2.8.8 3.8-.9 11.8-.4 15.1-3.5 1.2-1.1 2.1-.7.3-1.8-.9-.6-2.4-.3-3.4-.2-.6.1-1 .2-1.6.3-2.8.6-5.4 1.7-8.2 2.6.9-.3 1.9-.5 2.8-.8-2.2.4-4.8.5-6.3-1.4s-.6-3.8 1.4-4.8c-1 .3-1.9.5-2.9.8.7-.2 1.4-.1 1.9.4 1-.3 1.9-.5 2.9-.8-5.3-1.1-8.4-6.5-6.5-11.7-1 .3-1.9.5-2.9.8 2.5.4 6-.3 8.3-1.7.9-.6 3.3-2.4 3.1-3.7-.2-1.2-3.8-1.8-5.3-2.3-1.4-.5-5.2-1.6-5.9-2.9-.6-1-.3-.9 1-1.7 1-.7 2.1-1.1 3.2-1.6-.6.2-1.2.3-1.8.5.5-.1.9-.2 1.4-.4-.4.1-.7.2-1.1.3.9-.2 1.9-.3 2.9-.3.8 0 2.1-1 2.9-.8-4.8-1.1-2.2-7.3 1.3-8.3-.9.2-1.8.5-2.7.7 3.3-.2 6 1 8.9 2.5 1-.3 1.9-.5 2.9-.8-4.8-.7-9.4-7.5-2.9-9.6-.9.3-1.9.5-2.8.8 1.9-.3 3.4.1 4.4 1.9 0 0 2.7-.6 2.9-.8 1.5-1.4 2-2.6 2.1-4.7-1 .3-1.9.5-2.9.8 3.5 0 6.9.4 10.3 1.4.3.1 2.9-.9 2.9-.8-.4-1.4-.9-2.6-1.8-3.8-1.1-1.3-3.2-1.4-.8-2.5-.9.3-1.9.5-2.8.8 5.1-1.2 9.7 2 14.8 1.5 1.2-.1 2.5-.5 3.6-.8 7.2-2.1 10.9-8.6 14-14.9-.3.6-2.6.2-2.9.8-2.9 6-6.6 12.6-13.4 14.7.9-.3 1.9-.5 2.8-.8-5.7 1.1-11-2.5-16.7-1.1-.7.2-1.6.3-2.2.6-2.5 1.5-1.1-.3-.3 1.5.8 1.7 2.2 2.8 2.8 4.8 1-.3 1.9-.5 2.9-.8-3.4-1-6.7-1.4-10.3-1.4-.3 0-2.9.6-2.9.8-.1 2-.6 3.2-2.1 4.7 1-.3 1.9-.5 2.9-.8-1.4-2.8-4.5-2-6.9-1.2-6.4 2.2-2.9 8.9 2.5 9.7.7.1 2.3-1.1 2.9-.8-3.8-2-7.2-3.1-11.3-1.9-1.8.5-3 .8-3.9 2.5-1.2 2.3-.7 5.3 2 5.9 1-.3 1.9-.5 2.9-.8-3 .1-6.4.9-9.1 2.3-.6.3-2.1.9-2.4 1.6-.5 1 .4 1 1.6 1.7 1.9 1.1 3.9 2 6 2.7.7.3 2.6.5 3.2 1 .9.8.7.5.1 1.9-.7 1.7-2.6 2.8-4.3 3.4.9-.3 1.9-.5 2.8-.8-1.2.4-2.4.4-3.6.1-.3 0-2.8.6-2.9.8-1.8 5.1 1.2 10.5 6.5 11.7.7.2 2.3-1.1 2.9-.8-3.1-1.7-9.6 2.1-5.9 5.6 3.6 3.4 10.6-.6 14.4-1.6-.7.2-1.5.4-2.2.6 1.3-.2 3.6-.6 4.7.4s-1.4 1.8-2.5 2.2c-2.5.8-5.3.7-7.8 1.3-1.6.4-3.3.8-4.8 1.6-1.9 1-5.3 3.7-4.4 6.4.7 2.1 3.7 1 5.6.6 2.5-.6 5-1.4 7.4-2.5-.9.4-1.9.5-2.8.8-2.9.9-5 3.6-4.3 6.8.8 3.9 4.9 4.8 8.3 4.4 3.3-.3 6.7-1.5 9.7-2.7-1 .3-1.9.5-2.9.8-3.4 2.1-4.1 7.8.4 9.3 1.7.5 3.5 0 5.1-.5 2.1-.6 3.7-1.5 4.4-3.8 1-3.3-2.1-13.7.6-15.3-1 .3-1.9.5-2.9.8 5.5 0 4 11.6 4 14.8 0 .6-.3 5.2.1 5.6.4.4 2.1.1 2.6.1.9-.1 1.8-.4 2.6-.7 10.1-3 9.2-14.6 14.3-21.9-1 .3-1.9.5-2.9.8-1.2 8.6 13.6 6.5 11.2-1.4-1 .3-1.9.5-2.9.8 4.4 5.4 16 .1 11-6.9-.2-.2-2.8 1-2.9.8 1.8 4.3 7.9 4.8 11.3 1.8 8.7-7.6-12.7-12.6-7.4-20.8-1 .3-1.9.5-2.9.8 1.2-.2 2.3-.3 3.5-.5.1.9.3 1.9.6 2.7.5 1.6 1.4 3 2.4 4.3 2.4 2.8 5.5 4.4 9.1 4.9.3 0 2.9-.8 2.9-.8-.5-2.4-1.1-4.8-1.6-7.3-1 .3-1.9.5-2.9.8 2.4 1.2 4.9 2.4 7.3 3.6.2.1 2.8-.6 2.9-.8 1.7-2.8 2.1-5.4 1.2-8.7-1 .3-1.9.5-2.9.8 2.3 1.4 4.4 1 6.8.2.4-.1 1.3-.2 1.6-.6.9-1.2-4.1-4.9-5.5-5.9-2.2-1.6-5-2.5-7.2-4.2-1.6-.1-2-.5-1-1.2.5-.5 1.1-1 1.7-1.4 1.2-.9 2.4-1.4 3.9-1.8 2.1-.5 4.6.3 6.6-.7 2.7-1.4 1.5-4.2-.8-5.7-1.8-1.2-4.2-1.4-5.4-3.4-1.3-2.2-.3-4.9-1.9-7-3-4.2-8.6-3.6-12.7-1.6 1-.3 1.9-.5 2.9-.8-1.3-5.2-5.6-8-10.4-9.7-1.3-.5-6.3-.8-7.1-1.8-1.1-.1-.9-.3.6-.9.6-.4 1.3-.7 2-1 1.1-.6 2.2-1.1 3.3-1.6 12.6-5.6 26.6-6.8 40.1-8.5 17.6-2.2 36.2-5.1 51-15.7-1 .3-1.9.5-2.9.8.4 6.2.2 13.3-6.8 15.4.9-.3 1.9-.5 2.8-.8-9 1.6-19.3-.1-28.4-.3-.5 0-2.6 1-2.9.8 2.1 1.9 2.9 3.8 3 6.6 1-.3 1.9-.5 2.9-.8-3.8.1-10.5.5-13.3 3.8-2.2 2.6-1.9 6.9 1.5 8.2 1.5.6 6 .4 2.1 2.5-2.7 1.5-6.5 1.9-9.4 2.8h-.1c1.9.7 3.7 1.1 5.7 1.2 1.2 0 3.9-.6 4.9.4 1.6 1.7-.2 5-1.5 6.3-2.4 2.5-6.1 2.7-9.2 4-.5.2-1 .4-1.4.6-1.7.4-1.7 1.1-.2 1.8.7 1.1 2.7 2 3.7 2.6 1.3.7 2.7 1.4 4.1 1.8.4.1 4.2.6 4.4 1 .7 1.4-5.6 8.3-6.5 9.3-1.1 1.2-2.3 2.3-3.6 3.3-.6.5-1.3 1-1.9 1.5-1.2.7-.8.8 1.2.4.3 0 5.5-.5 5.5-.3-.7.5-1.2 1.2-1.5 1.9-.3.8-.5 1.6-.4 2.4 0-.1 2.6-.7 2.8-.8 1-.2 1.9-.3 2.9-.1 1.1-.2 1.5.4 1 1.9.4 1.4.3 3.2.4 4.6.2 2.4-.3 2.2 1.9 2.9 1.5.5 3.6.3 5.1.5.3 0 2.9-.6 2.9-.8.3-2.6 1.4-3.9 4-4.8-.9.3-1.9.5-2.8.8 2.1 0 1.6 1.7 1.8 3.7.2 1.8.4 3.7.7 5.5 0-.1 2.6-.7 2.9-.8 1.9-.9 2.5-2 2.3-4.1 0 .2-2.8.5-2.9.8-1.4 3.1-1.3 5.8.4 8.9h.1c6.4-1.3 12-3.8 15.6-9.7-1 .3-1.9.5-2.9.8.2 2.3-.4 3.4 1.7 4 .8.2 2.1.1 3-.1.9-.1 1.8-.4 2.6-.6 3-.8 5.5-1.9 7.7-4.2-1 .3-1.9.5-2.9.8.8 2.3 2.2 3.4 4.6 3.5.3 0 2.9-.8 2.9-.8-1.8-5.7-2.1-11.3-.8-17.2-1 .3-1.9.5-2.9.8 1.7 4.7 5.6 7.6 10.7 7.8.3 0 2.8-.6 2.9-.8 1.1-3.7.6-7.1-1.7-10.3-1 .3-1.9.5-2.9.8 2.1 2.3 4.6 2.1 7.3 1.2.8-.3 2.3-.5 2.7-1.3 1-1.9-4.5-9.2-5.5-10.4-1 .3-1.9.5-2.9.8 3.3 2.8 9.2 4.2 13.2 1.8 0 0 1.3-.5 1.4-.5 0-.1-3.5-2.4-3.9-2.7-2.3-1.6-4.7-3.3-7-4.9-3.2-2.2-10.9-6.2-8-11.1-1 .3-1.9.5-2.9.8-1.1 11.7 16.5 10.9 17.7.7-1 .3-1.9.5-2.9.8 3.1.3 6.2.7 9.3 1 .3 0 2.9-.8 2.9-.8-1.7-6.6-7.1-10.9-13.9-11.3-1 0-2 .8-2.9.8 3.1.2 6.2.4 9.2.6.4 0 2.7-1 2.9-.8-2.7-2.9-5.8-8-.7-10.1-1 .3-1.9.5-2.9.8 2-.3 5.4-.4 7.2-1.6.7-.4 1.2-1 1.5-1.8.2-1.3-.5-1.7-2.1-1.2-1.3-.1-2.6-.2-3.9-.4-2.3.2-2.6-.1-.8-1 .4-1.3 2-2 1.7-3.6-.4-2.3-2.6-.9-4.7-1-3.6-.1-7.2-1-10.3-2.8-2.7-1.5-4.8-4.3-8.2-4-2.7.2-5.3 1.8-7.3 3.5 1-.3 1.9-.5 2.9-.8-1-4.5.1-8.6 3.3-12-1 .3-1.9.5-2.9.8 3.6 2.1 3.5 4.5 4.2 8.1-.7 1-.3 1.7 1 2 .9.5 1.8 1 2.7 1.4 1.9.8 3.8 1.2 5.9 1.4.3 0 2.9-.6 2.9-.8.2-1.3.3-2.6.5-4-1 .3-1.9.5-2.9.8 4.6-.4 9 0 13.4 1.4.2.1 2.9-.7 2.9-.8.4-2.7.2-5.1-.7-7.7-1 .3-1.9.5-2.9.8 1.7 0 3.4-.1 5.1-.1.3 0 2.9-.8 2.9-.8-.5-2.8.7-4.7 3.1-6-.9.3-1.9.5-2.8.8 1.6-.4 3.6-.1 5.1-.9 1.6-.8 2.9-3 4.5-4.1 2.9-2.1 6-3.3 9.6-3.6.3 0 2.9-.8 2.9-.8-.5-1.6-.7-2.6-.5-4.2-1 .3-1.9.5-2.9.8 1.5-.1 3-.1 4.5-.2.3 0 2.9-.9 2.9-.8-.7-1.6-1.4-2.6-2.6-3.9-.9.3-1.9.5-2.8.8 14.6-2.9 23.5-13.3 33.3-23.8 7.3-7.8 14.9-15.2 22.7-22.4 2-1.8 4.1-3.7 6.1-5.5 1.3-1.1 4.9-3.2 5.5-4.7 1.1-.5.9-1-.5-1.5l-1.1-1.1c-.7-.7-1.3-1.5-1.9-2.4-1.4-2.2-2.2-4.5-2.6-7 0 .1-2.9.5-2.9.8-.8 6.3-6.1 11.3-10 16-4.7 5.5-9.7 10.8-14.9 15.8-5 4.8-10.2 9.4-15.6 13.8-5.2 4.2-11.1 9.9-17.4 12.1 1-.3 1.9-.5 2.9-.8-5 .7-9.9 0-14.9 1.2-2 .5-4 1.1-6 1.7h-.1c2 1 5.4.2 7-1.3 3.2-2.9 1.3-6.8-1-9.4-1.4-1.5-2.5-2.9-4.4-3.3-1.9-.4-4.3-.3-6.3-.2-2.8.2-6.2.9-8.7 2.2-6.9 3.4-6.6 12.9.1 16.3 1-.3 1.9-.5 2.9-.8-3.9-1.7-7.5-4-10.6-7-1.3-1.3-2.6-3.5-4.2-4-1.5-.4-3.9.3-5.4.7l-2.4.6c-.8.2-2 .3-2.6.8-1.4 1.2-.9 4.6-1 6.6.9-.3 1.9-.5 2.8-.8-1.9.4-3.7.8-5.6 1.2-.4.1-2.8.5-2.8.8-1.1 3.4.2 7.3 3.6 8.9 1.9.9 9.7.4 7 4.6 1-.3 1.9-.5 2.9-.8-7.3-.1-18.9.7-20.5 9.8-.1-1.1 2.7-1 2.8-1.4z"/></g></g><g id="XMLID_697_"><g id="XMLID_351_"><path id="XMLID_355_" class="st1" d="M104.6 164.3c-8 3.3-16.1 6.5-25 6-5.9-.4-11.5-2.4-16.7-5-10.8-5.4-20.2-13.2-31.8-17.2-.4-.1-2.6.5-2.9.8-2.2 1.9.9 3.2 2.1 4.5 2.1 2.2 1 4.5-1.4 5.9.9-.3 1.9-.5 2.8-.8-2.4.5-3.9.2-6.2-.3-.3-.1-2.8.9-2.9.8 1.9 3.5-2.5 5.7-5.2 6.7h-.1c4.1 2.3 7.4 5.2 10.3 9 1-.3 1.9-.5 2.9-.8-4-.4-7.9-.9-11.9-1.3-.8-.1-2.2 1.1-2.9.8 1.8.8 5.2 2.2 6.1 4.1.8 1.7.8 1.3-1.1 2.6-1.2.8-2.3 1.5-3.6 2.1-.5.3-2.8 1-3 1.5 0 .1.7 2.6.7 3 0 2.5-1.2 4.4-3.1 5.9.7-.5 2.1-.4 2.9-.8.3-.1.6-.3.9-.4-1 .3-1.9.5-2.9.8 4.7.6 2.9 5.1.4 7.3-2 1.8-6.4 3.7-5.1 7.2.9 2.4 2.2.4-.1 2.7-1.1.7-2.2 1.3-3.3 2-2.1.6-2.2 1.3-.3 2.1 1.5 2.5 3.6 1.5 1.1 4.6-1.2 1.6-2.7 2.6-4.5 3.6h.1c2.9-.7 5.5.2 7.5 2.5s1.4 4 1.8 6.7c-.9 1.1-.5 1.6 1 1.6.5.2 1 .3 1.4.5 1.9.7 2.7.3 2.6 2.2-.1 2.5-4.9 3.9-1 5.1 1.7.5 4.4-.3 6-.9 4.4-1.7 5.3-6 5.7-10.3.4-5.9-1.2-14.8 2.7-19.7 1.9-2.5 4.3-3.8 5.5-6.8 1-2.7 1.1-5.6.9-8.4-.2-5.1-1.4-10.3 0-15.3.7-2.3 1.7-4.4 3.6-6 2.1-1.7 5.1-1.8 6-4.7-1 .3-1.9.5-2.9.8-.7 10.8 16 4.8 21.2 5.8 3.5.6 5.3 4.5 8.9 4.2 1-.1 2.3-.5 3.3-.9 3.6-1.4 5.6-5.3 9.2-6.8 4.8-2.1 10.9-.6 16-1.5 4.5-.9 9.1-2.2 11.8-6.3-.4.6-2.5.1-2.9.8-4.9 7.6-14.9 4.4-22.5 6.2-1.3.3-2.6.6-3.8 1.1-4.4 1.6-6.7 6.1-11 7.5.9-.3 1.9-.5 2.8-.8-3.2.1-4.6-2.9-7.4-3.9-3.3-1.2-7.1-.1-10.4.4-4.7.7-12.7-.1-12.2-6.5 0 .4-2.8.4-2.9.8-.9 3-4.3 3.1-6.5 5-2.1 1.9-3.1 4.7-3.6 7.4-1.1 6.6 1.4 13.3 0 19.9-.8 3.8-3 5.6-5.5 8.2-2.7 2.9-2.6 6.4-2.7 10.2-.3 5.7 1.3 18.2-6.2 20.3.7-.2 1.5-.4 2.2-.6-1.7.1-4.1-.1-3.8-1.7.2-1.2 3.7-2.9 2.7-4.7-.7-1.3-5-.7-5.7-2 0 0 .6-2.5.6-2.9 0-.8-.2-1.6-.5-2.3-.6-1.7-1.9-3.2-3.4-4.2-.9-.6-4.3-.8-4.5-1.2-.2-.3 2.9-2.8 3.3-3.3.4-.5 1.6-1.8 1.5-2.5-.1-.9-3-1.8-3.3-2.7-.9-.4-.9-.8.2-1 .6-.3 1.1-.7 1.7-1 .8-.5 2.9-1.3 3.3-2 1-1.8-.2 0-.5-1.7-.1-.7-.4-1.2-.3-1.9.3-4.4 6.8-4.9 7.7-9.1 1.1-5-4.1-3.9-6.8-2.8 1-.3 1.9-.5 2.9-.8 1.7-1.3 2.9-3 3.1-5.2.1-.9-.6-2.4-.4-3.1.3-1.2 1.3-1.3 2.7-2.1 1.7-.9 5.6-2.6 5.1-4.1-.5-2-4.9-4-6.5-4.7-1 .3-1.9.5-2.9.8 4 .4 7.9.9 11.9 1.3.4 0 2.7-1 2.9-.8-1.2-1.6-2.5-3.2-4-4.6-1-.9-4.9-3.1-5-4.2 0-1.2 2-1.6 2.9-2.4 1.5-1.4 2.1-2.6 1.1-4.5-1 .3-1.9.5-2.9.8 2.9.7 6.1.8 8.9-.4 1.9-.9 3.6-2.9 2.4-5.1-.9-1.6-5.6-3-2.9-5.3-1 .3-1.9.5-2.9.8 15.1 5.2 27 17.6 42.7 21.3 12.5 2.9 25.2-2 36.6-6.7-.8.4-1.9.4-2.8.8z"/></g></g><g id="XMLID_65_"><g id="XMLID_345_"><path id="XMLID_349_" class="st1" d="M33.2 206.4c2.8-8.6 10.3-13.8 17.7-18.3 9.4-5.6 19-10.7 28.7-15.5-.9.4-2 .3-2.9.8-9.7 4.9-19.4 10-28.7 15.5-7.5 4.4-14.9 9.6-17.7 18.3.2-.6 2.7-.3 2.9-.8z"/></g></g><g id="XMLID_64_"><g id="XMLID_339_"><path id="XMLID_343_" class="st1" d="M74.4 180.1c3.5-5.3 10-6.9 16-8.1 5.6-1.2 11.3-1.9 17-2.2 1-.1 1.9-.7 2.9-.8-7.7.5-15.3 1.7-22.7 3.6-5.9 1.5-12.5 2.9-16 8.3.3-.6 2.4-.2 2.8-.8z"/></g></g><g id="XMLID_63_"><g id="XMLID_333_"><path id="XMLID_337_" class="st1" d="M115.6 158.4c29.7 2.1 57.4-9.3 85.2-18-.7.2-1.9.5-2.8.7-26 8.1-51.8 18.4-79.5 16.5-1-.1-2 .9-2.9.8z"/></g></g><g id="XMLID_62_"><g id="XMLID_326_"><path id="XMLID_331_" class="st1" d="M116.4 160v-5c-.1 0-.1 5 0 5z"/></g></g><g id="XMLID_35_"><g id="XMLID_320_"><path id="XMLID_324_" class="st1" d="M110.6 140.2c-4 3.3-3.6 12.6-.3 16.3 4.3 4.8 12.2 4.1 17.9 3.5 6.9-.7 13.6-2.3 20.3-4.2 13.4-3.7 26.4-8.2 40.2-10.3 6.8-1 11.5-3.1 16.8-7.5 4.2-3.4 9.7-6.7 14.8-3.1v-5c-7.5-1.9-13-7.3-15-14.8v5c2-.3 4-.5 6-.8.2 0-.2-5 0-5-2 .3-4 .5-6 .8-.1 0-.1 4.6 0 5 2 7.5 7.5 12.9 15 14.8-.5-.1.5-4.6 0-5-8.5-6-16 5.9-23.1 8.7-5.2 2-11 2.1-16.4 3.2-5.6 1.1-11.1 2.7-16.6 4.3-10.7 3.2-21.3 6.7-32.3 8.3-8.2 1.2-22.2 2.7-23.8-8.5v3.8c.3-2.1 1-3.4 2.6-4.8.7-.4-.9-4-.1-4.7z"/></g></g><g id="XMLID_34_"><g id="XMLID_314_"><path id="XMLID_318_" class="st1" d="M107.3 175.9c6.6-5.6 15.1-6.8 23.3-8.4 9.3-1.8 18.5-3.7 27.8-5.9 9.2-2.1 18.4-4.5 27.4-7.3 4.6-1.4 19.9-9.2 21.2-.3v-5c-.9 6.1-8.2 8.3-13.2 9.6-6.9 1.7-13.2 1.1-20.1.8-4.4-.2-6.3 1.5-6.4 5.6 0 2.3-.6 6 2.5 6.3v-5c-4.5 2.7-9.5 5.2-13.7 8.4-2 1.6-2 2.8-2 5.1 0 1.5-.2 3.1.8 4.3 2.4 2.9 8.8-.2 9.1 4.8V184c-.3 1-.4 1.3-1.5 1.6-.5.2.4 4.9 0 5 2.1-.7 1.7-4.6 1.5-6.4-.6-5.8-9-1.3-9.9-6.9v5c1-2.8 4.2-4 6.7-5.5 3-1.8 6-3.6 9-5.5.3-.2-.1-5 0-5-1.8-.2-2.4-1.2-2.5-3.1v4.9c1.1-6.3 11.8-3 16.1-3.1 6.5-.2 15.3-1.4 20.5-5.8 3-2.6 3.3-5.4 3.1-9-.2-5.7-5-6-9.8-4.6-15.7 4.7-31.2 9.3-47.2 12.8-8 1.7-15.9 3.3-23.9 4.9-6.8 1.3-13.5 2.9-18.8 7.5-.9.8.8 4.4 0 5.1z"/></g></g><g id="XMLID_851_"><g id="XMLID_301_"><path id="XMLID_305_" class="st1" d="M255.6 117.4c15.8-1.8 30-12.8 41.4-23.2 11.6-10.6 21.1-23.2 28.5-37v-4.9c-.4 6.2-1.7 16.3 5.9 18.5v-5c-21.8 18.6-37.9 43.4-62 59.3-.8.5.7 4.5 0 5 24.1-16 40.2-40.7 62-59.3.3-.2 0-5 0-5-3.9-1.1-6.1-4.9-5.9-8.6.1-1.2-.6-3.9 0-4.9-7.3 13.9-16.9 26.4-28.5 37-11.4 10.4-25.6 21.5-41.4 23.2-.3-.1.1 4.9 0 4.9z"/></g></g><g id="XMLID_858_"><g id="XMLID_296_"><path id="XMLID_300_" class="st1" d="M252.7 117.6c-.6.2-.4.2.5 0h1.7c1.2.1 2.3.4 3.4.8s2.1 1 3 1.7c1.4 1.1 1.4 1.1-.1 2-1 .6-2.6.8-1.7 1.9.7.8 2.3.7 3.2.9 1.6.4 4.3 2.4 1.8 3.7.9-.5 2-.3 2.9-.8 1.3-.7 1.2-2.1.1-2.9-1.2-1-3-.6-4.4-1.2-3-1.3 1.1-1.6 1.8-2.8.7-.2.6-.5-.2-.9-.2-.2-.4-.4-.7-.6-.7-.5-1.4-1-2.2-1.3-4-1.9-8.2-1-12.2.3 1-.3 2.3-.5 3.1-.8z"/></g></g><g id="XMLID_746_"><g id="XMLID_290_"><path id="XMLID_294_" class="st1" d="M111 166.8c.6 1.1.1 2.6-1.1 3.1.9-.4 2-.4 2.9-.8 1.2-.5 1.7-2 1.1-3.1 0-.1-1.3.3-1.5.4-.1 0-1.4.4-1.4.4z"/></g></g><g id="XMLID_33_"><g id="XMLID_284_"><path id="XMLID_288_" class="st1" d="M108 172.9c-3.7 8.9-6.7 17.5-7.7 27.1-.7 7.7-.9 16-4.5 23-3.9 7.6-12 12-17.1 18.8-5.3 7-8.9 15.1-12.5 23.1.3-.6 2.6-.2 2.9-.8 3.6-8 7.3-16.1 12.5-23.1 5.1-6.8 13.1-11.2 17.1-18.8 3.7-7.1 3.8-15.3 4.5-23 .9-9.6 3.9-18.2 7.7-27.1-.2.6-2.6.2-2.9.8z"/></g></g><g id="XMLID_32_"><g id="XMLID_278_"><path id="XMLID_282_" class="st1" d="M100.7 189.2c-3.7 13.3-11.2 25-21.9 33.7.7-.6 2.2-.2 2.9-.8 10.7-8.8 18.2-20.4 21.9-33.7-.2.5-2.8.3-2.9.8z"/></g></g><g id="XMLID_865_"><g id="XMLID_271_"><path id="XMLID_275_" class="st1" d="M106.6 176.7c.9 5.9 6.7 11.8 10.6 16 4.5 4.8 9.9 8.3 16.4 9.2.9.1 2-.9 2.9-.8-6.6-1-11.9-4.5-16.4-9.2-3.9-4.1-9.7-10.2-10.6-16 0 .1-2.9.6-2.9.8z"/></g></g><g id="XMLID_872_"><g id="XMLID_265_"><path id="XMLID_269_" class="st1" d="M208.2 155.1c-12.9 14.5-17.5 34.7-12.2 53.4l2.9-.8c-5.3-18.6-.7-38.9 12.2-53.4-.6.7-2.3.2-2.9.8z"/></g></g><g id="XMLID_879_"><g id="XMLID_259_"><path id="XMLID_263_" class="st1" d="M208.4 158.6c2.3 7.7 8.2 13.6 15.8 16 .8.2 2.1-1 2.9-.8-7.7-2.3-13.6-8.3-15.8-16l-2.9.8z"/></g></g><g id="XMLID_886_"><g id="XMLID_253_"><path id="XMLID_257_" class="st1" d="M201.6 170.4c4.3 4.2 8.9 8.2 13.8 11.8.5.4 2.4-1.1 2.9-.8-4.9-3.6-9.5-7.5-13.8-11.8-.3-.3-2.5 1.2-2.9.8z"/></g></g><g id="XMLID_914_"><g id="XMLID_247_"><path id="XMLID_251_" class="st1" d="M188.2 193.4c-5.1 10.6-12.3 19.7-21.4 27.1.7-.6 2.2-.2 2.9-.8 9.1-7.4 16.3-16.5 21.4-27.1-.2.6-2.6.2-2.9.8z"/></g></g><g id="XMLID_921_"><g id="XMLID_234_"><path id="XMLID_242_" class="st1" d="M195.1 206.6c-1.6 10.3 3 22.9-5.3 31.2.6-.6 2.3-.2 2.9-.8 8.3-8.3 3.8-20.9 5.3-31.2 0 .4-2.8.4-2.9.8z"/></g></g><g id="XMLID_928_"><g id="XMLID_228_"><path id="XMLID_232_" class="st1" d="M213.9 140.9c1.4-.8 2.5-1.4 4-1.9-.9.3-1.9.5-2.8.8 4.1-1 7.8-.6 11.4 1.5 2.9 1.6 5.3 3.7 8.8 4.1.9.1 2-.9 2.9-.8-4-.5-6.5-3.2-10-4.8-2.8-1.3-5.8-1.7-8.8-1.1-2.9.5-5.9 1.5-8.4 3 .9-.5 2.1-.2 2.9-.8z"/></g></g><g id="XMLID_935_"><g id="XMLID_222_"><path id="XMLID_226_" class="st1" d="M223 133c10.3-5.5 21.3-7.4 32.9-6 .9.1 2-.9 2.9-.8-13.2-1.5-26.9 1.3-38.7 7.6.9-.5 2.1-.3 2.9-.8z"/></g></g><g id="XMLID_942_"><g id="XMLID_216_"><path id="XMLID_220_" class="st1" d="M117.8 163.1c-5.7-1.2-10-6.3-14.5-9.7-5-3.7-10.4-8.1-16.4-10-5.7-1.8-10.9-2.8-15.8-6.4-4.4-3.2-7.8-7.4-10.3-12.2-.1-.2-2.8.9-2.9.8 2.5 4.8 5.9 9 10.3 12.2 4.9 3.6 10.1 4.7 15.8 6.4 6.1 1.8 11.4 6.3 16.4 10 4.5 3.4 8.8 8.5 14.5 9.7.9.2 2-.9 2.9-.8z"/></g></g><g id="XMLID_949_"><g id="XMLID_210_"><path id="XMLID_214_" class="st1" d="M89.1 149.1c.4-2-14-1.4-15.9-1.3-6.8.3-13.6 1.1-20.4 2.2-1 .2-1.9.6-2.9.8 6.7-1.2 13.5-2 20.4-2.2 1.9-.1 16.4-.7 15.9 1.3.1-.4 2.8-.3 2.9-.8z"/></g></g><g id="XMLID_956_"><g id="XMLID_140_"><path id="XMLID_208_" class="st1" d="M106.6 151.5c-2.1-8.9-2.5-17.8-1.1-26.8-.1.4-2.8.4-2.9.8-1.4 9-1 17.9 1.1 26.8 0 0 2.9-.7 2.9-.8z"/></g></g><g id="XMLID_963_"><g id="XMLID_143_"><g id="XMLID_144_"><path id="XMLID_206_" class="st2" d="M79.8 188.3c-4 4.9-7.9 9.7-11.9 14.6-.7.8-1.3 1.7-2 2.5.1-.2-.9 1.2-.6.9 2.7-3.2 5.6-6.3 8.2-9.6 2.7-3.5 5.4-7.1 8-10.6.2-.3.4-.5.1-.2-.7.7-1.2 1.6-1.8 2.4z"/><path id="XMLID_205_" class="st2" d="M88.1 186c-4.2 6.1-8.6 12-13.3 17.7-4.6 5.7-9.5 11.2-14.7 16.5-.4.4 2.5 3.7 2.4 3.8 5.2-5.3 10-10.7 14.7-16.5 4.7-5.7 9.1-11.6 13.3-17.7.1-.2-1.1-1.9-1.2-1.9.1.1-1.2-1.8-1.2-1.9z"/><path id="XMLID_204_" class="st2" d="M98.2 182.7c-4.9 5.5-9.5 11.2-13.8 17.2-5.7 6.2-10.7 12.9-15 20.2.1-.2-.9 1.3-.5 1 7-4.7 13-10.5 17.9-17.3 4.3-5.1 8-10.6 11-16.5.3-.5.3-1.7.3-2.2 0-.4-.1-2.2.1-2.4z"/><path id="XMLID_189_" class="st2" d="M96.9 190.1c-3.3 4.4-6.7 8.7-10.4 12.9-3.5 4.2-7.2 8.3-11 12.2-.2.3.2 2.1.2 2.3l.4 2.2c3.8-3.9 7.5-8 11-12.2 3.6-4.1 7.1-8.4 10.4-12.9.3-.4-.1-1.9-.1-2.3-.1.1-.5-2.2-.5-2.2z"/><path id="XMLID_174_" class="st2" d="M91.9 178c-4.2 6-8.5 11.8-13.2 17.5-4.6 5.7-9.5 11.2-14.7 16.4.1-.1 2.2-.1 2.3-.1.4 0 1.9 0 2.2-.3 5.2-5.2 10.1-10.7 14.7-16.4 4.6-5.7 9-11.5 13.2-17.5-.1.1-2.2.1-2.3.1-.1 0-2 0-2.2.3z"/><path id="XMLID_159_" class="st2" d="M97.3 196.6c-6.7 8.7-13.8 17.1-21.3 25-1 1.1-1.4 2.7-2.4 3.8 5.1-5.3 10-10.8 14.7-16.6 2.3-2.8 4.6-5.7 6.8-8.6.7-.8 1.2-1.8 1.8-2.7-.2.4.7-1.2.4-.9z"/></g></g></g><g id="XMLID_970_"><g id="XMLID_190_"><g id="XMLID_191_"><path id="XMLID_203_" class="st2" d="M111.8 217.4c1.6 2.6 3.4 5.1 5.6 7.3 2.1 2.2 4.5 4.2 7 5.9.3.2 2-.6 2.2-.6l2.1-.9c-2.5-1.7-4.9-3.7-7-5.9-2.1-2.2-4-4.7-5.6-7.3-.2-.4-4.1 1.8-4.3 1.5z"/><path id="XMLID_202_" class="st2" d="M106.6 201.3c1.4 1.9 2.9 3.6 4.7 5.2 1.6 1.7 3.4 3.1 5.4 4.4.2.2 2-.8 2.1-.8 0 0 2-1 2.1-.9-2-1.3-3.7-2.7-5.4-4.4-1.7-1.6-3.3-3.3-4.7-5.2-.3-.4-3.9 2-4.2 1.7z"/><path id="XMLID_201_" class="st2" d="M114 198.8c1.4 1.9 2.9 3.6 4.6 5.2 1.6 1.7 3.4 3.2 5.3 4.4.5.4 1.6.5 2.2.7.4.1 1.8.3 2.2.5-2-1.3-3.7-2.7-5.3-4.4-1.7-1.6-3.3-3.3-4.6-5.2-.3-.3-1.8-.6-2.2-.7-.2 0-1.9-.2-2.2-.5z"/><path id="XMLID_200_" class="st2" d="M104.6 214.8c2.2 2.2 4.5 4.2 7.1 6-.1 0 .4-2.2.4-2.2 0-.1.4-2.1.3-2.3-2.6-1.8-4.9-3.8-7.1-6 .1.1-.3 2.2-.3 2.2-.1.1-.5 2.1-.4 2.3z"/><path id="XMLID_199_" class="st2" d="M122.5 231.5c-1.5 0-2.9-1.1-4.4-1.1 1.5.1 3 1.1 4.4 1.1z"/><path id="XMLID_198_" class="st2" d="M103.5 216.2c1.4 1.9 3 3.6 4.7 5.1 1.6 1.6 3.4 3.1 5.4 4.4-.2-.2-.6-2-.7-2.2-.1-.4-.4-1.8-.8-2.1-1.9-1.3-3.7-2.8-5.4-4.4-1.8-1.5-3.3-3.2-4.7-5.1.3.4.6 1.7.7 2.1.2.6.4 1.8.8 2.2z"/><path id="XMLID_197_" class="st2" d="M98.7 195.3c1.3 4.7 2.8 9.1 5.1 13.4 1 1.9 2.2 3.7 3.3 5.5 3.7 5.8 9.6 10 15.3 13.6.5.3-.5-1.3-.4-1.1-.4-.7-1-2.2-1.8-2.7-2.6-1.5-5.1-3.3-7.5-5.3-6.2-5.5-10.1-12-11.8-19.6-.2-.7-.8-1.4-1.1-2-.1-.4-1-1.3-1.1-1.8z"/><path id="XMLID_196_" class="st2" d="M108.4 196.4c.6 1 1.1 1.9 1.7 2.9-.5-.9-1-1.9-1.5-2.8-.1 3.3.7 6.4 2.5 9.1.8 1.3 1.7 2.6 2.6 3.9 1.8 2.6 3.8 5 6.1 7.1 3.8 2.2 7.1 4.9 10 8.3l.5-2.2s.4-2.2.2-2.3c-1.9-.4-3.7-.8-5.6-1.3 1 .3 2 .6 3.1.9-1.7-2.1-3.5-4.1-5.6-5.8-1.7-1.4-3.1-3-4.4-4.8-3.4-4.1-6.2-8.4-9.1-12.8.6 1.2 1.3 2.3 1.9 3.5-.6-2.7-1.2-5.5-1.8-8.2 0-.1-.1-.2-.1 0-.1.5-.2 1.1-.2 1.6-.2.8-.7 2.3-.3 2.9z"/><path id="XMLID_195_" class="st2" d="M114.1 194.9c.8 3 1.6 5.9 2.9 8.6 1.7 3.5 3.9 6.7 6.4 9.7 1.9 2.4 4.1 4.5 6.5 6.4 3 2.3 1.7 1.3 6.1 3.8 0 0-.2-2.3-.1-2.3 0-.3-.1-2-.5-2.2-4.2-2-7.9-4.8-10.9-8.2-1.5-1.7-2.9-3.6-4.2-5.5-1.4-1.9-2.7-3.8-3.7-6-1.4-2.8-2.4-5.8-3.1-8.9.4 1.6.2 3.2.6 4.6z"/><path id="XMLID_194_" class="st2" d="M97.5 194.2c.9 2.9 2.1 5.6 3.7 8.2 1.2 2 2.5 3.9 4.1 5.6 3.6 4.2 7.7 7.3 12.4 10.1.2.1 2.6-3.7 2.8-3.6-4.8-2.8-8.8-5.9-12.4-10.1-1.6-1.7-2.9-3.6-4.1-5.6-1.6-2.6-2.8-5.3-3.7-8.2.1.1-1.4 1.8-1.4 1.8 0 .1-1.4 1.6-1.4 1.8z"/><path id="XMLID_193_" class="st2" d="M102.5 187.2c.8 3 1.6 6 2.9 8.8 1.6 3.4 3.8 6.5 6.2 9.5 1.5 1.8 3.1 3.6 4.9 5.2 2.4 2.1 4.9 3.5 7.7 5 .7.4 2.5-.1 3.2-.2-.1 0 1.6-.1 1.1-.4-4.1-2.1-7.7-4.8-10.9-8.2-1.6-1.7-3-3.5-4.3-5.5-1.4-1.8-2.5-3.7-3.4-5.8-1.3-2.8-2.3-5.7-2.9-8.8-.1-.3-4.5.6-4.5.4z"/><path id="XMLID_192_" class="st2" d="M112.8 204.9c2.1 5.2 4.6 9.8 8.2 14.1 1.4 1.8 3 3.4 4.7 4.9 2.4 2 5 3.8 7.8 5.3.2.1 2.5-3.8 2.4-3.8-2.8-1.5-5.4-3.2-7.8-5.3-1.8-1.5-3.3-3.1-4.7-4.9-3.6-4.3-6-8.9-8.2-14.1 0 .1-1.3 1.9-1.3 1.9 0 .1-1.2 1.7-1.1 1.9z"/></g></g></g><g id="XMLID_977_"><g id="XMLID_175_"><g id="XMLID_176_"><path id="XMLID_188_" class="st2" d="M179 170.2c-2.5 3-5.1 6-7.6 9-2.4 3.1-5.1 6-8.2 8.6-.5.5 1.5-.1 1.2 0 .9-.3 2.2-.7 2.9-1.4 3-2.6 5.7-5.5 8.2-8.6 2.5-3 5-6.1 7.5-9.1.4-.5-1.4.2-1.1.1-.8.3-2.3.7-2.9 1.4z"/><path id="XMLID_187_" class="st2" d="M186.1 167.9c-2.4 3.1-4.9 6.1-7.5 9-2.5 3.1-5.2 6-8.2 8.6-.3.3 2.2 1 2.1.9.4.1 1.8.7 2.3.3 3-2.6 5.7-5.5 8.2-8.6 2.6-2.9 5.1-6 7.5-9 .2-.2-2.2-.9-2.1-.9-.3 0-2-.7-2.3-.3z"/><path id="XMLID_186_" class="st2" d="M174.6 175.6c-2.6 3-5.1 6.1-7.7 9.2-2.4 3.1-5.2 6-8.2 8.6-.6.5-.5 2.4-.6 3.1 0-.1-.2 1.6.3 1.1 3-2.6 5.7-5.5 8.2-8.6 2.6-3 5.1-6.1 7.6-9.2.5-.6.5-2.4.5-3.2.1.3.3-1.4-.1-1z"/><path id="XMLID_185_" class="st2" d="M180.3 189.4c-2.2 3.3-4.8 6.4-7.5 9.3-2.6 3-5.4 5.8-8.2 8.6-.2.2 2.2.8 2.1.8.4.1 1.9.7 2.3.3 2.8-2.8 5.6-5.6 8.2-8.6 2.8-2.9 5.3-6 7.5-9.3.1-.2-2.2-.8-2.2-.7-.1-.1-1.9-.7-2.2-.4z"/><path id="XMLID_184_" class="st2" d="M174.5 180.6c-2.5 3.1-5 6.2-7.6 9.2-2.5 3.1-5.2 5.9-8.2 8.6-.4.4.3 1.9.5 2.2 0-.1.8 2.3 1 2 3-2.6 5.7-5.5 8.2-8.6 2.6-3 5.2-6.1 7.6-9.2.3-.4-.4-1.9-.5-2.2 0 .1-.9-2.2-1-2z"/><path id="XMLID_183_" class="st2" d="M186.5 189.4c-2.9 4.5-6.3 8.5-10.1 12.2-3.7 3.9-7.5 7.7-11.4 11.4.3-.3 1.7-.6 2.1-.7.5-.2 1.7-.4 2.1-.8 4-3.5 7.7-7.1 11.3-11 3.9-3.6 7.3-7.7 10.1-12.2.4-.5-1.3.1-1.2 0-.6.2-2.4.5-2.9 1.1z"/><path id="XMLID_182_" class="st2" d="M183.1 174.1c-1.4 3.1-2.9 6.2-4.3 9.2.9-1 1.7-2 2.6-3-4.6 4.3-9 8.8-13.3 13.5-3.5 3.8-7.4 7.3-11.6 10.3-.5.4 2.6 3.8 2.7 3.6 4.2-5.1 8.5-10.1 13.1-14.8 3.6-3.9 6.8-8.1 9.5-12.7-1 1.1-1.9 2.1-2.9 3.2 2.2-1.8 4.4-3.7 6.6-5.5.2-.2-1.1-2-1.1-2 0 .1-1.3-1.8-1.3-1.8z"/><path id="XMLID_181_" class="st2" d="M193.2 170.9c-3.3 3.4-6.2 7.2-8.7 11.3-2.2 3.8-4.8 7.2-8 10.2.4-.4.8-.8 1.2-1.1-3.1 2.5-6.1 5.1-9.2 7.6-.9.7-.4 1.6 0 2.5.2.5 1 2.3 1.9 1.6 2.4-1.9 15-9.9 17.8-15.8.5-1.2.9-2.3 1.4-3.5.9-2.9 2-5.8 3.3-8.5.4-.9.3-2.2.4-3.2 0 .2.3-1.5-.1-1.1z"/><path id="XMLID_180_" class="st2" d="M197.8 169.4c-1.7 2.2-3.4 4.3-5.1 6.5-1.9 3.1-4.1 5.9-6.5 8.6-4.4 5.1-9.3 9.9-14 14.8-.4.4-.3 1.8-.3 2.2v2.3c7.3-5.8 8.9-6.5 14.6-13l5.1-6c2.4-3.6 4.7-7.2 6.9-10.9.3-.4-.1-1.9-.2-2.3-.1 0-.6-2.2-.5-2.2z"/><path id="XMLID_179_" class="st2" d="M181.1 168.4c-4.3 5.4-8.7 10.5-13.4 15.5-3.2 3.9-6.8 7.4-10.7 10.6-.8.7-1.4 1.7-2 2.5.2-.2-.9 1.3-.6 1 4.2-3.4 8.4-6.8 12.1-10.8 2.8-3.1 5.4-6.5 8.1-9.7 3.5-4.2 5.7-7.5 8.9-12.3-.6 1.1-1.6 2.2-2.4 3.2z"/><path id="XMLID_178_" class="st2" d="M186.8 166.2c-1.3 1.6-2.5 3.2-3.8 4.7-2.3 1.9-4.5 4-6.6 6.2l-5.1 5.1c-4.2 3.9-7.8 8.5-10.7 13.6-.3.5 1.2.1 1.1.1.8-.1 2.5-.2 3.1-.8 5.2-5 10.3-9.9 15.2-15.2 2.3-2.5 4.6-4.9 6.9-7.3 1.5-2.2 2.9-4.5 4.3-6.7l-2.3.1c-.2-.1-1.8-.2-2.1.2z"/><path id="XMLID_177_" class="st2" d="M198.1 175.6c-4.4 6.4-9.5 12.3-15.2 17.5-4.9 4.8-9.3 9.9-13.3 15.4.2-.2-.5.7-.1.4 5.7-2.9 10.5-6.7 14.5-11.6 4.6-5.7 8.6-11.9 12.1-18.4.6-.9 1.2-1.8 1.7-2.7 0 0 .5-.9.3-.6z"/></g></g></g><g id="XMLID_984_"><g id="XMLID_160_"><g id="XMLID_161_"><path id="XMLID_173_" class="st2" d="M207.5 132.3c.3-.3.6-.5 1-.5 5.1-.9 10.3-1.6 15.5-2.1.9-.1.9-4.5.6-4.5-5.2.5-10.4 1.2-15.5 2.1-.4 0-.7.2-1 .5-.2.2-.3 2.1-.3 2.2 0 .1-.1 2.1-.3 2.3z"/><path id="XMLID_172_" class="st2" d="M217.6 141.8c3.5-3.6 21.7-1.4 16.8-1.2.6 0 .6-.2.1-.5-.8-.5-2.6-.9-3.5-.9 6.2-.3-14.2-2.3-17.8 1.6.1-.1 2.2.5 2.2.5s2 .6 2.2.5z"/><path id="XMLID_171_" class="st2" d="M223.9 140.5c-.3.1-.5-.1-.7-.4-.3-.5-.1-.7.3-1.2-.1.1-.3.1-.4.2l.6-.3c-1.3.4-2.6.9-3.8 1.3 11.2.3 22.4-.6 33.4-2.6.8-.1 1.7-.6 2.5-.9.5-.2 1.1-.6 1.6-.6-11 1.5-22.1 2.4-33.3 2.6-.2 0-.3 0-.5.1-1.1.4-2.3.8-3.4 1.2-.5.2-1.4.4-1.5 1-.1.5.4 1.1.9 1 1.5-.2 2.9-1.2 4.3-1.4z"/><path id="XMLID_170_" class="st2" d="M211.7 133.4h-.2l2.1 3.3c0-.1-.1-.2-.1-.3 0 .2.1.3.1.5.1-.6.5-.6.9-.9 2.1-.5 4.3-.6 6.6-.3 9-.1 18-1.3 26.8-3.6.2 0-1.3-2-1.2-1.9-.1-.2-1.1-1.8-1.5-1.7-8.4 1.4-16.9 2.4-25.4 3-2.7-.1-5.4.1-8 .8-.4.2-.6.5-.6.9 0 .5.8 1.5 1 1.9.4.7.8 1.3 1.3 1.9.1.2.2.3.4.3.1 0 .1-.1.2-.1.4-.2-2.2-4-2.4-3.8z"/><path id="XMLID_169_" class="st2" d="M216 121.7c0-.3.2-.4.5-.4-1.4.6-2.7 1.1-4.1 1.7 3-.2 6-.8 8.9-1.6 8-1.7 16-2.8 24.1-3.5 1.4-.2 2.7-1.6 4.2-1.8-8.4.3-16.6 1.4-24.7 3.4-2.7.9-5.5 1.5-8.4 1.7-.4.1-.8.3-1.1.4-.9.4-1.8.7-2.6 1.1-.4.2-.9.3-1 .7.1-.2 2-.8 2.1-.9.1 0 2-.6 2.1-.8z"/><path id="XMLID_168_" class="st2" d="M222 130.1s.1 0 0 0c-.4 1.4-.9 2.8-1.3 4.2 21.4-2.7 15-1.6 35.6-5.7.7-.1-1.2-.7-1-.6-.8-.3-2.2-.9-3.1-.7-30.6 5.4-19.6 1.1-30.1 2.4-.9.1-1.7 3.4-1.6 4.1.2.6.6.9 1.2.7.6-.3.5-2.4.5-2.8 0-.3.2-1.1.1-1.4 0 0-.2-.6-.3-.2z"/><path id="XMLID_167_" class="st2" d="M222.9 122.3c-.1-.5.4-.4.7-.5 2.9-.2 5.8-.7 8.7-1.6 8.2-1.7 16.5-2.9 24.9-3.6-.5.1-1.7-.5-2.2-.6-.5-.1-1.6-.7-2.2-.6-11.4 1.2-22.5 2.1-33.6 5.2-.3.1-.8.1-.7.5 0 .2 2.1.6 2.2.6 0 0 2.1.5 2.2.6z"/><path id="XMLID_166_" class="st2" d="M226.5 128.5c-.4.2-.8.2-1.1-.3.2 1.5.3 2.9.5 4.4.2-.4.5-.5.9-.5 11.4-1.3 22.8-2.6 34.2-4 .4-.1-.2-4.5-.6-4.5-11.4 1.4-22.7 2.8-34.1 4-.4 0-.7.2-.9.5-.3.3 0 1.3.1 1.7.1.8.1 1.9.4 2.6.2.5.7.9 1.2.6.7-.3-.8-4.4-.6-4.5z"/><path id="XMLID_165_" class="st2" d="M209.7 127.9c0 .1-.1.1-.1.2.9-1.2 1.8-2.3 2.7-3.5-.2 0-.3-.1-.2-.3-.9 1.2-1.8 2.3-2.7 3.5.4-.3.8-.5 1.3-.4 10.6-2 21.2-3.5 31.9-4.5.5-.1 1.3-1.5 1.5-1.7 0 0 1.2-1.9 1.3-1.9-10.8.8-21.4 2.3-31.9 4.5-.5-.1-1 .1-1.3.4-.5.3-.8.9-1.1 1.3-.2.2-2.3 2.6-1.5 2.7.4.1 2.5-3.2 2.7-3.5 0-.1.1-.1.1-.2.2-.4-.9 1-.7.8-.7.8-1.4 1.7-2 2.6z"/><path id="XMLID_164_" class="st2" d="M215.7 125c-.1.1-.1.2-.2.2 1.3-.1 2.6-.3 3.9-.4h-.3c.2 0 .3.1.5.1-.4-.3-.1-.9 0-1.4-1.4.7-2.7 1.3-4.1 2 .4.6.8.9 1.4.8 12-2.7 24-4.7 36.2-6 .6-.1.5-.2.2-.4-.6-.4-2.4-.2-3-.3-5.7-.4-11.5-.5-17.2-.4-6.4.7-12.5 2.6-18.1 5.6l-.1.1c0 1.1 4.6.4 5.1-.1.4-.4-1.2-.2-1.1-.2-.6 0-2.7-.1-3.2.4z"/><path id="XMLID_163_" class="st2" d="M227 134.6c-.6.2-.9-.2-1.1-.8-.7 1.2-1.4 2.3-2.1 3.5.1-.2.2-.3.4-.5l-.3.3c10.8-4.2 22.4-5.4 34.7-3.4.5 0 1.1-1.7 1.2-1.9 0 .1 1-2.1.8-2.1-12.2-1.8-23.6-.6-34.3 3.6-.1.1-.3.2-.3.3-.6.7-1.1 1.6-1.6 2.4-.2.4-.9 1.1-.8 1.5.1.6.5.9 1.1.8.5-.1 1.1-1.5 1.3-1.8-.1 0 .9-1.9 1-1.9z"/><path id="XMLID_162_" class="st2" d="M209.2 137c.2-.6.6-.7 1.1-.9 2.6-.6 5.2-.9 8-.8 8-.7 16.1-1.6 24.1-2.7-.3 0-1.1-4.3-1.5-4.3-5.5.6-11 1.3-16.5 1.9-5.3-.2-10.5.3-15.5 1.6-.5.2-.9.3-1.1.9-.1.3.6 1.9.7 2.1.1.3.9 1.9.7 2.2z"/></g></g></g><g id="XMLID_991_"><g id="XMLID_145_"><g id="XMLID_146_"><path id="XMLID_158_" class="st2" d="M75.5 147c.8 4.9 1.8 9.2 4.2 13.5 2.2 3.9 5 6.9 8.4 9.7.5.4 1.7.5 2.2.6.3.1 1.9.2 2.2.5-3.4-2.9-6.2-5.8-8.4-9.7-2.4-4.3-3.4-8.7-4.2-13.5 0-.1-2.2-.6-2.2-.6s-2.2-.4-2.2-.5z"/><path id="XMLID_157_" class="st2" d="M82.2 132.6c-.9 8.4-1.1 16.8 2.2 24.8 1.2 2.8 2.7 5.7 4.7 8 2.5 2.9 5.2 5 8.5 7 .3.2 2-.6 2.2-.7 0 0 2-.9 2.1-.8-3.2-2-6.1-4-8.5-7-1.9-2.5-3.5-5.1-4.7-8-3.3-8-3.1-16.4-2.2-24.8 0 .1-2.1.8-2.1.8-.1-.1-2.2.6-2.2.7z"/><path id="XMLID_156_" class="st2" d="M73.7 122.5c.4 6.6 1.3 12.7 4.5 18.5 1.2 2.2 2.6 4.2 4.3 6.1 2.2 2.3 4.4 3.9 7.2 5.5.2.1 2-.8 2.1-.9.1 0 1.9-1 2.1-.9-2.1-1.2-4.1-2.4-5.9-4.1-2.3-2.1-4.1-4.7-5.6-7.4-1.2-2.2-2.2-4.5-2.9-6.9-1.1-3.8-1.4-7.6-1.7-11.6l-2.1.9c.1-.1-2 .7-2 .8z"/><path id="XMLID_155_" class="st2" d="M81.3 115c-.2 5-.3 10 1 14.9.8 3 1.9 5.9 3.4 8.7 1.5 2.7 3.3 5.3 5.6 7.4 2.3 2.2 3.2 2.6 6 4.1 1.3.7 3.1.5 4.4 1.3-1.1-.6-2.2-1.3-3.3-1.9-1.7-1.6-3.5-3.3-5.2-4.9-2-2.4-3.5-5.2-4.7-8.1-2.7-6.5-2.9-13.2-2.7-20.2-.2-.4-4.6-.9-4.5-1.3z"/><path id="XMLID_154_" class="st2" d="M68.7 132.4c.4 5.3.9 10.2 2.9 15.1 1.2 2.9 2.7 5.7 4.7 8.1 2.4 2.9 5.2 5 8.4 6.9-.1-.1.3-2.2.3-2.2s.4-2.2.3-2.2c-3.8-2.3-6.9-4.8-9.5-8.4-4.7-6.6-6-13.3-6.6-21.7.3 1.4-.6 2.9-.5 4.4z"/><path id="XMLID_153_" class="st2" d="M69.2 128.2c0 5.1 0 10.2 1.2 15.1.5 2.2 1.3 4.5 2.1 6.6 1.2 3.2 2.6 6.1 4.6 8.9 2.7 3.7 5.7 6.2 9.6 8.6-.2-.2-.7-2-.7-2.1-.1-.3-.4-1.9-.8-2.1-2.2-1.1-4.1-2.5-5.7-4.4-1.9-1.5-3.5-3.4-4.8-5.5-1.2-3.7-2.5-7.4-3.7-11.1-.3-3.2-.4-6.5-.3-9.7 0-1.5-1.5-2.9-1.5-4.3z"/><path id="XMLID_152_" class="st2" d="M75.8 113.4c-1.3 6.5-2.8 13.3-2.6 20 .8 5.3 1.5 10.7 2.3 16 .5 2.3 1.4 4.4 2.7 6.3 1.4 2.3 3 4.4 4.9 6.3.9.9 1.9 1.7 2.9 2.5 2.9 2.2 6.1 3.5 9.7 3.8.5.1-.8-1.1-.6-.9-2.6-2.5-5.2-4.8-7.8-7.2-2.2-2-4.1-4.1-5.7-6.7-3-4.8-5.1-10.4-6.9-15.7.3 1.3.6 2.6.8 3.8.3-4.1.3-8.2.8-12.3.5-4.1 1.2-8.2 2-12.2.1-.4-.9-1.7-1.1-2-.1.1-1.4-1.6-1.4-1.7z"/><path id="XMLID_151_" class="st2" d="M85.9 110.2c-1.6 3.1-2.7 6.3-3.5 9.7-.2 1.6-.4 3.3-.5 4.9-.3 5.4.2 10.8 1.4 16.1 1 4.2 2.8 8.1 5.2 11.7 1.3 2.1 3 4 4.8 5.6 3.1 2.8 6.6 5 10.6 6.3.1.1.1.1 0-.1-1.3-2.2-2.9-4.2-4.8-5.9-3.7-3.6-7-7.6-9.9-12-1.3-2.7-2.2-5.3-2.8-8.3-1.8-9.1-.9-18.7-.5-27.9.1.3.1-.5 0-.1z"/><path id="XMLID_150_" class="st2" d="M90.6 108.6c-1.2 6.7-2.2 13.3-2.2 20.1 0 4.1.4 9 1.4 13 1.1 4.5 2.9 8.8 5.6 12.6 1.8 2.5 3.9 4.7 6.4 6.6 2.4 1.7 4.2 2.3 6.9 3.3.1 0-.2-2.3-.2-2.3 0-.2-.1-2.1-.4-2.2-2.4-.6-4.6-1.7-6.4-3.4-2.2-1.2-4-2.8-5.4-4.8-.7-1-1.4-2-2.2-3-2.7-4.3-4.3-9-4.8-14.1.1.9.2 1.9.3 2.8-.4-4.8-.3-9.6.2-14.4.3-3.2.8-6.5 1.5-9.6.1-.7-.2-1.6-.2-2.3-.2-.6-.6-1.8-.5-2.3z"/><path id="XMLID_149_" class="st2" d="M72.5 112.8c-.8 3.2-1.3 6.4-1.4 9.7 0 1.7-.1 3.3-.1 5 0 5.2 1 10.4 3 15.1 1.4 3.5 3.4 6.6 6 9.4 1.2 1.4 2.5 2.6 4.1 3.7 2 1.4 4.1 2.4 6.4 3.1.4.2 2.4-3.7 2.8-3.6-2.3-.7-4.5-1.7-6.4-3.1-.9-.8-1.9-1.5-2.8-2.3-3.2-2.9-5.6-6.8-7.2-10.8-1.7-4.1-2.5-8.3-2.8-12.7-.2-2.5-.3-4.9-.1-7.4.1-3.3.6-6.5 1.4-9.7-.1.4-1.2 1.5-1.4 1.8-.5.3-1.4 1.2-1.5 1.8z"/><path id="XMLID_148_" class="st2" d="M79.6 105.4c-2.3 11.7-4.1 23.8.9 35.2 1.1 2.5 2.4 4.8 4 7 1.5 2.1 3.2 3.9 5.2 5.5 2.1 1.7 4.6 2.9 7.3 3.3.8.3 1.8.1 2.7.1.3 0 1.6-.2 1.7-.1-3.6-2.5-7.6-5-10.7-8.1-3.8-3.9-6.7-9.6-7.9-15-2.1-9.5-.5-18.9 1.3-28.3 0 .3-4.4-.2-4.5.4z"/><path id="XMLID_147_" class="st2" d="M88.6 118.6c-1.7 10.3-3.6 21.2-.5 31.4 1.2 4.2 3.2 8.2 5.9 11.6 1.5 1.9 3.3 3.6 5.3 5.1 2.1 1.5 4.3 2.6 6.7 3.3.4.2 2.3-3.9 2.4-3.8-2.4-.7-4.6-1.8-6.7-3.3-.9-.8-1.9-1.6-2.8-2.3-3.2-2.9-5.5-6.8-7.2-10.8-4.6-11-2.7-23.6-.7-34.9-.1.5-1 1.5-1.2 1.9-.3.3-1.1 1.2-1.2 1.8z"/></g></g></g><g id="XMLID_998_"><g id="XMLID_92_"><g id="XMLID_131_"><path id="XMLID_137_" class="st2" d="M45 179c3.4-2.2 6.9-4 10.7-5.4.4-.2 1.2-1.5 1.4-1.8.2-.3 1-1.6 1.4-1.8-3.7 1.4-7.3 3.2-10.7 5.4-.5.2-1.1 1.4-1.4 1.8-.3.3-.9 1.5-1.4 1.8z"/><path id="XMLID_136_" class="st2" d="M44.9 190.5c-.7 1.8-1.4 3.7-2.1 5.5-.1.1-.1.2 0 0 1.5-1.6 2.9-3.2 4.4-4.8.9-.6 1.8-1.3 2.7-1.9.3 1.9.7 3.9 1 5.8 4.9-2.6 9.8-5.2 14.8-7.7 1.6-.9 5.5-4 8.1-2.6.1.1 2.4-3.8 2.4-3.8-.8-.4-1.4-.5-2.3-.3-.3.1-.5.2-.8.3-5 2.5-9.9 5.1-14.8 7.7-3.8 4-5.6 3.9-5.4-.3.3-3.6-.8-3.9-3.3-1l-2.3 2.3c-.8.9-.8-.2.1-3.1-.6 1.5-2 2.5-2.5 3.9z"/><path id="XMLID_135_" class="st2" d="M33.4 178.9c-1.4 4-2.8 8-4.2 12.1-.2.7 2.5 3.7 2.4 3.8 2.4-2.7 4.7-4.8 7.6-6.9-.8-1.2-1.6-2.5-2.4-3.7.3 1.9.6 3.9.8 5.8 0 .3 2.1 3.9 2.4 3.7l9.9-5.1c3.3-2.1 6.7-3.9 10.3-5.3 1-.3 1.6-.5 2.6.1-.8-1.2-1.6-2.5-2.4-3.7.1.2.2.4.2.6.3 1 1.1 1.9 1.6 2.7-.1-.2.8 1.3.7.9-.3-.9-.8-1.7-1.3-2.5-.3-.5-.7-1.4-1.2-1.8-.5-.4-.8-.5-1.4-.4-.6 0-1.1.2-1.7.5l-19.8 10.2c.8 1.2 1.6 2.5 2.4 3.7-.3-1.9-.6-3.9-.8-5.8 0-.3-2.2-3.8-2.4-3.7-2.9 2.1-5.2 4.2-7.6 6.9.8 1.3 1.6 2.6 2.4 3.8 1.4-4 2.8-8 4.2-12.1.1-.2-1.1-1.8-1.2-1.9 0-.1-1.2-1.7-1.1-1.9z"/><path id="XMLID_134_" class="st2" d="M40.5 185.1c.6-1.6 1.1-3.2 1.7-4.9.2-1.5.3-3 .5-4.5-1.1 3.9-2.1 7.9-3.2 11.8-.3.8-.3 1.8-.3 2.6 0 .3.1 1.6 0 1.7 1-1.3 2.1-2.6 3.3-3.7 1.7-2.3 3.3-1.5 4.8 2.5v.1l19.8-10.2c.4-.2.8-.3 1.2-.4 1-.2 1.7-.1 2.1 1-.1-.3.3-2 .3-2.2.1-.5.4-1.7.1-2.3-.4-1-1-1.1-2.1-1-.4 0-.8.2-1.2.4-6.1 5.3-13 6.8-20.7 4.6v-.1c-2.8 2.1-4.9 4.1-7.2 6.8-.1 1.5-.3 2.9-.4 4.4 2.4-7.1 1.7-4.5 3-11.7.2-.9.2-1.8.3-2.7.1-.5 0-1.2.2-1.7-.6 1.6-1.1 3.2-1.7 4.9-.5 1.4 0 3.2-.5 4.6z"/><path id="XMLID_133_" class="st2" d="M46.9 180.1c-.7 1.9-1.4 3.8-2.1 5.8-.2.6.1 1.7.2 2.3 0 0 .5 2.2.4 2.2.9-1.3 2-2.5 3.2-3.6 1.1-1.2 2.4-2.2 3.9-3.1 0-.2-.1-.3-.1-.5.3 1.9.7 3.8 1 5.8 0 .2.1.3.2.5 4.9-2.6 9.8-5.1 14.8-7.7 1.8-1.2 3.7-2.1 5.8-2.9 1-.3 2.1-.3 2.6.9-.6-1.3 0-3.1-.6-4.5-.3-.8-.7-1.1-1.7-1-.6 0-1.1.2-1.7.5-6.6 3.4-13.2 6.8-19.7 10.2.1.2.1.3.2.5-.4-1.9-.7-3.8-1.1-5.8 0-.2-.1-.3-.1-.5-1.4.9-2.7 1.9-3.9 3.1-1.2 1.1-2.3 2.3-3.2 3.6l.6 4.5c.7-1.9 1.4-3.8 2.1-5.8.2-.6-.1-1.7-.2-2.3-.3-.3-.8-1.9-.6-2.2z"/><path id="XMLID_132_" class="st2" d="M36.9 171.6c-1.1 3.6-2.3 7.2-3.6 10.7-.1.2 2.3 0 2.3 0 .5 0 1.8 0 2.2-.4 2.3-2.5 4.6-4.4 7.4-6.5-1.5.1-3 .3-4.5.4l.9 5.7c.1.3 4.2-.2 4.4-.3l9.9-5.1c10.6-3.5 13.6-5.2 9-5.1-1.4 0-.5-.1-.2.8.2.5 4.4-.6 4.5-.4-.6-1.6-3.1-1-4.4-.9-.8.1-1.6.1-2.3.3-.3.1-.7.2-1 .4l-19.8 10.2c1.5-.1 2.9-.2 4.4-.3l-.9-5.7c0-.3-4.1.1-4.5.4-2.8 2-5.1 4-7.4 6.5 1.5-.1 3-.3 4.5-.4 1.3-3.6 2.5-7.1 3.6-10.7 0 .1-2.3.2-2.3.2s-2.2 0-2.2.2z"/></g></g></g></g></svg>