<svg id="Layer_1" xmlns="http://www.w3.org/2000/svg" viewBox="-409 221 104.7 62"><style>.st0{fill:#fff}.st1{fill:#fefefe}</style><path class="st0" d="M-359.7 222.9c1.4.1 2.9.2 4.3.3.4-.2 1.2-.7 1.6-.9l.9 3.3 1.5-2.7c.1.7.4 2.2.6 2.9.9-.9 1.9-1.7 2.9-2.6 0 1-.1 2.9-.1 3.8l4.8-1.8c-.4 1-1.3 3.1-1.8 4.2.8 0 2.4-.1 3.2-.2-.5.4-1.4 1.2-1.9 1.6-4.7-3-10.6-6.5-16.3-3.8-3.6 1.4-5.3 5.1-6.2 8.5-1.2-1.2-2.3-2.4-3.4-3.6 2-1.7 3.6-3.7 4.3-6.2 1-.6 2-1.1 3.1-1.7.4.5 1.3 1.4 1.7 1.8.1-.7.6-2.1.8-2.9z"/><path class="st0" d="M-385.3 231.6c1.1.9 2.1 1.8 3.2 2.7.4-.2 1.3-.5 1.8-.7.5.9.9 1.9 1.4 2.8.5-.3 1.4-.9 1.9-1.2 0-.8.1-2.3.2-3 .3.6.8 1.7 1.1 2.2.7-1 1.4-1.9 2.1-2.9.2.4.5 1.3.7 1.7.4-.3 1.3-.8 1.7-1.1.2 1.3.3 2.7.5 4 .5-1.5.2-3.3 1.3-4.5 1.1 1.2 2.3 2.4 3.4 3.6-1.4.4-2.7.7-4.1 1.1.8 2.7 1.6 5.4 2.3 8.1-.5-.2-1.4-.5-1.8-.7.3.5 1 1.6 1.4 2.1l-1.9-.1c-1.2-1.7-2.2-3.6-3.2-5.4-2.5-.9-5.1-1.3-7.7-1.7-.1-1.1-.1-2.1-.2-3.2l-3 .6c-.2-1.1-.5-2.2-.7-3.4-.2 0-.3-.7-.4-1z"/><path class="st0" d="M-341.6 238.9c.3-1.3.6-2.6.9-4-.6-.1-1.8-.4-2.3-.5.7-.6 1.4-1.2 2.2-1.8-.7-.4-2.2-1.3-2.9-1.8-4.7-3.1-10.6-6.5-16.3-3.8-3.6 1.4-5.3 5.1-6.2 8.5l-.1.8c.4.4 1.2 1.2 1.7 1.6.5-1.3 1-2.6 1.6-3.9 0 3.5 0 7.2 1.6 10.5 2.2 1.8 4.8 3.2 7.2 4.8.1-1 .3-2.9.3-3.8.8 1.7 1.7 3.4 2.5 5.2 3.3-1.4 7.8-2.4 8.9-6.4.4.1 1.3.3 1.7.5-.6-2.3-2-4.2-3.6-5.8.7-.1 2.1-.1 2.8-.1zm-13.6 3.8c-2.9-.8-3.6-5.3-1.4-7.4 1.8-1.7 4.2-2.7 6.4-3.8 1.6 1.6 2.9 3.4 4.1 5.3-2.7 2.5-5.6 5.1-9.1 5.9zM-324.5 233.7c.7-1.3 1.7-2.5 3.4-2.3.8 2.1 1.1 4.2 1.4 6.4-4 .1-6.6 3-9 5.9-2-1-7.7-.2-5.9-3.9 1.3-.2 2.6-.3 4-.4-1.3-1.5-3.1-3.5-1.1-5.3 1.4.5 2.7 1.1 4.1 1.7-.1-.9-.2-2.8-.3-3.7 1.3.7 2.4 1.1 3.4 1.6zM-318 232.1c1.2.6 2.4 1.1 3.6 1.7-.4 1-1.3 3-1.7 4 1.7-.5 3.4-1 5.2-1.4.2 1.1.5 2.2.7 3.3-.8.3-2.2 1-3 1.3 1.5.7 2.9 1.4 4.4 2.1-.3.6-.8 1.8-1.1 2.4-1.4-.2-2.7-.3-4.1-.5.9 1.1 2 2.3 2.1 3.8-.9.1-2.6.3-3.5.4-.2 1-.5 2-.8 2.9-2.4.7-5.1-1.6-4-4.1.1-1.9 2.5-2.3 3-4-.2-2.1-1.4-3.9-2.4-5.6l2.8.4c-1-.8-1.9-1.8-2.6-2.8 0-1.4.9-2.6 1.4-3.9z"/><path class="st1" d="M-364.6 238c.5-1.3 1-2.6 1.6-3.9 0 3.6 0 7.2 1.6 10.5-2-1.7-3.4-4-3.2-6.6z"/><path class="st0" d="M-370.3 236.5c1.4-.4 2.7-.7 4.1-1.1l-.1.8c-.1 2.2-.1 4.4-.3 6.6-.4.5-1.1 1.3-1.5 1.8-.6-2.7-1.4-5.4-2.2-8.1z"/><path class="st0" d="M-366.3 236.4c.4.4 1.2 1.2 1.7 1.6-.2 2.7 1.3 5 3.2 6.6 2.2 1.8 4.8 3.2 7.2 4.8l1 .6c-.7.4-2 1.2-2.7 1.6.1 2.7.2 5.5-.4 8.2h-.7c-.3-3.4 1-7.3-1.9-9.9-1.3.3-2.6.7-3.8 1-.7-2.2-1.2-4.7-3.5-5.8-.1-.5-.2-1.5-.3-2 .1-2.3.1-4.5.2-6.7zM-366.3 246.3c-2.3 1.2-4.7 2.3-7.3 2.4 1.1-.9 2.2-1.8 3.3-2.8-1.2-1.7-2.1-3.6-3.2-5.4-.4 2.9-.9 6.6-4.2 7.7-2.2 0-3.7-1.4-5-3-.6-.7-1.1-1.5-1.6-2.2 1-1.3 2-2.7 3-4.1-.1-1.1-.2-2.1-.2-3.2l-3 .6c-.2-1.1-.5-2.2-.7-3.3-.4 1.9-.6 3.8-.7 5.7-.6.2-1.8.5-2.4.7-.2 2.1 1.7 3.5 2.8 5.1-1.3.4-2.6.7-3.9 1 .8 1.3 1.5 2.6 2.5 3.7 1 0 2-.1 3.1-.2-.1.5-.3 1.4-.4 1.8 2.9.3 6.1-.1 8.6 1.9-.1 3.2-.1 6.4.1 9.6.3-.4.8-1.1 1.1-1.5.4-3.2 0-6.4-.2-9.6.7 0 2.1-.1 2.8-.1 1.8-1.6 3.6-3.2 5.5-4.8zM-316.1 240.3c.5.5.5.5 0 0zM-333.9 245.8c2.2-2.4 5.5-2 8.5-2l-.8 1c1.5.8 3.1 1.6 4.2 2.9 1.6 3.7.5 8.2.6 12.2-.2-.1-.7-.2-.9-.2-.2-2.2-.1-4.4 0-6.5-.7-.2-2-.5-2.7-.7-.1-1.3-.3-2.5-.4-3.8-1.1 1.5-3 3.9-5.1 2.4l-.4-3.2c-.4.3-1.2 1-1.6 1.3-.3-1-1-2.6-1.4-3.4zM-335.2 244.1c-1.8-.5-3.5-1.1-5.3-1.6 0 .7-.1 2-.2 2.7-1.1.9-2.2 1.8-3.1 2.9.1 1.6.4 3.1.6 4.6 1.1.5 2.3.9 3.4 1.4-.2 2-.5 3.9-.8 5.9-.7.1-2 .2-2.6.2 1.1.5 2.1.9 3.2 1.3.1.3.2 1 .3 1.3 0-2.9.1-5.8.3-8.7 1.9-1 3.7-1.9 5.4-3.2-.4-2.3-.8-4.6-1.2-6.8zm-6.9 6.4c-.3-2.2 1.7-4 3.7-4.5 1.4.4 2 1.9 3 2.9-2 1.3-4.3 3.1-6.7 1.6z"/><path class="st0" d="M-386.2 253.3c2.2.3 6-.5 6.4 2.6.6 8.2-.6 16.5.6 24.7-1.8 0-3.7 0-5.5-.1-1.5-9 1-18.3-1.5-27.2zM-338 254.7c1.9.3 4 0 5.8 1 .8 1.5.8 3.2 1.2 4.8 1.7-.1 3.4-.2 5.2-.4-.1 1-.2 2.9-.2 3.8-1.8 0-3.5.1-5.3.1 0 1.9 0 3.9-.1 5.8-.5-.5-1.1-1-1.6-1.5-1.3.9-2.5 1.8-3.8 2.7-.2-5.4.5-11-1.2-16.3z"/><path class="st0" d="M-390.7 253.7c-5.2-2.6-11.3-1.9-16.9-1.6 1.8 8.9-.3 18.1.9 27.1 1.3 2.4 4.4 1.4 6.6 1.7-1.4-3.6-1.2-7.4-1.2-11.2 3.5 0 7.2.3 10.4-1.4 5.4-2.8 5.8-12 .2-14.6zm-2.8 11c-1.7 2-4.6 1.5-7 1.7 0-3.8.1-7.5.1-11.3 2.4.3 5.3-.2 7 1.9 1.7 2.1 1.7 5.6-.1 7.7zM-374.5 260.8c3.1-1.3 6.6-1.4 9.9-.8 2.4.4 4.4 2.3 4.7 4.8.5 4 0 8.1.2 12.1-.7-2-.9-4.2-2.3-5.8-2.7-1.9-6-2.6-9.2-3.3l-.6-.1c2.3-.1 4.6-.1 6.9 0-.7-1.5-.8-3.9-2.8-4.2-3.4-.9-6.5 1.1-9.3 2.8.4-1.4.4-2.9 1.3-4.1.4-.3.9-1 1.2-1.4zM-358.4 259.7H-356.3c1.9-.2 3.4 1 4.7 2.2 2.5-1.3 5.3-3 8.2-1.7 1.1.5 2.1.9 3.2 1.3-1.4 1.4-2.8 2.7-4.3 4.1-2-2.2-5.2-1.7-7.2.1-1.3.9-2.5 1.9-3.7 2.9l-1.8-5.1c-.4-1.3-.8-2.6-1.2-3.8z"/><path class="st0" d="M-340.3 261.6c.1.3.2 1 .3 1.3 1.6 5.9 0 12.1 1.1 18.1-1.8-.1-3.8.1-5.5-.5-.9-4.9-.3-9.9-.3-14.8 1.6-1.4 3-2.8 4.4-4.1zM-357.2 263.4l1.8 5.1c1.2-1 2.5-1.9 3.7-2.9.1 5-.4 10.1.5 15.1-1.8 0-3.7-.1-5.5-.1-1-5.6-.3-11.4-.5-17.2zM-333.1 268.3c.5.5 1.1 1 1.6 1.5.1 2.5-.3 5.2.5 7.5 1.8.6 3.5-.4 5.2-.7.2 5.2-7 6-10 3.3-1.8-2.6-1-6-1.2-9 1.3-.8 2.6-1.7 3.9-2.6zM-359.7 276.9c-.7-2-.9-4.2-2.3-5.8-2.7-1.9-6-2.6-9.2-3.3-5 .1-9.1 5.8-6.3 10.3 2.6 4.1 8.4 3.2 12.1 1.3 1.9 1.6 4.3 1.8 6.8 1.7-.3-1.4-.7-2.8-1.1-4.2zm-11.5.3c-2.2-1-2.1-4.3-.2-5.6 1.8-1.3 4.2-.8 6.3-.9 0 1.8.1 3.5.1 5.3-2 .9-4.1 2.2-6.2 1.2zM-307 265.3c-.3-3.2-3.5-5-6.5-5.2-2.8-.1-6.1-.2-8.4 1.6-1.6 1.2-1.5 3.3-2 5.1 2.7-1.8 5.9-3.7 9.3-2.8 2 .4 2 2.7 2.7 4.2-3.6-.1-7.7-.5-10.7 1.8-3.5 2.4-3.7 8.6.2 10.6 3.2 1.7 6.9.7 10-.7 1.9 1.6 4.3 1.8 6.7 1.7-1.9-5.2-.6-10.9-1.3-16.3zm-11.2 12.4c-2.3-.9-2.2-4.5-.2-5.7 1.8-1.2 4.1-.7 6.1-.8 0 1.8.1 3.5.1 5.3-1.8.8-3.9 2.2-6 1.2z"/></svg>