<svg id="Layer_1" xmlns="http://www.w3.org/2000/svg" viewBox="-169 11.3 86.7 62.7"><style>.st0{opacity:.6}.st1{fill:#ec9488}</style><g id="XMLID_21_" class="st0"><g id="XMLID_4773_"><g id="XMLID_78_"><path id="XMLID_82_" class="st1" d="M-139.5 16.4c-.3 16.5-.6 33-1 49.6 0 .9 9.6 2 9.6 2.8.3-16.5.6-33 1-49.6 0-.9-9.6-2-9.6-2.8z"/></g></g><g id="XMLID_4780_"><g id="XMLID_73_"><path id="XMLID_77_" class="st1" d="M-161.8 37.6l-1.5.3c-.2 0 0 5 0 5 25.1 2.5 50.2 3.5 75.4 3.1.1 0 0-5 0-5-25.2.4-50.3-.6-75.4-3.1v5l1.5-.3c.3-.1-.3-4.9 0-5z"/></g></g></g></svg>