<svg id="Layer_1" xmlns="http://www.w3.org/2000/svg" viewBox="0 0 334 322"><style>.st0{opacity:.5}.st1,.st2{fill:#fff}.st2{opacity:.1091}</style><g id="XMLID_20_" class="st0"><g id="XMLID_70_"><g id="XMLID_604_"><g id="XMLID_605_"><g id="XMLID_606_"><path id="XMLID_848_" class="st1" d="M216.4 142.5z"/><path id="XMLID_847_" class="st1" d="M216 142.6v-.1.1z"/><path id="XMLID_846_" class="st1" d="M215.6 142.5c.2.3.1 0 .2.1l-.1-.2c.1.1 0 .2-.1.1z"/><path id="XMLID_845_" class="st1" d="M215 141.9c.1.1.1.1 0 0 .1 0 .1 0 0 0 .1 0 .1 0 0 0z"/><path id="XMLID_844_" class="st1" d="M215.1 141.9s-.1-.1 0 0z"/><path id="XMLID_843_" class="st1" d="M214.9 141.9c-.1-.2-.1-.2-.1-.3 0 .1 0 .2.1.3z"/><path id="XMLID_842_" class="st1" d="M215 142.1z"/><path id="XMLID_841_" class="st1" d="M215 142c.1.2.1.3 0 0 .1.2 0 .1 0 0z"/><path id="XMLID_840_" class="st1" d="M215.1 142.1c.1.1.1.1.1.2.1-.1 0-.3-.1-.2z"/><path id="XMLID_839_" class="st1" d="M215.8 142.8c.1 0-.1-.1 0 0z"/><path id="XMLID_838_" class="st1" d="M214.4 141.6c0 .1.2.2.2.3v-.1s-.1 0-.2-.2z"/><path id="XMLID_837_" class="st1" d="M214.6 142v.1c.1 0 .1-.1 0-.1z"/><path id="XMLID_836_" class="st1" d="M215.2 142.5v-.2.2z"/><path id="XMLID_835_" class="st1" d="M214.1 141.5v-.2l.1.3z"/><path id="XMLID_834_" class="st1" d="M214 141.5c-.1-.2-.2-.3-.3-.4 0 0 0 .2.1.3 0-.1 0 0 .2.1z"/><path id="XMLID_833_" class="st1" d="M213.9 141.6s0-.1-.1-.2c0 .1 0 .1.1.2z"/><path id="XMLID_832_" class="st1" d="M214.5 142c0-.1-.1-.2-.2-.3l.2.3z"/><path id="XMLID_831_" class="st1" d="M214.5 142s-.1 0 0 0c-.1 0 0 0 0 0z"/><path id="XMLID_830_" class="st1" d="M214.5 142c0 .1.1.1 0 0z"/><path id="XMLID_829_" class="st1" d="M215 142.3c0 .1.1.3.2.4-.1-.1-.2-.2-.2-.4z"/><path id="XMLID_828_" class="st1" d="M214.7 142.3c.1 0 0-.1 0-.2v.2z"/><path id="XMLID_827_" class="st1" d="M214.8 142.4l-.1-.1z"/><path id="XMLID_826_" class="st1" d="M214.1 141.9v.2c.1.1.1.1.2.1 0-.2-.1-.3-.2-.3z"/><path id="XMLID_825_" class="st1" d="M214.3 142c.1 0 .1 0 0 0z"/><path id="XMLID_824_" class="st1" d="M213.8 142c0 .1.1.1 0 0z"/><path id="XMLID_823_" class="st1" d="M214.3 142.2c.1 0 .1 0 0 0 0-.1 0-.1 0 0z"/><path id="XMLID_822_" class="st1" d="M213.9 141.7c.1.1.1.1.1.2-.1-.1-.2-.2-.1-.2z"/><path id="XMLID_821_" class="st1" d="M214.3 141.9c-.1 0 0 0 0 0z"/><path id="XMLID_820_" class="st1" d="M214.3 141.9s0 .1.1.2c-.1 0-.1-.1-.1-.2 0 .1 0 0 0 0z"/><path id="XMLID_819_" class="st1" d="M215 144.1c-.2-.3-.3-.6-.1-.3-.1-.2-.7-1.1-1-1.6.1.1.1.2.2.4s.3.3.5.6c0 .2-.1-.1-.2-.2.2.3.2.6.6 1.1l-.1-.2c-.1-.1 0 .1.1.2z"/><path id="XMLID_818_" class="st1" d="M214 142.1c-.1-.1-.1-.2-.3-.4 0 .1.1.2.1.3l.2.1z"/><path id="XMLID_817_" class="st1" d="M214.1 142.1c.2.3.2.4.4.7.1 0-.1-.3-.1-.4-.1.1-.1-.1-.3-.3 0-.1-.1-.1-.1-.2 0 0 0 .1 0 0 .1.1.1.1.1.2l-.1-.1v.2c0-.1.1-.1.1-.1z"/><path id="XMLID_816_" class="st1" d="M215.4 143.3z"/><path id="XMLID_815_" class="st1" d="M215.3 143.2s-.1-.1 0-.1c0 0 .1.1 0 .1.1 0 0-.1-.1-.2s-.3-.4-.3-.4c.2.2.3.4.4.6z"/><path id="XMLID_814_" class="st1" d="M214.8 142.7v.1l.2.2-.1-.1c.1.1-.1-.1-.1-.2z"/><path id="XMLID_813_" class="st1" d="M213.7 141.9l-.2-.3.3.4z"/><path id="XMLID_812_" class="st1" d="M213.6 141.9l-.2-.3.1.2z"/><path id="XMLID_811_" class="st1" d="M210 147.8z"/><path id="XMLID_810_" class="st1" d="M210.2 147.7z"/><path id="XMLID_809_" class="st1" d="M211.1 143.1c-.2-.3-.6-.7-.3-.4l.3.4c-.1-.1-.1 0 0 0z"/><path id="XMLID_808_" class="st1" d="M211 146.3s0-.1-.1-.2c0 .1.1.2.1.2z"/><path id="XMLID_807_" class="st1" d="M211.6 147.3l-.2-.1c.1 0 .2.1.2.1z"/><path id="XMLID_806_" class="st1" d="M209.5 148.7l.1.2c0-.1-.1-.1-.1-.2z"/><path id="XMLID_805_" class="st1" d="M212.5 142.3l-.2-.2c.1.2.4.5.2.2z"/><path id="XMLID_804_" class="st1" d="M209.2 146.6s.1.1 0 0c.1.1.1 0 0 0z"/><path id="XMLID_803_" class="st1" d="M212.2 142.1c0 .1 0 .1 0 0-.1-.2-.2-.3 0 0z"/><path id="XMLID_802_" class="st1" d="M206.9 151.2z"/><path id="XMLID_801_" class="st1" d="M204.8 150.2c0-.1 0-.1 0 0 0-.1 0-.1 0 0z"/><path id="XMLID_800_" class="st1" d="M213 141.8z"/><path id="XMLID_799_" class="st1" d="M214 143.2s0 .1.1.2c-.1-.1-.1-.2-.1-.2z"/><path id="XMLID_798_" class="st1" d="M213.5 144.7c.1 0 0 0 0 0z"/><path id="XMLID_797_" class="st1" d="M213.2 142c-.1 0-.1-.1 0 0-.1-.1-.1 0 0 0z"/><path id="XMLID_796_" class="st1" d="M213.1 141.8s0 .1 0 0c0 0-.1 0 0 0z"/><path id="XMLID_795_" class="st1" d="M213 141.9c0-.1 0 0 0 0z"/><path id="XMLID_794_" class="st1" d="M208.1 149.7c.1.1.1.1 0 0z"/><path id="XMLID_793_" class="st1" d="M213 147.1z"/><path id="XMLID_792_" class="st1" d="M213.1 147.4c-.2-.4-.2-.4-.1-.3l-.7-1 .8 1.3z"/><path id="XMLID_785_" class="st1" d="M209.7 148.1l.1.1c.1.2 0 .2.1.3-.2-.4.1-.2-.1-.5h.1c.2.1-.1-.3 0-.3 0 0 .1 0 .1.1v-.1s.1.1 0 .1l.1-.1c0-.1 0-.2-.1-.2.1 0 0 0 .1.1v-.1c.1.1.1.2.1.2.3.4 0-.1.3.1v.1c.2.2.2.1.4.3-.1-.1-.4-.3-.4-.4 0 0 .1 0 .1-.1.1.1.1.1.2.1l.1.2c0-.1-.1-.2-.1-.3.1 0 .2.2.3.3.1 0-.3-.3-.2-.3.1.1.1 0 .1-.2.1.1.1.2.2.2l-.1-.2.1.1c0-.1-.2-.3-.2-.4-.2-.3.5.4.3.1.1.1.1.2.2.3-.1-.3 0-.2-.2-.6l.2.2c-.2-.3-.4-.6-.5-.9-.1-.1-.2-.2-.2-.3l-.1-.3c0 .1.1.2.2.4v-.1c.1.1.3.3.4.6l-.2-.2c.1.2.3.5.4.7v-.1c0 .1.1.1.1.2l-.1-.1.3.4-.1-.2.3.3c-.2-.4-.6-1.1-.6-1.4.2.4.4.6.7 1-.3-.4 0 .2-.1.1.1 0 .2.2.2.3l-.1-.4c.2.3.2.2.3.4-.5-.7-.2-.5-.3-.7.2.2.3.5.2.4.4.5-.5-.9-.1-.4v.1c-.1-.2.1-.1.2.1.2.1.3-.1-.1-.8.1.1.5.8.6.9l-1.3-2.3c.4.6 1.3 1.9 1.5 2.3.1.1.2.2.1-.1-.1-.1-.6-.8-.6-.9.5.6.3.3.7.9-.1-.1-.7-1-.6-1 .1.1.6.9.7 1l-.5-1c.1.2.5.8.7 1-.1-.2.1 0 .1-.1l-.2-.2c.2.1-.8-1.4-.6-1.4.1.2.8 1.2.9 1.3-.3-.5-1.4-2.4-1.6-2.9l.2.3-.2-.4c.5.8 1.4 2.5 1.7 3.1.2.2.2.3.3.3.2.3.2.4.2.4l.3.1c-.4-.6-.3-.6-.6-1.1l.2.7c-.4-.6-1-1.7-.8-1.7.2.2.7 1.1.8 1.3-.1-.2-.2-.4-.1-.3l.2.3c.2.2-.4-.8 0-.3 0 0 .6.7.3.4-.5-.7-1.9-2.8-2.2-3.3 0 0 .5.6.8.9.4.5.8 1.3 1.1 1.8-.1-.2-.2-.4-.3-.5.1.1.3.5.3.4-.4-.6.1 0-.3-.5-.1-.2.1.1.2 0-.3-.4-.8-1.4-.9-1.6.1.2.2.4.3.4.1 0 .4.2.4.2.1.1.3.3.4.6-.1-.1-.2-.3-.2-.4.4.5 0 .1.4.7-.2-.4-.2-.5-.3-.8-.3-.5-.1 0 0 .2-.5-.8-.9-1.6-1-2 0-.2.3.5.3.3.2.1-.7-1.3-.2-.8.3.4.6.9.8 1.2 0 .2-.3-.2-.3-.2l.2.2c.1.2.1.3 0 .2.3.4.3-.1.6.2-.1-.2-.1-.3-.3-.5v.1c-.3-.3-.2-.5-.4-.7-.1-.3-.3-.7-.1-.5l.3.5c-.1-.1-.2-.3-.2-.1-.1-.2.5.6.2 0l-.3-.3c-.1-.3-.3-.8-.2-.6-.3-.5 0 .1-.4-.5.5.7-.2 0 .3.7-.4-.6-.3-.3-.7-.8.1.2.2.3.1.2l.1.1c.1.1.1.2.2.2.2.4.1.4.2.6-.1-.1-.1-.2-.2-.4l.1.3c-.2-.4-.5-.6-.5-.8h-.1c-.2-.2-.3-.3-.2-.1-.1-.1.2.4 0 .1v.3l-.1-.1c-.1 0 .2.7-.4.1 0 .1.1.3-.1.2l-.1-.1c0 .1-.4-.3-.1.1-.6-.9-.3-.1-.5-.2l.3.5c-.1 0 0 .2 0 .4l.3.4c.2.4-.3-.2-.3-.1-.1-.2 0-.1 0-.1-.7-.8.2.8-.3.2.1.2 0 .1 0 0l-.2-.2c.1.1.1.2.2.2v.2l-.3-.4c-.1-.1.1.2.3.5 0 .1.1.2.1.3-.4-.6.1.3-.4-.4.2.3.1.4.5 1.1l-.1-.1c-.1-.1-.2-.1 0 .1l-.3-.5.4.7c-.2-.3-.3-.4-.6-.8.3.6.1.3.4.9l-.2-.3s.2.5 0 .2c-.4-.5-.3.2-.7-.2.5.7-.3-.3.1.3-.1-.2-.2-.2-.3-.4.1.3-.3-.1 0 .4-.1-.2-.2-.3-.2-.4 0 0 .1.2 0 .1s-.1-.2-.1-.2c0 .2.3.7.6 1.1-.2-.2-.2-.1 0 .2-.1-.1-.2-.3-.2-.4 0 0-.2 0 0 .3-.1-.1 0 0 0 .1-.1 0-.1 0-.1.1.2.4 0 .1 0 .2-.2-.1 0 .2-.2 0l.1.2c.3.4-.2-.1-.2.1l.1.1c.1.1-.4-.4-.5-.4v-.1c-.2-.1.1.2.1.3-.1-.1-.2-.3-.2-.3-.1 0 .1.5-.1.3.1.1.1.1.1.2s-.3-.1-.2.1v.3c-.3-.4-.1.4-.4 0l-.1.1c-.1 0-.1.1 0 .2l-.1-.1c-.2 0-.2 0-.1.2l-.1-.2c.1.1-.4-.2-.4 0v-.1c0 .1-.2 0-.4-.1s-.3-.1 0 .3l.1.2c.2 0 .3.4.4.5 0 .1-.3-.2-.3-.3-.3-.5-.3-.1-.5-.5-.2.1-.8-.2-1-.2l.4.5h-.1c-.1-.1-.3-.4-.3-.4-.3-.3.1.3.2.4-.3-.2-.4-.6-.5-.6v.1l.1.1c.1.2.3.5.2.5l-.3-.3s0-.1 0 0h-.1l.3.4c.1.2-.1 0 .3.5-.6-.7-.5 0-.7-.2.2.3.1.4.1.4.1.1.4.5.3.5-.7-.9-.4-.3-.9-.9.4.4 0 .3.5.8-.1 0-.2-.3-.4-.5.2.4-.3 0-.3.3.1.1.2.2.3.4l-.4-.4c0 .1.4.6.1.3l.2.2c-.2-.1-.2.2-.3.4-.1.2-.1.4-.3.4.1 0 .1.1.1.1l.1.1h-.1c.1.1 0 .2 0 .3v-.1c0 .1.2.1.3.3 0-.1.1 0 .2 0s.2.1.2 0c.1 0 0 .1.1.1 0-.1 0-.1.1-.1.2 0 .4.1.7.2l-.2-.2c.1 0 .1.1.2.1-.2-.3-.1 0-.4-.3.4.4.3-.1.7.5.1 0-.2-.3-.2-.3l.1.1-.1-.2c.1 0 .2.2.3.4.2.2.1-.1.2 0l-.1-.1c.1-.2.5 0 .3-.4l-.1-.1c-.1-.3.2.1.2-.1-.1-.2-.1-.3-.1-.3.1.2.3.3.4.5-.1-.4-.1-.3-.5-.9l.2.2c-.2-.2-.2-.4-.2-.5.1.3.3.4.5.7.6.5-.3-.7.4.1-.5-.8-.4-.3-.5-.5-.2-.2-.4-.6-.3-.5 0 0 .8.9.8.8v.1c.2.2-.1-.3.1 0-.3-.5.1 0-.4-.6v.2c-.1-.2-.5-.9-.2-.6.1.1.2.3.2.4.1.1 0-.2.1 0 .4.6 0 .2.3.7.2.2-.2-.5.2.1-.5-.8.1 0-.3-.6l.2.3c0-.1-.1-.2-.1-.2l.3.5c-.2-.4.3.2.2-.1-.1.1-.3-.4-.5-.5-.2-.5.7.7.6.4 0 .1-.2-.1-.2-.3.1 0 .2.1.3.2 0-.2-.2-.3-.3-.5.3.3-.1-.2-.1-.4l.2.3c.2 0-.4-.6-.2-.5l.2.4v-.2l.2.3c-.1-.3-.1-.3 0-.3-.1-.2-.3-.4-.3-.5.1.1.1.2.2.1l.1.2c.1.1.1.2.2.2.1.1.1-.1.1-.1l-.2-.4c.1.1.1.1.1.2 0-.1-.1-.2-.1-.2.1.2.2.3.3.5l-.1-.3.2.2c.1 0-.2-.5-.1-.5v-.1c.1 0 .2 0 .1-.2l.2.1c0-.1-.2-.2-.2-.4 0-.1.1.1.2.2 0 .6 0 .3.1.5zm.7-.5s0 .1 0 0c-.1-.1-.1 0 0 0zm1.1-.8c0 .1 0 .1 0 0-.1-.1-.1-.1 0 0zm1.4-4.6c-.1-.1 0-.1 0 0zm.2.2c0-.1-.1-.1-.1-.2.1.1.1.1.1.2 0 0 .1.1 0 0zm-6.9 5.1c.1.2.1.1 0 0z"/><path id="XMLID_784_" class="st1" d="M211.6 147.2l-.1-.1s0 .1.1.1z"/><path id="XMLID_783_" class="st1" d="M209.4 148.7h.1z"/><path id="XMLID_782_" class="st1" d="M214.3 146.6l-.2-.2c.1.1.2.1.2.2z"/><path id="XMLID_781_" class="st1" d="M213.2 141.6v.1l.1.1-.1-.2z"/><path id="XMLID_780_" class="st1" d="M215 143.7l-.1-.2s0 .2.1.2z"/><path id="XMLID_779_" class="st1" d="M214 142.9c.2.3.2.2.2.1-.3-.4-.3-.3-.2-.1z"/><path id="XMLID_778_" class="st1" d="M214.2 143s0-.1 0 0c-.1-.2 0-.1 0 0z"/><path id="XMLID_777_" class="st1" d="M213.1 142.1c.1.1-.3-.4-.2-.3-.2-.4.2.6.2.3z"/><path id="XMLID_776_" class="st1" d="M214.6 143.9l-.2-.4.2.3z"/><path id="XMLID_775_" class="st1" d="M214.2 143.7l.1.1c0-.1 0-.1-.1-.1 0 0 0-.1 0 0z"/><path id="XMLID_774_" class="st1" d="M214.3 143.7s0-.1 0 0c0-.1 0-.1 0 0z"/><path id="XMLID_773_" class="st1" d="M214.7 144h-.1l-.1-.1z"/><path id="XMLID_772_" class="st1" d="M213.6 143.9v.2c.1.2.2.2.1.2.1-.2 0-.2-.1-.4z"/><path id="XMLID_771_" class="st1" d="M214.5 145c-.1-.1-.1-.2-.2-.3l.3.5-.1-.2z"/><path id="XMLID_770_" class="st1" d="M214.5 145.3c.1.2.2.5.2.4-.1-.2-.1-.4-.2-.4z"/><path id="XMLID_769_" class="st1" d="M213.3 145.1l-.6-1z"/><path id="XMLID_768_" class="st1" d="M213.9 147.5c.2.2-.3-.5-.1-.3-.1-.2-.2-.2-.3-.4.1.3 0 .2.4.7z"/><path id="XMLID_767_" class="st1" d="M213.5 146.9s0-.1-.1-.1c.1 0 .1 0 .1.1z"/><path id="XMLID_766_" class="st1" d="M204.7 150.3v.1z"/><path id="XMLID_765_" class="st1" d="M204.8 150.5c0 .1 0 0 0 0z"/><path id="XMLID_764_" class="st1" d="M210.8 148l-.1-.1.1.1z"/><path id="XMLID_763_" class="st1" d="M210.1 148l-.1-.2z"/><path id="XMLID_762_" class="st1" d="M209.8 148.5s-.1-.1 0 0z"/></g></g></g></g><g id="XMLID_69_"><g id="XMLID_665_"><g id="XMLID_666_"><path id="XMLID_678_" class="st2" d="M41.3 186.1c-.1.6-.3 1.1-.5 1.7-.6 4.6-1.2 9.3-1.8 13.9-.4 3.5-.6 5.6-.1 9.1.4 2.1.8 4.2 1.4 6.2.2 1.5.8 2.7 1.9 3.9.4 2.7 1.4 5.1 3.1 7.1 1.4 1.4 2.9 2.6 4.6 3.6-.8-1.2-1.6-2.4-2.4-3.5l2.1 6.6c.9 2 1.7 4.1 2.6 6.1 1.9 4.6 3.7 9.3 5.6 13.9 2.5 6.3 5.5 12.3 9.4 17.8 9.4 13.3 23.3 23.1 38 29.8 11.6 5.3 24.2 8.7 37 7.4 3.5-.4 6.8-1.2 10.1-2.4 1.5-.6 3-1.2 4.5-1.7 3-1.1 5.9-2 8.8-3.6 3-1.6 5.9-3.6 8.8-5.4.6-.9 1-1.9 1.2-3 .3-1.1.4-2.1.3-3.2-.6-1.5-2.3-1.5-3.5-.9-2.6 1.3-5 2.6-7.6 4.1.3-.2.6-.3.9-.5-4.4 2-8.9 3.7-13.4 5.5-6 2.4-11.6 3.7-18.3 3.6-14.9-.3-28.9-6.5-41.8-13.3.2.1.5.3.7.4-5-3.1-9.8-6.3-14.2-10.2-6.4-5.7-10.9-12.6-14.4-20.2-2.4-5.2-4.3-10.6-6.6-15.8-.4-1-.8-1.9-1.3-2.9-2-4.6-4.8-8.5-8.6-11.9.7 1.1 1.4 2.2 2.2 3.3-.1-1.3-.2-2.7-.3-4-1-2-2.1-3.9-3.2-5.9-2.4-4.2-1-2.1-5.4-7.4.7 1.1 1.5 2.3 2.2 3.4 0-1.7 0-3.3.1-5-.1-1.3-.3-2.6-.4-3.9-.2-4.3.5-8.1 1-12.4.5-3.9.7-7.9 1.7-11.7 0 .1-2.2.7-2.2.7-.2-.1-2.1.3-2.2.7z"/><path id="XMLID_677_" class="st2" d="M34.8 182.4s0-.1-.1-.1c.1-1.4.3-2.8.4-4.3-1.9 5.3-3.9 10.5-5.7 15.8-1.2 3.4-2.3 6.9-3.1 10.4l-.3.3c-1.2 1.8-1.5 1.8-1.6 4.2 0 1.8.2 3.6.7 5.3 1.1 2.7 2 5.5 2.6 8.3.7 2.8 1.4 5.7 2.1 8.6 1.2 5.5 2.2 11.5 4.2 16.8 1.9 5 4.9 10 8.1 14.3 3.5 4.8 7.8 9.2 12.3 13 8 6.7 17 12.6 26.6 16.8 3.6 1.6 7.2 3.1 11 4.2 5.4 1.6 11.2 3.1 16.8 3.1 6-.1 12.1-1.2 17.9-2.1 3.1-.5 6.2-1.4 9.3-1.9 4.1-.7 8.5-2.3 12.3-3.9 4.5-1.9 8.9-3.8 13.1-6.2 1.1-.5 1.5-1.4 1.4-2.5-.4-.7-1-1-1.8-.8-1.5-.2-2.9.1-4.2.9-3.1 1-6.1 2.2-9.1 3.6-4 1.8-8.1 3.4-12.3 4.7 3.3-1 6.6-2.1 10-3.1-7.7 2.1-15.4 4.2-23.1 6.1 3.4-.7 6.7-1.4 10.1-2.1-3.5.5-7 1-10.6 1.5 1.2-.1 2.4-.1 3.5-.2-4.7 0-9.2-.2-13.8-1.1-4.6-.9-9.2-2.1-13.6-3.8-9-3.4-17.4-7.7-25.6-12.9.5.3 1 .7 1.4 1-2-1.5-4.1-2.9-6.1-4.4.5.4.9.7 1.4 1.1-1.9-1.6-3.8-3.2-5.7-4.7.4.4.9.7 1.3 1.1-4.2-4.1-8-8.2-11.1-13.1-3-4.7-4.9-10-6.9-15.2-2-5.4-3.8-10.8-6.1-16-1.8-4.1-4.2-7.8-6.1-11.8-2.2-4.6-2.8-9.9-2.2-14.9.5-4.4 1.4-8.6 2.5-12.9.5-2.1 1.1-4.2 1.7-6.2.1-.6-.3-1.1-1.1-1.4-.1 0-.7 4.6-.5 4.5z"/><path id="XMLID_676_" class="st2" d="M34.2 167.8c-.1 2.5-.5 3.3-1.3 6.1-1.2 3.9-1.3 4-1.5 8.5-.3 5.4-.3 10.9 1.1 16.2 1.6 6.3 6.5 11.3 9.4 17 4.6 8.8 7.2 18.5 12 27.2 1.5 2.7 3.2 5.3 5 7.7 3.4 4.5 7.8 8.2 12.3 11.6 7 5.3 15.2 9.3 23.3 12.6 9.5 3.9 19.6 6.9 29.9 7.2 3.7.1 8.2-.2 11.8-.9 4.1-.8 8-2.2 11.9-3.7l-.9.3c6.6-2 12.6-4.7 18.5-8.3.6-.5.9-1.1 1.2-1.8.2-.5.1-.9-.3-1.3-.4-.7-2.5-2.5-3.4-2.1-1.7.7-3.4 1.5-5.1 2.2.3-.1.6-.2.8-.3-3.1 1.2-6.2 2.5-9.3 3.9l.9-.3c-3.2 1-6.3 2.2-9.5 3.3-1.1.3-2.1.7-3.2 1-3.1 1-6.3 1.5-9.5 1.8.3 0 .6-.1.9-.1-5.5.1-10.7 0-16.2-1.1-4.5-.9-8.9-2.2-13.3-3.7-9.6-3.3-18.5-7.7-26.9-13.4.2.2.5.4.7.5-7.2-5.6-12.6-10.9-16.9-19-2.5-4.8-4.2-10-6.3-15-1.8-4.4-3.7-8.8-6.2-12.9-1.6-2.7-3.4-5.2-5-7.8-2.4-4-3.6-8.6-4-13.3-.4-6 0-12 1.6-17.8.4-1.2.7-2.4 1.1-3.7.1-.8.1-1.6.2-2.4 0 .1-2.1.8-2.1.8.3.1-1.7.8-1.7 1z"/><path id="XMLID_675_" class="st2" d="M42.2 175.2c.3-.4.5-.8.8-1.1-.3.4-.6.8-.8 1.1-.7 1.2-.6 1.6-.7 3-.2 2.5-.6 5-.2 7.5.5 3.3.8 6.7 1.6 9.9.4 1.7 1 3.4 1.3 5.1.3 1.4.6 2.9 1.1 4.3 1.3 4.1 3.8 7.5 6.3 11-.2-.3-.5-.7-.7-1 1.9 3.2 3.5 6.5 4.7 10 1.4 3.5 2.7 7 4 10.6 1.3 3.6 2.7 7.1 4.3 10.5 1.6 3.4 3.5 6.6 5.7 9.6 3.4 5.1 8.1 9.2 13 12.7 6.1 4.4 12.8 7.9 19.7 11 13 5.7 27.8 10.2 42.1 7.3 4.8-1 9-3.1 13.5-4.8 2.5-.7 5-1.7 7.3-2.9 2.6-1 4.9-2.5 6.9-4.5.7-1.1.6-2.3-.2-3.5-1.8-3.3-3.8-6.5-6-9.6-2.1-3.2-4.3-6.2-6.8-9.1-.8-1.2-1.9-1.7-3.2-1.5-1.9.7-3.8 1.4-5.8 2-.5.3-1 .5-1.6.8-.7 0-1.4.2-1.9.5s-1.1.7-1.6 1c-5.6 3.4-12.7 3.1-19 1.7-8.5-1.9-17-5.3-24.8-9.4-3.9-2.1-7.6-4.3-11.1-6.9-2.2-1.5-4.3-3.3-6.2-5.2-2.6-2.4-4.8-5.2-6.7-8.1.2.3.5.7.7 1-2-3.6-4-7.3-5.7-11-1.9-4-3.7-8-5.5-12-1.4-3-2.8-5.9-4.5-8.8-1.3-2.1-2.9-4-4.5-6 .2.3.4.7.6 1-.8-1.4-1.5-2.8-2.3-4.2-.2-.4-.5-.9-.9-1.2-.9-.6-1.9-1.1-2.8-1.7-.7-.6-1.5-1.1-2.2-1.7-1.7-.9-4.4-1.1-6.2-1.5.7.7 1.3 1.4 2 2-.5-1.7-1-3.4-1.4-5-.2-.8-1-1.8-1.5-2.4.1.3-.7-.8-.8-.5z"/><path id="XMLID_674_" class="st2" d="M41 165.4c-1.1 6.4-2.4 12.8-2.7 19.3-.1 3.3.4 6.4.9 9.5.3 1.8.6 3.5 1.3 5.2 1.1 2.8 2.9 5.2 4.6 7.7 2.5 3.9 5 7.9 6.9 12.1 4.7 10 7.6 21.3 14.8 29.9 6.3 7.5 14.3 13.4 23 17.8 10 5.1 20.7 9.7 31.8 11.7 8.5 1.5 17.2 1.9 25.6-.3 4.2-1.1 8.2-2.9 12.2-4.4 5.5-2 10.4-4.6 15.4-7.6 1.2-.7.3-2.5-.2-3.3-.7-1.3-1.5-1.5-2.8-1-2.8 1.1-5.6 2.1-8.4 3.2-1.8 1-3.6 1.8-5.5 2.4-.7.2-1.4.5-2.1.7-4 1.5-7.9 3.4-12.2 4.2-1.8.3-3.6.5-5.4.8-3.3-.1-6.6-.1-9.8-.2-3.7-.4-7.4-1.1-10.9-2-9-2.2-17.6-5.7-26-9.7.3.1.5.3.8.4-6.5-3.5-12.9-7.3-18.1-12.6-3.7-3.7-6.9-7.8-9.5-12.3-2.5-4.5-4.2-9.3-6.2-14-2.4-5.6-4.8-11.5-8.6-16.3-2-2.5-3.8-5.3-5.1-8.2-1.2-2.7-1.7-4.7-2-8-.8-8 1.3-16 2.5-23.9.1-.1-4.3-1-4.3-1.1z"/><path id="XMLID_673_" class="st2" d="M29.7 177c0 .7.1 1.3.1 2 .2-1.4.4-2.8.6-4.3-1.3 3.4-3.1 6.9-3.6 10.6-.3 2.1-.4 4.2-.5 6.3-.2 4.8-.2 9.7.8 14.5.5 2.5.9 5.2 2.1 7.5.9 2 2.3 3.8 3.4 5.7 2.2 3.5 4.2 7.1 5.9 10.9 1.3 3.2 2.5 6.4 3.7 9.7 1.3 3.6 2.6 7.2 4.3 10.6 2 4 4.3 7.7 7.2 11.2 7.9 9.6 18.8 16 30 21 10.6 4.7 21.8 8.2 33.4 8.9 7.5.5 14.8-.8 21.8-3.4 2.8-1 5.9-1.9 8.6-3 4.4-1.8 8.6-4 12.7-6.4.8-.5.3-2.7-.1-3.2-.8-.9-2.6-.9-3.6-.3-1.7.8-3.3 1.7-5 2.5.3-.1.6-.3.9-.4-1.7.8-3.5 1.6-5.2 2.5.3-.1.7-.3 1-.4-1.8.8-3.5 1.5-5.3 2.3.3-.2.7-.3 1-.5-4.9 1.6-9.7 3.5-14.7 4.7-8.3 2-17 1.2-25.2-.8-9.5-2.3-18.9-6.2-27.4-10.9-7.3-4-14.3-9-19.6-15.5-2.9-3.6-5.1-7.3-7.2-11.4-1.3-2.2-2.4-4.6-3.3-7-.7-1.7-1.4-3.4-2-5.2-2.4-6.3-4.8-12.9-8.5-18.5-2-3-4.3-5.8-6-9.1-3.5-6.9-2.9-15.7-2.3-23.1-.1.9-.3 1.9-.4 2.8 1.5-5 3.4-9.5 3-14.7.1 1.4-.7 2.9-.6 4.4z"/><path id="XMLID_672_" class="st2" d="M35.5 185.8c-.4 3.9-1.6 7.7-2.2 11.6-.6 4.4-1 8.8-.6 13.2.2 2.3.6 4.9 1.2 7.2.3 2.1 1.1 3.9 2.4 5.6 1.7 2.1 3.5 4.1 5.4 6.1-.6-.7-1.2-1.5-1.8-2.2 1.6 3.3 3.6 6.5 5.8 9.4-.4-.8-.9-1.7-1.3-2.5 1.4 3.7 2.8 7.3 4.3 11 1.7 4.4 3.2 8.8 5.1 13.1 2.8 6.3 6.7 12.3 11.2 17.6 4 4.7 9.1 8.7 14.2 12.1 4.9 3.2 10.1 6 15.4 8.4 13.4 6.1 28.7 11 43.6 8.4 4.3-.7 8.3-2.4 12.5-3.7 3.9-1.3 7.5-2.6 11.1-4.6l6.9-3.9c.9-.5 1.4-1.9 1-2.8-.3-.6-2-2.1-2.7-1.7-3.2 1.7-6.3 3.5-9.6 5-2.4 1-4.8 1.7-7.2 2.7-2.5 1-5.1 2-7.8 2.9-3.4 1.1-6.9 1.8-10.5 2.1-4.6.4-9.3-.1-13.8-.8-4.6-.8-9.2-1.9-13.7-3.4-3.6-1.2-7.1-2.6-10.5-4.1-4.9-2.5-9.7-5-14.6-7.6-5.4-3-9.7-7.2-12.9-12.7-4.3-3.3-7.4-7.3-9.3-12.1-.8-1.7-1.5-3.4-2.2-5.1-1.7-4.3-3.2-8.8-5.2-13-2.4-4.4-4.7-8.8-7.1-13.2-.7-1.3-1.5-2.6-2.2-3.9-1-2.1-1.8-4.5-2.3-6.7-1.2-5-1.4-10.2-.9-15.2.5-5.4 2.1-10.5 2.7-15.9.1-.5-4.4-1.2-4.4-1.3z"/><path id="XMLID_671_" class="st2" d="M48.4 171.9c-2.8 6.4-3.1 13.2-2.9 20.1.1 3.4.8 6.6 1.3 9.9.2 1.6.8 3.3 1.4 4.8 1.4 3.6 4.3 6.3 6.4 9.5 3.2 4.7 5.6 9.7 7.8 14.8 3.5 8 6.5 16.3 11.7 23.5 7.3 10.2 18.2 17.2 29.4 22.5 9.8 4.7 20.1 8.6 30.8 10.4 10.1 1.7 20 .9 29.6-2.6 3.2-1.2 6.5-2.2 9.7-3.4 2.2-.9 4.4-1.9 6.6-2.8 3.7-1.6 7.4-3.3 11-5.1 2-.9 3.8-2 5.6-3.3.7-.5 1-1.1.8-1.8-.2-2.5-3.7-1-4.9-.6-1.3.5-2.5 1-3.8 1.5.9-.3 1.8-.7 2.6-1-9 3-18.1 5.8-27.3 7.9.5-.1 1-.1 1.5-.2-3.9.3-7.7.5-11.7.3-4.9-.3-9.8-1.2-14.5-2.4-8.3-2-16.6-4.9-24.3-8.5-7.3-3.4-14.4-7.3-20.8-12.3-3.9-3-7.5-6.4-10.7-10.2-2.9-3.4-5.2-7-7.6-10.8l.6.9c-3.8-6.6-7.3-13.5-11.9-19.6-2.3-3.1-4-4.8-6.8-7.1-1.5-1.2-2.9-2.5-4.2-4-2.9-4.2-4.3-8.7-4.3-13.5.1-2.3 0-4.6-.4-6.8-.3-2.3-.9-4.6-1.7-6.9.2 1.3.5 2.6.7 3.9.3-1 .7-1.9 1-2.9.2-.6-.1-1.7-.2-2.3-.1.1-.6-1.7-.5-1.9z"/><path id="XMLID_670_" class="st2" d="M31.5 171.3c.2.8.2 1.5.2 2.3-.5 1.6-.9 3.2-1.4 4.9-1 2.4-1.7 4.8-2.2 7.4-.1 1.2-.3 2.4-.4 3.6-.5 5.1 0 10.7 2.1 15.4.8 1.8 1.8 3.5 2.7 5.2 2 3.6 3.9 7.1 5.4 10.9 1.9 4.7 3.4 9.7 5.2 14.5 1.6 4.3 3.7 8.2 6.2 12 9.5 14.6 25 23.9 40.7 30.5 10.4 4.3 21.3 7.5 32.6 7.4 4.1 0 8-.6 12-1.5 4-1 7.7-2.4 11.5-3.8-.4.1-.8.3-1.2.4 2.5-.8 4.9-1.5 7.3-2.6 3.3-1.4 6.2-3 9.2-5 .6-.6.7-1.3.5-2-.3-.7-.8-1.2-1.6-1.3-1.1-.6-2.3-.9-3.5-1.2-1.5-.4-3-.7-4.6-.7-3.1 1.5-6.3 2.8-9.6 4.1.4-.1.8-.3 1.2-.4-1.7.6-3.4 1.3-5.2 1.9.4-.1.8-.3 1.2-.4-3.3.9-6.6 1.7-9.9 2.7l1.2-.3c-1.5.4-2.9.7-4.4 1.1l1.2-.3c-1.9.3-3.7.6-5.6 1 .4-.1.8-.1 1.2-.2-3.5.6-7 .7-10.5.5-3.6-.2-7.1-.7-10.6-1.6-7.1-1.6-13.8-4.3-20.4-7.2.6.3 1.1.6 1.7.8l-6.6-3.3c.6.3 1.1.6 1.7.8-3.3-1.7-6.4-3.5-9.4-5.5-8-5.3-14.1-12.1-18.2-20.3l.6 1.2c-3.1-7-5.6-14.2-8.6-21.2-1-2.6-2.2-5.1-3.6-7.5-.8-1.5-1.6-3-2.6-4.4-2-3.4-3.8-7-4.7-10.9-.5-2-.7-3.7-.8-5.9 0-1.5.1-2.9.1-4.4-.2-2.9 0-5.8.7-8.6.2-2.8.8-5.6 1.9-8.2v-.1c.1-1.1 0-2.3-.2-3.4 0 .3-1.3 1.7-1.4 1.8.1.1-1.2 1.5-1.1 1.8z"/><path id="XMLID_669_" class="st2" d="M37.4 168.7c-.2 3.8-2 7.2-2.4 10.9-.5 4.7-.1 9.2.8 13.9.5 2.6 1.2 5.2 2.5 7.6 1.3 2.5 3 4.7 4.4 7.1 2.9 4.7 4.9 10.2 6.9 15.3 2.4 6.1 4.6 12.2 7.7 17.9 5.4 9.9 13.3 17.5 22.8 23.5 10.3 6.5 22 11.7 33.8 14.5 10.2 2.4 20.9 3.2 31-.1 3-1 5.8-2.2 8.7-3.3 2.7-.7 5.2-1.7 7.7-2.9 2.7-1 5-2.5 6.9-4.5.6-1 .5-2-.2-2.9-1.7-2.4-3.5-4.8-5.5-6.9-1.9-2.3-4-4.4-6.3-6.3-.9-.9-1.9-1.1-2.9-.6l-9 3.6c-2 .8-4.1 1.2-6.2 1.8-1.8.5-3.5 1.3-5.3 1.8-4.5 1.3-9.3 1.4-14 1.4.4 0 .8.1 1.2.1l-6.3-.6c.4 0 .8.1 1.2.1-5.3-1-10.2-2.2-15.2-4-4.9-1.8-9.8-3.9-14.4-6.4-4.7-2.5-9.3-5.2-13.4-8.5-4.2-3.3-7.8-7-11.3-11.1.4.5.7 1 1.1 1.4-1.6-2-3-4.2-4.1-6.5-.8-1.4-1.5-2.9-2.2-4.4-1.9-3.9-3.4-7.9-5-11.9s-3.1-8.1-5-11.9c-1-2.1-2-3.9-3.3-5.8-1.2-2-2.3-4.1-2.7-6.4-1-5.5 2.4-10.8 2.5-16.2.1-.2-4.4-.1-4.5.3z"/><path id="XMLID_668_" class="st2" d="M46.4 181.7c-.3.6-.5 1-.7 1.7-.8 2-.3 1.4.3 5 .1-1.2.1-2.4.2-3.6-1 6.5-2 13-1 19.5.2 1.6.5 3.1.7 4.7-.1 1.4.1 2.6.7 3.8.8 2.2 2.5 4.5 3.9 6.4 1 1.2 1.9 2.5 2.8 3.8 2.1 3.6 4.3 7.1 6.4 10.7 2.7 5.1 4.6 10.6 7.1 15.8 3 6.3 6.5 12.3 11.2 17.6 7.4 8.3 16.9 14.5 26.7 19.6 11.5 5.9 23.5 10.1 36 13.5 5.6 1.5 11.2 2.9 17 3.6 2.6.1 5.2.2 7.8.1 1.8.1 3.6 0 5.5-.3 2.2-.2 5-.4 7.1-.9 1.4-.4 2.8-.8 4.3-1.2 2-1.2 3.8-2.6 5.6-4 2.3-1.7-.9-5.8-1.8-7.3s-3.1-6.2-5.7-5c-3.7 1.8-7.2 3.8-11 5.4.4-.1.7-.2 1.1-.4-4.2 1.2-8.4 2.8-12.6 3.9-3 .9-6.1 1.3-9.2 1.4-3.7.1-7.4-.2-11.1-.8.8.1 1.6.3 2.4.4-1.6-.5-3.1-1.1-4.7-1.6.7.3 1.5.5 2.2.8-9.6-4.3-18.6-9.2-27.5-14.7.4.2.7.5 1.1.7-9-6-17.5-12.7-25-20.6-3.4-3.6-6.5-7.5-9.2-11.5-1.8-2.6-3.5-5.3-5.2-8-4.7-7.1-9.4-14.4-15.3-20.7-2.1-2.2-4-4.5-5.7-7l-3.6-12.3v-7.9c.1-2.3 0-4.7-.1-7-.1.9-.1 1.9-.2 2.8-.1-3 .5-5.9 1.6-8.6.2-.6.4-1.1.6-1.7.1-.4-.8 1.1-.7.9-.8 1.2-1.5 2.1-2 3z"/><path id="XMLID_667_" class="st2" d="M30.1 177.3c.3 2.3-.2 4.5-1.5 6.6-1.1 2.2-1.7 4.4-1.7 6.8-.3 3.8-.5 7.8-.2 11.7.2 1.6.4 3.1.6 4.7.6 2.4.9 4.9.8 7.5.7 2.1 1.8 4 2.9 6 1.8 3.1 3.6 6.1 5.3 9.2 3.2 5.8 5.2 12.2 7.4 18.5 2 5.7 4.1 11.6 7.7 16.6 3.3 4.6 7.2 8.7 11.7 12.3C72 284 82.4 289 92.8 292.9c4.6 1.7 9.3 2.8 14.1 3.7 4.7.9 9.5 1.4 14.3 1.1 5.9-.4 11.6-1.8 17.2-3.8 2.6-.9 5.3-1.7 7.9-2.7 4.8-1.8 9.3-4.2 13.7-6.7 1.4-.8 1.5-2.5.4-3.6-1.3-1.3-3.6 0-4.8.7-2 1.1-4.1 2.2-6.2 3.2-2.8 1.5-5.7 2.6-8.7 3.5l-1.8.6c-8.6 3.6-17.3 4.7-26.2 3.5.4.1.8.1 1.2.2-2.2-.4-4.4-.7-6.6-1.1.4.1.8.1 1.1.2-11-2.6-21.6-6.5-31.5-12-4.9-2.7-9.7-5.9-13.9-9.6-4.3-3.8-7.6-8.1-10.6-13l-2.7-4.5c-1.6-3.3-3-6.7-4.2-10.2-2-5.2-3.7-10.6-6.2-15.6-1.4-2.7-2.8-5.3-4.5-7.8-1.1-1.5-2.1-3.1-2.8-4.9-.6-2.1-1.6-3.9-3-5.6.1.4.2.7.4 1.1-.5-2.9-.8-5.8-.7-8.7-.4-4.5.1-8.8 1.7-13 1-3.2 1.5-3.8 1.4-6.3 0-.7-.5-1.5-.7-2.2-.4-.5-1-1.5-1-2.1z"/></g></g></g><g id="XMLID_68_"><g id="XMLID_648_"><g id="XMLID_649_"><path id="XMLID_663_" class="st2" d="M277.2 182.6c-.8 7.1-3.4 13.6-7.7 19.6.4-.5.8-.9 1.2-1.4-3 2.5-5.8 5.2-8.8 7.7-1.2 1.1-2.4 2-3.9 2.6-6 3.4-11.9 6.9-17.7 10.7-.7.4-2 2.1-2 3 0 .7.7 1.3 1.3.9 6.6-2.7 12.7-6.2 18.3-10.6 1.9-1.5 3.8-2.9 5.8-4.2 1.4-1.1 2.7-2.2 4.1-3.3 1.6-2.1 3.1-4.2 4.5-6.4 1.8-2.7 2.9-4.5 4.4-7.7 2-4.2 3.4-8.4 4.6-12.9.2-.7-1.5.3-1.6.4-.7.3-2.3.8-2.5 1.6z"/><path id="XMLID_662_" class="st2" d="M269.8 169.1c.3 3.2 0 6.3-1.1 9.3.2-.3.3-.7.5-1-2.1 2.8-4.4 5.2-7.1 7.4-3.9 2.1-8 3.9-12.3 5.3.3-.1.7-.2 1-.4-2 .5-4 1.1-6 1.6-2.2 1.4-4.5 2.6-6.8 3.6-7.3 3.4-14 8.2-20.8 12.4-2.2 1.4-.6 3.1.8 4.3 1.5 1.2 3.2 2.2 4.9 3.1 1 .7 2 .9 3.1.7 5.9-3.4 11.8-6.8 17.7-10.3 2.1-1.2 4.1-2.5 6.2-3.7 3.3-2.2 6.8-4.5 9.7-7.2 3.1-2.8 5.6-5.7 7.7-9.3.7-1.2 1.3-2.3 2-3.5 1.2-2.7 2.2-5.6 3-8.5.1-.4-1-1.8-1.1-2-.2-.1-1.4-1.6-1.4-1.8z"/><path id="XMLID_660_" class="st2" d="M269.7 163.5c-.5 2.7-1.5 5.3-2.8 7.7-1.3 2.5-2.8 4.8-4.3 7.2-4.4 6.2-9.9 11-16.4 14.3-5.6 3.4-11.1 6.8-16.6 10.3-.7.4.3 1.1.6 1.2.6.3 2.6.7 3.2.3 15.1-8.8 11.6-6.1 19.7-12 2.7-2 5.8-4 8.2-6.5 3.2-3.2 6.1-7.1 8.2-11.1.6-1.3 1.3-2.7 1.9-4 .9-2.9 1.8-5.8 2.5-8.8.2-.7-1.1-.1-1.2 0-.6.2-2.8.8-3 1.4z"/><path id="XMLID_659_" class="st2" d="M280 165.9c-2.3 5-3.5 10.3-3.7 16 .1-.5.3-1 .4-1.4-.8 2.2-2 4.2-3.4 6 .8-.9 1.6-1.9 2.4-2.8-4.6 4.1-9.1 8.2-13.7 12.3 2.8-2.1 5.6-4.3 8.3-6.4-7.8 5.5-15.6 11-23.5 16.4-.6.4-5.8 3.8-3.2 5.3.7.5 1.5.5 2.4 0 2.6-1.2 5.1-2.7 7.5-4.3 10.3-7 20.7-13.9 29.2-23.2.3-.3.6-.7.9-1 1.8-1.9 3.5-3.9 5.1-6 .3-.6.5-1.2.8-1.8.1-.9-.1-1.9-.5-2.7-.5-1.6-1.4-1.7-2.9-1.1-2.4 1.1-4.8 1.8-7.4 2.3.9.9 1.9 1.8 2.8 2.8 0-3.5-.4-6.9-1.3-10.2-.1-.4-.2-.4-.2-.2z"/><path id="XMLID_658_" class="st2" d="M276.7 161.3c-.5 2.8-1.3 5.5-2.4 8.1-2.2 5.1-5.2 9.5-9.1 13.1-7.9 7.7-18.2 12.9-27.6 18.5-1.9 1.2 1.9 3.8 3.1 3.2 7.9-4.7 16.5-9.2 23.8-15.1 3.5-2.9 7.2-6.3 9.6-10.2.9-1.5 1.9-3 2.7-4.5l1.8-3.6c1.1-2.6 1.9-5.4 2.4-8.2.2-.8-4.2-1.9-4.3-1.3z"/><path id="XMLID_657_" class="st2" d="M265.3 169.1c-2.5 9.3-7.3 17.5-14.5 24.6-2 2.2-4.1 4.2-6.4 6.1.5-.4.9-.7 1.4-1.1-6.8 3.9-13.4 8-19.9 12.5-.5.3-2.2 1.2-2.4 1.8-.1.3-.1.7.5.4 27.5-15.6 11.3-5.2 26-16.3 1.6-1.2 3.5-2.3 4.8-3.8.8-1.1 1.5-2.2 2.3-3.3 1-1.2 1.9-2.4 2.7-3.7 2.7-4.2 4.2-8.7 5.5-13.5.3-1 .7-2.5.5-3.5 0-.6-.3-.9-.5-.2z"/><path id="XMLID_656_" class="st2" d="M271.1 182.2c-1.1 4.8-2.4 8.9-4.7 13.3-2.2 4-4.7 7.8-6.8 11.9.7-1 1.4-1.9 2.1-2.9l-6.3 5.7c.8-.6 1.5-1.1 2.3-1.7-8.6 6-17.7 11.1-27.3 15.4-.8.4.7 1 .8 1.1.6.2 2.5 1 3.2.6 6-4.3 12.1-8.4 18.3-12.3 2.5-1.5 4.8-3.2 6.9-5.3 2.6-2.2 5.1-4.3 7.5-6.7 4.8-4.8 6.8-11.5 8.3-17.9.2-.7-4.2-1.7-4.3-1.2z"/><path id="XMLID_655_" class="st2" d="M284.5 164.3c-.9 2.9-1.7 5.9-2.3 8.9-.3 1.5-.6 2.9-.9 4.4-.6 2.6-1.6 5-2.9 7.3-1.3 2.3-2.9 4.4-4.9 6.3.5-.4.9-.8 1.4-1.2-1.6 1.5-3.3 3-4.9 4.4.5-.4.9-.8 1.4-1.2-7.5 5.9-14.8 10.1-23.3 15.4-1 .3-1.6 1-1.9 1.9-.1.8.2 1.4.8 2 .8.5 1.7.6 2.7.1 1.5-.4 3-1 4.4-1.7 7.3-4.7 14.7-8.9 21.4-14.3 3.6-2.9 8.3-6.3 9.9-10.8.8-2.2 1.2-4.3.9-6.6-.1-1.2-.4-2.3-.8-3.4.5-3.5.2-6.9-.7-10.4 0 .3-.3-1-.3-1.1z"/><path id="XMLID_653_" class="st2" d="M266.6 167.6c-.6 2.5-1.7 4.6-3.4 6.5-2.5 2.9-5 5.9-7.5 8.8-3.3 3-6.6 5.9-10 8.8-6.5 4.4-13.1 8.8-19.7 13-.7.5-.2 2.3.5 2.6 1 .6 2.7-.1 3.5-.6 10.1-6.1 21.3-11.9 29.4-20.9 2.2-2.5 4.1-5.1 5.9-8 1.6-2.4 2.9-5 3.8-7.9.5-1.6.9-3.2 1.2-4.8.2-.9-1.3.2-1.3.2-.9.5-2 1.3-2.4 2.3z"/><path id="XMLID_652_" class="st2" d="M273.5 161.1c-.7 1.6-1.4 3.2-2.2 4.8 1-.2 1.9-.3 2.9-.5-.6-.5-1.1-1-1.7-1.5-.7-.5-1.4-.5-2.1-.1-1.3 1-2.8 1.7-4.4 2.2-1.2 1.5-2.4 3-3.8 4.4-1.5 1.7-3.2 3.3-4.9 4.8-5.3 5.1-11.1 9.4-17.6 13-1.1.8-1.9 1.9-2.2 3.3-.9 2.3-1.6 4.6-2.2 6.9-.6 1.3-.6 2.6-.1 3.9.5.7 1.2.9 2 .6 7.5-4.6 16-9.2 22.9-14.9 3.2-2.6 6.7-5.9 9.3-9.2.3-.4.5-.7.8-1.1 1.3-1.9 2.7-3.7 4.2-5.5.6-1.1 1.2-2.1 1.8-3.2.9-2.7 1.5-5.5 1.6-8.3.2.1-4.2-.1-4.3.4z"/><path id="XMLID_651_" class="st2" d="M282.5 174.3c0 6.4-1.8 12.5-5.2 18.2.1-.3.2-.5.4-.8-.9 1.9-2.2 3.7-3.7 5.2-1.5 1.7-3.1 3.3-4.9 4.7-7.2 5.8-15.6 10.2-23.5 14.9-1.1.7-1.1 2.8-.1 3.6.9.4 1.8.6 2.8.6 1 .1 1.9 0 2.9-.4 7.6-4.5 17.2-9.3 24.2-15.6 1.2-1.1 2.4-2.3 3.6-3.4.5-.7.9-1.4 1.3-2.1 3.5-5.8 3-13.3 3-19.8-.1.6-.1 1.2-.2 1.8.7-3.6 1.4-7.2 1.9-10.9-.1.5-1 1.5-1.2 1.9-.3.5-1.2 1.6-1.3 2.1z"/><path id="XMLID_650_" class="st2" d="M265.3 173.7c-.5 1.6-.9 3.1-1.4 4.7-.4 2.9-1.4 5.6-3 8-.8 2.2-1.9 4.1-3.5 5.8-2 2.5-3.9 5.1-5.7 7.7.8-.9 1.6-1.7 2.4-2.6-2 1.6-4.2 3-6.4 4.3-2.3 1.1-4.1 2.7-5.4 4.9l.8-.8c-5.8 3-11.5 6-17.3 9-.5.3-.2 1.9-.2 2.3 0-.1.1 2.4.3 2.3 4.9-5 10.6-8.7 17-11 .9-.2 1.7-.6 2.5-1 1.2-1.1 2.3-2.2 3.4-3.3 2.2-2.2 4.5-4.2 6.9-6 2.4-2.7 3.6-5.1 5.5-8.1.8-1.2 1.6-2.3 2.4-3.5 1.7-2.7 2.9-5.6 3.4-8.8.2-.8-.6-2.3-.9-3.1.1.2-.6-1.5-.8-.8z"/></g></g></g><g id="XMLID_67_"><g id="XMLID_630_"><g id="XMLID_631_"><path id="XMLID_645_" class="st2" d="M64.5 85.8c-1.4 1.8-2.1 3.4-2.3 5.7-.4 3.5-.2 7.2.1 10.7.5 5.2.4 10.3 2.2 15.3 1.2 3.5 2.7 6.5 5.1 9.4.7.8 4.5-1.2 4.2-1.6-2.7-3.6-5.2-7.6-6.5-12-.9-3.2-1.5-6.6-1.8-9.9-.3-3.1.1-6.1.4-9.2.1-1.5.3-3 .4-4.4.3-2 1.1-3.8 2.5-5.4-.1.1-2 .6-2.2.6-.4.1-1.7.4-2.1.8z"/><path id="XMLID_644_" class="st2" d="M58.3 76c-.5.1-.9.4-1 .8-.7 2.2-1.5 4.4-2.4 6.6-.3.4-.7.9-1 1.3-.9 2.7-2.2 5.2-3.8 7.5.5-.5 1.1-.9 1.6-1.4-2.2.6-4.9 1-6.9 2.1-.5.2-1 .5-1.4.9-.8.6-1.5 1.2-2.2 1.8-.6 1.2-.3 2.5-.1 3.8.5 3.7 2.3 5.1 4.7 8 2 2.3 4.6 4.6 7.2 6.2 1.2.8 3.2 2.3 4.5.9.1-.2.3-.3.4-.5.5-1 .3-1.9-.5-2.8l-1.5-2.7c.2.5.5 1.1.7 1.6l-1.8-4.5.6 1.5c-.4-1.4-.7-2.8-.8-4.2-.3-2-.3-4-.1-6v1c.5-2 .8-4 1.2-6.1.2-1.9.7-3.8 1.4-5.7.3-2 .7-4.1 1.1-6.1l-3.1 3.1c1.9-1.2 3.8-2.4 5.7-3.7.2-.1-1-2-1-2-.1.5-1.4-1.5-1.5-1.4z"/><path id="XMLID_643_" class="st2" d="M57.3 67.2c-3.7 5.2-3.4 11.5-3.5 17.7 0 2.9.2 6 1 8.8 1.2 4.5 3.5 8.2 6.3 11.8 1 1.2 4.8-.8 3.7-2.5-1-1.5-1.9-3-2.9-4.4-2.3-3.4-3.4-7-3.3-11.1-.7-3.9-.6-7.8.2-11.7-.6-3.9.3-7.3 2.6-10.3-.2.2-1.9.7-2.1.8-.4.2-1.7.5-2 .9z"/><path id="XMLID_642_" class="st2" d="M68.6 72.6c-1.2.6-2 .9-2.8 1.9-.7.8-1.3 1.9-1.6 3-.3 1.4 0 2.9.1 4.3.3 3.1 1.6 6.3 2.4 9.3-.1-.4-.2-.8-.2-1.1.3 3.9.7 7.9 1.3 11.7.6 3.5 1.9 6.4 3.6 9.5.4 0 .9.1 1.3.1 1.6-.4 3.1-.8 4.7-1.2.5-.3 1.1-.6 1.6-.9 1.4-1.4 2.7-3 3.9-4.6 1.1-1.3 2.1-2.7 3-4.1 1.2-1.6 2.3-3.3 3.3-5.1 1.3-1.9 1.7-3.8 1.1-5.7-.1-.8-.5-1.4-1.2-1.9-.2-.5-.4-1-.7-1.5-.6-.8-1.1-1.7-1.5-2.6-.2-.9-.7-1.5-1.6-1.8-1.1-.8-2.2-1.7-3.2-2.7-.3-.2-.7-.3-1-.5-3.9.4-7.8.7-11.7.7l.9.3c-.8-.4-1.6-.7-2.4-1.1.3.1.5.3.8.4-1-.7-2.1-1.4-3.1-2.1.5 1.1 1 2.2 1.4 3.3.1-1.2.5-2.2 1.2-3.2.4-.7.3-1.9.4-2.6v-1.8z"/><path id="XMLID_641_" class="st2" d="M64.2 64.8c-1.6 2.3-2.4 4.4-2.7 7.3-.3 3.3-.4 6.7-.3 10.1.1 3.8.5 7.7 1.7 11.3.6 2 1.4 3.9 2.4 5.8 1 1.8 2.2 3.4 3.8 4.7.6.6 2.6.5 3.2.1.8-.4 1.1-1.4.7-2.3-.5-2.3-1.6-4.3-3.1-6-.9-.9-1.5-2-2-3.2-2.1-4.3-2.4-9.1-2.3-13.8.1-2.4 0-5 .5-7.4.4-2 1.2-3.6 2.4-5.3 0-.1-2.2-.7-2.1-.7-.1-.1-2.1-.8-2.2-.6z"/><path id="XMLID_639_" class="st2" d="M53.3 72.1C49 78 48.6 85.7 48 92.7c-.4 4.2-.5 8.5.6 12.6.4 1.5 1 3 1.7 4.4 1.1 2.2 1.8 2.6 3.8 5 .7.8 1.5.8 2.2.1.5-.6 1.8-2.2 1.1-3.1-5.3-6.8-6.2-19.9-7.3-29.3 0 .6-.1 1.2-.1 1.8.1-2.9 1-5.4 2.7-7.6.3-.5.3-1.7.4-2.2 0-.3 0-2 .2-2.3z"/><path id="XMLID_638_" class="st2" d="M58.6 85.6c-.9 1-1.6 2.2-2 3.5-.5 1.5-.8 3-.9 4.6-.5 4.2-.5 8.8.1 13 .4 2.3 1 4.6 1.7 6.8.9 2.6 1.8 5.1 2.6 7.7.5 1.3 1.1 2.6 1.8 3.8.6 1.3 1.7 2.4 3.1 3.1.4.4.6.3.8-.2.2-.7-.9-2.2-1.2-2.8-1.8-2.7-3.5-5.5-4.9-8.4.3.9.7 1.8 1 2.6-1-4.1-1.2-8.4-1.1-12.6.1-3.3 0-6.6.3-9.8.1-1.6.3-3.1.6-4.7.4-2.3 1.2-3.9 2.5-5.8l-2.2-.6c0 .2-2.1-.4-2.2-.2z"/><path id="XMLID_637_" class="st2" d="M73 71.2c-1.4.8-2.4 1.4-3.4 2.8-.6.9-1 1.8-1.2 2.8-.5 3.6.1 7.5.4 11.1.5 5.5 1.4 10.9 3.5 15.9.6 1.3 1.2 2.6 1.9 3.9 2 3.6 2.5 3 6.5 3.4 1.5.1 2.6-1.4 3.5-2.4.6-.6 1.2-1.3 1.7-2 .7-.8 1.3-1.7 1.7-2.7 1.1-1.9 1.2-3.7.4-5.3-.4-1.1-1.2-1.8-2.4-2.3-.6-.7-1.2-1.3-1.8-2-1.1-.7-2.2-1.6-3.1-2.5-1.8-1.7-4.1-3.2-5.7-5.3-.8-1.4-1.7-2.9-2.5-4.3-.8-1.2-1.4-2.5-1.9-3.8.1.4.2.7.2 1.1.4-1.7 1.3-3 2.8-4 .3-.2-.1-2.1-.2-2.3 0 .1-.3-2.2-.4-2.1z"/><path id="XMLID_636_" class="st2" d="M58.9 67c-2.7 2.3-4.8 5-6.1 8.3.6-.9 1.2-1.7 1.8-2.6-2 2.4-3.2 3.2-3.9 6-.8 3.5-1.7 7.1-2 10.7-.3 2.7-.4 5.1.5 7.7 1.2 3.4 3.4 6.2 5.5 9.1 1 1.3 2.3 2.6 3.9 1.3s.7-2.8-.3-4.1c-.7-1-1.5-2.1-2.2-3.1.2.5.4 1.1.6 1.6-.6-1.4-1.1-2.8-1.7-4.2.2.5.3 1 .5 1.5-.4-1.4-.8-2.7-1.2-4.1.1.4.2.9.4 1.3-.5-2.2-.8-4.4-.8-6.7 0-3.9.4-7.9 1.1-11.7.1-1.3.2-2.5.4-3.8-.1-2 .5-3.8 1.8-5.3-.8 1-1.6 2.1-2.4 3.1.5-.5 1-.9 1.4-1.4 1.1-1 1.6-2.7 2.7-3.6z"/><path id="XMLID_635_" class="st2" d="M62.2 67.9c-1 .5-1.7.8-2.4 1.8-.4.6-.7 1.5-1 2.3-.5 1.8-.5 4-.5 5.9 0 3.8.1 7.7.7 11.5.8 5.1 2.6 9.7 5.2 14.1.7.8 1.4.7 2.1-.1.6-.4 1.1-.7 1.7-1.1.2-.4.4-.9.6-1.3.2-1.5.2-3.1 0-4.6-.2-2.8-.4-5.6-1.1-8.3-.3-1.9-.8-3.7-1.6-5.5-.4-1-.9-2-1.5-3 .3.6.5 1.2.8 1.7-.5-1.5-.9-3-1.3-4.4-.1-1.2-.3-2.4-.6-3.5 0 .9.1 1.8.1 2.6v-3.4c.5-2 1.6-3.6 3.2-5h-1.7c-.9 0-1.9-.1-2.7.3z"/><path id="XMLID_634_" class="st2" d="M73.5 77.3c-2.2.9-4 1.8-5 4.1-.4.9-.5 2.1-.6 3.1-.2 2.6-.1 5.3 0 7.9.2 5.4.7 11.2 2.6 16.3.8 2.2 1.9 4.4 3.3 6.3.4.6.9 1.2 1.3 1.7 1.2 2 3.2 3.1 5.8 3.2.5-.1.9-.2 1.4-.2.9-.3 1.8-.6 2.7-1.1 1.1-.6 1.9-1 2.3-2.3l.6-2.4c.2-.8 0-1.5-.7-2-2.1-1.4-4-2.8-5.9-4.3-1-.8-2-1.6-2.9-2.3-1.6-1.1-2.9-2.5-3.7-4.2-3.4-5.3-5.1-12.4-5.6-18.6v2.8c.7-1.4 1.4-2.8 2.1-4.1.6-.6 1-1.5 1.5-2.2.1-.5.5-1.6.8-1.7z"/><path id="XMLID_632_" class="st2" d="M53 77c-5.2 7.3-3.5 15.8-4.2 24.3-.2 2.4-.3 5.1-.1 7.5.2 1.9.5 3.8 1 5.6.6 2.8 2.3 4.8 5 6.2.7.6 1.5.3 2-.3.4-.5 1.1-2.5.6-3.1-2.4-3.5-4.2-6.9-5.2-11-1.1-4.7-.9-9.6-1.5-14.4v2.8c.4-2.5.6-5.4 1.3-7.9.6-2 1.4-3.7 2.6-5.5.2-.3-.6-2-.7-2.2.1.1-.8-2-.8-2z"/></g></g></g><g id="XMLID_66_"><g id="XMLID_614_"><g id="XMLID_615_"><path id="XMLID_628_" class="st2" d="M248.6 144.5c-.3 1.2-.5 2.4-.8 3.7-.5 2.5-1.6 4.7-3.3 6.5-.9 1.8-2.1 3.2-3.7 4.3-1.6 1.4-3.3 2.6-5.2 3.6-.5.3 1.4-.3 1.1-.2 1-.3 2.1-.6 3-1.1 3.3-2.1 6.9-4.3 9.3-7.6 2.3-3.1 3.1-7 3.8-10.7 0 0-2.2.7-2.2.6-.1.1-2 .6-2 .9z"/><path id="XMLID_627_" class="st2" d="M241.2 125.6c-.4 2.3-1.2 4.5-2.3 6.5-2.7 4.7-6.3 8.3-10.9 10.9-.4.3 1.3-.4 1.1-.3.9-.4 2.1-.7 2.9-1.3 2.5-1.4 4.7-3.1 6.8-5.1.8-.9 1.6-1.9 2.2-3 .7-1 1.4-2 2-3 1.2-2 1.9-4.2 2.3-6.5 0 .1-2.1.8-2.1.8-.1.1-1.9.7-2 1z"/><path id="XMLID_625_" class="st2" d="M248.2 123.2c-.8 3.5-1.7 6.3-3.8 9.3l-2.4 3c-2.1 2-4.3 3.7-6.8 5.1l2.1.7c.2.1 1.9.7 2.2.5 3.6-2.3 6.8-4.5 9.2-8.1.6-.9 1.2-1.9 1.8-2.8 1-2 1.7-4.2 2-6.4.1-.3-4.3-1.4-4.3-1.3z"/><path id="XMLID_624_" class="st2" d="M237 130.8c-.3 1.2-.7 2.3-1 3.5-.9 2.3-2.1 4.4-3.7 6.2-.9 1.7-2.1 3.1-3.7 4.2-1.6 1.4-3.3 2.7-5.1 3.7-.3.2-.4 2-.4 2.2 0 0-.1 2.2-.2 2.3 2.5-1.4 4.7-3.1 6.7-5.1.7-.9 1.5-1.9 2.1-2.9.7-1 1.5-2.1 2.2-3.1 1.2-2.1 2.1-4.4 2.5-6.8.3-1 .3-2.1.5-3.2.1.3.3-1.5.1-1z"/><path id="XMLID_623_" class="st2" d="M242.6 144.3c-.8 3.6-1.8 7.6-4.2 10.6-2.5 3.2-5.7 5.4-9 7.6.2-.1 2.1.6 2.2.6.2 0 1.9.7 2.2.5 3.2-2.1 6.9-4.4 9-7.6 2.2-3.3 3.3-6.8 4.2-10.6 0-.1-4.4-1.2-4.4-1.1z"/><path id="XMLID_622_" class="st2" d="M236.8 135.6c-.3 1.9-.9 3.6-1.8 5.3-.7 1.8-1.7 3.4-2.9 4.9l-2.1 2.7c-2 2-4.3 3.6-6.7 5-.4.3 1.7 4.2 1.5 4.3 3.5-2.3 6.4-4.3 8.8-7.7.7-1.1 1.4-2.1 2.1-3.2 1.2-2.2 2.1-4.5 2.6-7 .1-.5-.5-1.8-.7-2.2 0-.2-.8-1.9-.8-2.1z"/><path id="XMLID_621_" class="st2" d="M240.9 132.1c.4 2.1.7 4.2 1.1 6.2-.1-1.1-.2-2.1-.4-3.2-.5 2.4-.9 4.8-1.4 7.2.6-1.2 1.1-2.4 1.7-3.5-2.8 3.3-5.5 6.6-8 10.1-1.1 1.5-2 3.2-2.7 5.1.9-1.1 1.8-2.3 2.6-3.4-3.8 1.5-7.4 3.4-10.8 5.7-.2.1 2.4 3.8 2.9 3.5 4.1-1.6 6.8-4.6 7.9-9.1-.9 1.1-1.8 2.3-2.6 3.4 2.3-1.7 4.6-3.5 6.9-5.2.4-.5.7-1.2.9-1.8.5-1.1 1.1-2.2 1.6-3.3 1.3-2.4 2.1-5 2.4-7.8.1-.4-1-1.8-1.1-2 .2-.1-1-1.6-1-1.9z"/><path id="XMLID_620_" class="st2" d="M251.1 128.9c-.6 1.2-1.1 2.3-1.6 3.5-1.1 2.9-2.3 5.8-3.5 8.6-2.8 4.3-7.2 7.2-11.3 10.2-1 .7 1.2 4.6 2 4.1 3.4-2.4 6.7-4.6 9.6-7.6 1.7-1.8 3.5-3.7 4.5-6.1 1.6-4.1.8-8.2.5-12.6-.1-.2-.1-.2-.2-.1z"/><path id="XMLID_619_" class="st2" d="M255.7 127.3c-.6 4.2-1.3 8.3-3.2 12.2-2.7 5.5-8.5 8.4-13.6 11.3-.3.2.1 2.1.1 2.3 0-.1.3 2.3.5 2.2 4.3-2.5 8.6-5 11.9-8.7 3.5-3.9 4.4-9.8 4.9-14.9.1-.8-.2-1.8-.3-2.7-.1-.4-.4-1.2-.3-1.7z"/><path id="XMLID_618_" class="st2" d="M238.5 130.3c-.8 3.1-1.5 5.5-3.8 8.2-.9 1.3-2.2 2.4-3.7 3.2-2 2.1-4.4 3.7-7.1 4.7-.5.3-1.1 1.3-1.4 1.8-.2.3-1 1.7-1.3 1.8 4.5-2.3 8.9-4.7 12.1-8.8 1.7-2.2 3.4-4.4 4.9-6.6 1.7-2.5 2.3-4.8 3-7.6.1-.6-1 .9-.9.7-.4.7-1.5 1.7-1.8 2.6z"/><path id="XMLID_617_" class="st2" d="M244.7 124.1c.1 2.3-.3 4.5-1 6.7-.9 1.9-2.1 3.7-3.5 5.3-3.6 4.3-8 7.6-12.4 11.1 0 0 1.5.3 1.7.3.7.1 2 .4 2.7 0 1.4-.7 2.8-1.3 4.1-2l3.6-3c2.4-2.2 4.3-4.7 6.1-7.4 1-1.4.9-1.4 1.6-2.9 1.2-2.8 1.4-5.5 1.6-8.5 0 .1-4.5 0-4.5.4z"/><path id="XMLID_616_" class="st2" d="M253.7 137.3c-.1 2.3-.5 4.6-1.2 6.9-.5 2.3-1.4 4.4-2.6 6.4.6-1 1.3-2 1.9-3-2 2.6-4.5 4.7-7.3 6.3-1.8 1.1-3.5 2.2-5.3 3.4-.7.5-1.3 1.9-1.8 2.7.1-.2-.9 1.3-.4 1 5.2-3.2 11-6.2 14.3-11.5 3-4.8 4.2-10.4 4.8-16 0 .5-1 1.6-1.2 1.9-.2.4-1.1 1.4-1.2 1.9z"/></g></g></g><g id="XMLID_65_"><g id="XMLID_598_"><path id="XMLID_602_" class="st1" d="M83.7 298.6c-12.7-7.1-25.4-14.5-36.5-23.9-5.2-4.4-11.3-9.7-14.4-15.8-3.5-6.9-6.1-14.2-8.8-21.4-2.3-6.2-3.9-13-5.4-19.5-1.5-6.1 1.1-13.6 2.6-19.7 3.8-15.3 9-29.5 19.2-41.7 6.1-7.2 12.4-14.2 18.5-21.3 5-5.7 10.3-12.8 18.6-12.7 0 0 .1-5 0-5-8-.1-13.2 6.5-18 12-6.2 7.1-12.5 14.2-18.6 21.4-5.6 6.6-10 13.2-13.2 21.3-3.2 7.9-5.5 16.2-7.4 24.5-2.5 11.1-3.7 20-.4 31 4.5 15 7.9 32.2 18.9 44 12.6 13.5 28.9 23 44.9 31.9-.7-.5.7-4.7 0-5.1z"/></g></g><g id="XMLID_64_"><g id="XMLID_592_"><path id="XMLID_596_" class="st1" d="M105.5 141.1l-.9-1.5v5c7.6 3.1 15.4 3.8 23.5 2 0 0 .2-4.7 0-5-3.9-4.4-2.7-12-2.4-17.4.3-5.5 2-10.1 5.5-14.3.4-.5-.4-4.9 0-5-2.2.6-4.2.9-6.4.5-1.6-.2-3.9-1.7-5.4-1-1.4.6-2.7 4.5-3.4 5.8-1.1 1.9-2.1 3.9-3.2 5.8-2.2 3.9-4.5 7.6-5.6 12-1.1 4.3-1.4 8.5-3.5 12.5-.7 1.3.7 3.7 0 5 2.1-4 2.4-8.2 3.5-12.5 1.1-4.4 3.4-8.1 5.6-12 1.1-1.9 2.1-3.9 3.2-5.8.7-1.3 2-5.2 3.4-5.8 1.6-.7 3.9.8 5.4 1 2.2.3 4.3 0 6.4-.5v-5c-5.1 6.1-5.7 12.7-5.7 20.2 0 6.1-1.8 16.5 2.6 21.5v-5c-8 1.8-15.9 1.1-23.5-2 .5.2-.4 4.4 0 5l.9 1.5c-.8-1.2.7-3.8 0-5z"/></g></g><g id="XMLID_63_"><g id="XMLID_585_"><path id="XMLID_590_" class="st1" d="M114 149.9c-8 2.5-19 4-23.6-5-3.4-6.5-.7-13.7-3.4-20.3-1.5-3.9-4.3-7.1-6.2-10.9-1.7-3.6-1.5-7.1-1.8-10.9-.3-4.2-2-8.2-4.8-11.4-2.8-3.2-6.8-4.9-8.6-8.9v5c5.6-1.6 8.2 15.9 9.1 19.5 2.2 9 3.6 17.7 3.2 27.1-.1 2.8-.3 5.7 0 8.5.8 6.9 7.1 11.3 13.8 10.4.2 0-.2-5 0-5-5.8.7-12.6-2.9-13.8-9.1-.5-2.4.4-6 .4-8.6V125c-.1-5.8-5-44.7-12.6-42.5-.1 0-.2 4.6 0 5 1.7 3.8 5.3 5.5 8.1 8.4 3.2 3.3 4.9 7.5 5.2 12.1.2 3.3.1 6.3 1.3 9.4 1.6 4.1 4.7 7.5 6.4 11.5 2.9 6.7.1 14.3 3.7 21 4.7 8.9 15.5 7.4 23.6 5 .5-.1-.5-4.8 0-5z"/></g></g><g id="XMLID_62_"><g id="XMLID_578_"><path id="XMLID_583_" class="st1" d="M92.9 150.1c3-.7 5.8-1.6 8.5-2.9.3-.1 0-5 0-5-2.1-.3-4.2-.6-6.3-1-1.5-.2-3.2-.3-4-1.7.3.4 0 2 0 2.5 0 .6-.3 2 0 2.5.9 1.4 2.6 1.5 4 1.7 2.1.3 4.2.6 6.3 1v-5c-2.7 1.3-5.6 2.3-8.5 2.9-.4.1.3 5 0 5z"/></g></g><g id="XMLID_35_"><g id="XMLID_571_"><path id="XMLID_576_" class="st1" d="M85.1 133.3c5.9 2 11.9 3.2 18.1 3.8-.2 0 .3-4.6 0-5-2-2.3-2.3-4.1-2.3-5.7 0-1.3.1-2.7.1-4 0-4.6-1.8-8.7-2-13.3v4.9c.7-4.8 2.8-8.9 2-13.9-.7-4.5-5.1-7.6-8.7-10-4.3-2.9-8.8-4.8-14-4.9v5c4.7-1.3 9.7-2.4 14.3-.1 4 2 6.8 6 8.4 10.1 2.9 7.5.7 19.8 8.3 24.6-.7-.5.8-4.5 0-5-7.6-4.8-5.4-17.1-8.3-24.6-1.5-3.9-4.1-7.6-7.8-9.8-4.7-2.7-9.9-1.6-14.9-.2-.3.1.1 5 0 5 8 .1 21.7 6.5 22.8 15.6v-5c-.4 3.5-2 6.5-2.1 10-.1 3 .3 5.6 1.1 8.6 1.5 5.2-1.1 12.8 3.1 17.7v-5c-6.2-.6-12.2-1.9-18.1-3.8.4.2-.5 4.8 0 5z"/></g></g><g id="XMLID_34_"><g id="XMLID_564_"><path id="XMLID_569_" class="st1" d="M124.1 131.8c13.6-5.4 26.5-12.3 38.3-21 5.3-3.9 10.3-9.5 16.4-12.3 5-2.3 11.7-1.7 13.8 4.1v-5c-5.8-3.3-11.2.6-15.3 4.7-4.7 4.6-9.5 7.2-15.2 10.2-10 5.2-19.4 12.2-23.4 23.1-.4 1.2.7 4.1 0 5 3.9-4.6 9.5-4.6 15.1-4.3 6.5.4 12.7-.7 19.2-1.1 12.7-.7 25.5 6.2 36.1 12.5v-5c-11.4-2.4-22.9-4.4-34.4-6-5.6-.8-11.1-1.7-16.7-.8-4.6.7-9.2 1.7-13-1.7.8.7-.8 4.3 0 5 3.6 3.2 7.8 2.5 12.2 1.8 5.9-.9 11.6-.1 17.5.7 11.5 1.6 23 3.7 34.4 6-.4-.1.5-4.7 0-5-10.7-6.3-23.4-13.2-36.1-12.5-6.2.3-12.1 1.5-18.4 1.2-5.9-.3-11.9-.6-16 4.3v5c3.9-10.9 13.4-17.9 23.4-23.1 5.5-2.9 10.2-5.3 14.7-9.6 4.3-4.2 9.8-8.7 15.9-5.2-.5-.3.3-4.3 0-5-1.9-5.4-8.2-6.4-13.1-4.4-6.4 2.6-11.6 8.6-17.1 12.6-11.8 8.6-24.7 15.6-38.3 21-.6 0 .6 4.6 0 4.8z"/></g></g><g id="XMLID_33_"><g id="XMLID_556_"><path id="XMLID_561_" class="st1" d="M117.6 159.1c4.1.6 15.8 2.3 17-3.1.7-2.8-.5-6-.7-8.7v4.9c1.5-4 7.7-3.2 11.2-3.3 5.8-.2 11.9-.5 17.6.5 4.4.8 8.8 2.7 11.7 6.3 1.3 1.6 1 2.1 1.4.2.2-.8 0-2 0-2.8-.1-2.6-.4-4.6-2.7-6.4-4.1-3.1-10.3-4.8-15.1-6.3-9.1-2.9-20.8-6.6-29.6-1.1-.8.5.7 4.6 0 5 7.4-4.6 16.4-2.6 24.3-.5 4.8 1.3 9.5 2.9 14.1 4.8 3.8 1.6 8.4 3 9.1 7.6v-5c-.4 2.2-.9 0-1.9-1.1-.9-1.1-2.1-2-3.3-2.8-2.1-1.4-4.6-2.3-7-2.8-6.8-1.5-14.4-.9-21.3-.6-3.5.1-8-.1-8.4 4.2-.3 2.7.2 5.4.7 8.1v-5c-1.2 5.1-13.2 3.5-17 2.9.1 0-.4 5-.1 5z"/></g></g><g id="XMLID_190_"><g id="XMLID_549_"><path id="XMLID_554_" class="st1" d="M116.2 155.9c.8.7 1.6 1.3 2.3 2v-.7-1.8-1.8c0-.1.1-.7 0-.7-.8-.7-1.6-1.3-2.3-2v5z"/></g></g><g id="XMLID_260_"><g id="XMLID_542_"><path id="XMLID_547_" class="st1" d="M76.6 133.1c0-.7-.1.7-.1 1 0 .4-.1.9-.1 1.3-.1.9-.3 1.7-.5 2.5-.4 1.6.4 3.4 0 5 .6-2.8.8-5.6.8-8.5 0-1 .2-2.1 0-3.1v.3c-.2.5-.1 1-.1 1.5z"/></g></g><g id="XMLID_354_"><g id="XMLID_535_"><path id="XMLID_540_" class="st1" d="M84.2 120.2c5.6-2.5 11.5-3.3 17.7-2.5-.2 0 .3-5 0-5-6.1-.8-12 0-17.7 2.5-.6.3.6 4.8 0 5z"/></g></g><g id="XMLID_448_"><g id="XMLID_495_"><path id="XMLID_533_" class="st1" d="M107.6 113.2c-.3 0-.6 0-.9.1v5c1.7-.1 3.5-.3 5.2-.4.2 0-.1-5 0-5-1.7.1-3.5.3-5.2.4-.2 0 .1 5 0 5 .3 0 .6 0 .9-.1.1 0-.1-5 0-5z"/></g></g><g id="XMLID_455_"><g id="XMLID_479_"><path id="XMLID_493_" class="st1" d="M128.5 116.8c5.6 0 12.3-.8 17.4 2-.7-.4.7-4.6 0-5-5.1-2.9-11.7-2-17.4-2v5z"/></g></g><g id="XMLID_32_"><g id="XMLID_473_"><path id="XMLID_477_" class="st1" d="M154.8 124.5c7.8 0 14.3 4 20.4 8.4-.8-.6.8-4.4 0-5-6.1-4.4-12.6-8.4-20.4-8.4v5z"/></g></g><g id="XMLID_469_"><g id="XMLID_465_"><path id="XMLID_471_" class="st1" d="M188 145.6c7.5 3.9 16.6 8.1 21.8 15 5.2 6.9 7.2 16.6 8.5 25 .8 5.1 1.2 10.3 1.4 15.4.3 7.2.9 17.1-1 24.3-1 3.7-3.3 6.9-4.5 10.6-1.5 4.7-2.3 8.5-5 12.8-8.8 14.1-18.8 28.2-32.3 38.1-14 10.4-31.1 14.4-48.3 15.6-9.6.7-19.2.6-28.8.5-8.1-.2-17.1-.8-22.3-7.7.8 1.1-.8 3.9 0 5 5.2 7 14.3 7.6 22.3 7.7 9.6.2 19.3.2 28.8-.5 19.5-1.4 38.3-6.6 53.3-19.7 7.3-6.4 13.5-14 19.1-21.9 2.5-3.5 4.9-7.2 7.3-10.8 1.3-2.1 2.7-4.2 3.7-6.4 1.1-2.5 1.3-5.2 2.1-7.8 1.4-4.6 4.3-8.4 5-13.3.6-4.3.5-8.8.6-13.1.1-6.4.2-12.9-.1-19.3-.5-11.3-2-23-6.4-33.5-4.5-10.7-15.4-16.1-25.2-21.2.6.5-.7 4.8 0 5.2z"/></g></g><g id="XMLID_29_"><g id="XMLID_458_"><path id="XMLID_463_" class="st1" d="M53.5 135.9c-7.4-6-9.8-14.9-10.7-24.1-.6-6.8-1.4-13.7 0-20.4.9-4.3 3.9-7.6 5.2-11.9 2.7-8.9 5.8-15.9 13.6-21.5 8.7-6.1 19.4-8 29.8-7.6 0 0 .1-5 0-5-12.1-.4-24.7 2.3-33.7 10.9-3.9 3.7-6.8 8.2-8.4 13.4-1 3.2-1.5 6.4-3.1 9.4-1.3 2.3-2.7 4.2-3.3 6.9-1.7 7.7-1.2 16.5-.6 24.3.8 11.2 1.9 23.1 11.2 30.7-.7-.7.9-4.4 0-5.1z"/></g></g><g id="XMLID_497_"><g id="XMLID_449_"><path id="XMLID_454_" class="st1" d="M108.6 55.2v-5c-.1 0-.1 5 0 5z"/></g></g><g id="XMLID_28_"><g id="XMLID_441_"><path id="XMLID_446_" class="st1" d="M108.6 50.3c-15.6 12.4-34.9-5.6-52-1-.4.1.3 5 0 5 7.4-1 14.9-1.6 22.4-1.7 7.2-.1 14.3.5 21.3-1.3.1 0 0-5 0-5-13.5-2.6-26.7-6.4-39.7-11.3v5c15.8-.2 31.2 3.1 46.5 6.6-.3-.1.3-4.5 0-5-2-3.8-1.1-7.6-1.5-11.6-.7-6.7-5.9-10.8-11-14.4v5c3.5-.3 7.1-.6 10.6-.9 1.6-.1 3.2-.3 4.8-.4 2-.2 3.7-1.3 4.1 1.2v-3.8V17.1c-.5 4.9-1.9 11.8 1 16.2 1.6 2.4 7.4 8.6 4.9 11.9-1.1 1.4-6.1 1.1-7.6.8-2.6-.4-4.9-1.5-7.1-3 .8.5-.8 4.4 0 5 3.2 2.2 10.2 5.1 14 2.4 1.8-1.2 1.3-4.9 1.3-7.1 0-2.3 0-4.6-.7-6.9-1.4-4.9-6-7.9-6.4-13v4.9c.2-4.1.9-8.1.6-12.3 0-.6.1-1.8-.2-2.1-.5-.5-5.2.4-5.8.5-4.5.4-9 .8-13.5 1.1.1 0-.3 4.8 0 5 5.2 3.7 10.4 7.9 11 14.7.3 4-.6 7.6 1.5 11.4v-5c-15.3-3.4-30.7-6.7-46.5-6.6.1 0-.3 4.9 0 5 12.9 4.9 26.2 8.7 39.8 11.4v-5c-7 1.8-14.2 1.2-21.3 1.3-7.5.1-15 .7-22.4 1.7v5c17.1-4.6 36.4 13.5 52 1 .8-.8-.9-4.5-.1-5.1z"/></g></g><g id="XMLID_27_"><g id="XMLID_435_"><path id="XMLID_439_" class="st1" d="M107.5 56.7c10.1-3.2 21.1-3 30.8 1.4 4.1 1.8 7.9 4.3 11.3 7.4 1.9 1.7 3.6 3.5 5.1 5.5 1 1.3 2.5 4.9 3.7 5.6 1 .6.7-.1.8-1.2.2-1 0-2.3 0-3.3 0-2.6-.6-4.2-2-6.5-4.6-7.2-11.5-18.6-20.6-20.1v5c19.2.3 37.8-5.3 53.6-16.1.4-.3-.3-5 0-5-12.7 1-24.7 4.8-36.9 8.2-5.8 1.6-11.6 3.1-17.5 4-5.1.8-11.7 2.2-16.4-.5.7.4-.7 4.6 0 5 4.5 2.5 10.6 1.3 15.5.6 6.2-.9 12.4-2.5 18.4-4.2 12.2-3.4 24.2-7.1 36.9-8.2v-5c-15.8 10.8-34.4 16.4-53.6 16.1.1 0-.2 5 0 5 5.7.9 9.5 5.4 13 9.6 3.5 4.2 8.3 9.4 9.7 14.8v-4.3c0 2.5-.8.9-1.6-.3-.6-1.1-1.3-2.1-2.1-3.1-1.3-1.8-2.8-3.5-4.4-5.1-3.4-3.4-7.3-6.2-11.6-8.3-10.1-4.9-21.6-5.4-32.2-2-.4.1.5 4.8.1 5z"/></g></g><g id="XMLID_26_"><g id="XMLID_429_"><path id="XMLID_433_" class="st1" d="M156.3 50.1c7.1-1.1 13.7 1.4 19.5 5.6 4.8 3.6 11.3 8.6 13.1 14.5-.5-1.5.5-3.5 0-5-1.8-5.9-8.3-11-13.1-14.5-5.8-4.2-12.3-6.7-19.5-5.6-.3.1.2 5 0 5z"/></g></g><g id="XMLID_21_"><g id="XMLID_423_"><path id="XMLID_427_" class="st1" d="M130.4 106.3c2.2-12.2 14-17.5 23.9-22.8 5.7-3.1 10.2-7.1 15.2-11.2 4.9-4 10.8-6.4 17-7.6 22.8-4.7 47.3 3.1 64.2 18.8-.8-.8.9-4.2 0-5-17-15.7-41.3-23.5-64.2-18.8-6.2 1.3-12.1 3.6-17 7.6-5 4.1-9.5 8.1-15.2 11.2-9.8 5.3-21.6 10.6-23.9 22.8-.3 1.6.2 3.4 0 5z"/></g></g><g id="XMLID_532_"><g id="XMLID_417_"><path id="XMLID_421_" class="st1" d="M253.1 121.2c3.1-15.7-9.9-27.6-21.2-36.4-3.4-2.7-7-5.6-11.1-7-4.8-1.6-10.2-1.8-15.2-2.3-11.3-1.2-22.7-1.8-34.1-1.9v5c12.8-4.6 26.5-6.1 39.9-4.1 10.3 1.6 26.5 5 31.2 15.8.8 1.9 1 5.9 2.9 7.1 1.8 1.1 1.2-.5 1.5-2.1.3-1.8.5-3.7.7-5.5.4-4.2.5-8.4.5-12.7 0-4.3-1.4-8.3 2.6-10.6 5.3-3.2 13.5-3.1 19.4-2.5v-5c-4.6 1.9-9.9 4.2-12.4 8.7-1.7 2.9-1.5 6.2-1.4 9.4.1 3.9 1.2 7.3-.5 11-1.6 3.4-2.4 5.8-2.4 9.5 0 2.3.7 7.4 4.3 5.9.9-.4 1.8-4.7 2.4-5.9 1.2-2.3 2.7-4.3 4.2-6.4 4.2-6 5.7-10.9 5.3-18.1V73c-.7 2.4-.8 5.5-.5 8 .2 2.4 1.7 4.7 1.7 7.1 0 3.1-2.7 6.5-4.8 8.4-.9.8.8 4.2 0 5 7.9-7.3 4.5-16.5 3.1-25.4V81c.2-7.9.4-3.7-.8-1.1-.5 1.1-1.1 2.2-1.8 3.2-1.5 2.3-3.2 4.5-4.7 6.8-1.5 2.4-2.1 4.9-3.3 7.3-.6 1.2-.6 1.8-2.3 1.4-1.8-.5-2.4-2.1-2.7-3.7v4.9c.2-3.6 2.6-5.9 3.5-9.3.4-1.6.4-3.2.4-4.8 0-4-.6-7.8-1-11.7v3.4c1-7.4 7.5-10.7 13.8-13.3.3-.1-.1-5 0-5-5.9-.6-13.4-.6-18.9 2.2-3.6 1.9-3.5 5.2-3.5 8.8 0 5.9.3 11.7-.5 17.6 0 .3-.6 5.4-.9 5.5-.9.2-2.1-2.2-2.3-2.7-1.1-2.3-1.2-4.7-2.6-6.9-5.9-9.5-20.9-12.7-31.1-14.1-13.2-1.9-26.6-.3-39.1 4.2-.3.1.2 5 0 5 8.9.1 17.7.5 26.5 1.2 7.8.6 17.6.5 24.8 3.9 6.6 3.1 12.9 9 18.1 14.1 5.6 5.4 11.7 12.2 12.5 20.3v-4.9c-.1 1-.3 2-.4 3.1-.2 1.4.5 3.2.2 4.8z"/></g></g><g id="XMLID_539_"><g id="XMLID_411_"><path id="XMLID_415_" class="st1" d="M264.5 101.7v3.5c-.1-.2 0-.6 0-.7v-1.8c.1-.3.1-.6 0-1v-1.8-.7c.1.2 0 .6 0 .7v1.8z"/></g></g><g id="XMLID_546_"><g id="XMLID_405_"><path id="XMLID_409_" class="st1" d="M264.2 106.2v-5 5z"/></g></g><g id="XMLID_553_"><g id="XMLID_399_"><path id="XMLID_403_" class="st1" d="M256.7 110.4c6.2-2.6 12.4-5.2 18.5-7.7 5.9-2.5 12.3-4.5 17.6-8.2v-5c-1.2 5.9-.8 12.9 2.9 17.8v-5c-8.8 1.5-18 6.5-24.8 12.1-1.5 1.3-2.9 2.7-3.9 4.5-.8 1.4-.3 1.8-1.5 1.5-.7-.2-1.8-1.8-2.4-2.3-3.4-3.5-5.8-7.2-6.4-12v4.7c-.1-1.5.2-3 .8-4.4.5-1.5-.5-3.5 0-5-2.9 8.2.2 16.5 6.1 22.4.4.4.8.8 1.2 1.1.9 1.6 1.5 1.5 1.8-.3 1-.8 1.7-2.6 2.6-3.6 2.1-2.2 4.8-3.8 7.4-5.4 6-3.7 12.1-7.1 19.1-8.3 0 0 .2-4.7 0-5-2.2-2.9-3.3-5.8-3.3-9.4v4.7c0-1 .2-2 .4-3 .2-.8-.5-4.6 0-5-5.3 3.7-11.7 5.7-17.6 8.2-6.2 2.6-12.4 5.2-18.5 7.7-.6.1.6 4.6 0 4.9z"/></g></g><g id="XMLID_560_"><g id="XMLID_393_"><path id="XMLID_397_" class="st1" d="M255 120.5c3 5.6 6.9 10.6 11.8 14.7 4.8 4 10.4 6.5 15.5 10.1 5.3 3.7 8.6 8.8 11.6 14.5 3.2 6.1 6.1 12.2 7.4 19v-5c-2-9.8-3.2-20.6-7.7-29.7-4.2-8.5-11-12.2-19.9-14.4.4.1-.5 4.8 0 5 12.6 6 25.8 12.5 34.4 23.9 3.9 5.2 6.1 10.7 7.7 16.9 1 4.1.2-3.5.2-4.4v-3-5.7c-.1-5.7-.7-11.4-3-16.6-2.7-6-6.8-9-12.5-11.9-5.2-2.7-9.2-7.4-14.6-9.8-5.1-2.3-13.7-.3-15-7.5v5c0-.8.2-1.6.7-2.2.7-1.3-.7-3.7 0-5-1.7 3.1-1.2 9.3 1.8 11.5 3.5 2.5 8.6 1.5 12.5 3.3 4.2 1.9 7.4 5.3 11.2 7.8 3.9 2.6 8.4 3.8 11.7 7.3 2.9 3.1 4.7 7.1 5.8 11.2 2.3 8.9 1 18.4 1.6 27.5 0 .1 0 .1 0 0 .5-10-1-19.1-6.7-27.6-8.5-12.5-22.4-19.6-35.8-25.8v5c9 2.2 15.7 5.9 19.9 14.4 4.5 9.1 5.6 19.9 7.7 29.7-.3-1.6.3-3.4 0-5-1.3-6.8-4.2-12.9-7.4-19-3-5.7-6.2-10.7-11.6-14.5-5.1-3.6-10.7-6.1-15.5-10.1-4.9-4.1-8.8-9.1-11.8-14.7.7 1.4-.7 3.8 0 5.1z"/></g></g><g id="XMLID_567_"><g id="XMLID_387_"><path id="XMLID_391_" class="st1" d="M254.9 89.9c2.4 2.9 4.2 6.1 5.3 9.7-.5-1.5.5-3.5 0-5-1.1-3.6-2.9-6.8-5.3-9.7.2.3 0 2.1 0 2.5 0 .5-.3 2.1 0 2.5z"/></g></g><g id="XMLID_574_"><g id="XMLID_381_"><path id="XMLID_385_" class="st1" d="M277 116c2.2 3.6 3.5 7.4 4 11.6-.2-1.6.2-3.4 0-5-.5-4.1-1.8-8-4-11.6.8 1.2-.7 3.8 0 5z"/></g></g><g id="XMLID_581_"><g id="XMLID_375_"><path id="XMLID_379_" class="st1" d="M283.7 129.7c2.8 3.6 5.3 7.5 7.3 11.7-.6-1.3.7-3.6 0-5-2-4.2-4.4-8-7.3-11.7.3.3 0 2.1 0 2.5 0 .5-.3 2.1 0 2.5z"/></g></g><g id="XMLID_588_"><g id="XMLID_369_"><path id="XMLID_373_" class="st1" d="M297 169.1c1 19.9-15 37.2-29.5 48.5-15.3 12-36.5 15.3-55.1 10.4.4.1-.4 4.9 0 5 11.4 3 23.3 2.9 34.7-.3 11.9-3.4 20.8-10.1 29.6-18.6 8.5-8.2 15.5-16.7 18.6-28.4 1.9-7 2-14.3 1.7-21.4.1 1.2 0 3.3 0 4.8z"/></g></g></g></svg>