<svg id="Layer_1" xmlns="http://www.w3.org/2000/svg" viewBox="0 0 72.7 140"><style>.st0{opacity:.6}.st1,.st2{fill:#fff}.st2{opacity:.1091}</style><g id="XMLID_11_" class="st0"><g id="XMLID_2742_"><g id="XMLID_307_"><path id="XMLID_311_" class="st1" d="M8 17.8c4.9 4.8 12.6 4.7 19 5.2 6.2.5 12.3.5 18.3-1 5.6-1.4 19.1-5.7 12.3-13.4C50.5.4 35 1.5 25.5 3.9c-3.3.9-6.7 1.8-9.9 3.3-2.7 1.3-5.5 3.2-6.3 6.3-.9 3.4 1.1 6.3 4.6 6.5 1 .1 2-.8 2.9-.8-4.4-.3-5.9-4.8-3.8-8.4 3-4.9 10.5-6.6 15.7-7.4 8-1.1 20.3-.7 26.1 5.9 8.3 9.4-11.6 13.1-17.2 13.2-8 .1-20.6.5-26.7-5.5-.3-.4-2.5 1.1-2.9.8z"/></g></g><g id="XMLID_2749_"><g id="XMLID_301_"><path id="XMLID_305_" class="st1" d="M11.6 19.7c1.3 2.2 2.2 4.4 2.7 6.9.4 1.7-.3 5 .4 6.3 1.2 2.4 8.1 3.6 10.8 4.1 8.1 1.6 16.3.9 24.2-1.2 2-.5 7.6-1.5 8.2-3 0 .1-1.2-.2-1.3-.5-.1-.6.5-.9.5-1.5.1-1.7.2-3.2-.1-5-.8-4.1-.3-6.9 1.7-10.7-.3.6-2.6.2-2.9.8-1.5 2.9-2.5 5.6-2.1 8.9.1 1 .5 1.9.6 2.9.2 1.4-.5 3.2-.3 4.3-.3.3-.4.6-.3 1 .3.3.7.5 1.1.4-.1.2.4-.2.1.3-1 1.9-7.5 2.5-9.1 2.7-7.7 1.2-15.6.7-23-1.8-1.2-.4-3.4-.8-4.4-1.7-1.1-1-.8-1-.8-2.7 0-4.1-1.2-7.9-3.2-11.4 0-.1-2.7 1.1-2.8.9z"/></g></g><g id="XMLID_2756_"><g id="XMLID_295_"><path id="XMLID_299_" class="st1" d="M14 34.7c-5.5 2-6.8 5.2-7.5 10.8-.7 6.3-.7 12.7-.5 19 .3 12.5 1.3 24.9-.1 37.3-.7 5.8-1.8 11.6-2.2 17.4-.3 4.8-1 9.3 3.4 12.1 6.2 3.9 14.2 5.9 21.5 6.4 12.6.7 25.7-2.2 37.1-7.8 1.8-.9 2.9-1 3.2-2.7.3-1.2-.5-3.3-.7-4.5-.4-2.7-.7-5.4-.9-8.1-.3-4.3-.4-8.5-.3-12.8.2-8.6-.9-16.7-1.7-25.2-.6-6.4-.1-12.7 0-19.1.2-10.2 2.2-23.6-11-25.5-.9-.1-2 .9-2.9.8 3.7.5 7.3 2 9.4 5.4 2.4 3.9 1.7 9.3 1.7 13.7 0 6.3-.3 12.6-.3 19 0 5.7 1 11.2 1.6 16.8.8 8.3.1 16.6.5 24.9.2 4.6.7 9.1 1.4 13.6.3 1.7.6 2.1-.4 3.2-.8.9-3.1 1.6-4.2 2.1-3.8 1.7-7.7 3.2-11.7 4.1-7.2 1.6-15 1.9-22.3.9-5.9-.8-12.4-3-17.4-6.2-3.7-2.4-3.3-6-3.2-10 .2-5.8 1.3-11.6 2.1-17.4 1.6-12.7.7-25.4.3-38.1-.2-6.5-.2-12.8.4-19.2.6-5.9 1.7-9.5 7.6-11.7-.9.4-2 .4-2.9.8z"/></g></g><g id="XMLID_2763_"><g id="XMLID_289_"><path id="XMLID_293_" class="st1" d="M7.8 38.6c10.9 5.9 23.3 8 35.5 6 7.3-1.2 13.2-5.5 19.6-9-.8.5-2 .3-2.9.8-4.7 2.6-9.4 5.2-14.1 7.7.9-.3 1.9-.5 2.8-.8-13.1 2.7-26.3.8-38.1-5.5-.5-.4-2.1 1.1-2.8.8z"/></g></g><g id="XMLID_2770_"><g id="XMLID_283_"><path id="XMLID_287_" class="st1" d="M14.7 45.7l.9-.3c-.9.2-1.8.5-2.7.7 4.4 0 9.2 2.9 13.7 3.7 5.8 1 11.8.9 17.5-.3 5.4-1.1 10.8-2.8 15.7-5.2-1 .3-1.9.5-2.9.8-.3 16.9 0 33.4 2 50.2.9 7.9 1.7 15.9 2 23.9.1 1.4.5 3.4.1 4.7-.4 1.6.6.3-1 1.6-.5.4-2 .7-2.5.9-5.2 1.8-10.6 3-16.1 3.1-6.4.2-13.4-.7-19.4-3-2.8-1.1-5.5-2.4-8.3-3.7-3.2-1.4-4.7-2.2-3.6-5.8 3.7-12.5 4.2-26.7 4-39.7-.1-7.4-.9-14.7-1.4-22.1-.2-2.9-1-8.1 2.1-9.8-.8.5-2 .3-2.9.8-3.1 1.7-2.3 6.9-2.1 9.8.4 7.1 1.2 14.1 1.4 21.2.2 9-.4 18.1-1.5 27-.4 3.3-.8 6.6-1.5 9.9-.3 1.5-2 4.6-1.7 6.1.6 2.9 6.4 4.2 8.6 5.2 2.6 1.1 5.1 2.2 7.8 2.9 8.3 2 16.6 2.4 24.9.7 3.8-.8 7.5-1.8 11.2-3 1.1-.4 3-.7 3.9-1.4 1.3-1 .5.4 1-1.6.2-.6-.1-2.1-.1-2.6-.1-4.7-.4-9.5-.8-14.2-.7-9-2-17.9-2.7-26.8-.9-11.7-.7-23.4-.5-35.2 0 .1-2.6.6-2.9.8-9.7 4.8-20.6 5.8-31.1 3.2-3.1-.8-7-3.2-10.1-2.9-1.2.1-2.4.6-3.6 1 0 .1 2-.4 2.6-.6z"/></g></g><g id="XMLID_2657_"><g id="XMLID_277_"><path id="XMLID_281_" class="st1" d="M22.7 7.4c-.2.4.1 1 .6 1 .3 0 .7-.1.9-.2.7-.2 1.4-.3 2.1-.6.1 0 .3 0 .1-.1h-.7c-.1 0-.5.1-.6 0-.1-.1 0-.4 0-.4.1-.3.2-.6.4-.8l.2-.2h-.2c-.2-.1-.5 0-.8-.1-.1 0-.4.1-.4.1-.3.1-.7.2-1 .3-.3.1-.7.2-1 .3-.1.2-.3.3-.4.3.2 0 .4 0 .6.1h.3c.1 0 .1 0 0 .1-.2.2-.4.4-.5.7 0 .1-.1.3-.1.4v.1h.9c.1 0 .6-.1.4 0 .9-.3 1.9-.5 2.8-.8-.5.1-1-.6-.7-1 0 0-.5.1-.4.1-.3.1-.7.2-1 .3-.3.1-.7.2-1 .3-.2 0-.5 0-.5.1z"/></g></g><g id="XMLID_2659_"><g id="XMLID_271_"><path id="XMLID_275_" class="st1" d="M29.5 9.4V11c0-.1 2.6-.6 2.9-.8.7-.3 1.3-.8 1.8-1.3.3-.3.5-.6.7-.9.1-.2.3-.3 0-.3-.1 0-.3.1-.4.1-1.8.4-3.8.8-5.3 2l.4-.1c.3-.1.7-.2 1-.3.3-.1.7-.2 1-.3.1 0 .4 0 .4-.1.4-.4.8-.7 1.3-.9.2-.1.3-.1.4-.2-.6.2-1.2.3-1.8.5h.2c-.1.2-.3.5-.4.7-.6.8-1.3 1.5-2.2 1.9 1-.3 1.9-.5 2.9-.8V8.6s-1.3.3-1.5.4c-.1 0-1.4.3-1.4.4z"/></g></g><g id="XMLID_2660_"><g id="XMLID_265_"><path id="XMLID_269_" class="st1" d="M28.8 5.3c.5 0 .9-.1 1.3-.2.8-.2 1.5-.4 2.3-.6.4-.1.7-.3 1-.5l.4-.4c.2-.1.1-.2-.1-.2h-.4c-1.1 0-2.3.5-3.4.8-.9.3-1.7.7-2.2 1.5 0 0 .5-.1.4-.1.3-.1.7-.2 1-.3.3-.1.7-.2 1-.3.1 0 .4-.1.4-.1.3-.4.6-.7.9-1 .2-.1.3-.2.5-.3-2 1.1-2.5.4-1.4.4h.3c.2 0 .3 0 .1.2l-.4.4c-.1.2-.3.3-.5.4-.8.4-.2.2 2-.5h-.4c-.5 0-1 .3-1.5.4-.3.1-.9.4-1.3.4z"/></g></g><g id="XMLID_2661_"><g id="XMLID_243_"><path id="XMLID_263_" class="st1" d="M36 5.3c-.3.4-.4.8-.3 1.3 0 0 2.9-.7 2.9-.8-.2-.8-1.1-.5-1.6-.4-.8.2-1.6.3-2.4.6-.3.1-.4.3-.4.6 0 0 1.3-.3 1.5-.4.1 0 1.4-.3 1.4-.4 0-.3.2-.5.5-.6-.8.2-1.6.4-2.5.7h.1c-.1.1-.3.1-.4.1.4-.1.8 0 .9.5 1-.3 1.9-.5 2.9-.8-.1-.5 0-.9.3-1.3l-.4.1c-.3.1-.7.2-1 .3-.3.1-.7.2-1 .3-.2.1-.4.1-.5.2z"/></g></g><g id="XMLID_2662_"><g id="XMLID_236_"><path id="XMLID_241_" class="st1" d="M38.6 9.6c-.1-.5.2-.8.6-1-.9.3-1.9.5-2.8.8.9-.2 1.2 1.2.4 1.6.7-.2 1.5-.4 2.2-.6h-.1c.2-.1.5-.1.7-.2-.4.1-.8-.1-1-.6 0-.1-2.9.8-2.9.8.3.8 1.2.5 1.8.4.7-.2 1.6-.3 2.2-.6.3-.1.5-.4.4-.8 0-.3-.2-.6-.5-.7-.4-.2-1 .1-1.4.2-.7.2-1.5.3-2.1.6-.4.2-.6.5-.5 1 .1-.2 3.1-.7 3-.9z"/></g></g><g id="XMLID_2670_"><g id="XMLID_229_"><path id="XMLID_234_" class="st1" d="M41.9 7.6c.2.5.3.9.2 1.4 0 .1-.1.2 0 .3h.3c.2 0 .3-.1.5-.1.8-.2 1.7-.4 2.5-.7.3-.1.7-.3.9-.5.2-.2.6-.7.5-1-.1-.3-.9 0-1.1.1-.8.2-1.6.4-2.4.7-.3 0-.5.2-.8.6 0 0 .5-.1.4-.1.3-.1.7-.2 1-.3.3-.1.7-.2 1-.3.1 0 .4-.1.4-.1.2-.3.4-.5.8-.7-.9.2-1.9.5-2.8.7.2 0 .6-.1.6.1s-.2.5-.3.6c-.1.2-.2.3-.4.5.1.1 0 .2 0 .2-.1 0-.1.1-.2.1-.8.4 0 .2 2.2-.6h.2c-.1 0-.4.1-.4 0 0 0 .1-.5.1-.6 0-.4-.1-.7-.3-1.1 0-.1-2.8.9-2.9.8z"/></g></g><g id="XMLID_2799_"><g id="XMLID_222_"><path id="XMLID_227_" class="st1" d="M41.8 7.7c1 0 1.9-.8 2.9-.8-.9 0-1.9.8-2.9.8z"/></g></g><g id="XMLID_2813_"><g id="XMLID_215_"><path id="XMLID_219_" class="st1" d="M43.6 5.9c0-.8-.8-1.4-1.6-1.5-.6 0-1.3.3-1.9.4-.6.2-1.4.2-1.9.7.1 0 .4-.1.4-.1.3-.1.7-.2 1-.3.3-.1.7-.2 1-.3.1 0 .3-.1.4-.1.4-.3.9-.5 1.3-.8-1 .3-1.9.5-2.9.8 0 .5-.1.9-.3 1.3 0 0 .5-.1.4-.1.3-.1.7-.2 1-.3.3-.1.7-.2 1-.3.1 0 .4-.1.4-.1.2-.4.3-.8.3-1.3 0 0-1.3.3-1.5.4-.3.1-.7.2-1 .3-.1 0-.3.1-.4.1-.4.3-.9.5-1.3.8 1-.3 1.9-.5 2.9-.8.1 0 .1-.1.2-.1.8-.4.1-.2-2.3.6h-.2c.9-.1 1.9.5 2 1.4 0 0 1.3-.3 1.5-.4.1 0 1.5-.3 1.5-.3z"/></g></g><g id="XMLID_2830_"><g id="XMLID_139_"><path id="XMLID_213_" class="st1" d="M13.9 11.3h-.3c-.4 0-2.7.5-2.9.8-1 1.6 5.5 4.5 6.6 5 3 1.3 6.3 2 9.5 2.7.9.2 2.1-1 2.9-.8-3.7-.9-14.5-2.4-13.5-8-.1.4-2.8.3-2.9.8-1 5.5 9.8 7.1 13.5 8 1-.3 1.9-.5 2.9-.8-3.2-.7-6.4-1.5-9.5-2.7-1.1-.5-7.6-3.4-6.6-5-1 .3-1.9.5-2.9.8h.3c1 0 1.9-.9 2.9-.8z"/></g></g><g id="XMLID_2832_"><g id="XMLID_133_"><path id="XMLID_137_" class="st1" d="M13.8 36.8c-.2-.3-.1-.5.2-.6-1 .3-1.9.5-2.9.8 1.8.1 4 1.8 5.7 2.4 2.3.8 4.7 1.3 7.1 1.7.9.1 2-.9 2.9-.8-2.4-.3-4.8-.9-7.1-1.7-.9-.3-1.7-.6-2.5-1s-1.9-1.2-2.8-1.3c-.8-.1-3.7.5-3.5 1.4 0-.1 3-.8 2.9-.9z"/></g></g><g id="XMLID_2905_"><g id="XMLID_89_"><path id="XMLID_131_" class="st1" d="M14.8 35c2.6 1.9 5.4 3.3 8.4 4.1.8.2 2.1-1 2.9-.8-3.1-.9-5.9-2.2-8.4-4.1-.5-.4-2.4 1.1-2.9.8z"/></g></g><g id="XMLID_2919_"><g id="XMLID_156_"><g id="XMLID_157_"><path id="XMLID_211_" class="st2" d="M17.6 14.9c2.5.3 5.1.7 7.6 1 .2 0 .7-3.7.5-3.7-2.5-.3-5.1-.7-7.6-1-.1-.1-.6 3.7-.5 3.7z"/><path id="XMLID_210_" class="st2" d="M26.6 23.9l7.5.9c.4.1-1.1-.4-.8-.4-.8-.2-1.7-.5-2.6-.6-2.6-.3-5.1-.6-7.7-.9 1.2.3 2.4.9 3.6 1z"/><path id="XMLID_209_" class="st2" d="M28.2 23.1c5 1 10.1 1.4 15.1 1.3.5 0 1.3-.4 1.8-.6.3-.1 1.4-.7 1.8-.7-5.1 0-10.1-.4-15.1-1.3-.5-.1-1.4.4-1.8.5-.2.2-1.5.9-1.8.8z"/><path id="XMLID_208_" class="st2" d="M16.2 16.9c4.1 1 8.3 2 12.5 3 3.4.5 6.9.5 10.4 0 .1 0-1.2-1.6-1.1-1.5-.3-.3-.9-1.2-1.4-1.3-3.9-.4-7.7-.8-11.6-1.3-3.7-.3-7.2-1-10.7-2.1 0 0 .9 1.6.9 1.7.1.2.7 1.4 1 1.5z"/><path id="XMLID_207_" class="st2" d="M21.8 6.6C26.8 7.6 31.9 8 37 8c1.1 0 2.3-1.5 3.5-1.5-5.1 0-10.2-.5-15.2-1.4-.4-.1-1.4.5-1.8.7-.2.1-1.5.8-1.7.8z"/><path id="XMLID_206_" class="st2" d="M22.2 14.7c3.1.9 6.3 1.5 9.5 1.8 3.8.6 7.6.9 11.4 1 .6 0 .9-3.7.4-3.8-3.5 0-7-.2-10.5-.7-3.5-.3-7-1-10.4-2-.1-.1-.8 3.6-.4 3.7z"/><path id="XMLID_205_" class="st2" d="M31.4 5.6c9.4 1.4 5.5 1 15.2 1.4-1.2 0-2.4-1-3.6-1-5-.5-10-.9-15-1.4-.4-.1 1.1.4.8.3.9.2 1.8.5 2.6.7z"/><path id="XMLID_204_" class="st2" d="M26.7 13.5c3.8 1.1 7.7 1.8 11.6 2.2 3.8.6 7.5.9 11.4.8.1 0 0-3.7-.5-3.7-3.8 0-7.6-.2-11.4-.8-3.9-.4-7.8-1.1-11.6-2.2.2 0-.1 3.6.5 3.7z"/><path id="XMLID_161_" class="st2" d="M12.5 9.4c3.5.9 7.1 1.5 10.8 1.9 3.8.6 7.6.9 11.4.8.3 0 1.1-1.3 1.2-1.4L37 9.1c-3.8 0-7.6-.3-11.4-.8-3.6-.4-7.2-1-10.8-1.9-.1 0-1.1 1.5-1.2 1.5l-1.1 1.5z"/><path id="XMLID_160_" class="st2" d="M17.4 7.3c3.6.9 7.3 1.7 10.9 2.4 4.9 1.3 9.9 1.4 15.1.4.5 0 .4-.2 0-.3C37.9 7.5 32.3 7 26.6 8.5c.6 0 1.2-.1 1.8-.1-2.5-.5-4.9-1-7.4-1.5-.8-.2-1.9.1-2.7.2.2-.1-1.4.1-.9.2z"/><path id="XMLID_159_" class="st2" d="M24.6 17.9c3.8 1.2 7.7 2 11.6 2.5 3.7.7 7.5.9 11.4.8.4 0 1-1.3 1.1-1.5 0 0 1-1.7.9-1.7-3.8.2-7.6-.1-11.4-.8-3.9-.4-7.8-1.3-11.6-2.5-.5-.1-1.7 3.3-2 3.2z"/><path id="XMLID_158_" class="st2" d="M19.1 19c5 .9 10.1 1.3 15.2 1.3-.4 0-.8-3.5-1.2-3.6-5.1 0-10.2-.4-15.2-1.3l.6 1.8c0 .1.4 1.8.6 1.8z"/></g></g></g><g id="XMLID_2940_"><g id="XMLID_141_"><g id="XMLID_142_"><path id="XMLID_154_" class="st2" d="M36.8 23.8c-.9 1-2 1.1-3.4 1.6-4 1.3-8.1 2.1-12.3 2.9-.7.1-.6 3.8-.5 3.7 4.2-.7 8.3-1.5 12.3-2.9 1.5-.5 2.5-.5 3.4-1.6.2-.3.2-1.6.3-1.9 0-.1 0-1.5.2-1.8z"/><path id="XMLID_153_" class="st2" d="M40.5 34.9c-1.7.9-3.4 1.7-5.2 2.6-2.9 1.5-6.1 2.3-9.4 2.4-.6.1 1.1.6.8.5.8.2 1.8.6 2.6.5 3.4-.1 6.6-.9 9.6-2.5 1.7-.9 3.4-1.7 5.2-2.6-.2.1-1.7-.4-1.8-.5-.2 0-1.6-.5-1.8-.4z"/><path id="XMLID_152_" class="st2" d="M45.3 34.1c.3.1.4.2.3.5-.1.2-.3.4-.5.4-2.6 1.7-5.4 3-8.4 3.9.7-.2 1.5-.5 2.2-.7-3 .5-6.1.8-9.2 1-.6.1-1.3.4-1.8.6-.4.1-1.3.7-1.8.7 3.4-.1 7.4 0 10.7-.9 3.1-.9 6-2.5 8.9-4.1-.7.4 4.7-1.9 3.1-2.7-.2-.1-1.6.6-1.8.6 0 0-1.5.7-1.7.7z"/><path id="XMLID_151_" class="st2" d="M40.8 30.2c.1.1.2.1.4.2-.6-.9-1.2-1.8-1.8-2.8.1.1.1.2.2.3 0-.1-.1-.3-.1-.4 0 .5-.2.6-.6.8-.9.5-1.8.9-2.7 1.3-2.5 1.1-4.9 2.4-7.1 3.9 1.2-.3 2.3-.5 3.5-.8-4.4-.2-8.8-.1-13.2.3-.3 0 .8 1.8.8 1.7.1.2.8 1.5 1.2 1.5 4.1.1 7.8-1.1 11.2-3.4-1.2.3-2.3.5-3.5.8 4 .2 7.8-.4 11.5-1.9.4-.1.6-.3.8-.6.1-.3 0-.5-.1-.7-.4-1.1-1.3-2.8-2.3-3.4-.4-.2.4 1 .3.9.3.6.9 2 1.5 2.3z"/><path id="XMLID_150_" class="st2" d="M39.8 20.2c-.2.3-.5.6-.9.8 1.2-.5 2.3-1 3.5-1.5-2.4.8-4.9 1.3-7.5 1.5-3.9.5-7.8 1.1-11.6 1.7-1.2.1-2.3 1.4-3.5 1.5 1.8 0 3.5 0 5.2-.3 3-.7 6.1-1.3 9.2-1.7 1.7-.4 3.4-.7 5-1.3 1.3-.5 3-1 4-2.1-.7.7-2.6.5-3.4 1.4z"/><path id="XMLID_149_" class="st2" d="M47 27.9c.3.1.6.1.9.2-.3-1.2-.5-2.5-.8-3.7-.4.4-.7.8-1.1 1.2-.6.1-1.2.2-1.7.5-.9.4-1.8.6-2.7.7-4.2.8-8.3 1.7-12.5 2.8-1.1.2-.4 3.9.7 3.7 4.2-.7 8.1-1.7 12.2-2.7 2.3-.6 4.8-1.2 6.7-2.5V28c0-.1-1.4-3.7-1.4-3.7-.2.2-.2.4-.2.7-.1.6-.5 2.2-.1 2.9z"/><path id="XMLID_148_" class="st2" d="M45.4 17.7c-.4 1.5-1.9 1.5-3.2 1.8-2.1.6-4.3 1-6.5 1.1-3.2.9-6.4 1.3-9.7 1.4 1.2-.1 2.4 1.1 3.6 1 3.2.1 6.4-.3 9.5-1.2 2.3-.2 4.5-.7 6.7-1.3 1.3-.3 2.9-.4 3.3-1.9-.1.1-3.7-.9-3.7-.9z"/><path id="XMLID_147_" class="st2" d="M51.4 26.8c.1.1.1.2.2.2-.2-1.2-.4-2.4-.5-3.6 0 1.4-2.2 1.8-3.1 2.2-5.1 2.2-10.6 2.8-16.1 3.3-.3 0 0 3.8.3 3.8 6.3-.6 12.4-1.4 18.1-4.1.7-.3 1.2-.7 1.3-1.4.1-.8-.1-1.7-.2-2.4-.1-.6-.1-1.2-.5-1.7.1.1.1 1.8.1 1.9.1.4.1 1.4.4 1.8z"/><path id="XMLID_146_" class="st2" d="M37.2 22.7c.5.4.6.6.6 1.2.7-.9 1.3-1.8 2-2.7-.1.2-.3.3-.4.5l.3-.3c-2.3 1.5-5.5 1.7-8.2 2.2-1.6.3-3.3.6-4.9.9-2.3.6-4.6.8-6.9.8-.4 0-1.1 1.2-1.2 1.4l-1.1 1.6c1.7-.1 3.3-.2 5-.3 1.5-.3 3.1-.6 4.6-.9 1.7-.3 3.4-.7 5-1 1.6-.5 3.2-.9 4.8-1.4.6-.3.9-.8 1.3-1.3.8-1 2.7-2.6 1.3-3.7.1-.1-2.2 2.9-2.2 3z"/><path id="XMLID_145_" class="st2" d="M42 20.3c.3.2.4.4.4.8-.1.5-.4.7-.8.6-2.5.4-4.9.6-7.4.5-3.8 1.3-7.5 2.5-11.3 3.8-.5.2-.4.4.1.3l8.1-.3c2.5-.6 4.9-1.1 7.4-1.5 1.5-.1 3-.5 4.4-1.1.8-.1 1.5-.4 2.2-.7.8-.6 1.4-1.9.6-2.7-.3-.3-1.6 0-1.9 0 .1 0-1.9.2-1.8.3z"/><path id="XMLID_144_" class="st2" d="M49.3 31.2c.2.1.3.3.2.5.1-.1.1-.2.2-.4-.1.1-.1.2-.2.3.6-.9 1.2-1.8 1.8-2.8-2 1.7-4.9 2.3-7.4 3.1-3.7 1.3-7.6 1.7-11.5 2.2-.5.1-1.1 1.1-1.3 1.4 0 0-1.1 1.6-1 1.6 1.9-.1 3.8-.1 5.7-.2 1.8-.3 3.6-.5 5.5-.8 1.3-.5 2.5-1 3.8-1.5 1.1-.7 2.2-1.4 3.2-2.1.7-.3 1.1-.6 1.5-1.2.4-.5 2.4-2.8 1.6-3.4-.1.1-2.3 3.1-2.1 3.3z"/><path id="XMLID_143_" class="st2" d="M36.5 27.3c.1 1.3-3 1.9-3.4 2-2.5 1.1-5.1 1.9-7.8 2.5-3.1.6-6.2 1-9.4 1 .3 0 .9 3.6 1.2 3.6 3.2 0 6.3-.4 9.4-1 2.7-.6 5.2-1.4 7.8-2.5.4-.2 3.5-.8 3.4-2 0-1.3-1.1-2.4-1.2-3.6z"/></g></g></g><g id="XMLID_2954_"><g id="XMLID_162_"><g id="XMLID_163_"><path id="XMLID_203_" class="st2" d="M15.2 124.6c5.4 2.3 10.9 4.4 16.5 6.4 3 .9 6 1.7 9 2.4.2.1 2.7.8 2.7.5.3-.8.4-1.6 0-2.4 0-.2-1.8-.5-1.8-.5l-1.8-.4c.3.8.3 1.6 0 2.4.9.2 1.8.3 2.7.5-8.1-2.1-16.1-4.8-23.8-8.1-.8-.3-1.7-.5-2.6-.7.3 0-1.3-.3-.9-.1z"/><path id="XMLID_202_" class="st2" d="M2.7 112.2c4.8 3.2 9.9 5.7 15.3 7.7 5.4 2.2 10.9 3.9 16.6 5.2.2.1.4-1.2.3-1 .2-1.2.5-2.4.5-3.6 0-1.1-.5-1.9-1-2.8.1.2-.2 1.7-.3 1.9 0 .2-.4 1.6-.2 1.9.3.8.6 1.5.9 2.3.1-1.1.3-2.2.4-3.3-.1.4-.2.8-.3 1.3.1-.1.1-.2.2-.4-5.7-1.3-11.2-3-16.6-5.2-5.4-1.9-10.5-4.5-15.2-7.7.3.2-1 3.5-.6 3.7z"/><path id="XMLID_201_" class="st2" d="M6.5 104.4c5.2 2.4 10.3 4.9 15.5 7.3 5.4 2.1 11 3.9 16.7 5.2.4.1 3.2-1 3.3-1.5.3-1.5.3-2.5-.6-3.8-.8-1.2-2-2.1-3.2-2.9-.1-.1-1.7.7-1.7.7s-1.6.8-1.7.7c1.1.8 2.4 1.7 3.2 2.9.8 1.3.9 2.3.6 3.8l3.3-1.5c-5.6-1.3-11.1-3-16.5-5.1-5.1-2.5-10.3-4.9-15.5-7.3-.2-.1-1.6.7-1.7.7 0 .1-1.5.9-1.7.8z"/><path id="XMLID_200_" class="st2" d="M12.3 102.4c4.1 1.7 8.2 3.6 12.1 5.6 4 2.2 8.3 3.9 12.7 5 3.3 1 6.8 1.9 10.1 2.7-.1 0 1 .3 1 .1.4-1.7.2-2.9-.9-4.4-1.8-2.3-4.7-3.5-7.2-4.9-1.1-.6-2.6-.4-3.6-1 2.5 1.4 5.3 2.6 7.2 4.9 1.1 1.4 1.3 2.6.9 4.4.6.1 1.2.2 1.9.3-10.4-3.5-20.6-7.3-30.6-11.7-1.2-.4-2.5-.5-3.6-1z"/><path id="XMLID_199_" class="st2" d="M4.2 116.1c2.3 1.4 4.6 2.9 6.9 4.3 1.3.8 2.7 1.4 4.2 1.8 2.7 1.2 5.4 2.2 8.2 3.2 4.1 1.6 8.2 2.8 12.5 3.7 0 0 0-.1.1-.1.2-1.2.2-1.6-.1-2.7-.2-.9-.5-1.7-.9-2.5-1.5-3.8-5.3-5.3-8.6-7.2.2.1.6 1.6.6 1.8.1.2.4 1.7.6 1.8 3.3 1.8 6.4 3.1 8.2 6.5-.4-1.1-.8-2.3-1.2-3.4-4.4 1-8.6.6-12.5-1.4-6.8-2.3-13.2-5.4-19.3-9.3.2.1.5 1.6.6 1.8.2.1.5 1.5.7 1.7z"/><path id="XMLID_198_" class="st2" d="M12.5 119.8c2.6 1.6 5.3 3.3 7.9 4.9 1.3.6 2.7 1.2 4 1.7 2.6 1.1 5.3 2.2 8 3.1 4.1 1.6 8.2 2.9 12.5 3.7.5.1 3.3-.8 3.4-1.3.3-1.4.4-2.3-.5-3.5-.7-1-1.6-1.8-2.6-2.5-2.9-2-6.5-3.8-9.8-5-5-1.8-9.9-2.7-15.2-3.3-.6-.1-1.5.5-2.1.7-.2.1-1.3.6-1.3.6 4.6 2 9.1 3.9 13.8 5.4 7 2.2 14.2 3.5 21.5 4.6.5.1 1.4-.4 1.8-.5.2-.1 1.5-.8 1.7-.7-4.9-.6-9.8-1.5-14.6-2.7-7.1-1.8-14-4.2-20.7-7.3-1.1.4-2.3.9-3.4 1.3 5.1.6 10.1 1.3 15 3.3 3.4 1.3 6.8 2.9 9.8 5 .9.7 2 1.5 2.6 2.5.7 1.2.8 2.1.5 3.5 1.1-.4 2.3-.9 3.4-1.3-4.3-.9-8.5-2.1-12.5-3.7-7-2.3-13.5-5.5-19.7-9.5-.2-.1-1.7.6-1.8.6.1-.2-1.6.5-1.7.4z"/><path id="XMLID_197_" class="st2" d="M24.2 102.6c-3.3-.9-6.7-1.4-10.1-1.6-.5-.1-1.3.5-1.8.6l-1.7.8c5.7 2.5 11.3 4.7 17.3 6.4 6 1.7 11.9 2.7 18 3.5.5.1 1.4-.5 1.8-.7.2-.1 1.5-.8 1.7-.8-6.1-.9-12.1-1.9-18-3.5-6-1.7-11.6-3.9-17.3-6.4-1.2.5-2.3 1-3.5 1.5 3.4.2 6.8.7 10.1 1.6.3.1 1.5-.6 1.7-.7.3 0 1.5-.8 1.8-.7z"/><path id="XMLID_196_" class="st2" d="M27 102c-5.9-1.2-4-1-10.2-1.6-.1 0-.1 0 0 .1 4.6 2 9.2 3.9 14 5.5 1.6.5 3.3 1 5 1.4 1.6.4 3.1.9 4.7 1.3 5 1.3 10 1.9 15.1 2.6.4.1-1.1-.4-.8-.4-.8-.3-1.7-.6-2.6-.7-8.7-.9-17.2-3-25.4-6.2-2.7-3.1-1.5-3.5 3.6-1.2.3.1-1.1-.3-.9-.3-.8 0-1.7-.3-2.5-.5z"/><path id="XMLID_195_" class="st2" d="M12.1 107.5l-5.1-.6c-.1 0-.8 3.6-.5 3.7 5.7 2.4 11.3 4.7 17.3 6.4 6 1.7 11.9 2.7 18 3.6.1 0 .6-3.7.5-3.7-6.1-.9-12.1-1.9-18-3.6-6-1.7-11.6-3.9-17.3-6.4-.2 1.2-.3 2.5-.5 3.7l5.1.6c.1.1.5-3.7.5-3.7z"/><path id="XMLID_194_" class="st2" d="M16.9 119.3c-1.7-.2-3.3-.4-5-.6-.1 0-.1 0 0 .1 7.3 3.1 14.5 5.8 22.1 7.7 5.5 1.4 11.1 2.3 16.7 3.1.4.1-1.1-.3-.9-.3-.9-.2-1.7-.5-2.6-.6-5.5-.6-10.8-1.8-16-3.7-5.1.6-8.6-1-10.6-4.8-1.3-.1-2.4-.7-3.7-.9z"/><path id="XMLID_193_" class="st2" d="M16.9 112.9c-3.3-.9-6.7-1.4-10.1-1.7-.1 0 .5 1.9.5 1.8.1.2.4 1.6.7 1.7 5.7 2.4 11.3 4.7 17.3 6.4 6 1.7 11.9 2.7 18 3.6l-.6-1.8c0-.1-.5-1.7-.7-1.8-6.1-.9-12.1-1.9-18-3.6-6-1.7-11.6-3.9-17.3-6.4l1.2 3.6c3.4.2 6.8.8 10.1 1.7-.1 0-.6-1.8-.6-1.8.1 0-.4-1.7-.5-1.7z"/><path id="XMLID_192_" class="st2" d="M9.1 89.4c5.1 3 10.3 5.7 15.7 8.1 5.3 2.6 10.7 4.9 16.2 7 .4.2 1.5-.4 1.8-.6l1.7-.9c-5.5-2.1-10.9-4.4-16.2-7-5.4-2.4-10.6-5.1-15.7-8.1-.2-.1-1.7.7-1.7.7-.1.1-1.6.9-1.8.8z"/><path id="XMLID_191_" class="st2" d="M15.4 103.2c7 3.5 14.2 6.7 21.5 9.5 0 0 1-3.5.5-3.7-7.3-2.8-14.5-6-21.5-9.5.2.1-1 3.5-.5 3.7z"/><path id="XMLID_190_" class="st2" d="M20.8 111.3c7.1 3.5 14.3 6.7 21.8 9.6.8.3 2 .7 2.9.7.4 0 .5 0 .1-.2-7.2-2.8-14.3-5.9-21.2-9.3-.8-.4-1.8-.5-2.6-.7.2 0-1.3-.3-1-.1z"/><path id="XMLID_189_" class="st2" d="M6.5 101.8c5.1 2.9 10.4 5.6 15.8 8 5.3 2.6 10.7 4.9 16.2 7 .1 0-.5-1.9-.5-1.8-.1-.3-.4-1.5-.8-1.7-5.5-2.1-10.9-4.4-16.2-7-5.4-2.4-10.6-5.1-15.8-8 .2.1.6 1.7.6 1.8.2.1.5 1.6.7 1.7z"/><path id="XMLID_188_" class="st2" d="M15.6 105.9c6.9 3.7 13.8 7.4 21 10.5 7.2 3.1 14.5 5.8 21.9 8.5.3.1 1.6-.5 1.8-.6.1 0 1.6-.7 1.8-.7-7.5-2.5-14.8-5.4-21.9-8.8-7.2-2.9-14.2-6.3-21-10.1-.3-.1-1.6.5-1.8.6-.1 0-1.7.7-1.8.6z"/><path id="XMLID_187_" class="st2" d="M15.3 87.3c3.5 1.9 6.9 3.8 10.4 5.7 5.3 2.8 10.7 5.2 16.3 7.4 7.3 3 7 2.8 16.2 5.8 1.2.4 2.4.6 3.6 1-7.6-2.4-15-5.3-22.3-8.5-7.1-3.1-13.9-6.6-20.6-10.4-1.1-.5-2.5-.4-3.6-1z"/><path id="XMLID_186_" class="st2" d="M18 93.3c5.4 3.1 11 5.8 16.7 8.2-.1 0 1-3.5.5-3.7-5.7-2.4-11.3-5.1-16.7-8.2.4.1-.9 3.5-.5 3.7z"/><path id="XMLID_185_" class="st2" d="M31.7 105.7c2.8 1.3 5.6 2.5 8.4 3.8.8.4 1.7.5 2.6.7-.2-.1 1.3.2.9.1-2.8-1.3-5.6-2.5-8.4-3.8-.8-.4-1.7-.5-2.6-.7.2 0-1.3-.3-.9-.1z"/><path id="XMLID_184_" class="st2" d="M28.6 101.5c5.4 3 10.9 5.7 16.6 8.1 2.9 1.2 5.8 2.3 8.7 3.4.3.1 1.6-.5 1.8-.6.1 0 1.6-.7 1.8-.7-8.8-3.1-17.2-7-25.3-11.5-.3-.2-1.6.5-1.8.6-.1.1-1.7.8-1.8.7z"/><path id="XMLID_183_" class="st2" d="M22.2 85c4 2.4 8.2 4.5 12.4 6.3 4.2 2 8.4 3.7 12.8 5.1.2.1 1.6-.7 1.7-.7.1-.1 1.5-.8 1.7-.8A94.8 94.8 0 0 1 38 89.8c-4.3-1.8-8.4-3.9-12.4-6.3-.2-.1-1.6.7-1.7.7-.1.1-1.6.9-1.7.8z"/><path id="XMLID_182_" class="st2" d="M28.3 83c2.8 1.7 5.6 3.3 8.5 4.6 5.4 2.8 11 5.1 16.9 6.9.8.3 1.7.5 2.6.7-.2-.1 1.2.3.9.2C48.4 92.4 40 88.6 32 84c-1.2-.6-2.7-.5-3.7-1z"/><path id="XMLID_181_" class="st2" d="M19.5 97.4c4.1 2.3 8.2 4.4 12.5 6.2 4.2 2 8.4 3.7 12.8 5.3-.2-.1-.6-1.7-.6-1.8 0-.1-.4-1.7-.6-1.8-4.4-1.5-8.6-3.3-12.8-5.3-4.3-1.8-8.4-3.9-12.5-6.2.2.1.6 1.7.6 1.8.1.2.4 1.7.6 1.8z"/><path id="XMLID_180_" class="st2" d="M17.8 88.2c2.6 2.2 5.1 4.4 8.1 6.2 3 1.7 6 3 9.3 4.3.8.3 1.7.5 2.6.7-.2 0 1.3.3.9.1-3.2-1-6.3-2.5-9.1-4.5-3.1-1.5-5.8-3.4-8.2-5.9-.3-.3-1.5-.4-1.8-.5-.3 0-1.5-.1-1.8-.4z"/><path id="XMLID_179_" class="st2" d="M16.6 71.9c3.3 2.8 6.5 5.4 10.3 7.4 3.9 2 7.7 3.2 11.9 4.3.3.1 1.5-.6 1.7-.7.2-.1 1.5-.8 1.7-.8-4.2-1.1-8.1-2.3-11.9-4.3-3.9-2-7-4.5-10.3-7.4-.2-.1-1.7.7-1.8.7.1 0-1.6.8-1.6.8z"/><path id="XMLID_178_" class="st2" d="M12.4 80.1c3.3 2.8 6.5 5.3 10.4 7.4 3.8 2 7.6 3.2 11.8 4.4-.1 0 .7-3.7.5-3.7-4.1-1.1-8-2.4-11.8-4.4-3.9-2-7-4.5-10.4-7.4.1 0-.3 1.9-.3 1.9 0 .1-.3 1.7-.2 1.8z"/><path id="XMLID_177_" class="st2" d="M14 84.3c3.3 2.8 6.5 5.3 10.4 7.4 3.8 2 7.7 3.2 11.8 4.4-.1 0-.6-1.8-.6-1.8 0-.1-.5-1.7-.6-1.8-4.1-1.1-8-2.4-11.8-4.4-3.9-2-7-4.5-10.4-7.4.2.2.5 1.6.6 1.8 0 .4.2 1.5.6 1.8z"/><path id="XMLID_176_" class="st2" d="M22.7 69.8c3.1 2.6 4.6 4.3 8.1 6.3 2.3 1.4 4.6 2.5 7.1 3.4 3.5 1.3 6.8 2.1 10.5 3h.1c-2.5-2.3-5.1-4.7-7.6-7-.8-.8-2.8-.3-3.6-1 2.5 2.3 5.1 4.7 7.6 7 .1 0 .3.1.4.1-7.3-1.9-13.6-5.5-19-10.7-.4-.3-1.3-.5-1.8-.6-.2-.1-1.6-.3-1.8-.5z"/><path id="XMLID_175_" class="st2" d="M27 83.9c1.5.8 3.1 1.7 4.6 2.5 1.1.6 2.6.3 3.7.9-1.5-.8-3.1-1.7-4.6-2.5-1.2-.6-2.7-.4-3.7-.9z"/><path id="XMLID_174_" class="st2" d="M17.2 72.9c2.1 1.6 4.3 3 6.7 4.1 2.3 1.3 4.7 2.4 7.2 3.2-.3-.1.8-3.6.5-3.7-2.5-.8-4.9-1.9-7.2-3.2-2.4-1.2-4.6-2.5-6.7-4.1.1 0-.3 1.9-.3 1.9 0-.1-.3 1.7-.2 1.8z"/><path id="XMLID_173_" class="st2" d="M21.4 64.6c2.8 2.1 5.8 3.9 9 5.4 3.2 1.5 6.5 2.6 9.9 3.5.3.1 1.6-.7 1.7-.7.2-.1 1.5-.8 1.7-.7-3.4-.8-6.7-2-9.9-3.5s-6.2-3.3-9-5.4c-.2-.1-1.7.7-1.8.7.1 0-1.6.8-1.6.7z"/><path id="XMLID_172_" class="st2" d="M23.4 59.2c5.5 4.5 11.2 8.6 18 10.8 2.2.7 4.5 1.3 6.8 2-.1 0 2.6.7 1.4.4-5.1-1.3-9.8-3.2-14.3-5.9-3-1.8-5.8-3.9-8.3-6.2-.8-.8-2.7-.4-3.6-1.1z"/><path id="XMLID_171_" class="st2" d="M14.7 73.7c3.4 2.8 6.9 5.4 10.8 7.5 3.9 2.1 7.9 3.5 12.2 4.7-.1 0-.6-1.7-.6-1.8 0-.1-.5-1.7-.6-1.8-4.2-1.3-8.3-2.7-12.2-4.7-4-2.1-7.3-4.6-10.8-7.5.3.2.5 1.5.6 1.8 0 .3.3 1.6.6 1.8z"/><path id="XMLID_170_" class="st2" d="M23 88.4c3.3 2.8 6.5 5.3 10.3 7.3 3.9 2 7.7 3.3 11.9 4.4.4.1 1.5-.5 1.8-.6 0 0 1.7-.7 1.8-.7-4-3.3-7.7-6.9-11.2-10.7-3.7-3.7-7.1-7.5-10.3-11.6-1.2.4-2.4.8-3.6 1.3 3.4 2.8 6.8 5.3 10.7 7.4 4 2.1 7.9 3.5 12.2 4.8.3.1 3.6-1.1 3.6-1.3V87c0 .4-3.6.8-3.6 1.3V90c1.2-.4 2.4-.8 3.6-1.3C46 87.4 41.9 86 38 83.9c-3.9-2.1-7.3-4.6-10.7-7.4-.2-.1-1.7.6-1.8.6l-1.8.7c3.2 4.1 6.6 8 10.3 11.6 3.5 3.8 7.2 7.4 11.2 10.7 1.2-.4 2.4-.8 3.6-1.3-4.2-1.2-8.1-2.4-11.9-4.4-3.9-2-7-4.5-10.3-7.3-.2-.2-1.7.5-1.8.5l-1.8.8z"/><path id="XMLID_169_" class="st2" d="M8.3 106.9l-1.5-1.5c-.8 1-1.5 2-2.3 3 5 2.7 10 5.2 15.3 7.4 5.4 2.1 10.9 3.8 16.6 5.1.6.2 2.3-2.4 2.3-2.8.3-1.5.2-2.6-.7-3.9-.7-1-1.6-1.8-2.6-2.5-2.9-2-6.5-3.8-9.8-5-4.9-1.7-9.8-2.6-15-3.2-.6-.1-2.3 3-2.3 3 5.7 2.4 11.3 4.7 17.3 6.4 6 1.7 11.9 2.7 18 3.6.5.1 2.4-3 2.3-3-6.3-3.6-12.6-7.3-18.7-11.2C21 98.6 15 94.7 9.1 90.5c-.8 1-1.5 2-2.3 3 6.8 3.9 13.9 7.4 21.1 10.6 7.1 3.2 14.4 5.9 21.8 8.3.4.1 2.3-3 2.3-3-5.3-3.5-10.6-7-15.7-10.8-2.1-1.5-4-3-5.9-4.7-2.9-2.4-5.7-4.9-8.2-7.7-.8 1-1.5 2-2.3 3 4 2.4 8.2 4.5 12.5 6.3 4.2 2 8.4 3.7 12.8 5.2.3.1 2.4-2.9 2.3-3-10.3-8.5-20.5-16.6-31-24.6-.2-.1-2.5 2.8-2.3 3 3.3 2.8 6.5 5.4 10.4 7.4 3.8 2 7.6 3.2 11.9 4.3.4.1 2.4-2.9 2.3-3-4-3.3-7.7-6.9-11.2-10.7-3.7-3.7-7.1-7.5-10.3-11.6-.8 1-1.5 2-2.3 3 3.4 2.8 6.8 5.4 10.8 7.5 3.9 2.1 7.9 3.4 12.2 4.7.3.1 2.3-2.6 2.3-3-.1-2.1-.4-3.2-1.5-5 .2.4-2.5 2.6-2.3 3 1.1 1.8 1.4 2.9 1.5 5 .8-1 1.5-2 2.3-3C36 73.4 32 72 28 69.9c-4-2.1-7.3-4.6-10.8-7.5-.1 0-2.5 2.7-2.3 3 3.2 4.1 6.6 8 10.3 11.6 3.5 3.8 7.3 7.4 11.2 10.7.8-1 1.5-2 2.3-3-4.1-1.1-8-2.3-11.9-4.3-3.9-2-7-4.5-10.4-7.4-.8 1-1.5 2-2.3 3 10.5 8 20.7 16.2 30.9 24.6.8-1 1.5-2 2.3-3-4.4-1.4-8.7-3.2-12.8-5.2-4.3-1.8-8.4-3.9-12.5-6.3-.2-.1-2.5 2.8-2.3 3 1.8 1.8 3.6 3.5 5.3 5.3 2.8 2.6 5.7 4.9 8.8 7.2 5.1 3.8 10.4 7.3 15.7 10.8.8-1 1.5-2 2.3-3-7.4-2.4-14.7-5.1-21.8-8.3-7.1-3.1-14.1-6.7-20.9-10.6-.3-.2-2.4 3-2.3 3 5.9 4.1 12 8 18.1 11.8 6.1 3.9 12.4 7.7 18.7 11.2.8-1 1.5-2 2.3-3-6.1-.9-12.1-1.9-18-3.6-6-1.7-11.6-3.9-17.3-6.4-.8 1-1.5 2-2.3 3 5.1.5 10.1 1.2 15 3.2 3.4 1.3 6.8 2.9 9.8 5 .9.7 2 1.5 2.6 2.5.8 1.3.9 2.1.6 3.6.8-.9 1.6-1.9 2.3-2.8-5.6-1.3-11.2-3-16.6-5.1-5.2-2.2-10.3-4.7-15.3-7.4-.2-.1-2.4 2.9-2.3 3l1.5 1.5c0-.2 2.5-3 2.4-3.1z"/><path id="XMLID_168_" class="st2" d="M9.7 115.2c-1.1-.9-2.1-1.7-3.2-2.6.6 1 1.2 2.1 1.8 3.1 3.5 3.6 7.6 6.2 12.3 7.8 5.2 2.4 10.6 4.2 16.2 5.4.4.1 1.1 0 1.3-.4.6-1.2.7-2.1.5-3.5-.1-1.1-.5-2-.9-3 .3 1 .5 1.9.8 2.9l-.6-3.6c-1-1.1-2.4-1.9-4-2.3-2.8-1.5-5.7-3.4-8.7-4.6-1.3-.5-3.6-1.1-4.9-1.5-4.2-1.1-3.7-1.2-6.6-.8-.7.1-1.4.6-2 1-.1.1-1.3.8-1.2.9 4.1 2.2 8.3 4.1 12.6 5.7 2.4.7 4.9 1.4 7.3 2.1 7.5 1.9 9 1.8 17.3 2.6.1 0-.6-1.2-.7-1.3-.4-.6-.8-1.3-1.4-1.7-6.3-3.6-12.5-7.4-18.6-11.2-6.2-3.7-12.2-7.7-18.1-11.9.6 1 1.1 2.1 1.7 3.1 6 4.1 12.3 7.6 19 10.5 7.8 3.9 16 6.6 24.6 8.2.4.1-.2-.5-.3-.6-.6-.6-1.2-1.3-1.9-1.8-5.3-3.8-10.7-7.4-15.9-11.3-2.1-1.5-4.1-3-5.9-4.7-2.9-2.3-5.5-4.8-8-7.6.5 1 1 2 1.5 2.9 4.4 3.3 9.1 6 14.2 8 4 1.1 8 2.1 12 3.1.4.1-.2-.4-.1-.3-5.7-5.3-11.7-10.3-17.9-15-5.2-4-10.3-8.1-15.5-12.1-.4-.3 0 .6 0 .7.3.7.8 1.7 1.4 2.3 1.4 1.9 3.1 3.6 5 4.9 1.8 1.6 3.9 2.8 6.1 3.7 1.5.6 3 1.2 4.6 1.8 2.2.9 4.5 1.4 6.9 1.5.4.1 0-.5-.1-.7-.4-.7-.9-1.6-1.6-2.2L17.2 70.3c.5 1 1 1.9 1.5 2.9 3.4 2.8 6.8 5.4 10.8 7.5 4 2.1 7.9 3.5 12.2 4.7.1.1.2 0 .2-.1 0-1.9-.5-3.4-1.4-5-1-1.6-1.8-2.9-3.2-4.2-.3-.3.5 1.1.3.9.4.7.8 1.7 1.5 2.2.4.4.8.8 1.3 1.2-.5-.7-1-1.5-1.5-2.2 1.8 2.3 1.3 3.1-1.4 2.5-2.6.4-5-.2-7.3-1.9-4.8-2.4-9-5.3-13.1-8.7-.3-.3.1.6.1.7.4.8.9 1.6 1.4 2.3 2.1 2.8 4.4 5.5 6.9 8.1 4.6 5.1 9.5 9.8 14.7 14.2-.6-.9-1.1-1.9-1.7-2.8-3.9-1.7-7.8-3.1-11.6-5.1-3.8-2-7.1-4.3-10.6-6.8.6 1.1 1.1 2.1 1.7 3.2 5.3 3.9 10.5 7.9 15.5 12.1 4.7 4 9.6 7.8 14.8 11.2-.3-.4-.7-.7-1-1.1-4.2-2.4-8.6-4.6-13-6.5-4.2-1.8-8.3-3.7-12.3-5.7-.5-.2.3 1.1.2.9.4.8.9 1.6 1.5 2.2 1.8 1.8 3.6 3.6 5.4 5.3 2.8 2.5 5.8 4.9 8.9 7.2 2 1.6 4 3 6.1 4.5 3.2 2.4 6.6 4.5 10.2 6.1-.8-.9-1.6-1.7-2.5-2.6-7.3-3.1-14.6-6.1-21.9-9.2-7-3.3-13.9-6.7-20.9-10-.5-.2.3 1.1.2.9.4.6.8 1.8 1.5 2.2 6 4.1 12 8 18.1 11.9 6.1 4 12.4 7.7 18.9 11.1-.7-1-1.3-2-2-3-10.8-2.3-21.7-4.6-31.7-9.2-1.1.6-2.1 1.2-3.2 1.8 5.5.8 10.9 2 16.2 3.8 4.5.7 8.2 2.9 11.2 6.4-.5-1-1-2-1.5-2.9.4 1.1.7 2.2 1.1 3.3-.2-.8-.4-1.5-.6-2.3-.3 1.2-.6 2.3-1 3.5.4-.1.8-.3 1.3-.4-5.5-1.3-10.9-3.1-16.1-5.4-5.2-2-10.1-4.5-14.9-7.4.2.1.5 1 .7 1.3.4.6.7 1.3 1.2 1.9 2 2.1 1 1.3 3.4 2.7-.2-.1-.8-1.4-.9-1.6-.3-.5-.7-1.5-1.2-1.7z"/><path id="XMLID_167_" class="st2" d="M18.1 112.5c-1-.4-1.9-1.1-2.6-2-.5 1.1-1.1 2.3-1.6 3.4 4.6 2.9 9.6 5 14.8 6.2 4.9 1.7 9.9 3.1 15.1 4.1.7.2 2.1-1.3 2.3-1.9.7-2.1.2-4-1.8-5.3-2.6-1.7-5.7-3.4-8.7-4.6-1.6-.6-3.3-1.2-4.9-1.7-3-.9-6.1-1.5-9.2-1.7-1-.1-1.2.4-1.4 1.2-.2.5-.5 2 .2 2.3 6.9 2.8 8.5 3.5 16.5 5.7 5.6 1.6 8.8 2.2 14.5 3.3.9.2 2-3.1 1.2-3.6-5.5-3.8-11.1-7.3-16.9-10.6-5.8-3.2-11.4-6.9-16.6-11.1-.5 1.1-1 2.3-1.5 3.4 5.8 3.7 12 6.1 18.7 7.4 7.2 3.4 14.4 6.7 21.6 9.9.6.3 2.8-2.5 2.9-2.5-5.2-3.5-10.6-6.8-15.4-10.7l-5.1-4.2c-2.8-2.2-5.4-4.7-7.8-7.3-.7 1.1-1.3 2.1-2 3.2 7.3 3.9 14.9 7.1 22.8 9.7.5.3 2.8-2.6 2.6-2.7-4.9-4.4-10-8.5-15.2-12.4-4.8-3.5-9.4-7.3-13.8-11.2-.7-.6-2.5 2.7-1.6 3.4 1.3 1 2.5 2 3.8 3 2 1.6 4.3 2.7 6.7 3.5 2.7 1 6.7 2.4 8.8 3.5.6.3 2.7-2.6 2.2-3.1-3.2-3-6.3-6.1-9.2-9.4-3.5-3.7-6.9-7.5-10.1-11.4-.7 1-1.4 2.1-2.1 3.1 1.9 1.8 4 3.3 6.4 4.3 2.2 1.5 4.6 2.1 7.3 1.9-.9-.1-1.8-.3-2.6-.4 2.9 2.3 6.1 3.9 9.7 5 .6.3 1.9-2.4 2-2.7.3-.9.4-1.7.4-2.6.1-1.4-.5-2.5-2-3.4 0 0-.7 1.8-.7 1.7-.1.3-.7 1.4-.5 1.8.8.3 1.7.6 2.5.8-.7-1.1-1.3-2.1-2-3.2.2 2.1.8 4.9.3 7.1.7-.9 1.3-1.8 2-2.7-3.2-.8-6.5-1.4-9.8-1.7l1.8.3c-2.8-1.6-5.4-3.4-7.8-5.5l-4.8-3.9c-.6-.5-2.6 2.5-2.1 3.1 6.2 7.2 12.5 14 19.1 20.7.7-1 1.3-2.1 2-3.1-4.4 0-8.1-1.3-11.2-3.9-2.8-2.1-5.6-4.3-8.4-6.4-.5 1.1-1.1 2.3-1.6 3.4 5.1 3.6 10.1 7.5 15 11.5 4.6 3.6 9 7.4 13.2 11.4.9-.9 1.7-1.8 2.6-2.7-8-2.8-15.8-6.2-23.4-10.1-1-.5-2.8 2.5-2 3.2 1.7 1.7 3.4 3.4 5.2 5.1 2.7 2.5 5.6 4.8 8.7 6.8 4.6 3.2 9 6.5 13.6 9.6 1-.8 1.9-1.6 2.9-2.5-7.4-2.6-14.7-5.5-21.7-8.8-6.9-2.7-13.5-5.9-19.9-9.5-.7-.4-2.3 2.9-1.5 3.4 11.2 7.4 22.6 14.4 33.8 21.9l1.2-3.6c-7.3-1.4-14.5-2.7-21.8-4l1.5.9c-3-2.7-6.4-4.6-10.2-5.7-.4 1.2-.8 2.3-1.2 3.5 6.6.8 13 2.5 18.8 6 .6.4 4.5 1.9 3.2 3.4.7-.5 1.3-.9 2-1.4-5.6-.7-11.1-1.5-16.7-2.3 1.1.2 2.1.5 3.2.7-5.1-3.1-10.4-6-15.8-8.7-.5-.3-2.2 2.9-1.6 3.4 1 1.2 2.3 2 3.8 2.3-.7.3.4-3-.1-3.3z"/><path id="XMLID_166_" class="st2" d="M21.7 111.3c-1.5-.5-2.7-1.3-3.8-2.5.2 1.2.3 2.5.5 3.7 2.8 1.3 5.5 2.6 8.3 4 1.4.6 2.8 1 4.3 1.2 6.9 2 13.8 4.4 20.7 6.4h.1c.1-.9 0-1.2-.3-2.1-.6-1.5-1.4-4.7-2.7-6.1-2.2-2.3-5.6-3.3-8.4-4.5-2.4-1.1-4.8-1.9-7.4-2.6-3.3-.9-6.7-1.4-10.1-1.6-.2 0-.1 3.5.5 3.7 5.7 2.4 11.3 4.7 17.3 6.4 6 1.7 11.9 2.7 18.1 3.6.2 0 .1-3.4-.5-3.7-12.5-7.4-24.6-15-36.7-23 .2 1.2.3 2.5.5 3.7 6.8 3.9 13.7 7.4 20.9 10.6 7.6 2.2 15 5 22.1 8.4.2.1.1-2 .1-1.9 0-.3.1-1.6-.3-1.9-5.4-3.5-10.7-7-15.9-10.9-2.1-1.5-4.1-3-6-4.7-2.9-2.3-5.7-4.9-8.2-7.7.1 1.2.3 2.4.4 3.7 2.7 1.5 5.4 2.9 8.1 4.3 5.6 2.8 11.3 5.1 17.2 7.1.2.1 0-1.3 0-1.5-.1-.5 0-1.9-.4-2.2C50 92.7 39.7 84.6 29.2 76.6c-.4-.3-.2.9-.2.9 0 .5 0 2.2.5 2.6A9334484283911304 9334484283911304 0 0 0 51.9 92c.1 0-.1-3.4-.4-3.7-4-3.3-7.7-6.9-11.2-10.7-3.7-3.7-7.1-7.5-10.3-11.6l.3 3.6c3.5 2.9 4.5 3.9 8.4 6.3 4.7 2.8 9.5 4.5 14.6 6 .1-.1.1-.2.1-.4 0-1.5-.1-2.9-.4-4.4-.5-2.2-1.3-3.6-2.8-5.1.1.1.1 1.8.2 1.9 0 .3 0 1.6.3 1.9.7 1 1.3 1.9 2 2.9 0-.1.1-.3.1-.4-2.6-.6-5.1-1.4-7.5-2.5-5.7-2.2-10.9-5.4-15.5-9.7v1.5c.1.6 0 1.7.4 2.2 3.2 4.1 6.6 8 10.3 11.6 3.5 3.8 7.2 7.4 11.2 10.7-.1-1.2-.3-2.4-.4-3.7-3.4-.7-6.6-1.7-9.7-3.2-4.6-2.1-8.8-5-12.4-8.5l.3 3.6c10.5 8 20.8 16.1 30.9 24.6-.1-1.2-.3-2.4-.4-3.7-8.8-3-17.2-6.8-25.3-11.5-.1-.1 0 1.3 0 1.5.1.5 0 1.8.4 2.2 4.6 4.5 9.3 8.7 14.4 12.6 5.1 3.8 10.4 7.3 15.6 10.9-.1-1.3-.2-2.5-.3-3.8-4.3-1.3-8.6-2.5-12.9-3.8-3.1-1.6-6.2-3.1-9.3-4.6-1.8-.9-3.6-1.7-5.4-2.5-5.3-2.4-10.5-5.1-15.6-8.1-.2-.1.1 2 .1 1.9.1.4 0 1.6.5 1.8 12.1 8 24.2 15.6 36.7 23-.2-1.2-.3-2.5-.5-3.7-6.1-.9-12.1-1.9-18.1-3.6-6-1.7-11.5-3.9-17.2-6.4.2 1.2.3 2.5.5 3.7 6.1.7 11.8 1.7 17.5 4.2 3.6 1.6 7.2 3.3 9.9 6.2-.3-1.1-.7-2.3-1-3.4.3 4.7-2.7 5.4-9.2 1.9-7.5-3.9-15-7.6-22.6-11.1 0 0 .2 1.9.1 1.9 0 .3 0 1.6.4 1.9 1.1 1.1 2.3 2 3.8 2.5-.1 0-.2-1.9-.2-1.9-.3 0-.4-1.6-.6-1.7z"/><path id="XMLID_165_" class="st2" d="M16.5 108.4c-1.4-.4-2.5-1.2-3.5-2.3-1.3.1-2.5.2-3.8.3 4.8 2.6 9.8 4.9 14.9 7 5.5 2 11.1 3.8 16.8 5.2.7.2 2.2-1.2 2.4-1.8.6-1.3 1.1-2.9 0-4-.5-.6-5.5-2.7-6.2-3.1-3.3-2.4-7.1-3.9-11.2-4.2-3.4-.6-6.7-1.5-9.8-2.8-.7-.3-.2 1.1-.1 1.1.3.7.8 1.9 1.5 2.2.9.4 1.8.8 2.7 1.3 3.2 1.9 6.5 3.2 10.1 4.1 2.4.8 4.8 1.4 7.2 1.9 3.7 1 7.4 1.5 11.3 1.7.6.1 3.7-1.4 3.2-1.6-6.2-3.1-12.2-6.6-18-10.4-6.2-3.8-12.2-7.8-18.2-11.9-1.2.2-2.4.3-3.5.5 6.5 4.1 13.4 7.6 20.5 10.6 7.4 3.4 15 6.1 22.9 8.1.8.3 1.8.4 2.6.5.1 0 1 .1.6-.1-5.2-3.9-10.6-7.5-15.8-11.4-5.1-3.8-9.7-8-14.2-12.4-1.2.1-2.4.3-3.7.4C29 89.8 33 92 37.1 93.7c4.4 2.2 9 3.8 13.9 4.8.8.3 1.7.5 2.6.6.1 0 1 .2.6-.1-4.9-4.7-10-9.2-15.5-13.2-5.1-4.2-10.5-7.9-16.2-11.2-.5-.3-1.4-1.1-2-1.2-.1 0-.6-.2-.4.1 3.1 4 2.9 4.3 7.2 7.1 1.5.9 3 1.7 4.5 2.6 3.1 1.7 6.5 2.7 10 3 .7.1 1.5 0 2.2-.1.1 0 1.5-.3 1.4-.3-4-3.3-7.7-6.9-11.2-10.8-3.6-4-7-7.9-10.2-12-1.3.1-2.5.2-3.8.3 2.9 2.6 4.9 4.7 8.3 6.6 4.7 2.6 9.7 4.1 14.8 5.7.2.1 3.7.2 3.7-.2-.1-2.8-.8-4.5-2.8-6.5-.3-.3-1.6.1-1.9.1 0 0-1.9.3-1.9.4 2 1.9 2.7 3.4 2.8 6.1 1.2-.1 2.4-.1 3.7-.2-1.7-.5-3.3-.9-5-1.4-2.6-1.2-5.2-2.6-7.7-4.2-3.6-2.1-7-4.3-10.4-6.8-.4-.3-1.7 0-2.2.1-.1 0-1.5.2-1.4.3 3.1 4.1 6.6 8 10.3 11.6 3.6 3.8 7.3 7.4 11.2 10.7 1.2-.1 2.4-.3 3.7-.4-2-.9-4-1.8-6.1-2.8-2.3-.7-4.5-1.7-6.6-2.9-4.1-2.1-8.1-4.3-12.1-6.5-.1.1-.1.2-.2.3C25.1 77.8 30 82 35 86c5.1 4.2 10.4 8.3 15.7 12.3 1.2.2 2.4.4 3.5.5-4.4-3.2-9.2-5.7-14.3-7.5-3.8-1.5-7.5-3-11.2-4.7-.6-.3-1.6 0-2.2.1-.1 0-1.5.3-1.4.4 1.8 1.8 3.6 3.5 5.4 5.3 2.8 2.5 5.8 4.9 8.8 7.1 2 1.6 4 3 6.1 4.5 3.1 2.3 6.4 4.4 9.9 6.2 1.2.1 2.4.3 3.6.4-7.5-4.3-15.3-7.8-23.4-10.7-6.7-2.9-13.3-5.8-19.8-8.9-.7-.3-2 0-2.7.1.1 0-1.3.1-.9.4 5.9 4.1 11.9 8 18.1 11.7 6.2 3.7 12.3 7.6 18.3 11.7l3.3-1.5c-6.5-1.6-13-2.9-19.4-4.7-2.1-.6-4.2-1.2-6.3-1.9-3.5-.9-6.9-2.2-10.2-4 .5 1.1.9 2.2 1.4 3.3 3.2-.3 6.5-.2 9.7.2-1.1-.2-2.2-.4-3.2-.6 2.3 1.1 4.7 2.1 7.1 2.9 3.6 1.2 7 2.7 10.3 4.6-1-.6-1.9-1.2-2.9-1.8.3 1 .7 1.9 1.3 2.7.7.7.9 1.6.5 2.5.8-.4 1.7-.8 2.5-1.1-5.4-1.5-10.7-3-16.1-4.7-4.5-1.7-9.1-3.3-13.8-4.7-.6-.2-1.6.1-2.2.1-.2 0-1.4.3-1.4.2 1 1.1 2.1 1.8 3.5 2.3.4.2 1.5 0 1.9-.1.3.1 1.8-.3 2-.2z"/><path id="XMLID_164_" class="st2" d="M22.1 116.3c-1.5-.6-2.7-1.4-3.7-2.6-.7 1.1-1.4 2.1-2 3.2 5.1 3.1 10.4 5.8 16 7.9 5.5 2.1 11.1 3.8 16.8 5.2.6.2 1.9-2.3 2-2.7.3-1.2.4-1.8.1-2.9-.4-1.2-1.6-2.5-2.6-3.2-3-2.3-6.8-4.1-10.4-5.4-4.9-1.8-9.9-2.7-15.1-3.2-.6-.1-2.2 3.1-2 3.2 5.7 2.4 11.3 4.7 17.3 6.4 6 1.7 11.9 2.7 18.1 3.6.5.1 2.2-3.1 2-3.2-6.3-3.5-12.4-7.2-18.5-11.1-6.2-3.8-12.3-7.8-18.2-11.9-.7 1.1-1.4 2.1-2 3.2 6.8 3.8 13.8 7.3 20.9 10.5 7.2 3.2 14.5 6 22 8.4.4.1 2.2-3.1 2-3.2-5.3-3.5-10.5-7-15.6-10.8-2.1-1.5-4.1-3-6-4.7-3-2.4-5.8-5-8.4-7.8-.7 1.1-1.4 2.1-2 3.2 4 2.3 8.1 4.4 12.3 6.2 4.2 2 8.5 3.8 12.9 5.3.3.1 2.2-3 2-3.2C49.9 98.1 39.7 90 29.2 81.9c-.2-.1-2.4 2.9-2 3.2 3.3 2.8 6.5 5.3 10.3 7.3 3.9 2 7.7 3.3 12 4.4.4.1 2.3-3 2-3.2-4-3.3-7.7-6.9-11.2-10.7-3.7-3.7-7.1-7.5-10.3-11.6-.7 1.1-1.4 2.1-2 3.2 3.4 2.8 6.8 5.4 10.7 7.5 4 2.1 7.9 3.5 12.2 4.8.4.1 2-2.8 2-3.1 0-2.8-.6-4.3-2.6-6.2.1.1-2.3 3-2 3.2 1.9 1.9 2.6 3 2.6 6 .7-1 1.4-2 2-3.1-4.3-1.3-8.3-2.7-12.2-4.8-3.9-2.1-7.3-4.6-10.7-7.5-.1 0-2.3 2.8-2 3.2 3.2 4.1 6.6 8 10.3 11.6 3.5 3.8 7.2 7.4 11.2 10.7.7-1.1 1.4-2.1 2-3.2-4.2-1.1-8.1-2.4-12-4.4-3.8-2-7-4.5-10.3-7.3-.7 1.1-1.4 2.1-2 3.2 10.5 8 20.7 16.2 30.9 24.6.7-1.1 1.4-2.1 2-3.2-4.4-1.5-8.7-3.3-12.9-5.3-4.2-1.8-8.4-3.9-12.3-6.2-.2-.1-2.3 2.9-2 3.2 1.8 1.8 3.6 3.6 5.5 5.4 2.8 2.6 5.8 5 8.9 7.2 5.1 3.8 10.3 7.3 15.6 10.8.7-1.1 1.4-2.1 2-3.2-7.5-2.5-14.8-5.3-22-8.4-7.1-3.1-14.1-6.6-20.9-10.5-.3-.1-2.2 3-2 3.2 6 4.1 12 8.1 18.2 11.9 6.1 3.9 12.2 7.6 18.5 11.1.7-1.1 1.4-2.1 2-3.2-6.1-.9-12.1-1.9-18.1-3.6-6-1.7-11.6-3.9-17.3-6.4-.7 1.1-1.4 2.1-2 3.2 3.4.4 6.8.8 10.2 1.7 4.2 1.1 8.1 2.8 11.9 4.9 2.5 1.4 6.9 3.5 5.9 7.3.7-.9 1.3-1.8 2-2.7-5.7-1.2-11.3-3-16.7-5.2-5.6-2.2-10.9-4.8-16-7.9-.1-.1-2.2 3-2 3.2 1 1.2 2.2 2.1 3.7 2.6-.1-.1 1.7-3.4 1.8-3.3z"/></g></g></g><g id="XMLID_2961_"><g id="XMLID_82_"><path id="XMLID_86_" class="st1" d="M30 75.7l.3-.3c-.2.2-.6.3-.9.5l-.3.3c.2-.2.6-.3.9-.5z"/></g></g><g id="XMLID_2975_"><g id="XMLID_75_"><path id="XMLID_80_" class="st1" d="M34.9 75.8c.2-.1.5-.2.7-.3.3-.1.6-.4.8-.5-.2.1-.5.2-.7.3-.2.2-.5.4-.8.5z"/></g></g><g id="XMLID_2977_"><g id="XMLID_69_"><path id="XMLID_73_" class="st1" d="M15.8 51.3c6 3 12.4 4.7 19.1 5 .3 0 .6-.5.9-.5-6.7-.3-13.1-2-19.1-5-.2-.1-.7.6-.9.5z"/></g></g><g id="XMLID_2979_"><g id="XMLID_63_"><path id="XMLID_67_" class="st1" d="M15.4 58.7c5.2 3.8 11.5 5.3 17.9 4.3.3 0 .6-.5.9-.5-6.4 1-12.7-.5-17.9-4.3-.1-.1-.8.5-.9.5z"/></g></g><g id="XMLID_2981_"><g id="XMLID_56_"><path id="XMLID_60_" class="st1" d="M53.7 111.1c-5.6 5.7-12.8 9.2-20.7 10.4-.3 0-.6.5-.9.5 8.5-1.3 16.4-5.3 22.4-11.4-.1.3-.5.3-.8.5z"/></g></g><g id="XMLID_2983_"><g id="XMLID_50_"><path id="XMLID_54_" class="st1" d="M58.2 114.5c-5.4 5.8-12.4 9.1-20.3 9.4-.3 0-.6.5-.9.5 8.6-.3 16.2-4.2 22-10.4-.2.2-.6.2-.8.5z"/></g></g><g id="XMLID_2984_"><g id="XMLID_44_"><path id="XMLID_48_" class="st1" d="M7.7 127.6c5.1 2.8 10.5 4.6 16.3 5.3.3 0 .6-.5.9-.5-5.8-.7-11.2-2.5-16.3-5.3-.2-.1-.8.6-.9.5z"/></g></g><g id="XMLID_3017_"><g id="XMLID_38_"><path id="XMLID_42_" class="st1" d="M11.6 127c3.8 2 7.8 3.3 12 4.1.3 0 .6-.5.9-.5-4.2-.8-8.2-2.2-12-4.1-.2-.1-.8.6-.9.5z"/></g></g><g id="XMLID_3033_"><g id="XMLID_32_"><path id="XMLID_36_" class="st1" d="M17.7 11.2c5.4 2.8 11.2 4.3 17.3 4.4.3 0 .6-.5.9-.5-6.1-.1-11.9-1.6-17.3-4.4-.2-.1-.8.6-.9.5z"/></g></g><g id="XMLID_4674_"><g id="XMLID_26_"><path id="XMLID_30_" class="st1" d="M12.9 17.6c4.6 1.6 9.3 2.7 14.1 3.3.3 0 .6-.5.9-.5-4.8-.6-9.5-1.7-14.1-3.3-.2-.1-.7.5-.9.5z"/></g></g></g></svg>