<?xml version="1.0" encoding="iso-8859-1"?>
<!-- Generator: Adobe Illustrator 19.0.0, SVG Export Plug-In . SVG Version: 6.00 Build 0)  -->
<svg version="1.1" id="Layer_1" xmlns="http://www.w3.org/2000/svg" xmlns:xlink="http://www.w3.org/1999/xlink" x="0px" y="0px"
	 viewBox="0 0 512 512" style="enable-background:new 0 0 512 512;" xml:space="preserve">
<g>
	<g>
		<path style="fill:#fabc14;" d="M255.996,0c-42.419,0-76.8,34.381-76.8,76.8c0,42.419,34.381,76.8,76.8,76.8c42.419,0,76.8-34.381,76.8-76.8
			C332.796,34.381,298.415,0,255.996,0z M255.996,128c-28.228,0-51.2-22.972-51.2-51.2s22.972-51.2,51.2-51.2s51.2,22.972,51.2,51.2
			S284.224,128,255.996,128z"/>
	</g>
</g>
<g>
	<g>
		<path style="fill:#fabc14;" d="M357.978,341.018l-25.6-140.8c-2.21-12.169-12.809-21.018-25.182-21.018h-102.4c-12.373,0-22.972,8.849-25.19,21.018
			l-25.6,140.8c-1.357,7.467,0.666,15.155,5.53,20.983c4.864,5.828,12.066,9.199,19.661,9.199h16.358l9.327,117.231
			c1.05,13.312,12.16,23.569,25.515,23.569h51.2c13.355,0,24.465-10.257,25.515-23.569l9.327-117.231h16.358
			c7.595,0,14.788-3.371,19.652-9.199C357.312,356.173,359.334,348.484,357.978,341.018z M292.792,345.6l-11.196,140.8h-51.2
			L219.2,345.6h-40.004l25.6-140.8h38.4v76.8c0,7.074,5.726,12.8,12.8,12.8c7.074,0,12.8-5.726,12.8-12.8v-76.8h38.4l25.6,140.8
			H292.792z"/>
	</g>
</g>
<g>
	<g>
		<path style="fill:#fabc14;" d="M414.716,25.6c-33.929,0-61.44,27.511-61.44,61.44c0,33.929,27.503,61.44,61.44,61.44s61.44-27.511,61.44-61.44
			C476.156,53.111,448.644,25.6,414.716,25.6z M414.716,128c-22.588,0-40.96-18.372-40.96-40.96c0-22.588,18.372-40.96,40.96-40.96
			c22.588,0,40.96,18.372,40.96,40.96C455.676,109.628,437.303,128,414.716,128z"/>
	</g>
</g>
<g>
	<g>
		<path style="fill:#fabc14;" d="M496.311,298.419l-20.489-112.64c-1.766-9.737-10.249-16.819-20.147-16.819h-81.92c-9.446,0-17.434,6.536-19.695,15.599
			c1.519,3.524,2.799,7.177,3.507,11.093l7.526,41.404l8.661-47.616h30.72v61.44c0,5.658,4.582,10.24,10.24,10.24
			c5.658,0,10.24-4.582,10.24-10.24v-61.44h30.72l20.48,112.64h-32l-8.96,112.64h-40.96l-10.24-56.32l-15.36,25.6l5.188,32.341
			c0.845,10.65,9.728,18.859,20.412,18.859h40.96c10.684,0,19.567-8.209,20.412-18.859l7.458-93.781h13.09
			c6.076,0,11.836-2.697,15.727-7.356S497.395,304.393,496.311,298.419z"/>
	</g>
</g>
<g>
	<g>
		<path style="fill:#fabc14;" d="M97.276,25.6c-33.937,0-61.44,27.511-61.44,61.44c0,33.929,27.511,61.44,61.44,61.44c33.937,0,61.44-27.511,61.44-61.44
			C158.716,53.111,131.213,25.6,97.276,25.6z M97.276,128c-22.588,0-40.96-18.372-40.96-40.96c0-22.588,18.372-40.96,40.96-40.96
			c22.588,0,40.96,18.372,40.96,40.96C138.236,109.628,119.863,128,97.276,128z"/>
	</g>
</g>
<g>
	<g>
		<path style="fill:#fabc14;" d="M138.236,168.96h-81.92c-9.899,0-18.381,7.083-20.147,16.819l-20.48,112.64c-1.084,5.973,0.538,12.126,4.429,16.785
			c3.891,4.659,9.643,7.356,15.718,7.356h13.09l7.458,93.781c0.845,10.65,9.728,18.859,20.412,18.859h40.96
			c10.684,0,19.567-8.209,20.412-18.859L143.356,384l-15.36-25.6l-10.24,56.32h-40.96l-8.96-112.64h-32l20.48-112.64h30.72v61.44
			c0,5.658,4.582,10.24,10.24,10.24s10.24-4.582,10.24-10.24v-61.44h30.72l8.661,47.616l7.526-41.404
			c0.708-3.917,1.988-7.569,3.507-11.093C155.669,175.497,147.682,168.96,138.236,168.96z"/>
	</g>
</g>
<g>
</g>
<g>
</g>
<g>
</g>
<g>
</g>
<g>
</g>
<g>
</g>
<g>
</g>
<g>
</g>
<g>
</g>
<g>
</g>
<g>
</g>
<g>
</g>
<g>
</g>
<g>
</g>
<g>
</g>
</svg>
