<?xml version="1.0" encoding="utf-8"?>
<!-- Generator: Adobe Illustrator 19.2.0, SVG Export Plug-In . SVG Version: 6.00 Build 0)  -->
<svg version="1.1" id="Слой_1" xmlns="http://www.w3.org/2000/svg" xmlns:xlink="http://www.w3.org/1999/xlink" x="0px" y="0px"
	 viewBox="0 0 545.1 278.1" style="enable-background:new 0 0 545.1 278.1;" xml:space="preserve">
<style type="text/css">
	.st0{fill:#FFFFFF;}
	.st1{fill:#2E0B01;}
	.st2{opacity:0.55;fill:#2E0B01;enable-background:new    ;}
	.st3{opacity:0.2;enable-background:new    ;}
	.st4{fill:#44A3BC;}
	.st5{fill:#CB242D;}
	.st6{fill:#DC5B2B;}
	.st7{opacity:0.5;}
	.st8{fill:#C5CB79;}
	.st9{fill:#E2001A;}
	.st10{fill:#B70718;}
	.st11{fill:#EFB886;}
	.st12{fill:#BBDBE8;}
	.st13{fill:#50542E;}
	.st14{opacity:0.1091;fill:#FFFFFF;enable-background:new    ;}
	.st15{opacity:0.5;fill:#CB242D;enable-background:new    ;}
	.st16{opacity:0.6;}
	.st17{fill:#EC9488;}
	.st18{fill:none;stroke:#50542E;stroke-linecap:round;stroke-miterlimit:10;}
	.st19{opacity:0.2;fill:#55721A;enable-background:new    ;}
	.st20{fill:#55721A;}
	.st21{fill:none;stroke:#FFFFFF;stroke-miterlimit:10;}
	.st22{fill:none;stroke:#C5CB79;stroke-width:2;stroke-miterlimit:10;}
	.st23{fill:#CDC09E;}
	.st24{opacity:0.1;fill:#44A3BC;}
	.st25{opacity:0.9;}
	.st26{opacity:0.9;fill:#44A3BC;enable-background:new    ;}
	.st27{opacity:0.1091;fill:#44A3BC;enable-background:new    ;}
	.st28{opacity:0.1091;fill:#55721A;enable-background:new    ;}
	.st29{opacity:0.4;}
	.st30{opacity:0.9;fill:#55721A;enable-background:new    ;}
	.st31{opacity:0.4;fill:#55721A;}
	.st32{fill:#D95929;}
	.st33{fill:#F68D1A;}
	.st34{fill:#FFC73B;}
	.st35{fill:#FABC14;}
	.st36{fill:#FCAD17;}
	.st37{fill:none;stroke:#FFFFFF;stroke-width:2;stroke-miterlimit:10;}
	.st38{fill:none;stroke:#44A3BC;stroke-width:20;stroke-miterlimit:10;}
	.st39{fill:none;stroke:#44A3BC;stroke-width:20;stroke-linejoin:round;stroke-miterlimit:10;}
	.st40{fill:none;}
	.st41{fill:#3B5998;}
	.st42{fill:none;stroke:#000000;stroke-width:2;stroke-miterlimit:10;}
	.st43{opacity:0.6;fill:#333333;}
</style>
<g>
	<g id="XMLID_557_" class="st7">
		<g id="XMLID_722_">
			<g id="XMLID_723_">
				<g id="XMLID_724_">
					<path id="XMLID_729_" class="st14" d="M24935.1-380c0-3.2,0-6.4,0-9.6c0-1.5,0-3.2,0-4.9c0-3.9,0-8.4,0-13.8c0-1.5,0-3,0-4.4
						c0-4,0-7.9,0-11.9c0-5.3,0-10.5,0-15.8c0-3.8,0-7.5,0-11.1c0-3.7,0-7.3,0-10.7c0-6.9,0-13,0-19s0-11.9,0-18.3
						c0-3.1,0-6.3,0-9.7c0-3.6,0-7.2,0-10.9c0-0.8,0,1,0,0.9c0,0.9,0,2.3,0,3.2c0,2.9,0,5.6,0,8.2c0,1.8,0,3.5,0,5.1
						c0,4.2,0,8.1,0,11.9c0,7.7,0,14.8,0,22.8c0,3.1,0,6.3,0,9.6c0,4.2,0,8.6,0,13.2c0,0-65535,22216.5,0,28.2c0-0.9,0-1.9,0-2.8
						c0,6.4,0,13.2,0,18.3c0,1.8,0,3.5,0,5.1c0,4.2,0,8.1,0,11.9c0,0.2,0,2.1,0,2.3C24935.1-382.3,24935.1-380,24935.1-380
						L24935.1-380z"/>
				</g>
			</g>
		</g>
	</g>
</g>
<g>
	<g id="XMLID_1525_" class="st16">
		<g id="XMLID_1556_">
			<g id="XMLID_1557_">
				<g id="XMLID_1558_">
					<path id="XMLID_1561_" class="st14" d="M24935.1-454.5c0-0.5,0-1.3,0-2.5c0,1.2,0,2.5,0,3.7c0,1.3,0,2.6,0,4c0,0.6,0,1,0,1.2
						c0,2,0,4.4,0,6.4l0,0c0-0.9,0-1.2,0-2.1c0-1.5,0-4.7,0-6.1c0-2.3,0-3.3,0-4.5c0-1.1,0-1.9,0-2.6c0-0.9,0-1.4,0-1.6
						c0,0,0,3.5,0,3.7c0,2.4,0,4.7,0,6.4c0,1.7,0,2.7,0,3.6c0,0,0-3.4,0-3.7c0-7.4,0-15,0-23c0,1.2,0,2.5,0,3.7c0,3.9,0,7.4,0,10.6
						c0,2.2,0,5,0,8.4c0,0.1,0-2,0-1.9c0-0.3,0-1.6,0-1.9c0-3.5,0-7,0-10.9c0-1.5,0-3,0-4.7c0-2.3,0-4.9,0-7.7c0,1.2,0,2.4,0,3.7
						c0,1.5,0,2.9,0,4.3c0,2.8,0,5.1,0,7.1c0,0.1,0-1.3,0-1.5c0-0.5,0-1.9,0-2.2c0-8.5,0-16.6,0-24.6c0-0.3,0,0.9,0,0.9
						c0,0.5,0,2.2,0,2.6c0,0-65535,22257.1,0,11.9c0,0,0-3.4,0-3.7c0-3.3,0-6.9,0-10.7c0-3.7,0-7.5,0-11.6v3.6c0,2.9,0,3.9,0,6.3
						c0,2.8,0,4.5,0,6c0-0.1,0-0.2,0-0.4c0-1.5,0-2.9,0-4.4c0-2.2,0-3.6,0-5.1c0,0.1,0,1.8,0,1.9c0,0.3,0,1.6,0,1.9c0,1,0,1.9,0,2.9
						c0-0.1,0-0.3,0-0.4c0-0.6,0-1.4,0-2.5c0-2.2,0-5.4,0-9.7v1.5c0,0.6,0,1.7,0,2.2c0,4.1,0,8,0,11.6c0,3.8,0,7.4,0,10.7
						c0-1.2,0-2.4,0-3.7c0-0.7,0-1.7,0-3.2c0-2.1,0-5,0-8.5v3.6c0,8,0,16.1,0,24.6c0-1.2,0-2.4,0-3.7c0-3,0-6.8,0-11.5
						c0-0.1,0,1.3,0,1.5c0,0.5,0,1.8,0,2.2c0,4.5,0,8.7,0,12.6c0,3.8,0,7.3,0,10.9c0-1.3,0-2.5,0-3.8c0-1.3,0-2.5,0-3.8
						c0-1.6,0-3.1,0-4.6c0-0.9,0-1.7,0-2.5c0-2.4,0-5.1,0-8.1c0-0.1,0,2,0,1.9c0,0.4,0,1.6,0,1.8c0,8,0,15.6,0,23c0-1.2,0-2.5,0-3.7
						c0-0.9,0-1.9,0-3.6c0-1.7,0-3.9,0-6.4c0,1.2,0,2.5,0,3.7c0,0.7,0,1.7,0,4.2c0,1.6,0,3.3,0,6.2c0-1.1,0-2.3,0-3.4
						c0,4.7,0,5.4,0,1.9c0-3.9,0-7.6,0-11.1v1.9c0,0.3,0,1.6,0,1.9c0,1.1,0,2,0,2.5v-1.9C24935.1-452.8,24935.1-454.4,24935.1-454.5
						L24935.1-454.5z"/>
				</g>
			</g>
		</g>
	</g>
</g>
<g>
	<path class="st19" d="M366.1,198.5c-0.3-1.9-1.9-2.9-3.9-3.5c-2.3-1.3-5.5-1-6.5,1.6l-0.3,0.6c-0.3,0.6-0.3,1.3-0.6,1.6
		c-3.2,1-8.1,1-10.3,1.6c-4.5,1-9,1-13.6,2.3c-3.9,1.3-7.7,0.3-11.6,0.6c-2.9,0-7.1,0.6-11,0.3c-1.6-2.9-5.2-4.8-8.1-2.6
		c-2.6,1.9-3.9,3.2-4.5,6.5c-0.6,2.9,0.3,6.1,3.2,7.7c5.5,2.9,11.6,1.9,17.7,1.9c7.1,0,13.9-4.8,20.6-5.2s16.1-2.3,22.3-4.5
		C364.5,205.9,367.1,203.7,366.1,198.5L366.1,198.5z M482.3,80.4c-2.6,0-2.9,2.9-1.3,4.2c14.8,11,11,33.9-1.6,45.8
		c-9,8.4-24.8,18.7-36.1,22.3c-10.3,3.2-20.3,4.5-28.4,12.6c-4.8,4.8-12.9,6.8-17.4,11.6c-1.9-1.9-3.9-4.2-5.8-6.1
		c-1.3-1.3-3.5,0-3.2,1.9c1.3,5.2,2.9,9.7,5.5,14.2c1.3,4.5,8.4,4.2,10-0.3c1.6-4.2,14.2-8.4,18.1-11.3c6.8-5.2,15.2-11,22.9-14.2
		c12.9-5.2,26.1-13.2,35.8-23.6C491.3,126.9,512,80.7,482.3,80.4L482.3,80.4z M422.6,111.4c-11.9,0.3-24.2,4.5-34.8,9.7
		c-6.1,2.9-11.9,6.1-18.1,8.7c-0.6,0.3-2.9,1.6-3.2,2.3c-0.6,0.6-1.3,1.6-1.6,2.6l0.3-0.3c-1.3,1.9-1.3,3.9,0.3,5.8
		c0.3,0.3,0.6,0.6,0.6,1c1.3,1.6,3.2,1.9,5.2,1.6c4.8,1.6,11.9,0,14.5-3.9c0.6-0.6,0.6-1.6,0.6-2.3c2.6-1.3,5.5-2.6,8.1-4.2
		c10-6.5,21.6-7.4,29.7-16.8C425.5,113.7,424.5,111.4,422.6,111.4L422.6,111.4z M239.7,181.1c-6.8-2.6-13.9,3.9-20,5.8
		c-3.9,1.3-8.4-1.6-12.3,0c-3.5,1.6-6.1,2.6-8.1,6.1c-0.6,1.3-0.3,2.6,1,3.5c2.3,1.6,4.8,1.6,7.4,1.3c4.5-0.6,9,1.3,13.6,0.6
		c3.9-0.3,7.4-2.6,10.3-4.5c3.9-2.6,6.5-2.9,9.7-6.8C242.9,185,242.2,182.1,239.7,181.1z M236.4,210.8c-0.6-1-1.3-1.9-2.3-2.3
		c0.3,0,0.3-0.3,0.6-0.3c3.9-1.6,2.9-8.4-1.3-9c-8.7-1.3-15.5,2.6-23.9,3.5c-7.7,1-17.7,2.6-25.2,5.2c-10.3,4.2-31-0.3-38.7,9.4
		c-0.6,0.6-0.6,1.9,0.6,2.3c10.3,1.9,29,2.6,38.7-1.3c8.1-3.2,19.4-4.2,27.7-3.2h3.2c-2.9,1.9-5.8,3.5-9.7,4.2
		c-6.1,1-12.3,4.5-18.4,6.5l-3.9,1c-7.1,1.3-14.5,2.9-21.9,4.2h-1.3c-14.2,0-28.1,3.2-42.3,1.9c-7.4-0.6-14.8-0.6-21.9-0.3
		c-8.7-0.6-17.1-0.6-24.5,1.9c-1.9,0.6-1.6,2.9,0,3.5c5.8,2.3,12.3,3.5,19,4.5c-5.8,2.3-11.3,5.8-16.5,8.7c-3.9,2.3-6.8,4.5-11,6.5
		c-4.2,1.9-6.8,5.5-10.3,7.4c-1.9,1-1,3.2,0.6,3.9c1.9,1,3.5,1,5.8,0c4.5-1.9,10.6-2.3,15.2-4.8c7.1-4.2,16.8-8.7,25.2-10.6
		c1.6,0,3.5-0.3,4.5-1.6l0.3-0.3c2.3-2.6,2.3-5.5,1-7.7c6.8,0.3,13.6,0.3,19.4,0.3c7.7,0,16.1,0.3,23.9-1c5.5-1,11.9-1,17.7-1.6
		c4.5,0.3,9,0.3,13.9-0.6c16.8-3.5,34.2-2.6,51-6.8c1.6-0.3,2.9-1,3.9-1.9c2.9,0.3,5.5-2.6,5.5-5.5
		C240.6,220.8,239,215.6,236.4,210.8z M479.7,208.2c-15.5-1.9-30.3,2.3-46.1,2.9c-9,0.3-18.7-2.3-27.4-1.6c-2.6,0.3-5.2-0.3-7.7-1.3
		c-1.3-2.3-3.9-3.5-6.8-2.6c-1-0.3-1.6-0.6-2.6-1c-1.6-2.6-4.5-3.5-7.4-2.9c-2.9-1.3-6.8-0.6-9.4,2.6c-3.5,5.2-10,5.8-15.8,7.7
		c-2.3,0.6-2.3,3.9,0,4.5c6.8,2.6,11.3,4.5,15.2,4.2c1,2.6,3.9,4.5,6.5,4.5c3.5,0,5.8-1,6.8-2.6c1,0.3,1.9,0.3,2.9,0
		c1.3-0.3,2.3-1,3.2-1.3c1,0.6,1.9,1.3,2.6,1.6c4.5,2.3,10,0.6,14.5,1.6c9.4,1.6,17.1,0.3,26.1-2.3c8.1-2.3,16.8-1.9,24.5-4.8
		c6.8-2.6,14.5-2.6,20.6-6.5C481.6,209.8,481,208.2,479.7,208.2L479.7,208.2z M359.4,191.1c-6.1-2.9-15.5-6.8-20-11.9
		c-4.2-4.8-8.1-11.6-11.3-17.1c-5.2-8.7-15.2-26.1-27.4-23.9c-1.6,0.3-2.9,2.6-2.3,4.2c1.6,3.9,3.5,7.7,5.8,11.3
		c-1.3-0.6-2.6-0.6-3.5,0c-1.3,0.6-2.3,2.6-1.6,4.2s1,3.5,1.3,5.2c0.3,1.3,1,2.6,1.9,3.5c0.3,0.6,1,1,1.6,1.6
		c0.6,0.3,1.3,0.6,2.3,0.6c1.3,0,1.6-0.3,0.6,0c2.3-0.3,4.5-2.3,3.5-4.8v-0.3c0-0.3-0.3-1-0.3-1.3c12.3,15.8,30,29,48.7,31
		C359.7,192.7,360,191.4,359.4,191.1z"/>
	<path class="st19" d="M195.8,193c-16.8-0.6-32.6,3.9-49,7.1c-14.2,2.6-28.4,1.3-42.6,4.2c-1.9,0.3-1.9,3.5,0,3.9
		c14.5,2.9,25.8,5.8,41,3.2c16.5-2.9,38.1-4.2,51.9-13.6C199.3,196.6,198.7,193.3,195.8,193z M296.8,108.2c-4.5,0-8.4,0.6-11.9,3.5
		c-0.3,0-0.3,0.3-0.3,0.3s-0.3,0-0.3,0.3c-1,0.6-1.6,1.3-2.3,1.9c-1.9,1.9-2.6,4.8-1.9,7.7c1.3,4.8,6.5,6.8,11,4.8
		c1.6-0.6,3.2-1.6,4.5-2.9h0.6c4.8,0,7.1-5.2,7.1-9.4C302.9,111.1,300.3,107.8,296.8,108.2L296.8,108.2z M291,145.3
		c-0.3,0-1,0.3-1.3,0.3c1.3-1.3,2.6-2.9,3.9-4.2c2.3-2.3,0.6-6.1-2.6-6.1s-5.2,1.9-7.1,3.9l-0.3,0.3h-0.3c-1-0.3-1.6-0.3-2.6-0.3
		c1.3,0,0.3-0.3-0.3-1.3c-1.9-2.9-6.1-11.6-10.3-5.8c-0.3,0.3-0.3,1-0.3,1.6v1.3c-0.3,1.9,0.3,3.9,1,5.8c0.6,1.3,1.3,2.9,1.9,4.2
		c-3.9-3.9-7.4-9.4-4.8-12.3l1-1c3.5-5.2-3.9-10-8.1-6.5c-10.3,9.4-2.3,14.8,1.3,25.2c0,0.3,0.3,1,0.6,1.3
		c-18.7,20-22.9,50.7-17.1,76.8c0.3,1.3,2.3,1.3,2.3,0c1.9-8.4-0.3-28.1,5.8-34.2c1-1.3,2.6-6.8,2.6-6.8c1.9-1.3,3.9-3.9,5.2-5.8
		c2.6-4.2,8.7-12.9,11.6-21.3c4.2,1,8.7,1,12.9-0.3c2.3-0.6,3.9-2.9,3.9-5.2c1-0.6,1.9-1.3,2.9-1.6C297.7,151.1,296.1,144,291,145.3
		z M351.6,50.4c-11.9-1.6-22.3-2.3-33.2,3.2c-3.2,1.6-6.1,5.2-8.4,8.4c-3.9,4.8-9,8.1-12.9,12.9c-4.5,5.5,2.6,12.6,7.7,7.7
		c0,0,6.8,2.3,7.1,2.3c1.9,0,1.9,0.3,0,1.3c0,1,0,1.9,0.3,2.6c-1.3,0.3-2.3,0.6-3.5,1c-3.9,1.6-3.5,7.7,0,9.7
		c8.7,4.5,21.9,4.5,29.7-1.6c7.1-5.2,10.3-10,13.6-18.1c0.6-1.3-1-2.9-2.3-2.3c-4.8,1.9-7.7,6.5-12.6,9c-4.8,2.6-10,2.3-14.8,1.9
		c0.3-1.9,0.3-4.2,0.3-4.8c0.3-3.5-1.9-8.7-5.8-9.7c-0.3,0-1-0.3-1.3-0.3c0.6-0.3,1.3-1,1.9-1.3c2.9-1.9,4.8-5.2,7.7-7.4
		c8.1-6.1,19.4-5.8,27.4-11.3C353.9,52.7,353.2,50.7,351.6,50.4L351.6,50.4z M283.5,76.9c-6.1-1.9-9,1-13.2,5.2
		c-0.3-1.3-0.6-2.9-1.3-4.2c-2.3-4.8-5.8-9.4-9.4-13.2c-0.6-0.6-1.6,0.3-1,1c3.2,7.1,5.5,14.2,5.8,21.6c0-0.3-0.3-0.3-0.3-0.6
		c-1.3-3.2-3.5-6.1-6.8-8.1c-1.9-1.3-3.9-2.9-6.1-3.5c-1-0.3-2.9-0.6-3.9-1.6c-1-1-2.6,0.3-1.9,1.6c1.9,4.2,5.5,7.7,7.7,11.6
		c1.3,2.3,1.6,4.2,2.6,6.8c0.3,1.3,1,4.5,0.6,6.1h-1.3h-0.3c-1-0.3-1.9-0.6-2.9-0.6c-0.3,0-0.6-0.3-1-0.3c0,0-1-0.3-0.3,0
		c-0.6-0.3-0.6-0.3-1-0.3c-1.6-1-3.9-0.3-4.5,1.6c-0.3,1.9,0,3.2,1.3,4.8l1,1c0,0,0.3,0.3,0.3,0.6c-0.6-0.6-0.3-0.3,0,0
		c-0.3,0.3-1,1-1.3,1.6c-1.3,1.3-1.6,2.9-2.3,4.5c-1.6,3.9-1.3,6.5-0.3,9.4c-16.8,4.8-31.6,17.7-40.7,31.9c-1.3,1.9,1.6,4.2,3.2,2.6
		c5.2-5.8,14.2-10.6,21-14.8c7.1-4.5,16.8-9,25.2-10.3c2.3-0.3,3.9-2.9,3.9-5.5c1.6-0.6,2.9-2.3,2.6-4.2v-1.3
		c-0.3-1.6-0.6-2.9-1.9-4.2v-1c0.3-1.3,0.3-1.9,0.3-1.9c0.6-0.6,1-1.6,1.3-2.9v-1l0.3-0.3c2.3,0.6,4.8,0.3,6.1-2.3
		c1-1.3,1.3-2.9,1.6-4.5h1c3.2,0,6.1-1,8.4-3.5c1.3-1.3,1.6-2.9,1.3-4.5c1.6-2.6,3.2-5.2,5.5-7.4C287.1,85.3,288.4,78.2,283.5,76.9
		L283.5,76.9z"/>
	<path class="st20" d="M539.7,157.9c-15.5-2.9-29.4,12.3-40.7,21c-8.1,6.1-20.3,10.3-29.7,13.9c-13.2,5.2-27.4,6.5-41.3,7.1
		c-9.4,0.3-18.4,0.3-27.4,0.3c-0.3-0.6-0.3-1.3-0.6-1.9c13.2-6.5,25.2-14.5,34.8-24.2c11.6-11.6,26.1-19,39.4-28.4
		c10-7.1,22.3-17.1,26.5-29.4c3.9-11.3,3.2-34.2-10.6-36.5c-1.9-1.6-4.5-2.6-7.4-2.9c-3.2-0.3-18.1-1.6-15.8,6.1
		c1.3,4.5,7.4,7.4,9.4,11.9c0.3,1,1,2.3,1,3.5c0.3,3.5,0.3,7.1,0.3,10.6c-1,5.5-3.5,10.6-7.4,14.8c-1,1-1.9,1.9-3.2,2.9
		c-1.9,1-3.5,2.6-5.5,3.9c-1.3,0-2.9,1-3.9,2.3c-4.5,2.3-9.4,4.2-13.9,5.8s-3.9,1-8.1,3.2c-1.3,0.6-3.2,2.9-5.2,4.8
		c-15.2,4.8-28.7,15.8-43.6,22.3c-3.9-7.7-8.1-14.8-13.6-21.9c1.6-0.6,2.9-1.3,4.5-1.9c29.7-12.9,59-27.4,78.7-54.2
		c5.8-7.7,12.3-18.1,10.3-28.4c-0.3-1.3-1-2.6-1.9-3.9c-1-1.9-1.9-3.5-3.5-5.5c-4.2-5.5-19.4-14.8-24.8-6.5c-0.6,1,0,2.3,1.3,2.9
		c12.9,5.2,12.3,16.5,9,27.4c-2.9,5.2-6.1,10.3-10.3,14.2c-12.9,13.2-31.3,19.7-47.8,26.5c-6.1,2.6-11.9,6.8-18.1,10
		c-3.5,1.9-7.4,3.5-11.3,4.8c-11.3-10-24.5-16.1-39.4-19.7c-0.3-0.3-0.6-0.3-1-0.6c7.1-0.3,14.2-1.3,21.3-2.6
		c10-1.9,19.7-4.5,28.4-10c2.6-1,5.2-2.3,7.4-3.5c3.5-1.9,6.1-4.2,9-7.1c4.2-4.5,9-7.4,12.9-12.3c2.9-3.5,5.5-7.1,7.7-11
		c1-1.3,1.6-2.3,2.6-3.5l1-1c1-1.9,1.9-3.9,2.9-5.5c1.3-3.9,2.6-7.7,4.2-11.6c0.3-1.3,0.6-2.9,1-4.5c0.3-3.5,0-7.1-1.3-10.3h-0.6
		c-16.5,5.5-30.3,8.1-47.4,7.7c-13.2-0.3-26.8,7.7-39.4,11C312.9,52,299,66.6,291.9,81.4h-3.2h-0.3c-0.6-7.1-1-14.5-2.9-21
		c-3.2-10.6-13.2-17.7-21.3-24.5c-10.3-8.1-21.9-15.2-34.2-19.7c-4.2-1.6-11-3.5-15.5-4.2c-3.9-0.3-8.4-0.3-12.3-1.9
		c-2.9-1.3-6.5-6.5-9-9.4c-1.6-1.6-3.9-0.3-3.9,1.6c1,26.1,11.3,45.2,22.6,68.1c5.2,10.6,9,20,18.1,28.4c3.2,2.9,7.7,6.8,11.9,6.1
		c-5.5,1-10,1.9-14.8,4.5c-11,5.2-21,12.9-31.3,19.7c-12.6,8.4-25.8,15.8-38.1,24.5c-10.3,7.4-20.3,15.5-29.7,24.2
		c-4.5,4.5-14.5,9-15.8,15.8c-0.3,1.3,1.3,2.6,2.6,2.3c22.6-1.9,48.1-1,71.9-4.5c-22.6,5.5-45.2,8.7-68.4,7.4l-38.7-1.9
		c-12.9-0.6-26.1,0-39-1.9c-5.2-0.6-10-1.3-15.2-1.3c-3.9,0-9-1.9-12.6-0.6c-6.1,1.9-10,6.1-10.3,12.6
		c-0.6,11.6,13.9,11.3,25.5,11.6c1.9,7.1,14.2,9.7,20.3,11.6c10.6,3.5,21,8.4,31.6,11.3c-8.7,3.9-17.7,7.1-25.8,11.6
		c-0.3,0-0.6,0-1,0.3c-2.6,0.6-4.8,2.3-7.1,3.2c-7.4,2.6-14.8,7.4-22.9,3.5c-9-4.2-1.3-11.3-5.5-16.1c-4.5-5.2-13.6,0.3-16.5,5.2
		c-4.5,7.4,4.5,17.1,9.7,21.3c9.7,8.4,14.5,10.3,28.1,8.1c14.8-2.3,29.7-8.4,44.2-12.6c16.1-4.5,30.3-12.6,45.5-18.7
		c1.3-0.6,2.9-1.3,4.2-1.6c1,0,2.3,0,3.2,0.3c15.2,1.3,30.3,0,45.5-1.9c16.1-2.3,31.9-4.5,48.1-6.5c3.9-0.3,7.4-1,11.3-1.3
		c1.6,8.4,3.9,16.5,8.7,23.2c0.3,0,0.6,0.3,0.6,0.6c2.3,2.3,4.2,4.5,6.1,6.8c1,0.6,1.9,1.6,2.9,2.3s1.9,0.6,2.6,0
		c1.6-1.3,1.6-1.9,1.9-3.9c1.3-5.5,4.5-10.3,8.4-14.5c6.1-6.8,11.6-14.5,16.5-22.6c11.6-2.6,23.6-4.5,35.2-6.8
		c4.8,0.6,9.7,1.6,14.5,1.9c32.6,3.5,64.9,5.5,97.8,3.5c13.6-0.6,26.8-5.2,39.7-9.4c13.9-4.5,28.1-8.1,39.4-17.4
		C519.1,194.3,559.4,161.4,539.7,157.9L539.7,157.9z M395.2,186.6l0.3,0.3c0.6,0.6,1.6,1.3,2.6,1.9c-0.6,0-1.3,0-1.6,0.3
		C395.8,188.2,395.5,187.2,395.2,186.6L395.2,186.6z M398.4,166.2c3.5-1.3,7.1-2.6,11.3-3.5c4.2-0.6,9-1.3,12.6-4.2
		c1-0.6,1.6-1.6,2.3-2.6c2.6-1.6,5.5-3.9,7.7-6.5c0.3,0,0.3,0.3,0.6,0c6.8-3.9,13.2-7.1,21-9c6.5-1.6,12.3-4.8,16.5-10
		c4.2-4.8,7.1-9.7,8.7-15.8c0.6-1.6,1.3-2.9,1.6-4.5c0.3-3.9,0.6-7.7,1.3-11.6c-0.3-3.5-1.3-6.8-3.2-9.7c-0.6-1-2.3-2.9-3.5-4.5
		l-1-1c-1.3-1.3-0.6-3.5,1-3.9c1.3-0.3,2.6-0.3,3.9-0.3c2.9,1.6,5.8,4.8,7.7,6.8c3.9,4.5,5.2,10.3,6.8,16.1
		c1.6,6.1-2.3,16.5-7.7,19.7c-3.2,1.9-3.5,3.5-5.5,6.8c-0.3,0.3,0.3,0.6,0.6,0.3c1.9-1.9,3.5-4.2,6.1-5.5c1.9-1,3.2-2.6,4.5-4.5
		c3.5-5.2,5.5-11.6,4.5-17.7c-1-6.1-3.5-11.9-7.4-16.8c-1.3-1.6-3.5-3.9-6.1-5.2c7.1,1.3,12.3,7.1,14.2,14.2v1
		c0.3,1.3,0.3,2.3,0.6,3.5c2.6,16.5-7.7,28.7-21.3,39.4v-0.3c0.6-1.3,1-2.9,1-4.5c0-0.6-1-0.6-1,0c0,1.3-0.6,2.9-1.3,4.2
		c-0.3,0.6-1,1.6-0.6,2.3c-2.9,2.3-5.8,4.2-8.7,6.1c0-0.6,0.3-1,1-1.3c1-0.6,0-1.9-1-1.3c-1.3,0.6-2.3,2.6-1.9,3.9
		c-11,7.1-21.9,13.6-30,20.6c-3.2,0.6-5.5,3.5-8.4,4.8c-1,0.3-1.9,0.6-3.2,1.3c-0.3,0-0.3,0-0.6,0.3c-2.3,1-4.2,1.9-6.1,3.2
		c-3.5,0.6-8.7,0.6-9-4.2c0-1-1.6-1-1.6,0c0,1.3,0,2.6,0.3,3.9c0.6,1.3,2.3,2.3,3.5,2.6c1,0.3,1.9,0.6,3.2,0.6
		c-1.6,1.3-2.9,2.6-4.2,4.2c-2.3-1-4.8-1-6.8-2.6c-0.6-0.6-4.5-2.9-3.2-3.9c0.6-0.6-0.3-1.6-1-1.3c-3.9,2.9,3.5,8.7,9,10l-1,1
		c-0.6,0.3-1.3,0.6-1.9,0.6c-1.6-0.6-2.9-1.6-4.2-2.6c-2.6-1.6-4.2-4.2-4.8-7.4c0-0.6-1-0.3-1,0v1.3c-0.3-1-1-1.9-1.3-2.9
		c-0.6-1.9-1.6-3.5-2.3-5.2C391.6,169.8,395.2,168.2,398.4,166.2L398.4,166.2z M369,141.1h3.2c-0.6,0.3-1.6,0.6-2.3,1
		C369.7,142,369.4,141.7,369,141.1z M377.1,129.1c14.5-7.1,29.4-13.9,43.9-21c2.9-1.6,5.8-3.2,8.7-5.2c6.5-6.1,12.6-13.2,16.8-21
		c-0.3,1-1,2.3-0.6,3.2c0,0.3,0.6,0.6,1,0.3c1.3-0.6,1.3-2.3,1-3.5c0-0.6-0.6-0.6-1-0.3c1.6-3.2,3.2-6.5,3.9-10c0,0.6,0,1.3,0.3,1.6
		c0,1.9,0.3,4.2,1.3,5.8c0.3,0.3,0.6,0.3,1,0c1-1.6,0.3-3.5,0-5.5c-0.3-1-0.3-1.9-0.3-2.9c-0.3-1.3-1-2.3-1-3.5
		c0.3-1.9,0.3-3.9,0.3-5.8c1,2.6,1.3,5.8,2.9,8.1c0.3,0.3,1,0.3,1,0c0.6-3.2-1-7.1-2.3-9.7c-1-1.9-2.3-3.9-3.5-5.5
		c-1.9-3.2-4.8-5.8-8.1-7.7c3.5-2.3,9.7,2.3,14.2,6.5c1.3,1.9,2.3,3.9,2.6,4.5c1.3,3.5,3.5,8.1,1.6,11.9c-1.6,3.2-3.2,4.5-4.2,8.4
		c-0.3,1.9-1,3.9-1.3,5.8c-18.1,26.1-43.6,40.7-71.3,53.2c0.6-0.3,1.3-1,1.3-1.9c0-0.3-0.3-0.3-0.6-0.3c-4.8,0.3-9.4,0.3-14.2,0.6
		c-1,0-1,1.3,0,1.3c3.5,0.3,7.4,0.6,11,0.6c0.6,0,1.6,0,2.6-0.3c-1.6,0.6-3.5,1.6-5.2,2.3c-1,0.3-1.9,0.3-2.9,0.3
		c-2.3,0-4.5,0.3-7.1,0.3c-1.3-1.6-2.9-2.9-4.2-4.5C368.1,133.3,372.6,131.1,377.1,129.1L377.1,129.1z M329,140.4
		c2.9,1.6,6.5,2.6,9,4.2c5.8,3.9,10.6,8.4,16.1,12.6c0.6,0.6,1.6-0.3,1-1c-3.5-5.5-8.7-9-14.2-12.9c-2.6-1.6-5.2-3.2-8.1-4.2
		c-1-0.3-1.9-0.3-2.9-0.3c2.3-6.5,2.3-13.2-1-18.7c16.1,5.8,29.4,16.1,41,31c6.8,8.7,11.6,17.7,15.5,28.1c3.2,7.7,8.1,16.1,10,24.5
		c-0.3,0-0.6-0.3-1.3-0.6c-2.3-1.9-5.2-4.5-7.7-4.8c-4.8-0.6-9.7-2.9-13.9-5.2c-1.9-1-3.5-1.6-5.5-2.3c-1-4.2-3.2-8.7-5.2-12.3
		c-1.9-3.9-5.2-7.7-9-9.7c-0.6-0.3-1,0.6-0.3,0.6c7.1,3.5,9.7,13.2,12.3,20.6c-2.9-0.6-5.8-1-8.4-1.3c-6.5-1.9-12.6-4.2-19-7.1
		c-7.1-3.2-14.5-9-20.6-15.5l-0.3-0.3c-1.3-1.3-2.6-2.6-3.9-4.2c-1.9-2.9-3.5-5.8-4.8-8.4c-1.6-2.9-2.9-5.8-4.5-8.7
		c-0.3-0.6-0.6-1-1-1.3c-0.6-1-1-1.6-1.6-2.3c-0.3-0.3-0.6-0.6-1.3-0.6c0.3-1.3,0.3-2.6,0.3-3.5c0.3,0.3,1,0.3,1.3,0.6h1
		c0.3,0,0.6,0,1,0.3c1.3,1,2.6,2.3,3.9,3.5l0.3,0.3c2.6,1.3,4.8,2.6,7.1,4.5c0.6-0.3,1-0.3,1.6,0c1.9,1,3.5,1.6,5.5,1.6
		c1.3-1,2.3-2.3,3.5-3.2c1.3-1.9,1.9-3.5,2.9-3.5C328.1,140.8,328.7,140.8,329,140.4L329,140.4z M375.5,200.4
		C375.2,200.4,375.2,200.4,375.5,200.4C375.2,200.4,375.5,200.4,375.5,200.4z M300,214c0.3-0.6,0.3-1.3,0.6-1.6
		c0.6,1,1.6,1.9,2.6,2.6C302.3,214.6,301.3,214.3,300,214z M282.9,141.1c1.9,0,3.2-1.6,5.2-1.6h0.3c1.3-1,2.6-1.9,3.9-2.6
		c0.3-0.6,1-1.3,1.6-1.6c1-0.3,2.3,0.3,2.6,1.3c0.6,2.3-1.9,5.5-2.9,7.1c-0.6,1-2.3,1-2.9,0.3c-1.3-1-1.9-0.6-2.9-0.6
		c-1.9,2.3-3.9,5.8-5.5,3.5c-1-1.3-2.6-2.6-4.2-2.6c-5.2-0.6-5.5-4.8-7.1-8.7c-0.6-1.3-1-2.6-1-3.9c3.2,0.3,6.8-1.3,8.4,4.8
		c0.6,2.3,1,3.2,2.3,4.8c0.3,0.3,1,0.6,1.6,1C281.6,142,281.9,141.1,282.9,141.1L282.9,141.1z M296.8,154.3c-0.3-1-0.6-1.9-1-2.6
		c-0.6-2.3,2.6-3.9,3.5-1.6c0.3,0.6,0.3,1,0.6,1.6c0.3,0.3,0.3,0.6,0.6,1C299.4,153.3,298.1,154,296.8,154.3L296.8,154.3z
		 M303.2,157.2c1.3,1.9,2.3,3.9,3.5,5.5c0.6,0.6,1,1.3,1.6,2.3h-1c-0.3,0-0.6,0-0.6-0.3s-0.6-0.3-1-0.3c-0.6-0.3-1.6-0.6-2.3-1
		c-1.6-1.3-3.5-2.6-4.5-4.5C300.6,158.5,301.9,157.9,303.2,157.2L303.2,157.2z M300.6,176.2l13.6-4.8c5.8,5.5,12.3,10.6,19,13.9
		c0.6,0.3,1,0.6,1.6,0.6c-5.5,1.6-11.3,3.2-16.8,5.2c-3.9,1.3-7.7,2.3-11.6,3.5h-4.8C301.9,188.5,301.6,182.4,300.6,176.2z
		 M321,117.5c4.8,2.9,6.8,7.4,6.5,13.2c0,2.3,0.3,5.8-2.3,5.5c-0.6,0-1.6,0.3-1.9,1c-2.9,4.2,1.6,11-10.6,3.5
		c-4.8-2.9-9.4-6.5-14.5-9.4c0,0-0.3,0-0.3-0.3v-0.6c-1,0-1.9-0.3-2.9-0.3v0.3c-1.3,0-2.3,1-3.5,1.9c-0.6,0.3-6.8,9.7-9,2.3
		c-0.3-1.3-1-2.6-1.9-3.5c-2.6-2.3-7.7-2.6-10.3-5.2c-0.3-1-0.6-1.6-1.3-2.6c-0.3-1,0-1.9,0.3-3.2c0.3-1,1-1.6,1.6-2.6
		c0.6,0,1-0.6,1.3-1c2.6-2.3,5.8-4.2,7.7-5.8c1-1,2.6-1.6,3.2-2.9s1-1.6,1-2.9C283.5,96.2,301,92,301,98.8c0,0.3,0,1,0.3,1.3h0.3
		c1.6,0.3,3.2,0,4.8,0c1.9,0,3.5,0.6,4.8,1.6c1,1,1.6,2.3,1.9,3.5c0,1.9-1.9,2.9-3.2,1.3c-2.9,0-5.5,0.3-8.4,1
		c-0.6-0.3-1-0.3-1.9-0.3c-0.3,0-1,0.6-0.6,1c-0.3,0.3-1,0.3-1.3,0.6c0-1.3-0.3-2.3-0.3-3.5c0-1.6-1.9-6.1-4.2-5.8
		c-0.3,0-0.3,0.6,0,1c1.3,0.6,1.6,2.9,1.9,4.5c0,0.3,0,4.5-0.3,5.8c-0.3,0.3-0.3,0.3-0.6,0.3c-1,0.6-0.6,1.9-0.3,2.6l0.3,0.3
		c0.3,0.3,1,0.3,1.6,0c1.9-0.6,3.5-1.3,5.5-1.6c0,1.3,0,2.9-0.6,4.2c-0.3,0.6-0.6,1.3-1.3,1.9c-0.3,0-0.6-0.3-1-0.3
		c-1-0.6-1.9-1.9-2.3-2.9c0-1-1.3-1-1.3,0c0,1.3,0.3,2.6,1.3,3.5c-0.6,0.3-0.6,1-1.3,0.6c-1,0-1.9-1-2.3-1.9c-1-1.3-1-2.6-1-4.2
		c0-0.6-1-0.6-1,0c-0.3,2.6,0,4.8,1.6,6.8l0.3,0.3v0.3h-1.9c-1-0.6-1.3-1.3-1.9-2.3c-0.3-1-0.6-1.9-0.6-2.9c-0.3-1-1.3-0.6-1.6,0
		c-0.3,1,0,3.2,1,4.8c-2.3-0.3-2.9-2.3-4.5-3.2c-0.6-0.3-1.3-0.3-1.9,0.3c-2.9,3.2,1.6,6.5,4.5,7.4c1.3,0.3,2.3,0.6,3.5,0.6
		c2.3-0.6,4.5-0.6,6.8-0.3c0.6,0,1.6-0.3,2.3-0.3c0.3,0,0.6-0.3,1-0.3c1.3-0.3,2.3-1.3,3.2-1.9c0.6,0.3,1.6,0.6,1.9,0.6
		c1.3,0.6,1.9,1.6,2.9,2.6c1.6,2.3,2.3,5.2,3.2,7.4c0.3,0.6,1.3,0.6,1.3,0c1.3-3.9-0.6-8.1-3.5-10.6c-1-1-2.6-1.9-4.2-2.3
		c0.3-0.3,0.6-1,0.6-1.3c6.8-4.2,12.3,3.9,15.5,9c0.3,0.3,0.6,0,0.6-0.3c-1.6-5.2-3.9-10-9.4-11.6c-2.3-0.6-4.5-0.6-6.8,0
		c0-1,0.3-1.6,0.6-2.3c0-0.3,0-1-0.3-1.3h0.3c0,0.3,0,1,0.3,1.3c1.6-2.6,5.5-3.5,9.4-1.6C316.8,113,319,114.9,321,117.5L321,117.5z
		 M405.5,57.8c-0.6,0.6-1.3,1-1.6,1.6c-8.7,12.9-20,25.8-33.6,33.6c-1.9,1.3-4.2,2.3-6.5,2.9c-1,0.3-1.9,1-2.6,1.3l-3.9,1.9
		c-2.3,0.3-4.5,0.6-6.8,1.3c-5.5,1.3-11,1.3-16.1,2.3c-2.6,0.6-12.6,1.9-15.5,5.2c-0.3,0-1-0.3-1.3-0.3c0.3-1,0.3-1.9,0-2.9
		c-0.6-1.3-1.3-2.6-2.3-3.5c1.9,0,4.5,0,5.2-0.3c4.5-0.6,8.7-1.9,13.2-3.2c8.4-2.3,13.2-8.1,19-13.9c0.3-0.3,0-1-0.6-0.6
		c-5.8,4.8-11.6,9.7-19,11.6c-7.1,1.9-14.2,3.5-21.3,2.9c-0.3,0-0.6,0-1,0.3c-0.3-0.3-1-0.6-1.6-0.6c-1.3-1.3-1.6-2.9,1-4.8
		c2.9-2.3,2.9-4.8,1.3-8.1c-0.3-1-1.3-1.6-2.3-1.9c-0.6-1.6-1.6-2.3-3.2-2.3h-0.6c11-10.3,23.9-17.7,39.4-22.6
		c11.9-3.9,24.2-4.8,36.8-5.2c8.4-0.3,17.4-0.3,26.1,0C406.8,53.6,406.1,55.6,405.5,57.8L405.5,57.8z M312.3,61.4
		c9.4-9,22.9-10.6,34.5-14.8c5.8-1.9,11.6-4.2,17.7-5.5c6.5-1.3,14.2,0,21-0.3c10.3-0.3,19-3.5,28.4-7.1c-0.6,4.2-1.6,8.4-2.9,12.3
		c-0.3-0.3-0.6-0.3-1,0.3c-0.3,0.3-0.3,0.6-0.6,0.6c-8.4-0.6-17.1-0.6-24.8-0.3c-12.9,0.3-26.1,0.6-38.7,4.5
		c-19,5.8-34.8,15.2-48.1,28.7c-1,0.3-2.3,0.3-3.2,0C299,73,306.1,67.5,312.3,61.4L312.3,61.4z M238,227.9c0.6,0.3,1,0.3,1.6,0.3
		c-0.6,0-1,0-1.6,0.3C238.4,228.2,238.4,228.2,238,227.9z M233.5,208.5c0.3-0.3,0.6-1,1-1.3v1.3H233.5z M212.6,210.1h4.5
		c-8.7,1-17.4,2.6-25.8,4.8c-15.2,1-30,1-45.2,0.6c28.4-7.1,58.1-9.7,87.1-13.2c-0.3,0.6-0.3,1.3-0.6,1.9c-1,1.3-2.3,2.9-3.2,4.5
		c-2.9,0.3-5.5,0.3-8.4,0.6c-2.3-1.9-5.5-1.3-8.1-1.3C211.3,208.5,211.3,210.1,212.6,210.1L212.6,210.1z M112.2,213.4
		c11.9,1,23.9-0.3,36.1-2.6c-5.5,1.3-10.6,2.6-15.8,4.5h-1.6C124.5,215.3,118.3,215,112.2,213.4L112.2,213.4z M116.4,214.6
		c-2.3-0.3-4.8-0.6-7.1-1.3c-2.6-0.6-5.2-1.3-7.7-1.6C106.4,212.7,111.2,213.7,116.4,214.6z M164.5,207.5c7.7-1.9,15.5-3.5,23.2-5.2
		c16.8-3.5,33.6-6.5,50.3-9.7c-0.3,1.6-0.3,2.9-0.6,4.5C213.2,199.5,188.7,203,164.5,207.5z M214.5,192.4
		C214.5,192.1,214.5,192.1,214.5,192.4c-1.9-1.3-4.2-1-5.8-1.3c-0.6,0-1.3-0.3-1.9-0.3c3.9-1,7.4-2.3,11-3.2c1,0.3,2.3,1,2.9,1
		c1.3,0.6,3.2,1.3,4.8,0.6c0.3-0.3,0.3-0.6,0-1c-1.3-1-2.6-1.3-4.2-1.9c5.8-1.6,11.6-3.5,17.4-5.2v0.3c-1.3,1.6-2.9,3.5-3.9,5.5
		c-0.3,0.3-0.6,0.6-1.3,1C227.4,189.5,220.9,190.8,214.5,192.4z M245.5,172.7c-6.8,2.3-13.9,4.5-21,6.8
		c11.9-6.1,22.3-14.5,30.3-27.4c0.3-0.6,0.6-1,0.6-1v0.6c-1,1.6-2.6,4.8-2.9,5.8C250.3,163,248.4,167.9,245.5,172.7L245.5,172.7z
		 M28,206.6C28,206.6,28,206.3,28,206.6c-3.5-1.3-7.4-1-10.6-2.3c-1.9-1-4.2-1.3-6.5-1c-0.6,0-0.6,1.3,0,1.3h0.3l0.3,0.3
		c0.3,0.3,0.6,0,0.6,0c2.9,1,5.8,1.9,9,2.6c-1,0.3-1.6,0.3-2.6,0.3c-2.9,0.3-5.8-1-8.7-1.6c-0.3,0-0.6,0-0.6-0.3
		c-0.3-0.6-1-0.6-1.3-0.3c-0.3-0.6-0.6-1-1-1.6c1-6.1,4.8-8.4,11.3-7.1c1.9,0.3,4.8,0,7.1,0c8.7,0,16.8,1.9,25.5,2.3
		c30.7,1.6,62.3,4.8,92.9,2.9c20-1.3,40.3-5.8,60-11.3c1.6,0.6,3.5,1.3,5.5,1.9l-22.3,4.8c-28.4,5.8-56.1,13.6-85.2,11.9
		c-0.3,0-0.6,0-0.6,0.3c-6.5-1.3-12.9-1.9-19.7-2.3c-3.5-0.3-7.1-0.6-11-0.6c-3.2,0-6.5,0.3-9.7,0.6c-4.8,0.3-9.7,0.6-14.5,1.3
		c-0.3-0.3-0.6-0.6-1.3-0.6c-1.6-0.3-3.2-0.3-4.5-0.6c0-0.3-0.3-1-0.6-1c-1,0-1.6,0.3-2.6,0.3C33.8,206.9,30.9,206.3,28,206.6
		L28,206.6z M102.5,250.5c-1.6,0.6-3.5,1.9-5.2,3.2c-1,0.3-1.9,1-2.6,1.3c-13.2,6.5-30,9-43.9,13.2c-7.7,2.3-15.2,4.2-23.6,4.5
		c-8.7,0-17.4-11.3-21.3-17.7c-3.5-5.8,7.4-13.9,7.4-6.1c0,2.9,0,3.5,0.6,6.1c0.3,1.9,1.6,3.5,3.2,4.8c0,0.3,0,0.3,0.3,0.6
		c0.3,0,0.3,0,0.6,0.3c0.6,0.3,1,1,1.6,1.3h1.3c5.8,1.6,13.2,1,19.7-1c4.5-1,8.7-2.6,12.9-4.8c1.9-1.3,4.2-2.3,6.1-2.9
		c0.3,0,0.6-0.3,1.3-0.3c7.1-1.6,14.2-3.9,21.3-6.1c5.2-1.9,10.6-1.6,16.1-2.6c0.3,0,0.3,0,0.6-0.3c1,0,1.9,0.3,2.9,0.6
		c0.3,0.6,0.6,1,0.6,1.6C103.2,246.6,103.8,249.8,102.5,250.5L102.5,250.5z M180.9,235.9c1-0.3,1.9-1,2.6-1.9c0.3-0.3,0-1-0.3-0.6
		c-1.9,0.6-5.2,1.3-7.1,0.6c-0.6-0.3-4.5-0.6-4.8-1.3c-0.3-0.6-1.6-0.3-1.3,0.6c0.3,1.9,3.9,2.3,5.2,2.9c0.3,0,0.6,0.3,1,0.3
		l-10.6,1c0,0-0.3-0.3-0.6,0c-0.3,0-0.6,0.3-1,0.3h-1.6c-4.8,0-9.4-4.5-12.6-7.4c-0.6-0.3-1.6,0-1,0.6c2.3,2.9,4.5,5.2,7.4,6.8
		c-3.5,0-7.4,0.3-11,0.3c0,0,0.3,0,0.3-0.3h-4.8h-0.3c-11.6,0-23.6-0.6-35.2-1.3c-5.8,0.3-11.6-0.3-17.4-1.3c-0.3,0-0.6,0.3-0.6,0.3
		c-4.5-0.6-9-1.6-13.2-3.2c1,0.3,2.3,0.6,3.2,0.6c2.6,0.3,11.6,3.5,13.2,0c0.3-0.6-0.3-1.3-1-1.3c-1.9,0.6-3.9-0.3-5.8-0.6
		l-11.6-1.9c-8.4-1.9-16.8-5.2-25.2-7.4c-0.3,0-0.6,0-0.6,0.3c-0.6-0.3-1.3-0.3-1.9-0.6c4.2,1.6-8.4-2.3-11-4.8
		c4.8-0.3,10-1.9,14.5-2.6c5.8-1,11-2.3,16.5-2.6H79c11.6,1,22.9,4.5,34.5,6.5c6.8,1.3,13.6,0,20,1.3c5.5,1,11.3,1.3,16.8,1.3
		c3.5,0.3,6.8,0.6,10.3,0.6c3.5,0.3,7.1,1,10.6,1c2.3,0,4.5-0.3,6.8-1c0.6,0,1.3-0.3,1.6-0.3c5.2-0.3,10.3-0.3,15.5-0.6h2.3
		c8.4-1.6,17.1-3.5,25.5-5.2c2.6-0.3,5.2-0.6,7.7-1.3c2.3-0.3,4.5-0.6,6.8-1.3c0.3,2.6,0.3,4.8,0.6,7.4c0.3,1.9,0.6,3.9,0.6,5.8
		c-0.3,0-0.6,0-1-0.3c-1.3-0.3-2.6-1-3.5-1.6c-0.6-0.3-1.3,0.6-0.6,1.3c1,0.6,1.9,1.3,3.2,1.9c-6.1-1.9-12.9,1.3-19-2.3
		c-1-0.6-1.6,0.6-0.6,1.3c0.6,0.6,1.6,1,2.6,1.3c-1.3,0.3-2.9,0.6-4.2,0.6c-3.5,0.3-7.1-0.6-10.3-1.9c-1-0.3-1.9,1-1,1.6
		c5.5,2.6,12.3,3.9,17.7,0.6c1.6,0.3,2.9,0.6,4.5,1C211.9,232.1,196.4,234.3,180.9,235.9L180.9,235.9z M259.7,259.5
		c0,3.9,0,2.6-1.9,0c-0.6,0.3-1.3,0-1.9-0.6c-0.6-1-1-1.3-1.3-1.9c-2.3-2.6-4.2-5.5-5.5-9c-0.6-1-1.3-1.9-1.9-3.2
		c-5.5-11.3-5.5-27.4-4.8-39.4V205c0-2.6,0.3-5.2,0.6-7.4v-1c0.3-1.6,0.6-3.5,1-5.2l1-3.9c1.9-5.5,4.5-10.3,7.4-15.2
		c1.6-4.5,3.5-8.7,5.2-13.2c0.3-0.6,0.3-1.3,0.6-1.6c1.6-4.2,2.6-8.4,2.3-11.9c0-1.3-1.3-1.9-2.6-1.9c-6.8,0.6-11.9,13.6-15.5,18.4
		c-10.6,13.6-31.9,19.7-48.1,22.9c-11,2.3-21.9,3.2-33.2,3.9c2.3-4.8,5.5-9,9-12.9c3.5-3.9,8.1-5.8,11.9-9c0.3-0.3,0-1-0.6-1
		c-5.2,2.3-9.4,4.2-13.2,8.4c-4.2,4.2-7.1,8.7-9,14.2v0.6c-13.9,0.6-28.1,0.6-41.9,1.6c2.9-2.9,8.4-6.1,10-8.1
		c4.2-3.9,8.4-7.7,12.9-11.3c10.6-8.7,21.9-16.8,33.2-24.5c11.3-7.7,23.2-14.2,34.5-21.6c11.6-7.7,22.3-13.9,36.1-16.5
		c0.3,0,0.6-0.3,1-0.3c1.6-0.3,2.3-1.9,2.3-3.5s-1-2.6-1.9-2.6c-0.6-1-1.9-1.3-3.2-1.9l-0.6-0.6c-7.1-5.2-13.6-10.3-18.7-17.7
		c-3.2-4.8-5.5-9.7-7.7-14.5c-1-2.6-2.3-4.8-3.5-7.1c0-0.3-0.3-0.6-0.3-0.6c-1-2.6-1.6-4.8-2.9-7.1c-1-1.9-2.3-3.9-3.5-6.1
		c-0.6-1.6-1.3-2.9-1.9-4.5c0-0.3-0.3-1-0.3-1.3c0,0,0-0.3-0.3-0.3c-4.2-10-7.4-20.3-8.7-31.6c3.2,3.5,6.5,6.1,12.9,7.1
		c14.5,1.6,26.5,6.8,39,13.6c12.6,6.5,26.8,17.4,33.6,29.7c3.9,7.1,3.9,15.5,4.5,23.9c-1,0.6-1.9,1.3-2.9,2.3
		c-1,0.6-2.3,2.3-2.9,3.9c-1,1.6-1.6,3.2-1.9,5.8c0,1.6,1.9,1.6,2.3,0.3c0.6-3.5,2.9-5.8,5.8-7.1v0.6c2.3-1.6,6.1-3.2,10-3.9
		c0.6,0,1.3,0,1.6,0.3c1.9,0.3,4.2,0.3,6.1,0c1.3,0.6,2.6,1.3,3.2,2.6c0,1.3-0.3,2.6-0.3,3.5l-0.3,0.3c-1.3,1-2.6,2.9-2.9,4.5
		c-1.6-1-3.9-1.9-5.8-2.6h-0.6c-2.6-0.3-5.2-0.6-7.7-0.3c-2.6,0.3-4.5,1.9-6.8,3.2c-0.3,0.3-0.6,0.3-1,0.3c-1.3,1.9-1.6,4.2-1.6,7.7
		c0.3,4.5-5.2,7.1-9.7,10.3c-0.3-0.3-0.6-1-1-1.3c-1-1-2.6-1.9-4.2-1.9c-0.3,0-0.6,0.6-0.6,1v0.3c0,0.3,0.3,0.6,1,0.6
		c1,0.6,1.9,1.6,2.6,2.6l0.3,0.3c-1.3,1.3-2.6,2.6-3.2,4.2c-1.3-0.6-2.6-1-4.2-1.3c-6.1-1.9-0.6-8.1,1.6-9.7c0.6-0.3,1-1,1.6-1.3
		c0.6-0.6,1.3-1.3,2.3-1.6c0-0.3,0.3-0.3,0.3-0.6c1-1.3,2.6-2.3,4.2-2.6h0.6c1.3-0.6,2.3-1,3.5-1.6c1-0.3,0.6-2.3-0.6-1.9
		c-2.3,0.6-4.2,1-6.1,1.6c0.3-9.4-1.3-19.4-4.2-27.7c-4.5-12.3-18.1-18.1-27.1-26.1c-0.3-0.3-1,0.3-0.6,0.6
		c7.7,8.1,18.1,13.9,23.6,24.2c4.8,9.4,4.2,21,4.2,31.6c-3.2,2.3-7.1,4.8-8.7,8.4c-2.6,5.5,1.6,11.6,7.1,11.6
		c-0.3,0.3-1,0.3-1.3,0.6c-20-0.6-42.3,16.8-53.6,31.6c-1,1.6,1.3,3.2,2.3,1.6c11.6-14.2,28.4-24.5,46.1-29l-4.2,4.2
		c-5.2,4.5-12.6,9.4-12.6,16.8c0,1,1.3,1.6,1.9,0.3c2.6-6.8,9-11,14.5-15.8c3.2-2.6,6.1-5.2,9.4-7.7c0.3,1.6,1.3,3.2,3.2,4.8
		c-0.3,1-0.3,1.9,0,2.9c0.3,2.3,1.6,4.5,2.3,7.1c2.3,6.8,6.5,6.8,11.9,10.6c2.9,1.9,5.2,2.3,7.1-1c1-1.9,2.3-2.9,3.5-3.5
		c0,6.8,1.3,13.6,2.3,20c0.3,0.3,0.6,0.6,0.6,1c1.3,4.8,1.9,9.4,1.6,14.2c0.3,4.2,0.6,8.1,0.3,12.3h-0.3c0,0.3,0,0.3,0.3,0.6
		c0,0.6-0.3,1.6-0.3,2.3c-0.6,2.9-1.3,5.5-2.3,8.1h0.3c-0.3,1.6-1,2.9-1.6,4.5c-4.8,11-12.9,20.6-20.3,30
		C269.3,243.7,260,254.3,259.7,259.5L259.7,259.5z M332.9,211.4c-0.6,0.3-1.6,0.3-2.3,0.6c0,0,0-0.3-0.3-0.3c-2.3-1.3-4.8-1-7.1-2.3
		c-1.3-0.6-4.5-2.3-4.2-3.9c0-1-1.3-1.6-1.6-0.3c-1,3.9,3.2,6.8,7.4,8.1c-1.6,0.3-3.5,0.6-5.2,1.3c0,0,0.3-0.3,0.3-0.6
		c0.3-1-1-1.6-1.6-1h-0.6c-0.6,0-1-0.3-1.6-0.6c-1-0.3-1.6-1-2.6-1.3l-1.9-1.9c-0.3-0.3-0.6-1-1-1.3c0,0-0.3-0.3-0.3-0.6
		c1-0.3,0.6-1.6-0.3-1.6c-3.9,0,0.3,5.8,1.3,7.1c0.6,1,2.3,2.3,3.9,2.6h-4.8c-2.6-1.6-5.5-1.6-7.4-4.2c-0.3-0.3-1-1.3-1.3-1.9
		c0.3-1.3,0.3-2.6,0-3.9c0-0.6-0.6-0.6-1-0.6l9.7-1.9c6.1-1.3,11.6-4.5,17.4-6.5c2.3-0.6,3.5-1.6,5.2-2.9l1-1c2.9-1,5.8-1.9,8.4-2.9
		c4.5,1.9,9.4,3.5,13.9,4.8c2.3,1.3,4.5,2.6,6.5,4.2c0,0.3,0,1,0.3,1.3c1,1.3,1.9,2.6,2.6,3.9C354.8,206.9,343.9,209.2,332.9,211.4
		L332.9,211.4z M371.9,216.6c-2.6-1-5.2-2.3-7.4-3.5c-0.6-0.3-1.3-1-1.9-1.6c0.3,0,0.6,0,0.6-0.3v0.3
		C365.8,214.3,369,215.3,371.9,216.6C372.3,216.6,372.3,216.6,371.9,216.6L371.9,216.6z M385.5,220.1c-1-0.3-1.9-0.6-2.9-0.6
		c0.6-0.3,1.3-0.3,1.9-0.6c0.3,0,0.3-0.6,0-0.6c0.6,0.3,1.6,0.6,2.3,1c1.6,0.6,3.5,1.3,5.5,1.6C390,220.1,387.8,220.1,385.5,220.1
		L385.5,220.1z M500.4,198.5c7.4-1.3,12.3-10,17.1-14.8c6.8-6.8,12.6-12.6,21.3-16.8c-0.3,0.3-0.3,0.6-0.6,1
		c-5.2,6.1-10.3,10.6-16.1,16.1c-6.1,5.5-11.3,11.3-18.4,15.5c-3.5,2.3-7.4,3.9-11.6,5.2l1.9-2.9c0.6-1-0.6-1.6-1.3-1
		c-1.3,1-2.3,2.6-2.9,3.9c-0.3,0.3-0.3,0.6-0.6,1.3c-1.6,0.3-2.9,1-4.5,1.3v-0.3c0.6-1.3,1.3-2.6,2.6-3.2c1-0.3,0.3-1.6-0.6-1.6
		c-1.6,0.3-2.6,1.6-3.5,2.9c-0.6,1-1.3,1.9-1.6,3.2c-2.3,0.6-4.8,1.3-7.1,2.3c-23.9,7.7-47.4,10-71.6,10c0.6,0,1-0.3,1.6-0.3
		s0.6-1,0-1c-4.5-1-8.7-1-13.2-1.9c-3.2-0.6-11-3.2-12.3-6.5c-0.3-0.6-1.6-0.6-1.3,0.3c0.3,3.2,3.9,5.2,6.8,6.5
		c-0.6,0-1.3-0.3-2.3,0c-2.9,0.6-6.1-1.3-8.4-2.6c-1-0.6-2.6-0.6-3.5-1c-1.9-0.6-3.9-1.6-5.5-2.9c6.5-1.6,12.9-3.9,19.7-6.1h2.9
		c1.6,0.6,2.9,1.3,4.2,2.3c2.3,1.6,4.8,2.6,7.7,2.6c1.6,0,2.3-1.6,2.3-2.9c0-0.3,0-1-0.3-1.3c12.9,0.3,26.1,0,39-1.3
		c29.7-2.6,55.2-16.1,78.7-33.6c3.5-2.6,6.8-5.5,11-6.8c2.9-1,9.7-1.6,9.4,1.6c-7.1,0-14.2,6.5-18.4,11.6c-2.9,3.5-6.1,6.5-9,9.7
		c-2.9,3.9-7.1,10-11.9,11.6C499.7,198.2,500,198.8,500.4,198.5L500.4,198.5z M42.2,221.4c1,0.3,1.6,0.6,1.9,0.6
		C43.8,221.7,42.8,221.7,42.2,221.4z M339.7,208.8c0.3,0.3,0.3,0.6,0,1c-1.6,1-5.2,1.3-6.8,0.3s-3.9-2.6-3.9-4.8c0-1,1.3-1,1.6-0.3
		c0.6,1.6,2.6,2.9,4.2,2.9C336.5,208.2,338.1,208.2,339.7,208.8L339.7,208.8z M345.8,205c0.3,0.3,0.3,0.6,0,1
		c-1.6,0.6-2.9-0.3-4.2-0.3s-1.3-1.9,0-1.9C343.2,203.7,344.5,204.3,345.8,205L345.8,205z M352.9,205.9c-1.3,0.6-2.9,0.3-3.9-0.6
		c-0.6-0.6,0.3-1.9,1.3-1.3c0.6,0.6,1.9,0.6,2.9,1C353.2,205,353.2,205.6,352.9,205.9L352.9,205.9z M417.1,168.5
		c1.6,0,3.2,0.6,4.5,1.6c0.3,0.3,0.3,1,0,1c-1.3,1-2.9,0-4.2-0.3C415.5,170.8,415.5,168.5,417.1,168.5L417.1,168.5z M426.5,165
		c1,0,1.9,0,2.6,0.3c0.3,0.3,0.3,0.6,0,1c-1,0.6-1.6,0.3-2.6,0.3C425.5,166.6,425.5,165,426.5,165z M129.3,236.3
		c-3.5,0.6-9-0.6-12.6-1.3c-0.6,0-1-0.3-1.6-0.3c-1.3,0.6-2.9,1-4.5,0.3c-4.5-1.3-9.4-1-13.9-1.6c-4.8-0.6-9.4-1.6-14.2-2.6
		c-2.9-0.6-6.1-1.3-8.4-3.2c-0.6-0.3,0-1.3,0.6-1c3.5,2.3,8.4,2.3,12.3,2.6c2.9,0.3,5.5,1.3,8.4,1.6c3.9,0.6,8.1,0.6,11.9,1.3
		c1.3,0,2.3,0.3,3.2,0.6c-1.3-0.6-2.3-1.6-3.2-2.9c-0.3-0.6,0.3-1.3,0.6-0.6c5.5,5.8,14.8,3.2,21.3,6.1
		C130,235.3,130,235.9,129.3,236.3L129.3,236.3z M137.7,231.7c-1,1.3-1.9,1.9-3.2,1.9c-1.6,0.3-2.9,0-4.2,0c-0.6,0-0.6-1,0-1.3
		c2.3-0.3,4.8-1,7.1-1.6C137.4,231.1,137.7,231.4,137.7,231.7L137.7,231.7z M422.3,217.5c-1,3.2-6.1,1.9-8.4,1.3
		c-4.5-1.3-9.7-1.9-13.2-4.8c-0.6-0.3,0-1.3,0.6-1c2.9,1.6,6.5,1.6,9.4,2.6c2.6,1,7.7,2.6,10.6,1.3
		C422,216.6,422.6,216.9,422.3,217.5L422.3,217.5z M431,215.3c-1,1-2.3,2.3-3.9,2.3s-2.9-1-4.5-1c-1,0-1-1.3,0-1.3
		c1.3,0,2.6,0.6,3.9,0.6c1.3,0,2.6-1,3.9-1.3C431,214.3,431.3,215,431,215.3L431,215.3z M445.8,212.7c-1,0.6-1.9,1-2.9,1
		c-1.6,0-2.9,0.6-4.2,0.6c-0.6,0-0.6-1,0-1c1.3,0,2.6-1,3.9-1c1,0,1.9-0.3,3.2-0.6L445.8,212.7L445.8,212.7z M455.8,212.1
		c-1.3,0.3-2.6,1-4.2,1c-0.6,0-0.6-1,0-1.3c1.3,0,2.6-1,4.2-0.6C456.5,211.4,456.2,212.1,455.8,212.1L455.8,212.1z M234.2,185.3
		c0.3,0.3,0.3,0.6,0,0.6c-0.6,0.3-1.6,0.3-2.6,0.3h-3.2c-1,0-1-1.6,0-1.6h3.5C232.6,185,233.5,184.6,234.2,185.3L234.2,185.3z
		 M383.9,132.4c2.6-0.3,4.5-1.3,6.1-3.5c0.3-0.3,0.6-0.3,0.6,0.3c0.3,3.9-3.9,4.8-6.8,4.8C382.9,134,382.9,132.7,383.9,132.4z
		 M394.2,127.2c1-1,2.3-1.6,3.5-2.3c0.3,0,0.6,0.3,0.3,0.6c-1,1-1.9,1.6-2.9,2.6C394.9,128.8,393.6,127.9,394.2,127.2L394.2,127.2z
		 M398.4,123.3c0.6-0.6,1.6-1,2.6-1c1-0.3,1.3-0.6,2.3-1.3c0.3-0.3,1,0,0.6,0.3c-0.6,2.6-3.2,1.6-4.8,2.6
		C398.4,124.3,398.1,123.7,398.4,123.3z M74.8,259.2c-4.8,1.3-9,1.9-13.6,1.9c-9.4,6.8-21.3,11-32.9,8.4c-0.6,0-0.6-1.3,0.3-1.3
		c10.6,1.3,19.4-3.5,28.7-7.4c-1,0-1.6,0-2.6-0.3c-0.6,0-0.6-1,0-1c2.3-0.3,4.5-0.3,6.8-0.3c0.3,0,0.6-0.3,1-0.3
		c0.3,0,0.3,0,0.6,0.3c1.3,0,2.6-0.3,3.9-0.6c2.6-0.6,5.2-1,7.7-0.6C75.1,258.2,75.1,258.8,74.8,259.2z M92.2,253.4
		c-5.8,2.3-11,1.9-16.8,1.6c-1,0-1-1.3,0-1.3c3.5,0,7.1,0,10.3-1c2.3-0.6,4.2-1,6.5-0.6C92.5,252.7,92.5,253.4,92.2,253.4z
		 M98.3,249.5c-2.3,0.6-4.2,1-6.5,1c-1,0-1-1.6,0-1.6c2.3,0,4.2-1,6.5-0.6C99,248.5,99,249.5,98.3,249.5L98.3,249.5z M41.6,204
		c-0.3-0.6,0.6-1.3,1-0.6c1.3,1.6,3.9,0.6,5.5,1.6c1.6,1.3,4.8,1,6.8,0.6c0.3,0,1,0.3,0.6,0.6c-1.3,2.6-5.2,1.9-7.4,1
		C45.8,206.6,42.5,206.3,41.6,204L41.6,204z M59.3,203h2.9c1.3,0,2.3-0.3,3.2-0.6c0.3,0,0.6,0.3,0.6,0.6c-1,2.6-4.8,1.3-6.8,1.3
		C58.7,204.3,58.7,203,59.3,203z M70.6,204c1,0,2.6-0.3,3.5,0.3c0.3,0.3,0.3,0.3,0,0.6c-0.6,0.6-2.6,0.3-3.5,0.3
		C69.6,205.3,69.6,204,70.6,204L70.6,204z M193.8,232.4c-1,2.6-4.2,1.6-6.1,1.6c-1.3,0-1.3-1.6,0-1.9h2.6c1,0,1.9-0.3,2.9-0.6
		C193.5,231.7,194.2,232.1,193.8,232.4L193.8,232.4z M198,232.1C198.4,232.1,198.4,232.4,198,232.1C198,232.4,198,232.1,198,232.1z
		 M468.1,142c0-1,1-2.3,1.6-2.9c0.6-0.6,1.6,0.3,1,1c-0.6,1-0.6,2.3-1.9,2.6C468.4,142.7,468.1,142.4,468.1,142L468.1,142z
		 M260.6,173.7c0.3,1.6,0,2.6-1.3,3.9c-2.9,2.9-4.5,5.8-5.2,9.7c-1,4.2-2.3,8.4-2.9,12.9c-0.6,4.2-1,8.7-1.6,12.9
		c0,0.6-1.3,0.6-1.3,0c-1-7.1,1-15.2,2.9-21.9c1-3.2,1.3-6.5,2.9-9.4c1-1.9,5.5-5.8,5.2-7.4C259.3,173,260.6,173,260.6,173.7
		L260.6,173.7z M256.8,203.7c0,1-0.3,1.9-0.6,2.9c-1,1.6-1.6,3.2-1.9,4.8c-0.6,2.6-1.3,5.5-2.9,7.7c-0.3,0.6-1.3,0-1-0.6
		c0.6-2.9,1.6-5.8,2.3-8.7c0.6-2.6,2.6-4.2,3.2-6.5C255.5,203,256.8,203,256.8,203.7L256.8,203.7z M367.8,177.2
		c2.6,0.3,4.5,3.2,5.5,5.5c1.6,3.2,3.2,7.4,3.2,11c0,0.6-1,1-1.3,0.3c-1.6-2.3-1.9-5.8-2.9-8.4c-0.6-1.9-1.9-6.8-4.5-7.1
		C367.1,178.2,367.1,176.9,367.8,177.2L367.8,177.2z M378.4,188.5c-0.6-0.6,0.3-1.6,1-1c0.3,0.3,0.6,1,1,1.6c0.3,0.3,1,0.6,1.3,1
		c0.3,0.3,0,0.6,0,0.6C379.7,192.1,379.4,189.2,378.4,188.5L378.4,188.5z M196.7,167.2c-6.8,2.6-11.3,8.7-11.9,16.1c0,1-1.6,1-1.6,0
		c0-6.5,5.2-19.7,13.6-17.1C197.4,166.2,197.4,166.9,196.7,167.2z M204.8,168.5c0.3,0.3,0.3,0.6,0,1c-0.6,0.6-1,1.3-1.6,1.3
		c-1.3,0.3-1.6-1.6-0.3-1.6c0.3,0,0.6-0.3,1-0.6C204.2,168.2,204.5,168.2,204.8,168.5L204.8,168.5z M237.1,64.3
		c-8.4-2.9-16.5-5.2-23.2-11.3c-0.6-0.3,0.3-1.3,0.6-0.6c8.7,8.1,21,7.1,30.3,13.2c7.4,4.8,14.2,11.3,18.1,19.7
		c0.3,0.3-0.3,1-0.6,0.6C254.8,76.2,248.4,68.2,237.1,64.3L237.1,64.3z M252.2,88.5c-3.2-2.3-7.1-3.9-10.6-5.5c-0.6-0.3,0-1,0.6-1
		c8.4,3.5,18.7,7.7,18.4,18.7c0,0.6-0.6,0.6-1,0C258.4,95.9,256.4,91.4,252.2,88.5L252.2,88.5z M191.6,211.4
		c-2.6,2.6-7.4,4.2-11,3.2c-0.6-0.3-0.6-1,0-1c1.6-0.6,3.5-1,5.2-1.6s3.2-1.3,4.8-1.6C191.6,210.1,191.9,210.8,191.6,211.4z
		 M204.8,208.2l-3.9,1.9c-0.6,0.3-2.3,1-3.2,1.9c0.3,0.3,0.3,0.6,0,1c-0.3,0-0.6,0-0.6,0.3c-0.3,0-1-0.3-1-0.6
		c0-1.6,2.3-3.2,3.5-3.9c1.3-0.6,3.9-2.3,5.5-1.3C205.1,207.5,205.1,207.9,204.8,208.2z"/>
</g>
</svg>
