<?xml version="1.0" encoding="utf-8"?>
<!-- Generator: Adobe Illustrator 19.2.0, SVG Export Plug-In . SVG Version: 6.00 Build 0)  -->
<svg version="1.1" id="Слой_1" xmlns="http://www.w3.org/2000/svg" xmlns:xlink="http://www.w3.org/1999/xlink" x="0px" y="0px"
	 viewBox="0 0 400.3 257.2" style="enable-background:new 0 0 400.3 257.2;" xml:space="preserve">
<style type="text/css">
	.st0{fill:#FFFFFF;}
	.st1{fill:#2E0B01;}
	.st2{opacity:0.55;fill:#2E0B01;enable-background:new    ;}
	.st3{opacity:0.2;enable-background:new    ;}
	.st4{fill:#44A3BC;}
	.st5{fill:#CB242D;}
	.st6{fill:#DC5B2B;}
	.st7{opacity:0.5;}
	.st8{fill:#C5CB79;}
	.st9{fill:#E2001A;}
	.st10{fill:#B70718;}
	.st11{fill:#EFB886;}
	.st12{fill:#BBDBE8;}
	.st13{fill:#50542E;}
	.st14{opacity:0.1091;fill:#FFFFFF;enable-background:new    ;}
	.st15{opacity:0.5;fill:#CB242D;enable-background:new    ;}
	.st16{opacity:0.6;}
	.st17{fill:#EC9488;}
	.st18{fill:none;stroke:#50542E;stroke-linecap:round;stroke-miterlimit:10;}
	.st19{opacity:0.2;fill:#55721A;enable-background:new    ;}
	.st20{fill:#55721A;}
	.st21{fill:none;stroke:#FFFFFF;stroke-miterlimit:10;}
	.st22{fill:none;stroke:#C5CB79;stroke-width:2;stroke-miterlimit:10;}
	.st23{fill:#CDC09E;}
	.st24{opacity:0.1;fill:#44A3BC;}
	.st25{opacity:0.9;}
	.st26{opacity:0.9;fill:#44A3BC;enable-background:new    ;}
	.st27{opacity:0.1091;fill:#44A3BC;enable-background:new    ;}
	.st28{opacity:0.1091;fill:#55721A;enable-background:new    ;}
	.st29{opacity:0.4;}
	.st30{opacity:0.9;fill:#55721A;enable-background:new    ;}
	.st31{opacity:0.4;fill:#55721A;}
	.st32{fill:#D95929;}
	.st33{fill:#F68D1A;}
	.st34{fill:#FFC73B;}
	.st35{fill:#FABC14;}
	.st36{fill:#FCAD17;}
	.st37{fill:none;stroke:#FFFFFF;stroke-width:2;stroke-miterlimit:10;}
	.st38{fill:none;stroke:#44A3BC;stroke-width:20;stroke-miterlimit:10;}
	.st39{fill:none;stroke:#44A3BC;stroke-width:20;stroke-linejoin:round;stroke-miterlimit:10;}
	.st40{fill:none;}
	.st41{fill:#3B5998;}
	.st42{fill:none;stroke:#000000;stroke-width:2;stroke-miterlimit:10;}
	.st43{opacity:0.6;fill:#333333;}
</style>
<g>
	<g id="XMLID_1480_" class="st16">
		<path id="XMLID_1524_" class="st20" d="M393.3,80.6c0.8-0.7-0.8-4.3,0.2-5.2c-5,4.1-8.6,9.2-10.6,15.3c-1,2.8-1.5,5.5-4,7.3
			c-2,1.4-4.6,1.8-6.9,2.5c-6,1.7-11.5,4.6-16.1,8.8c-2,1.8-1.2,2-1.9-0.2c-0.5-1.8,0-4-0.5-5.8c0.5-1.6,0.2-2.2-1-1.9
			c-0.8,0-1.6,0-2.4,0.1c-1.3,0.1-2.7,0.4-4,0.7c-6.4,1.6-10.6,5.1-15.5,9.1c-4.3,3.6-9.1,0.3-13.7,2.7c-3.6,2-6.1,5.6-9.4,8
			c-2.8,1.9-8.8,3.4-9.3-1.6v5c1.4-2.8,4.5-4.6,6.9-6.6c2.7-2.2,5.3-4.4,8-6.6c3.1-2.6,6-5.4,6.4-9.6c0.1-1.5,0.3-3.7-0.1-5.2
			c-0.2-0.8-0.5-2.2-1.4-2.5c-0.6-0.2-3.5,2.1-4,2.4c-2.6,1.5-5.1,3.1-7.7,4.6c-10.1,5.9-20.7,11.7-32.2,14.4
			c-6.8,1.5-22.6,4.1-24.4-6v4.3c0-1.5,13.7-4.9,15.3-5.4c0.1,0,0.1-5,0-5c-7.3-2-14.8-0.4-22.1,0.7c-7.8,1.1-15.5,2.3-23.2,3.4
			c-3.5,0.5-8.2,2.2-11.6,1.7c-3.2-0.4-6.7-2.8-9.8-3.7c-6.7-2-13.6-2.9-20.5-3v5c1.8-2.6,4-4.3,6.9-5.5c0.2-0.1,0-5,0-5
			c-32.4-3.5-65.6-7.1-95.4-21.1c-13.6-6.4-26.3-14.5-39-22.3c-12.8-7.9-26-15.3-38.4-23.8c-3.2-2.2-6.3-4.5-9.1-7.3
			C1.5,22,1,19.8,0.2,22.2c-0.2,0.6-0.1,1.2-0.1,1.7c-0.1,1.9-0.2,4,0.2,5.9c1.2,6.3,7.8,10.3,12.6,13.7c5.3,3.7,10.7,7.4,16.1,10.9
			c24.1,15.7,49.4,28.7,77.3,36.1c13.3,3.5,27.1,6.8,38.1,15.5c5.1,4,8.8,8.8,11.7,14.5c2.1,4.3,4.5,9.9,10.1,9.6
			c-0.1,0,0.2-4.6,0-5c-0.8-1.1-1-1.9-1.2-3.2v4.9c0.6-11.5,14.1-8.9,21.4-6.6c9.6,3,19.4,5.7,28.8,9c4.8,1.7,6.1,4.4,7.2,9.1
			c0.9,3.5,2.1,7,4,10.2c3.6,6.1,9.2,10.8,16.6,10c0.1,0,0.1-4.5,0-5c-0.6-3-1-6-1.2-9.1c-0.2-4.1,0.1-6.6,4.4-6.8
			c4.2-0.1,8.3,1.2,12.2,2.6c8.6,3.1,15.8,5.8,25.1,4.5c9.6-1.3,18.9-0.7,27.9,3.1c5.9,2.4,15.4,10.9,21.6,5.2c0.2-0.2,0.2-4.8,0-5
			c-3.4-2.4-5.4-5.3-6.5-9.3v5c6.7-1.5,13.5-3,20.2-4.5c4.1-0.9,12.6-3.7,13.8,2.5v-4.9c-0.1,2.1-0.8,3.7-3,3.7c-0.1,0,0,5,0,5
			c11.2-0.1,12.6-17.8,3-21.5v5c8.4-8.1,17.2-16,25.3-24.5c3.7-3.9,4.3-8.3,5.7-13.2c1.5-5.2,3.6-10.2,6.2-14.9c0.7-1.3-0.7-3.7,0-5
			c-2.7,5-4.9,10.2-6.4,15.7c-1.3,4.6-2.1,8.7-5.5,12.3c-8.1,8.4-16.9,16.4-25.3,24.5c-0.2,0.2-0.1,5,0,5c3.7,1.5,5.7,4.3,6.1,8.3
			v-5c-0.4,5-4.1,8.3-9.1,8.3v5c3.8,0,4.1-8.1,2.4-10.7c-2.9-4.2-11.2-0.9-15-0.1c-6.1,1.4-12.3,2.7-18.4,4.1c-0.1,0-0.1,4.5,0,5
			c1.1,4,3.2,6.9,6.5,9.3v-5c-5.9,5.5-14.4-2-20-4.6c-7.6-3.4-16.1-5-24.4-4.3c-4.4,0.3-8.8,1.5-13.2,1.1c-3.6-0.3-7-1.4-10.5-2.7
			c-7.5-2.7-14.9-6.3-23.1-4.3v0.1c-0.5,8.4-0.3,16.9,1.2,25.1v-5c-9.6,1.1-16.2-7.4-19.2-15.6c-1.6-4.2-1.4-9.9-5.7-12.4
			c-4.9-2.9-11.7-4-17.2-5.6c-6.3-2-12.6-4.3-19-5.9c-5-1.2-11.1-1.8-14.8,2.6c-2.6,3.2-3.1,10.1-0.9,13.7v-5
			c-7.5,0.3-9.6-9.7-12.9-14.7c-4.3-6.4-10.6-11.3-17.3-14.9c-15.9-8.5-34.4-10.5-51.2-16.8c-16.4-6.2-32-14.5-46.9-23.8
			c-7.5-4.7-14.8-9.6-22.1-14.6c-6.1-4.2-14.7-8.8-15.6-17v4.9c0.2-4.8,2-0.7,3.8,1c1.4,1.3,3,2.5,4.5,3.7c2.9,2.2,5.9,4.2,9,6.1
			c7.6,4.7,15.2,9.3,22.8,14c15,9.2,29.8,19,45.6,26.8c30.7,15.3,65,19.1,98.7,22.7v-5c-2.9,1.2-5,2.9-6.9,5.5c-0.3,0.4,0.1,5,0,5
			c7,0.1,13.9,1.1,20.6,3.1c3.1,1,6.7,3.3,9.8,3.8c3.3,0.5,8.3-1.2,11.6-1.7c7.8-1.1,15.5-2.3,23.2-3.4c7.3-1,14.8-2.7,22.1-0.7v-5
			c-5.1,1.6-10.2,3.3-15.3,5v0.7c-0.1,4.1-0.5,7.8,3.4,10.4c5.9,4,14.4,2.5,20.9,1c8.4-2,16.3-5.6,23.8-9.7c4-2.2,8-4.5,12-6.9
			c1.9-1.1,4.3-3.2,6.4-3.8c1-1.3,1.9-1.3,2.5,0c0.4,0.7,0.6,1.4,0.6,2.2v-5c-0.6,4.1-3.4,6.7-6.4,9.2l-11.7,9.6
			c-3,2.5-4,4.7-3.3,8.6c1.2,7.1,9.3,1.8,12.1-0.8c1.9-1.7,3.6-3.6,5.8-5c3.4-2.2,5.8-1.1,9.5-1.2c4.2-0.2,6.4-3.7,9.5-6
			c3.1-2.2,6.5-3.9,10.2-4.9c1.7-0.4,4.7-1.4,6.4-1c1.7-0.6,2.3,0.1,1.8,1.9c0.2,1.2,0.2,2.6,0.4,3.8c0.2,1.2,0.3,2.5,0.4,3.8
			c0.5-0.6,1.1-1.2,1.7-1.7c1.4-1.3,2.8-2.4,4.4-3.5c3.6-2.4,7.5-4.1,11.7-5.3c2.9-0.8,6.3-1.3,8.4-3.8c2.6-3.2,2.9-8.2,4.9-11.8
			C387.2,86.4,390,83.3,393.3,80.6L393.3,80.6z"/>
		<path id="XMLID_1523_" class="st20" d="M329.3,144.6c-9.4-9.2-21.3-14.5-34.4-15.5c-13.5-1.1-28.2-1.6-40.8,4.2
			c-0.7,0.3,0.6,4.7,0,5c12.6-5.8,27.3-5.3,40.8-4.2c13.1,1.1,25,6.3,34.4,15.5C328.4,148.8,330.1,145.4,329.3,144.6z"/>
		<path id="XMLID_1522_" class="st20" d="M318.6,154.3c0.1-1.5,0-3.6,0-5L318,161c0,0.4-0.1,4.9,0,4.9c5.5,0.1,13.2,0.5,15.8,6.4
			c1.6,3.6,1.1,7,4,10c2.3,2.3,5.4,3.8,8.3,5.2v-5c-13.4-4.4-25.5,8.4-38.8,4.8c-1.5-0.4-2.9-1.2-4.4-1.6c-2.7-0.7-4,0.1-6.6,0.7
			c-2.4,0.5-4.4,0.3-6.6-0.7c-4.6-2.1-7.9-6.2-12.2-8.8c-1.7-1-4.2-2.3-6.4-2c-2.3,0.4-1.5,0.7-2.6,2.6c-0.6,1.1-1.6,1.9-2.6,2.5
			c-6.8,3.9-13.1-2.7-17.9-6.6c-6.2-5-13.5-9.5-21.8-9.2c-4.8,0.2-12.4,2.6-15.1-2.9c0.7,1.3-0.7,3.6,0,5c2.8,5.8,10.9,2.9,15.9,2.9
			c7.9,0,15,4.5,20.9,9.3c4.9,4,11.2,10.5,17.9,6.6c1.4-0.8,1.9-1.8,2.8-3c1.2-1.5,0.1-1.6,2.4-2c2.1-0.4,4.7,1,6.4,2
			c4.2,2.6,7.6,6.7,12.2,8.8c2.2,1,4.3,1.2,6.6,0.7c2.6-0.6,3.9-1.4,6.6-0.7c1.5,0.4,2.9,1.2,4.4,1.6c13.3,3.6,25.4-9.2,38.8-4.8
			c-0.5-0.2,0.6-4.7,0-5c-3.1-1.5-6.4-3.1-8.7-5.7c-2.5-2.9-2.1-6.2-3.5-9.5c-2.5-5.9-10.3-6.3-15.8-6.4v4.9L318.6,154.3
			L318.6,154.3z"/>
		<path id="XMLID_1521_" class="st20" d="M201.2,123.6c-6.4,3.5-13.3,5.1-20.6,4.7c0.1,0-0.2,4.5,0,5c3.9,10.6,11.8,19.4,22,24.1
			c5,2.4,10.1,3.4,15.6,4c4.9,0.5,10.3,1.2,12.6,6.1v-5c-6.2,3-12.5-2.5-18.6,0.3c-3.6,1.6-3.4,5.1-3.2,8.4c0.2,4.7,3.9,6.4,7.9,8.1
			c7,2.9,12.5,6.9,16.8,13.2v-5c-5.8-2.5-6.7,5.5-6.1,9.4c1.7,10.8,18.2,4.3,23.2,12.5v-5c-3,6.2-2.4,16.5,2.5,21.5
			c2,2,4.8,2.9,6.6,5c2.1,2.4,2.1,5.7,2.2,8.8c0.2,4.1-0.2,8.5,3.5,11.2v-5c-8.9-3.9-18.7,3-26.8-4.1c-7.6-6.6-13.3-16.4-17.1-25.5
			l-1.5-3.9c-0.5-1.3-0.4-2.9-1.6-2.8c-1.6,0.2-3,3.8-3.4,4.9c-1.5,3.9-1.7,8.4-4.6,11.6c-0.8,0.9-3.2,3.1-4.5,2.4
			c-1.4-0.7-0.5-11.3-0.4-12.7c0.3-6.5,1.3-12.9,2.7-19.2c0.1-0.4,0.1-5,0-5c-3.9-0.7-6.2,2.6-8,5.7c-2.3,4-4.3,8.2-6.5,12.4
			c-0.3,0.7-1,2.9-1.7,3.3c-0.4,1.3-0.8,1.1-1.2-0.7c-0.2-0.3-0.3-0.5-0.4-0.8c-0.9-1.8-1.6-3.6-2.2-5.5c-1.4-4.2-2.3-8.8-2-13.3
			c0.5-7.7,7.5-21-0.8-27.2c-1.2-0.8-3-1.9-4.5-1.8c-2.4,0.2-1.9,2.7-2.2,4.8c-0.6,4.2-1.4,8.4-2.2,12.5c-0.8,4.5-1.8,9-2.8,13.4
			c-0.4,1.8-0.6,3.9-1.3,5.7c-0.5,1.4,0.3,2-0.8,1.2c-0.4-0.3-0.9-1.7-1.1-2.2c-3.2-6.6-6.3-13.6-7.2-21c-0.5-4.1,0.3-8.1,2-11.8
			c1.4-2.9,3.8-5.5,4.6-8.6c0.5-2.2,0.5-5.4,0.2-7.6c-0.8-5.8-7-8.5-11.8-10.3c0.2,0.1,0,4.4,0,5c0.6,7.7-10.1,12.3-12.9,4
			c-2.5-7.5,3.4-14.5,3.9-21.8c0.3-3.9,0.3-7.7-2.1-11c-3.3-4.6-9-7.4-10-13.4c0.3,1.6-0.3,3.4,0,5c1.3,7.9,10.8,10.6,12.4,18.2
			v-3.3c-0.9,4.6-3.1,8.8-3.9,13.4c-0.5,2.6-0.7,5.1-0.7,7.7c0,3.6-0.5,8,1.1,11.3c1.4,2.9,4.3,4.2,7.3,3c3.4-1.3,4.8-4.7,5.2-8.1
			c0.4-3.3,0.2-6.8-0.1-10.1v5c4.7,1.7,11.7,4.7,11.8,10.7v-4.3c-0.9,5-4.8,8.7-6.2,13.6c-0.9,3-1.1,6.1-1.1,9.2
			c-0.1,7.3,1,14.1,3.6,20.9c1,2.6,2.1,5.2,3.3,7.7c0.5,0.9,0.9,2.1,1.5,2.9c1.5,2.1,0.9,0.6,1.4-1.4c1.4-6,2.7-12,3.9-18.1
			c0.6-2.9,1.6-16.6,3.7-17.3c4.4-1.5,8.4,5,8.9,8.3v-4.3c-0.1,4-1.9,7.8-2.6,11.7c-0.4,2.4-0.6,4.9-0.6,7.4
			c-0.1,3.9-0.1,7.9,0.5,11.8c0.5,3.6,1.4,7.1,2.8,10.5c0.4,1.1,0.9,2.1,1.4,3.1c0.5,2.1,1,2,1.6-0.1c1.1-1.1,1.9-3.5,2.6-4.9
			c2.5-4.7,6.2-16.8,13.2-15.5v-5c-2.3,10.2-3,20.5-2.9,31c0.1,2.4,0.1,4.7,0.3,7.1c0-0.2,0.1,3.7,0.3,3.8c0.9,0.4,2.6-0.7,3.3-1.2
			c4.3-3,4.3-9,6.2-13.4c0.5-1.2,1.1-2.7,2.1-3.4c2-1.5,1.5-1.3,2.3,1.1c1,2.9,2.2,5.7,3.5,8.5c2.9,6.1,6.6,11.8,10.9,16.9
			c3.9,4.6,7.7,8.3,14,8.4c5.9,0,11.6-2.1,17.3,0.4c-0.7-0.3,0.7-4.5,0-5c-5.8-4.2-1.9-12.4-4.5-18.2c-2.6-5.8-11.7-6.9-11.5-14.7
			c0.1-2,1.3-3.6,1.3-5.7c0-2.2,0.2-3.2-1.6-4.9c-6-5.7-19.4-0.2-21.6-10.4v4.9c0.2-3.3,2.9-5.7,6.1-4.4c-0.6-0.2,0.4-4.3,0-5
			c-3.4-5.1-7.9-9.2-13.5-11.8c-4-1.9-10-3-11.2-7.9v4.3c0-4.1,5-5.1,8.2-4.9c4.7,0.3,8.8,2.7,13.5,0.5c0.2-0.1,0.2-4.6,0-5
			c-2.4-4.9-7.8-5.6-12.6-6.1c-5.5-0.7-10.6-1.6-15.6-4c-10.3-4.8-18.2-13.6-22.1-24.2v5c7.3,0.4,14.2-1.2,20.6-4.7
			C202,128.1,200.6,123.9,201.2,123.6z"/>
		<path id="XMLID_1520_" class="st20" d="M208.6,112.8c6-6.5,18.8-14.4,24.9-3.4c-0.7-1.3,0.7-3.7,0-5c-6.1-11-18.9-3-24.9,3.4
			C207.7,108.7,209.4,111.9,208.6,112.8z"/>
		<path id="XMLID_1519_" class="st20" d="M261.4,104.9c-0.3-0.1,0.3-5-0.2-5.2c-6.9-1.2-12-6.2-13.6-13v5c10,0.3,19.9,0.6,29.8,0.9
			c4.6,0.1,9.3,0.3,13.9,0.4c3.1,0.1,9.4,1.5,11.5-1.5c1.2-1.7,1-5.5,0.6-7.5c-1.5-6.9-11.5-6.4-13.2-13.2v4.9
			c0.2-3.1,2.1-2.3,4.4-2.5c1.6-0.2,3.2-0.3,4.8-0.5c3.3-0.3,6.5-0.7,9.7-1c1.9-0.2,7.3,0.3,8.7-0.9c0.9-0.7,0.8-2,0.9-3
			c0.2-1.6,0.2-3.9-0.1-5.5c-1-5.2-6.3-6.3-10.8-7v5c8.5-7.9,18.2-14.5,28.7-19.5c3.6-1.7,9.1-3.1,10.3-7.4c0.5-1.7,0.3-3.9,0.2-5.6
			c-0.6-8.4-11.2-7.9-17-5.4c-8.1,3.5-14.5,10.1-23.3,12.3v5c0.6-1.5,0.9-5.1,0.3-6.7c-2.5-6.7-11.2,2.1-14.6,2.6v5
			c0.7-3.4,1.5-8.6,0.2-11.9c-1.3-3.3-5.1-4.5-7.2-1.4c-1.7,2.5-1.5,5.7-3.8,8c-4.2,4.2-11.1,4.4-16.4,6.2c-3.1,1-5.6,2.5-7.9,4.8
			c-1.9,2-5.1,5-7.3,1.6v5c5.9-5.1,11.8-10.3,17.7-15.4c0.2-0.2,0.2-4.8,0-5c-7.1-5-14.5,0.3-20,5c-3.1,2.6-6.4,5.1-9.2,8
			c-2.5,2.6-3.9,6.5-6.8,8.7c-3,2.3-5.6,1.5-7.4-1.4c-1-1.5-0.2,0.6-0.3-1.2c0-0.7,0.1-1.5,0.1-2.2c0.1-2.6,0.8-7.4-1.9-9
			c-3.5-2-6.2,2.4-6.8,5.2c-0.7,3.6,0.4,7.3-1.8,10.6c-1.8,2.5-4.9,3.8-6.7,6.3c-2.5,3.4-1.3,7.5-2.7,11.3c-0.9,2.2-3.4,5-6.1,4.3
			c-2.9-0.7-2.4-5.5-6.1-4.2c-3.8,1.4-2.8,7.3-2.8,10.5v-1.8c-0.5,5.7-3.9,10.2-9.3,12.3c-0.6,0.2,0.5,4.8,0,5
			c5.9-2.3,9.2-7.4,9.4-13.6c0-2.2-0.5-4.3,1-6.1c0.8-1.1,2.3-2,3.7-1.5c1.8,0.6,1.6,3,3.1,3.9c2.9,1.7,6.1-1.5,7-4
			c1.4-3.8,0.1-7.9,2.7-11.3c2.1-2.9,5.8-4.2,7.4-7.5c1.9-3.8-0.1-8.5,2.1-12.2c1.9-3.3,4.8-3.6,7.2-0.9c0.3,1.2,0.4,1.1,0.5-0.1
			c0,0.7-0.1,1.4-0.1,2.1v2.2c0,3.6-0.6,9.7,4.6,9.5c4.1-0.2,5.8-4.7,7.9-7.5c2.7-3.7,6.6-6.5,10-9.4c5.8-4.9,13.6-11.6,21.3-6.1v-5
			c-5.9,5.1-11.8,10.3-17.7,15.4c-0.3,0.3-0.3,4.6,0,5c3.1,5,8.2-2.9,11-4.5c4.1-2.4,9-2.9,13.5-4.3c4.5-1.3,8-3.4,9.6-8
			c0.8-2.2,1.3-5.4,4.2-5.6c3.2-0.3,4.7,3.3,4.7,5.9V32c-0.1,1.2-0.3,2.4-0.6,3.5c-0.1,0.5,0.1,5,0,5c2.5-0.3,14.2-9.8,14.7-1.8
			v-4.9c-0.1,0.3-0.3,0.6-0.4,0.9c-0.2,0.5,0.3,4.9,0,5c7.9-1.9,13.9-7.4,21-11.1c5.7-2.9,17-5.5,19.3,3.1v-3.8
			c-0.9,3.6-4,5-7.2,6.5c-3.7,1.7-7.4,3.5-10.9,5.5c-7.6,4.3-14.6,9.6-21,15.5c-0.3,0.2,0,5,0,5c4.9,0.8,10.6,2.2,10.8,8.2v-4.9
			c-0.8,3.5-5.5,2.7-8.6,3c-3.5,0.4-7.1,0.7-10.6,1.1c-2.4,0.3-8.1-0.2-9.1,2c-0.3,0.6-0.1,1.9-0.1,2.6c-0.1,3.1,0,5.1,2.5,7.4
			c3.6,3.2,10.5,4.2,10.8,10.2v-4.9c-1.2,4.3-6.6,3.2-10.1,3.1c-5-0.1-9.9-0.3-14.9-0.4l-30.8-0.9c0,0-0.1,4.5,0,5
			C249.4,98.7,254.5,103.6,261.4,104.9L261.4,104.9z"/>
		<path id="XMLID_1518_" class="st20" d="M322.6,35.7c-20.3,16.3-43.3,29.1-67.9,37.5c-13.2,4.5-26.9,7.6-39.8,13.1
			c-12.2,5.2-23.6,11.9-34.1,19.9c0.5-0.3,2.4,1.2,2.9,0.8c10.8-8.2,22.4-15.1,34.9-20.3c12.7-5.3,26-8.3,39-12.7
			c24.7-8.5,47.6-21.2,67.9-37.5C325,36.8,323.1,35.3,322.6,35.7z"/>
		<path id="XMLID_1517_" class="st20" d="M234.5,127.2c-32.1-6.6-64.6-13.7-93.3-30.3c-0.8-0.5-2.1-0.3-2.9-0.8
			c30.3,17.6,65.1,24.9,99,31.9C236.6,127.8,235.4,127.4,234.5,127.2z"/>
		<path id="XMLID_1516_" class="st20" d="M362.6,113.3c-18.2,6.8-37.7,16.8-57.5,16.5c1,0,1.9,0.8,2.9,0.8
			c19.8,0.3,39.3-9.8,57.5-16.6C364.7,114.3,363.3,113,362.6,113.3z"/>
		<path id="XMLID_1515_" class="st20" d="M338,185.5c-31.1-15.2-62.4-33.4-97.1-38.7c1,0.2,1.9,0.6,2.9,0.8
			c17.6,2.7,33.9,9.5,49.9,17c13.9,6.5,27.6,13.4,41.4,20.1C336,185.1,337.1,185,338,185.5z"/>
		<path id="XMLID_1514_" class="st20" d="M214.8,142.6c-10.8-4.1-21.7-7.7-32.7-10.8c-0.4-0.1-3.2-0.8-2.1-0.5
			c10.8,3,21.4,6.5,31.9,10.5C212.8,142.1,213.8,142.2,214.8,142.6z"/>
		<path id="XMLID_1513_" class="st20" d="M271.4,250.8c-21.2-15.9-42.5-32.6-57.7-54.6c-8.2-12-13.2-25.7-20.9-38
			c-7.6-12.3-17.5-23-27.3-33.5c-0.6-0.7-2.3-0.2-2.9-0.8c9.8,10.6,19.7,21.2,27.3,33.5c7.6,12.3,12.6,26,20.9,38
			c15.2,22,36.5,38.8,57.7,54.6C269.2,250.5,270.6,250.2,271.4,250.8z"/>
		<path id="XMLID_1512_" class="st20" d="M135.3,89.9c0.6,0.6,2.3,0.2,2.9,0.8c-13.1-13.4-28.4-24.3-43-36.1
			C82.4,44.4,70,33.4,61,19.6c-3-4.5-4.9-9.5-10.6-10.8c-4.2-1-8.9,0.9-10.1,5.4c-1.2,4.4,4.7,5.5,7.7,7.6c3.5,2.4,6.8,5.2,9.9,8.2
			c6.6,6.3,12.8,13.1,19.5,19.3c14.7,13.6,30.8,25.5,46.9,37.4c0.8,0.6,2.2,0.3,2.9,0.8C108.7,73.8,90.1,60,73.6,43.8
			c-7.3-7.2-14.1-15.2-22.7-21.1c-2-1.3-4.2-2.3-6.2-3.6c-1.8-1.2-2.1-2.2-1.3-4.5c1.2-3.4,4.8-5.5,8.4-5.2c-0.5-0.2-1-0.3-1.5-0.4
			c0.4,0.1,0.7,0.2,1.1,0.3C51,9.2,50.5,9,50,8.9c4.4,2.1,6.3,7.6,8.9,11.4c2.8,4.2,5.9,8.1,9.3,11.8c6.4,7.1,13.7,13.5,21.1,19.5
			C104.8,64.2,121.3,75.6,135.3,89.9L135.3,89.9z"/>
		<path id="XMLID_1511_" class="st20" d="M132.2,110.1c-21.3,4.5-42.6,9.5-63,17.4c-9.9,3.8-19.6,8.3-28.7,13.8
			c-4.7,2.8-9.2,5.8-13.5,9.1c-1.8,1.4-5.3,3.3-6.4,5.2c-0.4,0.4-0.8,0.7-1.2,1.1c0.9,0.4,1.7,0.9,2.5,1.4c1.4,0.8,2.7,1.6,4.1,2.4
			c0.3,0.2,2.7,1,2.9,0.8C64.2,134,108,119,152.6,119c-1,0-1.9-0.8-2.9-0.8c-44.6,0-88.4,15-123.7,42.4c1,0.3,1.9,0.5,2.9,0.8
			c-1.3-0.8-3.8-1.7-4.9-2.9c-1.4-1.6-2-0.7,0.2-2.6c1.8-1.6,3.7-3.1,5.7-4.6c4.3-3.3,8.8-6.3,13.5-9.1c9.1-5.5,18.8-10,28.7-13.8
			c20.4-7.8,41.7-12.8,63-17.4C134.3,111.2,133.1,110,132.2,110.1z"/>
		<path id="XMLID_1510_" class="st20" d="M152.1,127.6c-5.6-2.9-11.5-5-17.5-6.7c-0.5-0.2-3.3-0.9-1.5-0.4c5.5,1.5,10.9,3.6,16,6.2
			C150,127.2,151.1,127.1,152.1,127.6z"/>
		<path id="XMLID_1509_" class="st20" d="M112.1,113.5c-10.2-2.8-20.3-6.3-30-10.5c-3.5-1.5-8.6-3-11.6-5.4
			c-1.8-0.4-2.1-0.8-0.8-1.2c0.8-0.4,1.6-0.8,2.4-1.1c2.8-1.1,5.2-1.6,8.3-1c-0.9-0.3-1.9-0.5-2.8-0.8c3.8,1.6,7.1,4.2,11,5.8
			s8,2.9,12,4.3c9.3,3.3,18.5,6.5,27.7,9.8c0.9,0.4,2,0.5,2.9,0.8c-12.5-4.4-25-8.6-37.4-13.2c-5.6-2.1-10.3-6.2-16.1-7.4
			c-1.8-0.4-3.4-0.5-5.2-0.1c-1.4,0.3-2.8,0.9-4.1,1.5c-2.4,1.1-2.5,0.6-0.7,2c2.2,1.7,5.8,2.8,8.3,3.9c2.8,1.3,5.6,2.5,8.4,3.6
			c8.9,3.6,17.9,6.5,27.1,9C112.4,113.8,114.3,114.3,112.1,113.5z"/>
		<path id="XMLID_1508_" class="st20" d="M219.5,128.3c5.1,6,9,12.7,11.6,20.1c0.2,0.6,2.7,0.3,2.9,0.8c-2.7-7.4-6.5-14.1-11.6-20.1
			C221.9,128.5,220.1,129,219.5,128.3z"/>
		<path id="XMLID_1507_" class="st20" d="M397.4,70.4c-3,5.1-7.2,9.1-12.5,11.7c0.7-0.3,2.2,1.1,2.9,0.8c5.3-2.6,9.6-6.6,12.5-11.7
			C400.2,71.4,397.6,70.2,397.4,70.4z"/>
		<g id="XMLID_1506_">
			<path class="st28" d="M286.2,51.3c-0.1-0.1-1.6-0.7-1.8-0.5c-2.6,3.2-5.5,6-8.9,8.4c-2.3,1.9-4.8,3.6-7.4,5.1
				c-6.2,3.8-12.8,6.2-19.6,8.6c-0.4,0.2,0.9,0.6,0.8,0.6c0.5,0.2,1.9,1,2.5,0.8c6.8-2.1,13.3-4.6,19.5-8.4c2.7-1.5,5.3-3.3,7.7-5.3
				c3.4-2.4,6.3-5.2,8.9-8.4C288,52.1,286.1,51.4,286.2,51.3z"/>
			<path class="st28" d="M298.1,40.1c-1.8,1.2-3.4,2.6-4.9,4.1c-1.5,2.1-3.3,4-5.2,5.8c-3.3,3.4-7,6.4-11.1,9
				c-5.3,3.5-11.1,5.9-17.3,7.3c-0.8,0.2-0.7,2-0.7,2.6c0.1,0.8,0.5,1.2,1.3,1c8.4-2.2,9.2-1.8,14.7-4.6c3-1.6,5.7-3.5,8.3-5.7
				c1.8-1.4,3.4-3,5-4.6c1.2-1.3,2.3-2.5,3.5-3.8c2.6-3.3,4.4-7.3,6.4-10.9C298.1,40.3,298.4,39.8,298.1,40.1z M292.6,35.2
				c-0.1,0-1.6-0.8-1.8-0.6c-2.9,2.9-5.8,5.7-8.9,8.4c-3.4,2.2-6.7,4.4-10,6.6c-5.4,3.2-11.1,5-17,6.8l1.7,0.9
				c0.4,0.2,1.3,0.7,1.8,0.6c3.8-0.9,7.6-2.1,11.2-3.8c3.7-1.7,7.3-3.7,10.7-6c5.2-3.4,9.5-7.7,13.9-12
				C294.2,36.1,292.4,35.3,292.6,35.2z"/>
			<path class="st28" d="M290.1,39l-0.3-1.9c-2.5,4.5-6.3,7.4-11.2,8.8c0.6,0,1.1,0.1,1.6,0.1c-1.7-0.7-3.5-1.4-5.3-1.9
				c-1-0.3-2-0.1-2.9,0.4c-2.4,0.5-4.6,1.5-6.7,2.9c-3.8,2.1-7.2,4.9-10,8.5c-0.9,0.8-2.4,2.9-2.1,4.2c0.3,1,1.4,1.7,2.4,1.3
				c7.5-3.2,15.2-6.3,22.5-10c4.9-2.5,9-6,12.2-10.4C290.5,40.7,290.2,39.5,290.1,39z"/>
			<path class="st28" d="M287.2,34.3c-0.6,0.2-2,0.3-2.5,0.8c-2.3,1.9-4.5,4-6.6,6.1c-1.3,1.6-2.9,2.9-4.6,3.9
				c-2.4,1.8-5,3.4-7.6,4.8c-5.4,2.2-10.9,4.4-16.3,6.6c-0.2,0-1.5,0.6-0.5,0.4c2.5-0.6,5.6-1.1,8.2-2c2.1-0.7,4.2-1.7,6.2-2.5
				c4.6-1.9,9.1-4.9,13.2-7.9c4.1-3,7.6-6.8,11.4-10.3C288.5,33.9,287,34.3,287.2,34.3z M298.1,42.4l-0.4-1.9
				c-2.5,3.2-5.5,6-8.9,8.3c-2.4,2-4.9,3.7-7.5,5.2c-6.2,3.8-12.6,6.3-19.4,8.4c-0.4,0.1,0.5,3.7,0.5,3.7c6.9-2.2,13.3-4.7,19.4-8.4
				c2.7-1.5,5.1-3.3,7.5-5.2c3.4-2.3,6.4-5.1,8.9-8.3C298.4,43.9,298.1,42.6,298.1,42.4z"/>
			<path class="st28" d="M291.1,52.3c-0.4,0.1-1.5,0.2-1.8,0.5c-2.4,3.3-5.4,6-8.8,8.2l-9.9,6.6c-5.2,3-11.2,5-16.8,7.1
				c-0.5,0.2-0.4,0.2,0,0.2c0.9-0.1,2-0.4,2.9-0.7c6.8-2.1,13.3-4.6,19.5-8.4c2.8-1.6,5.3-3.5,7.8-5.4c1.6-1.2,3.1-2.4,4.7-3.6
				c1.5-1.6,2.9-3.2,4.3-4.8C292.9,52.2,291.3,52.4,291.1,52.3z M286.1,38c0-0.2,0-1.7,0.2-1.9c-3,3.8-6.2,7.4-9.7,10.8
				c0.6-0.5,1.3-0.9,1.9-1.4c-5.3,3.5-10.6,7.2-16.3,10.2c-2.6,1.3-5.3,2.4-8.1,3.5c-2.6,0.9-5.1,2.1-7.5,3.4c-0.5,0.3-0.9,2-1,2.5
				c0,0-0.5,1.3,0,1c4.5-2.6,9.3-4.9,14.2-6.8c2.8-1.2,5.5-2.7,8-4.3c2.7-1.5,5.2-3.2,7.5-5.2c1.5-1.3,2.9-2.7,4.1-4.2
				c-0.8,0.5-1.6,1.1-2.4,1.7c6.6-3.8,3.8-1.4,8.8-7.5C286.1,39.5,286,38.3,286.1,38z"/>
			<path class="st28" d="M294.1,37.3c-2.7,3.1-5.6,5.8-8.8,8.3c-2.1,1.7-4.3,3.3-6.6,4.6c-6.6,4-13.5,6.5-20.7,9.1
				c0.1,0,1.7,3.1,2.4,2.9c6.4-2.1,12.3-4.2,18.2-7.6c3.1-1.8,6.1-3.8,8.9-6c3.2-2.5,6.1-5.3,8.8-8.3
				C296.7,39.9,294.1,37.2,294.1,37.3z"/>
			<path class="st28" d="M295.2,33.6c0,0-1.9-0.3-1.8-0.3c-0.2,0-1.7-0.3-1.9-0.1c-4.3,4.9-9.4,8.5-15.4,10.8
				c-2.1,0.9-4.2,1.7-6.3,2.4c-5.9,2-11.1,5.2-15.6,9.7c-1.8,1.3,1.2,3.4,2.5,2.8c3-1.7,6.2-3.2,9.4-4.4c1.8-0.7,3.5-1.4,5.2-2.3
				c3.4-1.6,6.6-3.3,9.6-5.4c2.4-1.7,4.7-3.4,6.9-5.2c1.2-1,2.5-2.1,3.7-3.1C292.7,36.9,294,35.2,295.2,33.6L295.2,33.6z"/>
			<path class="st28" d="M285.9,41c-1.9,2.6-4,5-6.3,7.1c-2.1,1.6-3.6,3.7-4.6,6.2c0.2-0.2,0.4-0.5,0.6-0.8
				c-9.6,6-18.8,11.6-30,14.5c-0.3,0.1,1.3,3.5,2,3.2c3.8-1.8,7.7-3.4,11.8-4.5c3.5-1.4,6.7-3.3,9.6-5.6c3.4-2.5,6.9-5,10.3-7.5
				c3.2-2.9,6-6,8.6-9.4C288.2,43.9,285.7,41.3,285.9,41z M297.8,45.6c-0.1,0.2,0.4-1.2,0.1-0.9c-2.5,3.3-5.5,6.1-9,8.3
				c-2.3,2-4.8,3.7-7.5,5.2c-6.1,3.7-12.5,6.2-19.2,8.4c-0.4,0.1-0.7,1.4-0.8,1.7c0-0.1-0.6,1.8-0.5,1.8c6.9-2.2,13.4-4.7,19.6-8.5
				c2.6-1.5,5.1-3.2,7.4-5.2c3.5-2.1,6.4-4.9,8.8-8.3C297.2,47.6,297.4,46.4,297.8,45.6z"/>
		</g>
		<g id="XMLID_1505_">
			<path class="st28" d="M241,62.5c-0.1-0.1-1.7-0.4-1.8-0.6c0.2,0.3,0.3,0.5,0.2,0.8c-0.9,1.5-1.8,3.1-2.7,4.6
				c-1.7,2.9-3.9,5.3-6.7,7.1c-1.6,1.7-3.5,3.1-5.5,4.2c-4.1,2.6-8.5,4.5-12.9,6.4c-2.7,1.4-5.6,2.2-8.7,2.4
				c-4.2,0.6-8.3,1.6-12.4,2.9c-0.5,0.2,0.9,0.6,0.8,0.6c0.6,0.2,1.8,0.9,2.5,0.8c4.2-0.4,8.3-1.5,12.2-3.3
				c4.2-0.9,8.2-2.1,12.2-3.6c5-1.7,9.3-4.2,13.5-7.3c3.4-2.5,6.3-5.2,8.6-8.8c0.9-1.5,1.8-3.1,2.7-4.6c0.1-0.3,0-0.6-0.2-0.8
				C242.6,63,241.3,62.7,241,62.5z"/>
			<path class="st28" d="M246.9,59.4c0.3,0.2,0.6,0.4,0.9,0.7c0.1-1.2,0.3-2.5,0.4-3.7c-1.8,0.7-2.7,2.2-2.7,4.5
				c-3.1,5.1-7.1,9.3-12.1,12.7c-9.4,6.3-20.9,8.7-31.9,10.5c-0.7,0.1-0.9,2-0.9,2.5c0,0.7,0.2,1.2,1,1.1c4.9-0.2,9.7-0.9,14.5-1.9
				l7.2-2.1c5-1.7,9.5-4.3,13.6-7.5c3-2.3,5.6-5.4,7.7-8.5c1.2-1.7,2.2-3.5,3.1-5.4c1.2-1.9,1.6-4,1-6.3
				C248.4,56.3,246.8,59.2,246.9,59.4z"/>
			<path class="st28" d="M246.8,47.6c0,0-1.7-0.6-1.7-0.7c0.1,0.4,0.1,0.8,0,1.2c-0.7,1.2-1.5,2.3-2.2,3.5c-1.4,1.7-2.9,3.4-4.5,4.9
				c-1.7,1.8-3.6,3.3-5.7,4.5c-2.5,2-5.2,3.7-8.2,4.9c-2.2,0.9-4.5,1.8-6.7,2.7c-6.7,2.5-14,3.8-21,5.3c0.1,0,1.1,0.6,1.3,0.7
				c0.5,0.2,1.5,0.9,2.1,0.8c12.4-2.3,25.4-5.1,35.9-12.5c1.5-0.9,2.8-2,4-3.2c2.2-2,4.3-4.3,6.3-6.6c0.7-1.2,1.5-2.3,2.2-3.5
				c0.2-0.4,0.2-0.8,0-1.2C248.6,48.2,247,47.7,246.8,47.6z"/>
			<path class="st28" d="M240.8,53.9c-0.3,1.3-0.5,2.7-0.7,4c0.6-1,1.1-1.9,1.6-2.9c-2.5,2.2-5.1,4.5-7.6,6.7
				c0.4-0.2,0.9-0.5,1.3-0.7c-2.5,0.7-4.9,1.1-7.4,1.1c-1.6,0.2-3.3,0.1-4.9-0.3c-1.7-0.2-3.4-0.6-5.1-1c-2-0.7-4-0.9-6.1-0.6
				c-3-0.2-6,0.1-9,0.9c-1.8,0.6-3.5,1.3-5.3,1.9c-0.2,0.1-0.5,0.3-0.9,0.6c-1.8,3-3.6,6.1-5.4,9.1c-0.6,1.1-0.6,3.5-0.1,4.6
				c0.1,0.5,0.3,0.8,0.8,1c0.6,0.2,1.2,0.2,1.8,0c3.9-1.5,8-2.6,12.1-3.3c2.2-0.7,4.3-1.3,6.5-1.9c2.2-0.7,4.3-1.4,6.5-2.1
				c2.3-0.5,4.5-1.2,6.7-2c5.3-1.9,10.4-5.4,14-9.8c0.8-1,2.3-2.8,2.6-4.1c0-0.3,0-0.6-0.1-0.9c-0.2-0.6-0.7-0.5-1.1-0.9
				C240.9,53.4,240.8,53.6,240.8,53.9z"/>
			<path class="st28" d="M239.5,47.5c0.5,1.4,0,1.5-1.1,2.9c-1.8,2.3-4.1,4.2-6.2,6.4c-3.9,4-8.5,7-13.6,9.3
				c-6.1,1.9-12.2,3.9-18.3,5.8c-2.1,0.5-4.3,0.9-6.4,1.4c-0.9,0.2-2.1,0.3-2.9,0.8c-0.3,0.2-0.4,0.3,0.1,0.2
				c11.3-1.9,22.4-4.4,32.7-9.6c2.3-1.1,4.5-2.3,6.5-3.8c2.6-2,4.8-4.4,7.1-6.7c1.1-1,2.1-2.1,3.2-3.1c0.9-1.1,1.8-2.3,2.7-3.5
				c0.1-0.4,0-0.8-0.2-1.2C243.1,46.3,239.5,47.5,239.5,47.5z M251.8,52.3c0,0.3,0.1,0.5,0,0.7v-0.4c-2.8,8.8-12.3,15.3-20.5,19.1
				c-8.7,4.1-18.1,6-27.4,8c-0.3,0,0.4,3.7,0.5,3.7c11.6-2.5,23.5-5,33.7-11.4c4.1-2.5,8.3-5.4,11-9.4c1.2-1.7,2.4-3.7,3.1-5.7
				c0.2-0.6,0.1-0.4,0.1-0.9C252.3,54.8,252,53.5,251.8,52.3C251.8,52.2,251.8,52.2,251.8,52.3z"/>
			<path class="st28" d="M246,63.8c0,0-1.8,0.4-1.8,0.5c-0.2,1-0.6,1.9-1.3,2.7c-1.1,2.3-2.4,4.4-4,6.4c-2.2,2.2-4.8,4.1-7.4,5.8
				c-1.9,1.3-3.9,2.5-6,3.5c-3.6,2-7.5,3.4-11.7,4.1c-6,1.9-11.9,3.6-17.9,5.3c-0.5,0.1-0.5,0.3,0,0.2c10.3-2.2,20.9-4.2,30.5-8.7
				c4.4-2,8.6-4.7,12.5-7.7c2.7-1.9,4.9-4.4,6.4-7.5c1.2-1.5,2.1-3.2,2.4-5C247.7,63.5,245.9,63.9,246,63.8z M236.6,54
				c0,0.1-0.1,1.8-0.2,1.9c0.6-0.4,0.9,0.4,1,1c0.2-1.1,0.3-2.3,0.5-3.5c-1.3,1.9-2.5,3.9-3.8,5.9c0.4-0.6,0.9-1.3,1.4-1.9
				c-3.4,3.5-7.1,6.6-11.1,9.4c-3.6,2.3-7.3,4.2-11.3,5.7c-8,3.3-16.5,5.3-24.8,7.5c-0.5,0.2-0.5,1.6-0.5,1.9c0-0.1-0.2,2.1,0.1,1.9
				c6.7-3.2,13.7-5.8,20.9-7.6c2.2-0.5,4.3-1.3,6.3-2.3c2.3-1.1,4.4-2.3,6.6-3.6c2.1-1.3,4.2-2.7,6.2-4.3c2.7-2.3,5.1-4.9,7.7-7.3
				c1.6-1.4,1.7-1,1.9-2.5c0.1-0.7,0.3-1.5,0.3-2.3c0-0.6-0.3-2.1-1.1-1.5C236.5,52.6,236.4,54.1,236.6,54z"/>
			<path class="st28" d="M249.6,50.8c-0.1-0.2-1.2-1.2-1.2-1.5c0.1,0.4,0.1,0.7-0.1,1.1c-0.6,1.2-1.3,2.5-2,3.7
				c-2,3.1-4.9,5.7-7.8,7.9c-11.2,8.5-25.4,11.2-38.8,14.8c-0.1,0,1.3,1.4,1.3,1.4c0.2,0.2,1.1,1.3,1.5,1.2
				c11.9-2.4,24.2-5.1,34.6-11.8c4.4-2.8,8.7-6.1,11.5-10.6c0.6-1.2,1.3-2.5,2-3.7c0.2-0.3,0.2-0.7,0.1-1.1
				C250.7,51.7,249.9,51,249.6,50.8z"/>
			<path class="st28" d="M243.5,49.7c0.1,0,1.8,0.3,1.9,0.1c0.1-0.1,0.1-0.2,0.2-0.3c-1.3,0-2.5-0.1-3.8-0.1
				c0.2,0.3,0.4,0.7,0.4,1.1c-0.7,0.9-1.5,1.8-2.2,2.7c-2.1,2.3-5.2,3.7-8,4.9c-5.3,2.3-11.3,3.2-16.8,5l-4.2,1.5
				c-5.8,1.7-10.9,4.8-15.3,9.3c-1.7,1.2,1.4,3.2,2.6,2.7c4.5-2.4,9.2-4.2,14.1-5.2c2.5-0.7,5-1.5,7.4-2.4c4.8-1.8,9.7-3.6,14-6.3
				c3.7-2.3,7.1-5.3,9.9-8.5c0.2-0.2,3.5-3.4,2.1-4.7c-0.3-0.2-1.6-0.1-1.9-0.1c-0.5,0-1.4-0.2-1.9,0c-0.1,0.1-0.1,0.1-0.2,0.1
				C242.1,49.4,243.4,49.8,243.5,49.7z"/>
			<path class="st28" d="M237.2,58.7c0.1,0.2,0.7,1.5,1,1.6c0.1,0.1,0.3,0.1,0.4,0.2l-0.3-0.3c0.1,0.1,0.2,0.3,0.3,0.4
				c-0.5-1-1.1-1.9-1.7-2.9c0.1,0.9-0.3,1.7-1.2,2.4c-1.1,2.1-2.6,4-4.3,5.7c-2.1,2.2-4.3,4.2-6.7,6c-3.8,2.8-8.4,4.9-12.6,7
				c-3.3,1.7-6.8,3.3-10.3,4.7c-2.2,0.6-4.4,1.3-6.6,1.9l3-0.3c-3.5,0-7.1,0.1-10.7,0.2c-0.1,0,1,3.6,1.8,3.3
				c5.2-2.2,10.6-3.8,16.2-4.9c2.2-0.5,4.3-1,6.5-1.5c3.4-1,6.7-2.2,9.7-4.1c3.3-2.1,6.5-4.5,9.3-7.1c1.8-1.7,3.5-3.5,5.1-5.4
				c1-1.4,2.1-2.9,3.1-4.3c0-1-0.7-1.7-1.2-2.5c-0.4-0.7-0.7-1.4-1.5-1.7C236.8,57.2,237.4,58.6,237.2,58.7z"/>
			<path class="st28" d="M251.2,57.9c-0.1,0.3-0.7,1.4-0.6,1.8c0.1,0.1,0.1,0.3,0.1,0.4c0-0.1,0.1-0.3,0.1-0.4
				c-2.8,4.9-6.5,8.8-11.2,11.6c-2.6,1.9-5.4,3.5-8.3,4.8c-8.6,4-18,5.9-27.2,8c-0.4,0.1-0.7,1.5-0.8,1.7c0-0.1-0.6,1.8-0.5,1.8
				c11.6-2.7,23.7-5.1,33.9-11.6c2.1-1.2,4.1-2.6,6-4.1c1.3-1,2.5-2.1,3.7-3.2c0.9-1,1.8-2.8,2.5-4c1.1-2.1,1.9-4.5,2.7-6.7
				c0.2-0.7,0.5-1.2,0.4-1.9C252.1,56.5,251.5,57.6,251.2,57.9z"/>
		</g>
		<g id="XMLID_1504_">
			<path class="st28" d="M237.2,63.1c-0.1,0-1.6-0.7-1.8-0.6c-4.1,2.8-8.3,5.7-12.4,8.5c-0.1,0.1,1.8,0.8,1.7,0.8
				c0.2,0.1,1.4,0.7,1.8,0.5c4.1-2.8,8.3-5.7,12.4-8.5C238.8,63.8,237.1,63.1,237.2,63.1z M232,55.3c-0.7-0.3-1.7-1-2.5-1
				c-0.4,0,1,0.6,0.8,0.5c0.7,0.3,1.7,1,2.5,1C233.3,55.8,231.9,55.2,232,55.3z M235.5,47.7c-4.1,2.3-8.1,4.6-12.1,6.8
				c-0.5,0.3,1.2-0.1,0.9,0c0.8-0.2,1.8-0.4,2.5-0.8c4.1-2.3,8.3-4.7,12.4-7.1C238.1,47.3,236.6,47.1,235.5,47.7z"/>
			<path class="st28" d="M236.6,60.3c0,0,0.1,3.7,0.5,3.7C237.1,64,236.9,60.3,236.6,60.3z M230.8,72.4c-0.2,0.1,1.3-0.3,0.9-0.3
				c-0.8,0-1.8,0.4-2.6,0.6c0.2-0.1-1.3,0.3-0.9,0.3C229,73,230,72.6,230.8,72.4z M244.5,49.6c-3.8,2.4-7.7,4.9-11.5,7.3
				c-0.2,0.2,1.9,3.3,2.3,3c3.8-2.4,7.7-4.9,11.5-7.3C246.8,52.6,244.7,49.5,244.5,49.6z"/>
			<path class="st28" d="M235.6,62c-0.1-0.5-0.3-0.9-0.5-1.3c-0.1-0.2-1.9-3.2-2-3.1c-4.3,2.7-8.5,5.5-12.8,8.2
				c-0.4,0.3,1.6,3.5,2,3.2c4.3-2.7,8.5-5.5,12.8-8.2c-0.7-1-1.3-2.1-2-3.1c0.2,0.4,0.3,0.7,0.5,1.1C234.1,59.9,235.1,60.9,235.6,62
				z M247.6,58.4c0.1-0.2,0.3-1.6,0.6-1.8c-3.8,2.7-7.6,5.3-11.4,8c-0.5,0.3-0.7,1.3-0.8,1.7c0,0-0.4,1.8-0.5,1.8
				c3.9-2.7,7.7-5.3,11.5-8C247.2,59.9,247.5,58.5,247.6,58.4z"/>
			<path class="st28" d="M244.8,61.8c0.3-0.3,1-1.1,1-1.6c0.2-1.3,0.2-2.1-0.5-3.2c-2.5-4.5-6.5-2.2-12.1,7
				c-4.1,2.7-8.2,5.5-12.3,8.2c-0.6,0.4-1.1,1.1-1.6,1.6c-0.3,0.3-0.7,0.9-1,1.1c9.1-3.5,17.5-8.2,25.3-14c0.4,0.8,0.4,1.7,0.2,2.6
				C243.8,63.2,244.7,62.2,244.8,61.8z"/>
			<path class="st28" d="M237.5,59.4c0,0.1,0.4,1.8,0.3,1.9c0.9-0.6,1.4-1.3,1.5-2.3c0.3-0.8,0.2-1.5-0.2-2.2
				c-0.1-0.6-3.1-1.4-3.6-1.1l-23.1,13.2c-0.2,0.1-0.2,1.8-0.2,1.9v1.9c8.9-5.3,17.9-10.5,26.8-15.8c-1.1-0.3-2.3-0.7-3.4-1
				c0.6,0.6,1.3,1.1,1.9,1.7C237.7,57.7,237.7,59.4,237.5,59.4z"/>
			<path class="st28" d="M233.2,60.1c0.4-1.5,0.6-2.8,0.8-4.3c0.1-0.6,0.2-1.3,0-1.9c-0.2-0.4-0.3-0.7-0.5-1.1
				c-8.4,5-16.9,10-25.4,14.9c-0.2,0.2-0.3,1.8-0.3,1.9c0,0.1-0.1,1.8-0.2,1.9c8.5-4.9,17-9.8,25.4-14.9c0.5,0.7,0.7,1.5,0.6,2.3
				c0.2-1.2,0.3-2.5,0.5-3.7l-0.3,1.2C233.5,57.6,233.6,58.9,233.2,60.1z"/>
			<path class="st28" d="M242.8,53.7c0.3-1.4,0.2-2-0.6-3.2c-0.2-0.2-1.7-0.2-1.9-0.2c-0.4,0-1.5-0.3-1.9-0.1
				c-8.8,3.9-17.1,8.9-24.7,14.9c0.2-0.1,1.7-0.1,1.9-0.1c0.6-0.1,1.4,0,1.9-0.3c8.6-4.1,16.8-8.8,24.7-14.1
				c-1.3-0.1-2.5-0.2-3.8-0.3c0.8,1.2,0.9,1.8,0.6,3.2C239,53.5,242.7,54.1,242.8,53.7z"/>
		</g>
		<g id="XMLID_1503_">
			<path class="st28" d="M302.7,188.1c0.4,0,0.6,0,0.1-0.3c-7.5-4.1-14.9-8.1-22.8-11.3c-4.2-1.7-8.6-3.2-12.9-4.7
				c-0.7-0.3-2.9-0.9-0.9-0.1c5.8,2.1,11.5,4.4,17.1,7c5.7,2.3,11.2,5.1,16.5,8.4C300.4,187.5,301.8,188.1,302.7,188.1z
				 M320.4,186.8c-6.5-4.1-13.3-7.8-20.2-11.1c-8.2-3.9-16.6-7.5-25.1-10.8c-0.4-0.2-2.1,3.1-2.1,3.1c8.6,3.4,17.1,7,25.4,10.9
				c6.9,3.3,13.6,7,20.1,11C318.8,190,320.7,186.8,320.4,186.8z M309.2,171.5c0.3,0,0.5-0.1,0-0.3c-7.8-3.9-15.6-7.8-23.6-11.2
				c-4.4-1.9-9-3.5-13.5-5.2c-0.4-0.2-0.4-0.2-0.2,0c0.6,0.5,1.6,0.7,2.3,1c11.1,4.4,22,9.4,32.7,14.7
				C307.4,170.7,308.7,171.5,309.2,171.5z"/>
			<path class="st28" d="M312.4,185.7c0-0.2,0-1.8-0.3-1.9c-4.9-1.9-9.6-4-14.2-6.5c-9.1-4.7-18.5-8.7-28.1-11.9
				c-1.3-0.6-4.5,1.2-2.5,2.4c23.5,14.3-0.2,1.2,33.7,12.1l-0.9-0.3c4.1,2.7,8.3,5.3,12.4,8C312.5,187.7,312.4,185.7,312.4,185.7z
				 M302.3,169.9c0,0,1.3-0.3,0.8-0.5c-5.5-2.9-11.1-5.6-16.8-8.1c-5.6-2.7-11.4-5.1-17.3-7.2c-0.4-0.2-1.5,0.3-1.8,0.4
				c-0.1,0-1.7,0.7-1.8,0.6c6,2.2,11.9,4.6,17.6,7.3c5.7,2.5,11.3,5.1,16.8,8C300.3,170.7,301.9,169.9,302.3,169.9z"/>
			<path class="st28" d="M313.6,177.7c0-0.2,0-1.6-0.4-1.8c-5.6-3-11.3-5.8-17.1-8.3c-5.7-2.6-11.4-5-17.3-7.1l0.2,1.9
				c0,0.1,0.1,1.8,0.3,1.9c5.9,2.1,11.7,4.4,17.3,7.1c5.8,2.5,11.5,5.3,17.1,8.3C313.9,179.8,313.6,177.8,313.6,177.7z M306.5,188.6
				l1.8-0.6c-5.5-3.3-11.2-6.2-17.1-8.7c-5.6-2.7-11.4-5-17.3-6.9c-0.3-0.1-1.5,0.3-1.8,0.4c-0.2,0.1-1.6,0.6-1.8,0.5
				c6,2,11.8,4.3,17.5,7c5.8,2.4,11.4,5.2,16.8,8.5C305,189,306.1,188.6,306.5,188.6z M308.5,182.7c-7.3-4.5-14.8-8.3-22.7-11.6
				c-7.5-3.6-15.2-7-22.9-10.3c-0.2-0.1-1.3,3.5-0.7,3.7c10.5,3,20.4,7.3,29.7,12.8c5.4,3,10.8,6,16.1,9.1
				C307.7,186.3,309,183,308.5,182.7z"/>
			<path class="st28" d="M321.1,180.8c-0.3-0.4-0.8-1.2-1.2-1.5c-6.6-5.1-13.8-9.2-21.5-12.4c-7.5-3.6-15.2-6.9-23.1-9.7
				c-0.4-0.2,0.5,1,0.4,0.9c0.4,0.6,1.1,1.8,1.7,2.1c7.8,3,15.5,6.2,23,9.8c7.7,3.2,15,7.3,21.8,12.3
				C321.8,182.1,321.3,181.1,321.1,180.8z"/>
			<path class="st28" d="M316.3,179.9c-0.2-0.1,1.3,0.1,0.9-0.2c-7.7-4.4-15.2-9.1-22.5-14c-0.1-0.1-0.3-0.2-0.5-0.3
				c-11.2-7.1-9.3-5.7-22.3-7.9c-0.9-0.2-1.9,0.1-2.7,0.2c0.2,0-1.5,0.3-0.9,0.5c9.7,1.9,18.7,5.4,27.1,10.3
				c6.5,3.2,12.6,6.9,18.3,11.2C314.3,180.1,315.7,180,316.3,179.9z M309.3,189.2c-0.3-0.4-0.7-1.4-1.1-1.6
				c-6.9-4.1-14.1-7.7-21.5-10.7c-8.1-3.5-16-7.2-23.9-11c-0.5-0.2,0.1,1.1,0.1,1c0.2,0.4,0.8,2.1,1.3,2.3
				c15.7,6.3,31,13.5,45.9,21.6C309.9,190.7,309.3,189.4,309.3,189.2z M313.4,180.3c-5.5-3.1-11.2-5.9-17.1-8.4
				c-5.7-2.6-11.4-5-17.3-7c0,0-1.4,3.5-1.2,3.6c5.9,2,11.7,4.3,17.3,7c5.8,2.5,11.5,5.3,17.1,8.4
				C312.3,184,313.8,180.6,313.4,180.3z"/>
		</g>
		<g id="XMLID_1502_">
			<path class="st28" d="M286.6,183.7c0.2,0.2,1.6,0.5,1.8,0.5c0.1,0,1.7,0.4,1.8,0.6c-1-1.8-2.2-2.9-4-4.1c-0.9-0.6-1.8-1-2.7-1.4
				c-3.2-1.4-6.3-2.9-9.3-4.5c-3.3-1.4-6.7-2.6-10.1-3.7c-6.9-2.3-12.3-3.7-19.3-5.4c-0.6-0.1-0.4,0.1-0.1,0.3c0.7,0.5,2,0.8,2.8,1
				c14.5,3.8,23.8,6.8,34.9,12.8c1.4,0.5,2.5,1.3,3.4,2.4C286,182.7,286.3,183.2,286.6,183.7L286.6,183.7z M295.9,181.2
				c0.3-0.4,0.9-1.2,0.9-1.7c0-1.4,0-1.9-0.6-3.1c-0.6-1.1-2-2.1-3.1-2.7c-5.6-3.2-12-5.7-18.1-7.9c-6.2-2.2-12.6-4-18.9-5.9
				c-1.3-0.3-2.8,3.1-1.5,3.5c9.1,2.5,18.1,5.5,26.9,8.9c3.1,1.6,6.3,3.1,9.6,4.5c1.1,0.7,2,1.5,2.7,2.5c0.7,1.1,1,2.2,1,3.4
				C294.8,182.6,295.8,181.2,295.9,181.2z M294.5,168.7c0.1,0,1.6,0.5,1.7,0.7c-1.1-2.7-2.6-4.4-5.1-6c-0.8-0.6-1.6-1.1-2.5-1.5
				c-3.3-1.6-6.9-2.7-10.3-4c-3-1.3-6.1-2.5-9.2-3.6c-5.8-2-11.8-3.7-17.8-5.1c-0.5-0.2-0.4-0.1-0.1,0.2c0.7,0.6,1.9,1,2.7,1.2
				c8.8,2.3,17.4,5.1,25.9,8.4c3.3,0.6,6.3,1.9,9,3.7c2,1.4,3.1,3,4,5.2C292.9,168.1,294.4,168.6,294.5,168.7z"/>
			<path class="st28" d="M288.8,180.4c0.5-1.6,0.8-2.2,0.4-3.8c-0.5-1.2-1.3-2.2-2.3-3l-1.4-1.4c-2.3-1.7-9.8-3.9-9.9-3.9
				c-4.3-1-8.5-2-12.6-3c-4.2-0.9-8.4-2.1-12.4-3.7c-1-0.4-2.5,0.4-2.6,1.5c-0.2,1.2,1.3,3.4,2.3,3.9c9.3,4.8,7.3,5.4,14.4,5.7
				c7.3,0.3,14.6,0.2,21.9,1.3c-1-0.3-1.9-0.5-2.9-0.8c1.6,1,3.1,2.1,4.7,3.1c-0.7-0.6-1.3-1.2-2-1.8c0.9,1.3,1.9,2.5,2.8,3.8
				c-0.5-0.9-1.1-1.9-1.6-2.8c0.3,1.5,0.7,3.1,1.1,4.6C288.7,180.1,288.8,180.7,288.8,180.4z M290.5,167.3c-0.8-1.7-1.5-2.9-2.9-4.1
				c-1.1-0.9-2.2-1.7-3.5-2.4c-2.9-1.7-6.1-3-9.4-3.8c-2.9-1.2-5.8-2.3-8.7-3.4c-5.8-2-11.8-3.5-17.8-5.1c-0.7-0.1-2,0.5-2.6,0.7
				c0.2,0-1.3,0.4-0.8,0.5c7.5,2.1,14.9,4.1,22.2,6.9c2.9,1.1,5.7,2.2,8.6,3.3c1.7,0.5,3.4,1.2,5,2.1c1.5,0.8,3,1.7,4.2,3
				c1,1,1.5,2.1,2.1,3.4C286.9,168.6,290.4,167.2,290.5,167.3z"/>
			<path class="st28" d="M299.3,173.8c-0.1-0.4-0.1-1.6-0.3-1.9c-1.6-2.2-3.4-3.5-5.8-4.7c-5.8-2.5-11.6-4.8-17.5-6.9
				c-5.9-1.9-11.8-3.6-17.8-5.1c-0.2,0,0.1,2,0.1,1.9c0,0.1,0.1,1.7,0.4,1.8c6,1.4,12,3.1,17.8,5.1c5.9,2.2,11.7,4.5,17.5,6.9
				c2.4,1.2,4.2,2.5,5.8,4.7C299.3,175.3,299.3,174,299.3,173.8z M291.3,182.4c0,0,1.7-0.6,1.8-0.5c-2.9-2.1-6.1-3.5-9.4-5
				c-4.2-2.1-8.5-3.9-13-5.2c-5.8-2.1-11.7-3.7-17.8-5c-0.7-0.1-2,0.4-2.6,0.6c0.2,0-1.2,0.3-0.8,0.4c10.5,2.7,20.9,5.7,30.8,10.3
				c3.3,1.6,6.3,2.8,9.2,4.9C289.7,183,291.2,182.5,291.3,182.4z"/>
			<path class="st28" d="M284.5,178.3c0.1-0.8,0.4-1.8,0.3-2.6c-0.2-1.7-0.1-2-1.1-3.5s-2.4-2.5-3.9-3.3c-1-0.5-2-1-3-1.3
				c-5.9-1.8-11.6-4-17.2-6.5c-4.9-1.8-12.7-4.2-17.6-5.8c-0.4-0.2-1.3,3.5-0.6,3.7c6.7,1.4,13.2,3.2,19.7,5.4
				c5.8,1.5,11.2,3.8,16.2,6.9c3.3,1.8,6.3,3.6,7,7.9C284.4,179.6,284.6,178.1,284.5,178.3z M297.3,173.8c0.2,0.2,1.2,1.2,1.2,1.5
				c-0.1-2.1-0.5-3.3-1.7-5c-0.9-1.3-1.8-2.5-2.9-3.6c-1.3-1.2-2.7-2.1-4.2-3c-2.9-1.1-5.9-2.3-8.8-3.4c-2.9-1.1-5.7-2.2-8.6-3.3
				c-5.8-2-11.8-3.5-17.8-5.1c-0.5-0.2,0.3,1,0.3,0.9c0.3,0.4,1.1,1.8,1.7,2c5.9,1.5,11.9,3.2,17.8,5.1c2.8,1.1,5.7,2.2,8.6,3.3
				c4.9,1.9,10.7,3.2,14.2,7.6c-0.5-0.7-1.1-1.4-1.6-2.1c0.3,1.2,0.5,2.3,0.8,3.5C296.3,172.6,297.2,173.5,297.3,173.8z"/>
			<path class="st28" d="M293.7,172.9c0.1-1-0.3-1.9-1.1-2.6c-1.9-2.6-4.1-4.9-6.7-6.7c-5.3-3.2-10.7-6.1-16.3-8.7
				c-6-3.4-12.5-4.9-19.4-4.5c-0.7-0.1-0.5,0.8-0.4,1.1c0.2,0.5,1.2,1.9,1.8,2c6.3,0.7,12.3,2.4,18.1,5c5.7,2.1,11,5,15.9,8.6
				c1.8,0.9,3.7,1.6,5.6,2.3c-0.9-0.8-1.7-1.6-2.6-2.4c1.1,1.7,1.6,3.5,1.4,5.5C290,173,293.8,172.9,293.7,172.9z M285.4,182.1
				c0.2,0.3,1,1.3,1.1,1.6c-0.3-2-0.1-1.6-0.8-3c-0.3-0.6-0.7-1.1-1-1.7c-0.6-0.9-1.1-1.6-1.8-2.4c-1.7-1.8-3.8-2.9-6.1-3.8
				c-1.8-0.6-3.5-1.2-5.3-1.8l-8.7-3.3c-3-0.9-5.9-1.9-8.9-2.8c-4-1.5-8-3.1-12-4.6c-0.6-0.3,0.1,1.3,0.1,1.4c0.2,0.5,0.5,1.9,1.2,2
				c3.3,0.5,6.7,1.1,10,1.6c-0.8-0.1-1.5-0.3-2.3-0.5c6,1.8,11.8,3.8,17.6,6l9.9,5.1c2.8,1.2,4.5,1.9,6.8,4.3l-1.8-2.7
				c0.3,1,0.7,2,1,3C284.5,181,285.1,181.7,285.4,182.1z"/>
			<path class="st28" d="M299.2,179.3c0-0.2,0.7-1.5,0.6-1.8c-0.6-1.5-1.2-2.4-2.4-3.5c-1-0.9-2.1-1.5-3.2-2.1
				c-5.8-2.9-12.2-5.3-18.4-7.4c-5.9-2-11.8-3.5-17.8-5.1c-0.3-0.1-1.4,3.6-1.2,3.6c7.5,1.9,14.8,4,22.1,6.7
				c4.8,1.7,9.6,3.5,14.1,5.8c1.4,0.8,2.8,1.6,3.9,2.7c0.8,0.8,1.3,1.8,1.7,2.9C298.5,180.8,299.1,179.5,299.2,179.3z"/>
		</g>
		<g id="XMLID_1501_">
			<path class="st28" d="M319.4,132.9c-0.8-0.4-1.7-0.8-2.5-1c-6.4-1.5-12.8-3.3-19.3-4.8c-3.1-0.7-6.2-1.2-9.4-1.4
				c-3.2-0.2-6.3-0.2-9.5-0.3c-3.7-0.2-7.3-0.7-10.9-1.6c-0.5-0.2-0.4-0.1-0.1,0.2c0.7,0.5,1.9,1,2.7,1.2c2.7,0.7,5,1.2,7.7,1.5
				c3.1,0.4,6.4,0.3,9.5,0.4c11.1,0.3,21.8,3.7,32.5,6.4C320.6,133.6,319.1,132.9,319.4,132.9z"/>
			<path class="st28" d="M313.1,131.8c-0.2,0.1,1.2-0.3,0.8-0.4c-4.7-1.1-9.5-2.3-14.2-3.6c-2.4-0.7-4.9-1.3-7.4-1.8
				c-2.9-0.5-5.8-0.8-8.8-1c-3.2-0.2-6.3-0.1-9.5-0.3c-3.2-0.2-6.2-0.7-9.3-1.5c-0.7-0.1-2,0.5-2.6,0.7c0.2,0-1.3,0.4-0.8,0.5
				c3.7,0.9,7.2,1.5,11.1,1.6c2.5,0.1,5.1,0.1,7.6,0.2c3.8,0.1,7.6,0.7,11.3,1.5c6.5,1.4,12.8,3.2,19.2,4.8
				C311.2,132.6,312.5,132,313.1,131.8z M324.5,141.9c0.1,0-0.2-2,0-1.8c-0.1-0.1-0.2-1.8-0.4-1.9c-10.1-2.7-20.3-6-30.8-6.6
				c-3.2-0.2-6.3-0.1-9.5-0.3c-3.2-0.2-6.2-0.7-9.3-1.5c0.2,0-0.2,3.5,0.5,3.7c3.7,0.9,7.2,1.5,11.1,1.6c2.5,0.1,5.1,0.1,7.6,0.2
				C304.2,135.7,314.4,139.2,324.5,141.9L324.5,141.9z M317.2,150.6c0.2,0,1.6-0.6,1.8-0.5c-10.1-2.9-20.2-6.3-30.7-6.9
				c-3.2-0.1-6.3-0.1-9.5-0.3c-3.2-0.2-6.2-0.7-9.3-1.5c-0.7-0.1-2,0.4-2.6,0.6c0.2,0-1.2,0.3-0.8,0.4c3.7,0.9,7.2,1.5,11.1,1.6
				c2.5,0.1,5.1,0.1,7.6,0.2c10.5,0.4,20.6,3.9,30.5,6.8C315.8,151.1,316.8,150.7,317.2,150.6z"/>
			<path class="st28" d="M324.2,142.5c-10.1-2.8-20.3-6.1-30.8-6.7c-3.2-0.2-6.3-0.1-9.5-0.3c-3.2-0.2-6.2-0.7-9.3-1.5
				c-0.3-0.1-1.4,3.6-1.2,3.6c3.7,0.9,7.2,1.5,11.1,1.6c2.5,0.1,5.1,0.1,7.6,0.2c10.6,0.4,20.7,4,30.8,6.7
				C323.2,146.1,324.3,142.5,324.2,142.5z M313.3,150.3c0.5,0.1,0.4-0.1-0.2-0.3c-0.8-0.5-1.9-0.7-2.8-1c-8.8-2.6-17.7-5.5-26.9-6.6
				c-3.1-0.3-6.3-0.3-9.5-0.4c-3,0-6.1-0.3-9.1-0.7l-3.6-0.9c-0.9-0.3,0.2,0.4,0.5,0.5l5.4,2.1c0.8,0.3,1.7,0.6,2.5,0.9
				c-0.2,0,1.2,0.4,0.9,0.3c-2.1-1-4.3-1.9-6.4-2.8c0,0.1-0.1,0.2-0.1,0.3c2.6,0.6,5.1,1.2,7.7,1.4c2.5,0.2,5.1,0.2,7.6,0.3
				c5,0.1,10,0.6,14.8,1.6C300.6,146.4,306.9,148.4,313.3,150.3L313.3,150.3z"/>
			<path class="st28" d="M330.1,148.9c0.5,0.1,1.8-3.3,2-3.1c-9.9-2.7-19.9-5.7-30-8c-3-0.7-6-1.2-9-1.5c-2.1-0.2-4.1-0.3-6.1-0.4
				c-2.4-0.2-4.8-0.3-7.2-0.4c-2.5-0.2-4.9-0.6-7.3-1.3c-1.3-0.3-2.4,3.1-1.2,3.6c1.2,0.6,2.4,1.1,3.6,1.7c0.6,0.2,2.5-2.9,2.6-2.8
				c-1.7-0.8-3.3-1.7-5-2.5l-1.2,3.6c3.2,0.7,6.2,1.2,9.4,1.4c3.4,0.2,6.4,0.4,9.9,0.7c4.2,0,8.3,0.6,12.4,1.7
				c1.6,0.5,3.2,0.9,4.8,1.3C315.2,144.9,322.6,146.9,330.1,148.9L330.1,148.9z"/>
			<path class="st28" d="M324.3,146.7c-0.3-0.1,0.1-3.7-0.4-3.8c-9.9-1.8-19-4.9-28.6-7.1c-2.9-0.7-5.9-1.3-8.9-1.6
				s-6.1-0.3-9.1-0.5c-3.5-0.2-6.9-0.7-10.2-1.5c-1.1-0.3-1.6,0.4-1.9,1.4c-0.4,1.1-0.4,1.7,0.7,2.2c0.9,0.3,1.7,0.7,2.6,1.1
				c0.5,0.3,2.5-2.7,2.7-2.6c-1.1-0.6-2.3-1.2-3.5-1.8c-0.5,1.1-1.1,2.2-1.7,3.3c2.6,0.6,5,1.1,7.7,1.4c3.4,0.4,6.8,0.3,10.2,0.4
				c3.9,0.2,7.6,0.6,11.5,1.4c3.4,0.8,6.7,1.5,10.1,2.2C311.9,142.3,318.2,144.2,324.3,146.7L324.3,146.7z"/>
			<path class="st28" d="M320.3,141.8c-9.6-2.6-19.2-5.4-28.9-7.8c-3.9-1-7.9-1.7-11.9-2c-3.1-0.2-6.3-0.2-9.4-0.3
				c-3.9-0.1-7.5-0.7-11.3-1.6c-0.4-0.1-1.1,3.5-0.5,3.7c2,0.8,4.1,1.6,6.1,2.4c0,0,1-3.5,0.5-3.7c-2-0.8-4.1-1.6-6.1-2.4
				c-0.2,1.2-0.3,2.5-0.5,3.7c3.7,0.9,7.3,1.4,11.2,1.6c3.1,0.1,6.3,0.1,9.4,0.3c4.1,0.3,8,1.1,11.9,2c9.7,2.2,19.3,5.2,28.9,7.8
				C319.5,145.5,320.4,141.8,320.3,141.8z M322.5,137.7c0.5,0.1-0.3-1-0.2-1c-0.3-0.4-1.1-1.8-1.7-2c-7.3-1.8-14.6-4-21.9-5.5
				c-3.3-0.7-4.3-0.7-7-0.9c-1.9-0.1-3.9-0.1-5.8-0.2c-5.5-0.1-9.7-0.4-14.8-1.7c-0.5-0.2,0.3,1,0.3,0.9c0.4,0.5,1,1.8,1.7,2
				c2.2,0.7,4.3,1.5,6.5,2.3c-0.2,0-1-1.4-1.1-1.5c-0.2-0.3-0.8-1.2-1.2-1.4c-2.1-0.8-4.1-1.5-6.2-2.3c0.7,1,1.3,2,2,3
				c3.2,0.8,6.1,1.3,9.3,1.5c1.6,0.1,2.3,0.2,3.9,0.2c6.5,0.1,13,0.6,19.3,2.2C311.2,134.7,316.8,136.3,322.5,137.7L322.5,137.7z"/>
			<path class="st28" d="M328,139.1c-0.2,0,1.3,0.1,0.9,0c-10.1-3.4-20.3-7.1-30.6-9.7c-2.8-0.7-5.8-1.5-8.7-2.1
				c-3.1-0.6-6.6-0.5-9.8-0.6c-4.4-0.1-8.8-0.6-13.1-1.6c-0.6-0.2-0.4,0.8-0.3,1c0.3,0.7,1.1,1.7,1.7,2.1c0.8,0.5,1.5,1,2.3,1.5
				c0.4,0.3,2.1-0.2,2.6-0.3c0,0,1.3-0.1,0.9-0.4c-2.3-1.2-4.5-2.5-6.8-3.8c0.4,1,0.9,2.1,1.3,3.1c3.7,0.9,7.4,1.3,11.2,1.5
				c3.1,0.3,6.3,0.3,9.4,0.7c2.2,0.3,4.5,0.5,6.7,0.7c1.6,0.4,3.3,0.7,4.9,1.1c8.3,1.9,16.6,4.2,24.8,6.6
				C326.3,139.2,327.2,139.1,328,139.1z M309,145.9c-0.2-0.5-0.9-2-1.5-2.2c-8.7-2.5-17.6-5.5-26.7-6.5c-3.2-0.3-6.4-0.3-9.5-0.4
				c-3.1-0.1-6.1-0.3-9.2-0.8l-3.6-0.9c-0.6-0.1,0.1,1,0.1,1c0.3,0.6,0.9,1.9,1.5,2.2c2.1,0.8,4.2,1.7,6.3,2.5
				c-0.1-0.1-0.9-1.6-0.9-1.7c-0.2-0.4-0.6-1.3-1.1-1.5c-1.9-0.9-3.9-1.7-5.9-2.5c0.6,1.1,1.1,2.1,1.7,3.2c2.5,0.6,4.9,1.2,7.5,1.4
				c2.5,0.2,5.1,0.2,7.6,0.3c5,0.2,10,0.6,14.9,1.7c6.5,1.4,12.8,3.4,19.1,5.2C309.9,147.1,309.1,145.9,309,145.9z"/>
		</g>
		<g id="XMLID_1500_">
			<path class="st28" d="M303.4,139.9c-0.4,0-0.8,3.6-1.2,3.6C302.6,143.5,303,140,303.4,139.9z M312.2,150.5
				c-4.5-0.6-7.8-1.9-12.6-2.8c-5.9-1.1-14.3-1.7-20.3-2.3c1.2,0.1,2.4,1.2,3.6,1.3c10.9,1.9,21.9,3.6,32.9,5.2
				C314.6,151.7,313.4,150.8,312.2,150.5z M293.4,129.1l-10.2-0.9c-1.1-0.1-2.4,1.1-3.6,1l10.2,0.9
				C290.9,130.2,292.2,128.9,293.4,129.1z M326.9,138.7c-2.2-1.2-4.5-2.2-6.9-3c-5.1-1-10.3-1.9-15.4-2.6c-5-0.9-10.1-1.5-15.2-1.7
				c0.1,0,1.1,1.6,1.1,1.6c0.1,0.2,0.8,1.4,1.2,1.4c6.8,0.4,13.6,1.2,20.3,2.4c3.4,0.6,6.9,1.2,10.3,1.8c2.4,0.7,4.7,1.7,6.9,3
				C328.2,141.1,327.9,139.2,326.9,138.7z"/>
			<path class="st28" d="M329.4,147.5c-1.3-1.1-2.8-2-4.4-2.6c-1.5-0.6-3.1-1-4.8-1.3c-6.7-1.6-13.5-2.8-20.3-3.6
				c-6.8-0.8-13.6-1.2-20.4-1.2c-0.3,0-1,1.4-1.1,1.5c0,0-1,1.7-0.9,1.8c6.8,0,13.6,0.4,20.4,1.2c6.9,0.8,13.6,2,20.3,3.6
				c1.6,0.3,3.2,0.7,4.8,1.3c1.7,0.6,3.1,1.4,4.4,2.6C327.4,150.8,329.5,147.7,329.4,147.5z"/>
			<path class="st28" d="M321.4,146.6c0-0.1-0.1-1.9-0.3-1.9c-0.8-0.2-1.6-0.3-2.4-0.5c0.1,0,0.3,0.1,0.4,0.1
				c-1.5-1.4-3.2-2.4-5.1-3c-3.5-0.7-7-1.5-10.5-2.3c-10.7-2.1-21.7-2.6-32.6-3.2c-0.2,0-0.2,3.8,0.1,3.8c10.3,0.4,20.4,1,30.6,2.8
				c10.1,1.8,7.4,3.9,11.9,1.8c-0.1,0-0.3,0.1-0.4,0.1c1.9,0,3.9,0.1,5.8,0.2l-3.6-0.6c1.7,1,3.3,2,5,3c0-0.1-0.1-0.2-0.2-0.3
				c0.5,0.6,0.9,1.3,1.4,2C321.5,148.5,321.4,146.7,321.4,146.6z"/>
			<path class="st28" d="M317.2,145.6c0-0.1,0.3-1.8,0.2-1.9c-1.4-1.2-3-2.1-4.7-2.7c-1.8-0.6-3.6-1.1-5.5-1.5
				c-6.5-1.6-13.2-2.7-19.9-3.5c-6.8-0.8-13.6-1.2-20.5-1.3c-0.3,0-0.5,3.7-0.5,3.7c6.9,0.1,13.7,0.5,20.5,1.3
				c6.7,0.8,13.3,2,19.9,3.5c1.9,0.3,3.7,0.8,5.5,1.5c1.7,0.6,3.3,1.5,4.7,2.7C316.8,147.4,317.2,145.5,317.2,145.6z M324.5,141.1
				c0.2,0,1.7,0,1.9,0.1c-0.7-0.6-1.4-1.2-2.2-1.7c-1.6-0.9-3.2-1.6-4.9-2.1c-5.7-2.1-2.9-1.2-12.9-2.9c-3.7-0.6-7.7-1.3-11.6-1.7
				c-8.4-0.9-13.5-1.1-22-1.4c-0.5,0-0.4,0.1,0,0.2c0.9,0.3,2.1,0.3,3,0.3c13.6,0.2,26.8,2,39.9,5.3c2.6,0.7,4.9,1.9,6.9,3.6
				C322.9,141.1,324.1,141,324.5,141.1z"/>
			<path class="st28" d="M316.9,148.6c-1.4-1.1-3-2-4.7-2.5c-1.8-0.6-3.6-1-5.5-1.2c-6.5-1.7-13.2-2.9-19.9-3.6
				c-6.8-0.8-13.7-1.2-20.5-1.2c0.1,0,1,1.6,1,1.6c0.1,0.1,0.9,1.6,1.1,1.6c6.9,0,13.7,0.4,20.5,1.2c6.7,0.6,13.4,1.8,19.9,3.6
				c1.9,0.2,3.7,0.6,5.5,1.2c1.7,0.5,3.3,1.4,4.7,2.5C318.1,151.2,317.9,149.3,316.9,148.6z"/>
		</g>
		<g id="XMLID_1499_">
			<path class="st28" d="M365.9,118.1c-0.4-0.2-1.3-0.6-1.8-0.5c-8.4,2.4-16.8,4.6-25.3,6.6c-0.5,0.1,0.9,0.7,0.8,0.6
				c0.5,0.2,1.8,1,2.5,0.8c8.5-2,17-4.3,25.5-6.7C367.5,118.9,365.9,118.1,365.9,118.1z M374.2,102.1c-0.1,0-1.7-0.8-1.6-0.8
				c-0.3-0.2-1.4-0.8-1.8-0.7c-8.4,2.9-16.9,5.3-25.5,7.1c-0.5,0.1,0.8,0.6,0.7,0.6c0.5,0.3,1.9,1.1,2.5,1
				C357.2,107.4,365.8,105,374.2,102.1L374.2,102.1z M367.5,100c-0.6,0-1.8,0.5-2.4,0.7l-23.7,6.6c-0.5,0.1-2.2,0.3-2.5,0.8
				c-0.3,0.4,1,0,0.9,0c4.6-1,9.2-2.1,13.7-3.4c4.7-1.4,9.4-2.9,14-4.5C368,100,367.9,100,367.5,100z M377.9,106.8
				c-8.4,2.6-17,4.9-25.7,6.9c-0.4,0.1,0.4,3.7,0.5,3.7c8.6-1.9,17.2-4.2,25.7-6.9C378.7,110.4,377.8,106.7,377.9,106.8z
				 M372.5,118.8C373,118.7,373,118.7,372.5,118.8c-1,0.1-1.9,0.4-3,0.6c-8,2.1-16.1,4.1-24.1,6.2c0,0-1.9,0.4-1.8,0.6
				c0.1,0.2,1.9-0.3,1.9-0.3C355.9,123.3,362.2,121.6,372.5,118.8L372.5,118.8z"/>
			<path class="st28" d="M377.7,113l0.5-1.8c-8.5,2.5-17.1,4.8-25.7,6.8c-0.4,0.1-0.7,1.5-0.8,1.7c0-0.1-0.6,1.8-0.5,1.8
				c8.6-2,17.2-4.3,25.7-6.8C377.2,114.6,377.5,113.1,377.7,113z"/>
			<path class="st28" d="M385.6,108.4c0.1-0.1,0.8-1.5,1-1.6c-8.2,2.8-16.5,5.4-24.8,7.8c-8.6,2.2-17.2,4.3-25.8,6.4
				c-0.5,0.1-1.1,0.9-1.4,1.2c0,0-1.1,1.4-1.2,1.4c9.7-0.8,19.2-2.7,28.5-5.5c7.8-2.1,15.4-4.8,22.8-8.2
				C385,109.8,385.6,108.6,385.6,108.4z M378.5,104c-6.2,2.7-12.6,4.8-19.2,6.3c-10.5,2.8-21.1,5.3-31.8,7.5c-0.3,0,0.5,3.7,0.6,3.7
				c9.2-2.2,18.4-4.5,27.6-6.7c7.7-2.4,15.4-4.7,23.1-7.1C379.2,107.6,378.3,104,378.5,104z"/>
			<path class="st28" d="M374.5,104.6c0,0,0.1-1.9,0.2-1.9c-8.4,2.9-16.9,5.5-25.4,8c-8.5,2.6-17.2,4.5-26.1,5.7
				c-0.6,0.2-0.3,3.8-0.4,3.8c8.7-1.8,17.3-3.8,26-5.7c8.5-2.5,17-5.2,25.4-8C374.3,106.5,374.5,104.7,374.5,104.6z"/>
			<path class="st28" d="M374.3,103.3c-6.4,2.2-12.8,4-19.3,5.5c-6.3,1.6-12.7,3-19.2,4l1.1,1.5c0,0.1,1,1.5,1.2,1.5
				c6.5-1,12.9-2.3,19.2-4c6.5-1.5,13-3.3,19.3-5.5C376.5,106.3,374.9,103.1,374.3,103.3z"/>
			<path class="st28" d="M381.7,100.1c-0.5,0-1.4-0.2-1.9-0.1c-7.9,1.9-15.7,3.9-23.6,5.9c-9.3,1.8-18.3,4.4-27.1,7.9
				c-0.9,0.4,0.4,0.2,0.7,0.2c9.9-1,19.6-2.9,29.1-5.6c8.4-2.1,16.6-4.8,24.7-8.1C383.3,100.4,382.1,100.1,381.7,100.1z
				 M361.4,112.3c-6.3,2-12.5,3.7-18.9,5.2c-6.5,1.6-12.9,3.1-19.5,4.2c0.2,0,1.4,3.3,2,3.2c6.6-1.1,13.1-2.5,19.5-4.2
				c6.4-1.5,12.7-3.2,18.9-5.2C363.5,115.5,362,112.2,361.4,112.3z"/>
		</g>
		<g id="XMLID_1498_">
			<path class="st28" d="M184.8,143.9c0.2,2.5,0.4,5.1,0.6,7.6c0,3-0.1,6.1-0.1,9.1c-0.2,1.7-0.7,3.3-1.4,4.8c-1.9,4.7-5,9-6.3,13.9
				c-0.6,2.5-0.7,5.1-0.4,7.7c0.4,3.5,1.6,6.1,3.4,9c0.4,0.5,0.3-1.2,0.3-1c-0.1-0.8-0.1-1.9-0.5-2.6c-0.8-2.1-1.7-4.3-2.6-6.4
				l0.3,2.4c-0.3-3,0.2-6,1.5-8.8c0.7-1.6,1.4-3.1,2.2-4.6c1.5-3,3.1-6,3.9-9.3c0.6-2.8,1-5.7,0.8-8.6c-0.2-3.2-0.8-6.4-1.1-9.5
				C185.3,146.4,185,145.1,184.8,143.9z"/>
			<path class="st28" d="M176.7,159.7c0.3,4.3,1.1,8.8,0.4,13.1c-0.8,5.1-3.7,9.4-5.8,13.9c-1.2,2.6-2.2,5.2-2.4,8.1
				c-0.2,3.8,1.1,6.9,3,10c0.4,0.6,3.7-0.8,3.7-0.9c-1.9-3.1-3.2-6.2-3-10c0.3-5,3.1-9.4,5.3-13.8c1.3-2.6,2.4-5.2,2.9-8.1
				c0.8-4.3,0-8.8-0.4-13.1C180.4,159,176.7,159.5,176.7,159.7z"/>
			<path class="st28" d="M171.6,154.1c0,2.9,0.1,5.8,0.3,8.7c0.2,2.6,0.5,5.3,0.1,8c-0.7,4.5-3.2,8.5-5.2,12.5
				c-1.8,3.8-3.4,7.9-2.9,12.2c0.5,3.7,2.3,6.6,4.6,9.4c0.3,0.4,1.4,0.6,1.8,0.7c0.2,0.1,1.7,0.4,1.8,0.6c-2.8-3.7-5-7.1-4.7-12.1
				c0.2-4.6,2.6-8.6,4.6-12.5c2.1-4,3.9-8,3.9-12.6c-0.2-2.2-0.3-4.4-0.5-6.6c-0.2-2.3-0.3-4.7-0.1-7
				C175.4,155,171.8,154.5,171.6,154.1z"/>
			<path class="st28" d="M181.3,146c-0.3,0.5-1,1.3-1.1,2c-0.3,1.5-0.4,3.1-0.1,4.6c0.2,1.1,0.2,2.1,0.2,3.1c0,2.7,0.3,5.3,0,8
				c-0.6,5.4-3.2,10.2-4.9,15.3c-1.2,3.4-1.8,7.2-1.2,10.7c0.1,0.9,0.3,1.7,0.7,2.5c0.5,1.1,0.8,2.3,1,3.5c0.6,2,1.4,4,2.1,5.9
				c0.2,0.4,0.3-0.4,0.3-0.3c0.5-2.6,1.3-5.6,1.2-8.3c0-2.2-0.7-4.2-0.5-6.4c0.3-2.6,0.2-5.3,1-7.9c0.6-1.9,1.2-3.7,1.8-5.6
				c0.8-2.5,1.5-4.9,1.7-7.4c0.1-2-0.1-4-0.4-6c-0.4-2.3-1.8-6.3-1.8-8.6c0-2.1,0.5-4.1,1-6.2C182.3,144.7,181.5,145.8,181.3,146z"
				/>
			<path class="st28" d="M179.9,139c0,0-1.7-0.6-1.7-0.7c0.2,5.5,1.5,11.1,0.5,16.5c-0.8,4.5-3.2,8.4-5.2,12.4
				c-1.9,3.8-3.5,8-3,12.3c0.2,1.7,0.8,3.6,1.6,5.1c0.9,1.5,1.9,2.6,3.2,3.8c0.3,0.3,1.3,0.5,1.7,0.7c0.3,0.1,1.4,0.4,1.7,0.7
				c-1.4-1.2-2.5-2.6-3.3-4.2c-1.2-2.3-1.7-4.8-1.6-7.5c0.2-4.6,2.6-8.6,4.6-12.6c2.1-4.1,3.7-8.1,3.9-12.8c0.2-4.3-0.7-8.7-0.8-13
				C181.5,139.6,179.8,138.9,179.9,139z"/>
			<path class="st28" d="M174.1,142.2c-0.9,1.8-1.4,3.8-1.5,5.9c-0.3,1.5-0.5,3-0.5,4.6c0.5,3.2-0.7,5.3-3.8,6.5
				c-0.5,0.3-0.9,0.6-1.3,0.9c-2,1.4-3.2,2-4.4,4.2c-1.5,2.7-2,5.5-1.7,8.5c0.6,7,3.1,13.9,6.3,20.1c0.6,1.2,1.2,1.4,2.4,0.9
				c1.1-0.5,1.5-1.2,1-2.4c-1.9-4.9-3.7-9.7-5.6-14.6l1.5,5.4c-0.1-0.9-0.3-1.7-0.4-2.6c0,0.7,0.1,1.4,0.2,2.1
				c-0.2-1.9,0-3.8,0.4-5.7c-0.1,0.4-0.2,0.7-0.3,1.1c0.6-2.1,1.4-4,2.4-5.8c0.5-0.8,1.1-1.7,1.6-2.5c1.2-1.8,2.4-3.7,3.4-5.7
				c1.3-2.7,1.7-5.5,1.8-8.5c-0.1-1.4-0.2-2.9-0.2-4.3c0.1-1.6-0.2-3.1-1-4.5C174.8,145.5,174,142.4,174.1,142.2z"/>
			<path class="st28" d="M172.2,138.8c-0.2,4.9,0.8,9.8,0.5,14.7c-0.2,3.2-1.6,6.5-3,9.4c-1,2-2,4-3,6.1c-1.6,3.4-2.7,7-2.3,10.8
				c0.2,1.7,0.7,3.5,1.5,5c0.8,1.6,1.9,2.8,3.1,4c0.1,0.1,1.8-0.5,1.8-0.5s1.7-0.6,1.8-0.5c-1.6-1.6-2.8-3.1-3.6-5.2
				c-0.7-1.7-1-3.3-1.1-5.1c-0.2-1.6,0-3.1,0.7-4.5c0.2-1.7,0.7-3.2,1.5-4.7c0.9-2,2-4.1,3-6.1c1.9-3.8,3.2-7.3,3.2-11.5
				c0-4.4-0.8-8.6-0.6-13C175.6,138,172,138.3,172.2,138.8z"/>
			<path class="st28" d="M170.4,141.3c0-0.4,0-0.5-0.3,0.3c-0.8,4.2-1.2,8.2-1.4,12.5c-0.1,2.7-0.2,5.2-0.9,7.9
				c-0.7,2.5-1.7,4.8-2.9,7.2c-2,4-4.9,8.2-5.6,12.8c-0.4,2.8,0.1,6.3,1.1,9c1.4,3.6,2.9,4.8,5.5,7.7c0.3,0.4,0.3-0.5,0.3-0.6
				c0-0.9,0-1.9-0.2-2.7c-0.3-2.1-1-4.1-2.1-5.9c-0.6-1.7-0.9-3.4-0.9-5.1c-0.1-6,2.9-10.7,5.3-15.8c1.2-2.7,2.4-5.4,2.7-8.3
				c0.2-2.1,0.1-4.2-0.5-6.2c-0.4-3.3-0.5-6.5-0.5-9.8C170.1,143.3,170.3,142.3,170.4,141.3z M184.1,140.5c0-0.2-1.1-1.3-1.1-1.6
				c-0.1-0.1-1.2-1.3-1.2-1.5c-0.4,3-0.5,3.5-0.3,6.5c0.3,3.4,1.1,6.6,0.8,10c-0.4,4.9-2.4,9.4-4.7,13.8c-0.8,1.5-1.7,3-2.3,4.6
				c-1.8,4.4-2.5,9.2-0.6,13.7c0.4,0.9,0.8,1.7,1.3,2.6c2,3.3,1.8,3.1,4.3,5.8c0.3,0.3-0.3-1.1-0.2-0.9c-0.3-0.6-0.6-1.9-1.1-2.4
				c-0.8-0.9-1.6-1.9-2.4-2.8c0.3,0.5,0.5,1.1,0.8,1.6c-0.4-4.3-0.8-8.7,0.2-13c0.8-3.7,3.1-7.1,4.6-10.6c1.4-3.1,2.3-6.2,2.5-9.7
				c0.1-2.3,0-4.5-0.5-6.7C183.5,146.8,183.5,143.6,184.1,140.5L184.1,140.5z"/>
			<path class="st28" d="M175.4,138.1c-0.5,2-0.7,4-0.5,6.1c0.1,0.9,0.2,1.7,0.3,2.6c0.1,0.8,0.2,1.7,0.3,2.5c0.3,1.7,0.2,3.3-0.2,5
				c0,1.2-0.3,2.3-0.9,3.4c-0.5,1.2-1.1,2.4-1.7,3.5c-0.8,1.6-1.6,3.2-2.3,4.8c-0.8,2-1.3,4.2-1.6,6.3c-0.3,2.1-0.6,4.2-0.4,6.3
				c0.2,2.3,1.1,4.5,1.7,6.7c0.5,1.9,0.9,3.2,1.7,5.1c0.4,0.9,4,0.7,3.8,0.1c-0.9-2.7-1.5-5.4-1.8-8.2c-0.5-3-0.9-5.9-1.3-8.9
				c0.1,0.5,0.1,0.9,0.1,1.3c0.1-1.8,0.3-3.6,0.6-5.3c-0.2,1-0.5,2.1-0.7,3.1c1.1-3.5,2.7-6.6,4.2-9.8c1.1-2.4,2.1-4.7,2.5-7.4
				c0.5-2.9,0.2-5.5-0.1-8.4l-0.3-2.4c-0.2-2.1,0-4.1,0.5-6.1C179.3,138.4,175.6,137.8,175.4,138.1z"/>
			<path class="st28" d="M170.9,147.4c0-0.1-1-1.4-1-1.6c-0.5,2.2-0.8,4.5-0.7,6.8c0.1,1.2,0.1,2.3,0.1,3.5c-0.2,1.7,0,3.4,0.4,5
				c0.5,2.3,0.7,4.5,0.6,6.8v-2.4l-1.2,5.7c0.3-0.9,0.6-1.9,0.9-2.8c-1.9,3.8-3.7,7.6-5.6,11.4c-1.2,2.5-2,4.9-3,7.3
				c-1.1,2.4-0.5,5.1,0.1,7.5c0.9,3.8,3.4,6,6.2,8.4c-0.1-0.1,0.6,0.5,0.4,0.1c-1.7-3.6-3.8-7.1-4.1-11.1c-0.2-1.7,0-3.3,0.2-5
				c-0.1-2.7,0.5-5.3,1.8-7.6c0.5-1.1,1-2.1,1.5-3.1c1.2-2.3,2.2-4.6,2.9-7.1c-0.3,0.7-0.5,1.5-0.8,2.2c0.6-0.9,1-1.9,1.3-2.9
				c0.6-2,0.8-4,0.7-6.1c-0.1-2.2-0.2-4.5-0.3-6.8c-0.1-2.2,0.1-4.4,0.7-6.5C172,148.8,171.1,147.6,170.9,147.4z M184.5,149.8
				c-0.1,0.4-0.6,1.3-0.6,1.8c0.2,2.8,0.5,5.5,0.8,8.3c0.4,3.9-0.2,7.5-1.1,11.2c0.2-0.7,0.5-1.5,0.7-2.2
				c-2.4,5.9-6.2,11.3-7.7,17.6c-0.7,2.9-0.8,5.9,0.1,8.8c0.9,2.9,2.5,4.8,4.5,6.9c-0.1-0.1,0.6-1.8,0.6-1.8s0.7-1.7,0.6-1.8
				c-1.8-1.5-3.1-3.3-3.8-5.4c-0.6-1.2-0.8-2.4-0.8-3.7c-0.7-3.1-0.1-6.2,1.8-9.1c0.5-1,1.1-2,1.6-3c1.3-2.5,2.4-5,3.3-7.6
				c0.9-2.6,1.4-5.4,1.6-8.1c0.4-4.5-0.7-9.2-1-13.7C185.2,148.4,184.6,149.4,184.5,149.8z"/>
		</g>
		<g id="XMLID_1497_">
			<path class="st28" d="M268.2,243.4c0.1,0,1.7-0.6,1.8-0.5c-5-3.3-9.9-6.6-14.9-10c-5-3.6-10.3-6.8-15.8-9.7
				c-0.5-0.3-2.1,0.3-2.6,0.5c0,0-1.3,0.3-0.8,0.6c5.5,2.8,10.7,6,15.7,9.5c4.9,3.3,9.9,6.6,14.8,9.9
				C266.6,243.8,268.1,243.3,268.2,243.4z"/>
			<path class="st28" d="M264.3,242.7c-0.2-0.1,1.2,0.4,0.9,0.2c-6.9-4.5-13.8-9.1-20.5-13.8c-6.8-4.4-14-8.1-21.4-11.2
				c-0.8-0.3-1.7-0.6-2.5-0.9c0.2,0.1-1.3-0.4-0.9-0.2c7.5,3.6,14.7,7.5,21.8,11.8c6.5,4.7,13.2,9.1,20.1,13.2
				C262.5,242.3,263.5,242.5,264.3,242.7z M272,236.1c-5.8-4.5-11.8-8.7-18.1-12.6c-7.9-4.7-15.9-9.2-24.1-13.3
				c-0.3-0.1-2.1,3.2-2,3.2c8.2,4.1,16.2,8.6,24,13.3c6.2,3.9,12.3,8.1,18.1,12.6C270.2,239.5,272.3,236.4,272,236.1z M271.2,227.8
				c-3.1-2.9-6.4-5.6-9.8-8.3c-3.5-2.1-6.9-4.3-10.4-6.4c-9.6-5.8-11.4-6.6-21.2-11.6c-0.7-0.4-1.6-0.8-2.4-1.1
				c0.1,0.1-1.2-0.5-0.9-0.3c5.5,2.9,10.9,5.9,16.3,9.1c8.8,4.9,17.1,10.7,24.9,17.2C268.6,227.2,270.3,227.1,271.2,227.8z"/>
			<path class="st28" d="M263.4,236c-0.1-0.4,0-2.3-0.5-2.6c-6.3-4.1-13-7.7-19.9-10.8c-7-3.1-13.6-6.8-20-11.1
				c-0.6-0.5-1.9-1.3-2.7-1.2c-0.6,0-0.8,0.6-0.5,1.1c2.3,3.6,4.2,11.9,9.4,13.9c8.2,1.5,16.3,3.1,24.4,4.8c3.1,2.3,6.3,4.5,9.4,6.8
				C263.5,237.3,263.4,236.1,263.4,236z M263.6,226.5c0,0,1.7-0.7,1.8-0.6c-11.4-9.2-6.6-5.9-15.3-11.4c-5.1-3.3-10.4-6.5-15.7-9.4
				c-3.6-1.8-7.2-3.7-10.8-5.6c-0.2-0.1-1.6,0.4-1.8,0.5c-0.1,0.1-1.7,0.7-1.8,0.6c5.6,2.7,11,5.7,16.4,8.9
				c9.1,5,17.5,10.8,25.5,17.4C262.1,227.1,263.6,226.5,263.6,226.5z"/>
			<path class="st28" d="M274.7,233.6c0-0.2-0.1-1.7-0.3-1.9c-2.8-2.7-5.8-5.1-9.1-7.3c-3.5-2.2-6.9-4.4-10.4-6.6
				c-7-4.2-14.1-8-21.4-11.8c0.1,0.1,0.2,1.9,0.2,1.9c0,0.1,0.1,1.8,0.3,1.9c14.5,7.1,28.1,15.7,40.9,25.7
				C274.7,235.4,274.7,233.8,274.7,233.6z M258.9,235.7c0.2,0.2,0.5-1.9,0.4-1.9c0-0.2,0.4-1.7,0-1.9c-6.7-4.7-13.7-9.1-20.8-13.3
				c-7-4.1-14-8.2-21-12.4c0,0-1.4,3.4-0.8,3.7c7.8,3.7,15.5,7.8,22.9,12.2C246.3,226.2,252.8,230.8,258.9,235.7L258.9,235.7z"/>
			<path class="st28" d="M272.7,230.9c-0.5-0.7-1-1.6-1.7-2.1c-10.3-8.7-6-5.7-14.5-11c-5.1-3.2-10.4-6.4-15.7-9.4
				c-3.6-1.9-7.3-3.7-10.9-5.6c-0.4-0.2,0.5,1,0.4,0.8c0.4,0.6,1,1.7,1.7,2.1c5.4,2.8,10.8,5.7,16,8.8c8.9,4.9,17.3,10.7,25.2,17.2
				C273.5,231.9,272.6,230.7,272.7,230.9z"/>
			<path class="st28" d="M267.6,229.3c-0.2,0,1.5,0,0.9-0.4c-7.2-5.3-17-13.4-25.1-19.6c-1.5-1.9-3.3-3.2-5.4-3.9
				c-3.8-0.8-7.7-1.6-11.6-2.4c-0.7-0.2-1.9,0.3-2.6,0.5c0.1-0.1-1.3,0.3-0.8,0.5c15.9,5,29.9,13.3,41.9,24.8
				C265.4,229.3,266.9,229.2,267.6,229.3z M260.8,239.3c-0.4-0.6-0.9-1.8-1.5-2.2c-4.5-3.3-9.1-6.4-13.9-9.2
				c-9.3-5.6-18.7-11.1-28.1-16.4c-0.4-0.3,0.3,1,0.2,0.9c0.2,0.5,0.7,2.1,1.2,2.4c7,2.9,13.6,6.4,20,10.4c7.4,5,14.9,10,22.4,14.9
				C261.6,240.4,260.7,239,260.8,239.3z"/>
			<path class="st28" d="M274.5,235.7c-6.1-5.2-12.7-9.7-19.6-13.8c-6.9-4.2-14-8.1-21.3-11.6c0.1,0.1-1.4,3.5-1.2,3.6
				c7.3,3.5,14.4,7.4,21.3,11.6c6.9,4.1,13.4,8.7,19.6,13.8C273.1,239.1,274.9,236,274.5,235.7z"/>
		</g>
		<g id="XMLID_1496_">
			<path class="st28" d="M187.9,119c-0.1,0,0.1,3.7,0.5,3.7C188.4,122.7,188.2,119,187.9,119z M181.9,131.3c-0.2,0,1.3-0.4,0.9-0.4
				c-0.8,0-1.8,0.4-2.6,0.6c0.2,0-1.3,0.4-0.9,0.4C180.2,131.9,181.1,131.5,181.9,131.3z"/>
			<path class="st28" d="M184.7,130.7c-6.9-1-13.9-2.1-20.8-3.1c-0.4,0,1,0.5,0.8,0.4c0.8,0.3,1.7,0.7,2.5,0.9
				c13.3,3.1,7,2.1,21,3.2C187,132,185.9,130.9,184.7,130.7z M194.9,125.1c-7-1.2-13.9-2.4-20.9-3.7c-0.3-0.1-1.1,1.2-1.2,1.4
				c0.1-0.1-1.1,1.6-0.9,1.6c6.9,1.6,13.9,3,21,3.9C193.7,128.5,194.8,125.1,194.9,125.1z M190.7,115.4c-6.7-1.9-13.5-3.4-20.4-4.4
				c1.2,0.2,2.3,1.3,3.5,1.5c6.9,1.1,13.7,2.6,20.4,4.4C193,116.6,191.9,115.7,190.7,115.4z"/>
			<path class="st28" d="M186.1,122.2c-3.8,0-7.5-0.1-11.3-0.1c1.1,0.3,2.1,0.5,3.2,0.8c-3.4-1.3-6.8-2.6-10.3-4
				c-0.3-0.1-1.1,1.4-1.2,1.5c0.1,0-1.1,1.7-0.9,1.7c4.2,0.3,8.4,0.7,12.6,1c-1.1-0.3-2.1-0.5-3.2-0.8c3.8,1.3,7.6,2.5,11.4,3.7
				C186.5,126,186.7,122.2,186.1,122.2z M186.7,115.4c0.3,0,1.4-0.6,1.8-0.5c-6.9-1.9-13.8-3.4-20.9-4.5c-0.4-0.1-1.4,0.4-1.8,0.5
				c-0.3,0.1-1.4,0.6-1.8,0.5c7,1.2,14,2.6,20.9,4.5C185.3,116,186.4,115.5,186.7,115.4z"/>
			<path class="st28" d="M182.7,121.1c-7.1-1-14.2-2.2-21.2-3.8c-0.2-0.1-0.9,3.6-0.5,3.7c7,1.5,14.1,2.8,21.2,3.8
				C182.4,124.8,182.9,121.1,182.7,121.1z M195.2,119.2c-0.1-0.3-0.8-1.4-1.2-1.5c-6.8-1.5-13.5-2.9-20.3-4.1
				c0.1,0.1,1.1,1.6,1.1,1.6c0.2,0.2,0.8,1.3,1.2,1.4c6.8,1.2,13.6,2.6,20.3,4.1C196.2,120.7,195.3,119.2,195.2,119.2z"/>
			<path class="st28" d="M191.3,117.8c-6.9-1.8-13.9-3.1-21-3.8c-0.8-0.1-1.9,0-2.7,0.2c-0.1,0-1,0.3-0.6,0.4
				c7.6,2.5,15.5,3.7,23.5,3.6C190.8,118.2,192.2,118,191.3,117.8z M183.4,127.5c-0.1-0.1-0.8-1.5-1.1-1.5
				c-7.1-0.6-14.2-1.8-21.1-3.5l0.9,1.7c0.1,0.3,0.7,1.4,1.1,1.5c6.9,1.8,14,2.9,21.1,3.5L183.4,127.5z"/>
			<path class="st28" d="M197.6,124.8c-6.7-0.8-13.4-2-20.1-3.6c-0.1,0-1.1,3.6-1.2,3.6c6.7,1.5,13.3,2.7,20.1,3.5
				C196.6,128.4,197.4,124.7,197.6,124.8z"/>
		</g>
		<g id="XMLID_1495_">
			<path class="st28" d="M156.8,123.7c-0.5-0.2-1.3-0.6-1.8-0.6C155.5,123.1,156.4,123.7,156.8,123.7c0.5,0.3,1.3,0.7,1.8,0.7
				C158.1,124.4,157.2,123.8,156.8,123.7z M157.1,104c-0.1,0.2-1,1.4-0.9,1.7c2.4,4.6,4.9,9.3,7.3,14c0.1,0.2,1.2-1.6,1.2-1.5
				c0.1-0.2,1-1.3,0.8-1.7c-2.4-4.6-4.9-9.3-7.3-14C158.2,102.5,157.1,104.1,157.1,104z M149.8,100.8c0,0.8,0,1.8,0.3,2.6
				c1.8,4.3,3.5,8.5,5.3,12.7c0.2,0.5,1.5-1.2,1.5-1.2c0.3-0.3,1.2-1.2,0.9-1.7c-2.6-4.4-5.3-8.9-7.9-13.3
				C149.7,99.5,149.9,101,149.8,100.8z M146,100.6c-0.1,0.4-0.4,1.5-0.2,1.9c2.1,4.5,4.2,9.1,6.3,13.6c0.2,0.5,0.4-1.1,0.4-0.9
				c0.2-0.7,0.6-2.1,0.3-2.7c-2.2-4.7-4.3-9.3-6.5-13.9C146.4,98.8,146,100.3,146,100.6z M157.7,95.3c2.5,4.5,5.1,9,7.6,13.5
				c0.5,0.7,1.1,1.4,1.6,2.1c-0.1-0.2,0.9,1,0.7,0.6c-2.5-4.4-5.1-8.8-7.6-13.2C159.4,97.2,158.3,96.4,157.7,95.3z"/>
			<path class="st28" d="M153.3,95.9l-1.9-0.1c2.3,4.4,4.7,8.9,7,13.4c0.3,0.4,1.6,0.4,1.9,0.4c-0.1,0,2,0.1,1.9-0.1
				c-2.3-4.4-4.7-8.9-7-13.4C155.1,95.8,153.5,95.8,153.3,95.9z M146.4,104.4c0.2,0.2-0.7-1-0.5-0.7c2.2,4.8,4.3,9.7,6.5,14.5
				c0.4,0.8,1,1.9,1.7,2.5c0.3,0.3,0.4,0.4,0.2-0.1c-2.2-4.6-4.3-9.3-6.4-13.9C147.5,105.9,146.9,105.1,146.4,104.4z"/>
		</g>
		<g id="XMLID_1494_">
			<path class="st28" d="M243.1,118.1c-0.3-0.1-1.5-0.7-1.8-0.6c-6,2.2-12.1,3.5-18.5,4.1c-6.3,0.9-12.6,1.5-18.9,2
				c-0.4,0.1,1,0.6,0.8,0.5c0.7,0.2,1.8,0.9,2.5,0.8c6.4-0.3,12.6-0.9,18.9-1.8c6.5-0.5,12.7-2,18.8-4.3
				C244.6,118.9,243.3,118.2,243.1,118.1z"/>
			<path class="st28" d="M251.2,112.9c0,0,0.7-1,0.2-0.9c-5.7,1-11.4,2.2-17.1,3.6c-6.6,1.3-13.4,1.9-20.2,1.9c-0.5,0-1,1-1.3,1.3
				c0-0.1-1.2,1.6-1,1.6c7.8,1.1,15.6,0.7,23.2-1.1c5-1.2,9.9-2.6,14.7-4.2C250.3,114.9,250.9,113.3,251.2,112.9z M249,102.8
				c-0.2-0.1-1.3-0.8-1.7-0.7c-6.1,0.8-12.2,1.9-18.2,3.2c-6.3,0.9-12.6,1.4-18.9,1.6c0.3,0,1.5,0.7,1.7,0.8
				c0.5,0.2,1.3,0.7,1.8,0.7c6.2,0,12.4-0.4,18.6-1.4c6.2-1.3,12.3-2.5,18.5-3.4C250.5,103.7,249.3,103,249,102.8z"/>
			<path class="st28" d="M242.7,109c-5.5,1.8-11.2,2.7-17,2.7c-6.1,0.5-12.1,1-18.2,1.6c-1.7,0.2,0.4,3.5,1.4,3.4
				c6-0.5,12-1.1,18-1.8c5.5,0.2,10.9-0.5,16.2-2.1C243.6,112.7,242.9,108.9,242.7,109z M245.2,101.6c-6.4,0.6-12.8,1.7-19.1,3.2
				c-6.1,0.9-12.3,1.4-18.5,1.6c-0.9,0.1-1.8,0.5-2.6,0.7c0.3,0-1.2,0.4-0.8,0.4c6.4,0.1,12.8-0.4,19.2-1.4c6-1.4,12.1-2.5,18.2-3.4
				C242.8,102.5,244,101.8,245.2,101.6z"/>
			<path class="st28" d="M245.6,109.7c-4.7,1-9.4,1.7-14.2,2.2c-4.6,0.6-9.2,1-13.9,1.1c0,0,0.3,3.7,0.5,3.7
				c4.6-0.1,9.3-0.5,13.9-1.1c4.7-0.5,9.5-1.2,14.2-2.2C246.5,113.3,245.9,109.6,245.6,109.7z M240.4,121.7c0.2-0.2,0.5-0.4-0.1-0.4
				c-9.3,1.4-18.5,2.5-27.8,3.4c-1.2,0.1-2.4,0.8-3.6,0.9c4.9-0.1,9.7-0.5,14.5-1.2c4.7-0.6,9.4-1.2,14.1-2
				C238.3,122.3,239.7,122.2,240.4,121.7z"/>
			<path class="st28" d="M239.2,107.8c-5.7,1.5-11.5,2.8-17.3,3.9c-6.9,0.9-13.8,1.5-20.8,1.6c-0.7,0.1-0.5,3.8-0.2,3.8
				c6.2-1.1,12.5-2,18.7-2.7c6.5-0.5,12.9-1.5,19.2-2.9C239.4,111.4,239.1,107.8,239.2,107.8z"/>
			<path class="st28" d="M251.9,105.9c0-0.1-1-1.5-1.2-1.5c-5.7,1.3-11.5,2.3-17.4,3c-6.5,1.1-13.1,1.9-19.8,2.3
				c-0.1,0,1.2,1.5,1.2,1.5c0.2,0.3,1,1.3,1.4,1.3c10.2-0.3,7,0.1,14.3-0.9c7.6-1,15.1-2.6,22.6-4.1L251.9,105.9z"/>
			<path class="st28" d="M247.6,104.6c-0.8-0.2-1.9-0.3-2.7-0.2c-5.1,0.8-10.2,0.9-15.4,0.3c-8-1.6-15.3,0.1-22.2,5.1
				c-0.5,0.2,0.4,0.5,0.5,0.5c0.7,0.3,1.8,0.5,2.6,0.4c5.1-1.1,10.2-1.7,15.4-1.9c3-0.1,5.9-0.3,8.8-0.7c1.6-0.1,3.1-0.3,4.7-0.5
				c2.9-0.9,5.9-1.8,8.8-2.7C248.6,104.7,247.6,104.5,247.6,104.6z M238.9,112.7c-4.6,1.4-9.3,2.7-14.1,3.8
				c-7.7,2.2-15.6,2.8-23.7,1.8c-0.3,0,0.6,1.9,0.6,1.8c0.1,0.2,0.7,1.7,1.1,1.6c6.9-0.9,13.8-1.8,20.7-2.8c5.9-0.5,11.7-1.5,17.4-3
				C240.7,116,239.4,112.6,238.9,112.7z"/>
			<path class="st28" d="M253.6,113.3c0-0.1,0.5-1.8,0.6-1.8c-5.8,2-11.8,3.3-18,3.9c-6.2,0.9-12.4,1.5-18.6,1.8
				c-0.2,0.1-0.7,1.7-0.7,1.8c0.1,0-0.5,1.8-0.5,1.8c6.2-0.3,12.4-0.9,18.6-1.8c6.1-0.6,12.1-1.9,18-3.9
				C253.2,115,253.6,113.4,253.6,113.3z"/>
		</g>
		<g id="XMLID_1493_">
			<path class="st28" d="M281.8,54.3c0,0-1.7-0.7-1.8-0.6c-1.9,1.8-3.7,3.3-5.9,4.7c-3,2-6.3,3.6-9.9,4.6c-3,1.2-6.1,2.4-9.1,3.6
				c0-0.1,1.6,0.7,1.7,0.7c0.3,0.1,1.4,0.7,1.8,0.5c4.5-1.7,9-3.5,13.4-5.5c2-0.6,3.9-1.5,5.6-2.7c2.1-1.4,4-2.9,5.9-4.7
				C283.4,55,281.8,54.3,281.8,54.3z M272.2,47c-0.1-0.1-1.4-0.8-1.7-0.7c-3,1.2-6,2.3-9,3.5c0.1,0,1.6,0.8,1.7,0.8
				c0.2,0.1,1.5,0.8,1.8,0.7c3-1.2,6-2.3,9-3.5C273.9,47.9,272.4,47.1,272.2,47z M273,42.4c-5.9,2.6-11.8,5.3-17.7,7.9
				c-0.4,0.1,1.1-0.3,0.9-0.2c0.9-0.3,1.8-0.5,2.6-0.8c12-4.7,6.3-2.1,17.8-8.1C275.6,41.8,274.1,41.7,273,42.4z"/>
			<path class="st28" d="M277.7,52.3c-3,1.1-6,2.3-9,3.5c-0.3,0.1,0.7,3.6,0.5,3.7c3-1.1,6-2.3,9-3.5
				C278.5,55.9,277.4,52.4,277.7,52.3z M263.9,67.6c-1.3,0-2.5,0.9-3.7,0.9C261.4,68.5,262.6,67.6,263.9,67.6z M286.5,54.3
				c0-0.1,0.4-1.7,0.6-1.8c-5.9,2.7-12,5.3-18.1,7.6c-0.3,0.1-0.6,1.6-0.7,1.8c0,0-0.5,1.8-0.6,1.8c6.1-2.3,12.1-4.9,18.1-7.6
				C286,56,286.3,54.4,286.5,54.3z"/>
			<path class="st28" d="M291.9,45.2c-0.1,0.2,0.6-1.1,0.4-0.8c-2.2,3.1-4.7,5.6-7.9,7.6c-3.2,2-6.6,3.6-10.2,4.7
				c-5.9,2.5-11.9,4.7-18.1,6.5c-0.4,0.1-0.9,1.1-1.1,1.5l-0.9,1.7c4.8-1.3,9.4-2.9,13.9-4.8c3-1.2,6-2.4,9-3.8
				c3.1-1.4,5.3-2.3,7.8-4.3c2.2-1.7,4-3.8,5.6-6.1C291,46.7,291.4,45.9,291.9,45.2z M284.2,43c-0.1-0.4,0-0.9-0.2-1.3v-0.1
				c-0.6,1.7-1.3,3.3-2,4.9l2.6-2.6c-3.1,1.8-6.1,3.9-9.4,5.4c-3.3,1.4-6.6,3-9.8,4.6c-5.5,2-10.8,4.2-16.1,6.7
				c-0.4,0.2-0.9,1.1-1.2,1.4c-0.1,0.2-0.9,1.4-1.2,1.5c7.5-1.5,14.7-3.9,21.5-7.2l10.2-5.4c2.3-1.3,5.4-2.8,5.9-5.6
				C284.6,44.6,284.4,43.7,284.2,43z"/>
			<path class="st28" d="M280.4,40.4c-0.5,1.3-1.3,2.5-2.2,3.5c-1.6,1.3-3.3,2.3-5.1,3.2c-3.8,1.7-7.5,3.6-11.2,5.5
				c-6,2.6-12.1,4.7-18.4,6.5c-0.3,0.1-0.4,1.6-0.4,1.8c0,0-0.2,1.9-0.1,1.9c6.2-1.8,12.4-4,18.4-6.5c3.7-2,7.4-3.8,11.2-5.5
				c1.8-0.8,3.5-1.9,5.1-3.2c0.9-1.1,1.7-2.2,2.2-3.5C280.4,43.1,279.8,41.4,280.4,40.4z"/>
			<path class="st28" d="M290.7,38.9c-1.9,2.2-3.9,3.8-6.5,5.1c-3.3,1.8-6.8,3.4-10.2,5c-5.9,2.5-12,4.6-18.2,6.4
				c0.3-0.1,1.8,3.2,2.3,3c6.2-1.7,12.3-3.9,18.2-6.4c3.4-1.6,6.8-3.3,10.2-5c2.7-1.3,4.6-2.9,6.5-5.1
				C293.2,41.6,290.6,39.1,290.7,38.9z"/>
			<path class="st28" d="M287.3,37.6c-0.1,0-1.8-0.3-1.9-0.1c-0.6,1.4-1.5,2.7-2.5,3.8c-1.7,1.4-3.5,2.4-5.5,3.2
				c-3.4,1.4-6.8,3.1-10,5c-6.3,1.7-12.4,3.9-18.4,6.6c-0.5,0.2,1.2,0.2,0.9,0.2c0.9,0,1.9,0.1,2.7-0.1c6.5-0.9,12.7-2.9,18.4-6.2
				c3.7-2,7.5-3.9,11.3-5.5c1.6-0.7,3.1-1.6,4.5-2.8c1-1.2,1.8-2.4,2.5-3.8C289.3,37.9,287.4,37.6,287.3,37.6z M279,47.1
				c-2.1,2.6-4.7,4.4-7.6,6c-8.9,4.9-18.5,8.2-28.2,11.3c0.1,0,1.5,3.4,2,3.2c9.6-3.1,19.2-6.4,28.2-11.3c2.9-1.6,5.5-3.4,7.6-6
				C281.3,49.9,278.8,47.4,279,47.1z"/>
		</g>
		<g id="XMLID_1492_">
			<path class="st28" d="M53.6,4.4c-0.3-0.1-1.4-0.4-1.7-0.7C62.7,14.5,73.6,25.3,84.5,36c0.5,0.5,1.7,0.8,2.4,1.1
				c-0.2-0.1,1.3,0.5,0.9,0.2C76.9,26.6,66.1,15.9,55.3,5.2C54.9,4.8,54,4.6,53.6,4.4z M49.1,3.1C49,3,47.3,3.6,47.2,3.6l-1.8,0.6
				C56.3,15,67.2,25.7,78.1,36.4c0.3,0.2,1.7-0.3,1.9-0.4c0,0,1.9-0.6,1.8-0.7C70.9,24.6,60,13.9,49.1,3.1L49.1,3.1z"/>
			<path class="st28" d="M59.2,11.7c0.1,0.3,0.1,1.7,0.3,1.9C70.3,24.4,81.2,35,92,45.7l-0.1-1.9c-0.1-0.5,0-1.6-0.4-1.9
				C80.6,31.2,69.8,20.5,59,9.8C59.2,10,59.2,11.4,59.2,11.7z M64.9,32.2c-0.2-0.1-1.7,0.4-1.9,0.4l-1.8,0.5
				c7.2,7.1,14.5,14.2,21.7,21.3c0.3,0.3,1.7-0.3,1.9-0.3l1.8-0.6C79.4,46.4,72.2,39.3,64.9,32.2L64.9,32.2z M58.5,15.8
				c0,0-0.7,1.7-0.6,1.8c10.8,10.7,21.7,21.4,32.5,32c0.1,0.1,0.8-1.8,0.8-1.7c0.1-0.1,0.7-1.6,0.5-1.8C80.8,35.4,70,24.8,59.2,14.1
				C59.2,14.1,58.5,15.9,58.5,15.8z M44.9,17.8c-0.3-0.3-1.4-0.5-1.9-0.7c-0.3-0.1-1.6-0.3-1.8-0.6c6.5,6.9,13.5,13.3,20.3,20
				c9.1,8.9,18.1,17.8,27.1,26.7c0.4,0.4,1.4,0.6,1.8,0.7c0.3,0.1,1.5,0.3,1.8,0.6c-9-9-18.1-18-27.2-26.9
				C58.3,31.1,51.4,24.7,44.9,17.8L44.9,17.8z"/>
			<path class="st28" d="M46.8,7.6c0.1-0.3,0.3-0.7,0.4-1c-0.7,1-1.3,2.1-2,3.1c2.9,2.4,5.8,5,8.5,7.7c3.1,2.5,6.2,5.1,9.3,7.7
				c5.7,5.1,11.3,10.3,16.7,15.7c6.4,6,12.2,12.4,17.5,19.4c0.1,0.1,2.5-2.8,2.1-3.1C85.3,45.9,73,33.6,61.1,20.3
				c-2.9-3.6-6.1-6.9-9.6-10c-1.4-1.3-2.9-2.5-4.3-3.8c-0.1,0-1.9,2.9-2,3.1c-0.2,0.4-0.3,0.8-0.5,1.2C45.2,9.7,46.3,8.8,46.8,7.6z"
				/>
			<path class="st28" d="M40.3,11.9c-0.2-0.2-0.2-1.7-0.3-1.9c0-0.3,0-1.6-0.2-1.9c-0.6-0.5-1-1.2-1.1-2c0.1,1.3,0.3,2.5,0.4,3.8
				C39,9,39.2,8.3,39.7,7.6c2,2.4,4,4.7,6.1,7c6.4,6.5,12.7,13.1,19.1,19.6c7.7,8.4,16.1,16.1,25,23.2c0.3,0.3,0.8-1.8,0.8-1.7
				c0.1-0.3,0.7-1.6,0.3-1.9c-6.3-5.4-12.3-11.1-18-17c-3.4-3.5-6.9-6.9-10.3-10.4c-5.1-5.2-10.3-10.3-15.6-15.3
				c-1.2-1.3-2.4-2.5-3.6-3.8c-1.4-1.2-2.7-2.3-4.1-3.5c-0.1,0.4-0.3,0.7-0.5,1.1c-0.1,0.3-0.1,0.9-0.1,1.3c0,1,0.2,2,0.3,3
				C39.2,10.3,39.6,11.1,40.3,11.9L40.3,11.9z"/>
			<path class="st28" d="M35.5,2.7c0.1,0.1-0.3,1.8-0.2,1.9c0,0.1-0.4,1.7-0.2,1.9c2.5,2.3,5,4.7,7.3,7.3c3.7,3.6,7.4,7.1,11.1,10.7
				c10.9,10.6,21.7,21.3,32.5,32c0.1,0.1,0.4-1.9,0.4-1.8c0.1-0.3,0.4-1.6,0.1-1.9C75.7,42.1,64.9,31.4,54,20.8
				c-4.5-4-8.8-8.2-12.9-12.6C39.3,6.3,37.4,4.4,35.5,2.7L35.5,2.7z M51.8,3.7c0.6,0.7,1.1,1.5,1.7,2.1C62.1,14,70.6,22.3,79,30.7
				c7.2,7.2,14.6,14.4,22.1,21.4c0.3,0.3-0.6-1-0.5-0.8c-0.6-0.7-1.1-1.5-1.7-2.1L66.5,17.4C54.8,5.8,59.3,9.6,51.3,2.8
				C51,2.5,51.9,3.8,51.8,3.7z M40,2.2c0,0.1,3.8,0.2,3.8,0.2c-0.2-0.8,0-1.5,0.5-2.1C43,0.2,41.8,0.1,40.5,0
				c2.9,2.1,5.6,4.5,8.2,6.9c3.5,3.7,6.9,7.3,10.4,10.9c5.5,5.3,10.9,10.5,16.3,15.8c5.5,5.5,11.2,10.8,17.1,15.9
				c0.6,0.6,1.8,0.8,2.5,1c-0.2,0,1.2,0.5,0.9,0.1c-7-8.6-14.5-16.6-22.7-24c-3.7-3.4-7.3-6.9-10.9-10.4c-5.8-5.5-11.7-10.8-18-15.8
				c-0.3-0.2-3.7-0.5-3.8-0.3C40,0.7,39.9,1.4,40,2.2L40,2.2z M35,7.6c0.9,0.9,1.2,2.3,2.1,3.2c2.5,2.4,4.8,4.9,7.1,7.5
				c1.8,1.8,3.7,3.6,5.6,5.4c12.9,12.4,25.5,25,38.2,37.5c0.4,0.3-0.4-1.1-0.3-0.9c-0.5-0.7-0.9-1.6-1.5-2.2
				C69.3,41.1,52.1,24.4,35,7.6L35,7.6z"/>
		</g>
		<g id="XMLID_1491_">
			<path class="st28" d="M77,106.7c-0.1,0-1.8-0.5-1.8-0.6c0.6,2.7,9.4,5.3,8.9,5.1c3.1,1.4,5.8,2.9,8.9,3.9
				c32.4,10.7,17.2,7.4,42.3,11.7c0.4,0.1,0.4,0,0-0.1c-18.3-5.9-36.6-11.7-54.8-17.6c-1.2-0.2-1.8-0.8-1.8-1.7
				C78.7,107.2,77,106.8,77,106.7z M84.4,101.3c-0.3,0.5-1.2,1.5-1.1,2.1c-0.1,0.6,0.1,1,0.6,1.3c1.1,0.8,2.3,0.7,3.5-0.2
				c-0.3-0.1-0.6-0.3-0.9-0.4c7.6,5,15.8,8.5,24.7,10.5c9.4,4.1,19.3,6.8,29.5,8.1c0.7,0.1,1.6-3.5,1.5-3.5
				c-14.7-1.2-28.6-5.1-41.7-11.6c-10.6,1.2-15.7-1.1-15.3-7.1C85.2,100.2,84.3,101.4,84.4,101.3z M82.9,92.2
				c-0.2-0.1-1.5-0.4-1.7-0.7c1,1.5,2.8,2,4.4,2.7c4.4,1.8,9.2,3.1,13.7,4.6c4.7,1.7,9.4,3.3,14.2,4.8c9.3,3,18.7,5.3,28.3,6.9
				c0.4,0.1-1-0.5-0.8-0.4c-0.8-0.3-1.7-0.8-2.5-1c-13.8-3-27.3-6.8-40.5-11.6c-4.9-1.6-9.8-3-14.7-4.4c1.1,0.5,2.2,0.9,3.3,1.4
				c-0.9-0.5-1.3-0.7-1.8-1.5C84.6,92.7,83.3,92.3,82.9,92.2z"/>
			<path class="st28" d="M76.5,97.6c-0.1-0.1-0.2,0.5-0.1,0.4c-0.2,0.1-0.1,3.5,0,3.8c0.2,0.5,0.1,0.4,0.5,0.7
				c0.2,0.1,0.4,0.3,0.7,0.3c3,1.2,6,2.3,9,3.5c4.3,1.8,8.6,3.3,13,4.8c9.7,3.3,19.1,5.5,29.2,8.2c1.3,0.4,2-0.3,2.2-1.5
				c0.3-1.4-0.2-1.9-1.5-2.2c-17.2-4.2-33.9-9.6-50.3-16.2c-1.1-0.7-1.8-0.2-2.1,1.5C77.2,100.1,77.2,98.3,76.5,97.6z M75.6,92.1
				c1.8,2.5,6.1,3,8.6,3.8c6.8,2.2,13.6,4.5,20.4,6.8c9.1,2.9,18.2,5.2,27.6,6.9c0.4,0.1,1.4-0.4,1.8-0.5c0.2-0.1,1.5-0.7,1.8-0.6
				c-9.5-1.9-18.7-4.3-27.9-7.2c-6.7-2.4-13.4-4.6-20.2-6.7c-2.5-0.7-6.6-1.1-8.5-3.6C78.9,90.6,75.8,92.3,75.6,92.1z"/>
			<path class="st28" d="M88.5,100.6c1.6,2.5,7.4,3.4,8.8,3.9c6.8,2.4,13.7,4.8,20.6,7c9.3,2.9,18.6,5.3,28.1,7.3
				c-0.4,0,0-3.6-0.5-3.7c-9.5-2-18.9-4.4-28.1-7.3c-6.9-2.2-13.8-4.6-20.6-7c-1.4-0.5-7.2-1.4-8.8-3.9
				C88.6,97.8,87.9,99.6,88.5,100.6z M82.3,108.7c0,0-1.7,0.6-1.8,0.5c0.4,0.4,0.9,0.6,1.4,0.8c4.6,2,9.2,3.9,13.8,5.9
				c6.7,2.4,13.6,4.5,20.5,6.4c6.8,2,13.8,3.8,20.8,5.4c0.4,0.1,1.5-0.3,1.8-0.4c0.3,0,1.5-0.5,1.8-0.4
				c-13.9-3.8-27.9-7.3-41.6-12.1c1.3,0.5-10.9-3.8-14.9-6.4C83.9,108.2,82.5,108.7,82.3,108.7z"/>
			<path class="st28" d="M72.9,97.4c-0.1,0.6-0.5,1.9-0.3,2.6c0.4,1.3,1.3,1.8,2.5,2.3c7.5,3.3,15.1,6,22.8,8.6
				c10.5,3.5,21.3,5.9,32.1,8.4c-0.1,0,0.4-3.7,0-3.8c-14.8-3-29.3-7.2-43.5-12.5c-3.6-1.5-7.3-2.9-10.9-4.4c-1.1-0.5-2-0.8-2.4-2.1
				C73.1,96.1,72.9,97.5,72.9,97.4z"/>
			<path class="st28" d="M85.8,94.5c-0.1-0.2-1.2-1.2-1.2-1.5c0.1,1.6,1.4,3.1,2.4,4.2c0.4,0.5,1,0.9,1.6,1.2
				c8.5,2.1,16.8,4.5,25,7.4c10.2,2.9,20.4,6,30.5,9.2l-0.8-1.7c-0.2-0.3-0.7-1.5-1.1-1.6c-22.8,1.4-41.9-4.4-57.1-17.2
				c0.7,0.9,1.3,1.7,2,2.6c-0.1-0.4-0.2-0.7-0.3-1.1C86.8,95.6,85.9,94.7,85.8,94.5z"/>
			<path class="st28" d="M82,93.6c0-0.4-3.7-0.4-3.9-0.3c0.1,1.4,0.5,2,1.6,2.8c3.9,2.6,8.4,3.9,13.5,3.8c4.6,1.1,9.1,2.2,13.7,3.3
				c4.5,1.2,9,2.3,13.5,3.4c5.1,1.9,10.1,3.8,15.2,5.7c0.7,0.3,2,0.2,2.7,0.1c0.1,0,1.1-0.1,0.6-0.4c-6.1-5.9-12.9-10.5-20.5-13.7
				c-7.9-1.3-15.8-2.2-23.8-2.6c-4,0.3-8,0-11.8-1.1C82.2,94.4,81.9,94.1,82,93.6L82,93.6z M73.2,102c0.1,0.2-0.7-1.1-0.6-0.7
				c0.4,1.4,1.3,3,2.4,4c0.6,0.6,1.3,0.8,2,1.1c7.3,4.6,15.1,8.1,23.4,10.3c10.2,3.9,20.8,6.1,31.7,6.6c-0.1,0-0.8-0.8-1-1
				c-0.4-0.4-1.1-1.2-1.7-1.4c-9.6-2.2-19.2-4.9-28.6-7.9c-4.4-1.5-8.9-3.1-13.3-4.6c3.3,1.2-11.6-3.6-14.5-6.3c0.6,1,1.3,2,1.9,3
				c-0.1-0.3-0.1-0.5-0.2-0.7C74.5,103.6,73.8,102.8,73.2,102z M87.6,102.6c0,0.1-0.7,1.6-0.6,1.8c1.7,2.3,7.8,3.6,8.9,4
				c6.7,2.6,13.6,5,20.6,7.1c9.2,2.8,18.6,5.3,28,7.4c0.2,0,1.2-3.6,1.2-3.6c-9.5-2-18.8-4.5-28-7.4c-6.9-2.1-13.8-4.4-20.6-7.1
				c-1.2-0.4-7.2-1.6-8.9-4C88.3,100.9,87.6,102.5,87.6,102.6z"/>
		</g>
		<g id="XMLID_1490_" class="st29">
			<path class="st20" d="M271.5,140c-0.4,0.9-1.3,2-2.1,2.9c-1,0.8-2.1,1.4-2.7,1.2c-0.6-0.3-1.3-0.6-2.1-0.9
				c-0.4-0.1-0.8-0.6-1.1-0.9c-1.8-0.8-3.7-0.7-5.6-0.5s-4,0.6-6.1,0.4c-0.2,0-0.4,0.3-0.7,0.5c1.5,0.1,2.6,0.9,3.5,2.1
				c0.9,1.1,1.6,2.7,2.3,4.1c0.4,1.1,1.3,2.2,2.5,2.4c0.9,0.1,1.6-1.1,2.3-0.9c0.1,0-0.1,0.2,0.4,0.8c0.5,0.6,1.7,1.7,5,3.2
				c1.6,1.2,2.8,3.1,4.9,3.9c1,0.2,1.8-0.3,2.6,0c2.1,1.4,3.9,3,5.5,5.2c1,1.2,2.8,2.3,4.1,1.1c0.8-0.7,3.1-2.8,3.7-2.8
				c1.6-0.2,3-0.1,4.1,0.5c0.9,0.5,1.5,1.4,1.5,2.5c0,0.3-0.1,0.5-0.1,0.8l-0.3,0.3c0,0.1-0.1,0.1-0.1,0.2l0.1,0.3
				c0.1,0.1,0.2,0,0.3,0l0.2-0.1h0.1c-0.2,0.6,2.1-5.3,1.1-2.8l-0.1,0.2c0,0.1-0.1,0.1-0.1,0.2c-0.1,0.2,0.5-0.8,2.4-1.7
				c0.2-0.1,0.3-0.1,0.5-0.2c0,0,0.1-0.1,0.2-0.1h0.1c9.6-2.6-13.1,3.5-10.8,2.9l-0.2,0.1c-0.2,0.2-0.5,0.4-0.8,0.6l-0.4,0.3
				c-0.1,0.1-0.1,0.3-0.1,0.4c-0.1,0.6-0.1,1.2-0.1,1.8c0,1.1,0.2,2.2,0.4,3.2c0.2,1,0.4,1.9,0.6,2.7c0.2,0.5,1.2,1.9,1.6,2.2
				c0.8,1.4,1.9,2.6,3.1,3.6c1.2,1,2.6,1.8,4.1,2.6c2.2,1.1,3.8,2.4,5.4,3.7s3.4,2.6,5.7,3.4c2,0.6,3.9-0.1,5.4-1.1
				c0.8-0.5,1.5-1.2,2.1-1.8l0.5-0.5c0.2-0.2,0.3-0.3,0.4-0.5l0.6-0.9c1-1.4,2-2.9,3.2-3.8c1.1-1,2.5-1.5,3.6-1.1
				c1.7,0.5,2.9,1.4,5.1,1.1c2.4-0.4,4.9-0.7,7.6-1.7c0.6-0.2,0.5-1.2,0.1-1.7c-1.3-1.9-3.7-2.3-5.6-3.2c-0.2-0.3-0.8-0.6-0.9-0.9
				c-0.1-0.4-0.3-0.6-0.6-0.9c-2.2-1.5-4.4-2.3-6.9-2.5c-1-0.3-1.8-0.5-2.6-0.7c-0.7-0.2-1.4-0.3-2.3-0.3c-0.8,0.1-1.5-0.1-2.2-0.3
				c-0.7-0.2-1.4-0.4-2.5-0.4c-1.3-0.2-2.2-0.7-2.6-1.6c-0.5-0.9-0.3-2.4,0.7-4c0.5-0.9,1.5-2.4,1.9-3.7c0-0.2,0.1-0.3,0.1-0.6
				s0.1-0.4,0-0.9c0-0.8-0.2-1.5-0.3-2.2c-0.3-1.4-0.6-2.5-0.8-3.3c0-0.9-0.5-1.7-1.1-2.5c-0.5-0.7-1.2-1.5-1.6-2.3
				c-1.2-2.5-1.1-5.1-1.5-5.3c-0.1-0.1-0.1-0.1-0.2-0.1l-0.3-0.1l-0.1-0.1c-0.1-0.1-0.2-0.2-0.2-0.4c0-0.1,0-0.2-0.1-0.3
				c-0.1-0.2-0.3-0.3-0.4-0.5l-0.5-0.5l-0.3-0.3l-0.3-0.3c-1.4-1.7-3.3-3.1-5.1-3.9c-1.8-0.8-3.6-1.1-5.2-0.9
				c-0.6,0.1-1.7,1.6-2.6,3.3c-0.9,1.7-1.6,3.5-1.6,4.2c-0.1,0.5-2.5-0.6-5.1-1.8c-2.6-1.2-5.4-2.4-6.8-1.8
				C276.7,138.8,272.3,138.1,271.5,140L271.5,140z"/>
			<path class="st30" d="M322,179.6c0,0-0.3-0.2-0.7-0.5s-1.1-0.6-1.9-1c-0.4-0.1-0.8-0.3-1.3-0.5s-1-0.4-1.8-0.6
				c-1.5-0.3-3.2-0.7-4.7-1c-1.6-0.4-3.1-0.8-4.4-1.4c-1.3-0.6-2.5-1.4-3.3-2.2c-0.9-0.8-1.4-1.7-1.7-2.3c-0.3-0.6-0.4-1-0.4-1v-0.3
				c0.1-0.1,0.1-0.4,0.2-0.7c0.2-0.6,0.5-1.5,1.1-2.5c0.5-1,1.4-2.1,2.1-3.3c0.3-0.5,0.6-1.1,0.9-1.7c0.2-0.6,0.5-1.1,0.6-1.8
				c0.5-2.8-0.4-6-1.5-8.1c-0.5-1.1-1.1-2-1.6-2.6c-0.3-0.3-0.5-0.5-0.6-0.7l-0.1-0.1c-0.2-0.2,0-0.1-0.1-0.1h0.1
				c0,0,0.3,0.2,0.2,0.1h0.4c0.2-0.1,0.3-0.1,0.5-0.1c0.3-0.1,0.6-0.1,0.9-0.1c0.5-0.1,1-0.1,1.4-0.1h1.2c0.4,0.8,1,1.5,1.6,2.3
				c0.5,0.8,1,1.6,1.1,2.5c0.1,0.8,0.5,1.9,0.8,3.3c0.2,0.7,0.3,1.4,0.4,2.2v0.6v0.8l-0.1,0.2c-0.4,1.4-1.4,2.8-1.9,3.7
				c-1.1,1.7-1.2,3.1-0.8,4c0.5,0.9,1.3,1.4,2.6,1.6c1.1,0,1.8,0.2,2.5,0.4c0.6,0.1,1.3,0.3,2.2,0.3c0.9,0,1.6,0.1,2.3,0.3
				c0.8,0.3,1.6,0.5,2.6,0.7c2.4,0.2,4.7,0.9,6.9,2.4c0.3,0.3,0.5,0.6,0.6,0.9c0.1,0.3,0.7,0.6,0.9,0.9c1.9,0.9,4.3,1.4,5.6,3.2
				c0.3,0.5,0.5,1.5-0.1,1.7c-2.8,1-5.3,1.3-7.6,1.7C325,181,323.7,180.1,322,179.6L322,179.6z"/>
			<path class="st20" d="M305.9,148.8c0.2,3.7,0.7,7,1.1,9.7c-0.1,0.8-0.2,1.3-0.4,2c-0.2,0.7-0.4,1.3-0.7,2
				c-0.5,1.3-1.2,2.6-1.1,3.9s0.7,2.4,1.5,3.1c0.7,0.8,1.7,1.2,2.5,1.5c0.9,0.3,1.6,0.4,2.1,0.4h0.8c0.4-0.2,1.6-0.3,3.2-0.4
				c0.8-0.1,1.6-0.1,2.5-0.1c0.4,0.1,0.9,0.1,1.3,0.1l0.6,0.1l0.8,0.1c2.1,0.4,4.1,1.1,5.6,1.8c1.5,0.6,2.4,1.2,2.4,1.2
				c0.5,0.5,1,1.2,1.4,1.9c0.4,0.6,0.7,1.2,0.7,1.2c1.2,1.6-0.3,1.7-2,1.6c-1.7-0.1-3.6-0.2-3.6-0.2c-0.8-0.8-2.1-0.6-3.1-0.1
				c-1.1,0.5-1.8,1.2-1.8,1.2c-0.4,0.2-0.9,0.3-1.5,0.4c-0.3,0-0.6,0.1-0.9,0.1c-0.3,0.1-0.7,0.1-1,0.1c-1,0-2.1-0.1-2.8-0.1
				c-0.7-0.1-1.2-0.1-1.2-0.1c-0.5,0.3-1.9,0.2-3.6-0.3c-1.7-0.5-3.6-1.5-5.2-2.8c-1.6-1.4-2.9-3.1-3.5-4.6
				c-0.3-0.7-0.5-1.3-0.6-1.8c-0.1-0.4-0.1-0.7-0.1-0.7c0-2.2,0.2-3.6-0.2-4.8c-0.4-1.2-1-2-1-2c0.1-0.5-0.1-1.3,0.4-1.8l0.1-0.2
				V161c0-0.2-0.1-0.4-0.1-0.4c-0.1-0.3,0.3-1.3,0.5-2.7c0.1-0.7,0.2-1.5,0.2-2.4c0-0.2-0.1-0.5,0-0.7l-0.1-0.7
				c-0.1-0.5-0.1-0.9-0.2-1.4c-0.3-1.9-0.8-3.8-1.2-5.2c-0.4-1.4-0.7-2.3-0.7-2.3c0.1-1.3,0.6-1.9,1.5-2c0.8-0.1,2,0.3,3.2,1.1
				c0.5,0.4,1.5,1,1.6,1.3c0.5,0.5,1,1,1.4,1.5c0.4,0.5,0.7,0.9,0.9,1.2C305.8,148.6,305.9,148.8,305.9,148.8L305.9,148.8z"/>
			<path class="st20" d="M304,146.8h-0.5c-0.1-0.1,0.1,0.1-0.2-0.1c-0.2,0.1-0.3,0.1-0.4,0.2c-0.3,0.1-0.5,0.3-0.7,0.4
				c-1.2,0.4-1.9,1.3-2.3,2.2c-0.5,0.9-0.7,1.8-0.9,2.5c-0.1,0.6-0.2,1.1-0.2,1.1c0.1,0.7,0.2,1.4,0.3,2v1.6c0,1-0.1,1.8-0.2,2.4
				c-0.2,1.3-0.5,1.9-0.6,2.2c-0.1,0-0.1,0.1-0.1,0.1s0-0.1,0,0l-0.1,0.2c-0.1,0.2-0.1,0.3-0.2,0.4s-0.1,0.1-0.1,0.2v0.2
				c0,0.2,0.1,0.5,0.1,0.7c0.2,0.9,0.4,1.3,0.4,1.3c0.7,0.3,0.8,1.6,0.7,3.2c0,0.9,0,1.8,0.2,2.9c0.2,1,0.7,2.1,1.2,3.1
				c1.1,2,2.6,3.6,3.8,4.6c1.2,1,2.1,1.6,2.1,1.6c-0.5-0.8-1.7-0.9-2.7-1c-1.1-0.1-2-0.1-2-0.1c-0.5-0.6-1.5-1.1-2.5-1.8
				c-1-0.6-2.1-1.4-3.1-2.2c-1-0.8-1.8-1.6-2.3-2.1c-0.5-0.6-0.8-0.9-0.8-0.9c-1.6-0.6-2.1-2.5-2.1-4.8c0-1.1,0.1-2.3,0.3-3.1
				c0.3-0.3,0.6-0.5,0.8-0.7c0.1-0.1,0.1-0.2,0.2-0.2c11.2-3,3.1-0.8,5.6-1.5c-0.5,0.1-1,0.3-1.3,0.5c-0.3,0.2-0.5,0.3-0.5,0.3
				c-0.3,0.3-0.7,0.5-0.9,0.7l-0.2,0.1c0.1,0,0.1-0.1,0.2-0.2c0.1-0.2,0.2-0.4,0.3-0.7c0-0.1,0.1-0.3,0.1-0.4l0.1-0.2v-0.1
				c0.1,0-0.2-0.1,0.2,0.1l-0.1-0.1l-0.2-0.4c0-0.1-0.1-0.2-0.1-0.2v-0.1c0-0.2,0.1-0.4,0-0.6c-0.1-0.4-0.2-0.8-0.4-1.3
				c-0.3-0.9-0.8-1.9-1.3-2.8c-1.1-1.8-2.3-3.6-3.1-4.9c-0.8-1.3-1.3-2.1-1.3-2.1c-1-1.7,0.5-3.6,2.4-5.1c1-0.7,2.1-1.3,3-1.7
				c0.9-0.4,1.6-0.6,1.6-0.6c1.1-0.9,2.3-1.1,3.6-0.8c0.7,0.2,1.3,0.4,1.9,0.8l0.9,0.6l0.5,0.4l0.5,0.4l0.4,0.4l0.2,0.3l0.1,0.3
				l0.1,0.1c0.1,0-0.3-0.1,0.2,0.1v0.1l0.1,0.1c0.4,0.5,0.8,1,1,1.5c0.5,0.9,0.7,1.5,0.7,1.5C305.5,146.9,304.6,146.8,304,146.8z"/>
			<path class="st20" d="M300,136.6c-1.3-0.3-2.5-0.5-2.5-0.5c-1.5-0.6-3.4-0.7-4.7-0.1c-0.8,0.2-1.5,1.4-1.9,2.5
				c-0.1,0.4,0.1,0.9,0,1.3c-0.5,1.5-1.6,2.3-1.6,4.1c0.1,0.7-0.6,1.5-1.2,1.8c-0.4,0.1-2.5-1.3-4.4-2.8c-1.9-1.5-3.7-3.1-4-3.2
				c-0.2-0.1-0.2-0.8-0.5-0.9c-1.1,0-1.9,0.9-2.9,1.7c-1.3,0.9-4.1,0.5-4.2,0.6c0,1.3-0.4,2.9,0.2,4c0.1,0.2-0.1,0.5-0.1,0.8
				c-0.2,0.4-0.6,0.9-0.7,0.8c0.5,0.3-0.7,0.3-1.8,0.1c-1.1-0.2-2.2-0.5-1.6-0.7c-1.4,0.4-2.2-1.6-3.6-2c-1-0.4-2.5,0.3-3.3-0.5
				c-0.8-0.5-1.4-1.3-2.2-0.8c-0.6,0.3-1,0.5-1.5,0.5c-1.1-0.3-2-1-3.1-0.8c-0.9,0.3-2.1,1.5-2.9,0.5c-0.3-0.4-1-0.5-0.9-0.9
				c0.1-0.2,1.3-1,1.6-1c1.4-0.2,2.7-0.3,4-0.7c1.7-0.4,3-0.2,4.6-0.3c2.6,0,4,2.8,6.8,2.4c1.7-0.2,2.6-3.2,4.3-3.8
				c1-0.4,2.1-0.6,3-1.1c1.7-1,3.4-2,4.9-1.2c0.9,0.4,2,0.4,3,0.6l0.5,0.5c0.4,0,0.6-0.1,1-0.4c1.2-1.2,2.7-1.8,4.2-2.3
				c0.8-0.3,1.5-0.5,2.3-0.8c0.7-0.3,1.6-0.6,2.4-1.1c0.7-0.3,1.9-0.7,3-0.4c0.9,0.3,2.1,0.4,2.9,0.9c1.4,1.1,2.7,2.7,3.9,4.1
				C303,137.5,301.6,137,300,136.6z"/>
			<path class="st20" d="M292.9,166.1c0.1,0,0.2-0.1,0.3-0.1h0.1c-1,2.5,1.3-3.4,1.1-2.8v0.1c0,0.1-0.1,0.1-0.1,0.2
				c0,0.1-0.1,0.2-0.1,0.2l0.1-0.1c0.1-0.2,0.4-0.4,0.4-0.4c0.1-0.1,0.5-0.4,1-0.7c0.3-0.2,0.5-0.3,0.7-0.4c0.2,0,0.3-0.1,0.3-0.1
				c0.1-0.1,0.2-0.1,0.4-0.2c0.1,0,0.2-0.1,0.3-0.1h0.2c2.4-0.6-20.3,5.5-10.7,2.9l-0.1,0.1l-0.3,0.2c-0.3,0.2-0.7,0.4-1,0.7
				c0,0.3-0.1,0.7-0.1,1.1c-0.1,0.7-0.1,1.5-0.1,2.2c0.1,1.5,0.3,2.6,0.5,3.4c0.2,0.7,0.4,1.2,0.4,1.2s0.2,0.4,0.5,0.7l0.6,0.6
				c0.1,0.6,1.1,2,2.2,3.2s2.3,2.1,2.3,2.1c3.3,1.8,6,3.6,8,5c2,1.4,3.3,2.5,3.3,2.5"/>
			<path class="st20" d="M282.7,137.1c-1.4,0.1-2.6-0.8-4-0.4c-1,0.2-5.3,1.9-6.4,2.6c-1.4,0.9-2.7,2-4,3.3c-0.7,0.6-1.3,0-2-0.1
				c-0.3,0.1-0.6,0.2-0.8,0.2c-0.7-0.1-2,0.2-2.3-0.9c-1.6-0.6-3.2-0.9-5-1.1c-0.4-0.1-0.9-0.2-1.4-0.1c-0.8,0.2-1.6,0.6-2.4,0.8
				c-0.8,0.3-1.6,0-2.4,0.2c-0.4,0-0.8,0.3-1.1,0.3c-0.2-0.2-0.7-0.3-0.5-0.5c0.1-0.3,0.5-0.4,0.8-0.6c1.3-0.5,2.5-1.2,3.7-1.6
				c2.8-0.8,5.3-1.3,7.7-0.9c0.5,0.1,0.7,0.7,1,1c0.7,0.8,2.1,0.5,2.8,1.8c0.1,0.1,0.3,0.2,0.5,0.1c2.1-1.3,4-2.6,5.9-3.9
				c1.3-0.8,5.2-2.1,6-2.3C282,134.7,282.7,137.2,282.7,137.1z"/>
		</g>
		<g id="XMLID_1489_" class="st29">
			<path class="st20" d="M214.4,64.3c0,0.6-0.2,1.4-0.5,2.1c-0.6,1.5-1.6,2.8-2.6,3.1c-1.2,0.3-2.4,0.5-3.7,1
				c-0.7,0.2-1.7,0.2-2.4,0.3c-3.4,1.2-6.1,3.3-8.1,6c-2,2.6-3.2,5.9-3.3,9c-0.1,0.3,0.3,0.5,0.5,0.8c-0.1-2.1,1.3-4,3.1-4.8
				c1.8-0.9,3.9-1,5.7-0.8c1.3,0.2,2.9,0.2,4.3-0.6c1-0.7,0.9-2.1,1.8-2.5c0.2-0.1,0,0.2,1.1,0.3c0.6,0,1.4,0,2.9-0.2
				c1.5-0.2,3.5-0.6,6.5-1.6c1.7-0.4,3.7-0.8,5.6-1.5c1.9-0.7,3.9-1.7,5.6-3.4c1.3-1.6,1.7-3.3,2.6-4.9c0.4-0.5,0.8-1,1.1-1.5
				s0.6-0.9,0.9-1.4c0.1-0.2,0.3-0.4,0.4-0.6L236,63h0.3l-0.2-0.1l-0.3-0.2l-1.1-0.5l-0.8-0.4c-0.5-0.3-0.8-0.5-1.1-0.7
				c-0.1,0-0.3,0-0.4-0.1c-0.2,0-0.1-0.2-0.2-0.3v-0.2c0.1,0-0.2,0.1-0.2,0.1l0.1,0.1l0.1,0.1l0.1,0.2c0.2,0.4,0.4,0.9,0.6,1.6
				c0.2,1,0.3,2.4,0.2,3v0.3h-0.3h0.5l-1.1,3.2v0.1l-0.1,0.2l0.1-0.1l0.3-0.3c0.3-0.3,1-0.9,2.1-1.1c1-0.3,2.4-0.3,2.9-0.1
				c0.9,0.3,1.7,0.5,2.5,0.8c0.9,0.3,1.9,0.6,2.8,0.9c1.9,0.5,3.8,1,5.8,1.3c3.5,0.5,6.8,1,10.3,1.2c3.5,0.2,7,0.1,10.7-0.7
				c3.8-0.9,6.3-2.9,8.9-5.6c0.6-0.6,1.2-1.1,1.7-1.2c0.3,0.2,0.5,0.2,0.7,0.4L281,65c0,0,0.2,0.3-0.3-0.3l-0.5-0.6l-0.4-0.5
				c-0.3-0.4-0.5-0.7-0.8-1.1l-1.5-2.1c-0.5-0.6-0.9-1.3-1.3-2c-0.4-0.5-0.7-1.1-1-1.8c-0.1-0.3-0.3-0.5-0.4-0.8
				c-0.1-0.2-0.2-0.5-0.3-0.8c-0.4-1.1-0.6-1.9-0.6-2.5v-0.8c-2.6,6.7,5.9-15-5.9,15.1h-0.1l-0.5,0.1l-1,0.1l-1.9,0.3h-0.2
				c-0.1,0,0,0.1,0,0.1l0.1,0.1l0.3,0.3l0.5,0.6c0.6,0.7,1.3,1.3,1.9,1.9c0.4,0.4,1.3,0.8,2,1.1c0.7,0.3,1.4,0.5,1.7,0.6
				c1,0.4,2,0.7,3.2,1c1.2,0.2,2.5,0.4,3.7,0.4c2.5,0,4.8-0.5,7.3-1.4c0.9-0.3,1.8-0.7,2.7-1c0.9-0.3,1.7-0.5,2.6-0.9
				c1.8-0.8,3.5-1.3,5.3-2c1.7-0.6,3.5-1.2,5.3-1.9c0.8-0.4,1.7-0.7,2.5-1c0.5-0.2,1.1-0.4,1.6-0.6c3.5-1.7,2.7-5.8,2.8-8.8
				c0.4-4,1.5-8.4,5-11.2c2.6-2.1,5.2-3.8,6.3-6.5c1.1-2.9,1.8-5.8,1.2-8.8c-0.1-0.6-1.3-0.5-2-0.1c-2.4,1.3-3.8,3.8-6,5.6
				c-0.5,0.2-1.2,0.7-1.6,0.7s-0.9,0.1-1.3,0.3c-3,1.7-5.5,3.5-8,5.6c-2.9,1.9-5.2,2.8-8.2,4.6c-1.2,0.8-2.3,1.3-3.3,1.8
				c-1.1,0.5-2,1.1-3.2,2.1c-1.5,1.2-2.9,2.2-4.5,2c-0.7-0.1-1.6-0.6-2-1.6c-0.5-0.9-0.6-2.2-0.8-3.5c0-0.4-0.1-0.8-0.3-1.2
				l-0.3-0.6c0-0.1-0.1-0.2-0.2-0.3c-0.4-0.2-0.7-0.4-1-0.6c-1.3-0.9-3.5-1.3-5-1.1c-1.6,0.2-2.9,0.6-4,1c-2.2,0.9-3.8,1.8-5.1,2.6
				c-1.3,0.8-2.4,1.4-3.1,1.7c-0.1,0-0.2,0.1-0.3,0.1c-1.1,0-1.7,0.8-2.7,0.6c-0.5-0.1-0.9-0.4-1.2-0.6c-0.4-0.3-0.7-0.6-1-0.9
				c-0.5-0.5-0.8-1-0.9-1c-0.1,0.3-0.5-0.2-1.3-0.9c-0.8-0.9-1.4-1.6-1.8-2c-0.5-0.4-0.7-0.5-1-0.2c-0.1,0-0.3,0.4-0.6,1
				c-0.2,0.3-0.4,0.7-0.6,1c-0.3,0.3-0.6,0.7-0.9,1c-1.3,1.4-3,2.7-3.2,3.3c-0.2,0.2-0.7-0.2-2-1c-0.6-0.4-1.5-0.9-2.6-1.5
				c-0.5-0.3-1.2-0.6-1.9-0.9l-0.2-0.1h-0.1l-0.2-0.1c-0.1-0.1-0.2-0.1-0.5-0.2s-0.5-0.1-0.8-0.2l-0.7-0.2c-1.8-0.4-3.9-0.6-6.2-0.4
				c-1.2,0.1-2.4,0.3-3.7,0.8c-1.3,0.5-2.6,1.1-3.9,2l-1.8,1.5c-0.3,0.2-0.5,0.5-0.8,0.8l-0.1,0.1l-0.2,0.2l-0.1,0.1l-0.1,0.1
				c-0.2,0.3-0.6,0.8-0.8,1.1c-0.2,0.2-0.3,0.5-0.5,0.8c-0.3,0.6-0.6,1.1-0.8,1.5c-0.3,0.4-0.5,0.9-0.6,1.2l-0.2,0.4l-0.1,0.2
				c-0.1,0.2-0.2,0.3-0.2,0.5c-0.1,0.5-0.2,0.8-0.1,1.2c0.1,0.3-0.3,1.3-0.8,2.2s-1.1,1.9-0.8,2.9C214.3,63.1,214.3,63.7,214.4,64.3
				z"/>
			<path class="st30" d="M312.9,44.2c0,0-2,1.2-4.9,3c-2.9,1.7-6.9,3.8-11,5.9c-2.3,1.2-4.7,2.4-6.9,3.4c-0.5,0.2-1.1,0.5-1.6,0.7
				c-0.6,0.2-1.1,0.4-1.6,0.6c-1.1,0.4-2,0.8-2.9,1c-1.8,0.4-3.5,0.4-4.5,0c-0.5-0.2-0.9-0.4-1.1-0.6l-0.3-0.3
				c-1-1.7-1.1-3.8-1.6-5.8c-0.2-0.5-0.3-1-0.5-1.4l-0.3-0.6l-0.3-0.5c-0.3-0.7-1.1-1.1-1.9-1.2c-0.8-0.1-1.7-0.1-2.6,0.1
				c-0.9,0.1-1.8,0.4-2.6,0.7c-1.7,0.6-3.3,1.4-4.8,2.1c-2.3,0.8-4.5,1.1-6.6,0.8c0.2-0.6,0.3-1.1,0.4-1.5c0.1-0.5,0.1-0.8,0.1-1.1
				v-0.8c1.1,0.2,1.7-0.6,2.8-0.6c0.1-0.1,0.1-0.1,0.2-0.1c0.7-0.3,1.8-0.9,3.1-1.7c1.4-0.8,2.9-1.7,5.1-2.6c1.1-0.4,2.4-0.8,4-1
				c1.6-0.1,3.6,0.2,5.1,1c0.4,0.2,0.7,0.4,1,0.6l0.2,0.1v0.1l0.1,0.1l0.3,0.6c0.1,0.4,0.2,0.8,0.3,1.1c0.3,1.3,0.4,2.5,0.8,3.5
				c0.4,1,1.2,1.5,2,1.6c1.5,0.2,3-0.7,4.5-1.9c1.2-1,2.2-1.6,3.2-2.1s2.1-0.9,3.2-1.7c3-1.8,5.3-2.7,8.2-4.6c2.6-2.1,5-3.8,8-5.6
				c0.5-0.2,0.9-0.3,1.3-0.3c0.4,0,1.2-0.5,1.6-0.7c2.1-1.8,3.6-4.3,6-5.6c0.6-0.3,1.9-0.5,2,0.1c0.6,2.9-0.1,5.9-1.2,8.8
				C318.1,40.5,315.4,42.2,312.9,44.2L312.9,44.2z"/>
			<path class="st20" d="M258.6,50.8c1.5,0.8,3.2,1,5.2,0.5c1.6-0.6,3.2-1.4,4.9-2.1c0.9-0.4,1.8-0.7,2.7-1s1.9-0.4,2.9-0.3
				s1.9,0.7,2.4,1.4s0.8,1.6,1.1,2.5c0.3,0.9,0.5,1.8,1,2.5s1.2,1.2,2,1.4c1.6,0.4,3.2-0.3,4.4-0.9c1.2-0.7,2.3-1.3,3.2-1.9
				c1.8-1.1,2.8-1.9,2.8-1.9c0.2-0.5,1.6-1.6,3.5-2.9c2-1.5,4.6-3.2,7.2-5c5.2-3.5,10.1-7,10.1-7c1.5-0.7,4.8-1.7,4.8-1.7
				c2.5-1.3,2,0.4,0.8,2.4c-1.2,2.1-3.1,4.4-3.1,4.4c-1.7,0.8-2.7,2.4-3.4,3.8c-0.7,1.4-0.9,2.6-0.9,2.6c-0.6,1.1-2.6,3-4.5,4.5
				c-1.9,1.6-3.7,2.8-3.7,2.8c0,0.3-0.4,0.7-1,1.1c-0.3,0.3-0.7,0.5-1.1,0.7c-0.3,0.2-0.5,0.3-0.7,0.4c-0.4,0.2-0.7,0.3-1,0.5
				c-2.7,1.3-6.3,2.9-9.6,4c-1.7,0.4-3.3,0.9-4.8,1c-1.5,0.2-2.9,0.1-4.1-0.2c-1.2-0.3-2.1-0.9-2.6-1.4s-0.7-0.8-0.7-0.8
				c-0.9-1.3-1.4-2.5-2.2-3.6c-0.4-0.6-0.9-1.1-1.4-1.5c-0.1-0.1-0.3-0.2-0.4-0.3l-0.2-0.1c-0.1,0,0,0,0,0h0.1
				c0.1,0,0.3-0.1,0.4-0.1l0.2-0.1c-0.2,0.6,2.2-5.7,1.2-3v0.6c0,0.5,0.1,0.8,0.2,1.4c0.3,0.9,0.6,1.7,0.6,1.7l0.1,0.2h-0.1
				c-0.2,0.1-0.3,0.1-0.5,0.2c-0.4,0.2-0.9,0.6-1.3,0.9c-0.9,0.7-1.7,1.5-1.7,1.5c-0.1,0.2-0.2,0.3-0.4,0.4
				c-1.7,1.4-4.2,2.2-6.7,2.2s-4.9-0.8-6.8-1.9c-1.9-1.1-3.3-2.4-4.2-3.5c-0.5-0.5-0.8-1-1-1.3c-0.2-0.3-0.3-0.5-0.3-0.5
				c-0.3-1.3,0-2,0.5-2.4c0.5-0.3,1.2-0.4,2.1-0.3c0.9,0,1.8,0.1,2.6,0.1L258.6,50.8L258.6,50.8z"/>
			<path class="st20" d="M257.6,49.6c-1.4,1.9-1.7,4.1-1,5.9c0.2,1,0.5,1.9,0.9,2.5c0.4,0.6,0.7,1,0.7,1c2.2,1.1,4.6,1.5,6.8,1.2
				c2.2-0.2,4.3-1.1,6-2.2c2.3-1.2,3.7-2.2,4.1-2.6l0.1-0.1v-0.1l-0.1-0.1c-0.1-0.2-0.1-0.3-0.2-0.5c-0.1-0.4-0.2-0.6-0.3-0.8
				c-0.1-0.4-0.2-0.9-0.2-1c-0.1-0.1-0.1-0.2-0.1-0.2c-0.1-0.2-0.1-0.7-0.1-0.8v-0.3c-2.2,5.6-0.6,1.6-1.1,2.8
				c-0.2,0.1-0.5,0.2-0.7,0.3c0.2,0.2,0.4,0.4,0.7,0.6c0.5,0.5,0.9,1,1.3,1.6c0.8,1.1,1.3,2.3,2.4,3.5c0.5,0.6,1.3,1.1,2.1,1.4
				c0.9,0.4,1.7,0.5,2.6,0.6c1.7,0.1,3.3,0,4.9-0.4c0.8-0.2,1.6-0.4,2.3-0.5l2.1-0.6c1.3-0.4,2.4-0.7,3.2-1c0.8-0.3,1.2-0.4,1.2-0.4
				c-1.5,0.2-3.1,1.3-4.4,2.3c-0.6,0.5-1.2,1-1.6,1.4c-0.4,0.4-0.7,0.6-0.7,0.6c-0.7,0.1-1.4,0.3-2.2,0.6c-0.9,0.3-1.7,0.6-2.6,0.9
				c-1.7,0.5-3.8,1-5.8,0.9c-1,0-1.9-0.2-2.6-0.4c-0.7-0.2-1.2-0.3-1.7-0.5l-1.5-0.5c-0.5,0.1-1,0-1.6-0.3c-0.6-0.3-1.2-0.7-2-1.3
				c-0.2-0.2-0.4-0.3-0.6-0.5l-0.3-0.3l-0.1-0.1l-0.1-0.1h0.1l1.6-0.3l0.8-0.1h0.1c-3.7,9.2,4.9-12.5,4-10.3v0.3v0.1V52
				c0,0.2,0.1,0.4,0.1,0.6c0.3,1.6,1.6,4.4,3,6.6c0.4,0.6,0.7,1.1,1,1.5c0.1,0.2,0.1,0.1,0.1,0.1h-0.1c-0.8-0.6-1.7-0.5-2.2-0.4
				c-0.5,0.1-0.7,0.3-0.7,0.3c-0.3,0.2-0.6,0.4-0.9,0.7c-1.8,1.7-4,3-6.2,3.9s-4.5,1.3-6.7,1.4c-2.2,0.2-4.3-0.1-6.2-0.6
				c-1.9-0.5-3.6-1.2-5-2.1c-2.9-1.7-4.7-3.8-5.6-5.3c-0.5-0.7-0.8-1.4-1-1.8c-0.2-0.5-0.3-0.7-0.3-0.7c-0.4-1.1,0.1-1.9,1-2.5
				c0.5-0.3,1-0.5,1.6-0.8c0.6-0.2,1.1-0.5,1.6-0.8c2-1.1,3.5-2.4,3.5-2.4c0.5-1,1-1.5,1.6-1.6c0.5-0.2,1.2,0.1,1.9,0.3
				C256.1,49,257.6,49.6,257.6,49.6L257.6,49.6z"/>
			<path class="st20" d="M252.3,44c0,0-0.3,0.1-0.4,0c-0.1,0.1-0.3,0.1-0.4,0.1h-0.2c-0.4-0.4-0.7-0.2-1.2,0.4
				c-0.3,0.2-0.9,1.4-1.5,2.3c-0.2,0.3-0.2,0.8-0.4,1.2c-0.4,0.7-0.9,1.1-1.5,1.5c-0.5,0.4-1.1,0.9-1.4,1.8c-0.1,0.7-1.4,1.1-2.4,1
				c-0.4-0.1-1.2-0.8-2.8-1.9c-0.4-0.2-0.8-0.5-1.3-0.8l-0.4-0.2l-0.2-0.1l-0.1-0.1H238c0,0.1-0.3,0-0.2,0l-0.3-0.2
				c-0.1-0.1-0.2-0.1-0.4-0.2c-0.8-0.4-1.5-0.6-2.2-0.8s-1.5-0.4-2.3-0.5c-1.6-0.2-3.5-0.2-5.4,0.3c-1.9,0.5-3.9,1.5-5.4,2.7
				c-0.2,0.2-0.4,0.3-0.6,0.5l-0.3,0.2l-0.1,0.1c0.1-0.2-0.2,0.2-0.2,0.2h-0.1l-0.2,0.1c-0.1,0.2-0.3,0.4-0.5,0.6
				c-0.2,0.3-0.5,0.6-0.7,0.9c-0.2,0.2-0.3,0.5-0.5,0.7c-0.6,0.9-0.9,1.4-1,1.6c-0.1,0.1-0.2,0.3-0.3,0.4c-0.1,0.1-0.2,0.1-0.3,0.1
				c-0.2,0-0.4,0-0.5,0.1v0.5c0.1,0.8,0.6,1.6,0.9,2.6c0.1,0.7-0.2,1.7-0.8,2.4c-0.6,0.7-1.2,1.2-1.2,1.3c1,0.9,1.8,2.3,3.3,2.4
				c0.2,0,0.4,0.4,0.6,0.6c0.2,0.4,0.2,1.1,0,1.1c0.8-0.4-0.4,0.8-1.9,1.7s-3.3,1.6-2.6,0.9c-1.6,1.5-4.1,0.6-6.4,1.4
				c-0.8,0.2-1.7,0.8-2.5,1.3c-0.9,0.5-1.7,1.1-2.6,1.2c-1.4,0.4-3.1,0.7-3.6,1.9c-0.5,0.8-0.8,1.4-1.3,2c-1.4,1.2-3.2,2.3-3.6,4
				c-0.1,0.7,0,1.4,0.1,2.1c0.1,0.4,0.1,0.7,0,1c0,0.4-0.1,0.7-0.4,1c-0.4,0.5-0.4,1.5-0.8,1.6c-0.1,0-0.5-0.3-0.7-0.7
				c-0.3-0.4-0.5-0.8-0.5-1.1c-0.2-2.3,0.6-4.6,1.3-6.7c1.3-2.7,3.3-4.6,5.6-6.6c2-1.6,4.3-2.2,6.4-2.6c2.2-0.4,4.1-0.8,5.8-2
				c1-0.7,1.2-1.9,1.4-3c0-0.6,0.1-1.2,0.2-1.7c0.1-0.5,0.1-0.9,0.3-1.3c0.4-0.9,0.8-1.7,0.7-2.6c-0.1-1.4-0.6-2.6-0.4-3.2
				c0.1-0.1,0.1-0.2,0.3-0.4c0,0,0.2-0.5,0.4-0.9c0.1-0.4,0.3-0.9,0.6-1.4s0.5-1,0.9-1.6l0.3-0.4l0.4-0.6l0.4-0.6l0.1-0.2
				c1-1.2,2.1-2.4,3.4-3.4c1.2-1,2.6-1.7,3.9-2.3c0.3,0,0.9-0.2,1.5-0.3c0.6-0.1,1.2-0.2,1.4-0.2c1.5-0.5,2.5-0.8,4.1-1.3
				c1.1-0.5,2.2-0.8,3.5-1c0.6-0.1,1.2-0.2,1.9-0.2c0.3-0.1,0.8,0,1.2,0l0.7,0.1h0.4c2.5,0.2,4.8,0.8,6.6,1.2c1.8,0.5,3,0.8,3.8,0.7
				c0.3-0.1,0.6-0.2,0.7-0.4c0.1-0.2,0.2-0.4,0.3-0.7c0.2-0.3,0.3-0.8,0.3-0.7S251,41,251,41s0,0.1,0.1,0.2
				C251.3,42,251.7,43.2,252.3,44L252.3,44z"/>
			<path class="st20" d="M264.8,71.6c3.7,0.2,7-1,9.2-2.2c1-0.5,1.8-1.2,2.4-1.6c0.5-0.4,0.8-0.7,0.8-0.7c0.2-0.3,0.8-0.9,1.6-1.7
				c0.5-0.4,1-0.7,1.3-0.9c0.3-0.2,0.5-0.2,0.5-0.2c0.2,0.2,0.4,0.3,0.6,0.4l0.1,0.1c0,0,0.2,0.3-0.3-0.4c-0.4-0.5-0.7-0.9-1-1.3
				c-0.3-0.4-0.7-0.8-1-1.3c-0.7-1-1.2-1.7-1.8-2.6c-0.5-1-1-1.6-1.4-2.5l-0.3-0.6c-0.1-0.2-0.2-0.3-0.3-0.5
				c-0.1-0.4-0.3-0.7-0.4-1.1s-0.2-0.6-0.3-0.9c0-0.1-0.1-0.3-0.1-0.4c-0.1-0.2-0.1-0.3-0.1-0.4c-0.1-0.3-0.1-0.9-0.1-1v-0.3
				c5.3-13.5-7.3,18.5-6,15.2h-0.4l-0.5,0.1l-2.1,0.3l-0.5,0.1c-0.1,0-0.4,0-0.3,0.1l0.1,0.4l0.5,0.5c0.6,0.7,1.2,1.1,1.5,1.4
				c0.3,0.2,0.5,0.4,0.5,0.4l0.4,0.2c0.3,0.1,0.6,0.3,0.9,0.4l1.2,0.4c0.7,0.5,2.4,1.3,5,1.8c1.3,0.3,2.6,0.4,3.5,0.4
				s1.5-0.1,1.5-0.1c2.8-0.5,5.3-1.2,7.8-2.2c2.5-0.7,4.8-1.9,6.8-2.6c2-0.9,3.8-1.5,5-1.9c1.2-0.4,1.9-0.6,1.9-0.6"/>
			<path class="st20" d="M212.9,55.3c-0.1-0.2-0.1-0.3,0-0.6v-0.2c0-0.1,0-0.1,0.1-0.3c0.1-0.3,0.4-0.9,0.6-1.3
				c0.2-0.2,0.3-0.5,0.4-0.7c0.1-0.3,0.3-0.5,0.4-0.8c1.2-2.1,3.1-4.1,4.6-5.1c0.8-0.6,1.4-0.9,2-1.2c0.5-0.3,1-0.4,1.3-0.5
				c0.7-0.2,0.9-0.2,0.8-0.1c-1.4,0.9-2.8,2.1-4.1,3.4l-0.5,0.5l-0.2,0.3l-0.1,0.1l-0.1,0.1l-0.3,0.4l-0.1,0.2l-0.1,0.1l-0.2,0.3
				c-0.4,0.5-0.7,1-0.9,1.3c-0.2,0.4-0.4,0.7-0.6,1c-0.4,0.6-0.7,1.2-0.9,1.7l-0.3,0.7l-0.2,0.5c-0.1,0.3-0.1,0.4-0.1,0.6V56
				c0.1,0.4,0.4,1.4,0.3,2.6c-0.1,1.2-0.5,2.5-0.6,3.1c0,0.4-0.1,0.8-0.2,1.2c-0.1,0.4-0.2,0.8-0.4,1.3c-0.3,0.9-0.7,1.9-1.1,2.9
				c-0.5,0.9-1.7,1-2.8,1.5c-0.3,0.3-0.6,0.6-1,0.8c-0.6,0.3-1.3,0.7-2,1c-0.7,0.3-1.4,0.5-2.2,0.3c-2.9,1.1-5.7,2.8-8.1,5.3
				c-0.3,0.3-0.6,0.7-0.9,1c-0.3,0.3-0.5,0.7-0.8,1.1c-0.3,0.6-0.5,1.3-0.6,1.9c-0.1,0.6-0.2,1.3-0.3,1.9c0,0.6-0.1,1.2-0.3,1.8
				c-0.1,0.7-0.2,1.3-0.1,1.9c0.1,0.7,0.4,1.1,0.5,1.5c-0.1,0.3,0,1-0.3,0.9c-0.4,0-0.6-0.5-0.9-0.8c-0.8-1.7-1.5-3.7-1.2-5.8
				c0.4-2.5,1.5-5,3.1-7.1c1.6-2.1,3.6-3.8,5.8-5.1c0.8-0.5,1.7-0.3,2.6-0.5c1-0.1,2.1-0.6,3.1-0.9c1-0.3,1.9-0.5,2.9-0.3
				c0.2,0.1,0.6-0.1,0.8-0.3c0.9-1.4,1.7-2.7,2.4-3.9c0.4-0.6,0.7-1.2,0.9-1.8c0.1-0.6,0.2-1.1,0.2-1.6c0-0.7,0.2-1.8,0.1-2.7
				C213.3,56.3,213,55.5,212.9,55.3L212.9,55.3z"/>
		</g>
		<g id="XMLID_1488_" class="st25">
			<path class="st31" d="M239.5,221.6c-0.7,0.4-1.9,1-3,1.5c-1,0.4-1.9,0.5-2,0.3c0-0.3,0-0.6-0.2-0.9c-0.1-0.2,0.1-0.5,0.2-0.7
				c-0.3-0.7-1.2-0.9-2.3-1.1c-1.2-0.1-2.5-0.3-3.6-0.7c0-0.1-0.4,0.1-0.7,0.1c1.6,0.5-0.1,2.4-1.5,4.3c-0.6,0.7-1,1.5-0.6,1.9
				c0.4,0.2,1.7-0.4,1.8-0.1c0.3,0-1.1,0.2-0.5,3.6c-0.1,1.1-1,2.6-0.7,3.7c0.2,0.3,1,0.2,1.1,0.6c-0.1,1.5-0.5,3.1-1.3,5.1
				c-0.3,1.2-0.3,2.5,1.1,2c0.8-0.3,3.1-1.2,3.4-1.1c0.9,0.3,1.4,0.9,1.8,1.7c0.4,0.7,0.5,1.8,0.4,3c-0.1,1.2-0.2,2.6-0.3,3.9
				c-0.1,2.1,1.1,1.7,1.9,3.1c-0.5,2.5,1.3,2.5,2.4,3.4c0.3,0.1,1.1,0,1.3-0.1c1.2,0.2,2.5-0.3,3.9-0.7c2-0.5,2.6,1.8,4,2.7
				c1.3,0.6,2.8-3.1,4-5.4c0.8-1.4,1.6-2.9,2.4-4.1c0.8-1.2,1.5-2.1,2.2-2.2c0.5-0.1,1-0.1,1.4-0.3s0.9-0.6,1.3-1.4
				c0.9-1.8,1.7-3.8,2.2-6.5c0.1-0.5-0.1-1.1-0.2-1.2c-0.5-0.4-1.2,0.9-1.9,1.2c-0.1-0.1-0.3-0.1-0.3-0.3c0-0.3-0.1-0.4-0.2-0.5
				c-0.8-0.3-1.5,0-2.3,0.3c-0.8,0-1.2-0.4-2-0.5c-0.8,0-1.1-0.8-2.1-0.3c-1.2,0.4-1.8-0.1-2.2-2c-0.3-0.9-1.1-3-0.8-4.4
				c0.3-0.9-0.2-0.9,0-1.7c0.2-0.6,0.6-1.4,1-2.1c0.3-0.7,0.6-1.2,0.6-1.2c-0.2,0.1,0.2-0.4,0.5-1.3c0.9-2,1.1-3.1,0.2-2.9
				c-0.2,0-1.4,1.1-2.7,2.3c-1.3,1.1-2.8,2.4-3.2,2.9c-0.3,0.3-0.3-0.9-0.3-2.1c0-1.1,0-2.3-0.9-2.1
				C242.2,221.5,241.3,220.5,239.5,221.6L239.5,221.6z"/>
			<path class="st30" d="M254.8,245.1c0,0-0.6-0.2-1.3-0.6c-0.9-0.4-2.1-0.7-3.2-1.2c-0.6-0.2-1.2-0.5-1.7-0.7s-1-0.5-1.4-0.7
				l-1-0.5c-0.3-0.1-0.4-0.2-0.4-0.2s-0.2-0.8-0.3-1.9c-0.2-1.2-0.3-2.7-0.3-4.2s0.1-2.9,0.2-4s0.2-1.8,0.2-1.8
				c1.4-1.1,2.1-1.8,2.1-1.8c-0.2,0.8,0.3,0.8,0,1.7c-0.3,1.4,0.6,3.5,0.8,4.4c0.4,1.9,1,2.4,2.2,2c1-0.4,1.3,0.3,2.1,0.3
				c0.8,0.1,1.2,0.5,2,0.5c0.9-0.3,1.6-0.5,2.3-0.3c0.1,0.1,0.2,0.3,0.2,0.5c0,0.2,0.2,0.2,0.3,0.3c0.7-0.3,1.4-1.5,1.9-1.2
				c0.1,0.1,0.3,0.7,0.2,1.2c-0.5,2.8-1.3,4.8-2.2,6.5c-0.4,0.8-0.9,1.2-1.3,1.4C255.7,244.9,255.3,245,254.8,245.1L254.8,245.1z"/>
			<path class="st31" d="M245,235.7c0.2,1.4,1,2.3,1.8,2.9c0.8,0.5,1.8,0.7,2.5,0.7c0.4,0,0.7-0.1,0.9-0.1c0.2-0.1,0.3-0.1,0.3-0.1
				c0.4-0.6,2-0.6,3.6-0.8c0.8,0,1.6-0.1,2.1-0.2c0.5-0.1,0.9-0.1,0.9-0.1c0.2,0.1,0.4,0.4,0.6,0.7c0.2,0.3,0.4,0.5,0.4,0.5
				c0.6,0.4,0.2,1.5-0.5,2.5c-0.4,0.5-0.8,1-1.1,1.3l-0.5,0.5c-0.4-0.3-1.1,0.4-1.6,1.2s-1,1.7-1,1.7c-0.5,0.7-1.4,1-2.2,1.2
				c-0.8,0.3-1.5,0.3-1.5,0.3c-0.5,0.9-2-0.1-3.3-1.2c-0.6-0.6-1.2-1.2-1.6-1.7c-0.4-0.5-0.6-0.9-0.6-0.9c-0.4-0.9-1.1-1.1-1.7-1
				c-0.6,0.1-1.2,0.4-1.2,0.4c-0.5-0.6-1.6-1.5-1.6-1.5c-0.8-0.7,0.1-4.2,1.5-7.3c1.4-3.1,3.1-6,3.1-6c1.6-2.2,2-2,2.1-1.2
				c0.1,0.8-0.1,2.1-0.1,2.1C245,232.2,244.7,234.2,245,235.7z"/>
			<path class="st20" d="M247,228.4c-1,0.2-2.6,1.9-3.8,3.4c-1.3,1.6-2.2,3.1-2.2,3.1c-1.8,4.6-1.5,6.8-0.8,7.7
				c0.7,0.9,1.7,0.6,1.7,0.6c1-1,2.2,0.3,3.4,1.7c0.6,0.7,1.2,1.5,1.6,2.1c0.4,0.6,0.7,1,0.7,1c-0.2-0.6-0.6-0.5-1.1-0.2
				c-0.5,0.3-0.9,0.7-0.9,0.7c-0.4-0.6-1.6-0.3-2.7,0.1c-1.2,0.4-2.2,0.9-2.2,0.9c-1,1-1.9,0.7-2.4,0.2c-0.6-0.5-0.8-1.3-0.8-1.3
				c0.3-2.2-0.1-2.4-0.1-2.4c-1.6-1.4-1.4-5.5-0.4-8.9c0.4-1.7,1.1-3.3,1.6-4.5c0.5-1.2,0.9-1.9,0.9-1.9c0.8-1.4,2.6-2.6,4.1-3.5
				c0.7-0.4,1.4-0.8,1.9-1.1c0.5-0.2,0.8-0.4,0.8-0.4c1.6-1.5,1.7-0.8,1.5,0.2C247.6,227,247,228.4,247,228.4L247,228.4z"/>
			<path class="st20" d="M250.5,221.8l-0.5-0.1c0-0.4-0.4-0.4-1-0.1c-0.2,0.1-1.2,0.9-2,1.7c-0.3,0.3-0.6,0.7-0.9,1
				c-1.1,1-1.9,1.4-3.1,2.8c-0.4,0.5-1.2,1-1.6,1.1c-0.2,0-0.2-0.3-0.1-0.8c0.1-0.5,0.3-1.2,0.5-1.9c0.2-0.7,0.4-1.4,0.6-1.9
				s0.3-0.9,0.3-0.9c0-0.1,0.5-0.6,0.5-0.7c-0.3-0.2-1.3,0.3-2.2,0.7c-1.1,0.4-1.9-0.3-2-0.2c-1,0.8-2.3,1.7-2.9,2.5
				c-0.1,0.1-0.4,0.3-0.6,0.5c-0.3,0.3-0.9,0.5-0.8,0.4c0,0.6-1.7-0.9-0.9-1c-0.9,0,0.3-1.3,0-1.8c-0.1-0.4-1.4-0.2-1.1-0.8
				c0.1-0.4,0.4-0.9-0.4-0.8c-0.5,0-0.8,0.1-1.1,0c-0.4-0.3-0.2-0.9-1-0.9c-0.7,0-2.2,0.4-1.9-0.2c0.1-0.3-0.2-0.4,0.1-0.6
				c0.2-0.1,1.4-0.3,1.6-0.3c0.9,0.1,1.7,0.2,2.7,0.2c1.1,0.1,1.7,0.3,2.5,0.5c1.1,0.4-0.3,2.2,1.1,2.4c0.7,0.2,3.4-1.6,4.5-1.7
				c0.7-0.1,1.2-0.1,1.9-0.3c1.3-0.4,2.5-0.9,2.4-0.2c0,0.3,0.3,0.4,0.5,0.7c-0.1,0.1-0.1,0.3-0.2,0.4c0.1,0,0.3,0,0.6-0.2
				c1.2-0.8,2-1.1,2.7-1.3s1.4-0.4,2.3-1.1c0.3-0.2,0.8-0.5,0.8-0.3s0.2,0.2,0.1,0.5C251.5,219.9,250.9,220.9,250.5,221.8
				L250.5,221.8z"/>
			<path class="st20" d="M232.9,246.5c-0.3,1.7-0.2,2.7,0,3.2c0.2,0.6,0.5,0.7,0.5,0.7c0.5-0.2,1.3,1.3,1.3,1.3
				c-0.3,1,0.2,1.9,0.9,2.5c0.6,0.6,1.4,0.9,1.4,0.9l0.9-0.2c0.1,0.2,0.8,0.2,1.5,0.1c0.7-0.1,1.3-0.2,1.3-0.2
				c1.7-1,2.8-0.6,3.5-0.1c0.8,0.5,1.1,1.3,1.1,1.3"/>
			<path class="st20" d="M245.7,219.2c0.7,0.1,0.5,0.5,0.1,0.9c-0.1,0.2-0.3,0.4-0.4,0.6l-0.3,0.3c-0.5,0-0.2-0.8-0.9-0.7
				c-0.3-0.1-1.1,0.1-1.9,0.3c-0.8,0.2-1.7,0.3-2.2,0.5c-1.2,0.4-2.6,0.9-4.1,1.5c-0.7,0.2-0.5-0.2-0.7-0.4c-0.2,0-0.4,0.1-0.5,0
				c-0.2-0.2-1-0.2-0.3-0.9c-0.3-0.6-0.8-1-1.6-1.3c-0.2-0.2-0.4-0.2-0.7-0.3c-0.6,0-1.3,0.1-1.9,0.1c-0.6,0-0.8-0.3-1.4-0.3H228
				c0.1-0.1-0.2-0.2,0.1-0.3c0.4-0.1,0.7-0.2,1-0.2c1.2-0.1,2.4-0.3,3.3-0.3c1.1,0,2,0,2.8,0.1c0.8,0.1,1.4,0.2,1.8,0.5
				c0.1,0.1-0.2,0.5-0.3,0.7c-0.3,0.5,0.6,0.5-0.1,1.4c-0.1,0.2,0,0.2,0.1,0.2c1-0.3,1.8-0.5,2.7-0.8c0.9-0.2,1.8-0.5,2.6-0.8
				c0.5-0.2,1.4-0.4,2.1-0.5C244.9,219.4,245.5,219.2,245.7,219.2L245.7,219.2z"/>
		</g>
		<path id="XMLID_1487_" class="st20" d="M363,136.5c3.7-7.1-11.7-8.3-14.8-8.4c-9.9-0.4-19.8,2.6-27.9,8.5c0.1-0.1,0.8,0.6,0.9,0.5
			c5.7-4.1,12.2-6.9,19.1-8c6.5-1.1,15-1.3,20.9,1.9c-0.2-0.2-0.5-0.3-0.8-0.5c1.8,1.3,2.9,3.3,1.8,5.4
			C362.2,136,363,136.4,363,136.5z"/>
		<path id="XMLID_1486_" class="st20" d="M251.2,111.3c-11.3,5.9-23.8,9-36.6,9c0.3,0,0.6,0.5,0.9,0.5c12.8,0,25.2-3.1,36.5-9
			C251.9,111.9,251.3,111.2,251.2,111.3z"/>
		<path id="XMLID_1485_" class="st20" d="M199,177.1c-3.8,10.7-8,21.3-12.6,31.8l0.9,0.5c4.5-10.5,8.7-21.1,12.5-31.8
			C199.9,177.5,199,177.1,199,177.1z"/>
		<path id="XMLID_1484_" class="st20" d="M211.4,163.7c-6-1.3-12-2.7-18-4c0.3,0.1,0.6,0.4,0.9,0.5c6,1.3,12,2.7,18,4
			C211.9,164.1,211.7,163.7,211.4,163.7z"/>
		<path id="XMLID_1483_" class="st20" d="M227.4,187.7c-5.5,0.1-10.8-0.8-16-2.6c0.3,0.1,0.6,0.4,0.9,0.5c5.2,1.8,10.5,2.7,16,2.6
			C228,188.2,227.7,187.7,227.4,187.7z"/>
		<path id="XMLID_1482_" class="st20" d="M298.3,86.8c-0.2-1.4-2-2-3.2-2.3c-5.1-1.4-10.4-2.2-15.6-2.8c-10.7-1.2-21.5-0.7-32.1,1.2
			c0.3,0,0.6,0.5,0.9,0.5c8.3-1.5,16.7-2.1,25.1-1.7c4.1,0.2,8.1,0.6,12.1,1.2c3.8,0.6,8.4,1.1,12,2.7c-0.3-0.2-0.6-0.3-0.9-0.5
			c0.5,0.4,0.7,0.5,0.8,1.2C297.4,86.5,298.2,86.6,298.3,86.8z"/>
		<path id="XMLID_1481_" class="st20" d="M248.7,105.4c1.7-1.2-0.1-2.5-1.2-3.1c-2.4-1.3-5.2-2.2-7.8-3.1c-7.9-2.9-16-5-24.3-6.5
			c0.3,0.1,0.6,0.4,0.9,0.5c10.8,2,21.8,4.9,31.9,9.5c-0.3-0.2-0.6-0.3-0.9-0.5c1.1,0.7,1.9,1.9,0.6,2.7
			C248.1,104.8,248.7,105.5,248.7,105.4z"/>
	</g>
</g>
</svg>
