<?xml version="1.0" encoding="utf-8"?>
<!-- Generator: Adobe Illustrator 19.2.0, SVG Export Plug-In . SVG Version: 6.00 Build 0)  -->
<svg version="1.1" id="Слой_1" xmlns="http://www.w3.org/2000/svg" xmlns:xlink="http://www.w3.org/1999/xlink" x="0px" y="0px"
	 viewBox="0 0 332.4 216.1" style="enable-background:new 0 0 332.4 216.1;" xml:space="preserve">
<style type="text/css">
	.st0{fill:#FFFFFF;}
	.st1{fill:#2E0B01;}
	.st2{opacity:0.55;fill:#2E0B01;enable-background:new    ;}
	.st3{opacity:0.2;enable-background:new    ;}
	.st4{fill:#44A3BC;}
	.st5{fill:#CB242D;}
	.st6{fill:#DC5B2B;}
	.st7{opacity:0.5;}
	.st8{fill:#C5CB79;}
	.st9{fill:#E2001A;}
	.st10{fill:#B70718;}
	.st11{fill:#EFB886;}
	.st12{fill:#BBDBE8;}
	.st13{fill:#50542E;}
	.st14{opacity:0.1091;fill:#FFFFFF;enable-background:new    ;}
	.st15{opacity:0.5;fill:#CB242D;enable-background:new    ;}
	.st16{opacity:0.6;}
	.st17{fill:#EC9488;}
	.st18{fill:none;stroke:#50542E;stroke-linecap:round;stroke-miterlimit:10;}
	.st19{opacity:0.2;fill:#55721A;enable-background:new    ;}
	.st20{fill:#55721A;}
	.st21{fill:none;stroke:#FFFFFF;stroke-miterlimit:10;}
	.st22{fill:none;stroke:#C5CB79;stroke-width:2;stroke-miterlimit:10;}
	.st23{fill:#CDC09E;}
	.st24{opacity:0.1;fill:#44A3BC;}
	.st25{opacity:0.9;}
	.st26{opacity:0.9;fill:#44A3BC;enable-background:new    ;}
	.st27{opacity:0.1091;fill:#44A3BC;enable-background:new    ;}
	.st28{opacity:0.1091;fill:#55721A;enable-background:new    ;}
	.st29{opacity:0.4;}
	.st30{opacity:0.9;fill:#55721A;enable-background:new    ;}
	.st31{opacity:0.4;fill:#55721A;}
	.st32{fill:#D95929;}
	.st33{fill:#F68D1A;}
	.st34{fill:#FFC73B;}
	.st35{fill:#FABC14;}
	.st36{fill:#FCAD17;}
	.st37{fill:none;stroke:#FFFFFF;stroke-width:2;stroke-miterlimit:10;}
	.st38{fill:none;stroke:#44A3BC;stroke-width:20;stroke-miterlimit:10;}
	.st39{fill:none;stroke:#44A3BC;stroke-width:20;stroke-linejoin:round;stroke-miterlimit:10;}
	.st40{fill:none;}
	.st41{fill:#3B5998;}
	.st42{fill:none;stroke:#000000;stroke-width:2;stroke-miterlimit:10;}
	.st43{opacity:0.6;fill:#333333;}
</style>
<g>
	<g id="XMLID_803_" class="st7">
		<g id="XMLID_968_">
			<g id="XMLID_969_">
				<path id="XMLID_970_" class="st20" d="M107,111.8c-12.1-5.3-25.2-7.9-38.4-7.3c-1.5,0.1-2.9,0.2-4.4,0.3c-0.7,0.1-4.6,1-5.2,0.7
					c0.8,0.4-0.7-2.3-0.9-2.5c-1-0.9-2.7-1.4-4-1.9c-3-1.2-6.2-1.9-9.4-2.2h-5.3c-0.5-0.9,2.2-2.5,2.6-2.8c-0.9,0.3-1.9,0.5-2.8,0.8
					c0.8-0.1,1.7-0.1,2.5-0.2c0.4,0,2.7-1,2.9-0.8c-1.4-1.7-3.5-5-0.2-6.1c-0.9,0.3-1.9,0.5-2.8,0.8c3.5-0.2,6.9,0.1,10.2-1.1
					c7.7-2.6,1.9-12.9,8.9-15.4c-0.9,0.3-2,0.4-2.9,0.8c-7,2.5-1,12.7-8.6,15.3c0.9-0.3,1.9-0.5,2.8-0.8c-4.1,0.7-16.8-0.9-10.3,7.2
					c1-0.3,1.9-0.5,2.9-0.8c-1.9-0.2-5,0.3-6.6,1.6c-3.1,2.4-0.1,2,2,2c1.8,0,3.5,0.2,5.2,0.6c4.3,0.8,7.6,2.5,11,4.9
					c0.4,0.4,0.3,0.9-0.2,1.3c1.2-0.2,2.3-0.4,3.5-0.5c2.3-0.3,4.6-0.5,7-0.6c4.1-0.1,8.2,0,12.2,0.5c8.7,1,17.2,3.4,25.2,6.9
					C104.8,112.9,106.3,111.5,107,111.8L107,111.8z"/>
			</g>
		</g>
		<g id="XMLID_965_">
			<g id="XMLID_966_">
				<path id="XMLID_967_" class="st20" d="M59.8,69.4c0.7,0.6,1.5,1,2.4,1.1c0.3,0,2.9-0.7,2.9-0.8c0-1.4,0.1-2.8,0.1-4.2
					c0,0.3-2.9,0.5-2.9,0.8c0,1.4-0.1,2.8-0.1,4.2c1-0.3,1.9-0.5,2.9-0.8c-0.9-0.1-1.7-0.5-2.4-1.1c-0.1-0.1-1.3,0.3-1.5,0.4
					C61.1,69.1,59.9,69.5,59.8,69.4z"/>
			</g>
		</g>
		<g id="XMLID_962_">
			<g id="XMLID_963_">
				<path id="XMLID_964_" class="st20" d="M63,60.7c0.4,1.6,1.6,1.3,2.7,2.2c1.1,0.8,1.5,1.7,2.1,2.9c1.5,3.4,3,6,6.1,8.2
					c0.2,0.2,2.9-0.9,2.9-0.8c-1.4-4.5-2.3-8.9-2.7-13.6c0,0.2-2.9,0.5-2.9,0.8c-0.4,2.7,2.6,2.3,4.3,1.7c0.9-0.3,1.2-0.2,2-1
					c1.3-1.2,0.9-7.4,2.1-7.7c-0.7,0.2-1.5,0.4-2.2,0.6c1.9,1.7,3.2,1.5,5.4,0.9c3.6-1.1,4.4-4.7,7.5-6.3c-1,0.3-1.9,0.5-2.9,0.8
					c6,2-1.9,18.9-2.8,22.5c-1.5,5.5-0.2,15,7.6,14.1c2.7-0.3,6.4-1.5,4.3-4.7c-2.2-3.5-4-5.6-4.5-10c-0.3-3.1-1.1-9,1.7-10.9
					c-0.8,0.2-1.6,0.4-2.5,0.7c4.1-1,8.7-0.6,10.1-5.6c-1,0.3-1.9,0.5-2.9,0.8c-0.3,4.5,6.3,0.2,7.1-1.2c-0.4,0.6-2.5,0.1-2.9,0.8
					c-0.7,1.2-1.2,1.7-2.4,2.4c1-0.3,1.9-0.5,2.9-0.8c-1.4-0.2-1.9-0.5-1.8-2c0,0.3-2.8,0.4-2.9,0.8c-0.6,2.3-1.8,3.6-4.1,4.4
					c1-0.3,1.9-0.5,2.9-0.8c-3.1,0.4-7.3,0.4-8.1,4c-0.8,3.8-0.4,8.9,0.8,12.6c1,3,7.5,7.9,2.2,9.7c0.9-0.3,1.9-0.5,2.8-0.8
					c-5.8,0.3-8.7-5.6-8.2-10.7c0.7-7.1,4.8-13.2,5.3-20.5c0.2-3.2,0-5.8-3.4-5c-3.8,0.9-4.5,5.1-8.1,6.4c1-0.3,1.9-0.5,2.9-0.8
					c-2.7,0-3.1-2.1-5.8-0.8c-3.3,1.6-0.7,6.4-4.2,8.7c1-0.3,1.9-0.5,2.9-0.8c-1.5,0-2.5-0.6-2.2-2.2c-1,0.3-1.9,0.5-2.9,0.8
					c0.4,4.7,1.3,9.1,2.7,13.6c1-0.3,1.9-0.5,2.9-0.8c-3.2-2.3-4.5-4.8-6.1-8.2c-0.6-1.3-0.9-2.1-2.1-2.9s-2.4-0.6-2.7-2.2
					C65.9,59.9,63,60.6,63,60.7L63,60.7z"/>
			</g>
		</g>
		<g id="XMLID_959_">
			<g id="XMLID_960_">
				<path id="XMLID_961_" class="st20" d="M107.9,58.2c-0.3,2.5-0.6,5-0.8,7.5c0-0.3,2.6-0.4,2.9-0.8c2.9-4.1,6.7-7,11.4-8.8
					c-1,0.3-1.9,0.5-2.9,0.8c-4.4,5-8,10.6-10.8,16.6c0.2-0.4,2.4-0.6,2.9-0.8c3.2-1.5,6.4-2.9,9.5-4.4c-1,0.3-1.9,0.5-2.9,0.8
					c-2.5,6.3-5.2,12.7-7.6,19c-2.1,5.5-3.1,11.3,1.7,15.6c8.1,7.4,20.7,2.7,29.9,0.4c21.4-5.4,42.6-11.2,63.7-17.4
					c-0.7,0.2-1.9,0.5-2.8,0.7c-12,3.5-24,6.9-36.1,10.2c-7.1,1.9-14.2,3.8-21.4,5.6c-5.5,1.4-11.1,3.1-16.7,3.6
					c-7.1,0.6-16.3-2.3-17.2-10.6c-0.5-4.6,1.9-9.2,3.6-13.3c1.9-4.8,3.9-9.7,5.8-14.5c-0.1,0.4-2.5,0.6-2.9,0.8
					c-3.2,1.5-6.4,2.9-9.5,4.4c1-0.3,1.9-0.5,2.9-0.8c2.8-6.1,6.4-11.6,10.8-16.6c-0.4,0.5-2.3,0.5-2.9,0.8
					c-4.7,1.8-8.4,4.7-11.4,8.8c1-0.3,1.9-0.5,2.9-0.8c0.3-2.5,0.6-5,0.8-7.5C110.7,57.8,107.9,57.8,107.9,58.2z"/>
			</g>
		</g>
		<g id="XMLID_956_">
			<g id="XMLID_957_">
				<path id="XMLID_958_" class="st20" d="M121,107.5c6.9,0.6,13.5-1.3,20.1-3c7.1-1.8,14.2-3.7,21.3-5.6
					c15.8-4.3,31.5-8.8,47.1-13.6c-0.7,0.2-1.9,0.5-2.8,0.7c-12,3.7-24.1,7.2-36.3,10.6c-8.4,2.3-16.9,4.6-25.4,6.8
					c-6.9,1.8-13.9,3.9-21.1,3.3C122.9,106.7,121.9,107.6,121,107.5L121,107.5z"/>
			</g>
		</g>
		<g id="XMLID_953_">
			<g id="XMLID_954_">
				<path id="XMLID_955_" class="st20" d="M200.3,90c1.1-6.6,6.9-8.2,12.9-8.3c1.1,0,3.3,0.1,4.3-0.6c3.5-2.6-2.3-3.8-4.1-4.1
					c-4.7-0.7-7.5-4.9-6.1-9.5c-0.9,0.3-1.9,0.5-2.8,0.8c1.9-0.4,3.7-0.8,5.6-1.2c0.3-0.1,2.8-0.6,2.8-0.8c0.1-1.3,0.1-2.6,0.2-4
					c0.1-2.1-0.3-1.9,1.7-2.8c3.7-1.7,4.8,0,7,2.4c3.3,3.5,7.2,6.1,11.6,8.1c0.7,0.3,2.2-1.1,2.9-0.8c-8-4-6.5-15.9,2.7-16.9
					c1.9-0.2,4.3-0.2,6.3,0.2c2.1,0.5,3.5,2.1,4.9,3.8c2.7,3.3,3.4,7.4-0.7,9.8c0.9-0.2,1.8-0.5,2.7-0.7c-3.3,0.8,0-0.9,1.3-1.3
					c1.4-0.3,3-0.3,4.4-0.4c2-0.1,4.1,0.2,6.1,0c1-0.1,2-0.4,3-0.7c7.3-2.2,14.2-9.1,20-13.9c7.6-6.3,14.7-13,21.5-20.2
					c3.6-3.8,7-7.7,10.3-11.7c3-3.6,6.1-7.2,6.7-12c-1,0.3-1.9,0.5-2.9,0.8c0.7,3.5,2,6.7,4.5,9.4c0.7,0.7,1.4,1.4,2.2,2
					c-0.9,0.8-1.9,1.6-2.8,2.4c-1.4,1.2-2.8,2.4-4.1,3.6c-6.6,5.8-13.1,11.8-19.3,18.1c-5.8,5.8-11.2,11.9-16.8,17.7
					c-5.3,5.5-11.9,12.1-19.7,13.7c-0.3,0.1-2.7,0.9-2.8,0.8c1.2,1.3,1.9,2.3,2.6,3.9c1-0.3,1.9-0.5,2.9-0.8c-1.5,0.1-3,0.1-4.5,0.2
					c-0.3,0-2.9,0.6-2.9,0.8c-0.1,1.7,0,2.6,0.5,4.2c1-0.3,1.9-0.5,2.9-0.8c-7.5,0.7-14.6,3.5-19.7,9.2c1-0.3,1.9-0.5,2.9-0.8
					c-4.1-0.3-9.3,2-8.4,6.9c1-0.3,1.9-0.5,2.9-0.8c-1.7,0-3.4,0.1-5.1,0.1c-0.3,0-2.9,0.8-2.9,0.8c0.8,2.6,1,5,0.7,7.7
					c1-0.3,1.9-0.5,2.9-0.8c-4.4-1.4-8.8-1.8-13.4-1.4c-0.3,0-2.9,0.6-2.9,0.8c-0.2,1.3-0.3,2.6-0.5,4c1-0.3,1.9-0.5,2.9-0.8
					c-2-0.2-4-0.6-5.9-1.4c-0.9-0.4-1.8-0.8-2.7-1.4c-1.3-0.3-1.6-1-1-2c-0.7-3.6-0.6-6-4.2-8.1c-0.2-0.1-2.7,0.6-2.9,0.8
					c-3.2,3.4-4.3,7.5-3.3,12c0-0.1,2.7-0.6,2.9-0.8c1.4-1.2,2.5-2.1,4.4-2.7c-0.9,0.3-1.9,0.5-2.8,0.8c3.8-0.1,6.3,3.3,9.5,4.7
					c3.3,1.5,6.9,2.2,10.5,2.1c2.4-0.1,3.9-0.9,2.9,2.3c-0.2,0.8-2.6,3-2.6,3.1c0.1,0.7,7.5,0,7.9,0.7c0.9,1.7-1.3,2.8-2.5,3.3
					c1-0.3,1.9-0.5,2.9-0.8c-1.9,0.3-4,0.4-5.9,1.1c-5.3,2-2.3,7.1,0.5,10.2c1-0.3,1.9-0.5,2.9-0.8c-3.1-0.2-6.2-0.4-9.2-0.6
					c-1,0.3-1.9,0.5-2.9,0.8c6.8,0.3,12.2,4.7,13.9,11.3c1-0.3,1.9-0.5,2.9-0.8c-3.1-0.3-6.2-0.7-9.3-1c-0.3,0-2.9,0.6-2.9,0.8
					c-0.4,3.5-2.3,5.7-5.5,7.1c0.9-0.3,1.9-0.5,2.8-0.8c-5.5,1.1-9.7-3.2-9.2-8.6c0,0.4-2.7,0.4-2.9,0.8c-2.6,4.4,3.5,7.9,6.5,10
					c2.1,1.5,4.2,2.9,6.2,4.4l3.9,2.7c1.3,0.9,3.3,1.3,1,2.1c0.9-0.3,1.9-0.5,2.8-0.8c-4,0.9-7.3,0-10.3-2.6
					c-0.4-0.3-2.7,1.1-2.9,0.8c1.5,2.1,2.8,4.2,3.9,6.5s2.4,3.9-0.5,5c1-0.3,1.9-0.5,2.9-0.8c-2.2,0.3-3.7-0.2-5.1-1.8
					c-0.3-0.3-2.7,1.1-2.9,0.8c2.3,3.2,2.8,6.6,1.7,10.3c1-0.3,1.9-0.5,2.9-0.8c-5-0.2-8.9-3-10.7-7.8c0,0-2.9,0.6-2.9,0.8
					c-1.3,5.9-1,11.5,0.8,17.2c1-0.3,1.9-0.5,2.9-0.8c-2.5-0.2-3.8-1.2-4.6-3.5c0,0-2.7,0.6-2.9,0.8c-1.7,1.8-3.5,3.2-6.1,3.4
					c-3.4,0.3-3-1.2-3.2-4.1c0,0.2-2.7,0.5-2.9,0.8c-1.5,2.5-4.2,6.1-7.2,7.1c-4.9,1.6-4.4-4.6-3-7.8c-1,0.3-1.9,0.5-2.9,0.8
					c0.1,2.1-0.5,3.1-2.3,4.1c1-0.3,1.9-0.5,2.9-0.8c-0.2-1.8-0.4-3.7-0.7-5.5c-0.3-2.1,0.3-3.5-1.8-3.7c-0.4,0-0.9,0.2-1.3,0.3
					c-3,0.7-5.3,1.9-5.7,5.3c1-0.3,1.9-0.5,2.9-0.8c-1.6-0.1-3.6,0-5.1-0.5c-1.4,0.4-2,0.1-1.8-1.1c-0.1-0.9-0.1-1.8-0.2-2.7
					c0-0.6-0.1-5.1-0.4-5.5c-0.4-0.4-2.7-0.1-3.4,0c-2,0.2-4.1,1-6,1.6c0.9-0.3,1.9-0.5,2.8-0.8c-0.1-0.8,0.1-1.7,0.4-2.4
					c0.3-0.8,0.8-1.4,1.5-1.9c-0.1-0.3-4.8,0.5-5.5,0.3c-2.3,0.5-2.5,0.2-0.5-0.8c0.9-0.6,1.7-1.3,2.5-2c1.2-1.1,2.4-2.2,3.4-3.5
					c1.4-1.6,2.7-3.4,3.8-5.2c0.6-0.9,1.1-1.9,1.6-2.8c-0.5-0.1-1-0.2-1.5-0.2c-1.5-0.9-4-1.1-5.7-1.9c-1.6-0.8-3.1-1.7-4.5-2.8
					c-2.7-2.2-0.5-2.4,2.4-3.4c1.5-0.5,3-0.8,4.4-1.4c2.5-1.1,5-2.9,5.2-5.8c0.5-5.1-3.7-2.7-7-3.1c-3.2-0.4-2.8-0.8-0.3-2.1
					c2.1-1.1,5.2-1.5,7.5-2.2h0.1c-0.7-3-5.8-1.1-6.7-5.1c-1.2-5.6,4.4-7.2,8.8-7.3c0.3,0,2.9-0.7,2.9-0.8c-0.1-2.8-1-4.7-3-6.6
					c-1,0.3-1.9,0.5-2.9,0.8l19.8,0.6c3.3,0.1,6.5,0.3,9.7-0.5c8-2,9.1-8.5,8.6-16c0,0.1-2.6,0.6-2.9,0.8
					c-20.5,14.8-46.9,12.9-70.6,17.9c-6.7,1.4-13.5,3.2-19.8,6c-0.8,0.3-7.4,3.2-7.2,3.7c0.1,0.3,6.9,1.6,7.8,1.9
					c4.8,1.7,9.1,4.5,10.4,9.7c0,0,2.7-0.7,2.9-0.8c0.6-0.2,1.2-0.5,1.8-0.7c-0.9,0.2-1.8,0.5-2.7,0.7c2.5-0.3,4.8,0.3,6.7,1.9
					c2.8,2.5,1.3,4.8,2.7,7.8c1.2,2.4,11.8,5.6,7,9.5c1-0.3,1.9-0.5,2.9-0.8c-3.4-0.4-6.9,0.3-10.1,1.4c-1.6,0.6-3.9,1.5-5,2.9
					c-1.2,1.5-0.9,0.7,0.5,1.7c0.9,0.6,2,1,3,1.5c2.2,1.2,4.2,2.6,6.1,4.2c0.8,0.7,1.7,1.5,2.4,2.3c1.1,1.1,2.3,1.5,0.6,2.5
					c0.9-0.2,1.8-0.5,2.7-0.7c-2.1,0.5-3.1,0.2-4.8-0.7c-0.2-0.1-2.9,0.9-2.9,0.8c0.8,3.2,0.5,5.8-1.2,8.7c1-0.3,1.9-0.5,2.9-0.8
					c-2.4-1.2-4.9-2.4-7.3-3.6c-0.2-0.1-2.9,0.9-2.9,0.8c0.5,2.4,1.1,4.8,1.6,7.3c1-0.3,1.9-0.5,2.9-0.8c-2.9-0.4-5.4-1.4-7.6-3.3
					c-2.4-2.2-2.6-4.7-4.3-7.1c0.2-1.6-0.4-2-2-1.2c-0.6,0.1-1.2,0.2-1.7,0.2c-0.1,0-0.3,0.1-0.4,0.1c-0.6,0.1-1.7,0.2-2.2,0.6
					c-4.1,2.9,1.6,8.1,3.9,9.9c4,3.2,8.3,9.5,0.9,12.1c1-0.3,1.9-0.5,2.9-0.8c-2.9,0.2-4.9-1-6.1-3.8c-1,0.3-1.9,0.5-2.9,0.8
					c2.1,2.9,1.5,6.4-1.7,8.1c0.5-0.1,1-0.3,1.4-0.4l-1.2,0.3c0.5-0.1,1-0.2,1.5-0.4c-2.3,0.1-3.8-0.5-5.2-2.3
					c-0.2-0.2-2.9,0.9-2.9,0.8c0.8,2.7-0.1,4.7-2.5,6.2c0.9-0.2,1.8-0.5,2.7-0.7c-3.7,0.9-6.1-2.2-5.6-5.5c-0.1,0.4-2.6,0.4-2.9,0.8
					c-4.8,7-4,17.7-12.8,21.5c0.8-0.2,1.6-0.4,2.5-0.7c-2.9,0.8-3,0.6-3.4-1.7c-0.3-1.5-0.1-3.2-0.1-4.7c-0.1-3.1,0.3-6.5-0.3-9.5
					c-0.5-2.7-1.9-4.5-4.6-4.1c-2.9,0.4-2.8,1.7-2.6,4.6c0.2,4.7,2.1,12.2-3.1,14.7c0.9-0.3,1.9-0.5,2.8-0.8
					c-6.2,1.5-9.1-5.9-3.8-9.2c-0.8,0.5-2,0.4-2.9,0.8c-3.5,1.4-8.6,2.3-11.2-1.2c-2.5-3.3-0.4-7.7,3.3-8.9
					c-0.9,0.3-1.9,0.5-2.8,0.8c-1,0.5-5.7,2.5-6.7,1.5c-0.8-0.7-0.4-2.7-0.2-3.5c0.9-2.6,3.7-4,6-5c-0.9,0.3-1.9,0.5-2.8,0.8
					c3.8-0.9,11.8-0.4,15.1-3.5c1.2-1.1,2.1-0.7,0.3-1.8c-0.9-0.6-2.4-0.3-3.4-0.2c-0.6,0.1-1,0.2-1.6,0.3c-2.8,0.6-5.4,1.7-8.2,2.6
					c0.9-0.3,1.9-0.5,2.8-0.8c-2.2,0.4-4.8,0.5-6.3-1.4s-0.6-3.8,1.4-4.8c-1,0.3-1.9,0.5-2.9,0.8c0.7-0.2,1.4-0.1,1.9,0.4
					c1-0.3,1.9-0.5,2.9-0.8c-5.3-1.1-8.4-6.5-6.5-11.7c-1,0.3-1.9,0.5-2.9,0.8c2.5,0.4,6-0.3,8.3-1.7c0.9-0.6,3.3-2.4,3.1-3.7
					c-0.2-1.2-3.8-1.8-5.3-2.3c-1.4-0.5-5.2-1.6-5.9-2.9c-0.6-1-0.3-0.9,1-1.7c1-0.7,2.1-1.1,3.2-1.6c-0.6,0.2-1.2,0.3-1.8,0.5
					c0.5-0.1,0.9-0.2,1.4-0.4c-0.4,0.1-0.7,0.2-1.1,0.3c0.9-0.2,1.9-0.3,2.9-0.3c0.8,0,2.1-1,2.9-0.8c-4.8-1.1-2.2-7.3,1.3-8.3
					c-0.9,0.2-1.8,0.5-2.7,0.7c3.3-0.2,6,1,8.9,2.5c1-0.3,1.9-0.5,2.9-0.8c-4.8-0.7-9.4-7.5-2.9-9.6c-0.9,0.3-1.9,0.5-2.8,0.8
					c1.9-0.3,3.4,0.1,4.4,1.9c0,0,2.7-0.6,2.9-0.8c1.5-1.4,2-2.6,2.1-4.7c-1,0.3-1.9,0.5-2.9,0.8c3.5,0,6.9,0.4,10.3,1.4
					c0.3,0.1,2.9-0.9,2.9-0.8c-0.4-1.4-0.9-2.6-1.8-3.8c-1.1-1.3-3.2-1.4-0.8-2.5c-0.9,0.3-1.9,0.5-2.8,0.8c5.1-1.2,9.7,2,14.8,1.5
					c1.2-0.1,2.5-0.5,3.6-0.8c7.2-2.1,10.9-8.6,14-14.9c-0.3,0.6-2.6,0.2-2.9,0.8c-2.9,6-6.6,12.6-13.4,14.7
					c0.9-0.3,1.9-0.5,2.8-0.8c-5.7,1.1-11-2.5-16.7-1.1c-0.7,0.2-1.6,0.3-2.2,0.6c-2.5,1.5-1.1-0.3-0.3,1.5c0.8,1.7,2.2,2.8,2.8,4.8
					c1-0.3,1.9-0.5,2.9-0.8c-3.4-1-6.7-1.4-10.3-1.4c-0.3,0-2.9,0.6-2.9,0.8c-0.1,2-0.6,3.2-2.1,4.7c1-0.3,1.9-0.5,2.9-0.8
					c-1.4-2.8-4.5-2-6.9-1.2c-6.4,2.2-2.9,8.9,2.5,9.7c0.7,0.1,2.3-1.1,2.9-0.8c-3.8-2-7.2-3.1-11.3-1.9c-1.8,0.5-3,0.8-3.9,2.5
					c-1.2,2.3-0.7,5.3,2,5.9c1-0.3,1.9-0.5,2.9-0.8c-3,0.1-6.4,0.9-9.1,2.3c-0.6,0.3-2.1,0.9-2.4,1.6c-0.5,1,0.4,1,1.6,1.7
					c1.9,1.1,3.9,2,6,2.7c0.7,0.3,2.6,0.5,3.2,1c0.9,0.8,0.7,0.5,0.1,1.9c-0.7,1.7-2.6,2.8-4.3,3.4c0.9-0.3,1.9-0.5,2.8-0.8
					c-1.2,0.4-2.4,0.4-3.6,0.1c-0.3,0-2.8,0.6-2.9,0.8c-1.8,5.1,1.2,10.5,6.5,11.7c0.7,0.2,2.3-1.1,2.9-0.8
					c-3.1-1.7-9.6,2.1-5.9,5.6c3.6,3.4,10.6-0.6,14.4-1.6c-0.7,0.2-1.5,0.4-2.2,0.6c1.3-0.2,3.6-0.6,4.7,0.4s-1.4,1.8-2.5,2.2
					c-2.5,0.8-5.3,0.7-7.8,1.3c-1.6,0.4-3.3,0.8-4.8,1.6c-1.9,1-5.3,3.7-4.4,6.4c0.7,2.1,3.7,1,5.6,0.6c2.5-0.6,5-1.4,7.4-2.5
					c-0.9,0.4-1.9,0.5-2.8,0.8c-2.9,0.9-5,3.6-4.3,6.8c0.8,3.9,4.9,4.8,8.3,4.4c3.3-0.3,6.7-1.5,9.7-2.7c-1,0.3-1.9,0.5-2.9,0.8
					c-3.4,2.1-4.1,7.8,0.4,9.3c1.7,0.5,3.5,0,5.1-0.5c2.1-0.6,3.7-1.5,4.4-3.8c1-3.3-2.1-13.7,0.6-15.3c-1,0.3-1.9,0.5-2.9,0.8
					c5.5,0,4,11.6,4,14.8c0,0.6-0.3,5.2,0.1,5.6s2.1,0.1,2.6,0.1c0.9-0.1,1.8-0.4,2.6-0.7c10.1-3,9.2-14.6,14.3-21.9
					c-1,0.3-1.9,0.5-2.9,0.8c-1.2,8.6,13.6,6.5,11.2-1.4c-1,0.3-1.9,0.5-2.9,0.8c4.4,5.4,16,0.1,11-6.9c-0.2-0.2-2.8,1-2.9,0.8
					c1.8,4.3,7.9,4.8,11.3,1.8c8.7-7.6-12.7-12.6-7.4-20.8c-1,0.3-1.9,0.5-2.9,0.8c1.2-0.2,2.3-0.3,3.5-0.5c0.1,0.9,0.3,1.9,0.6,2.7
					c0.5,1.6,1.4,3,2.4,4.3c2.4,2.8,5.5,4.4,9.1,4.9c0.3,0,2.9-0.8,2.9-0.8c-0.5-2.4-1.1-4.8-1.6-7.3c-1,0.3-1.9,0.5-2.9,0.8
					c2.4,1.2,4.9,2.4,7.3,3.6c0.2,0.1,2.8-0.6,2.9-0.8c1.7-2.8,2.1-5.4,1.2-8.7c-1,0.3-1.9,0.5-2.9,0.8c2.3,1.4,4.4,1,6.8,0.2
					c0.4-0.1,1.3-0.2,1.6-0.6c0.9-1.2-4.1-4.9-5.5-5.9c-2.2-1.6-5-2.5-7.2-4.2c-1.6-0.1-2-0.5-1-1.2c0.5-0.5,1.1-1,1.7-1.4
					c1.2-0.9,2.4-1.4,3.9-1.8c2.1-0.5,4.6,0.3,6.6-0.7c2.7-1.4,1.5-4.2-0.8-5.7c-1.8-1.2-4.2-1.4-5.4-3.4c-1.3-2.2-0.3-4.9-1.9-7
					c-3-4.2-8.6-3.6-12.7-1.6c1-0.3,1.9-0.5,2.9-0.8c-1.3-5.2-5.6-8-10.4-9.7c-1.3-0.5-6.3-0.8-7.1-1.8c-1.1-0.1-0.9-0.3,0.6-0.9
					c0.6-0.4,1.3-0.7,2-1c1.1-0.6,2.2-1.1,3.3-1.6c12.6-5.6,26.6-6.8,40.1-8.5c17.6-2.2,36.2-5.1,51-15.7c-1,0.3-1.9,0.5-2.9,0.8
					c0.4,6.2,0.2,13.3-6.8,15.4c0.9-0.3,1.9-0.5,2.8-0.8c-9,1.6-19.3-0.1-28.4-0.3c-0.5,0-2.6,1-2.9,0.8c2.1,1.9,2.9,3.8,3,6.6
					c1-0.3,1.9-0.5,2.9-0.8c-3.8,0.1-10.5,0.5-13.3,3.8c-2.2,2.6-1.9,6.9,1.5,8.2c1.5,0.6,6,0.4,2.1,2.5c-2.7,1.5-6.5,1.9-9.4,2.8
					h-0.1c1.9,0.7,3.7,1.1,5.7,1.2c1.2,0,3.9-0.6,4.9,0.4c1.6,1.7-0.2,5-1.5,6.3c-2.4,2.5-6.1,2.7-9.2,4c-0.5,0.2-1,0.4-1.4,0.6
					c-1.7,0.4-1.7,1.1-0.2,1.8c0.7,1.1,2.7,2,3.7,2.6c1.3,0.7,2.7,1.4,4.1,1.8c0.4,0.1,4.2,0.6,4.4,1c0.7,1.4-5.6,8.3-6.5,9.3
					c-1.1,1.2-2.3,2.3-3.6,3.3c-0.6,0.5-1.3,1-1.9,1.5c-1.2,0.7-0.8,0.8,1.2,0.4c0.3,0,5.5-0.5,5.5-0.3c-0.7,0.5-1.2,1.2-1.5,1.9
					c-0.3,0.8-0.5,1.6-0.4,2.4c0-0.1,2.6-0.7,2.8-0.8c1-0.2,1.9-0.3,2.9-0.1c1.1-0.2,1.5,0.4,1,1.9c0.4,1.4,0.3,3.2,0.4,4.6
					c0.2,2.4-0.3,2.2,1.9,2.9c1.5,0.5,3.6,0.3,5.1,0.5c0.3,0,2.9-0.6,2.9-0.8c0.3-2.6,1.4-3.9,4-4.8c-0.9,0.3-1.9,0.5-2.8,0.8
					c2.1,0,1.6,1.7,1.8,3.7c0.2,1.8,0.4,3.7,0.7,5.5c0-0.1,2.6-0.7,2.9-0.8c1.9-0.9,2.5-2,2.3-4.1c0,0.2-2.8,0.5-2.9,0.8
					c-1.4,3.1-1.3,5.8,0.4,8.9h0.1c6.4-1.3,12-3.8,15.6-9.7c-1,0.3-1.9,0.5-2.9,0.8c0.2,2.3-0.4,3.4,1.7,4c0.8,0.2,2.1,0.1,3-0.1
					c0.9-0.1,1.8-0.4,2.6-0.6c3-0.8,5.5-1.9,7.7-4.2c-1,0.3-1.9,0.5-2.9,0.8c0.8,2.3,2.2,3.4,4.6,3.5c0.3,0,2.9-0.8,2.9-0.8
					c-1.8-5.7-2.1-11.3-0.8-17.2c-1,0.3-1.9,0.5-2.9,0.8c1.7,4.7,5.6,7.6,10.7,7.8c0.3,0,2.8-0.6,2.9-0.8c1.1-3.7,0.6-7.1-1.7-10.3
					c-1,0.3-1.9,0.5-2.9,0.8c2.1,2.3,4.6,2.1,7.3,1.2c0.8-0.3,2.3-0.5,2.7-1.3c1-1.9-4.5-9.2-5.5-10.4c-1,0.3-1.9,0.5-2.9,0.8
					c3.3,2.8,9.2,4.2,13.2,1.8c0,0,1.3-0.5,1.4-0.5c0-0.1-3.5-2.4-3.9-2.7c-2.3-1.6-4.7-3.3-7-4.9c-3.2-2.2-10.9-6.2-8-11.1
					c-1,0.3-1.9,0.5-2.9,0.8c-1.1,11.7,16.5,10.9,17.7,0.7c-1,0.3-1.9,0.5-2.9,0.8c3.1,0.3,6.2,0.7,9.3,1c0.3,0,2.9-0.8,2.9-0.8
					c-1.7-6.6-7.1-10.9-13.9-11.3c-1,0-2,0.8-2.9,0.8c3.1,0.2,6.2,0.4,9.2,0.6c0.4,0,2.7-1,2.9-0.8c-2.7-2.9-5.8-8-0.7-10.1
					c-1,0.3-1.9,0.5-2.9,0.8c2-0.3,5.4-0.4,7.2-1.6c0.7-0.4,1.2-1,1.5-1.8c0.2-1.3-0.5-1.7-2.1-1.2c-1.3-0.1-2.6-0.2-3.9-0.4
					c-2.3,0.2-2.6-0.1-0.8-1c0.4-1.3,2-2,1.7-3.6c-0.4-2.3-2.6-0.9-4.7-1c-3.6-0.1-7.2-1-10.3-2.8c-2.7-1.5-4.8-4.3-8.2-4
					c-2.7,0.2-5.3,1.8-7.3,3.5c1-0.3,1.9-0.5,2.9-0.8c-1-4.5,0.1-8.6,3.3-12c-1,0.3-1.9,0.5-2.9,0.8c3.6,2.1,3.5,4.5,4.2,8.1
					c-0.7,1-0.3,1.7,1,2c0.9,0.5,1.8,1,2.7,1.4c1.9,0.8,3.8,1.2,5.9,1.4c0.3,0,2.9-0.6,2.9-0.8c0.2-1.3,0.3-2.6,0.5-4
					c-1,0.3-1.9,0.5-2.9,0.8c4.6-0.4,9,0,13.4,1.4c0.2,0.1,2.9-0.7,2.9-0.8c0.4-2.7,0.2-5.1-0.7-7.7c-1,0.3-1.9,0.5-2.9,0.8
					c1.7,0,3.4-0.1,5.1-0.1c0.3,0,2.9-0.8,2.9-0.8c-0.5-2.8,0.7-4.7,3.1-6c-0.9,0.3-1.9,0.5-2.8,0.8c1.6-0.4,3.6-0.1,5.1-0.9
					c1.6-0.8,2.9-3,4.5-4.1c2.9-2.1,6-3.3,9.6-3.6c0.3,0,2.9-0.8,2.9-0.8c-0.5-1.6-0.7-2.6-0.5-4.2c-1,0.3-1.9,0.5-2.9,0.8
					c1.5-0.1,3-0.1,4.5-0.2c0.3,0,2.9-0.9,2.9-0.8c-0.7-1.6-1.4-2.6-2.6-3.9c-0.9,0.3-1.9,0.5-2.8,0.8c14.6-2.9,23.5-13.3,33.3-23.8
					c7.3-7.8,14.9-15.2,22.7-22.4c2-1.8,4.1-3.7,6.1-5.5c1.3-1.1,4.9-3.2,5.5-4.7c1.1-0.5,0.9-1-0.5-1.5l-1.1-1.1
					c-0.7-0.7-1.3-1.5-1.9-2.4c-1.4-2.2-2.2-4.5-2.6-7c0,0.1-2.9,0.5-2.9,0.8c-0.8,6.3-6.1,11.3-10,16c-4.7,5.5-9.7,10.8-14.9,15.8
					c-5,4.8-10.2,9.4-15.6,13.8c-5.2,4.2-11.1,9.9-17.4,12.1c1-0.3,1.9-0.5,2.9-0.8c-5,0.7-9.9,0-14.9,1.2c-2,0.5-4,1.1-6,1.7h-0.1
					c2,1,5.4,0.2,7-1.3c3.2-2.9,1.3-6.8-1-9.4c-1.4-1.5-2.5-2.9-4.4-3.3s-4.3-0.3-6.3-0.2c-2.8,0.2-6.2,0.9-8.7,2.2
					c-6.9,3.4-6.6,12.9,0.1,16.3c1-0.3,1.9-0.5,2.9-0.8c-3.9-1.7-7.5-4-10.6-7c-1.3-1.3-2.6-3.5-4.2-4c-1.5-0.4-3.9,0.3-5.4,0.7
					l-2.4,0.6c-0.8,0.2-2,0.3-2.6,0.8c-1.4,1.2-0.9,4.6-1,6.6c0.9-0.3,1.9-0.5,2.8-0.8c-1.9,0.4-3.7,0.8-5.6,1.2
					c-0.4,0.1-2.8,0.5-2.8,0.8c-1.1,3.4,0.2,7.3,3.6,8.9c1.9,0.9,9.7,0.4,7,4.6c1-0.3,1.9-0.5,2.9-0.8c-7.3-0.1-18.9,0.7-20.5,9.8
					C197.4,90.3,200.2,90.4,200.3,90L200.3,90z"/>
			</g>
		</g>
		<g id="XMLID_950_">
			<g id="XMLID_951_">
				<path id="XMLID_952_" class="st20" d="M103.8,112c-8,3.3-16.1,6.5-25,6c-5.9-0.4-11.5-2.4-16.7-5c-10.8-5.4-20.2-13.2-31.8-17.2
					c-0.4-0.1-2.6,0.5-2.9,0.8c-2.2,1.9,0.9,3.2,2.1,4.5c2.1,2.2,1,4.5-1.4,5.9c0.9-0.3,1.9-0.5,2.8-0.8c-2.4,0.5-3.9,0.2-6.2-0.3
					c-0.3-0.1-2.8,0.9-2.9,0.8c1.9,3.5-2.5,5.7-5.2,6.7h-0.1c4.1,2.3,7.4,5.2,10.3,9c1-0.3,1.9-0.5,2.9-0.8c-4-0.4-7.9-0.9-11.9-1.3
					c-0.8-0.1-2.2,1.1-2.9,0.8c1.8,0.8,5.2,2.2,6.1,4.1c0.8,1.7,0.8,1.3-1.1,2.6c-1.2,0.8-2.3,1.5-3.6,2.1c-0.5,0.3-2.8,1-3,1.5
					c0,0.1,0.7,2.6,0.7,3c0,2.5-1.2,4.4-3.1,5.9c0.7-0.5,2.1-0.4,2.9-0.8c0.3-0.1,0.6-0.3,0.9-0.4c-1,0.3-1.9,0.5-2.9,0.8
					c4.7,0.6,2.9,5.1,0.4,7.3c-2,1.8-6.4,3.7-5.1,7.2c0.9,2.4,2.2,0.4-0.1,2.7c-1.1,0.7-2.2,1.3-3.3,2c-2.1,0.6-2.2,1.3-0.3,2.1
					c1.5,2.5,3.6,1.5,1.1,4.6c-1.2,1.6-2.7,2.6-4.5,3.6h0.1c2.9-0.7,5.5,0.2,7.5,2.5s1.4,4,1.8,6.7c-0.9,1.1-0.5,1.6,1,1.6
					c0.5,0.2,1,0.3,1.4,0.5c1.9,0.7,2.7,0.3,2.6,2.2c-0.1,2.5-4.9,3.9-1,5.1c1.7,0.5,4.4-0.3,6-0.9c4.4-1.7,5.3-6,5.7-10.3
					c0.4-5.9-1.2-14.8,2.7-19.7c1.9-2.5,4.3-3.8,5.5-6.8c1-2.7,1.1-5.6,0.9-8.4c-0.2-5.1-1.4-10.3,0-15.3c0.7-2.3,1.7-4.4,3.6-6
					c2.1-1.7,5.1-1.8,6-4.7c-1,0.3-1.9,0.5-2.9,0.8c-0.7,10.8,16,4.8,21.2,5.8c3.5,0.6,5.3,4.5,8.9,4.2c1-0.1,2.3-0.5,3.3-0.9
					c3.6-1.4,5.6-5.3,9.2-6.8c4.8-2.1,10.9-0.6,16-1.5c4.5-0.9,9.1-2.2,11.8-6.3c-0.4,0.6-2.5,0.1-2.9,0.8
					c-4.9,7.6-14.9,4.4-22.5,6.2c-1.3,0.3-2.6,0.6-3.8,1.1c-4.4,1.6-6.7,6.1-11,7.5c0.9-0.3,1.9-0.5,2.8-0.8
					c-3.2,0.1-4.6-2.9-7.4-3.9c-3.3-1.2-7.1-0.1-10.4,0.4c-4.7,0.7-12.7-0.1-12.2-6.5c0,0.4-2.8,0.4-2.9,0.8c-0.9,3-4.3,3.1-6.5,5
					c-2.1,1.9-3.1,4.7-3.6,7.4c-1.1,6.6,1.4,13.3,0,19.9c-0.8,3.8-3,5.6-5.5,8.2c-2.7,2.9-2.6,6.4-2.7,10.2
					c-0.3,5.7,1.3,18.2-6.2,20.3c0.7-0.2,1.5-0.4,2.2-0.6c-1.7,0.1-4.1-0.1-3.8-1.7c0.2-1.2,3.7-2.9,2.7-4.7c-0.7-1.3-5-0.7-5.7-2
					c0,0,0.6-2.5,0.6-2.9c0-0.8-0.2-1.6-0.5-2.3c-0.6-1.7-1.9-3.2-3.4-4.2c-0.9-0.6-4.3-0.8-4.5-1.2c-0.2-0.3,2.9-2.8,3.3-3.3
					c0.4-0.5,1.6-1.8,1.5-2.5c-0.1-0.9-3-1.8-3.3-2.7c-0.9-0.4-0.9-0.8,0.2-1c0.6-0.3,1.1-0.7,1.7-1c0.8-0.5,2.9-1.3,3.3-2
					c1-1.8-0.2,0-0.5-1.7c-0.1-0.7-0.4-1.2-0.3-1.9c0.3-4.4,6.8-4.9,7.7-9.1c1.1-5-4.1-3.9-6.8-2.8c1-0.3,1.9-0.5,2.9-0.8
					c1.7-1.3,2.9-3,3.1-5.2c0.1-0.9-0.6-2.4-0.4-3.1c0.3-1.2,1.3-1.3,2.7-2.1c1.7-0.9,5.6-2.6,5.1-4.1c-0.5-2-4.9-4-6.5-4.7
					c-1,0.3-1.9,0.5-2.9,0.8c4,0.4,7.9,0.9,11.9,1.3c0.4,0,2.7-1,2.9-0.8c-1.2-1.6-2.5-3.2-4-4.6c-1-0.9-4.9-3.1-5-4.2
					c0-1.2,2-1.6,2.9-2.4c1.5-1.4,2.1-2.6,1.1-4.5c-1,0.3-1.9,0.5-2.9,0.8c2.9,0.7,6.1,0.8,8.9-0.4c1.9-0.9,3.6-2.9,2.4-5.1
					c-0.9-1.6-5.6-3-2.9-5.3c-1,0.3-1.9,0.5-2.9,0.8c15.1,5.2,27,17.6,42.7,21.3c12.5,2.9,25.2-2,36.6-6.7
					C105.8,111.6,104.7,111.6,103.8,112L103.8,112z"/>
			</g>
		</g>
		<g id="XMLID_947_">
			<g id="XMLID_948_">
				<path id="XMLID_949_" class="st20" d="M32.4,154.1c2.8-8.6,10.3-13.8,17.7-18.3c9.4-5.6,19-10.7,28.7-15.5
					c-0.9,0.4-2,0.3-2.9,0.8c-9.7,4.9-19.4,10-28.7,15.5c-7.5,4.4-14.9,9.6-17.7,18.3C29.7,154.3,32.2,154.6,32.4,154.1z"/>
			</g>
		</g>
		<g id="XMLID_944_">
			<g id="XMLID_945_">
				<path id="XMLID_946_" class="st20" d="M73.6,127.8c3.5-5.3,10-6.9,16-8.1c5.6-1.2,11.3-1.9,17-2.2c1-0.1,1.9-0.7,2.9-0.8
					c-7.7,0.5-15.3,1.7-22.7,3.6c-5.9,1.5-12.5,2.9-16,8.3C71.1,128,73.2,128.4,73.6,127.8z"/>
			</g>
		</g>
		<g id="XMLID_941_">
			<g id="XMLID_942_">
				<path id="XMLID_943_" class="st20" d="M114.8,106.1c29.7,2.1,57.4-9.3,85.2-18c-0.7,0.2-1.9,0.5-2.8,0.7
					c-26,8.1-51.8,18.4-79.5,16.5C116.7,105.2,115.7,106.2,114.8,106.1L114.8,106.1z"/>
			</g>
		</g>
		<g id="XMLID_938_">
			<g id="XMLID_939_">
				<path id="XMLID_940_" class="st20" d="M115.6,107.7v-5C115.5,102.7,115.5,107.7,115.6,107.7z"/>
			</g>
		</g>
		<g id="XMLID_935_">
			<g id="XMLID_936_">
				<path id="XMLID_937_" class="st20" d="M109.8,87.9c-4,3.3-3.6,12.6-0.3,16.3c4.3,4.8,12.2,4.1,17.9,3.5
					c6.9-0.7,13.6-2.3,20.3-4.2c13.4-3.7,26.4-8.2,40.2-10.3c6.8-1,11.5-3.1,16.8-7.5c4.2-3.4,9.7-6.7,14.8-3.1v-5
					c-7.5-1.9-13-7.3-15-14.8v5c2-0.3,4-0.5,6-0.8c0.2,0-0.2-5,0-5c-2,0.3-4,0.5-6,0.8c-0.1,0-0.1,4.6,0,5c2,7.5,7.5,12.9,15,14.8
					c-0.5-0.1,0.5-4.6,0-5c-8.5-6-16,5.9-23.1,8.7c-5.2,2-11,2.1-16.4,3.2c-5.6,1.1-11.1,2.7-16.6,4.3c-10.7,3.2-21.3,6.7-32.3,8.3
					c-8.2,1.2-22.2,2.7-23.8-8.5v3.8c0.3-2.1,1-3.4,2.6-4.8C110.6,92.2,109,88.6,109.8,87.9z"/>
			</g>
		</g>
		<g id="XMLID_932_">
			<g id="XMLID_933_">
				<path id="XMLID_934_" class="st20" d="M106.5,123.6c6.6-5.6,15.1-6.8,23.3-8.4c9.3-1.8,18.5-3.7,27.8-5.9
					c9.2-2.1,18.4-4.5,27.4-7.3c4.6-1.4,19.9-9.2,21.2-0.3v-5c-0.9,6.1-8.2,8.3-13.2,9.6c-6.9,1.7-13.2,1.1-20.1,0.8
					c-4.4-0.2-6.3,1.5-6.4,5.6c0,2.3-0.6,6,2.5,6.3v-5c-4.5,2.7-9.5,5.2-13.7,8.4c-2,1.6-2,2.8-2,5.1c0,1.5-0.2,3.1,0.8,4.3
					c2.4,2.9,8.8-0.2,9.1,4.8v-4.9c-0.3,1-0.4,1.3-1.5,1.6c-0.5,0.2,0.4,4.9,0,5c2.1-0.7,1.7-4.6,1.5-6.4c-0.6-5.8-9-1.3-9.9-6.9v5
					c1-2.8,4.2-4,6.7-5.5c3-1.8,6-3.6,9-5.5c0.3-0.2-0.1-5,0-5c-1.8-0.2-2.4-1.2-2.5-3.1v4.9c1.1-6.3,11.8-3,16.1-3.1
					c6.5-0.2,15.3-1.4,20.5-5.8c3-2.6,3.3-5.4,3.1-9c-0.2-5.7-5-6-9.8-4.6c-15.7,4.7-31.2,9.3-47.2,12.8c-8,1.7-15.9,3.3-23.9,4.9
					c-6.8,1.3-13.5,2.9-18.8,7.5C105.6,119.3,107.3,122.9,106.5,123.6L106.5,123.6z"/>
			</g>
		</g>
		<g id="XMLID_929_">
			<g id="XMLID_930_">
				<path id="XMLID_931_" class="st20" d="M254.8,65.1c15.8-1.8,30-12.8,41.4-23.2c11.6-10.6,21.1-23.2,28.5-37V0
					c-0.4,6.2-1.7,16.3,5.9,18.5v-5c-21.8,18.6-37.9,43.4-62,59.3c-0.8,0.5,0.7,4.5,0,5c24.1-16,40.2-40.7,62-59.3c0.3-0.2,0-5,0-5
					c-3.9-1.1-6.1-4.9-5.9-8.6c0.1-1.2-0.6-3.9,0-4.9c-7.3,13.9-16.9,26.4-28.5,37c-11.4,10.4-25.6,21.5-41.4,23.2
					C254.5,60.1,254.9,65.1,254.8,65.1L254.8,65.1z"/>
			</g>
		</g>
		<g id="XMLID_926_">
			<g id="XMLID_927_">
				<path id="XMLID_928_" class="st20" d="M251.9,65.3c-0.6,0.2-0.4,0.2,0.5,0h1.7c1.2,0.1,2.3,0.4,3.4,0.8s2.1,1,3,1.7
					c1.4,1.1,1.4,1.1-0.1,2c-1,0.6-2.6,0.8-1.7,1.9c0.7,0.8,2.3,0.7,3.2,0.9c1.6,0.4,4.3,2.4,1.8,3.7c0.9-0.5,2-0.3,2.9-0.8
					c1.3-0.7,1.2-2.1,0.1-2.9c-1.2-1-3-0.6-4.4-1.2c-3-1.3,1.1-1.6,1.8-2.8c0.7-0.2,0.6-0.5-0.2-0.9c-0.2-0.2-0.4-0.4-0.7-0.6
					c-0.7-0.5-1.4-1-2.2-1.3c-4-1.9-8.2-1-12.2,0.3C249.8,65.8,251.1,65.6,251.9,65.3L251.9,65.3z"/>
			</g>
		</g>
		<g id="XMLID_923_">
			<g id="XMLID_924_">
				<path id="XMLID_925_" class="st20" d="M110.2,114.5c0.6,1.1,0.1,2.6-1.1,3.1c0.9-0.4,2-0.4,2.9-0.8c1.2-0.5,1.7-2,1.1-3.1
					c0-0.1-1.3,0.3-1.5,0.4C111.5,114.1,110.2,114.5,110.2,114.5L110.2,114.5z"/>
			</g>
		</g>
		<g id="XMLID_920_">
			<g id="XMLID_921_">
				<path id="XMLID_922_" class="st20" d="M107.2,120.6c-3.7,8.9-6.7,17.5-7.7,27.1c-0.7,7.7-0.9,16-4.5,23
					c-3.9,7.6-12,12-17.1,18.8c-5.3,7-8.9,15.1-12.5,23.1c0.3-0.6,2.6-0.2,2.9-0.8c3.6-8,7.3-16.1,12.5-23.1
					c5.1-6.8,13.1-11.2,17.1-18.8c3.7-7.1,3.8-15.3,4.5-23c0.9-9.6,3.9-18.2,7.7-27.1C109.9,120.4,107.5,120,107.2,120.6z"/>
			</g>
		</g>
		<g id="XMLID_917_">
			<g id="XMLID_918_">
				<path id="XMLID_919_" class="st20" d="M99.9,136.9c-3.7,13.3-11.2,25-21.9,33.7c0.7-0.6,2.2-0.2,2.9-0.8
					c10.7-8.8,18.2-20.4,21.9-33.7C102.6,136.6,100,136.4,99.9,136.9z"/>
			</g>
		</g>
		<g id="XMLID_914_">
			<g id="XMLID_915_">
				<path id="XMLID_916_" class="st20" d="M105.8,124.4c0.9,5.9,6.7,11.8,10.6,16c4.5,4.8,9.9,8.3,16.4,9.2c0.9,0.1,2-0.9,2.9-0.8
					c-6.6-1-11.9-4.5-16.4-9.2c-3.9-4.1-9.7-10.2-10.6-16C108.7,123.7,105.8,124.2,105.8,124.4L105.8,124.4z"/>
			</g>
		</g>
		<g id="XMLID_911_">
			<g id="XMLID_912_">
				<path id="XMLID_913_" class="st20" d="M207.4,102.8c-12.9,14.5-17.5,34.7-12.2,53.4l2.9-0.8c-5.3-18.6-0.7-38.9,12.2-53.4
					C209.7,102.7,208,102.2,207.4,102.8L207.4,102.8z"/>
			</g>
		</g>
		<g id="XMLID_908_">
			<g id="XMLID_909_">
				<path id="XMLID_910_" class="st20" d="M207.6,106.3c2.3,7.7,8.2,13.6,15.8,16c0.8,0.2,2.1-1,2.9-0.8c-7.7-2.3-13.6-8.3-15.8-16
					L207.6,106.3z"/>
			</g>
		</g>
		<g id="XMLID_905_">
			<g id="XMLID_906_">
				<path id="XMLID_907_" class="st20" d="M200.8,118.1c4.3,4.2,8.9,8.2,13.8,11.8c0.5,0.4,2.4-1.1,2.9-0.8
					c-4.9-3.6-9.5-7.5-13.8-11.8C203.4,117,201.2,118.5,200.8,118.1z"/>
			</g>
		</g>
		<g id="XMLID_902_">
			<g id="XMLID_903_">
				<path id="XMLID_904_" class="st20" d="M187.4,141.1c-5.1,10.6-12.3,19.7-21.4,27.1c0.7-0.6,2.2-0.2,2.9-0.8
					c9.1-7.4,16.3-16.5,21.4-27.1C190.1,140.9,187.7,140.5,187.4,141.1z"/>
			</g>
		</g>
		<g id="XMLID_898_">
			<g id="XMLID_899_">
				<path id="XMLID_901_" class="st20" d="M194.3,154.3c-1.6,10.3,3,22.9-5.3,31.2c0.6-0.6,2.3-0.2,2.9-0.8
					c8.3-8.3,3.8-20.9,5.3-31.2C197.2,153.9,194.4,153.9,194.3,154.3z"/>
			</g>
		</g>
		<g id="XMLID_895_">
			<g id="XMLID_896_">
				<path id="XMLID_897_" class="st20" d="M213.1,88.6c1.4-0.8,2.5-1.4,4-1.9c-0.9,0.3-1.9,0.5-2.8,0.8c4.1-1,7.8-0.6,11.4,1.5
					c2.9,1.6,5.3,3.7,8.8,4.1c0.9,0.1,2-0.9,2.9-0.8c-4-0.5-6.5-3.2-10-4.8c-2.8-1.3-5.8-1.7-8.8-1.1c-2.9,0.5-5.9,1.5-8.4,3
					C211.1,88.9,212.3,89.2,213.1,88.6L213.1,88.6z"/>
			</g>
		</g>
		<g id="XMLID_891_">
			<g id="XMLID_892_">
				<path id="XMLID_894_" class="st20" d="M222.2,80.7c10.3-5.5,21.3-7.4,32.9-6c0.9,0.1,2-0.9,2.9-0.8c-13.2-1.5-26.9,1.3-38.7,7.6
					C220.2,81,221.4,81.2,222.2,80.7L222.2,80.7z"/>
			</g>
		</g>
		<g id="XMLID_888_">
			<g id="XMLID_889_">
				<path id="XMLID_890_" class="st20" d="M117,110.8c-5.7-1.2-10-6.3-14.5-9.7c-5-3.7-10.4-8.1-16.4-10c-5.7-1.8-10.9-2.8-15.8-6.4
					c-4.4-3.2-7.8-7.4-10.3-12.2c-0.1-0.2-2.8,0.9-2.9,0.8c2.5,4.8,5.9,9,10.3,12.2c4.9,3.6,10.1,4.7,15.8,6.4
					c6.1,1.8,11.4,6.3,16.4,10c4.5,3.4,8.8,8.5,14.5,9.7C115,111.8,116.1,110.7,117,110.8z"/>
			</g>
		</g>
		<g id="XMLID_885_">
			<g id="XMLID_886_">
				<path id="XMLID_887_" class="st20" d="M88.3,96.8c0.4-2-14-1.4-15.9-1.3c-6.8,0.3-13.6,1.1-20.4,2.2c-1,0.2-1.9,0.6-2.9,0.8
					c6.7-1.2,13.5-2,20.4-2.2c1.9-0.1,16.4-0.7,15.9,1.3C85.5,97.2,88.2,97.3,88.3,96.8z"/>
			</g>
		</g>
		<g id="XMLID_882_">
			<g id="XMLID_883_">
				<path id="XMLID_884_" class="st20" d="M105.8,99.2c-2.1-8.9-2.5-17.8-1.1-26.8c-0.1,0.4-2.8,0.4-2.9,0.8c-1.4,9-1,17.9,1.1,26.8
					C102.9,100,105.8,99.3,105.8,99.2z"/>
			</g>
		</g>
		<g id="XMLID_873_">
			<g id="XMLID_874_">
				<g id="XMLID_875_">
					<path id="XMLID_881_" class="st28" d="M79,136c-4,4.9-7.9,9.7-11.9,14.6c-0.7,0.8-1.3,1.7-2,2.5c0.1-0.2-0.9,1.2-0.6,0.9
						c2.7-3.2,5.6-6.3,8.2-9.6c2.7-3.5,5.4-7.1,8-10.6c0.2-0.3,0.4-0.5,0.1-0.2C80.1,134.3,79.6,135.2,79,136L79,136z"/>
					<path id="XMLID_880_" class="st28" d="M87.3,133.7c-4.2,6.1-8.6,12-13.3,17.7c-4.6,5.7-9.5,11.2-14.7,16.5
						c-0.4,0.4,2.5,3.7,2.4,3.8c5.2-5.3,10-10.7,14.7-16.5c4.7-5.7,9.1-11.6,13.3-17.7c0.1-0.2-1.1-1.9-1.2-1.9
						C88.6,135.7,87.3,133.8,87.3,133.7L87.3,133.7z"/>
					<path id="XMLID_879_" class="st28" d="M97.4,130.4c-4.9,5.5-9.5,11.2-13.8,17.2c-5.7,6.2-10.7,12.9-15,20.2
						c0.1-0.2-0.9,1.3-0.5,1c7-4.7,13-10.5,17.9-17.3c4.3-5.1,8-10.6,11-16.5c0.3-0.5,0.3-1.7,0.3-2.2
						C97.3,132.4,97.2,130.6,97.4,130.4z"/>
					<path id="XMLID_878_" class="st28" d="M96.1,137.8c-3.3,4.4-6.7,8.7-10.4,12.9c-3.5,4.2-7.2,8.3-11,12.2
						c-0.2,0.3,0.2,2.1,0.2,2.3l0.4,2.2c3.8-3.9,7.5-8,11-12.2c3.6-4.1,7.1-8.4,10.4-12.9c0.3-0.4-0.1-1.9-0.1-2.3
						C96.5,140.1,96.1,137.8,96.1,137.8z"/>
					<path id="XMLID_877_" class="st28" d="M91.1,125.7c-4.2,6-8.5,11.8-13.2,17.5c-4.6,5.7-9.5,11.2-14.7,16.4
						c0.1-0.1,2.2-0.1,2.3-0.1c0.4,0,1.9,0,2.2-0.3c5.2-5.2,10.1-10.7,14.7-16.4s9-11.5,13.2-17.5c-0.1,0.1-2.2,0.1-2.3,0.1
						C93.2,125.4,91.3,125.4,91.1,125.7z"/>
					<path id="XMLID_876_" class="st28" d="M96.5,144.3c-6.7,8.7-13.8,17.1-21.3,25c-1,1.1-1.4,2.7-2.4,3.8
						c5.1-5.3,10-10.8,14.7-16.6c2.3-2.8,4.6-5.7,6.8-8.6c0.7-0.8,1.2-1.8,1.8-2.7C95.9,145.6,96.8,144,96.5,144.3z"/>
				</g>
			</g>
		</g>
		<g id="XMLID_858_">
			<g id="XMLID_859_">
				<g id="XMLID_860_">
					<path id="XMLID_872_" class="st28" d="M111,165.1c1.6,2.6,3.4,5.1,5.6,7.3c2.1,2.2,4.5,4.2,7,5.9c0.3,0.2,2-0.6,2.2-0.6
						l2.1-0.9c-2.5-1.7-4.9-3.7-7-5.9s-4-4.7-5.6-7.3C115.1,163.2,111.2,165.4,111,165.1z"/>
					<path id="XMLID_871_" class="st28" d="M105.8,149c1.4,1.9,2.9,3.6,4.7,5.2c1.6,1.7,3.4,3.1,5.4,4.4c0.2,0.2,2-0.8,2.1-0.8
						c0,0,2-1,2.1-0.9c-2-1.3-3.7-2.7-5.4-4.4c-1.7-1.6-3.3-3.3-4.7-5.2C109.7,146.9,106.1,149.3,105.8,149z"/>
					<path id="XMLID_870_" class="st28" d="M113.2,146.5c1.4,1.9,2.9,3.6,4.6,5.2c1.6,1.7,3.4,3.2,5.3,4.4c0.5,0.4,1.6,0.5,2.2,0.7
						c0.4,0.1,1.8,0.3,2.2,0.5c-2-1.3-3.7-2.7-5.3-4.4c-1.7-1.6-3.3-3.3-4.6-5.2c-0.3-0.3-1.8-0.6-2.2-0.7
						C115.2,147,113.5,146.8,113.2,146.5z"/>
					<path id="XMLID_869_" class="st28" d="M103.8,162.5c2.2,2.2,4.5,4.2,7.1,6c-0.1,0,0.4-2.2,0.4-2.2c0-0.1,0.4-2.1,0.3-2.3
						c-2.6-1.8-4.9-3.8-7.1-6c0.1,0.1-0.3,2.2-0.3,2.2C104.1,160.3,103.7,162.3,103.8,162.5z"/>
					<path id="XMLID_868_" class="st28" d="M121.7,179.2c-1.5,0-2.9-1.1-4.4-1.1C118.8,178.2,120.3,179.2,121.7,179.2z"/>
					<path id="XMLID_867_" class="st28" d="M102.7,163.9c1.4,1.9,3,3.6,4.7,5.1c1.6,1.6,3.4,3.1,5.4,4.4c-0.2-0.2-0.6-2-0.7-2.2
						c-0.1-0.4-0.4-1.8-0.8-2.1c-1.9-1.3-3.7-2.8-5.4-4.4c-1.8-1.5-3.3-3.2-4.7-5.1c0.3,0.4,0.6,1.7,0.7,2.1
						C102.1,162.3,102.3,163.5,102.7,163.9z"/>
					<path id="XMLID_866_" class="st28" d="M97.9,143c1.3,4.7,2.8,9.1,5.1,13.4c1,1.9,2.2,3.7,3.3,5.5c3.7,5.8,9.6,10,15.3,13.6
						c0.5,0.3-0.5-1.3-0.4-1.1c-0.4-0.7-1-2.2-1.8-2.7c-2.6-1.5-5.1-3.3-7.5-5.3c-6.2-5.5-10.1-12-11.8-19.6c-0.2-0.7-0.8-1.4-1.1-2
						C98.9,144.4,98,143.5,97.9,143L97.9,143z"/>
					<path id="XMLID_865_" class="st28" d="M107.6,144.1c0.6,1,1.1,1.9,1.7,2.9c-0.5-0.9-1-1.9-1.5-2.8c-0.1,3.3,0.7,6.4,2.5,9.1
						c0.8,1.3,1.7,2.6,2.6,3.9c1.8,2.6,3.8,5,6.1,7.1c3.8,2.2,7.1,4.9,10,8.3l0.5-2.2c0,0,0.4-2.2,0.2-2.3c-1.9-0.4-3.7-0.8-5.6-1.3
						c1,0.3,2,0.6,3.1,0.9c-1.7-2.1-3.5-4.1-5.6-5.8c-1.7-1.4-3.1-3-4.4-4.8c-3.4-4.1-6.2-8.4-9.1-12.8c0.6,1.2,1.3,2.3,1.9,3.5
						c-0.6-2.7-1.2-5.5-1.8-8.2c0-0.1-0.1-0.2-0.1,0c-0.1,0.5-0.2,1.1-0.2,1.6C107.7,142,107.2,143.5,107.6,144.1L107.6,144.1z"/>
					<path id="XMLID_864_" class="st28" d="M113.3,142.6c0.8,3,1.6,5.9,2.9,8.6c1.7,3.5,3.9,6.7,6.4,9.7c1.9,2.4,4.1,4.5,6.5,6.4
						c3,2.3,1.7,1.3,6.1,3.8c0,0-0.2-2.3-0.1-2.3c0-0.3-0.1-2-0.5-2.2c-4.2-2-7.9-4.8-10.9-8.2c-1.5-1.7-2.9-3.6-4.2-5.5
						c-1.4-1.9-2.7-3.8-3.7-6c-1.4-2.8-2.4-5.8-3.1-8.9C113.1,139.6,112.9,141.2,113.3,142.6L113.3,142.6z"/>
					<path id="XMLID_863_" class="st28" d="M96.7,141.9c0.9,2.9,2.1,5.6,3.7,8.2c1.2,2,2.5,3.9,4.1,5.6c3.6,4.2,7.7,7.3,12.4,10.1
						c0.2,0.1,2.6-3.7,2.8-3.6c-4.8-2.8-8.8-5.9-12.4-10.1c-1.6-1.7-2.9-3.6-4.1-5.6c-1.6-2.6-2.8-5.3-3.7-8.2
						c0.1,0.1-1.4,1.8-1.4,1.8C98.1,140.2,96.7,141.7,96.7,141.9z"/>
					<path id="XMLID_862_" class="st28" d="M101.7,134.9c0.8,3,1.6,6,2.9,8.8c1.6,3.4,3.8,6.5,6.2,9.5c1.5,1.8,3.1,3.6,4.9,5.2
						c2.4,2.1,4.9,3.5,7.7,5c0.7,0.4,2.5-0.1,3.2-0.2c-0.1,0,1.6-0.1,1.1-0.4c-4.1-2.1-7.7-4.8-10.9-8.2c-1.6-1.7-3-3.5-4.3-5.5
						c-1.4-1.8-2.5-3.7-3.4-5.8c-1.3-2.8-2.3-5.7-2.9-8.8C106.1,134.2,101.7,135.1,101.7,134.9z"/>
					<path id="XMLID_861_" class="st28" d="M112,152.6c2.1,5.2,4.6,9.8,8.2,14.1c1.4,1.8,3,3.4,4.7,4.9c2.4,2,5,3.8,7.8,5.3
						c0.2,0.1,2.5-3.8,2.4-3.8c-2.8-1.5-5.4-3.2-7.8-5.3c-1.8-1.5-3.3-3.1-4.7-4.9c-3.6-4.3-6-8.9-8.2-14.1c0,0.1-1.3,1.9-1.3,1.9
						C113.1,150.8,111.9,152.4,112,152.6L112,152.6z"/>
				</g>
			</g>
		</g>
		<g id="XMLID_843_">
			<g id="XMLID_844_">
				<g id="XMLID_845_">
					<path id="XMLID_857_" class="st28" d="M178.2,117.9c-2.5,3-5.1,6-7.6,9c-2.4,3.1-5.1,6-8.2,8.6c-0.5,0.5,1.5-0.1,1.2,0
						c0.9-0.3,2.2-0.7,2.9-1.4c3-2.6,5.7-5.5,8.2-8.6c2.5-3,5-6.1,7.5-9.1c0.4-0.5-1.4,0.2-1.1,0.1
						C180.3,116.8,178.8,117.2,178.2,117.9L178.2,117.9z"/>
					<path id="XMLID_856_" class="st28" d="M185.3,115.6c-2.4,3.1-4.9,6.1-7.5,9c-2.5,3.1-5.2,6-8.2,8.6c-0.3,0.3,2.2,1,2.1,0.9
						c0.4,0.1,1.8,0.7,2.3,0.3c3-2.6,5.7-5.5,8.2-8.6c2.6-2.9,5.1-6,7.5-9c0.2-0.2-2.2-0.9-2.1-0.9
						C187.3,115.9,185.6,115.2,185.3,115.6z"/>
					<path id="XMLID_855_" class="st28" d="M173.8,123.3c-2.6,3-5.1,6.1-7.7,9.2c-2.4,3.1-5.2,6-8.2,8.6c-0.6,0.5-0.5,2.4-0.6,3.1
						c0-0.1-0.2,1.6,0.3,1.1c3-2.6,5.7-5.5,8.2-8.6c2.6-3,5.1-6.1,7.6-9.2c0.5-0.6,0.5-2.4,0.5-3.2
						C174,124.6,174.2,122.9,173.8,123.3L173.8,123.3z"/>
					<path id="XMLID_854_" class="st28" d="M179.5,137.1c-2.2,3.3-4.8,6.4-7.5,9.3c-2.6,3-5.4,5.8-8.2,8.6c-0.2,0.2,2.2,0.8,2.1,0.8
						c0.4,0.1,1.9,0.7,2.3,0.3c2.8-2.8,5.6-5.6,8.2-8.6c2.8-2.9,5.3-6,7.5-9.3c0.1-0.2-2.2-0.8-2.2-0.7
						C181.6,137.4,179.8,136.8,179.5,137.1L179.5,137.1z"/>
					<path id="XMLID_853_" class="st28" d="M173.7,128.3c-2.5,3.1-5,6.2-7.6,9.2c-2.5,3.1-5.2,5.9-8.2,8.6c-0.4,0.4,0.3,1.9,0.5,2.2
						c0-0.1,0.8,2.3,1,2c3-2.6,5.7-5.5,8.2-8.6c2.6-3,5.2-6.1,7.6-9.2c0.3-0.4-0.4-1.9-0.5-2.2C174.7,130.4,173.8,128.1,173.7,128.3
						z"/>
					<path id="XMLID_852_" class="st28" d="M185.7,137.1c-2.9,4.5-6.3,8.5-10.1,12.2c-3.7,3.9-7.5,7.7-11.4,11.4
						c0.3-0.3,1.7-0.6,2.1-0.7c0.5-0.2,1.7-0.4,2.1-0.8c4-3.5,7.7-7.1,11.3-11c3.9-3.6,7.3-7.7,10.1-12.2c0.4-0.5-1.3,0.1-1.2,0
						C188,136.2,186.2,136.5,185.7,137.1L185.7,137.1z"/>
					<path id="XMLID_851_" class="st28" d="M182.3,121.8c-1.4,3.1-2.9,6.2-4.3,9.2c0.9-1,1.7-2,2.6-3c-4.6,4.3-9,8.8-13.3,13.5
						c-3.5,3.8-7.4,7.3-11.6,10.3c-0.5,0.4,2.6,3.8,2.7,3.6c4.2-5.1,8.5-10.1,13.1-14.8c3.6-3.9,6.8-8.1,9.5-12.7
						c-1,1.1-1.9,2.1-2.9,3.2c2.2-1.8,4.4-3.7,6.6-5.5c0.2-0.2-1.1-2-1.1-2C183.6,123.7,182.3,121.8,182.3,121.8z"/>
					<path id="XMLID_850_" class="st28" d="M192.4,118.6c-3.3,3.4-6.2,7.2-8.7,11.3c-2.2,3.8-4.8,7.2-8,10.2
						c0.4-0.4,0.8-0.8,1.2-1.1c-3.1,2.5-6.1,5.1-9.2,7.6c-0.9,0.7-0.4,1.6,0,2.5c0.2,0.5,1,2.3,1.9,1.6c2.4-1.9,15-9.9,17.8-15.8
						c0.5-1.2,0.9-2.3,1.4-3.5c0.9-2.9,2-5.8,3.3-8.5c0.4-0.9,0.3-2.2,0.4-3.2C192.5,119.9,192.8,118.2,192.4,118.6L192.4,118.6z"/>
					<path id="XMLID_849_" class="st28" d="M197,117.1c-1.7,2.2-3.4,4.3-5.1,6.5c-1.9,3.1-4.1,5.9-6.5,8.6c-4.4,5.1-9.3,9.9-14,14.8
						c-0.4,0.4-0.3,1.8-0.3,2.2v2.3c7.3-5.8,8.9-6.5,14.6-13l5.1-6c2.4-3.6,4.7-7.2,6.9-10.9c0.3-0.4-0.1-1.9-0.2-2.3
						C197.4,119.3,196.9,117.1,197,117.1L197,117.1z"/>
					<path id="XMLID_848_" class="st28" d="M180.3,116.1c-4.3,5.4-8.7,10.5-13.4,15.5c-3.2,3.9-6.8,7.4-10.7,10.6
						c-0.8,0.7-1.4,1.7-2,2.5c0.2-0.2-0.9,1.3-0.6,1c4.2-3.4,8.4-6.8,12.1-10.8c2.8-3.1,5.4-6.5,8.1-9.7c3.5-4.2,5.7-7.5,8.9-12.3
						C182.1,114,181.1,115.1,180.3,116.1L180.3,116.1z"/>
					<path id="XMLID_847_" class="st28" d="M186,113.9c-1.3,1.6-2.5,3.2-3.8,4.7c-2.3,1.9-4.5,4-6.6,6.2l-5.1,5.1
						c-4.2,3.9-7.8,8.5-10.7,13.6c-0.3,0.5,1.2,0.1,1.1,0.1c0.8-0.1,2.5-0.2,3.1-0.8c5.2-5,10.3-9.9,15.2-15.2
						c2.3-2.5,4.6-4.9,6.9-7.3c1.5-2.2,2.9-4.5,4.3-6.7l-2.3,0.1C187.9,113.6,186.3,113.5,186,113.9L186,113.9z"/>
					<path id="XMLID_846_" class="st28" d="M197.3,123.3c-4.4,6.4-9.5,12.3-15.2,17.5c-4.9,4.8-9.3,9.9-13.3,15.4
						c0.2-0.2-0.5,0.7-0.1,0.4c5.7-2.9,10.5-6.7,14.5-11.6c4.6-5.7,8.6-11.9,12.1-18.4c0.6-0.9,1.2-1.8,1.7-2.7
						C197,123.9,197.5,123,197.3,123.3L197.3,123.3z"/>
				</g>
			</g>
		</g>
		<g id="XMLID_828_">
			<g id="XMLID_829_">
				<g id="XMLID_830_">
					<path id="XMLID_842_" class="st28" d="M206.7,80c0.3-0.3,0.6-0.5,1-0.5c5.1-0.9,10.3-1.6,15.5-2.1c0.9-0.1,0.9-4.5,0.6-4.5
						c-5.2,0.5-10.4,1.2-15.5,2.1c-0.4,0-0.7,0.2-1,0.5c-0.2,0.2-0.3,2.1-0.3,2.2S206.9,79.8,206.7,80z"/>
					<path id="XMLID_841_" class="st28" d="M216.8,89.5c3.5-3.6,21.7-1.4,16.8-1.2c0.6,0,0.6-0.2,0.1-0.5c-0.8-0.5-2.6-0.9-3.5-0.9
						c6.2-0.3-14.2-2.3-17.8,1.6c0.1-0.1,2.2,0.5,2.2,0.5S216.6,89.6,216.8,89.5L216.8,89.5z"/>
					<path id="XMLID_840_" class="st28" d="M223.1,88.2c-0.3,0.1-0.5-0.1-0.7-0.4c-0.3-0.5-0.1-0.7,0.3-1.2
						c-0.1,0.1-0.3,0.1-0.4,0.2l0.6-0.3c-1.3,0.4-2.6,0.9-3.8,1.3c11.2,0.3,22.4-0.6,33.4-2.6c0.8-0.1,1.7-0.6,2.5-0.9
						c0.5-0.2,1.1-0.6,1.6-0.6c-11,1.5-22.1,2.4-33.3,2.6c-0.2,0-0.3,0-0.5,0.1c-1.1,0.4-2.3,0.8-3.4,1.2c-0.5,0.2-1.4,0.4-1.5,1
						c-0.1,0.5,0.4,1.1,0.9,1C220.3,89.4,221.7,88.4,223.1,88.2L223.1,88.2z"/>
					<path id="XMLID_839_" class="st28" d="M210.9,81.1h-0.2l2.1,3.3c0-0.1-0.1-0.2-0.1-0.3c0,0.2,0.1,0.3,0.1,0.5
						c0.1-0.6,0.5-0.6,0.9-0.9c2.1-0.5,4.3-0.6,6.6-0.3c9-0.1,18-1.3,26.8-3.6c0.2,0-1.3-2-1.2-1.9c-0.1-0.2-1.1-1.8-1.5-1.7
						c-8.4,1.4-16.9,2.4-25.4,3c-2.7-0.1-5.4,0.1-8,0.8c-0.4,0.2-0.6,0.5-0.6,0.9c0,0.5,0.8,1.5,1,1.9c0.4,0.7,0.8,1.3,1.3,1.9
						c0.1,0.2,0.2,0.3,0.4,0.3c0.1,0,0.1-0.1,0.2-0.1C213.7,84.7,211.1,80.9,210.9,81.1L210.9,81.1z"/>
					<path id="XMLID_838_" class="st28" d="M215.2,69.4c0-0.3,0.2-0.4,0.5-0.4c-1.4,0.6-2.7,1.1-4.1,1.7c3-0.2,6-0.8,8.9-1.6
						c8-1.7,16-2.8,24.1-3.5c1.4-0.2,2.7-1.6,4.2-1.8c-8.4,0.3-16.6,1.4-24.7,3.4c-2.7,0.9-5.5,1.5-8.4,1.7
						c-0.4,0.1-0.8,0.3-1.1,0.4c-0.9,0.4-1.8,0.7-2.6,1.1c-0.4,0.2-0.9,0.3-1,0.7c0.1-0.2,2-0.8,2.1-0.9
						C213.2,70.2,215.1,69.6,215.2,69.4L215.2,69.4z"/>
					<path id="XMLID_837_" class="st28" d="M221.2,77.8C221.2,77.8,221.3,77.8,221.2,77.8c-0.4,1.4-0.9,2.8-1.3,4.2
						c21.4-2.7,15-1.6,35.6-5.7c0.7-0.1-1.2-0.7-1-0.6c-0.8-0.3-2.2-0.9-3.1-0.7c-30.6,5.4-19.6,1.1-30.1,2.4
						c-0.9,0.1-1.7,3.4-1.6,4.1c0.2,0.6,0.6,0.9,1.2,0.7c0.6-0.3,0.5-2.4,0.5-2.8c0-0.3,0.2-1.1,0.1-1.4
						C221.5,78,221.3,77.4,221.2,77.8L221.2,77.8z"/>
					<path id="XMLID_836_" class="st28" d="M222.1,70c-0.1-0.5,0.4-0.4,0.7-0.5c2.9-0.2,5.8-0.7,8.7-1.6c8.2-1.7,16.5-2.9,24.9-3.6
						c-0.5,0.1-1.7-0.5-2.2-0.6s-1.6-0.7-2.2-0.6c-11.4,1.2-22.5,2.1-33.6,5.2c-0.3,0.1-0.8,0.1-0.7,0.5c0,0.2,2.1,0.6,2.2,0.6
						C219.9,69.4,222,69.9,222.1,70L222.1,70z"/>
					<path id="XMLID_835_" class="st28" d="M225.7,76.2c-0.4,0.2-0.8,0.2-1.1-0.3c0.2,1.5,0.3,2.9,0.5,4.4c0.2-0.4,0.5-0.5,0.9-0.5
						c11.4-1.3,22.8-2.6,34.2-4c0.4-0.1-0.2-4.5-0.6-4.5c-11.4,1.4-22.7,2.8-34.1,4c-0.4,0-0.7,0.2-0.9,0.5c-0.3,0.3,0,1.3,0.1,1.7
						c0.1,0.8,0.1,1.9,0.4,2.6c0.2,0.5,0.7,0.9,1.2,0.6C227,80.4,225.5,76.3,225.7,76.2L225.7,76.2z"/>
					<path id="XMLID_834_" class="st28" d="M208.9,75.6c0,0.1-0.1,0.1-0.1,0.2c0.9-1.2,1.8-2.3,2.7-3.5c-0.2,0-0.3-0.1-0.2-0.3
						c-0.9,1.2-1.8,2.3-2.7,3.5c0.4-0.3,0.8-0.5,1.3-0.4c10.6-2,21.2-3.5,31.9-4.5c0.5-0.1,1.3-1.5,1.5-1.7c0,0,1.2-1.9,1.3-1.9
						c-10.8,0.8-21.4,2.3-31.9,4.5c-0.5-0.1-1,0.1-1.3,0.4c-0.5,0.3-0.8,0.9-1.1,1.3c-0.2,0.2-2.3,2.6-1.5,2.7
						c0.4,0.1,2.5-3.2,2.7-3.5c0-0.1,0.1-0.1,0.1-0.2c0.2-0.4-0.9,1-0.7,0.8C210.2,73.8,209.5,74.7,208.9,75.6L208.9,75.6z"/>
					<path id="XMLID_833_" class="st28" d="M214.9,72.7c-0.1,0.1-0.1,0.2-0.2,0.2c1.3-0.1,2.6-0.3,3.9-0.4h-0.3
						c0.2,0,0.3,0.1,0.5,0.1c-0.4-0.3-0.1-0.9,0-1.4c-1.4,0.7-2.7,1.3-4.1,2c0.4,0.6,0.8,0.9,1.4,0.8c12-2.7,24-4.7,36.2-6
						c0.6-0.1,0.5-0.2,0.2-0.4c-0.6-0.4-2.4-0.2-3-0.3c-5.7-0.4-11.5-0.5-17.2-0.4c-6.4,0.7-12.5,2.6-18.1,5.6l-0.1,0.1
						c0,1.1,4.6,0.4,5.1-0.1c0.4-0.4-1.2-0.2-1.1-0.2C217.5,72.3,215.4,72.2,214.9,72.7L214.9,72.7z"/>
					<path id="XMLID_832_" class="st28" d="M226.2,82.3c-0.6,0.2-0.9-0.2-1.1-0.8c-0.7,1.2-1.4,2.3-2.1,3.5c0.1-0.2,0.2-0.3,0.4-0.5
						l-0.3,0.3c10.8-4.2,22.4-5.4,34.7-3.4c0.5,0,1.1-1.7,1.2-1.9c0,0.1,1-2.1,0.8-2.1c-12.2-1.8-23.6-0.6-34.3,3.6
						c-0.1,0.1-0.3,0.2-0.3,0.3c-0.6,0.7-1.1,1.6-1.6,2.4c-0.2,0.4-0.9,1.1-0.8,1.5c0.1,0.6,0.5,0.9,1.1,0.8
						c0.5-0.1,1.1-1.5,1.3-1.8C225.1,84.2,226.1,82.3,226.2,82.3L226.2,82.3z"/>
					<path id="XMLID_831_" class="st28" d="M208.4,84.7c0.2-0.6,0.6-0.7,1.1-0.9c2.6-0.6,5.2-0.9,8-0.8c8-0.7,16.1-1.6,24.1-2.7
						c-0.3,0-1.1-4.3-1.5-4.3c-5.5,0.6-11,1.3-16.5,1.9c-5.3-0.2-10.5,0.3-15.5,1.6c-0.5,0.2-0.9,0.3-1.1,0.9
						c-0.1,0.3,0.6,1.9,0.7,2.1C207.8,82.8,208.6,84.4,208.4,84.7z"/>
				</g>
			</g>
		</g>
		<g id="XMLID_813_">
			<g id="XMLID_814_">
				<g id="XMLID_815_">
					<path id="XMLID_827_" class="st28" d="M74.7,94.7c0.8,4.9,1.8,9.2,4.2,13.5c2.2,3.9,5,6.9,8.4,9.7c0.5,0.4,1.7,0.5,2.2,0.6
						c0.3,0.1,1.9,0.2,2.2,0.5c-3.4-2.9-6.2-5.8-8.4-9.7c-2.4-4.3-3.4-8.7-4.2-13.5c0-0.1-2.2-0.6-2.2-0.6S74.7,94.8,74.7,94.7z"/>
					<path id="XMLID_826_" class="st28" d="M81.4,80.3c-0.9,8.4-1.1,16.8,2.2,24.8c1.2,2.8,2.7,5.7,4.7,8c2.5,2.9,5.2,5,8.5,7
						c0.3,0.2,2-0.6,2.2-0.7c0,0,2-0.9,2.1-0.8c-3.2-2-6.1-4-8.5-7c-1.9-2.5-3.5-5.1-4.7-8c-3.3-8-3.1-16.4-2.2-24.8
						c0,0.1-2.1,0.8-2.1,0.8C83.5,79.5,81.4,80.2,81.4,80.3z"/>
					<path id="XMLID_825_" class="st28" d="M72.9,70.2c0.4,6.6,1.3,12.7,4.5,18.5c1.2,2.2,2.6,4.2,4.3,6.1c2.2,2.3,4.4,3.9,7.2,5.5
						c0.2,0.1,2-0.8,2.1-0.9c0.1,0,1.9-1,2.1-0.9c-2.1-1.2-4.1-2.4-5.9-4.1c-2.3-2.1-4.1-4.7-5.6-7.4c-1.2-2.2-2.2-4.5-2.9-6.9
						c-1.1-3.8-1.4-7.6-1.7-11.6l-2.1,0.9C75,69.3,72.9,70.1,72.9,70.2L72.9,70.2z"/>
					<path id="XMLID_824_" class="st28" d="M80.5,62.7c-0.2,5-0.3,10,1,14.9c0.8,3,1.9,5.9,3.4,8.7c1.5,2.7,3.3,5.3,5.6,7.4
						c2.3,2.2,3.2,2.6,6,4.1c1.3,0.7,3.1,0.5,4.4,1.3c-1.1-0.6-2.2-1.3-3.3-1.9c-1.7-1.6-3.5-3.3-5.2-4.9c-2-2.4-3.5-5.2-4.7-8.1
						C85,77.7,84.8,71,85,64C84.8,63.6,80.4,63.1,80.5,62.7z"/>
					<path id="XMLID_823_" class="st28" d="M67.9,80.1c0.4,5.3,0.9,10.2,2.9,15.1c1.2,2.9,2.7,5.7,4.7,8.1c2.4,2.9,5.2,5,8.4,6.9
						c-0.1-0.1,0.3-2.2,0.3-2.2s0.4-2.2,0.3-2.2c-3.8-2.3-6.9-4.8-9.5-8.4c-4.7-6.6-6-13.3-6.6-21.7C68.7,77.1,67.8,78.6,67.9,80.1
						L67.9,80.1z"/>
					<path id="XMLID_822_" class="st28" d="M68.4,75.9c0,5.1,0,10.2,1.2,15.1c0.5,2.2,1.3,4.5,2.1,6.6c1.2,3.2,2.6,6.1,4.6,8.9
						c2.7,3.7,5.7,6.2,9.6,8.6c-0.2-0.2-0.7-2-0.7-2.1c-0.1-0.3-0.4-1.9-0.8-2.1c-2.2-1.1-4.1-2.5-5.7-4.4c-1.9-1.5-3.5-3.4-4.8-5.5
						c-1.2-3.7-2.5-7.4-3.7-11.1c-0.3-3.2-0.4-6.5-0.3-9.7C69.9,78.7,68.4,77.3,68.4,75.9z"/>
					<path id="XMLID_821_" class="st28" d="M75,61.1c-1.3,6.5-2.8,13.3-2.6,20c0.8,5.3,1.5,10.7,2.3,16c0.5,2.3,1.4,4.4,2.7,6.3
						c1.4,2.3,3,4.4,4.9,6.3c0.9,0.9,1.9,1.7,2.9,2.5c2.9,2.2,6.1,3.5,9.7,3.8c0.5,0.1-0.8-1.1-0.6-0.9c-2.6-2.5-5.2-4.8-7.8-7.2
						c-2.2-2-4.1-4.1-5.7-6.7c-3-4.8-5.1-10.4-6.9-15.7c0.3,1.3,0.6,2.6,0.8,3.8C75,85.2,75,81.1,75.5,77c0.5-4.1,1.2-8.2,2-12.2
						c0.1-0.4-0.9-1.7-1.1-2C76.3,62.9,75,61.2,75,61.1L75,61.1z"/>
					<path id="XMLID_820_" class="st28" d="M85.1,57.9c-1.6,3.1-2.7,6.3-3.5,9.7c-0.2,1.6-0.4,3.3-0.5,4.9
						c-0.3,5.4,0.2,10.8,1.4,16.1c1,4.2,2.8,8.1,5.2,11.7c1.3,2.1,3,4,4.8,5.6c3.1,2.8,6.6,5,10.6,6.3c0.1,0.1,0.1,0.1,0-0.1
						c-1.3-2.2-2.9-4.2-4.8-5.9c-3.7-3.6-7-7.6-9.9-12c-1.3-2.7-2.2-5.3-2.8-8.3C83.8,76.8,84.7,67.2,85.1,57.9
						C85.2,58.3,85.2,57.5,85.1,57.9z"/>
					<path id="XMLID_819_" class="st28" d="M89.8,56.3c-1.2,6.7-2.2,13.3-2.2,20.1c0,4.1,0.4,9,1.4,13c1.1,4.5,2.9,8.8,5.6,12.6
						c1.8,2.5,3.9,4.7,6.4,6.6c2.4,1.7,4.2,2.3,6.9,3.3c0.1,0-0.2-2.3-0.2-2.3c0-0.2-0.1-2.1-0.4-2.2c-2.4-0.6-4.6-1.7-6.4-3.4
						c-2.2-1.2-4-2.8-5.4-4.8c-0.7-1-1.4-2-2.2-3c-2.7-4.3-4.3-9-4.8-14.1c0.1,0.9,0.2,1.9,0.3,2.8c-0.4-4.8-0.3-9.6,0.2-14.4
						c0.3-3.2,0.8-6.5,1.5-9.6c0.1-0.7-0.2-1.6-0.2-2.3C90.1,58,89.7,56.8,89.8,56.3z"/>
					<path id="XMLID_818_" class="st28" d="M71.7,60.5c-0.8,3.2-1.3,6.4-1.4,9.7c0,1.7-0.1,3.3-0.1,5c0,5.2,1,10.4,3,15.1
						c1.4,3.5,3.4,6.6,6,9.4c1.2,1.4,2.5,2.6,4.1,3.7c2,1.4,4.1,2.4,6.4,3.1c0.4,0.2,2.4-3.7,2.8-3.6c-2.3-0.7-4.5-1.7-6.4-3.1
						c-0.9-0.8-1.9-1.5-2.8-2.3c-3.2-2.9-5.6-6.8-7.2-10.8c-1.7-4.1-2.5-8.3-2.8-12.7c-0.2-2.5-0.3-4.9-0.1-7.4
						c0.1-3.3,0.6-6.5,1.4-9.7c-0.1,0.4-1.2,1.5-1.4,1.8C72.7,59,71.8,59.9,71.7,60.5z"/>
					<path id="XMLID_817_" class="st28" d="M78.8,53.1c-2.3,11.7-4.1,23.8,0.9,35.2c1.1,2.5,2.4,4.8,4,7c1.5,2.1,3.2,3.9,5.2,5.5
						c2.1,1.7,4.6,2.9,7.3,3.3c0.8,0.3,1.8,0.1,2.7,0.1c0.3,0,1.6-0.2,1.7-0.1c-3.6-2.5-7.6-5-10.7-8.1c-3.8-3.9-6.7-9.6-7.9-15
						c-2.1-9.5-0.5-18.9,1.3-28.3C83.3,53,78.9,52.5,78.8,53.1z"/>
					<path id="XMLID_816_" class="st28" d="M87.8,66.3c-1.7,10.3-3.6,21.2-0.5,31.4c1.2,4.2,3.2,8.2,5.9,11.6
						c1.5,1.9,3.3,3.6,5.3,5.1c2.1,1.5,4.3,2.6,6.7,3.3c0.4,0.2,2.3-3.9,2.4-3.8c-2.4-0.7-4.6-1.8-6.7-3.3c-0.9-0.8-1.9-1.6-2.8-2.3
						c-3.2-2.9-5.5-6.8-7.2-10.8c-4.6-11-2.7-23.6-0.7-34.9c-0.1,0.5-1,1.5-1.2,1.9C88.7,64.8,87.9,65.7,87.8,66.3L87.8,66.3z"/>
				</g>
			</g>
		</g>
		<g id="XMLID_804_">
			<g id="XMLID_805_">
				<g id="XMLID_806_">
					<path id="XMLID_812_" class="st28" d="M44.2,126.7c3.4-2.2,6.9-4,10.7-5.4c0.4-0.2,1.2-1.5,1.4-1.8s1-1.6,1.4-1.8
						c-3.7,1.4-7.3,3.2-10.7,5.4c-0.5,0.2-1.1,1.4-1.4,1.8C45.3,125.2,44.7,126.4,44.2,126.7z"/>
					<path id="XMLID_811_" class="st28" d="M44.1,138.2c-0.7,1.8-1.4,3.7-2.1,5.5c-0.1,0.1-0.1,0.2,0,0c1.5-1.6,2.9-3.2,4.4-4.8
						c0.9-0.6,1.8-1.3,2.7-1.9c0.3,1.9,0.7,3.9,1,5.8c4.9-2.6,9.8-5.2,14.8-7.7c1.6-0.9,5.5-4,8.1-2.6c0.1,0.1,2.4-3.8,2.4-3.8
						c-0.8-0.4-1.4-0.5-2.3-0.3c-0.3,0.1-0.5,0.2-0.8,0.3c-5,2.5-9.9,5.1-14.8,7.7c-3.8,4-5.6,3.9-5.4-0.3c0.3-3.6-0.8-3.9-3.3-1
						l-2.3,2.3c-0.8,0.9-0.8-0.2,0.1-3.1C46,135.8,44.6,136.8,44.1,138.2L44.1,138.2z"/>
					<path id="XMLID_810_" class="st28" d="M32.6,126.6c-1.4,4-2.8,8-4.2,12.1c-0.2,0.7,2.5,3.7,2.4,3.8c2.4-2.7,4.7-4.8,7.6-6.9
						c-0.8-1.2-1.6-2.5-2.4-3.7c0.3,1.9,0.6,3.9,0.8,5.8c0,0.3,2.1,3.9,2.4,3.7l9.9-5.1c3.3-2.1,6.7-3.9,10.3-5.3
						c1-0.3,1.6-0.5,2.6,0.1c-0.8-1.2-1.6-2.5-2.4-3.7c0.1,0.2,0.2,0.4,0.2,0.6c0.3,1,1.1,1.9,1.6,2.7c-0.1-0.2,0.8,1.3,0.7,0.9
						c-0.3-0.9-0.8-1.7-1.3-2.5c-0.3-0.5-0.7-1.4-1.2-1.8c-0.5-0.4-0.8-0.5-1.4-0.4c-0.6,0-1.1,0.2-1.7,0.5l-19.8,10.2
						c0.8,1.2,1.6,2.5,2.4,3.7c-0.3-1.9-0.6-3.9-0.8-5.8c0-0.3-2.2-3.8-2.4-3.7c-2.9,2.1-5.2,4.2-7.6,6.9c0.8,1.3,1.6,2.6,2.4,3.8
						c1.4-4,2.8-8,4.2-12.1c0.1-0.2-1.1-1.8-1.2-1.9C33.7,128.4,32.5,126.8,32.6,126.6L32.6,126.6z"/>
					<path id="XMLID_809_" class="st28" d="M39.7,132.8c0.6-1.6,1.1-3.2,1.7-4.9c0.2-1.5,0.3-3,0.5-4.5c-1.1,3.9-2.1,7.9-3.2,11.8
						c-0.3,0.8-0.3,1.8-0.3,2.6c0,0.3,0.1,1.6,0,1.7c1-1.3,2.1-2.6,3.3-3.7c1.7-2.3,3.3-1.5,4.8,2.5v0.1l19.8-10.2
						c0.4-0.2,0.8-0.3,1.2-0.4c1-0.2,1.7-0.1,2.1,1c-0.1-0.3,0.3-2,0.3-2.2c0.1-0.5,0.4-1.7,0.1-2.3c-0.4-1-1-1.1-2.1-1
						c-0.4,0-0.8,0.2-1.2,0.4c-6.1,5.3-13,6.8-20.7,4.6v-0.1c-2.8,2.1-4.9,4.1-7.2,6.8c-0.1,1.5-0.3,2.9-0.4,4.4
						c2.4-7.1,1.7-4.5,3-11.7c0.2-0.9,0.2-1.8,0.3-2.7c0.1-0.5,0-1.2,0.2-1.7c-0.6,1.6-1.1,3.2-1.7,4.9
						C39.7,129.6,40.2,131.4,39.7,132.8L39.7,132.8z"/>
					<path id="XMLID_808_" class="st28" d="M46.1,127.8c-0.7,1.9-1.4,3.8-2.1,5.8c-0.2,0.6,0.1,1.7,0.2,2.3c0,0,0.5,2.2,0.4,2.2
						c0.9-1.3,2-2.5,3.2-3.6c1.1-1.2,2.4-2.2,3.9-3.1c0-0.2-0.1-0.3-0.1-0.5c0.3,1.9,0.7,3.8,1,5.8c0,0.2,0.1,0.3,0.2,0.5
						c4.9-2.6,9.8-5.1,14.8-7.7c1.8-1.2,3.7-2.1,5.8-2.9c1-0.3,2.1-0.3,2.6,0.9c-0.6-1.3,0-3.1-0.6-4.5c-0.3-0.8-0.7-1.1-1.7-1
						c-0.6,0-1.1,0.2-1.7,0.5c-6.6,3.4-13.2,6.8-19.7,10.2c0.1,0.2,0.1,0.3,0.2,0.5c-0.4-1.9-0.7-3.8-1.1-5.8c0-0.2-0.1-0.3-0.1-0.5
						c-1.4,0.9-2.7,1.9-3.9,3.1c-1.2,1.1-2.3,2.3-3.2,3.6l0.6,4.5c0.7-1.9,1.4-3.8,2.1-5.8c0.2-0.6-0.1-1.7-0.2-2.3
						C46.4,129.7,45.9,128.1,46.1,127.8L46.1,127.8z"/>
					<path id="XMLID_807_" class="st28" d="M36.1,119.3c-1.1,3.6-2.3,7.2-3.6,10.7c-0.1,0.2,2.3,0,2.3,0c0.5,0,1.8,0,2.2-0.4
						c2.3-2.5,4.6-4.4,7.4-6.5c-1.5,0.1-3,0.3-4.5,0.4l0.9,5.7c0.1,0.3,4.2-0.2,4.4-0.3l9.9-5.1c10.6-3.5,13.6-5.2,9-5.1
						c-1.4,0-0.5-0.1-0.2,0.8c0.2,0.5,4.4-0.6,4.5-0.4c-0.6-1.6-3.1-1-4.4-0.9c-0.8,0.1-1.6,0.1-2.3,0.3c-0.3,0.1-0.7,0.2-1,0.4
						l-19.8,10.2c1.5-0.1,2.9-0.2,4.4-0.3l-0.9-5.7c0-0.3-4.1,0.1-4.5,0.4c-2.8,2-5.1,4-7.4,6.5c1.5-0.1,3-0.3,4.5-0.4
						c1.3-3.6,2.5-7.1,3.6-10.7c0,0.1-2.3,0.2-2.3,0.2S36.1,119.1,36.1,119.3L36.1,119.3z"/>
				</g>
			</g>
		</g>
	</g>
</g>
</svg>
