<?xml version="1.0" encoding="iso-8859-1"?>
<!-- Generator: Adobe Illustrator 19.0.0, SVG Export Plug-In . SVG Version: 6.00 Build 0)  -->
<svg version="1.1" id="Layer_1" xmlns="http://www.w3.org/2000/svg" xmlns:xlink="http://www.w3.org/1999/xlink" x="0px" y="0px"
	 viewBox="0 0 512.002 512.002" style="enable-background:new 0 0 512.002 512.002;" xml:space="preserve">
<g>
	<g>
		<circle style="fill:#006699;" cx="448" cy="102.401" r="12.8"/>
	</g>
</g>
<g>
	<g>
		<circle style="fill:#006699;" cx="396.8" cy="102.401" r="12.8"/>
	</g>
</g>
<g>
	<g>
		<circle style="fill:#006699;" cx="345.6" cy="102.401" r="12.8"/>
	</g>
</g>
<g>
	<g>
		<path style="fill:#006699;" d="M371.2,268.801H192c-7.074,0-12.8,5.726-12.8,12.8c0,7.074,5.726,12.8,12.8,12.8h179.2c7.074,0,12.8-5.726,12.8-12.8
			C384,274.527,378.274,268.801,371.2,268.801z"/>
	</g>
</g>
<g>
	<g>
		<path style="fill:#006699;" d="M64,89.601H38.4c-7.074,0-12.8,5.726-12.8,12.8c0,7.074,5.726,12.8,12.8,12.8H64c7.074,0,12.8-5.726,12.8-12.8
			C76.8,95.327,71.074,89.601,64,89.601z"/>
	</g>
</g>
<g>
	<g>
		<path style="fill:#006699;" d="M505.66,47.139c-4.855-5.555-11.878-8.738-19.26-8.738H153.6c-12.834,0-23.68,9.498-25.378,22.212l-3.857,28.988H115.2
			c-7.074,0-12.8,5.726-12.8,12.8c0,7.074,5.726,12.8,12.8,12.8h5.743l-10.24,76.8H64c-7.074,0-12.8,5.726-12.8,12.8
			c0,7.074,5.726,12.8,12.8,12.8h43.29l-6.827,51.2H12.8c-7.074,0-12.8,5.726-12.8,12.8c0,7.074,5.726,12.8,12.8,12.8h84.25
			l-6.827,51.2H38.4c-7.074,0-12.8,5.726-12.8,12.8s5.726,12.8,12.8,12.8h48.41l-3.413,25.6H12.8c-7.074,0-12.8,5.726-12.8,12.8
			c0,7.074,5.726,12.8,12.8,12.8h67.191l-2.961,22.212c-0.973,7.313,1.254,14.694,6.118,20.25c4.855,5.555,11.87,8.738,19.251,8.738
			h332.8c12.834,0,23.68-9.498,25.378-22.221l51.2-384C512.751,60.067,510.524,52.686,505.66,47.139z M435.2,448.001H102.4
			l3.413-25.6H371.2c7.074,0,12.8-5.726,12.8-12.8c0-7.074-5.726-12.8-12.8-12.8H109.227l3.413-25.6H217.6
			c7.074,0,12.8-5.726,12.8-12.8s-5.726-12.8-12.8-12.8H116.053l6.827-51.2h17.92c7.074,0,12.8-5.726,12.8-12.8
			c0-7.074-5.726-12.8-12.8-12.8h-14.507l6.827-51.2h71.68c7.074,0,12.8-5.726,12.8-12.8c0-7.074-5.726-12.8-12.8-12.8h-68.267
			l3.413-25.6h332.8L435.2,448.001z M476.16,140.801h-332.8l3.413-25.6H256c7.074,0,12.8-5.726,12.8-12.8
			c0-7.074-5.726-12.8-12.8-12.8H150.187l3.413-25.6h332.8L476.16,140.801z"/>
	</g>
</g>
<g>
</g>
<g>
</g>
<g>
</g>
<g>
</g>
<g>
</g>
<g>
</g>
<g>
</g>
<g>
</g>
<g>
</g>
<g>
</g>
<g>
</g>
<g>
</g>
<g>
</g>
<g>
</g>
<g>
</g>
</svg>
