<svg id="Layer_1" xmlns="http://www.w3.org/2000/svg" viewBox="-383 184.2 192.8 136.3"><style>.st0{fill:#fff}.st1{fill:none;stroke:#fff;stroke-width:1.2787;stroke-linecap:round;stroke-linejoin:round;stroke-miterlimit:2.6131}</style><path class="st0" d="M-274.2 195.4l-1.3 4.3 1.6.5 1.2-6.1-.3-.1-1.9.6zM-266.4 195.6l-1 1.1c.9-.1 1.6 0 2.2.6l-1.6 1.3c.8.3 1.3.9 1.4 1.7l-.1.2c-.4.7-1 1-1.7.9l-.2-.1c-.4-.4-.7-1-.6-1.7l-1.3.9 1.2 1.4c.6.6 1.3.8 2 .5 1.8-.8 2.2-1.9 1-3.5l2.1-1.6-3.4-1.7zM-253.5 209.4c.2 1 .8 1.6 1.9 1.8 1.7.1 2.5-.7 2.5-2.4 0-1.2-.5-1.8-1.5-1.9l2.9-.3c-1.3-1.4-2.7-1.6-4.3-.5-1.4.8-1.9 1.9-1.5 3.3zm2.9.1c-.3.3-.5.4-.9.5-.3 0-.6-.1-.8-.3-.2-.2-.3-.5-.3-.8 0-.4.2-.6.4-.9.3-.3.6-.4.9-.5.3 0 .5.1.8.3.2.2.3.5.3.8 0 .4-.2.7-.4.9zM-259.6 205.7c1.5.8 2.6.4 3.3-1 .3-.5.3-.9.2-1.4-.3-1-1-1.6-2.1-1.5l2.7-.8-1.1-.8c-2 0-3.3.9-4 2.9-.4 1.2-.1 2 1 2.6zm1.9-2.9c.2.1.3.4.4.7 0 .3-.1.6-.3.9-.1.3-.4.5-.7.6-.4.1-.6 0-.9-.1-.2-.2-.4-.5-.4-.8 0-.4 0-.6.3-.9.2-.3.4-.5.8-.6l.8.2zM-262.4 210.2l.3.2c3.8 3 5.2 5.5 4.3 7.4-.6 1.3-2.3 2-5 2.2-2.9.1-6.4-.5-10.6-1.8-6.2-2-10.4-4.6-12.4-7.7v.7c.5 1.1 1.8 2.2 3.7 3.5l.4.2c.2 2.3 1 4.2 2.4 5.9l-.6-1.8 1.3 1.1-.9-1.6 1.4 1-1.6-2.1c.6.4 1.2.8 1.7 1.1l-1.7-2.1c.6.3 1.2.5 1.8.7l-.4-.5c3 1.5 6.2 2.6 9.5 3.3l-4.3-.1 2.8 1h-3.5l2.4 1.1-3.1-.2 2.4 1-2.9-.1 1.9.9-2.6-.3.8.6c-1.1-.5-2.3-1.1-3.5-1.8.2.5.6.9 1.1 1.2 2.5 1.4 5 1.7 7.7 1l-.5 1.2c-.4.6-.9 1-1.5 1.1-1.9 0-3.9-.3-5.7-.9-2.5-1-4-2.7-4.6-5.1l.1 1.6-.3.5c-.6 1.4-.4 2.7.7 3.8l-.6-1.9.9 1-.4-1.7 1.5 1.5h.1c-.4-.4-.8-.9-.9-1.4l-.2-.5c1.3 1.6 3.1 2.6 5.1 3.2l-1.9-.3c.6.3 1.1.6 1.7.9-.3.3-.8.4-1.5.2l-.8-.2 1.3 1c-.3.2-.6.3-.9.2l-1.5-.5c.7.8 1.6 1.2 2.7 1.2.6.1 1.2 0 1.7-.2l.7-.4h.4c-.4 1.8-1.6 2.8-3.5 2.8-2.3-.2-4.2-1.4-5.5-3.5-.9-1.4-1-2.8-.6-4.3l-.6 1.1-.1.6v.4c0 1.7 1.3 3.4 3.9 5.1l.3.2c.4.2.2.2-.4 0s-1.2-.5-1.8-.9l.6.6c.5.5.7.9.6.9s-.4 0-1-.2c-.5-.2-.9-.5-1.3-.7.5.8 1 1.3 1.4 1.5-.5.3-1.3 0-2.4-1 .4.8.8 1.3 1.2 1.6-.4.4-1.1 0-2.3-1.3l.5.8c.4.6.5 1 .5 1.2-.1.2-.8-.2-2.1-1.3.4.9.8 1.5 1 1.6-.4.5-1.1 0-2-1.3.3 1 .5 1.6.7 1.8-.3 0-.7-.2-1-.6l-1.1-1c.5.9.8 1.5.7 1.8 0 .3-.6-.3-1.7-1.6 0 .6.1 1.2.6 1.8-.6 0-1.2-.6-1.8-1.9-.3 0-.2.5.2 1.5v.2h-.3c-.4-.3-.7-.8-1.1-1.7-.1-.2-.1-.2-.2 0l.1 1.2-.2.2-1.2-2.1v1.9c-.7-.6-1.1-1.4-1.3-2.3l-.1 1.8-1-2.3-.2 1.5c-.1 0-.4-.4-.6-1.1l-.2-.7-.4 1.5-.6-2-.5 1.2c-.3-.1-.4-.3-.5-.7v-1.2l-.6 1.4-.3-2.1-.7 1v-1.6l-.7.5h-.4c-.2.3-.3.6-.3 1v1c-1.5-.7-1.9-1.9-1.2-3.4.4-.8.9-1.5 1.6-2.1-1.1.4-1.9 1.2-2.3 2.4-.9-.7-1.5-1.6-2-2.7l-.9-.3c-.3-.3-.5-.6-.6-1v-.7l-1.9-6.3-.3-.1 1.4 5.9c0 .6.1 1.1.4 1.7.9 1.6 1.9 3.2 3 4.8.6 1.6 1.8 2.8 3.4 3.6.6.3 1.1.6 1.6 1.1-2.6-.1-5.1-.6-7.5-1.5-.9-.4-1.7-.2-2.3.5l3.3.3-.7.6 1.1-.2.8.4c-.2.4-.5.5-1 .5h-1.7l2.8.6.4-.4h-.3c1-1 2.5-1.1 4.5-.4l-.3.1h.8l.5-.2.7.5c-1.2.9-2.6 1.4-4.4 1.3-3.5.3-7-.1-10.4-1.2 2.1.9 4.3 1.5 6.6 1.7 3.2.3 6.1-.2 8.7-1.5 5.7 3.1 11.5 2.9 17.7-.4l.5.3c6.5 3.5 14.2 2.8 23-2.3 2 2.8 4.6 3.6 7.9 2.4.9-.3 1.7-.8 2.3-1.4h21.4l.9 1.7c.4.9.9 2.6 1.5 4.9.7 2.6 1.3 4.8 2 6.6 2.5 6.4 7.1 13.9 14 22.2.3.3.3.6.2.9-.2.2-.4.1-.7-.2-.4-.5-1.6-1.1-3.4-1.8-2-.8-3.6-1.1-4.8-1 .4 1 .6 2.3.4 3.8-.3 2.4-.1 4.1.5 5-2.3.5-3.4 2.4-3 5.9 4.6-1.5 8.5-.4 11.7 3.3 2.3 2.7 3.5 5.8 3.8 9.2.3 3.6-.6 7.1-2.5 10.7.1-1 .1-1.8.1-2.4-.3-2-.4-3.8-.3-5.5.1-2.4.6-4 1.5-5-1.5-2.5-3.7-2.6-6.4-.5-2.4-2.6-5.3-3.5-8.6-2.7 1 .9 1.4 1.9 1.4 3.1-.1 1.9 0 3.4.5 4.6-1.9.5-3.1 1.9-3.5 4.1-1.5-.5-2.9-.5-4.4.2-1.3.6-2.2 1.4-2.8 2.7-.8 1.5-.8 3.4-.2 5.7h-117.8c1-7.1-1.7-10.1-8-8.9-.3-2.2-1.4-3.5-3.2-3.9.4-1.9.6-3.5.6-4.7s.4-2.2 1.2-3.1c-3.3-.9-6.1 0-8.7 2.7-2.8-2.2-5-2.1-6.6.3 1 1.2 1.5 2.9 1.7 5.1 0 1.2 0 2.8-.3 4.8-.1.8 0 1.8.3 3.2-2.1-4-3-7.7-2.8-11 .2-3.4 1.6-6.6 4.2-9.5 3-3.5 6.9-4.5 11.5-3 .4-3.5-.6-5.4-3-5.8.6-1.6.9-3.3.6-4.9-.3-1.7-.2-3 .2-3.8-1.4-.2-3 .1-4.9.8-1.7.6-2.7 1.2-3.2 1.7-.3.4-.6.5-.9.2-.2-.3-.2-.6.2-.9 6.7-7.8 11.3-15.2 13.9-21.8.6-1.7 1.3-4 2.1-6.7.7-2.3 1.2-3.9 1.7-4.9l.7-1.4h21.9l-1.6-1.3h-19.5l.6-1.1c.6-.9 1.3-1.7 2.2-2.4l15.1-.5c.5 0 1-.2 1.5-.5h-15.5c-.7-.5-1.3-.9-2-1.2-2.3-1.1-4.5-1-6.8.3-.3-1.8-1.2-3.4-2.7-4.6-.8-.6-1.7-1.1-2.6-1.4-3.8-1.1-7-.2-9.6 2.8-1.7 1.9-2.3 4.1-1.8 6.5.2 1.2.6 2.3 1.3 3.3 1.7 2.7 4.2 3.4 7.4 2.3.5-.2 1-.4 1.4-.7l1.4-1c0 1-.2 2.1-.5 3.2-.4 1.4-.9 2.8-1.6 4.1-.2-.4-.4-.7-.7-1-1.3-1.3-2.8-1.9-4.6-2 .4 1.5.8 3 1 4.6.4 4.1-.4 7.8-2.5 11.2-.6-.9-1.4-1.7-2.3-2.2-1.8-1-3.3-.9-4.8.2.3.6.5 1.4.6 2.1v4.1c-.2 3.4-1.1 6.6-2.5 9.7-3.7 7.6-5.2 15.7-4.4 24.1.5 6.5 2.7 12.2 6.5 17.2 3.4 4.6 7.9 7.4 13.6 8.3 4.1.8 7.6-.1 10.5-2.5h125.2c3.8 2.4 7.9 3.2 12.4 2.2 5.8-1.4 10.4-4.6 13.5-9.7 4.4-7 5.9-14.6 4.8-22.9-.5-4.2-1.7-8.4-3.4-12.5-1.5-3.6-2.6-7.2-3.4-11-.7-3.1-.7-6 0-8.9-.3-.2-.6-.3-.9-.3-2.5-.3-4.5.6-6.1 2.6-3.1-4.9-3.5-10.1-1.4-15.6-1 0-2 .2-2.8.6-1.1.5-2 1.3-2.6 2.4-.5-.9-1-2-1.3-3.2-.4-1.4-.7-2.8-.7-4.2 1.4 1.4 3.1 2 5.1 2 1.8.1 3.3-.5 4.5-1.8.9-1 1.5-2.1 1.7-3.4.5-3.1-.3-5.7-2.5-7.9-2.1-2-4.5-2.8-7.4-2.2-3.7.5-6 2.6-6.8 6.1-2.9-1.8-5.7-1.7-8.4.3h-17.3c.5.4.9.8 1 1.4.1.5.1.9 0 1.4-.2 1-.7 1.9-1.5 2.6-1.2 1-2.5 1.6-3.9 1.5-.7 0-1.4-.1-2.1-.5-.9-.4-1.7-.9-2.3-1.5l-1.7-1.8.2.7-.8.5h-.1l-.1.1h-.1l-.2.1-.2.1c-3.4 2-6.9 3.1-10.6 3.3l-4.8-.2-2.8-.6c-.6-.1-1.1-.3-1.6-.5-.4-.1-.9-.3-1.3-.5l1.3-.8c6 0 11.1-2.1 15.4-6.4v.7l-.9 1c.7-.2 1.2-.7 1.3-1.4.2-1.1.8-1.9 1.7-2.4.1 1.2-.3 2.2-1.2 3l1-.7.5-.6.1-.2.2-.5c.2-.5.2-1 0-1.6l-.1-.3c2.3-3.5 5.4-5.9 9.2-7.3l-.6.2c-1.8.6-3.4 1.4-4.8 2.5l-1.4 1.2c-2.4 2.1-4.7 4.3-7 6.5-3.6 3.7-7.9 5.5-13 5.7l1.2-.9 1.6-.5c1.3-.6 2-1.6 2.2-3 .2-.8.7-1.4 1.6-1.6 1.8-.5 2.8-1.7 2.9-3.7l3.3-2.7c1.6 0 3.3-.1 4.9-.5 1.3-.4 2.2-.9 2.6-1.7.8-1.7.5-3.3-.7-4.8-.8-.5-2.2-1.7-3.7-2.7zm-8.2 13.6l-1.3.2c1-1.8 2.5-3 4.4-3.7l.8.1c-1.5 1-2.8 2.1-3.9 3.4zm-2.6 3.4l-.9 1c-.5.6-1.1.8-1.6.7l1.1-1.4c.4-.5.9-.6 1.4-.3zm-5.7 4.6l.9.2c-3.6 3.2-7.9 4.7-12.7 4.3-4.2-.2-7.8-1.9-10.6-5l-.2-.6c4.1 3.7 8.8 5.3 14.3 4.7 3.1-.4 5.9-1.6 8.3-3.6zm33.1.7l.4-.9c.1-.6.2-1.3 0-1.9l-.2-.7h17.2c.5.6 1.3 1.8 2.2 3.5h-19.6zm27.2-6.8c1.7-2.2 3.9-3.1 6.6-2.8 2.5.4 4.2 1.7 5.3 3.9 1.4 3 .9 5.5-1.8 7.8-1 .9-2.3 1.2-3.7.9-2.3-.5-3.5-1.9-3.5-4.2 0-1.3.4-2.2 1.4-2.8 1.3-.8 2.4-.6 3.1.6.7 1.1.7 2.1 0 3.2l.3.5.6.1c1.3-1.5 1.5-3 .6-4.6-.7-1.2-1.7-1.8-3-1.8-.8.1-1.5.4-2.1.9-2.1 1.8-2.9 4-2.5 6.8.2 1.6.5 3.2.8 4.7l2.1 8.8h1c.1-1.7.6-3.3 1.3-4.8.4-.8 1-1.3 1.9-1.5-1.3 5.5-.4 10.7 2.7 15.5-.1 1.4.2 2.7.8 4l.7.1.3-.2.1-.3c-.6-1.8-.5-3.5.3-5.1.4-.6.9-1 1.6-1.3.8-.3 1.5-.4 2.2-.3-.7 5.7.2 11.1 2.5 16.4 2.9 6.5 4.4 13.2 4.5 20.2.2 8.3-2.6 15.3-8.2 21.1-2.7 2.8-6 4.6-9.7 5.3-3.9.7-7.3 0-10.4-2.2-1-.8-1.9-1.8-2.6-3-1.5-2.8-1.3-5.5.7-8 .4-.6 1-1 1.7-1.1 1.8-.6 3.3-.2 4.5 1.2 1.5 1.7 1.8 3.7.8 5.8-1.2-.2-2-.9-2.4-2l-1.1-2.8-.8.1c-.3 2.4.7 4.3 2.8 5.5 1.6.9 3.3 1 5.1.4 1.3-.6 2.2-1.6 2.4-3 .4-1.9-.1-3.4-1.5-4.7-.5-.5-1-.8-1.6-.9-1.1-.3-2.3-.5-3.5-.3 0-2.1 1-3.3 3.1-3.6.7.9 1.6 1.3 2.5 1.3.3-.1.5-.3.7-.6-.6-.9-1.3-1.9-2.2-2.6-.4-.3-.6-.7-.9-1.2-.7-1.4-1-3.1-1-4.8 2.2.1 3.9.9 5.1 2.4.9 1.1 1.4 2.5 1.3 4l.4.4h.6c.7-1.4.6-2.8-.3-4.2.9-.9 2-1.1 3.1-.8l.7.2c-1 2.7-1.3 5.4-.9 8.2.7 4.5-.8 8.2-4.2 11.1 2.6-.9 4.6-2.6 6.1-5 3.5-5.4 4.1-11.1 1.8-17.1-1.8-4.6-5-7.6-9.7-8.9-1.4-.5-2.8-.6-4.3-.5.2-2.1 1.4-3 3.7-2.7l2.7.6.4-.9c-1.5-.4-2.8-1.3-4-2.4l-.3-.6c-.2-1.8-.4-3.6-.5-5.3 3-.1 5.3 1 6.9 3.6.6.9 1 1.9 1.3 3l.2.2.7-.3-.9-4c1.2-1.3 2.5-1.6 4.1-.8l.4.3c-1.6 2.8-2.1 5.7-1.3 8.9.5 1.8 1.6 3.2 3.2 4.3-.1-2.8-.6-5.5-1.6-8.1-.2-.6-.3-1.3-.2-2 .1-1.1.5-2.2 1.3-3.2-1.2-2.3-3.1-3-5.6-2.1-5.4-6.6-9.9-13.8-13.5-21.3-1.3-2.8-2.3-5.7-2.9-8.7-.2-1.1-.5-2.1-.9-3.2-1.1-2.7-2.6-5-4.6-7 2.1-1 4.1-.8 5.9.6-.1 2.2.6 4.2 2 6l.6-.3c-.6-1.9-.9-3.8-.8-5.9.3-1.1.7-2.2 1.5-3.1zm2.4 84c.6-.9.9-2 .8-3.4s-.5-2.4-1.2-3.3c2.5-.5 3.8.5 3.9 3.1-.1 2.3-1.2 3.5-3.5 3.6zm-11 1.2c.4 1.3 1.1 2.3 1.9 3.2h-122.1c.9-1.1 1.6-2.2 2-3.2h118.2zm-131.9-88.7c1.6.2 2.8.9 3.8 2.1 2.6 3 3 6.2.9 9.7l.6.5.6-.1.4-.5c.9-1.5 1.3-3.1 1.2-4.8l.6-.5c1.8-1.2 3.6-1.4 5.6-.5-2.4 2.3-4 5-4.9 8.2-.8 2.8-1.6 5.5-2.6 8.3-3.3 9-8.2 16.9-14.8 23.8l-1.7-.2c-1.9-.3-3.2.5-3.9 2.4.9 1 1.3 2.2 1.4 3.4.1.5 0 .9-.1 1.4-.9 2.8-1.4 5.7-1.4 8.6 1-.7 1.8-1.6 2.3-2.8 1.8-3.7 1.6-7.2-.5-10.7.9-.9 1.9-1.1 3.1-.7.6.1 1 .5 1.3.9.1.2.1.4 0 .6-.8 1.3-1 2.7-.5 4.1l.9-.3c0-1 .4-1.9.9-2.8 1.5-2.4 3.8-3.7 6.9-3.9l.1 4.6c0 .7-.2 1.3-.8 1.7-1.1.9-2.3 1.6-3.7 2.1l.1.9 3.9-.8c1.8.1 2.7 1.1 2.8 3-2.9-.2-5.6.3-8.1 1.7-1.4.8-2.6 1.8-3.5 3-3.4 4.3-4.6 9.2-3.5 14.8 1.1 5.5 4 9.5 8.8 12-1.5-1.3-2.6-2.8-3.4-4.7-.7-1.8-.9-3.8-.5-5.8.5-3.2.2-6.2-1.1-9l1.2-.2c.9 0 1.8.2 2.5.7l-.1.7c-.4 1.4-.4 2.7-.1 3.9l.8-.1c.5-1.4 1.2-2.7 1.9-3.9 1-1.8 2.6-2.8 4.8-2.9l-.3 2.8c-.1 1.1-.4 2.2-1 3.2-.2.4-.4.6-.9.8-.7.4-1.3.8-1.8 1.4l.3.9c.3 0 .6 0 1-.2.9-.4 1.7-.7 2.5-1 1.7.5 2.6 1.6 2.8 3.4-1.9-.5-3.6-.1-5 1.1-1.9 1.6-2.5 3.6-1.5 6 .5 1.2 1.3 2 2.6 2.4 1.8.5 3.5.3 5-.7 1.9-1.3 2.7-3.1 2.3-5.4l-1 .1-.2.9c-.4 1.9-1.3 3.1-3 3.5-.8-1.4-.9-2.8-.3-4.3.9-2.2 2.4-3.2 4.7-3.1 2.3.3 3.7 1.7 4.1 4 .6 3.2-.3 6-2.9 8.3-.8.6-1.7 1.1-2.6 1.5-5.1 1.8-9.9 1.3-14.5-1.7-2-1.3-3.7-2.8-5.1-4.7-2.9-3.8-4.9-8-6-12.6-1.4-6.2-1.3-12.3.5-18.3.6-2.2 1.4-4.2 2.4-6.3 3-6 4-12.3 3.1-18.9h1.8c2.1.4 3 1.6 2.8 3.7l-.2 3.3.9.1c.4-.7.6-1.4.8-2.3.1-.9.4-1.6.8-2.4 2.6-4.7 3.3-9.7 1.9-15.1 2.8 1.2 3.9 3.3 3.2 6.4l.7.3.4-.6c.1-.4.2-.7.2-1-.1-1.2.1-2.3.7-3.4 1.1-2.3 1.8-4.6 1.9-7.2.2-1.8.1-3.7-.2-5.4-.3-1.8-1.2-3.1-2.7-3.7s-2.9-.4-4.1.9c-1.9 1.9-1.9 3.7 0 5.3l.7-.4-.4-1.9c-.2-1.7.4-2.6 2-2.8.9 0 1.6.3 2.1 1 1.3 1.8 1.2 3.6-.1 5.3-1.1 1.4-2.6 1.9-4.4 1.6-2.1-.5-3.4-1.7-4-3.6-.9-2.9-.2-5.4 1.9-7.4 1.6-1.5 3.6-2.1 5.9-1.7zm1.7 83.9c-.2 1.4.1 2.5.8 3.5-2.4 0-3.6-1.1-3.5-3.4.1-2.7 1.4-3.8 4-3.4-.8.9-1.2 2-1.3 3.3z"/><path class="st0" d="M-271.9 224l1.3-.2c1.1-1.3 2.4-2.4 3.9-3.4l-.8-.1c-1.9.7-3.4 2-4.4 3.7zM-274.1 228.2l.9-1c-.4-.3-.9-.2-1.4.2l-1.1 1.4c.5.2 1 0 1.6-.6zM-278 232l-.9-.2c-2.4 2-5.2 3.2-8.3 3.7-5.4.6-10.2-1-14.3-4.7l.2.6c2.8 3.1 6.4 4.7 10.6 5 4.8.3 9.1-1.2 12.7-4.4zM-245.5 231.6l-.4.9h19.6c-.9-1.7-1.6-2.8-2.2-3.5h-17.2l.2.7c.2.6.2 1.3 0 1.9z"/><path class="st0" d="M-212.1 222.8c-2.7-.3-4.9.6-6.6 2.8-.8.9-1.2 2-1.2 3.3-.1 2 .2 4 .8 5.9l-.6.3c-1.4-1.8-2.1-3.8-2-6-1.8-1.4-3.8-1.6-5.9-.6 2 2 3.5 4.4 4.6 7 .4 1 .7 2.1.9 3.2.6 3 1.6 5.9 2.9 8.7 3.6 7.6 8.1 14.7 13.5 21.3 2.5-.9 4.4-.3 5.6 2.1-.8.9-1.3 2-1.3 3.2 0 .7 0 1.4.2 2 .9 2.7 1.4 5.4 1.6 8.1-1.7-1.1-2.7-2.5-3.2-4.3-.8-3.2-.4-6.1 1.3-8.9l-.4-.3c-1.6-.8-2.9-.5-4.1.8l.9 4-.7.3-.2-.2c-.2-1.1-.6-2-1.3-3-1.6-2.5-3.9-3.7-6.9-3.6.1 1.8.4 3.6.5 5.3 0 .3.1.5.3.6 1.1 1.1 2.4 1.9 4 2.4l-.4.9-2.7-.6c-2.3-.3-3.5.6-3.7 2.7 1.5-.1 2.9.1 4.3.5 4.7 1.3 8 4.3 9.7 8.9 2.3 6 1.8 11.6-1.8 17.1-1.5 2.3-3.5 4-6.1 5 3.4-2.9 4.8-6.6 4.2-11.1-.4-2.8-.1-5.5.9-8.2l-.7-.2c-1.1-.4-2.2-.1-3.1.8.9 1.4.9 2.8.3 4.2h-.6l-.4-.4c0-1.5-.4-2.8-1.3-4-1.3-1.5-3-2.3-5.1-2.4 0 1.7.3 3.3 1 4.8.2.5.5.9.9 1.2.9.7 1.6 1.6 2.2 2.6-.2.3-.4.5-.7.6-.9 0-1.8-.5-2.5-1.3-2.1.3-3.1 1.4-3.1 3.6 1.3-.1 2.4 0 3.5.3.5.2 1.1.5 1.6.9 1.4 1.3 1.9 2.8 1.5 4.7-.3 1.4-1.1 2.4-2.4 3-1.8.7-3.5.5-5.1-.4-2.2-1.3-3.1-3.1-2.8-5.5l.8-.1 1.1 2.8c.4 1.1 1.3 1.8 2.4 2 1-2.2.8-4.1-.8-5.8-1.3-1.4-2.7-1.8-4.5-1.2-.7.1-1.3.5-1.7 1.1-2 2.5-2.2 5.1-.7 8 .7 1.2 1.5 2.2 2.6 3 3.1 2.2 6.5 2.8 10.4 2.2 3.8-.8 7-2.5 9.7-5.3 5.6-5.8 8.4-12.8 8.2-21.1-.1-7-1.7-13.8-4.5-20.2-2.3-5.2-3.2-10.7-2.5-16.4-.7-.1-1.5 0-2.2.3s-1.3.7-1.6 1.3c-.9 1.6-.9 3.2-.3 5.1l-.1.3-.3.2-.7-.1c-.6-1.3-.9-2.6-.8-4-3.1-4.7-4-9.9-2.7-15.5-.9.2-1.5.7-1.9 1.5-.7 1.5-1.1 3.1-1.3 4.8h-1l-2.1-8.8c-.3-1.5-.6-3.1-.8-4.7-.4-2.8.4-5.1 2.5-6.8.6-.5 1.3-.9 2.1-.9 1.3 0 2.3.6 3 1.8.9 1.6.7 3.2-.6 4.6l-.6-.1-.3-.5c.7-1.1.7-2.1 0-3.2-.8-1.2-1.8-1.4-3.1-.6-.9.6-1.4 1.6-1.4 2.8 0 2.3 1.2 3.7 3.5 4.2 1.4.3 2.6 0 3.7-.9 2.6-2.3 3.2-4.8 1.8-7.8-1.3-2.4-3.1-3.7-5.6-4.1zm-4.1 3.4l.8-.3c-1.9 1.4-2.7 3.1-2.5 5.3-1-2.2-.4-3.8 1.7-5zm8 .9c.4.6.7 1.2.9 1.9.3 1.8-.6 3.3-2.6 4.7 1.3-1.3 2-2.5 2.2-3.8.1-1.1-.4-2.4-1.5-3.8.3.2.7.5 1 1zm-9.9 17.5c.6 1.5 1.3 3 2.2 4.4 3.7 6 7.5 11.8 11.6 17.5-3.6-4-6.9-8.2-9.9-12.6-1.8-2.8-3.2-5.9-3.9-9.3zm6.4 2l.4 2.7c-.9-1.9-.9-3.7-.3-5.6l-.1 2.9zm12.3 45.8l-.1-.5c-.9-5.4-3.6-9.6-7.9-12.7l1.8 1.3c4 3.1 6 7 6.2 11.9zm-3.8-36.8v2.3c-.1.8 0 1.9.2 3.4-.7-1.8-.8-3.7-.2-5.7zm-10.7 39.7l1.1 1.5c-1.4-.6-2.2-1.9-2-3.9.1 1 .5 1.8.9 2.4zm4.2 12.7c-1 3.1-2.7 5.1-5.2 6.3 8.4-1.2 13.8-6 16.3-14.3-2.7 10-8.6 14.9-17.7 14.8 3.2-1.7 5.3-3.9 6.2-6.9.9-2.6.7-5.3-.4-8.1 1.6 2 1.9 4.7.8 8.2z"/><path class="st0" d="M-215.4 225.9l-.8.3c-2.1 1.2-2.6 2.8-1.7 5-.3-2.2.5-4 2.5-5.3zM-207.3 229c-.1-.7-.4-1.3-.9-1.9-.3-.5-.7-.8-1.1-1 1.1 1.4 1.6 2.7 1.5 3.8-.2 1.3-.9 2.5-2.2 3.8 2.1-1.4 3-2.9 2.7-4.7zM-215.9 249c-.9-1.4-1.6-2.8-2.2-4.4.7 3.4 2.1 6.5 3.9 9.2 3 4.4 6.3 8.6 9.9 12.6-4-5.6-7.9-11.4-11.6-17.4zM-211.3 249.3l-.4-2.7.1-2.9c-.6 1.8-.5 3.7.3 5.6zM-199.5 292l.1.5c-.2-4.9-2.2-8.8-6.2-11.9l-1.8-1.3c4.3 3 7 7.3 7.9 12.7zM-203.2 257.9v-2.3c-.6 2-.5 3.9.2 5.7-.3-1.4-.3-2.6-.2-3.4zM-212.8 296.9l-1.1-1.5c-.4-.7-.8-1.4-.9-2.3-.2 1.9.5 3.2 2 3.8zM-214.9 314.3c2.5-1.1 4.2-3.2 5.2-6.3 1.1-3.5.8-6.2-.8-8.3 1.1 2.8 1.3 5.5.4 8.1-.9 3-3 5.2-6.2 6.9 9.1.2 14.9-4.7 17.7-14.8-2.5 8.4-7.9 13.2-16.3 14.4z"/><path class="st0" d="M-215.5 306.3c.1 1.4-.1 2.5-.8 3.4 2.3-.1 3.5-1.3 3.4-3.6-.1-2.5-1.4-3.5-3.9-3.1.8.9 1.2 2 1.3 3.3zM-225.3 314.1c-.8-.9-1.4-1.9-1.9-3.2h-118.2c-.4 1-1.1 2.1-2 3.2h122.1zM-355.3 224.2c-1-1.2-2.2-1.8-3.8-2.1-2.3-.4-4.3.2-6 1.8-2.2 2-2.8 4.5-1.9 7.4.6 1.9 1.9 3.2 4 3.6 1.8.3 3.3-.2 4.4-1.6 1.3-1.7 1.3-3.5.1-5.3-.5-.8-1.2-1.1-2.1-1-1.5.2-2.2 1.2-2 2.8l.4 1.9-.7.4c-1.9-1.7-1.9-3.4 0-5.3 1.2-1.2 2.6-1.5 4.1-.9s2.5 1.8 2.7 3.7c.3 1.8.4 3.6.2 5.4-.2 2.5-.9 4.9-1.9 7.2-.5 1.1-.8 2.2-.7 3.4 0 .3 0 .6-.2 1l-.4.6-.7-.3c.7-3.1-.4-5.2-3.2-6.4 1.4 5.3.8 10.4-1.9 15.1-.4.8-.7 1.5-.8 2.4-.1.8-.4 1.6-.8 2.3l-.9-.1.2-3.3c.2-2.1-.8-3.3-2.8-3.7h-1.8c.9 6.5 0 12.8-3.1 18.9-1 2-1.8 4.1-2.4 6.3-1.8 6-1.9 12.1-.5 18.3 1.1 4.6 3.1 8.8 6 12.6 1.4 1.9 3.1 3.4 5.1 4.7 4.6 3 9.4 3.5 14.5 1.7.9-.4 1.8-.9 2.6-1.5 2.6-2.3 3.5-5 2.9-8.3-.4-2.3-1.8-3.7-4.1-4-2.2-.1-3.8.9-4.7 3.1-.6 1.5-.5 2.9.3 4.3 1.7-.4 2.6-1.6 3-3.5l.2-.9 1-.1c.4 2.3-.4 4.1-2.3 5.4-1.6 1-3.2 1.2-5 .7-1.3-.5-2.1-1.2-2.6-2.4-.9-2.3-.4-4.3 1.5-6 1.4-1.2 3.1-1.5 5-1.1-.2-1.9-1.1-3-2.8-3.4-.8.3-1.6.6-2.5 1-.4.2-.7.3-1 .2l-.3-.9c.5-.5 1.1-.9 1.8-1.4.4-.2.7-.4.9-.8.5-1 .9-2.1 1-3.2l.3-2.8c-2.2.1-3.7 1.1-4.8 2.9-.7 1.2-1.3 2.5-1.9 3.9l-.8.1c-.2-1.3-.2-2.6.1-3.9l.1-.7c-.8-.5-1.6-.7-2.5-.7l-1.2.2c1.3 2.8 1.7 5.8 1.1 9-.4 2-.1 4 .5 5.8.8 1.9 1.8 3.4 3.4 4.7-4.8-2.5-7.8-6.5-8.8-12-1.1-5.5.1-10.5 3.5-14.8.9-1.2 2.1-2.2 3.5-3 2.6-1.4 5.3-1.9 8.1-1.7-.1-1.9-1.1-2.8-2.8-3l-3.9.8-.1-.9c1.3-.5 2.6-1.3 3.7-2.1.5-.5.8-1 .8-1.7l-.1-4.6c-3.1.2-5.3 1.5-6.9 3.9-.5.9-.9 1.8-.9 2.8l-.9.3c-.5-1.5-.3-2.9.5-4.1.1-.2.1-.4 0-.6-.3-.5-.7-.8-1.3-.9-1.2-.4-2.3-.2-3.1.7 2.1 3.5 2.3 7.1.5 10.7-.5 1.1-1.3 2-2.3 2.8 0-2.9.4-5.8 1.4-8.6.1-.5.2-.9.1-1.4-.1-1.2-.5-2.4-1.4-3.4.8-1.9 2.1-2.8 3.9-2.4l1.7.2c6.6-6.9 11.5-14.8 14.8-23.8 1-2.7 1.8-5.4 2.6-8.3.9-3.2 2.5-5.9 4.9-8.2-1.9-.9-3.8-.8-5.6.5l-.6.5c.1 1.8-.3 3.3-1.2 4.8l-.4.5-.6.1-.6-.5c2.2-3.6 1.9-6.8-.8-9.8zm.2 3c.6 1.2.5 2.3-.2 3.3.4-.5.3-1.5-.4-2.8-.6-1.4-1.3-2.2-2.1-2.5 1.3.1 2.2.8 2.7 2zm-8.5 5.7c-.7-.5-1.3-1-1.7-1.8-1.2-2.3-.8-4.1 1.2-5.7-1.9 2.7-1.8 5.2.5 7.5zm2.4 13.2c0 1.2-.3 2-.8 2.5.3-.7.4-1.6.4-2.8l-.1-2.9c.3 1.1.5 2.2.5 3.2zm6.1-2.2l-2.1 6c-3.3 5.8-7.3 11.2-11.9 16.1l3.1-4.6c.9-1.4 1.9-2.7 3-3.9 3.5-4.1 6.1-8.6 7.9-13.6zm-15 13.6v-2.3c.6 2 .5 3.9-.2 5.7.2-1.4.3-2.6.2-3.4zm10.2 39.1c.2-.5.5-1.1 1-1.8.4-.6.8-1.3.9-2.1.2 2-.5 3.3-1.9 3.9zm-7.6-16.4l2.8-1.7c-4.8 3.1-7.6 7.5-8.7 13.1l-.1.9c0-5 2-9.2 6-12.3zm9.1 33.7c-2.6-1.4-4.3-3.5-5-6.7-.9-3.5-.4-6.1 1.3-7.9-1.2 2.8-1.4 5.6-.7 8.2.9 3 2.9 5.2 6.1 6.7-9.5.9-15.6-4.8-18.2-16.8 2.3 9.9 7.9 15.4 16.5 16.5z"/><path class="st0" d="M-355.3 230.5c.7-1 .8-2.1.2-3.3-.5-1.2-1.4-1.9-2.6-2 .8.4 1.5 1.2 2.1 2.5s.7 2.3.3 2.8zM-365.3 231.1c.4.8.9 1.4 1.7 1.8-2.3-2.4-2.4-4.9-.4-7.5-2.1 1.6-2.5 3.5-1.3 5.7zM-362 248.6c.5-.5.8-1.4.8-2.5 0-1-.1-2.1-.5-3.1l.1 2.9c.1 1.2-.1 2.1-.4 2.7zM-357.1 249.9l2.1-6c-1.8 5-4.4 9.5-7.9 13.6l-3 3.9-3.1 4.6c4.6-4.9 8.5-10.3 11.9-16.1zM-370.2 255.1v2.3c.1.9 0 2-.2 3.4.8-1.7.8-3.6.2-5.7zM-358.9 294.8c-.5.7-.8 1.3-1 1.8 1.3-.6 2.1-1.9 2-3.9-.2.8-.5 1.5-1 2.1zM-364.7 278.5l-2.8 1.7c-4 3.2-6 7.3-6 12.3l.1-.9c1-5.6 3.9-10 8.7-13.1zM-363.5 307.2c.8 3.2 2.4 5.3 5 6.7-8.6-1-14.1-6.5-16.6-16.5 2.6 12 8.8 17.7 18.2 16.8-3.2-1.4-5.2-3.7-6.1-6.7-.8-2.6-.5-5.4.7-8.2-1.6 1.8-2 4.4-1.2 7.9z"/><path class="st0" d="M-356.6 309.5c-.7-.9-1-2.1-.8-3.5.1-1.3.5-2.3 1.3-3.3-2.6-.4-3.9.7-4 3.4-.1 2.4 1.1 3.4 3.5 3.4zM-256.6 219.7l1.1-.9c1.7-1.2 3.5-1.9 5.4-2.3l-.8-.2c-2.4.2-4.7.9-6.7 2.2-.4.8-1.3 1.3-2.6 1.7a58.2 58.2 0 0 0-7.2 6.1c-2.2 2.3-4.8 4.1-7.7 5.4l-1.6.5-1.2.9c5-.1 9.3-2 13-5.7 2.2-2.2 4.6-4.4 7-6.5l1.3-1.2zm-7.1 4.6l5.9-4.8c-3.5 3.7-7.3 7-11.4 9.9l5.5-5.1z"/><path class="st0" d="M-257.8 219.5l-5.9 4.8-5.4 5.1c4-2.9 7.8-6.2 11.3-9.9z"/><path class="st0" d="M-255.5 219.9c.4-.4.6-.6.4-.9l-5.3 5.3.1.3c.1.6.1 1.1 0 1.6l-.2.5-.1.2c-.3.6-.9 1-1.5 1.3.9-.8 1.3-1.8 1.2-3-.9.5-1.5 1.3-1.7 2.4-.2.8-.6 1.3-1.3 1.4l.9-1v-.7c-4.4 4.3-9.5 6.4-15.4 6.4l-1.3.8c.4.2.8.4 1.3.5.4.2 1 .4 1.6.5l2.8.6 4.8.2c3.7-.3 7.2-1.4 10.6-3.3l.2-.1.2-.1h.1l.1-.1h.1l.8-.5-.2-.7 1.7 1.8c.6.6 1.4 1.1 2.3 1.5l.2.1c.6.3 1.2.4 1.9.4 1.4 0 2.6-.5 3.9-1.5.8-.7 1.3-1.5 1.5-2.6v-.3c.1-.4 0-.7-.1-.9-.5-1-1.3-2-2-2.8-1.7-.4-3.3-.1-4.8.9-1.4 1-3 1.5-4.8 1.5l-.7.6.1-.1.6-.1 1.3-.1c-.4.5-1 .9-1.7.9l-1.5.5-.3.1h-2.1l-1.4-.3-1.3.7.6.3.5.2 3.2-.3c-.6.4-1.3.7-1.9 1l-1.8.5-.8.1-1.3.1.3-.1c-.5-.1-.9-.3-1.3-.6l-.2.2c-.8.6-1.6 1-2.4 1.2.4.3.5.5.4.5l-.7.1-3.4-.1-2.9-.1 2.3-.4c1.2-.1 2.3-.3 3.4-.7 1.6-.4 2.9-1.1 4.1-2.2l-.4.3c.1 0 .2 0 .3-.1l.6-.4v-.1l.4-.5c.4-.4.8-.6 1.3-.8l-.1.4c0 .1 0 .1.1.1l1.8-1.6-.3.6.3.1.5-.5.5-.7c.4-.5.6-.6.7-.2l.4-.1.3-.1.4-.3.1-.1.7-.7.2-.2v.4l1.9-1.7-.4.6h.8l1.1-1.4v-.1l.5-.5c2.1-1.9 4.2-3.7 6.4-5.4l.8-.9-5.8 4.6c-.7.6-1.5.9-2.3 1l5.9-5.6h-.1c-2.2 1.7-4.3 3.5-6.2 5.5l-.2.2v.9l-1 1.2c0-.5.1-1 .3-1.4v-.6c0-.3.1-.5.3-.6 1-1.5 2.1-2.8 3.3-4l-5 4.5-.4 2.7-.7.4.1-.4.4-1.8v-.5l-.1.2c0-.2.1-.4.3-.6 1.1-1.4 2.1-2.5 3.2-3.4zm7.2 8.9v.4c-2.1 0-4 .4-6 1.2 1.9-1 3.9-1.5 6-1.6zm-.7 1.8l-.9.5-1.1-.1h-.1c-.8.3-1.5.5-2.3.8l-1.8.4-.9-.6c.7-.4 1.4-.7 2.2-.9l1.6-.5c.9-.3 1.8-.3 2.6 0l.9.4h-.2zm1.3.6c-.4.5-.9 1.1-1.5 1.5l-.5.4c1-.9 1.8-2 2.2-3.2l.3-1.6c.3 1 .1 2-.5 2.9zm-13 .3h-.5l.9-.5 1.3-.1c-.5.3-1.1.6-1.7.6z"/><path class="st0" d="M-248.3 229.2v-.4c-2.1 0-4.1.6-6 1.6 1.9-.8 3.9-1.2 6-1.2zM-249 230.6l.1-.1-.9-.4c-1.4 0-2.8.1-4.1.6-.7.2-1.4.5-2.2.9l.9.6 1.2-.4-1.3-.3c1.7-.9 3.5-1.3 5.3-1.2l-.9.7 1.1.1.8-.5z"/><path class="st0" d="M-254.1 231.8h.6c.8-.2 1.5-.5 2.3-.8h.1l.9-.7c-1.8 0-3.6.3-5.3 1.2l1.4.3zM-247.5 229.8l-.1.5c-.2.6-.5 1.2-.9 1.7l.2-.2.6-.6c.6-.9.8-1.9.5-2.9l-.3 1.5zM-261.2 231.5h.5c.6 0 1.2-.3 1.7-.6l-1.3.1-.9.5zM-256 223l.1-1c-.4.5-.8 1.1-1 1.9-.1.4-.2.9-.3 1.4l1-1.2v-.9l.2-.2zM-259.1 225.9h-.1l-.1.4.7-.4.3-2.6z"/><path class="st0" d="M-255.1 224.5l-1.2 1.5h-.8l.4-.6-1.9 1.7v-.4l-.2.2-.8.8-.4.3-.3.1c-.1.1-.2.1-.3.1h-.1c-.2-.3-.4-.1-.9.6-.2.4-.5.6-.9.8l-.3-.1.3-.6-1.8 1.6s-.1 0-.1-.1l.1-.4c-.5.1-.9.4-1.3.8l-.4.5v.1c-.2.4-.5.5-.9.5l.3-.5c-1.2 1-2.6 1.8-4.1 2.2-1.1.4-2.2.6-3.4.7l-2.3.4 2.9.1-1.3-.2 4.9-.4c.8-.1 1.6-.5 2.4-1.2l.2-.2c.4.3.8.5 1.3.6l2-.5-1 .5.8-.1 1.8-.5c.7-.3 1.3-.6 1.9-1l-3.2.3-.5-.2-.6-.3 1.3-.7 1.4.3h2.1l.3-.1 1-.4-1-.1h-1.3l-.5-.2.9-.9 1.8.6.4-.2c.2-.5.7-.8 1.3-1l-1 .3c-.6.4-1.2.5-1.8.4l-.4-.2 1.5-1.4.8-.2.2-.4c1.2-.3 2.2-.9 3.1-1.6l.1-.6.2-.5.7-.9c-.5-.1-.9.3-1.4.7zm-10.1 8.2l-.5-.2c.8-.8 1.6-.9 2.4-.3l1.4-.3-1.4.4c-.4.3-1.1.5-1.9.4z"/><path class="st0" d="M-265.7 232.5l.5.2c.8.1 1.5 0 1.8-.4h-.1.1c-.8-.7-1.5-.6-2.3.2z"/><path class="st0" d="M-263.4 232.2l-.1.1h.1l1.4-.4zM-262.9 220c2.7-.1 4.4-.9 5-2.2.9-2-.5-4.5-4.3-7.4-5.6-3.5-11.6-5.2-18.1-5.2-1.4 0-2.7.3-4 .8-2.5 1.1-3.1 2.9-1.8 5.2h.1v-.7c2 3.1 6.1 5.7 12.4 7.7 4.3 1.4 7.8 2 10.7 1.8zm-1.4-9.2c.7.5 1.2 1.1 1.3 1.9-.3.5-.6.8-1 .9-2 .5-3.6-.1-4.7-2-.2-.3-.4-.5-.7-.5l1.6.4-1.7-1.3 1.2.3-2.5-1.6 2.2.6-2.6-1.4c2.5.4 4.8 1.3 6.9 2.7zm5.6 4.8c.2 1-.2 1.8-1.1 2.4-1.1.7-2.6.9-4.8.8-2.4-.1-5.5-.8-8.9-2-3.5-1.2-6.2-2.5-8-3.8-1.7-1.2-2.7-2.3-3.1-3.4-.3-1-.1-1.8.6-2.5.6-.6 1.6-.9 2.7-1-1.8 1.1-2.5 1.9-1.8 2.2.1 0 .3-.1.8-.3.5-.3.9-.5 1.2-.5v.3c-1.5.9-2 1.4-1.4 1.7 1.2-.5 1.8-.7 1.9-.6-1.5.9-1.9 1.5-1.3 1.9.7-.6 1.4-1 2-1.1-1.2 1.1-1.7 1.7-1.3 1.9 1.1-.6 1.8-.9 1.9-.9v.1c-1.2.7-1.6 1.2-1.1 1.5 1-.6 1.5-.8 1.5-.5-1.1.6-1.3 1.1-.8 1.4.9-.5 1.4-.7 1.7-.6-.3.2-.4.5-.6.7-.1.4-.1.5.1.5l1.3-.1-.5.4c-.4.2-.4.4-.1.6.3-.2.7-.2 1.1 0 .8 1 1.2.6 1.1-1.4 1.5-.4 3 0 4.5 1-2.2-.7-3.7-.9-4.4-.6 0 .3.5.5 1.5.7 1.2.1 1.8.3 1.9.5-2.1-.3-3.1-.3-3 .2 2.9.1 5 1 6.3 2.8.3-.4-.1-1-1.1-1.8.3-.2 1.2.5 2.6 2.1.4-.3.1-.9-1-2.1.2 0 .8.4 1.5 1.2l1.2 1.1c.5-.3.2-1-.9-2.3.3 0 .7.3 1.3 1.1l.9 1.1c.6-.2.3-1-.9-2.5.6 0 1.3.8 2.2 2.5.4-.7.1-1.6-.9-2.8.5-.1 1.3.8 2.1 2.6.6-.6.3-1.8-1.2-3.3.9.2 1.7 1.1 2.2 2.8.7-.7.3-1.9-1.2-3.4.8.2 1.5 1.1 2.2 2.8.4-.9 0-2-1.3-3.5 1.5.4 2.1 1.2 2.4 2.1zm-16.7-6.8l1.9.4-3.5.1-.3-.5h1.9zm-2.3-.6l-.2-.5c1.6-.4 3.2-.3 4.8.3l-4.6.2zm1.8 4.5v-.6l2.3.1-2.3.5zm.1-1.1l-.4-.5 3.1.1-2.7.4zm-.6-1.1l-.3-.7 3.2.3c-1 0-2 .2-2.9.4zm-2-3.5l-.5-.8 4.1.5-3.6.3zm-2.1-.2c2.2 1.3 3.6 3.2 3.9 5.7l.1.8c-2.3-1.5-3.7-3.7-4-6.5zm4.1 10l-1.7-1.1c3.1 1.3 6.1 2.3 9.1 3l-.5.2c-3-.2-5.8-1.1-8.5-2.5l1.6.4z"/><path class="st0" d="M-262.9 212.6c-.2-.8-.6-1.4-1.3-1.9-2.1-1.3-4.4-2.3-6.8-2.8l2.6 1.4-2.2-.6 2.5 1.6-1.2-.3 1.7 1.3-1.6-.4c.3.1.5.3.7.5 1.1 1.9 2.6 2.5 4.7 2 .3 0 .6-.3.9-.8z"/><path class="st0" d="M-259.8 218c.9-.6 1.3-1.4 1.1-2.4-.3-.9-.9-1.7-2.1-2.3 1.3 1.4 1.7 2.6 1.3 3.5-.7-1.7-1.4-2.6-2.2-2.8 1.4 1.5 1.8 2.7 1.2 3.4-.6-1.7-1.3-2.7-2.2-2.8 1.5 1.6 1.8 2.7 1.2 3.3-.9-1.8-1.6-2.7-2.1-2.6 1 1.2 1.3 2.2.9 2.8-.9-1.7-1.6-2.5-2.2-2.5 1.2 1.4 1.5 2.3.9 2.5l-.9-1.1c-.6-.8-1-1.1-1.3-1.1 1.1 1.2 1.4 2 .9 2.3l-1.2-1.1c-.8-.8-1.3-1.2-1.5-1.2 1.1 1.1 1.4 1.8 1 2.1-1.4-1.6-2.3-2.3-2.6-2.1 1 .8 1.4 1.4 1.1 1.8-1.3-1.7-3.4-2.6-6.3-2.8-.1-.5.9-.5 3-.2-.1-.2-.8-.4-1.9-.5-1-.1-1.6-.4-1.5-.7.6-.3 2.1-.1 4.4.6-1.5-1.1-3.1-1.4-4.5-1 0 2-.3 2.4-1.1 1.4-.4-.2-.8-.2-1.1 0-.3-.2-.3-.4.1-.6l.5-.4-1.3.1c-.2 0-.2-.1-.1-.5.1-.3.3-.5.6-.7-.3-.1-.9.1-1.7.6-.5-.3-.3-.8.8-1.4 0-.2-.5 0-1.5.5-.5-.4-.1-.9 1.1-1.5v-.1c-.2 0-.8.3-1.9.9-.4-.2 0-.9 1.3-1.9-.6.1-1.3.5-2 1.1-.6-.3-.1-.9 1.3-1.9-.1-.1-.8 0-1.9.6-.6-.2-.1-.8 1.4-1.7v-.3c-.3 0-.7.1-1.2.5-.4.2-.7.3-.8.3-.6-.3 0-1.1 1.8-2.2-1.1 0-2.1.4-2.7 1-.7.7-.9 1.5-.6 2.5.4 1.1 1.4 2.3 3.1 3.4 1.9 1.3 4.6 2.6 8 3.8 3.5 1.3 6.5 1.9 8.9 2 1.8.3 3.4 0 4.5-.6z"/><path class="st0" d="M-273.5 209.2l-1.9-.4h-1.9l.3.5zM-278 207.6l.2.5 4.6-.2c-1.5-.5-3.1-.7-4.8-.3zM-275.9 212.1v.6l2.3-.5zM-276.2 211.1l.4.5 2.6-.4zM-276.7 209.9l.3.7c.9-.3 1.9-.4 3-.4l-3.3-.3zM-278.9 206.2l.5.8 3.5-.3zM-276.5 212.5c-.4-2.5-1.7-4.4-3.9-5.7.3 2.8 1.7 5 4.1 6.5l-.2-.8zM-278.1 215.7l1.7 1.1-1.6-.4c2.6 1.4 5.5 2.3 8.5 2.5l.5-.2c-3-.7-6.1-1.7-9.1-3zM-247.9 220.3l-6.6 4.1-.2.5 1-.6c2.2-1.1 4.1-2.5 5.8-4zM-249.5 223.9l-5.3 1.6c-.9.7-1.9 1.3-3.1 1.6l-.2.4-.8.2-1.5 1.4.4.2c.6.1 1.3 0 1.8-.4-.1 0-.3-.1-.3-.1l2-.9c-.2 0-.4-.1-.6-.3l.7-.2v-.3l6.9-3.2zM-286.1 211.2c.4.7.9 1.4 1.6 1.9l1.3 1 .7.5h.1c-1.8-1.1-3.1-2.3-3.7-3.4z"/><path class="st0" d="M-278.7 216.7l.4.5c-.6-.2-1.2-.5-1.8-.7l1.7 2.1c-.5-.4-1.1-.8-1.7-1.1l1.6 2.1-1.4-1 .9 1.6-1.3-1.1.6 1.8c-1.4-1.7-2.2-3.7-2.4-5.9l-.4-.2h-.1l-.1.1v.5l-.5.7.2-.8-1 .1-.3 1.4 1 1.1.9.4v.5l-1.3-.5-.7-.4v.5c-1.3 0-1.8-.7-1.7-1.9l.6-.5-.4.5.1.6h.3c.7-.5.8-1 .4-1.7l.6-.1c.5-.2.9-.5 1.2-.9l.1-.1-1.3-1-.1.2.5.3-.7.2.1-.4c-.2.4-.3.9-.4 1.3l-.1.9-1.9-.9c-.3.8-.3 1.7.2 2.7.4 1 1 1.9 1.9 2.5h.3v-.4l-1.5-1.5 2 1.2v.2h1.7l-.3.3-.1.1h-.5v.9l-.3-.1v-.2c0-.4-.1-.5-.5-.3-.2.2-.5.4-.7.5.2.5 0 .5-.4.2 0 0-.1 0-.2-.1l-.4-.1c-.4.8-.4 1.6-.2 2.3h.2c-.2-.5-.1-.8.2-.9l.1.9.4.8-.5-.3h-.1l-1.1 1c0 .8 0 1-.1.9-2.6-2.9-3.5-6.1-2.5-9.8.4.7.6 1.4.5 2.3s-.1 1.7.1 2.3c1.1-2.9 1-5.3-.1-7-1.7-2.5-2.5-4.1-2.5-4.6l-.4.5c-.1-.5-.6-1.3-1.3-2.2-2.8.4-5.4 1.4-7.9 2.9h-.2v.2h.6c0 .3-.2.5-.5.4-.6-.2-.9-.5-.9-1 0-.2.3-.4.8-.5l.5.1c-.3-.7-.9-.8-1.7-.2-.5.4-.6.8-.4 1.2l.1.1c.3.1.5.4.7.7l.5.1-.2.4c.2.3.1.6-.2.9l-.1.2-1.2-1.8-1.3-.1-.1-.1-2.5 2.5h1.1l-.4.2-.2.9c.3-.1.4.1.3.6l-.1 1 .7-.3-.1.4h.1c.2.2.3.5.1.8l.7 2 .5-.5h.2c.2.1.3.4.2.7l.7.6.2-.6c.4.3.6.5.8.8l1.9.7-.4-.4-.8-.5c-.8-1.5-1.1-3.1-.9-4.8.1-.5.4-1 .9-1.4.3.7.1 1.3-.4 1.9.9 3.3 3.1 4.9 6.7 4.8h.1l.4-.1c.1.4 0 .5-.1.6-.1 0-.3-.1-.4-.4-.1.1-.2.1-.4.1.1.4.1.6 0 .6l-.6-.4-2.4-.3-.1.5v.1c.8.9 1.7 1.8 2.8 2.3l.4.1.3-.1-2.1-2.4 2.4 2 .5-1.5c.3 1.8-.5 3.2-2.3 4.2l1.3-1.7-1.7-.7-1.5.8.9-.8-1.2-.9.8.3.2-.2c-.5-.4-.8-.9-.8-1.5l-1.1-.5.1 1.2-.8.1.7 1.9-.3.5 1.2 1.3 1.5.6c-.2.5 0 .9.6 1.2v-.1l2.7-1.4c.2-.7.1-1.4-.3-2 .6.3.9.7 1 1.3.2.2.4.5.5.9-.3-.1-.5-.2-.6-.3l-.1.4-.3 1.6 1.3.5v-.1l3.1-3.9.2.9 1.6 2.1 1.4-.7c0-.5.2-.8.5-1.1.6-.6 1.1-.7 1.3-.1h.2l.6-1.1c-.4 1.5-.2 2.9.6 4.3 1.3 2.1 3.2 3.2 5.5 3.5 1.9 0 3.1-1 3.5-2.8h-.4l-.7.4c-.5.2-1.1.3-1.7.2-1.1 0-2.1-.5-2.7-1.2l1.5.5c.4.1.7 0 .9-.2l-1.3-1 .8.2c.7.2 1.2.1 1.5-.2-.6-.3-1.1-.6-1.7-.9l1.9.3c-2.1-.5-3.8-1.6-5.1-3.2l.2.5c.2.5.5 1 .9 1.4v.1l1.7 1.2-1.3-.5.3 1-1.1-.5.4.9-.9-.2.1.5-1.3-.3 1.9-2 .2-.2-1.5-1.5.4 1.7-.9-1 .6 1.9c-1.1-1.1-1.3-2.4-.7-3.8l.3-.5h-.1c-.4-.7-.4-1.4 0-2v.4c.5 2.4 2.1 4.1 4.6 5.1 1.8.7 3.8 1 5.7.9.7-.1 1.2-.5 1.5-1.1l.5-1.2c-2.7.7-5.3.3-7.7-1-.5-.3-.9-.7-1.1-1.2 1.2.6 2.3 1.2 3.5 1.8l-.8-.6 2.6.3-1.9-.9 2.9.1-2.4-1 3.1.2-2.2-1.3 3.2.1-2.8-1 4.3.1c-3.4-.7-6.6-1.8-9.6-3.3zm1.7 2.9l-.4-.7 1.4.9c-.3.9-.7 1.7-1.3 2.4l-1.1-.3.1-.5-.4-.2 1-.1-.9-.7h1.1l-.9-.9 1.4.1zm-5.9-3.1l.8-.5.2.6-1.4.9-.3-.9.7-.1zm-2.7-.2h.3l-.1.3-.2-.3zm4 1.9c-.4.2-.7 0-.9-.4l.9.4zm-1.2 2.2l.1.4c0 .4-.1.6-.4.8-.2-.5-.1-.8.3-1.2zm-1.1 2.4c-.1-.6 0-.7 0 0zm3.7-.2c-.4-.5-.7-1.1-.9-1.9-.1-.7 0-.9.4-.7l1.2 2-.9-.5.2 1.1zm2.7 2.3l1 .5c.9.3 1.9.3 3 0l-3-1.2c1.8.6 3.6.9 5.6.9h.1c-1.2.9-2.6 1.3-4.3.9-.8-.2-1.6-.5-2.4-1.1zm-3.2 4.5c.9.6 1.8.9 2.8.9l-2.2-1.5c1.5 1 3.2 1.4 5 1.1-.1.4-.4.7-.9.9-2.1.6-3.9 0-5.3-1.7l.6.3zm-12.3-20.9h-.7c-1.3-.5-2-.1-2 1 .9.1 1.8.6 2.8 1.4 1.2.9 2 2 2.4 3.4-1.1 1.9-1.2 4.6-.2 7.9l-1.1 2.1-.3.8c-.3-1-.9-1.7-2-1.9l1-.9v-2.4c-.3.2-.5.3-.7.3.1.3.1.5 0 .6l-.5-.6c-.3 0-.5-.2-.7-.5h.2c-1.4-.1-2.7-.5-4-1-.3-.1-.7-.3-1-.5l5.9 1 .7-.4-.1-.1 1.1-2.8-.7-.8h-.7c-.1.2-.3.3-.6.4l-.4.7c.2.5.5.9.9 1.1l-.6.3c0 .4-.1.6-.4.5-.3-.1-.3-.4-.1-.9-1.3.9-2.6.9-4.1.2-1.4-.8-2.1-2-2.1-3.7 0-1.3.5-2.3 1.4-3 .4.3.3.6-.1 1l-.3.2c.6.1 1.2 0 1.7-.3l.5-.4.3.4-.7.8h-.3l-.7.4-1-.5-.1 2.3 1.7-1.3.6.5.8-1h.3l1.1-1.2.2.7-.8.5h-.3l-.2.9-1.3.2c-.6.4-1.3.7-2 1l.1.3c.6.4 1 .9 1 1.5v.1l.4-.3c.7 0 1.2.4 1.4 1l2.2-1.3c-.6.2-1.2.5-1.8.7 0-.8.5-1.3 1.3-1.5l.4.2.4-.6c.1-.1.1-.3 0-.5-.2-.4-.1-.6.2-.6l.4-1-.4.1c-.3.1-.6.2-1 .2l.6-.9-.2-.8.7.1-.7-.7c-.2.4-.4.5-.7.1-.4-.4-.5-.6-.2-.5l.9-.4-1.3-.5c-.3.2-.4.1-.3-.1 1.1-1.7 2.2-2.2 3.8-1zm-10 3.7l.3.8c-1-.2-1.8 0-2.5.7l.1-.5 2.1-1zm5.1-2h-.9c.7-.6 1.2-.7 1.4-.3 0 .1-.1.2-.5.3zm5.4 5.3l-.1.5.2.3-.5.1-.2-.8.6-.1-2.6-1.4c.1.2.2.5.1.8h-.7c-.4.1-.6.2-.7.1v-.1c.6-.5.9-.9.8-1.3l.5.5 2.6 1.4z"/><path class="st0" d="M-277.4 218.9l.4.7-1.3-.2.9.9h-1.1l.9.7-1 .1.4.2-.1.5 1.1.3c.6-.7 1.1-1.5 1.3-2.4l-1.5-.8zM-282.1 216.1l-.8.4-.7.3.3.9 1.4-1zM-285.3 216.3h-.3l.2.2zM-282.5 217.7c.3.5.6.6.9.4l-.9-.4zM-282.7 220.7l-.1-.4c-.4.4-.5.8-.3 1.1.3 0 .5-.3.4-.7zM-284 222.9c.1-.8 0-.7 0 0zM-281.1 220.7c.1.7.4 1.4.9 1.8l-.2-1 .9.5-1.2-2c-.4-.2-.5 0-.4.7zM-276.4 225.4l-1-.5c.7.5 1.5.9 2.4 1.1 1.7.4 3.1 0 4.3-.9h-.1c-1.9.1-3.8-.2-5.6-.9l3 1.2c-1.1.3-2.1.3-3 0zM-277.9 230.3c-1 .1-1.9-.2-2.8-.9l-.6-.4c1.5 1.7 3.3 2.3 5.3 1.7.5-.2.8-.5.9-.9-1.8.3-3.5 0-5-1.1l2.2 1.6zM-293.7 208.5h.7c-1.7-1.2-2.8-.8-3.4 1.3-.1.3 0 .3.3.1l.4-.5c.1-1 .7-1.3 2-.9zM-294.7 210.5l-.9.4c-.3-.1-.2.1.2.5.3.3.5.3.7-.1l.4-.1c.4-.1.6-.2.5-.4-.1-.3-.2-.5-.4-.5l-.5.2zM-294.7 211.9l.2.8-.6.9c.4 0 .7 0 1-.2l.4-.1-.4 1c-.3 0-.4.2-.2.6.1.1 0 .3 0 .5l-.4.6-.4-.2c-.9.2-1.3.8-1.3 1.5.6-.2 1.2-.5 1.8-.7l.4-.5.4-.7c.3-.1.4-.2.6-.4.6-1.4.4-2.6-.6-3.9v.9l-.9-.1zM-296.5 212.9h.3l.8-.5-.2-.7-1.1 1.2h-.3l-.8 1-.6-.5-1.7 1.3.1-2.3 1 .5.7-.4h.3l.7-.8-.3-.4-.5.4c-.5.3-1 .4-1.7.3h-.1c-.2 0 0-.4.5-1.2-.9.8-1.4 1.8-1.4 3 0 1.6.7 2.8 2.1 3.7l.9.3c-.9-.3-1.6-1.1-2.1-2.3l-.1-.3c.7-.3 1.3-.7 2-1l1.3-.2.2-1.1zM-299.7 218.1c.3.2.7.4 1 .5 1.3.5 2.6.9 4 1l.4.5.5.6c.1-.2.1-.4 0-.6l-.5-.5.6-.3-.2-.3-5.8-.9zM-291.4 216.3l.6-1.8c0-.1 0-.2-.2 0l-1 .5-.9-.2.2.2.7.8-1.1 2.8c.7-.6 1.3-1.4 1.7-2.3z"/><path class="st0" d="M-291.1 214.5h-.4l-.6.5zM-294.6 217.2c-.2.5-.1.8.1.9.3 0 .4-.1.4-.5.1-.5-.1-.6-.5-.5v.1zM-293.2 218.6l.1.1c.8-.6 1.3-1.4 1.7-2.4-.4.9-1 1.7-1.8 2.3zM-293 220.4v1.9l-1 .9c1 .3 1.7.9 2 1.9l.3-.8-.8-1.4.1-.3c.4-.9.3-1.9-.2-2.9l-.4.7zM-302.6 213l-.3-.8-2.1.9-.1.5c.7-.6 1.5-.8 2.5-.6zM-292.7 216l.2-.5-.8.1.3.8.5-.1zM-295 214.9c0-.3 0-.6-.1-.8l-.5-.5c.1.4-.1.8-.8 1.3v.1c.1.1.3 0 .7-.1h.7zM-282.5 214.8c-.1-.2-.3-.4-.7-.5-.3.4-.7.7-1.2.9l-.6.1c.4.6.3 1.2-.4 1.7h-.3l-.1-.6.4-.5-.6.5c-.1 1.2.4 1.9 1.7 1.9v-.5l.7.4 1.3.5v-.5l-.9-.4c-.5-.3-.9-.4-1.1-.4l-.1.2-.2-.1-.5-.3.7-.3.2-.3.3-1.4 1-.1-.2.8.5-.7.1-.4zM-284.6 213.4v.2l-.2.4.7-.3z"/><path class="st0" d="M-284.6 217.7h.2l-.2-.1zM-284.3 219.5l.1-.3-2-1.2 1.5 1.5V220.1l.5-.1c.4-.1.5 0 .5.3v.2l.3.1v-.9l.6-.1.3-.3h-1.7l-.1.2z"/><path class="st0" d="M-284.2 219.3l-.1.2h.1zM-282.8 219.8l-.6.1h.5zM-282 220.5v-.4c-.3.7-.3 1.4 0 2h.1l-.1-1.6zM-284.7 220l-.3-.1.3.1zM-285.5 220.8s.1.1.2.1c.4.3.6.2.4-.2-.3-.3-.4-.3-.7-.1l.1.2zM-285.8 222.1c-.3.1-.4.5-.2.9 0 .1 0 .3.1.4l.5.3-.4-.8v-.8z"/><path class="st0" d="M-285.9 223h-.2l.2.4h.1c-.1-.1-.1-.2-.1-.4zM-285.6 225.6l.1-.4.9-.4c-.3-.6-.7-.5-1.3.1-.3.3-.4.6-.5 1.1l.8-.4zM-284.5 225.9l.1-.4-.3.2z"/><path class="st0" d="M-284.5 225.9l-.2-.2-1.9 1.4c.2-.1.2 0 .2.2 0 .3-.1.8-.3 1.5-.2-.6-.2-1.1-.1-1.4h-.2l-.7 2c-.2-.9 0-1.6.6-2.1l-1.2.5.4-.1-.5 2-.1-1.1-.9 1.5v-1.2l-.9 1.4.1-1.3-1.1 1.4.3-1.6-1.5 1.4.6-1.7-3-.4-1.5.9.4-.5-1.4.4.6-.7-1.4.1.6-.7-1.3.2.7-.5h-1.3l.7-.4-2.5.8c.8-.9 1.8-1.3 3-1.1l-.2-.4c-.5-.5-1-.8-1.7-1.1h-.1l-.4-.2-.9-.2c-.4 0-.8.1-1.1.4-.3.1-.6-.1-1-.9s-.4-1.2-.1-1.3h.5l-.1-.8-.5-.6-2.3.3.9-.8.1-.1-.5-.8c-.1.4-.3.4-.6 0l-.9-1.4-.5-.8-.2.1.3.7-.1.4.2.7.4.2v.4c0 .2.1.3.2.3l-.1.3c.4.2.5.4.2.6l-.4-.2-1-3.9-.4-1.7h.1c-.3-.9-.4-1.6-.3-2.3 0-.2.1-.3.4-.1h.1v-.6l-1.5-.3c.1 0 .2 0 .3-.1l.2-.4.8.4 1.3-1.8-1.6-1-.4-.1-.2-.3-1.1.3c-.4.2-.8.5-1 .8-.5.8-.2 1.7 1.1 2.5l.9 4.3.1-.1.3.1 1.9 6.3v.7c.1.4.3.8.6 1l.9.3c.5 1.1 1.2 1.9 2 2.7.4-1.3 1.3-2 2.3-2.4-.7.6-1.2 1.3-1.6 2.1-.8 1.6-.4 2.7 1.2 3.4v-1c0-.4 0-.8.3-1h.4l.7-.5v1.6l.7-1 .3 2.1.6-1.4v1.2c0 .4.2.5.5.7l.5-1.2.6 2 .4-1.5.2.7c.2.8.4 1.1.6 1.1l.2-1.5 1 2.3.1-1.8c.1.9.5 1.7 1.3 2.3v-1.9l1.2 2.1.2-.2-.1-1.2c.1-.2.1-.2.2 0 .4.9.7 1.4 1.1 1.7h.3v-.2c-.4-1-.5-1.5-.2-1.5.6 1.2 1.2 1.9 1.8 1.9-.4-.6-.6-1.2-.6-1.8 1.1 1.4 1.7 1.9 1.7 1.6.1-.3-.2-.9-.7-1.8l1.1 1c.3.4.7.6 1 .6-.2-.2-.4-.8-.7-1.8.9 1.3 1.6 1.8 2 1.3-.2-.1-.5-.6-1-1.6 1.3 1.1 1.9 1.5 2.1 1.3 0-.2-.1-.5-.5-1.2l-.5-.8c1.2 1.2 1.9 1.6 2.3 1.3-.4-.3-.9-.8-1.2-1.6 1 1 1.8 1.3 2.4 1-.4-.2-.9-.7-1.4-1.5.3.2.7.5 1.3.7s.9.3 1 .2c.1-.1-.1-.4-.6-.9l-.6-.6c.6.4 1.2.7 1.8.9l.1-.1c-3.3-1.9-4.6-3.6-4.6-5.3zm-.5 2l-.3-.9.4-1-.1 1.9zm-1.1-.5c0-.3.1-.5.3-.7.2-.1.2-.1.2.2v.1l-.2 1.4c-.2-.4-.3-.8-.3-1zm2.3 1.3l.5 1c-4.1 2.5-8.4 2.8-12.8.8 4.4 1 8.4.4 12.3-1.8zm-21.1-4.9h.2l-.4 1.1.9-.4-.4 1 .8-.5-.1 1.3.5-.2-.5 1.1c-.9-.5-1.6-1.3-1.9-2.6.1-.4.5-.6.9-.8zm-2.8-13.4c0 .3-.2.4-.4.4h-.6c-1 .1-1.5 0-1.3-.3.1-.2.4-.4 1.1-.4l1.2.3zm6.1 16.8l.4-.6c.7-.6 1.3-.9 1.8-.6l-2.2 1.2-.8-.1-.3 1.4.6-.3-.3 2c-1-1-1-2 0-3.1l.8.1z"/><path class="st0" d="M-285.3 227l.3.9.1-1.9zM-285.8 226.6c-.2.2-.3.5-.3.7s.1.6.3 1l.2-1.4v-.1c0-.3 0-.3-.2-.2zM-283.3 229.7l-.5-1c-3.9 2.2-7.9 2.8-12.3 1.9 4.5 1.9 8.8 1.7 12.8-.9zM-304.7 223.9h-.2c-.4.1-.8.4-.9.9.4 1.3 1 2.2 1.9 2.6l.5-1.1-.5.2.1-1.3-.8.5.4-1-.9.4.4-1.2zM-308.1 210.8c.3 0 .4-.1.4-.4l-1.3-.3h-.1c-.4.4-.3.6.4.6l.6.1z"/><path class="st0" d="M-309.1 210.2h.1c-.6 0-1 .1-1.1.4s.3.4 1.3.3c-.6-.1-.7-.3-.3-.7zM-301.2 226.6l-.4.6 2.3-1.2c-.6-.2-1.2 0-1.9.6zM-302.7 228.5l.3-1.4c-1 1.1-1 2.1 0 3.1l.3-2-.6.3zM-280.2 225.5l-.1.2.2-.1.1-.1z"/><path class="st0" d="M-280.1 225.6l-.2.1-1.9 2 1.2.3-.1-.5.9.2-.4-.8 1.2.5-.3-1 1.3.5zM-274.8 234.3l1.3.2 3.4.1.7-.1c0-.1-.1-.3-.4-.5l-5 .3zM-265.9 233.3l-.3.1 1.3-.1 1-.5zM-280.2 231.2l-.3-.2-.1.1c.6.3.7.3.4.1zM-275.9 248.8c-.6.3-1.1.8-1.4 1.4-.2.9-.4 1.8-.4 2.7-.2 4-.2 7.9-.2 12l1.2.2v-12c0-1.7.6-2.8 1.6-3.3l-.8-1zM-257.9 249.7l-.7-.9c-.6.3-1 .7-1.3 1.2-.9 4-1.1 7.9-.8 12l.1 3 1.1.2v-12c0-1.9.6-3 1.6-3.5zM-241.5 255.3l-.1-.2-.5-1.4-2.3 6.4h1z"/><path class="st0" d="M-241.6 255.1l.1.2-1.9 4.8h3.9zM-238.1 264l-.2-.7h-7.1c-1.1 1.1-1.2 2.6-.1 4.6h-6.6.1-17l1-.3.1-1 .4-2.5-1.2-1.1-.6 4.9h-17.1l1.3 1.2h16.7v-.5l.5.5h17.1v-.3l.2.3h6.5c-1.3-1.3-1.6-3-.7-5.1h6.7z"/><path class="st0" d="M-238.7 267.9l.9 1.3h11.4c-1.7-1.4-3-3.1-4-5.1l-7-15.2c2.2 5.9 4.6 11.6 7.4 17.1.4.8.9 1.4 1.5 1.9h-10.2zM-250.1 264.1l-1.1-1.1-.7 4.8 1.3-.1.2-2zM-228.8 272.5c-.4.4-.7.9-.7 1.6 0 .6.2 1.2.7 1.6.4.4.9.5 1.5.6.6 0 1.1-.2 1.5-.6.4-.4.7-.9.7-1.6 0-.6-.2-1.2-.7-1.6-.4-.4-.9-.5-1.5-.5-.6-.1-1.1.1-1.5.5zm.3 2.8c-.3-.4-.4-.8-.4-1.3s.1-.9.4-1.3c.3-.3.7-.5 1.2-.5.4 0 .8.1 1.1.5s.5.8.5 1.3-.2.9-.5 1.3c-.3.3-.7.4-1.1.5-.5 0-.9-.2-1.2-.5z"/><path class="st0" d="M-228.9 274c0 .5.1.9.4 1.3.3.3.7.4 1.2.5.4 0 .8-.2 1.1-.5.3-.4.5-.8.5-1.3s-.2-.9-.5-1.3c-.3-.3-.7-.5-1.1-.5-.5 0-.9.1-1.2.5-.3.4-.4.8-.4 1.3zm.7 1.2v-2.3h.9c.6 0 .9.2.9.7 0 .4-.2.6-.6.7l.6 1h-.5l-.5-.9h-.3v.9h-.5v-.1z"/><path class="st0" d="M-228.2 272.9v2.3h.5v-.9h.3l.5.9h.5l-.6-1c.4 0 .6-.3.6-.7 0-.5-.3-.7-.9-.7h-.9v.1zm.5.3h.4c.3 0 .4.1.4.3 0 .2-.1.3-.4.3h-.4v-.6z"/><path class="st0" d="M-227.2 273.2h-.4v.6h.4c.3 0 .4-.1.4-.3 0-.1-.2-.3-.4-.3zM-229.6 282c-.8-.9-1.6-1.7-2.6-2.3-1.9-1.3-3.7-1.4-5.4 0l.3 1.4.5.6c.2-1.5 1-2 2.6-1.5 2.2.7 4.1 1.9 5.7 3.8v-5l-1-1.2-.1 4.2zM-240.9 284.6l-1.8-1.4c.2 1.5 1.7 3.2 4.4 5.2l2.8 2.1c.8.7 1.3 1.1 1.3 1.4l.1-.5c-1.9-2.7-4.1-4.9-6.8-6.8zM-244.6 277.2l-.7-.9h-.1l-.4.2c-.9.6-1.3 1.5-1.3 2.6 0 4.4.1 8.8.4 13.2 0 1 .4 2 1 2.9h-9.1l1.3 1.2h9.3c-1.1-1.5-1.7-3.2-1.7-5 0-4 0-8.1.1-12.1 0-.7.4-1.5 1.2-2.1zM-280.2 276.4l.1 1.8.4 3.1c-1.4-1.4-3.3-2.1-5.6-2v12.3c0 1.3.5 2.6 1.7 3.8h-9.6l1 1.2h10.7c-1.7-2-2.5-3.7-2.5-5v-11c1.3-.2 3.1.4 5.5 1.9v-.1l-.4-4.7-1.3-1.3zM-270.3 281.6c.4-.5.8-.9 1.3-1.2 2-1.3 3.6-.9 5 1.2.3.5.5 1 .7 1.6-.2-.9-.6-1.7-1.1-2.5-1-1.4-2.1-2.1-3.5-2.1-1.3 0-2.5.7-3.5 2.1-.9 1.4-1.4 3.1-1.4 5.1s.4 3.7 1.4 5.1 2.1 2.1 3.5 2.1c1.3 0 2.5-.7 3.5-2.1.5-.7.9-1.5 1.1-2.5-.5 1.6-1.4 2.9-2.7 3.9-.8.6-1.6.7-2.6.4-1.4-.6-2.3-1.6-2.8-3.1-.9-2.9-.6-5.5 1.1-8z"/><path class="st0" d="M-269 280.4c-.5.3-.9.7-1.3 1.2-1.7 2.4-2 5.1-1.1 7.9.5 1.5 1.4 2.5 2.8 3.1.9.3 1.8.2 2.6-.4 1.3-1 2.2-2.3 2.7-3.9.2-.8.3-1.7.3-2.6s-.1-1.8-.3-2.6c-.2-.5-.4-1.1-.7-1.6-1.4-2-3.1-2.4-5-1.1z"/><path class="st0" d="M-267.9 296.1c-3.1 0-5.7-1-7.8-3.1l-.1-.1c2.6 3 5.9 4.4 9.9 4 4.6-.5 7.7-3 9.3-7.3.4-1 .5-2 .5-3.1 0-2.8-1-5.2-3.1-7.1 1.4 1.8 2.2 3.9 2.2 6.3 0 2.9-1 5.3-3.1 7.3-2.2 2.1-4.8 3.1-7.8 3.1zM-296.7 281.4l.8.8c.7-.7 1.6-1.1 2.6-1.4.9-.3 1.6-.4 2.1-.2v-1.4l-1.9.3c-1.5.4-2.6.9-3.4 1.7l-.2.2zM-329.1 252c-1.8-1.4-3.4-1.4-4.9 0v.6c.1.5.3.9.8 1.3.2-1.5 1.1-2 2.6-1.5 2.2.6 4.1 1.9 5.6 3.8v-4.9l-1-1.2v4.3c-1.1-1-2.1-1.7-3.1-2.4zM-324.5 264.7c.6-1.4.4-2.7-.5-3.9.2.6.2 1.2.1 1.8-.5 2.8-2.2 4.6-4.9 5.4-3.4 1-6.5.5-9.4-1.4 1.9 2.3 4.3 3.3 7.3 3 3.6-.2 6-1.8 7.4-4.9z"/><path class="st0" d="M-330.6 263.6c-.4-1.1-1.2-2-2.2-2.7-2.2-1.6-4.4-3.5-6.4-5.5.2 1.4 1.7 3.2 4.4 5.3l2.8 2.1c.8.6 1.2 1.1 1.3 1.4l.1-.6zM-287.6 250.1l-1.1-1.2.1 1.4.4 3.6c-2.6-1.9-5.7-2.7-9.4-2.1v3.9h1.4v-2.6c4.3-.3 7.3.4 9 2l-.4-5zM-290 257.2l-1.1-1.4.4 4.6c-1.3-1-3.6-1.4-6.9-1.4v5.8h.4l1 .1v-4.7l3 .2c1.3.1 2.5.5 3.6 1l-.4-4.2zM-287.3 263.2l-.1.6-.4 4.1h-17.5l1.1 1.2h17.3l.5-5.1zM-318.5 251.8l-.9.1c-1.5.3-3 .9-4.2 1.9l-.2.3.8.7c.7-.6 1.5-1.1 2.5-1.4.9-.3 1.6-.4 2-.2v-1.4zM-306 250.1l-1.3-1.3.1.7.4 4.2c-1.4-1.4-3.3-2.1-5.6-2v12.2c0 1.3.6 2.6 1.7 3.9h-9.6l1 1.2h10.7c-1.7-2-2.5-3.7-2.5-5.1v-11c1.3-.2 3.1.4 5.5 1.9l-.4-4.7z"/><path class="st0" d="M-202.1 294.4c-.3-3.5-1.5-6.6-3.8-9.2-3.2-3.7-7.1-4.8-11.7-3.3-.4-3.4.6-5.4 3-5.9-.7-.9-.9-2.5-.5-5 .2-1.5 0-2.8-.4-3.8 1.2-.1 2.8.2 4.8 1 1.8.7 3 1.3 3.4 1.8.3.3.5.4.7.2.1-.3.1-.5-.2-.9-6.8-8.3-11.5-15.8-14-22.2-.7-1.8-1.3-4-2-6.6-.6-2.3-1.1-4-1.5-4.9l-.9-1.7h-21.4c-.6.6-1.3 1.1-2.3 1.4-3.2 1.2-5.8.4-7.9-2.4-8.8 5-16.5 5.7-23 2.2l-.5-.3c-6.2 3.3-12.1 3.5-17.7.4-2.6 1.3-5.5 1.8-8.7 1.5-3.6-.2-7.3-1.5-11.2-4-1.2 1.4-2.6 2.2-4 2.4-1.3.1-2.5-.2-3.7-.9.5.2 1 .4 1.5.5-.6-.2-1.2-.5-1.8-.8h-21.9l-.7 1.4c-.5.9-1 2.6-1.7 4.9-.8 2.8-1.5 5-2.1 6.7-2.6 6.6-7.2 13.9-13.9 21.8-.4.3-.4.6-.2.9.3.2.6.2.9-.2.4-.5 1.5-1 3.2-1.7 1.9-.7 3.5-1 4.9-.8-.4.9-.4 2.2-.2 3.8.3 1.6 0 3.3-.6 4.9 2.3.5 3.4 2.3 3 5.8-4.6-1.5-8.5-.5-11.5 3-2.6 2.9-4 6.1-4.2 9.5-.2 3.3.7 7 2.8 11-.3-1.4-.4-2.4-.3-3.2.3-2 .4-3.6.3-4.8-.1-2.2-.7-3.9-1.7-5.1 1.7-2.4 3.8-2.5 6.6-.3 2.5-2.7 5.4-3.5 8.7-2.7-.9.9-1.3 1.9-1.2 3.1 0 1.2-.2 2.8-.6 4.7 1.8.5 2.9 1.8 3.2 3.9 6.3-1.2 9 1.8 8 8.9h117.8c-.6-2.3-.5-4.2.2-5.7.6-1.2 1.5-2.1 2.8-2.7 1.4-.6 2.9-.7 4.4-.2.4-2.2 1.6-3.6 3.5-4.1-.4-1.3-.6-2.8-.5-4.6 0-1.2-.4-2.3-1.4-3.1 3.3-.9 6.1 0 8.6 2.7 2.7-2.2 4.9-2 6.4.5-.9 1-1.4 2.6-1.5 5-.1 1.6 0 3.4.3 5.5 0 .6 0 1.4-.1 2.4 1.9-3.6 2.7-7.2 2.5-10.7zm-86.8-45.7l.3 1.6-.1-1.4 1.1 1.2.4 5c-1.8-1.7-4.8-2.3-9-2v2.5l5 .2v.1h.1l1.1 1.4.4 4.2c-1.2-.5-2.4-.9-3.6-1l-3-.2v4.7c3.2.4 6.1-.3 8.8-2v.2s.1 0 .1-.1v.2l.9.8-.4 5.1h-17.3l-1.1-1.2h-.2l.1-.1h-.2c1.2-1.4 1.7-2.7 1.7-3.9v-12.2c-.1-1.1-.7-2.1-1.8-3.1h16.7zm-34.6 0h16.1v.2l1.3 1.3.4 4.8c-2.4-1.5-4.2-2.2-5.5-1.9v11c0 1.4.8 3.1 2.5 5.1h-10.7l-1-1.2h-.1l.1-.1h-.1c1.3-1.2 1.9-2.5 1.9-3.9v-10.9c-.4-.1-1.1 0-2 .2-1 .3-1.8.8-2.5 1.4l-.8-.7.2-.3-.3.3.5-5.3zm-14.3.9c.7-.7 1.5-1.2 2.5-1.4.9-.3 1.7-.4 2.5-.5 2.4-.2 4.7.6 6.8 2.2v.3l.9 1.1v4.9c-1.5-1.9-3.4-3.2-5.6-3.8-1.4-.5-2.3 0-2.6 1.4.1.1.1.1.2.1.6.7 1.7 1.4 3.2 2.2 2.7 1.2 4.4 2.8 5 4.7.1.1.1.3.1.5.6 1.1.7 2.2.2 3.4-1.4 3.1-3.9 4.8-7.5 5-3 .3-5.4-.8-7.3-3l-.1-4.8.3.3v-.4c1.4 1.6 3.1 2.8 5 3.5.9.4 1.7.4 2.4 0 .3-.3.6-.6.9-1.1 0-.3-.4-.7-1.3-1.4l-2.8-2.1c-2.7-2.1-4.2-3.8-4.4-5.3-.6-2.2-.1-4.1 1.6-5.8zm43.5 47c-2.9.4-5.6 0-8.1-1.3-1.5-1-2.6-2.3-3.5-3.8-1.3-2.4-2.6-3.7-3.9-3.8h-.6c.8 0 1.7.4 2.7 1.4-.4-.3-1.1-.4-1.9-.3v3.4c0 1.4.6 2.9 1.9 4.4h-19.5l-.9-1.3c1-.9 1.2-2.4.5-4.6l.2.8h-6.6c-.9 2.1-.7 3.7.8 5h-6.8l-1.3-1.2c1.3-1.5 2.2-2.8 2.6-3.8l4.8-12.3c.3-1 .2-2-.4-3h7.5v.1l7.3 15.2 1.7 2.9c.7-.8 1.1-1.7 1.1-2.9v-12.3c-.2-1.1-.6-1.9-1.1-2.4-.1-.1-.2-.2-.4-.3-.1-.1-.3-.2-.5-.3h14.9c.1 0 .2 0 .3.1.7.1 1.2.3 1.7.7.3.2.6.4.9.7l-.2-.1.1.1c1.1.7 1.8 1.7 2.2 2.9.7 3-.4 5.1-3.1 6.4.5.2.9.6 1.3 1.1 2.2 3.1 4.7 6 7.5 8.6h-1.2v-.1zm37.7-6.8c-1.6 4.3-4.7 6.8-9.3 7.3-4 .4-7.3-1-9.9-4-2.1-2-3.1-4.4-3.1-7.2l.3-2.5.2-.8c-2.4-1.5-4.2-2.2-5.5-1.9v11c0 1.3.8 3 2.5 5h-10.7l-1-1.2c1-.8 1.5-2.1 1.6-3.8.1-3.7.2-7.3.2-11-.5-.2-1.2-.1-2.1.2-1 .3-1.8.8-2.6 1.4l-.8-.8.5-5.2h.1v-.1h16l.2 2-.1-1.8 1.3 1.3.4 4.7c.5-1.4 1.4-2.8 2.6-3.9 0 0 0-.1.1-.1 2.1-2 4.7-3 7.8-3 3 0 5.6 1 7.8 2.9l1 1.1c.4.5.7.9 1 1.4 1.3 1.7 1.9 3.6 2 5.9 0 1-.1 2.1-.5 3.1zm3.1 6.8l-1.3-1.2s0-.1.1-.1h-.2c.6-.7.9-1.6 1-2.9.5-4.4.7-8.8.7-13.2 0-1-.3-1.8-1-2.4-.2-.2-.4-.3-.7-.5-.1 0-.1-.1-.1-.1h9.9l-.2.2.7.9c-.8.6-1.2 1.3-1.2 2.2-.1 4-.1 8.1-.1 12.1 0 1.9.5 3.5 1.7 5h-9.3zm3.1-27.7l-.2-.3v.3h-16.7l-.5-.5v.5h-17l-1.1-1h-.3c.1-.1.1-.1.1-.2.5-.5.9-.9 1.2-1.4.6-.9.9-1.7.8-2.3v-10.9c0-2.2-.6-3.7-1.9-4.4h.4c-.1-.1-.2-.1-.3-.2h10v.2l.7 1c-1 .5-1.5 1.6-1.6 3.3v12l-1.1-.2c3.4.9 6.4.3 9.3-1.9l1.2 1.1-.4 2.5c.8-1 1.1-1.8 1-2.6v-10.8c0-2.2-.7-3.7-2-4.4h.2c-.1 0-.1-.1-.2-.1h10.1c-.1 0-.1.1-.2.1h.2l.7.9c-1 .5-1.6 1.6-1.6 3.3v12l-1-.2c3.3.9 6.4.3 9.3-1.9l1.1 1.1-.3 1.6c2.1-4.6 4.1-9.3 5.8-13.9.3-.9.2-1.7-.1-2.5-.1-.1-.2-.3-.3-.4 0-.1-.1-.1-.1-.2l7.7.2 7 15.2c.9 2 2.2 3.7 4 5.1h-11.3l-.8-1.2H-238.9c.9-.8 1.2-2.1.8-3.9v-.1h-6.5c-.9 2.1-.7 3.8.7 5.1h-6.5zm20 25.3c-1.7 1.4-3.7 2.1-5.8 2.1-.7 0-1.4 0-2.1-.1-1.6-.3-3.1-.9-4.5-1.8l-.1-4.8.1.1v-.1c1.5 1.7 3.4 2.9 5.6 3.4.3.1.6.1.9.1.9 0 1.6-.5 2.1-1.3v-.2c-.1-.3-.5-.6-1.2-1.2l-2.8-2.1c-2.6-2-4.1-3.6-4.4-5.1l-.1-.1c-.5-.9-.5-1.9-.2-2.8 1.3-3.5 3.7-5.1 7.4-4.9h.1c2.2.2 4.2.9 5.9 2.3l1 1.2v5c-1.5-1.9-3.4-3.2-5.7-3.8-1.5-.5-2.4 0-2.6 1.5l-.5-.6c.6.9 1.8 1.9 3.8 2.8 2.8 1.4 4.5 3 5.1 4.9.5 2.3-.1 4.1-2 5.5zm4.6-18.6c-.4.4-.9.5-1.5.6-.6 0-1.1-.2-1.5-.6-.5-.4-.7-.9-.7-1.6 0-.6.2-1.2.7-1.6.4-.4.9-.5 1.5-.5s1.1.1 1.5.5c.4.4.7.9.7 1.6 0 .6-.2 1.2-.7 1.6z"/><path class="st0" d="M-310.8 284.7l.8.1.5-.1v-4.5c1.8-.1 3 .1 3.7.7-.5-1.1-1.6-1.8-3.1-1.9l-1.8.1v5.6h-.1z"/><path class="st0" d="M-309.6 280.3v4.5l-.5.1c3 .2 4.4-.8 4.4-2.8 0-1.9-1.1-2.9-3.4-3 1.6.1 2.6.8 3.1 1.9-.6-.6-1.8-.9-3.6-.7zM-332.7 287.6l1.9-4.8-.7-1.5-2.2 6.3z"/><path class="st0" d="M-330.8 282.8l-1.9 4.8h3.9zM-300.9 277.6l-.8-.4c1 .7 1.6 1.6 2 2.8.2.6.2 1.2.1 1.9-.1.8-.4 1.6-.9 2.3-.5.9-1.2 1.5-2.2 2l-.8.3c2.2 2.3 4.3 4.6 6.1 7.2l1.6 1.7h-6.8c2.5 1.2 5.2 1.7 8.1 1.3h1.3c-2.8-2.6-5.3-5.5-7.5-8.6-.4-.5-.8-.9-1.3-1.1 2.8-1.3 3.9-3.4 3.1-6.4-.1-1.4-.8-2.4-2-3zM-309.6 288.7c.8-.1 1.4 0 1.9.3-1-.9-1.9-1.4-2.7-1.4h-.2c-.7 2.5-.4 5 1.1 7.3l.3.3h-18.9l.9 1.3h19.5c-1.3-1.5-1.9-3-1.9-4.4v-3.4z"/><path class="st0" d="M-320 292.6c.4.9.9 1.7 1.7 2.3l.6-.5-1.7-2.9-7.3-15.2c2.1 5.6 4.3 11.1 6.7 16.3zM-327.4 291.5l-.2-.8h-7.1c-1.1 1.1-1.2 2.6-.1 4.6h-6.6l1.3 1.2h6.8c-1.4-1.3-1.7-2.9-.8-5h6.7zM-300.4 284.1c.5-.7.8-1.5.9-2.3.1-.7.1-1.3-.1-1.8l.1.9c0 1.1-.3 2.2-.9 3.2zM-255 227.3h.4l-.1-.2zM-254.7 227.1l.1.2 5.2-1.6-5.1 1.3z"/><path class="st0" d="M-255 227.3l.3-.2.1-.1 1.3-.7-2.6.9-.4.2-.7.2.6.3 1.4-.6z"/><path class="st0" d="M-256.3 227.1v.3l.4-.2zM-257.8 229.5l-.6.1-.1.1-.4.2-.8.4 1 .1h.5c.7-.1 1.3-.4 1.7-.9h-1.3z"/><path class="st0" d="M-259.7 230.3l.8-.4-1.7-.7-.9.9.5.2zM-344.2 229.1c-.9.7-1.6 1.4-2.2 2.4l-.6 1.1h19.5l1.6 1.3c.6.4 1.2.6 1.8.8 2.6.3 4.8-.6 6.6-2.7l-.4.7c3.9 2.4 7.6 3.8 11.2 4-2.4-.2-4.6-.8-6.6-1.7 3.4 1.1 6.9 1.4 10.4 1.2 1.8 0 3.3-.4 4.4-1.3l-.7-.5-.5.2h-.8l-4 .2-.4.4-2.8-.6h1.7c.4 0 .8-.1 1-.5l-.8-.4-1.1.2.7-.6-3.3-.3c.6-.7 1.4-.9 2.3-.5 2.4.9 4.9 1.4 7.5 1.5-.5-.5-1-.8-1.6-1.1-1.6-.8-2.8-2-3.4-3.6l-3.1-3.1-4.8-4.7c-.7-.5-1.4-.9-2.1-1.1 2.5 2.3 4.1 4 4.9 4.9.8.9 2.1 2.1 4.1 3.5-1.5-.4-3.3-1.8-5.5-4.3-2.1-2.5-4.3-4.6-6.5-6.6-2.3-1.4-4.8-1.5-7.2-.3 1.7.2 3.4.7 4.9 1.6 0 .5.3.9.7 1.3 1.3.9 2.2 2 2.7 3.4.3.4.4.8.4 1.3 0-.2-.4-.5-1-1-.8-.6-1.2-1.1-1.1-1.5l-.7-.6c.5.6.8 1.4.8 2.2l-1.4-1.4c-1.5-1.7-3.2-3.2-5.1-4.3l5.3 5.2 1.3 1.1-2.5-1.2-6.6-5.2c2.4 2.1 4.8 4.4 7 6.9l-6.5-4 7.3 5c-2.6-.2-5.1-1-7.3-2.4l.7.5 7.6 3.3c-.1.1-.3.2-.5.3l-6.1-1.5c1.3.7 2.7 1.1 4.1 1.4 1.8 0 3.2.6 4.2 1.9h-1.8c3.2 2.1 6.6 3.6 10.2 4.4l-1.4-.2c-3.4-.8-6.6-2.1-9.6-3.9-2.2-1.2-4.5-2-7-2.4v-.3l-1.2.6c-.5.4-1 .5-1.5.5l-15.2.5zm24.1-3.3h1.7l.8.5v.5l-2.5-1zm3.8-2.5l.3.2c-.9-1.5-2-2.8-3.3-4 2.5 1.3 4.4 3.2 5.5 5.8l-.4-.2c0 1.4.6 2.3 1.9 2.5l-1.3-2.4.5.2-.9-1.4c1 .5 1.7 1.3 2.1 2.4l-.3-.2c.3.9.7 1.7 1.3 2.3l.2.1.1-.5-.9-1.6c1 .5 1.6 1.2 1.7 2.3 0 .8.5 1.1 1.3.9l-1-1.2-.4-.9c1.3 1.2 2.6 2.5 3.8 3.9l-2.9-.6.8-.1c-.4-.5-.9-.6-1.4-.4-.3-.1-.5-.1-.7-.3l-.4-.1.7-.1-.4-.7-1.9-.5c.1-.1 0-.2-.4-.4l-1.6-.7.8-.1-3.1-1.1.6-.2-1.5-.9 3.1.9c-.2-1-.8-1.8-1.7-2.3l-.2-.6zm5.1 7.4c-.3-.2-.8-.1-1.6.2-1.1.5-1.8.5-2 .1l1.8-.7c.7-.2 1.4-.1 1.8.4zm-.3 1.4l-.6-.1c1.7-1.1 2.9-1 3.5.1-.7-.3-1.2-.4-1.7-.4s-.9.1-1.2.4zm-6.5-2c.8-.2 1.5-.1 2.2.3l.8.5c-.9.3-2 0-3-.8zm4.7-.4l-1.5.2c-.8.1-1.3 0-1.8-.4l1.7-.2c.8-.2 1.3-.1 1.6.4zm-2.1 1.7c.8-.1 1.6.1 2.3.7l-1.9-.4-.4-.3zm.2-3.5l-2.9.2-.7-.2c1.3-.7 2.5-.7 3.6 0zm6.2 5.6c.6.3.9.5.8.5-1.7-.4-2.6-.5-2.4-.6l1.6.1zm-4.3-1c.8-.2 1.7-.1 2.6.3l.3.2c-1 .3-2 .1-2.9-.5zm-8.7-1.4l3 .9c-1.7.7-3.3.5-4.7-.7l-.3-.3 2 .1zm-3.7-2.5h.9c1.2.1 2.3.5 3.3 1.2l-4.2-1.2zm-1.8-.3l.5-.5c-.1 2.6.9 4.3 3.3 5.3l-.5-.1c-2.2-1-3.3-2.5-3.3-4.7zm20.4 1.6l1.5.8.3.7.4.5-.8.2c-.1-.9-.6-1.6-1.4-2.2l3.8 2.2.8.5c-.6 0-.8-.1-.8-.5l-3.8-2.2z"/><path class="st0" d="M-318.4 225.8h-1.7l2.5 1v-.5zM-316.1 223.5l-.3-.2.1.6c.9.5 1.5 1.3 1.7 2.3l-3.1-.9 1.5.9-.6.2 3.1 1.1-.8.1 1.6.7c.3.2.4.3.4.4l1.9.5.4.7-.7.1.4.1c.2.1.4.2.7.3.6-.2 1 0 1.4.4l-.8.1 2.9.6c-1.2-1.4-2.5-2.7-3.8-3.9l.4.9 1 1.2c-.8.2-1.2-.1-1.3-.9-.1-1.1-.7-1.9-1.7-2.3l.9 1.6-.1.5-.2-.1c-.6-.6-.9-1.4-1.3-2.3l-.9-.9-.5-.2 1.3 2.4c-1.3-.3-1.9-1.1-1.9-2.5-.5-.4-1.2-.9-1.7-1.5z"/><path class="st0" d="M-314.2 225.1l.4.2c-1.1-2.6-3-4.5-5.5-5.8 1.3 1.1 2.4 2.4 3.3 4 .4.6 1.1 1.1 1.8 1.6zM-314.1 224.1l.9 1.4.9.9.3.2c-.3-1.2-1-2-2.1-2.5zM-312.8 230.9c.8-.3 1.3-.4 1.6-.2-.4-.5-1.1-.6-1.9-.4l-1.8.7c.3.4 1 .3 2.1-.1zM-312.1 232l.6.1c.3-.3.7-.4 1.2-.4s1 .1 1.7.4c-.6-1.1-1.8-1.2-3.5-.1zM-315.7 230.4c-.7-.5-1.5-.5-2.2-.3 1 .8 2 1.1 3 .8l-.8-.5zM-314.8 229.8l1.5-.2c-.4-.4-.9-.5-1.6-.5l-1.7.2c.5.5 1.1.7 1.8.5zM-313.2 232c-.7-.5-1.5-.8-2.3-.7l.4.3 1.9.4zM-318.1 228.1l2.9-.2c-1.1-.7-2.3-.7-3.6 0l.7.2zM-308.2 234.1c.1-.1-.2-.3-.8-.5l-1.6-.1c-.1 0 .7.2 2.4.6zM-310.7 232.8c-.9-.5-1.8-.5-2.6-.3.9.6 1.8.8 2.9.5l-.3-.2zM-319 232.1l-3-.9h-2.1l.3.3c1.5 1 3.1 1.3 4.8.6zM-324.8 228.6h-.9l4.2 1.2c-.9-.6-2.1-1-3.3-1.2zM-327 227.7l-.5.5c0 2.3 1 3.8 3.2 4.6l.5.1c-2.2-.9-3.3-2.6-3.2-5.2zM-305.6 230.7l-1.5-.8c.8.5 1.3 1.3 1.4 2.2l.8-.2-.4-.5-.3-.7zM-302.6 232.6l-.8-.5c0 .4.3.5.8.5zM-291.7 208.3l-.2-.5c-.3-.6-.7-1-1.4-1.1.7.9 1.1 1.7 1.3 2.2l.4-.5c0 .5.8 2.1 2.5 4.6 1.2 1.8 1.2 4.1.1 7-.2-.6-.2-1.4-.1-2.3s0-1.7-.5-2.3c-.9 3.7-.1 6.9 2.5 9.8.1.2.1-.1.1-.9l-1.4-2.5 1-4.5-.8-3.7c-.1-.7.4-1.4 1.7-2.1l-.3-.8-1.7 1.6-.5-.7c-1.1-1.1-1.9-2.3-2.3-3.9l-.4.6z"/><path class="st0" d="M-289.1 211.8l.5.7 1.7-1.6-.4-.8c-.4.2-1.1.7-1.8 1.7zM-286.5 211.7c-1.3.6-1.8 1.4-1.7 2-.1-.6.5-1.3 1.7-2zM-302.9 210l-1.3-.1-.5.4 1.3.1 1.2 1.8.1-.2c.3-.3.4-.6.2-.9l-.3-.5c-.2-.3-.4-.5-.7-.6zM-306.5 212.9l.3-.2-.6-.1z"/><path class="st0" d="M-304.8 210.1l.1.2.6-.4zM-307.5 212.3c.5-.8.6-1.5.4-2.3l-1.8-.5 1.6 1-1.3 1.8-.8-.4-.2.4c-.1 0-.2.1-.3.1l1.5.3v.6c.1.9.5 2.2 1.2 3.9.5 1.3.9 2.3 1.3 2.9l.5.8 1 .5.3.2.5.6.1.8c.2.5.7 1.1 1.7 1.8l.9.2-.2-.1-.2-.1c-.9-.5-1.4-1.2-1.6-2.1-.3-.9-.9-1.6-1.9-1.9-1.4-2.5-2.5-5.2-3.1-8l.4-.5zM-301.4 209.9v-.2h-.1z"/><path class="st0" d="M-301.5 209.7v-.1c.1-.3.4-.5.9-.5l-.2-.2-.5-.1c-.5.1-.7.3-.8.5-.1.5.2.9.9 1 .3 0 .5-.1.5-.4h-.6l-.2-.2zM-301.7 219.2l.8.5.9.1c-1.9-1.7-2.6-3.4-2.1-4.9.5-.6.6-1.2.4-1.9-.5.4-.8.9-.9 1.4-.2 1.7.1 3.3.9 4.8zM-305.9 215.4l-.1.1c-.2 0-.3.1-.2.3 0 .1.2.3.5.4.1-.3.1-.6-.2-.8zM-304.1 218.5c.1-.3 0-.5-.2-.7h-.2l-.2.5c.3.7.5.8.6.2zM-302.4 219.3c-.2-.3-.4-.5-.8-.8l-.2.6 1.3 1.1-.3-.9zM-303.4 223h-.5c-.3 0-.3.5.1 1.3.4.7.7 1 1 .9.3-.2.7-.4 1.1-.4-.9-.6-1.5-1.3-1.7-1.8zM-304 221.6l-.3-.2-1.1-.3-.9.8zM-307.2 220.3v-.4l-.4-.2-.2-.7.1-.4-.3-.7-.3-.5 1 3.9.4.2c.3-.2.2-.4-.2-.6l.1-.3c-.1-.1-.2-.1-.2-.3zM-306.4 220.1c.3.4.4.4.6 0-.4-.7-.8-1.6-1.3-2.9-.7-1.8-1.1-3.1-1.2-3.9h-.1c-.1 1.9.3 3.7 1.2 5.4l.8 1.4zM-298.9 220.5c0 .6.3 1.1.8 1.5l.1.1c.1.1 0 .1-.3.1l-.8-.3 1.2.9-.9.8 1.5-.8 1.7.7-1.3 1.7c1.8-.9 2.6-2.4 2.3-4.2l-.5 1.5-2.4-2 2.1 2.4-.3.1-.4-.1c-1.1-.6-2-1.4-2.8-2.4zM-298.9 220.5z"/><path class="st0" d="M-298 222.1l-.1-.1-.2.2c.4.1.5.1.3-.1zM-300.2 225.2c.6.3 1.2.6 1.7 1.1l.2.4c-1.1-.2-2.2.2-3 1.1l2.5-.8-.7.4h1.3l-.7.5 1.3-.2-.6.7 1.4-.1-.6.7 1.4-.4-.4.5 1.5-.9-3-1.5c-.2-1-.8-1.5-1.8-1.5h-.5zM-294.9 219.7l-.4.1-.1.1c.1.3.2.4.4.4.1-.1.2-.3.1-.6zM-296.4 220.2l.6.4c.1 0 .1-.2 0-.6l-1.1-.2.5.4z"/><path class="st0" d="M-293.7 225.6l.1-.4.1-.5c0-.6-.4-1-1-1.3.4.6.5 1.3.3 2l-2.7 1.4.8.2h.7l.1.3 1.6-1.7zM-289.4 224.6l-.2-.9-3.1 3.9.7.2c.8-.5 1.5-1.3 2.1-2.3l.5-.9zM-309.6 209.1l.2.3.5.1 1.8.5zM-320.9 223.2l.2.3 2.5 1.2-1.4-1.1zM-308.5 215.7h-.1l.4 1.7.2-.4s-.2 0-.2-.1l-.3-1.2zM-308.7 215.7h.2z"/><path class="st0" d="M-308.3 217.4l.3.6.2-.1-.3-.9zM-308.4 216.9s.2 0 .2.1l-.4-1.2.2 1.1zM-309.6 216.9l-.1.1 1.5 5.8zM-317.3 224.1c.7.5 1 .8 1 1 0-.5-.1-.9-.4-1.3l-1.7-1.3c-.1.4.3 1 1.1 1.6zM-312.7 221.4l4.8 4.7 1.6 1.5-1.2-1.7c-2.7-3.6-6.2-6.3-10.4-8.2 2.2 1.9 4.4 4.1 6.5 6.6 2.2 2.5 4 3.9 5.5 4.3-2-1.4-3.3-2.6-4.1-3.5-.8-.9-2.4-2.6-4.9-4.9.8.3 1.4.7 2.2 1.2zM-318 232.7l.4-.7c-1.8 2-4 2.9-6.6 2.7-.5 0-1-.2-1.5-.5 1.3.7 2.5 1 3.7.9 1.4-.2 2.8-1 4-2.4zM-309.8 234l1.4.2c-3.6-.9-7-2.3-10.2-4.4-1.5-1.2-3.2-2-5.1-2.5l-2.6.1v.3c2.4.4 4.7 1.2 7 2.4 2.9 1.8 6.1 3.1 9.5 3.9zM-287.1 227.3h.1v.1h.2l.2-.3v-.1zM-286.6 227.1l-.1.3c-.1.3-.1.8.1 1.4.2-.7.3-1.2.3-1.5-.1-.3-.1-.4-.3-.2zM-287 227.4c-.7.4-.9 1.1-.7 2l.7-2zM-287.8 227.7l-.4.1-3.6.8-.7 1.7 1.5-1.4-.3 1.6 1.1-1.5-.1 1.3.9-1.4v1.2l.9-1.5.1 1.1zM-292.7 227.6v.1l.7.1zM-296.9 226.7v.1l.8.1zM-304.8 234.8h.3l4-.2.3-.1c-2.1-.9-3.6-.7-4.6.3zM-311.9 197l-1.7.7c.4 0 .6.2.8.7l1.6 4.1c.1.4.1.8-.1 1l1.9-.7c-.4 0-.6-.3-.8-.7l-1.3-3.3 4.8 2.9 1.4-.5c-.4 0-.6-.3-.8-.7l-1.5-4.1c-.2-.5-.1-.8 0-1l-1.7.7c.3 0 .5.2.7.7l1.1 2.9-4.4-2.7zM-316.5 199.2l-1.7.9c.3 0 .6.2.9.6l1.5 2.7-4.9-1.9-1.6.9c.4 0 .6.2.9.6l2.2 3.8c.2.4.2.7.1 1l1.7-1c-.3 0-.6-.2-.8-.6l-1.8-3.1 5.3 2.2 1.3-.8c-.4 0-.6-.2-.9-.6l-2.2-3.8c-.2-.4-.2-.7 0-.9zM-304 194.9c-.4.8-.6 1.6-.4 2.7.2.9.6 1.7 1.3 2.2.7.5 1.5.6 2.5.5.9-.1 1.6-.6 2.1-1.4.4-.8.6-1.6.4-2.6-.2-1-.6-1.7-1.3-2.2-.7-.5-1.6-.7-2.5-.5-.9.1-1.6.6-2.1 1.3zm3.8 0c1.3 1.4 1.3 2.8.2 4.1-.3.3-.6.5-1.1.5-1.1-.2-1.8-.9-2.1-2-.2-1 .1-1.8.8-2.4.8-.8 1.5-.8 2.2-.2zM-327.7 206.6l.3.1 2.2 5.9 1.1-1-.5-1.4 1.4-1.1 1.3.9 1.7-1.3c-2.1-.8-3.9-1.9-5.6-3.4l-1.9 1.3zm3.7 1.7l-1.1.9-.8-2.2 1.9 1.3z"/><path class="st1" d="M-284.4 195.9l1.6 5.6-4.7-3.3-4.8 3.3 1.7-5.6-4.6-3.5 5.8-.1 1.9-5.5 1.9 5.5 5.8.1z"/><path class="st0" d="M-228.1 292.2c.6-1.4.4-2.7-.5-3.9.2.6.2 1.2.1 1.9-.5 2.8-2.2 4.6-4.9 5.4-3.4 1-6.5.5-9.4-1.4 1.9 2.3 4.3 3.3 7.3 3 3.6-.2 6.1-1.9 7.4-5z"/></svg>