<?xml version="1.0" encoding="iso-8859-1"?>
<!-- Generator: Adobe Illustrator 19.0.0, SVG Export Plug-In . SVG Version: 6.00 Build 0)  -->
<svg xmlns="http://www.w3.org/2000/svg" xmlns:xlink="http://www.w3.org/1999/xlink" version="1.1" id="Layer_1" x="0px" y="0px" viewBox="0 0 480 480" style="enable-background:new 0 0 480 480;" xml:space="preserve" width="512px" height="512px">
<g>
	<g>
		<g>
			<path d="M404.287,372.378H361.68l-23.118-242.854h43.816c5.522,0,10-4.478,10-10V10c0-5.523-4.478-10-10-10h-65.713     c-5.522,0-10,4.477-10,10v33.818h-23.811V10c0-5.523-4.477-10-10-10h-65.707c-5.523,0-10,4.477-10,10v33.818h-23.811V10     c0-5.523-4.478-10-10-10H97.623c-5.522,0-10,4.477-10,10v109.524c0,5.522,4.478,10,10,10h43.819l-23.11,242.854H75.713     c-5.522,0-10,4.478-10,10V470c0,5.522,4.478,10,10,10h328.574c5.522,0,10-4.478,10-10v-87.622     C414.287,376.855,409.81,372.378,404.287,372.378z M107.623,109.524V20h45.713v33.818c0,5.522,4.478,10,10,10h43.811     c5.522,0,10-4.478,10-10V20h45.707v33.818c0,5.522,4.478,10,10,10h43.811c5.522,0,10-4.478,10-10V20h45.713v89.524h-44.813     H152.439H107.623z M161.533,129.524h156.938l23.118,242.854H138.423L161.533,129.524z M394.288,460h-0.001H85.713v-67.622h41.713     h225.16c0.008,0.001,0.015,0.001,0.02,0h41.682V460z" fill="#FFFFFF"/>
			<path d="M198.544,154.992c-5.506-0.424-10.309,3.711-10.725,9.219l-12.518,165.737c-0.416,5.507,3.711,10.309,9.219,10.725     c0.256,0.02,0.511,0.028,0.764,0.028c5.181,0,9.564-3.996,9.961-9.247l12.518-165.737     C208.179,160.21,204.052,155.408,198.544,154.992z" fill="#FFFFFF"/>
		</g>
	</g>
</g>
<g>
</g>
<g>
</g>
<g>
</g>
<g>
</g>
<g>
</g>
<g>
</g>
<g>
</g>
<g>
</g>
<g>
</g>
<g>
</g>
<g>
</g>
<g>
</g>
<g>
</g>
<g>
</g>
<g>
</g>
</svg>
