<svg id="Layer_1" xmlns="http://www.w3.org/2000/svg" viewBox="-446 219 185.7 99"><style>.st0{opacity:.2}.st1{fill:#fff}</style><path class="st0" d="M-324.1 287.2c-.1-.6-.6-.9-1.2-1.1-.7-.4-1.7-.3-2 .5l-.1.2c-.1.2-.1.4-.2.5-1 .3-2.5.3-3.2.5-1.4.3-2.8.3-4.2.7-1.2.4-2.4.1-3.6.2-.9 0-2.2.2-3.4.1-.5-.9-1.6-1.5-2.5-.8-.8.6-1.2 1-1.4 2-.2.9.1 1.9 1 2.4 1.7.9 3.6.6 5.5.6 2.2 0 4.3-1.5 6.4-1.6 2.1-.1 5-.7 6.9-1.4 1.5-.5 2.3-1.2 2-2.8zM-288.1 250.6c-.8 0-.9.9-.4 1.3 4.6 3.4 3.4 10.5-.5 14.2-2.8 2.6-7.7 5.8-11.2 6.9-3.2 1-6.3 1.4-8.8 3.9-1.5 1.5-4 2.1-5.4 3.6-.6-.6-1.2-1.3-1.8-1.9-.4-.4-1.1 0-1 .6.4 1.6.9 3 1.7 4.4.4 1.4 2.6 1.3 3.1-.1.5-1.3 4.4-2.6 5.6-3.5 2.1-1.6 4.7-3.4 7.1-4.4 4-1.6 8.1-4.1 11.1-7.3 3.3-3.3 9.7-17.6.5-17.7zM-306.6 260.2c-3.7.1-7.5 1.4-10.8 3-1.9.9-3.7 1.9-5.6 2.7-.2.1-.9.5-1 .7-.2.2-.4.5-.5.8l.1-.1c-.4.6-.4 1.2.1 1.8.1.1.2.2.2.3.4.5 1 .6 1.6.5 1.5.5 3.7 0 4.5-1.2.2-.2.2-.5.2-.7.8-.4 1.7-.8 2.5-1.3 3.1-2 6.7-2.3 9.2-5.2.4-.6.1-1.3-.5-1.3zM-363.3 281.8c-2.1-.8-4.3 1.2-6.2 1.8-1.2.4-2.6-.5-3.8 0-1.1.5-1.9.8-2.5 1.9-.2.4-.1.8.3 1.1.7.5 1.5.5 2.3.4 1.4-.2 2.8.4 4.2.2 1.2-.1 2.3-.8 3.2-1.4 1.2-.8 2-.9 3-2.1.5-.7.3-1.6-.5-1.9zM-364.3 291c-.2-.3-.4-.6-.7-.7.1 0 .1-.1.2-.1 1.2-.5.9-2.6-.4-2.8-2.7-.4-4.8.8-7.4 1.1-2.4.3-5.5.8-7.8 1.6-3.2 1.3-9.6-.1-12 2.9-.2.2-.2.6.2.7 3.2.6 9 .8 12-.4 2.5-1 6-1.3 8.6-1h1c-.9.6-1.8 1.1-3 1.3-1.9.3-3.8 1.4-5.7 2l-1.2.3c-2.2.4-4.5.9-6.8 1.3h-.4c-4.4 0-8.7 1-13.1.6-2.3-.2-4.6-.2-6.8-.1-2.7-.2-5.3-.2-7.6.6-.6.2-.5.9 0 1.1 1.8.7 3.8 1.1 5.9 1.4-1.8.7-3.5 1.8-5.1 2.7-1.2.7-2.1 1.4-3.4 2-1.3.6-2.1 1.7-3.2 2.3-.6.3-.3 1 .2 1.2.6.3 1.1.3 1.8 0 1.4-.6 3.3-.7 4.7-1.5 2.2-1.3 5.2-2.7 7.8-3.3.5 0 1.1-.1 1.4-.5l.1-.1c.7-.8.7-1.7.3-2.4 2.1.1 4.2.1 6 .1 2.4 0 5 .1 7.4-.3 1.7-.3 3.7-.3 5.5-.5 1.4.1 2.8.1 4.3-.2 5.2-1.1 10.6-.8 15.8-2.1.5-.1.9-.3 1.2-.6.9.1 1.7-.8 1.7-1.7-.2-1.8-.7-3.4-1.5-4.9zM-288.9 290.2c-4.8-.6-9.4.7-14.3.9-2.8.1-5.8-.7-8.5-.5-.8.1-1.6-.1-2.4-.4-.4-.7-1.2-1.1-2.1-.8-.3-.1-.5-.2-.8-.3-.5-.8-1.4-1.1-2.3-.9-.9-.4-2.1-.2-2.9.8-1.1 1.6-3.1 1.8-4.9 2.4-.7.2-.7 1.2 0 1.4 2.1.8 3.5 1.4 4.7 1.3.3.8 1.2 1.4 2 1.4 1.1 0 1.8-.3 2.1-.8.3.1.6.1.9 0 .4-.1.7-.3 1-.4.3.2.6.4.8.5 1.4.7 3.1.2 4.5.5 2.9.5 5.3.1 8.1-.7 2.5-.7 5.2-.6 7.6-1.5 2.1-.8 4.5-.8 6.4-2 .7-.4.5-.9.1-.9zM-326.2 284.9c-1.9-.9-4.8-2.1-6.2-3.7-1.3-1.5-2.5-3.6-3.5-5.3-1.6-2.7-4.7-8.1-8.5-7.4-.5.1-.9.8-.7 1.3.5 1.2 1.1 2.4 1.8 3.5-.4-.2-.8-.2-1.1 0-.4.2-.7.8-.5 1.3.2.5.3 1.1.4 1.6.1.4.3.8.6 1.1.1.2.3.3.5.5.2.1.4.2.7.2.4 0 .5-.1.2 0 .7-.1 1.4-.7 1.1-1.5v-.1c0-.1-.1-.3-.1-.4 3.8 4.9 9.3 9 15.1 9.6.3-.2.4-.6.2-.7z"/><path class="st0" d="M-376.9 285.5c-5.2-.2-10.1 1.2-15.2 2.2-4.4.8-8.8.4-13.2 1.3-.6.1-.6 1.1 0 1.2 4.5.9 8 1.8 12.7 1 5.1-.9 11.8-1.3 16.1-4.2.7-.4.5-1.4-.4-1.5zM-345.6 259.2c-1.4 0-2.6.2-3.7 1.1-.1 0-.1.1-.1.1s-.1 0-.1.1c-.3.2-.5.4-.7.6-.6.6-.8 1.5-.6 2.4.4 1.5 2 2.1 3.4 1.5.5-.2 1-.5 1.4-.9h.2c1.5 0 2.2-1.6 2.2-2.9-.1-1.1-.9-2.1-2-2zM-347.4 270.7c-.1 0-.3.1-.4.1.4-.4.8-.9 1.2-1.3.7-.7.2-1.9-.8-1.9s-1.6.6-2.2 1.2l-.1.1h-.1c-.3-.1-.5-.1-.8-.1.4 0 .1-.1-.1-.4-.6-.9-1.9-3.6-3.2-1.8-.1.1-.1.3-.1.5v.4c-.1.6.1 1.2.3 1.8.2.4.4.9.6 1.3-1.2-1.2-2.3-2.9-1.5-3.8l.3-.3c1.1-1.6-1.2-3.1-2.5-2-3.2 2.9-.7 4.6.4 7.8 0 .1.1.3.2.4-5.8 6.2-7.1 15.7-5.3 23.8.1.4.7.4.7 0 .6-2.6-.1-8.7 1.8-10.6.3-.4.8-2.1.8-2.1.6-.4 1.2-1.2 1.6-1.8.8-1.3 2.7-4 3.6-6.6 1.3.3 2.7.3 4-.1.7-.2 1.2-.9 1.2-1.6.3-.2.6-.4.9-.5 1.6-.7 1.1-2.9-.5-2.5zM-328.6 241.3c-3.7-.5-6.9-.7-10.3 1-1 .5-1.9 1.6-2.6 2.6-1.2 1.5-2.8 2.5-4 4-1.4 1.7.8 3.9 2.4 2.4 0 0 2.1.7 2.2.7.6 0 .6.1 0 .4 0 .3 0 .6.1.8-.4.1-.7.2-1.1.3-1.2.5-1.1 2.4 0 3 2.7 1.4 6.8 1.4 9.2-.5 2.2-1.6 3.2-3.1 4.2-5.6.2-.4-.3-.9-.7-.7-1.5.6-2.4 2-3.9 2.8-1.5.8-3.1.7-4.6.6.1-.6.1-1.3.1-1.5.1-1.1-.6-2.7-1.8-3-.1 0-.3-.1-.4-.1.2-.1.4-.3.6-.4.9-.6 1.5-1.6 2.4-2.3 2.5-1.9 6-1.8 8.5-3.5.4-.3.2-.9-.3-1zM-349.7 249.5c-1.9-.6-2.8.3-4.1 1.6-.1-.4-.2-.9-.4-1.3-.7-1.5-1.8-2.9-2.9-4.1-.2-.2-.5.1-.3.3 1 2.2 1.7 4.4 1.8 6.7 0-.1-.1-.1-.1-.2-.4-1-1.1-1.9-2.1-2.5-.6-.4-1.2-.9-1.9-1.1-.3-.1-.9-.2-1.2-.5-.3-.3-.8.1-.6.5.6 1.3 1.7 2.4 2.4 3.6.4.7.5 1.3.8 2.1.1.4.3 1.4.2 1.9h-.4-.1c-.3-.1-.6-.2-.9-.2-.1 0-.2-.1-.3-.1 0 0-.3-.1-.1 0-.2-.1-.2-.1-.3-.1-.5-.3-1.2-.1-1.4.5-.1.6 0 1 .4 1.5l.3.3s.1.1.1.2c-.2-.2-.1-.1 0 0-.1.1-.3.3-.4.5-.4.4-.5.9-.7 1.4-.5 1.2-.4 2-.1 2.9-5.2 1.5-9.8 5.5-12.6 9.9-.4.6.5 1.3 1 .8 1.6-1.8 4.4-3.3 6.5-4.6 2.2-1.4 5.2-2.8 7.8-3.2.7-.1 1.2-.9 1.2-1.7.5-.2.9-.7.8-1.3v-.4c-.1-.5-.2-.9-.6-1.3v-.3c.1-.4.1-.6.1-.6.2-.2.3-.5.4-.9v-.3l.1-.1c.7.2 1.5.1 1.9-.7.3-.4.4-.9.5-1.4h.3c1 0 1.9-.3 2.6-1.1.4-.4.5-.9.4-1.4.5-.8 1-1.6 1.7-2.3 1.3-.4 1.7-2.6.2-3z"/><path class="st1" d="M-270.3 274.6c-4.8-.9-9.1 3.8-12.6 6.5-2.5 1.9-6.3 3.2-9.2 4.3-4.1 1.6-8.5 2-12.8 2.2-2.9.1-5.7.1-8.5.1-.1-.2-.1-.4-.2-.6 4.1-2 7.8-4.5 10.8-7.5 3.6-3.6 8.1-5.9 12.2-8.8 3.1-2.2 6.9-5.3 8.2-9.1 1.2-3.5 1-10.6-3.3-11.3-.6-.5-1.4-.8-2.3-.9-1-.1-5.6-.5-4.9 1.9.4 1.4 2.3 2.3 2.9 3.7.1.3.3.7.3 1.1.1 1.1.1 2.2.1 3.3-.3 1.7-1.1 3.3-2.3 4.6-.3.3-.6.6-1 .9-.6.3-1.1.8-1.7 1.2-.4 0-.9.3-1.2.7-1.4.7-2.9 1.3-4.3 1.8s-1.2.3-2.5 1c-.4.2-1 .9-1.6 1.5-4.7 1.5-8.9 4.9-13.5 6.9-1.2-2.4-2.5-4.6-4.2-6.8.5-.2.9-.4 1.4-.6 9.2-4 18.3-8.5 24.4-16.8 1.8-2.4 3.8-5.6 3.2-8.8-.1-.4-.3-.8-.6-1.2-.3-.6-.6-1.1-1.1-1.7-1.3-1.7-6-4.6-7.7-2-.2.3 0 .7.4.9 4 1.6 3.8 5.1 2.8 8.5-.9 1.6-1.9 3.2-3.2 4.4-4 4.1-9.7 6.1-14.8 8.2-1.9.8-3.7 2.1-5.6 3.1-1.1.6-2.3 1.1-3.5 1.5-3.5-3.1-7.6-5-12.2-6.1-.1-.1-.2-.1-.3-.2 2.2-.1 4.4-.4 6.6-.8 3.1-.6 6.1-1.4 8.8-3.1.8-.3 1.6-.7 2.3-1.1 1.1-.6 1.9-1.3 2.8-2.2 1.3-1.4 2.8-2.3 4-3.8.9-1.1 1.7-2.2 2.4-3.4.3-.4.5-.7.8-1.1l.3-.3c.3-.6.6-1.2.9-1.7.4-1.2.8-2.4 1.3-3.6.1-.4.2-.9.3-1.4.1-1.1 0-2.2-.4-3.2h-.2c-5.1 1.7-9.4 2.5-14.7 2.4-4.1-.1-8.3 2.4-12.2 3.4-4.9 1.2-9.2 5.7-11.4 10.3h-1-.1c-.2-2.2-.3-4.5-.9-6.5-1-3.3-4.1-5.5-6.6-7.6-3.2-2.5-6.8-4.7-10.6-6.1-1.3-.5-3.4-1.1-4.8-1.3-1.2-.1-2.6-.1-3.8-.6-.9-.4-2-2-2.8-2.9-.5-.5-1.2-.1-1.2.5.3 8.1 3.5 14 7 21.1 1.6 3.3 2.8 6.2 5.6 8.8 1 .9 2.4 2.1 3.7 1.9-1.7.3-3.1.6-4.6 1.4-3.4 1.6-6.5 4-9.7 6.1-3.9 2.6-8 4.9-11.8 7.6-3.2 2.3-6.3 4.8-9.2 7.5-1.4 1.4-4.5 2.8-4.9 4.9-.1.4.4.8.8.7 7-.6 14.9-.3 22.3-1.4-7 1.7-14 2.7-21.2 2.3l-12-.6c-4-.2-8.1 0-12.1-.6-1.6-.2-3.1-.4-4.7-.4-1.2 0-2.8-.6-3.9-.2-1.9.6-3.1 1.9-3.2 3.9-.2 3.6 4.3 3.5 7.9 3.6.6 2.2 4.4 3 6.3 3.6 3.3 1.1 6.5 2.6 9.8 3.5-2.7 1.2-5.5 2.2-8 3.6-.1 0-.2 0-.3.1-.8.2-1.5.7-2.2 1-2.3.8-4.6 2.3-7.1 1.1-2.8-1.3-.4-3.5-1.7-5-1.4-1.6-4.2.1-5.1 1.6-1.4 2.3 1.4 5.3 3 6.6 3 2.6 4.5 3.2 8.7 2.5 4.6-.7 9.2-2.6 13.7-3.9 5-1.4 9.4-3.9 14.1-5.8.4-.2.9-.4 1.3-.5.3 0 .7 0 1 .1 4.7.4 9.4 0 14.1-.6 5-.7 9.9-1.4 14.9-2 1.2-.1 2.3-.3 3.5-.4.5 2.6 1.2 5.1 2.7 7.2.1 0 .2.1.2.2.7.7 1.3 1.4 1.9 2.1.3.2.6.5.9.7.3.2.6.2.8 0 .5-.4.5-.6.6-1.2.4-1.7 1.4-3.2 2.6-4.5 1.9-2.1 3.6-4.5 5.1-7 3.6-.8 7.3-1.4 10.9-2.1 1.5.2 3 .5 4.5.6 10.1 1.1 20.1 1.7 30.3 1.1 4.2-.2 8.3-1.6 12.3-2.9 4.3-1.4 8.7-2.5 12.2-5.4 1.2-1.4 13.7-11.6 7.6-12.7zm-44.8 8.9l.1.1c.2.2.5.4.8.6-.2 0-.4 0-.5.1-.2-.3-.3-.6-.4-.8zm1-6.3c1.1-.4 2.2-.8 3.5-1.1 1.3-.2 2.8-.4 3.9-1.3.3-.2.5-.5.7-.8.8-.5 1.7-1.2 2.4-2 .1 0 .1.1.2 0 2.1-1.2 4.1-2.2 6.5-2.8 2-.5 3.8-1.5 5.1-3.1 1.3-1.5 2.2-3 2.7-4.9.2-.5.4-.9.5-1.4.1-1.2.2-2.4.4-3.6-.1-1.1-.4-2.1-1-3-.2-.3-.7-.9-1.1-1.4l-.3-.3c-.4-.4-.2-1.1.3-1.2.4-.1.8-.1 1.2-.1.9.5 1.8 1.5 2.4 2.1 1.2 1.4 1.6 3.2 2.1 5 .5 1.9-.7 5.1-2.4 6.1-1 .6-1.1 1.1-1.7 2.1-.1.1.1.2.2.1.6-.6 1.1-1.3 1.9-1.7.6-.3 1-.8 1.4-1.4 1.1-1.6 1.7-3.6 1.4-5.5-.3-1.9-1.1-3.7-2.3-5.2-.4-.5-1.1-1.2-1.9-1.6 2.2.4 3.8 2.2 4.4 4.4V254.9c.1.4.1.7.2 1.1.8 5.1-2.4 8.9-6.6 12.2v-.1c.2-.4.3-.9.3-1.4 0-.2-.3-.2-.3 0 0 .4-.2.9-.4 1.3-.1.2-.3.5-.2.7-.9.7-1.8 1.3-2.7 1.9 0-.2.1-.3.3-.4.3-.2 0-.6-.3-.4-.4.2-.7.8-.6 1.2-3.4 2.2-6.8 4.2-9.3 6.4-1 .2-1.7 1.1-2.6 1.5-.3.1-.6.2-1 .4-.1 0-.1 0-.2.1-.7.3-1.3.6-1.9 1-1.1.2-2.7.2-2.8-1.3 0-.3-.5-.3-.5 0 0 .4 0 .8.1 1.2.2.4.7.7 1.1.8.3.1.6.2 1 .2-.5.4-.9.8-1.3 1.3-.7-.3-1.5-.3-2.1-.8-.2-.2-1.4-.9-1-1.2.2-.2-.1-.5-.3-.4-1.2.9 1.1 2.7 2.8 3.1l-.3.3c-.2.1-.4.2-.6.2-.5-.2-.9-.5-1.3-.8-.8-.5-1.3-1.3-1.5-2.3 0-.2-.3-.1-.3 0v.4c-.1-.3-.3-.6-.4-.9-.2-.6-.5-1.1-.7-1.6.8-.3 1.9-.8 2.9-1.4zm-9.1-7.8h1c-.2.1-.5.2-.7.3-.1 0-.2-.1-.3-.3zm2.5-3.7c4.5-2.2 9.1-4.3 13.6-6.5.9-.5 1.8-1 2.7-1.6 2-1.9 3.9-4.1 5.2-6.5-.1.3-.3.7-.2 1 0 .1.2.2.3.1.4-.2.4-.7.3-1.1 0-.2-.2-.2-.3-.1.5-1 1-2 1.2-3.1 0 .2 0 .4.1.5 0 .6.1 1.3.4 1.8.1.1.2.1.3 0 .3-.5.1-1.1 0-1.7-.1-.3-.1-.6-.1-.9-.1-.4-.3-.7-.3-1.1.1-.6.1-1.2.1-1.8.3.8.4 1.8.9 2.5.1.1.3.1.3 0 .2-1-.3-2.2-.7-3-.3-.6-.7-1.2-1.1-1.7-.6-1-1.5-1.8-2.5-2.4 1.1-.7 3 .7 4.4 2 .4.6.7 1.2.8 1.4.4 1.1 1.1 2.5.5 3.7-.5 1-1 1.4-1.3 2.6-.1.6-.3 1.2-.4 1.8-5.6 8.1-13.5 12.6-22.1 16.5.2-.1.4-.3.4-.6 0-.1-.1-.1-.2-.1-1.5.1-2.9.1-4.4.2-.3 0-.3.4 0 .4 1.1.1 2.3.2 3.4.2.2 0 .5 0 .8-.1-.5.2-1.1.5-1.6.7-.3.1-.6.1-.9.1-.7 0-1.4.1-2.2.1-.4-.5-.9-.9-1.3-1.4 1.1-.6 2.5-1.3 3.9-1.9zm-14.9 3.5c.9.5 2 .8 2.8 1.3 1.8 1.2 3.3 2.6 5 3.9.2.2.5-.1.3-.3-1.1-1.7-2.7-2.8-4.4-4-.8-.5-1.6-1-2.5-1.3-.3-.1-.6-.1-.9-.1.7-2 .7-4.1-.3-5.8 5 1.8 9.1 5 12.7 9.6 2.1 2.7 3.6 5.5 4.8 8.7 1 2.4 2.5 5 3.1 7.6-.1 0-.2-.1-.4-.2-.7-.6-1.6-1.4-2.4-1.5-1.5-.2-3-.9-4.3-1.6-.6-.3-1.1-.5-1.7-.7-.3-1.3-1-2.7-1.6-3.8-.6-1.2-1.6-2.4-2.8-3-.2-.1-.3.2-.1.2 2.2 1.1 3 4.1 3.8 6.4-.9-.2-1.8-.3-2.6-.4-2-.6-3.9-1.3-5.9-2.2-2.2-1-4.5-2.8-6.4-4.8l-.1-.1c-.4-.4-.8-.8-1.2-1.3-.6-.9-1.1-1.8-1.5-2.6-.5-.9-.9-1.8-1.4-2.7-.1-.2-.2-.3-.3-.4-.2-.3-.3-.5-.5-.7-.1-.1-.2-.2-.4-.2.1-.4.1-.8.1-1.1.1.1.3.1.4.2h.3c.1 0 .2 0 .3.1.4.3.8.7 1.2 1.1l.1.1c.8.4 1.5.8 2.2 1.4.2-.1.3-.1.5 0 .6.3 1.1.5 1.7.5.4-.3.7-.7 1.1-1 .4-.6.6-1.1.9-1.1.1-.1.3-.1.4-.2zm14.4 18.6c-.1 0-.1 0 0 0-.1 0 0 0 0 0zm-23.4 4.2c.1-.2.1-.4.2-.5.2.3.5.6.8.8-.3-.1-.6-.2-1-.3zm-5.3-22.6c.6 0 1-.5 1.6-.5h.1c.4-.3.8-.6 1.2-.8.1-.2.3-.4.5-.5.3-.1.7.1.8.4.2.7-.6 1.7-.9 2.2-.2.3-.7.3-.9.1-.4-.3-.6-.2-.9-.2-.6.7-1.2 1.8-1.7 1.1-.3-.4-.8-.8-1.3-.8-1.6-.2-1.7-1.5-2.2-2.7-.2-.4-.3-.8-.3-1.2 1 .1 2.1-.4 2.6 1.5.2.7.3 1 .7 1.5.1.1.3.2.5.3-.2-.1-.1-.4.2-.4zm4.3 4.1c-.1-.3-.2-.6-.3-.8-.2-.7.8-1.2 1.1-.5.1.2.1.3.2.5.1.1.1.2.2.3-.4.2-.8.4-1.2.5zm2 .9c.4.6.7 1.2 1.1 1.7.2.2.3.4.5.7h-.3c-.1 0-.2 0-.2-.1s-.2-.1-.3-.1c-.2-.1-.5-.2-.7-.3-.5-.4-1.1-.8-1.4-1.4.5-.1.9-.3 1.3-.5zm-.8 5.9l4.2-1.5c1.8 1.7 3.8 3.3 5.9 4.3.2.1.3.2.5.2-1.7.5-3.5 1-5.2 1.6-1.2.4-2.4.7-3.6 1.1h-1.5c.1-1.9 0-3.8-.3-5.7zm6.3-18.2c1.5.9 2.1 2.3 2 4.1 0 .7.1 1.8-.7 1.7-.2 0-.5.1-.6.3-.9 1.3.5 3.4-3.3 1.1-1.5-.9-2.9-2-4.5-2.9 0 0-.1 0-.1-.1v-.2c-.3 0-.6-.1-.9-.1v.1c-.4 0-.7.3-1.1.6-.2.1-2.1 3-2.8.7-.1-.4-.3-.8-.6-1.1-.8-.7-2.4-.8-3.2-1.6-.1-.3-.2-.5-.4-.8-.1-.3 0-.6.1-1 .1-.3.3-.5.5-.8.2 0 .3-.2.4-.3.8-.7 1.8-1.3 2.4-1.8.3-.3.8-.5 1-.9.2-.4.3-.5.3-.9-.1-2.7 5.3-4 5.3-1.9 0 .1 0 .3.1.4h.1c.5.1 1 0 1.5 0 .6 0 1.1.2 1.5.5.3.3.5.7.6 1.1 0 .6-.6.9-1 .4-.9 0-1.7.1-2.6.3-.2-.1-.3-.1-.6-.1-.1 0-.3.2-.2.3-.1.1-.3.1-.4.2 0-.4-.1-.7-.1-1.1 0-.5-.6-1.9-1.3-1.8-.1 0-.1.2 0 .3.4.2.5.9.6 1.4 0 .1 0 1.4-.1 1.8-.1.1-.1.1-.2.1-.3.2-.2.6-.1.8l.1.1c.1.1.3.1.5 0 .6-.2 1.1-.4 1.7-.5 0 .4 0 .9-.2 1.3-.1.2-.2.4-.4.6-.1 0-.2-.1-.3-.1-.3-.2-.6-.6-.7-.9 0-.3-.4-.3-.4 0 0 .4.1.8.4 1.1-.2.1-.2.3-.4.2-.3 0-.6-.3-.7-.6-.3-.4-.3-.8-.3-1.3 0-.2-.3-.2-.3 0-.1.8 0 1.5.5 2.1l.1.1v.1h-.6c-.3-.2-.4-.4-.6-.7-.1-.3-.2-.6-.2-.9-.1-.3-.4-.2-.5 0-.1.3 0 1 .3 1.5-.7-.1-.9-.7-1.4-1-.2-.1-.4-.1-.6.1-.9 1 .5 2 1.4 2.3.4.1.7.2 1.1.2.7-.2 1.4-.2 2.1-.1.2 0 .5-.1.7-.1.1 0 .2-.1.3-.1.4-.1.7-.4 1-.6.2.1.5.2.6.2.4.2.6.5.9.8.5.7.7 1.6 1 2.3.1.2.4.2.4 0 .4-1.2-.2-2.5-1.1-3.3-.3-.3-.8-.6-1.3-.7.1-.1.2-.3.2-.4 2.1-1.3 3.8 1.2 4.8 2.8.1.1.2 0 .2-.1-.5-1.6-1.2-3.1-2.9-3.6-.7-.2-1.4-.2-2.1 0 0-.3.1-.5.2-.7 0-.1 0-.3-.1-.4h.1c0 .1 0 .3.1.4.5-.8 1.7-1.1 2.9-.5.6.2 1.3.8 1.9 1.6zm26.2-18.5c-.2.2-.4.3-.5.5-2.7 4-6.2 8-10.4 10.4-.6.4-1.3.7-2 .9-.3.1-.6.3-.8.4l-1.2.6c-.7.1-1.4.2-2.1.4-1.7.4-3.4.4-5 .7-.8.2-3.9.6-4.8 1.6-.1 0-.3-.1-.4-.1.1-.3.1-.6 0-.9-.2-.4-.4-.8-.7-1.1.6 0 1.4 0 1.6-.1 1.4-.2 2.7-.6 4.1-1 2.6-.7 4.1-2.5 5.9-4.3.1-.1 0-.3-.2-.2-1.8 1.5-3.6 3-5.9 3.6-2.2.6-4.4 1.1-6.6.9-.1 0-.2 0-.3.1-.1-.1-.3-.2-.5-.2-.4-.4-.5-.9.3-1.5.9-.7.9-1.5.4-2.5-.1-.3-.4-.5-.7-.6-.2-.5-.5-.7-1-.7h-.2c3.4-3.2 7.4-5.5 12.2-7 3.7-1.2 7.5-1.5 11.4-1.6 2.6-.1 5.4-.1 8.1 0-.3.4-.5 1-.7 1.7zm-28.9 1.1c2.9-2.8 7.1-3.3 10.7-4.6 1.8-.6 3.6-1.3 5.5-1.7 2-.4 4.4 0 6.5-.1 3.2-.1 5.9-1.1 8.8-2.2-.2 1.3-.5 2.6-.9 3.8-.1-.1-.2-.1-.3.1-.1.1-.1.2-.2.2-2.6-.2-5.3-.2-7.7-.1-4 .1-8.1.2-12 1.4-5.9 1.8-10.8 4.7-14.9 8.9-.3.1-.7.1-1 0 1.4-2.1 3.6-3.8 5.5-5.7zm-23 51.6c.2.1.3.1.5.1-.2 0-.3 0-.5.1.1-.1.1-.1 0-.2zm-1.4-6c.1-.1.2-.3.3-.4v.4h-.3zm-6.5.5h1.4c-2.7.3-5.4.8-8 1.5-4.7.3-9.3.3-14 .2 8.8-2.2 18-3 27-4.1-.1.2-.1.4-.2.6-.3.4-.7.9-1 1.4-.9.1-1.7.1-2.6.2-.7-.6-1.7-.4-2.5-.4-.5.1-.5.6-.1.6zm-31.1 1c3.7.3 7.4-.1 11.2-.8-1.7.4-3.3.8-4.9 1.4h-.5c-2 0-3.9-.1-5.8-.6zm1.3.4c-.7-.1-1.5-.2-2.2-.4-.8-.2-1.6-.4-2.4-.5 1.5.3 3 .6 4.6.9zm14.9-2.2c2.4-.6 4.8-1.1 7.2-1.6 5.2-1.1 10.4-2 15.6-3-.1.5-.1.9-.2 1.4-7.5.7-15.1 1.8-22.6 3.2zm15.5-4.7c0-.1 0-.1 0 0-.6-.4-1.3-.3-1.8-.4-.2 0-.4-.1-.6-.1 1.2-.3 2.3-.7 3.4-1 .3.1.7.3.9.3.4.2 1 .4 1.5.2.1-.1.1-.2 0-.3-.4-.3-.8-.4-1.3-.6 1.8-.5 3.6-1.1 5.4-1.6v.1c-.4.5-.9 1.1-1.2 1.7-.1.1-.2.2-.4.3-1.9.5-3.9.9-5.9 1.4zm9.6-6.1c-2.1.7-4.3 1.4-6.5 2.1 3.7-1.9 6.9-4.5 9.4-8.5.1-.2.2-.3.2-.3v.2c-.3.5-.8 1.5-.9 1.8-.7 1.7-1.3 3.2-2.2 4.7zm-67.4 10.5s0-.1 0 0c-1.1-.4-2.3-.3-3.3-.7-.6-.3-1.3-.4-2-.3-.2 0-.2.4 0 .4h.1l.1.1c.1.1.2 0 .2 0 .9.3 1.8.6 2.8.8-.3.1-.5.1-.8.1-.9.1-1.8-.3-2.7-.5-.1 0-.2 0-.2-.1-.1-.2-.3-.2-.4-.1-.1-.2-.2-.3-.3-.5.3-1.9 1.5-2.6 3.5-2.2.6.1 1.5 0 2.2 0 2.7 0 5.2.6 7.9.7 9.5.5 19.3 1.5 28.8.9 6.2-.4 12.5-1.8 18.6-3.5.5.2 1.1.4 1.7.6l-6.9 1.5c-8.8 1.8-17.4 4.2-26.4 3.7-.1 0-.2 0-.2.1-2-.4-4-.6-6.1-.7-1.1-.1-2.2-.2-3.4-.2-1 0-2 .1-3 .2-1.5.1-3 .2-4.5.4-.1-.1-.2-.2-.4-.2-.5-.1-1-.1-1.4-.2 0-.1-.1-.3-.2-.3-.3 0-.5.1-.8.1-1.1 0-2-.2-2.9-.1zm23.1 13.6c-.5.2-1.1.6-1.6 1-.3.1-.6.3-.8.4-4.1 2-9.3 2.8-13.6 4.1-2.4.7-4.7 1.3-7.3 1.4-2.7 0-5.4-3.5-6.6-5.5-1.1-1.8 2.3-4.3 2.3-1.9 0 .9 0 1.1.2 1.9.1.6.5 1.1 1 1.5 0 .1 0 .1.1.2.1 0 .1 0 .2.1.2.1.3.3.5.4h.4c1.8.5 4.1.3 6.1-.3 1.4-.3 2.7-.8 4-1.5.6-.4 1.3-.7 1.9-.9.1 0 .2-.1.4-.1 2.2-.5 4.4-1.2 6.6-1.9 1.6-.6 3.3-.5 5-.8.1 0 .1 0 .2-.1.3 0 .6.1.9.2.1.2.2.3.2.5.1.1.3 1.1-.1 1.3zm24.3-4.5c.3-.1.6-.3.8-.6.1-.1 0-.3-.1-.2-.6.2-1.6.4-2.2.2-.2-.1-1.4-.2-1.5-.4-.1-.2-.5-.1-.4.2.1.6 1.2.7 1.6.9.1 0 .2.1.3.1l-3.3.3s-.1-.1-.2 0c-.1 0-.2.1-.3.1h-.5c-1.5 0-2.9-1.4-3.9-2.3-.2-.1-.5 0-.3.2.7.9 1.4 1.6 2.3 2.1-1.1 0-2.3.1-3.4.1 0 0 .1 0 .1-.1h-1.5-.1c-3.6 0-7.3-.2-10.9-.4-1.8.1-3.6-.1-5.4-.4-.1 0-.2.1-.2.1-1.4-.2-2.8-.5-4.1-1 .3.1.7.2 1 .2.8.1 3.6 1.1 4.1 0 .1-.2-.1-.4-.3-.4-.6.2-1.2-.1-1.8-.2l-3.6-.6c-2.6-.6-5.2-1.6-7.8-2.3-.1 0-.2 0-.2.1-.2-.1-.4-.1-.6-.2 1.3.5-2.6-.7-3.4-1.5 1.5-.1 3.1-.6 4.5-.8 1.8-.3 3.4-.7 5.1-.8H-413.1c3.6.3 7.1 1.4 10.7 2 2.1.4 4.2 0 6.2.4 1.7.3 3.5.4 5.2.4 1.1.1 2.1.2 3.2.2 1.1.1 2.2.3 3.3.3.7 0 1.4-.1 2.1-.3.2 0 .4-.1.5-.1 1.6-.1 3.2-.1 4.8-.2h.7c2.6-.5 5.3-1.1 7.9-1.6.8-.1 1.6-.2 2.4-.4.7-.1 1.4-.2 2.1-.4.1.8.1 1.5.2 2.3.1.6.2 1.2.2 1.8-.1 0-.2 0-.3-.1-.4-.1-.8-.3-1.1-.5-.2-.1-.4.2-.2.4.3.2.6.4 1 .6-1.9-.6-4 .4-5.9-.7-.3-.2-.5.2-.2.4.2.2.5.3.8.4-.4.1-.9.2-1.3.2-1.1.1-2.2-.2-3.2-.6-.3-.1-.6.3-.3.5 1.7.8 3.8 1.2 5.5.2.5.1.9.2 1.4.3-4.5.9-9.3 1.6-14.1 2.1zm24.4 7.3c0 1.2 0 .8-.6 0-.2.1-.4 0-.6-.2-.2-.3-.3-.4-.4-.6-.7-.8-1.3-1.7-1.7-2.8-.2-.3-.4-.6-.6-1-1.7-3.5-1.7-8.5-1.5-12.2v-.1c0-.8.1-1.6.2-2.3v-.3c.1-.5.2-1.1.3-1.6l.3-1.2c.6-1.7 1.4-3.2 2.3-4.7.5-1.4 1.1-2.7 1.6-4.1.1-.2.1-.4.2-.5.5-1.3.8-2.6.7-3.7 0-.4-.4-.6-.8-.6-2.1.2-3.7 4.2-4.8 5.7-3.3 4.2-9.9 6.1-14.9 7.1-3.4.7-6.8 1-10.3 1.2.7-1.5 1.7-2.8 2.8-4 1.1-1.2 2.5-1.8 3.7-2.8.1-.1 0-.3-.2-.3-1.6.7-2.9 1.3-4.1 2.6-1.3 1.3-2.2 2.7-2.8 4.4v.2c-4.3.2-8.7.2-13 .5.9-.9 2.6-1.9 3.1-2.5 1.3-1.2 2.6-2.4 4-3.5 3.3-2.7 6.8-5.2 10.3-7.6 3.5-2.4 7.2-4.4 10.7-6.7 3.6-2.4 6.9-4.3 11.2-5.1.1 0 .2-.1.3-.1.5-.1.7-.6.7-1.1 0-.5-.3-.8-.6-.8-.2-.3-.6-.4-1-.6l-.2-.2c-2.2-1.6-4.2-3.2-5.8-5.5-1-1.5-1.7-3-2.4-4.5-.3-.8-.7-1.5-1.1-2.2 0-.1-.1-.2-.1-.2-.3-.8-.5-1.5-.9-2.2-.3-.6-.7-1.2-1.1-1.9-.2-.5-.4-.9-.6-1.4 0-.1-.1-.3-.1-.4 0 0 0-.1-.1-.1-1.3-3.1-2.3-6.3-2.7-9.8 1 1.1 2 1.9 4 2.2 4.5.5 8.2 2.1 12.1 4.2 3.9 2 8.3 5.4 10.4 9.2 1.2 2.2 1.2 4.8 1.4 7.4-.3.2-.6.4-.9.7-.3.2-.7.7-.9 1.2-.3.5-.5 1-.6 1.8 0 .5.6.5.7.1.2-1.1.9-1.8 1.8-2.2v.2c.7-.5 1.9-1 3.1-1.2.2 0 .4 0 .5.1.6.1 1.3.1 1.9 0 .4.2.8.4 1 .8 0 .4-.1.8-.1 1.1l-.1.1c-.4.3-.8.9-.9 1.4-.5-.3-1.2-.6-1.8-.8h-.2c-.8-.1-1.6-.2-2.4-.1-.8.1-1.4.6-2.1 1-.1.1-.2.1-.3.1-.4.6-.5 1.3-.5 2.4.1 1.4-1.6 2.2-3 3.2-.1-.1-.2-.3-.3-.4-.3-.3-.8-.6-1.3-.6-.1 0-.2.2-.2.3v.1c0 .1.1.2.3.2.3.2.6.5.8.8l.1.1c-.4.4-.8.8-1 1.3-.4-.2-.8-.3-1.3-.4-1.9-.6-.2-2.5.5-3 .2-.1.3-.3.5-.4.2-.2.4-.4.7-.5 0-.1.1-.1.1-.2.3-.4.8-.7 1.3-.8h.2c.4-.2.7-.3 1.1-.5.3-.1.2-.7-.2-.6-.7.2-1.3.3-1.9.5.1-2.9-.4-6-1.3-8.6-1.4-3.8-5.6-5.6-8.4-8.1-.1-.1-.3.1-.2.2 2.4 2.5 5.6 4.3 7.3 7.5 1.5 2.9 1.3 6.5 1.3 9.8-1 .7-2.2 1.5-2.7 2.6-.8 1.7.5 3.6 2.2 3.6-.1.1-.3.1-.4.2-6.2-.2-13.1 5.2-16.6 9.8-.3.5.4 1 .7.5 3.6-4.4 8.8-7.6 14.3-9l-1.3 1.3c-1.6 1.4-3.9 2.9-3.9 5.2 0 .3.4.5.6.1.8-2.1 2.8-3.4 4.5-4.9 1-.8 1.9-1.6 2.9-2.4.1.5.4 1 1 1.5-.1.3-.1.6 0 .9.1.7.5 1.4.7 2.2.7 2.1 2 2.1 3.7 3.3.9.6 1.6.7 2.2-.3.3-.6.7-.9 1.1-1.1 0 2.1.4 4.2.7 6.2.1.1.2.2.2.3.4 1.5.6 2.9.5 4.4.1 1.3.2 2.5.1 3.8h-.1c0 .1 0 .1.1.2 0 .2-.1.5-.1.7-.2.9-.4 1.7-.7 2.5h.1c-.1.5-.3.9-.5 1.4-1.5 3.4-4 6.4-6.3 9.3-.6.9-3.5 4.2-3.6 5.8zm22.7-14.9c-.2.1-.5.1-.7.2 0 0 0-.1-.1-.1-.7-.4-1.5-.3-2.2-.7-.4-.2-1.4-.7-1.3-1.2 0-.3-.4-.5-.5-.1-.3 1.2 1 2.1 2.3 2.5-.5.1-1.1.2-1.6.4 0 0 .1-.1.1-.2.1-.3-.3-.5-.5-.3h-.2c-.2 0-.3-.1-.5-.2-.3-.1-.5-.3-.8-.4l-.6-.6c-.1-.1-.2-.3-.3-.4 0 0-.1-.1-.1-.2.3-.1.2-.5-.1-.5-1.2 0 .1 1.8.4 2.2.2.3.7.7 1.2.8h-1.5c-.8-.5-1.7-.5-2.3-1.3-.1-.1-.3-.4-.4-.6.1-.4.1-.8 0-1.2 0-.2-.2-.2-.3-.2l3-.6c1.9-.4 3.6-1.4 5.4-2 .7-.2 1.1-.5 1.6-.9l.3-.3c.9-.3 1.8-.6 2.6-.9 1.4.6 2.9 1.1 4.3 1.5.7.4 1.4.8 2 1.3 0 .1 0 .3.1.4.3.4.6.8.8 1.2-3.3 1-6.7 1.7-10.1 2.4zm12.1 1.6c-.8-.3-1.6-.7-2.3-1.1-.2-.1-.4-.3-.6-.5.1 0 .2 0 .2-.1v.1c.8.9 1.8 1.2 2.7 1.6.1 0 .1 0 0 0zm4.2 1.1c-.3-.1-.6-.2-.9-.2.2-.1.4-.1.6-.2.1 0 .1-.2 0-.2.2.1.5.2.7.3.5.2 1.1.4 1.7.5-.7-.2-1.4-.2-2.1-.2zm35.6-6.7c2.3-.4 3.8-3.1 5.3-4.6 2.1-2.1 3.9-3.9 6.6-5.2-.1.1-.1.2-.2.3-1.6 1.9-3.2 3.3-5 5-1.9 1.7-3.5 3.5-5.7 4.8-1.1.7-2.3 1.2-3.6 1.6l.6-.9c.2-.3-.2-.5-.4-.3-.4.3-.7.8-.9 1.2-.1.1-.1.2-.2.4-.5.1-.9.3-1.4.4v-.1c.2-.4.4-.8.8-1 .3-.1.1-.5-.2-.5-.5.1-.8.5-1.1.9-.2.3-.4.6-.5 1-.7.2-1.5.4-2.2.7-7.4 2.4-14.7 3.1-22.2 3.1.2 0 .3-.1.5-.1s.2-.3 0-.3c-1.4-.3-2.7-.3-4.1-.6-1-.2-3.4-1-3.8-2-.1-.2-.5-.2-.4.1.1 1 1.2 1.6 2.1 2-.2 0-.4-.1-.7 0-.9.2-1.9-.4-2.6-.8-.3-.2-.8-.2-1.1-.3-.6-.2-1.2-.5-1.7-.9 2-.5 4-1.2 6.1-1.9h.9c.5.2.9.4 1.3.7.7.5 1.5.8 2.4.8.5 0 .7-.5.7-.9 0-.1 0-.3-.1-.4 4 .1 8.1 0 12.1-.4 9.2-.8 17.1-5 24.4-10.4 1.1-.8 2.1-1.7 3.4-2.1.9-.3 3-.5 2.9.5-2.2 0-4.4 2-5.7 3.6-.9 1.1-1.9 2-2.8 3-.9 1.2-2.2 3.1-3.7 3.6 0-.1.1.1.2 0zm-142 7.1c.3.1.5.2.6.2-.1-.1-.4-.1-.6-.2zm92.2-3.9c.1.1.1.2 0 .3-.5.3-1.6.4-2.1.1-.5-.3-1.2-.8-1.2-1.5 0-.3.4-.3.5-.1.2.5.8.9 1.3.9.5.1 1 .1 1.5.3zm1.9-1.2c.1.1.1.2 0 .3-.5.2-.9-.1-1.3-.1s-.4-.6 0-.6c.5 0 .9.2 1.3.4zm2.2.3c-.4.2-.9.1-1.2-.2-.2-.2.1-.6.4-.4.2.2.6.2.9.3 0 0 0 .2-.1.3zm19.9-11.6c.5 0 1 .2 1.4.5.1.1.1.3 0 .3-.4.3-.9 0-1.3-.1-.6 0-.6-.7-.1-.7zm2.9-1.1c.3 0 .6 0 .8.1.1.1.1.2 0 .3-.3.2-.5.1-.8.1-.3 0-.3-.5 0-.5zm-92.1 22.1c-1.1.2-2.8-.2-3.9-.4-.2 0-.3-.1-.5-.1-.4.2-.9.3-1.4.1-1.4-.4-2.9-.3-4.3-.5-1.5-.2-2.9-.5-4.4-.8-.9-.2-1.9-.4-2.6-1-.2-.1 0-.4.2-.3 1.1.7 2.6.7 3.8.8.9.1 1.7.4 2.6.5 1.2.2 2.5.2 3.7.4.4 0 .7.1 1 .2-.4-.2-.7-.5-1-.9-.1-.2.1-.4.2-.2 1.7 1.8 4.6 1 6.6 1.9.2 0 .2.2 0 .3zm2.6-1.4c-.3.4-.6.6-1 .6-.5.1-.9 0-1.3 0-.2 0-.2-.3 0-.4.7-.1 1.5-.3 2.2-.5 0 .1.1.2.1.3zm88.2-4.4c-.3 1-1.9.6-2.6.4-1.4-.4-3-.6-4.1-1.5-.2-.1 0-.4.2-.3.9.5 2 .5 2.9.8.8.3 2.4.8 3.3.4.2-.1.4 0 .3.2zm2.7-.7c-.3.3-.7.7-1.2.7s-.9-.3-1.4-.3c-.3 0-.3-.4 0-.4.4 0 .8.2 1.2.2.4 0 .8-.3 1.2-.4.2-.1.3.1.2.2zm4.6-.8c-.3.2-.6.3-.9.3-.5 0-.9.2-1.3.2-.2 0-.2-.3 0-.3.4 0 .8-.3 1.2-.3.3 0 .6-.1 1-.2v.3zm3.1-.2c-.4.1-.8.3-1.3.3-.2 0-.2-.3 0-.4.4 0 .8-.3 1.3-.2.2.1.1.3 0 .3zm-68.7-8.3c.1.1.1.2 0 .2-.2.1-.5.1-.8.1h-1c-.3 0-.3-.5 0-.5h1.1c.2.1.5 0 .7.2zm46.4-16.4c.8-.1 1.4-.4 1.9-1.1.1-.1.2-.1.2.1.1 1.2-1.2 1.5-2.1 1.5-.3 0-.3-.4 0-.5zm3.2-1.6c.3-.3.7-.5 1.1-.7.1 0 .2.1.1.2-.3.3-.6.5-.9.8-.1.2-.5-.1-.3-.3zm1.3-1.2c.2-.2.5-.3.8-.3.3-.1.4-.2.7-.4.1-.1.3 0 .2.1-.2.8-1 .5-1.5.8-.2.1-.3-.1-.2-.2zM-414.4 306c-1.5.4-2.8.6-4.2.6-2.9 2.1-6.6 3.4-10.2 2.6-.2 0-.2-.4.1-.4 3.3.4 6-1.1 8.9-2.3-.3 0-.5 0-.8-.1-.2 0-.2-.3 0-.3.7-.1 1.4-.1 2.1-.1.1 0 .2-.1.3-.1.1 0 .1 0 .2.1.4 0 .8-.1 1.2-.2.8-.2 1.6-.3 2.4-.2.1.1.1.3 0 .4zm5.4-1.8c-1.8.7-3.4.6-5.2.5-.3 0-.3-.4 0-.4 1.1 0 2.2 0 3.2-.3.7-.2 1.3-.3 2-.2.1.2.1.4 0 .4zm1.9-1.2c-.7.2-1.3.3-2 .3-.3 0-.3-.5 0-.5.7 0 1.3-.3 2-.2.2.1.2.4 0 .4zm-17.6-14.1c-.1-.2.2-.4.3-.2.4.5 1.2.2 1.7.5.5.4 1.5.3 2.1.2.1 0 .3.1.2.2-.4.8-1.6.6-2.3.3-.7-.2-1.7-.3-2-1zm5.5-.3h.9c.4 0 .7-.1 1-.2.1 0 .2.1.2.2-.3.8-1.5.4-2.1.4-.2 0-.2-.4 0-.4zm3.5.3c.3 0 .8-.1 1.1.1.1.1.1.1 0 .2-.2.2-.8.1-1.1.1-.3 0-.3-.4 0-.4zm38.2 8.8c-.3.8-1.3.5-1.9.5-.4 0-.4-.5 0-.6h.8c.3 0 .6-.1.9-.2.1.1.3.2.2.3zm1.3-.1c.1 0 .1.1 0 0 0 .1 0 0 0 0zm83.7-27.9c0-.3.3-.7.5-.9.2-.2.5.1.3.3-.2.3-.2.7-.6.8-.1 0-.2-.1-.2-.2zm-64.3 9.8c.1.5 0 .8-.4 1.2-.9.9-1.4 1.8-1.6 3-.3 1.3-.7 2.6-.9 4-.2 1.3-.3 2.7-.5 4 0 .2-.4.2-.4 0-.3-2.2.3-4.7.9-6.8.3-1 .4-2 .9-2.9.3-.6 1.7-1.8 1.6-2.3 0-.4.4-.4.4-.2zm-1.2 9.3c0 .3-.1.6-.2.9-.3.5-.5 1-.6 1.5-.2.8-.4 1.7-.9 2.4-.1.2-.4 0-.3-.2.2-.9.5-1.8.7-2.7.2-.8.8-1.3 1-2-.1-.1.3-.1.3.1zm34.4-8.2c.8.1 1.4 1 1.7 1.7.5 1 1 2.3 1 3.4 0 .2-.3.3-.4.1-.5-.7-.6-1.8-.9-2.6-.2-.6-.6-2.1-1.4-2.2-.2-.1-.2-.5 0-.4zm3.3 3.5c-.2-.2.1-.5.3-.3.1.1.2.3.3.5.1.1.3.2.4.3.1.1 0 .2 0 .2-.6.4-.7-.5-1-.7zm-56.3-6.6c-2.1.8-3.5 2.7-3.7 5 0 .3-.5.3-.5 0 0-2 1.6-6.1 4.2-5.3.2 0 .2.2 0 .3zm2.5.4c.1.1.1.2 0 .3-.2.2-.3.4-.5.4-.4.1-.5-.5-.1-.5.1 0 .2-.1.3-.2.1-.1.2-.1.3 0zm10-32.3c-2.6-.9-5.1-1.6-7.2-3.5-.2-.1.1-.4.2-.2 2.7 2.5 6.5 2.2 9.4 4.1 2.3 1.5 4.4 3.5 5.6 6.1.1.1-.1.3-.2.2-2.3-3-4.3-5.5-7.8-6.7zm4.7 7.5c-1-.7-2.2-1.2-3.3-1.7-.2-.1 0-.3.2-.3 2.6 1.1 5.8 2.4 5.7 5.8 0 .2-.2.2-.3 0-.4-1.5-1-2.9-2.3-3.8zm-18.8 38.1c-.8.8-2.3 1.3-3.4 1-.2-.1-.2-.3 0-.3.5-.2 1.1-.3 1.6-.5s1-.4 1.5-.5c.3-.1.4.1.3.3zm4.1-1l-1.2.6c-.2.1-.7.3-1 .6.1.1.1.2 0 .3-.1 0-.2 0-.2.1-.1 0-.3-.1-.3-.2 0-.5.7-1 1.1-1.2.4-.2 1.2-.7 1.7-.4 0 0 0 .1-.1.2z"/></svg>