<?xml version="1.0" encoding="iso-8859-1"?>
<!-- Generator: Adobe Illustrator 19.0.0, SVG Export Plug-In . SVG Version: 6.00 Build 0)  -->
<svg version="1.1" id="Layer_1" xmlns="http://www.w3.org/2000/svg" xmlns:xlink="http://www.w3.org/1999/xlink" x="0px" y="0px"
	 viewBox="0 0 512 512" style="enable-background:new 0 0 512 512;" xml:space="preserve">
<g>
	<g>
		<path style="fill: #44a2bc;" d="M486.4,38.4H25.6C11.46,38.4,0,49.86,0,64v384c0,14.14,11.46,25.6,25.6,25.6h460.8c14.14,0,25.6-11.46,25.6-25.6V64
			C512,49.86,500.54,38.4,486.4,38.4z M486.4,448H25.6V166.4h460.8V448z M486.4,140.8H25.6V64h460.8V140.8z"/>
	</g>
</g>
<g>
	<g>
		<circle cx="448" cy="102.4" r="12.8"/>
	</g>
</g>
<g>
	<g>
		<circle cx="396.8" cy="102.4" r="12.8"/>
	</g>
</g>
<g>
	<g>
		<circle cx="345.6" cy="102.4" r="12.8"/>
	</g>
</g>
<g>
	<g>
		<path style="fill: #44a2bc;" d="M358.349,292.685c-0.563-8.363-5.188-15.923-12.373-20.233l-128-76.8c-4.053-2.432-8.61-3.652-13.175-3.652
			c-4.343,0-8.695,1.101-12.612,3.319c-8.021,4.548-12.988,13.056-12.988,22.281v179.2c0,9.839,5.641,18.807,14.507,23.074
			c3.533,1.698,7.322,2.526,11.093,2.526c5.709,0,11.366-1.911,16-5.606l128-102.4C355.345,309.154,358.912,301.047,358.349,292.685
			z M204.8,396.8V217.6l128,76.8L204.8,396.8z"/>
	</g>
</g>
<g>
</g>
<g>
</g>
<g>
</g>
<g>
</g>
<g>
</g>
<g>
</g>
<g>
</g>
<g>
</g>
<g>
</g>
<g>
</g>
<g>
</g>
<g>
</g>
<g>
</g>
<g>
</g>
<g>
</g>
</svg>
